<svg xmlns="http://www.w3.org/2000/svg" xmlns:xlink="http://www.w3.org/1999/xlink" width="623" height="420" viewBox="0 0 623 420">
    <defs>
        <linearGradient id="c4a9nldyxb" x1="71.713%" x2="0%" y1="42.914%" y2="61.987%">
            <stop offset="0%" stop-color="#F9250B"/>
            <stop offset="100%" stop-color="#AB0000"/>
        </linearGradient>
        <path id="eayj43wgsa" d="M0.49 0H620.49V420H0.49z"/>
    </defs>
    <g fill="none" fill-rule="evenodd">
        <g>
            <g>
                <g transform="translate(-738 -236) translate(738.49 236) translate(.02)">
                    <use fill="#181D2E" xlink:href="#eayj43wgsa"/>
                </g>
                <g>
                    <g>
                        <path fill="#F38C85" d="M64.58 53.837L0 165.876 164.238 165.876 228.819 53.837z" transform="translate(-738 -236) translate(738.49 236) translate(250.51 23) translate(.365 34.47)"/>
                        <path fill="#F5B8B3" d="M145.212 112.039L80.631 224.078 244.87 224.078 309.45 112.039z" transform="translate(-738 -236) translate(738.49 236) translate(250.51 23) translate(.365 34.47)"/>
                        <path fill="#F16C62" d="M114.046 165.876L169.932 165.876 199.399 112.314 144.995 112.039z" transform="translate(-738 -236) translate(738.49 236) translate(250.51 23) translate(.365 34.47)"/>
                        <path fill="url(#c4a9nldyxb)" d="M145.212 0L80.631 112.039 244.87 112.039 309.45 0z" transform="translate(-738 -236) translate(738.49 236) translate(250.51 23) translate(.365 34.47)"/>
                    </g>
                    <g fill-rule="nonzero">
                        <g>
                            <path fill="#FFBE9D" d="M35.941 92.348l-3.969-.825c-3.542-1.063-5.546-1.52-6.37-2.683-1.09-1.56.993-2.454.993-2.454s-2.441-1.421-1.876-2.981c.285-.635.947-1.013 1.638-.934 0 0-2.124-1.362-2.392-2.415-.367-1.431 1.4-1.809 1.4-1.809-2.759-2.563-2.094-4.432-1.33-4.471.764-.04 2.976 1.56 2.976 1.56 1.985.993 7.263 3.845 5.785.308-1.479-3.538-1.29-6.807-.625-7.662.36-.373.919-.473 1.386-.247.467.226.736.726.668 1.241.088 1.292.351 2.566.783 3.786.314.991.794 1.922 1.42 2.753.733.993 1.388 1.759 1.984 2.414l2.867 4.114-5.338 10.305z" transform="translate(-738 -236) translate(738.49 236) translate(250.51 23) translate(14.732) translate(145.544 -.002)"/>
                            <path fill="#EA0028" d="M20.661 298.355l3.413-7.214 13.534 6.32-4.882 10.603-.863-.338c-3.83-1.54-19.367-8.079-21.51-10.007-2.392-2.146 10.308.636 10.308.636z" transform="translate(-738 -236) translate(738.49 236) translate(250.51 23) translate(14.732) translate(145.544 -.002)"/>
                            <g fill="#FFF" opacity=".3">
                                <path d="M.377 2.576C1.112 1.528 2.207.788 3.453.499c1.225-.305 2.52-.13 3.621.487L5.308 4.772.377 2.576z" transform="translate(-738 -236) translate(738.49 236) translate(250.51 23) translate(14.732) translate(145.544 -.002) translate(27.488 303.083)"/>
                            </g>
                            <g fill="#FFF" opacity=".3">
                                <path d="M4.733.556S.169-.159.357.746c.189.904 15.647 8.098 22.741 10.682l.12-.318L5.12 2.862S5.507.994 4.733.556z" transform="translate(-738 -236) translate(738.49 236) translate(250.51 23) translate(14.732) translate(145.544 -.002) translate(9.628 296.636)"/>
                            </g>
                            <path fill="#263238" d="M33.054 307.835l-.238-.079-.685-.268-2.51-1.044c-2.114-.894-5.02-2.166-8.186-3.647-3.165-1.48-6.022-2.871-8.066-3.915l-2.411-1.252-.645-.348-.228-.129c.083.021.164.055.238.1l.665.317 2.44 1.203c2.054.994 4.912 2.385 8.077 3.865 3.165 1.481 6.062 2.763 8.165 3.687l2.48 1.093.676.298.228.12z" transform="translate(-738 -236) translate(738.49 236) translate(250.51 23) translate(14.732) translate(145.544 -.002)"/>
                            <path fill="#263238" d="M14.659 299.707c.076-.456.102-.92.079-1.381-.082-.461-.215-.911-.397-1.342.65.758.775 1.835.318 2.723zM19.55 299.548c-.115-.225-.18-.473-.188-.726-.06-.241-.06-.493 0-.735 0 0 .129.308.178.716.065.243.069.5.01.745zM20.959 299.478c-.05 0-.198-.228-.337-.546-.14-.318-.209-.587-.16-.606.05-.02.2.218.328.536.109.188.167.4.169.616zM22.239 298.514c0 .05-.347-.06-.744-.238-.25-.084-.48-.219-.675-.398 0-.05.357.06.744.239.25.083.48.219.675.397zM22.904 297.73c-.308.046-.623-.003-.903-.14-.295-.082-.558-.251-.754-.487.284.08.56.186.823.318.286.08.565.182.834.308z" transform="translate(-738 -236) translate(738.49 236) translate(250.51 23) translate(14.732) translate(145.544 -.002)"/>
                            <path fill="#263238" d="M19.68 298.147c-.31-.086-.601-.224-.864-.408-.298-.184-.577-.397-.834-.636-.155-.14-.295-.296-.416-.467-.075-.107-.107-.238-.09-.367.027-.147.142-.262.288-.289.53-.005 1.036.227 1.379.632.343.405.489.942.397 1.465-.012.088-.042.173-.09.249.034-.312.017-.628-.049-.934-.092-.318-.27-.603-.516-.825-.287-.278-.673-.428-1.071-.418-.189 0-.209.229-.1.398.117.16.25.306.397.437.245.235.507.45.784.646.467.338.794.487.784.517z" transform="translate(-738 -236) translate(738.49 236) translate(250.51 23) translate(14.732) translate(145.544 -.002)"/>
                            <path fill="#263238" d="M19.431 298.087c-.016-.234.05-.466.189-.656.133-.213.313-.393.525-.526.275-.188.625-.225.933-.1.162.127.197.358.08.527-.084.13-.196.239-.328.318-.202.141-.422.255-.655.338-.208.093-.437.134-.665.119 0 0 .248-.08.616-.238.215-.094.419-.214.605-.358.208-.13.446-.418.248-.557-.199-.139-.536 0-.744.1-.201.111-.377.264-.516.447-.107.19-.204.385-.288.586zM34.502 304s-.367-.219-.992-.428c-.839-.277-1.738-.318-2.6-.119-.855.221-1.636.667-2.262 1.292-.476.487-.674.865-.704.855.024-.1.068-.195.129-.279.136-.24.3-.463.486-.665.617-.68 1.422-1.16 2.312-1.382.89-.21 1.824-.147 2.679.18.256.092.503.212.734.357.149.11.228.179.218.189zM35.723 297.71c-.33.967-.722 1.913-1.171 2.832-.396.949-.847 1.875-1.35 2.772.341-.968.735-1.917 1.181-2.842.394-.945.842-1.868 1.34-2.762zM26.773 303.592c-.714-.159-1.407-.402-2.064-.725-.676-.282-1.316-.646-1.905-1.083 0-.05.884.417 1.985.914 1.101.497 2.004.805 1.984.894z" transform="translate(-738 -236) translate(738.49 236) translate(250.51 23) translate(14.732) translate(145.544 -.002)"/>
                            <path fill="#263238" d="M29.472 304.785s-.159.149-.347.308c-.189.159-.318.318-.357.298-.04-.02 0-.248.238-.437.238-.19.466-.219.466-.17zM31.01 304s-.139.149-.337.228c-.199.08-.387.1-.407.05-.02-.05.139-.15.337-.219.199-.07.387-.109.407-.06zM32.707 304.1s-.209-.05-.447-.07c-.238-.02-.417 0-.437 0-.02 0 .18-.18.457-.15.278.03.456.18.427.22zM33.848 304.308s-.11.08-.248.07c-.14-.01-.239-.06-.229-.11.01-.05.11-.08.248-.07.14.01.229.06.229.11z" transform="translate(-738 -236) translate(738.49 236) translate(250.51 23) translate(14.732) translate(145.544 -.002)"/>
                            <path fill="#EA0028" d="M134.813 302.3l-3.374-7.234 13.484-6.38 5.05 10.524-.813.457c-3.622 1.988-18.554 9.788-21.402 10.216-3.175.447 7.055-7.583 7.055-7.583z" transform="translate(-738 -236) translate(738.49 236) translate(250.51 23) translate(14.732) translate(145.544 -.002)"/>
                            <g fill="#FFF" opacity=".3">
                                <path d="M.466 6.263C.12 5.029.247 3.71.824 2.566 1.376 1.434 2.332.55 3.502.092l1.796 3.766L.466 6.263z" transform="translate(-738 -236) translate(738.49 236) translate(250.51 23) translate(14.732) translate(145.544 -.002) translate(144.566 295.134)"/>
                            </g>
                            <g fill="#FFF" opacity=".3">
                                <path d="M3.205 7.8S-.258 10.872.555 11.3c.814.427 16.203-6.956 22.712-10.743l-.169-.288-17.86 8.705s-1.27-1.51-2.033-1.172z" transform="translate(-738 -236) translate(738.49 236) translate(250.51 23) translate(14.732) translate(145.544 -.002) translate(126.707 298.624)"/>
                            </g>
                            <path fill="#263238" d="M150.013 298.783l-.218.129-.645.358-2.401 1.272c-2.034 1.063-4.862 2.494-8.027 3.974-3.165 1.481-6.042 2.803-8.146 3.717l-2.5 1.073-.685.278-.238.08.228-.12.665-.307 2.48-1.113c2.084-.944 4.961-2.266 8.127-3.776 3.165-1.51 5.953-2.912 8.036-3.975l2.421-1.223.665-.328c.078-.022.157-.035.238-.04z" transform="translate(-738 -236) translate(738.49 236) translate(250.51 23) translate(14.732) translate(145.544 -.002)"/>
                            <path fill="#263238" d="M132.035 307.806c-.294-.367-.626-.7-.993-.994-.405-.228-.834-.411-1.28-.547 1.001-.015 1.911.579 2.302 1.5l-.03.04zM135.05 303.89s-.327-.099-.674-.318c-.347-.218-.605-.427-.575-.467.03-.04.327.1.674.318.348.219.596.428.576.467zM135.864 302.787c0 .05-.297 0-.625-.089-.327-.09-.585-.219-.575-.268.213-.019.428.015.625.099.347.07.585.209.575.258zM135.954 301.188c0 .05-.278.238-.665.427s-.714.308-.744.258c.189-.188.415-.334.665-.427.426-.189.714-.308.744-.258zM135.755 300.174s-.228.358-.674.606c-.256.173-.555.27-.864.278.518-.287 1.03-.581 1.538-.884z" transform="translate(-738 -236) translate(738.49 236) translate(250.51 23) translate(14.732) translate(145.544 -.002)"/>
                            <path fill="#263238" d="M134.029 302.927c-.26.188-.553.326-.863.407-.322.112-.655.192-.992.238-.211.026-.425.026-.635 0-.131-.007-.253-.068-.338-.168-.08-.125-.08-.284 0-.408.526-.66 1.444-.855 2.193-.467.213.111.401.263.556.447.058.063.102.137.129.219-.215-.224-.467-.409-.745-.547-.31-.144-.656-.189-.992-.129-.392.045-.75.245-.992.557-.09.169 0 .308.238.328.195.02.39.02.586 0 .335-.036.667-.099.992-.19.486-.158.853-.307.863-.287z" transform="translate(-738 -236) translate(738.49 236) translate(250.51 23) translate(14.732) translate(145.544 -.002)"/>
                            <path fill="#263238" d="M133.83 303.076s-.248-.14-.386-.557c-.082-.24-.106-.495-.07-.745.03-.332.224-.627.516-.785.202-.044.403.078.456.278.034.15.034.307 0 .457-.023.245-.08.486-.168.716-.14.397-.308.606-.328.586-.02-.02.1-.239.209-.626.064-.224.104-.454.119-.686 0-.248-.05-.616-.278-.546-.228.07-.347.407-.397.636-.05.225-.05.46 0 .685.085.208.195.405.327.587zM147.98 295.215s-.398.15-.993.517c-.742.458-1.34 1.116-1.726 1.898-.381.797-.536 1.684-.447 2.564.07.685.228 1.083.198 1.093-.057-.086-.1-.18-.129-.278-.095-.257-.162-.524-.198-.795-.13-.909.012-1.835.407-2.663.399-.836 1.043-1.529 1.845-1.988.238-.14.491-.254.754-.338.095-.019.192-.022.288-.01z" transform="translate(-738 -236) translate(738.49 236) translate(250.51 23) translate(14.732) translate(145.544 -.002)"/>
                            <path fill="#263238" d="M143.921 290.267c.526.877 1.003 1.782 1.429 2.712.477.909.902 1.845 1.27 2.803-.528-.88-1.005-1.79-1.429-2.723-.483-.902-.908-1.835-1.27-2.792zM142.71 300.89c-.573.457-1.203.838-1.875 1.132-.643.351-1.33.615-2.044.785 0 0 .883-.417 1.985-.944 1.101-.526 1.905-1.013 1.935-.974zM145.35 299.617v.467c0 .239.05.448 0 .468-.05.02-.179-.18-.179-.458s.13-.477.179-.477zM145.757 297.918c.05 0 0 .199-.05.408-.05.208-.169.357-.208.347-.04-.01 0-.198 0-.407 0-.209.208-.368.258-.348zM146.908 296.636c0 .05-.17.14-.328.298-.159.16-.258.338-.307.328-.05-.01 0-.258.178-.457.179-.199.457-.169.457-.169zM147.8 295.92s0 .14-.099.24c-.099.099-.198.138-.238.109-.04-.03 0-.14.1-.239.099-.1.198-.149.238-.11z" transform="translate(-738 -236) translate(738.49 236) translate(250.51 23) translate(14.732) translate(145.544 -.002)"/>
                            <path fill="#263238" d="M150.579 292.244L128.75 302.41 89.5 232.422c-5.11-18.463-10.041-83.472-10.041-83.472l28.396 2.167s4.376 46.704 11.232 70.712l31.492 70.415z" transform="translate(-738 -236) translate(738.49 236) translate(250.51 23) translate(14.732) translate(145.544 -.002)"/>
                            <path fill="#455A64" d="M125.258 295.563s.278-.209.823-.497c.546-.288 1.35-.695 2.342-1.182 1.984-.994 4.753-2.296 7.819-3.727 3.065-1.43 5.844-2.693 7.868-3.577.992-.447 1.845-.805 2.41-.994.29-.147.596-.254.913-.318-.249.204-.526.372-.823.497-.556.288-1.35.696-2.342 1.183-1.984.993-4.752 2.295-7.808 3.726s-5.844 2.683-7.878 3.577c-.992.448-1.836.805-2.411.994-.288.149-.595.256-.913.318z" transform="translate(-738 -236) translate(738.49 236) translate(250.51 23) translate(14.732) translate(145.544 -.002)"/>
                            <path fill="#263238" d="M120.753 122.786c.536 0 6.34 17.22.754 28.639-.565 1.142-4.96 7.433-4.96 7.433-15.459 18.264-31.116 53.66-35.481 62.991-8.93 19.09-42.03 81.882-42.03 81.882l-21.232-12.173 31.045-79.944 28.179-72.144 43.725-16.684z" transform="translate(-738 -236) translate(738.49 236) translate(250.51 23) translate(14.732) translate(145.544 -.002)"/>
                            <path fill="#263238" d="M80.203 203.495L63.226 196.698 64.04 199.193 77.484 204.121z" transform="translate(-738 -236) translate(738.49 236) translate(250.51 23) translate(14.732) translate(145.544 -.002)"/>
                            <path fill="#455A64" d="M109.67 168.05c-.071.157-.165.305-.277.437l-.873 1.182c-.754.994-1.826 2.544-3.066 4.462-2.49 3.836-5.626 9.321-8.83 15.522-3.205 6.2-5.954 11.924-7.889 16.038l-2.331 4.9-.645 1.321c-.068.159-.155.309-.258.447.032-.168.085-.332.159-.487l.565-1.361c.496-1.183 1.24-2.882 2.173-4.969 1.885-4.173 4.544-9.937 7.769-16.128 2.685-5.323 5.667-10.492 8.93-15.482 1.29-1.898 2.4-3.388 3.214-4.382.377-.457.695-.825.993-1.123.106-.14.229-.268.367-.378zM19.421 287.832c.06-.12 5.07 2.266 11.192 5.336 6.122 3.07 11.023 5.674 10.914 5.804-.109.129-5.07-2.266-11.192-5.337-6.122-3.07-10.973-5.674-10.914-5.803z" transform="translate(-738 -236) translate(738.49 236) translate(250.51 23) translate(14.732) translate(145.544 -.002)"/>
                            <path fill="#263238" d="M44.652 81.626c-1.151 2.603-2.457 5.135-3.909 7.582-1.3 2.533-2.759 4.983-4.365 7.334 1.153-2.605 2.459-5.14 3.909-7.592 1.309-2.526 2.766-4.972 4.365-7.324z" transform="translate(-738 -236) translate(738.49 236) translate(250.51 23) translate(14.732) translate(145.544 -.002)"/>
                            <path fill="#455A64" d="M84.767 51.387c1.16 0 2.54 8.447 3.71 23.62 1.33 17.212 1.211 34.582-3.542 45.503-.886 2.355-2.67 4.26-4.96 5.297-12.304 5.087-46.247-31.362-46.247-31.362l8.355-14.677 23.902 19.328s2.38-19.557 1.924-28.57c-.367-6.837 6.45-19.06 16.858-19.139z" transform="translate(-738 -236) translate(738.49 236) translate(250.51 23) translate(14.732) translate(145.544 -.002)"/>
                            <path fill="#455A64" d="M95.343 51.556s20.757 3.04 26.125 11.21c5.368 8.168 2.649 80.212 2.649 80.212l-53.36 3.16s4.306-91.7 6.945-92.743c6.628-2.604 16.848-2.097 17.641-1.839z" transform="translate(-738 -236) translate(738.49 236) translate(250.51 23) translate(14.732) translate(145.544 -.002)"/>
                            <path fill="#FFF" d="M34.104 46.739c-.09-1.287.148-2.576.694-3.744.242-.5.37-1.048.374-1.603V39.97H16.89c-1.55 0-2.805 1.26-2.805 2.814v18.264H12.85c-.571-.006-1.134-.142-1.645-.398-3.157-1.526-6.945-.68-9.161 2.043-2.216 2.724-2.282 6.617-.16 9.415 2.123 2.798 5.88 3.77 9.088 2.354.482-.22 1.005-.336 1.534-.34h1.603V91.93c-.001.747.294 1.464.82 1.993.526.53 1.24.826 1.985.826h49.384c1.263 0 2.286-1.026 2.286-2.293V42.263c.002-.608-.239-1.193-.668-1.623-.429-.43-1.011-.671-1.618-.67H48.455V42c-.002.47.09.935.268 1.369 1.141 2.789.533 5.99-1.551 8.162-2.084 2.172-5.25 2.904-8.072 1.866-2.82-1.038-4.764-3.65-4.955-6.658h-.04z" transform="translate(-738 -236) translate(738.49 236) translate(250.51 23) translate(14.732) translate(145.544 -.002)"/>
                            <path fill="#263238" d="M74.378 66.88c.031.197.048.396.05.595v1.72c0 1.56 0 3.706.08 6.32 0 5.336.089 12.71-.08 20.868-.169 8.158-.615 15.522-1.16 20.868-.279 2.663-.546 4.8-.765 6.28-.109.696-.198 1.252-.278 1.7-.014.2-.057.397-.129.586-.013-.199-.013-.398 0-.597.05-.447.1-.993.18-1.709.148-1.49.366-3.637.594-6.29.457-5.316.864-12.67.993-20.809.129-8.138.158-15.501.228-20.868 0-2.613.07-4.76.09-6.32 0-.695 0-1.272.049-1.719.02-.214.071-.425.148-.626zM106.119 17.59c-.854 5.427-.804 10.187 1.845 13.724.575.68 1.105 1.398 1.588 2.147.483.761.63 1.69.406 2.563-.25.781-.902 1.366-1.705 1.529-.802.163-1.63-.122-2.164-.744.176 1.256-.424 2.493-1.518 3.13-.554.256-1.195.242-1.737-.038-.542-.279-.926-.793-1.041-1.392 0 0 .704 2.752-2.451 2.325l2.222-18.88 4.555-4.363z" transform="translate(-738 -236) translate(738.49 236) translate(250.51 23) translate(14.732) translate(145.544 -.002)"/>
                            <path fill="#FFBE9D" d="M91.98 59.327c-2.49 0-4.861-1.059-6.527-2.912-1.665-1.853-2.466-4.327-2.204-6.807.287-2.822.545-5.117.545-5.117s-6.945-1.083-7.034-8.04c-.09-6.955 1.12-22.924 1.12-22.924 8.04-3.457 17.318-2.286 24.25 3.06l.992.785-2.41 33.787c-.328 4.592-4.136 8.154-8.732 8.168z" transform="translate(-738 -236) translate(738.49 236) translate(250.51 23) translate(14.732) translate(145.544 -.002)"/>
                            <path fill="#263238" d="M79.667 26.087c.399-.371.424-.995.057-1.398-.368-.403-.991-.433-1.396-.069-.405.365-.44.989-.08 1.398.177.2.428.32.695.334.267.013.528-.082.724-.265zM77.742 23.891c.11.12.794-.407 1.746-.407.953 0 1.657.487 1.756.367.1-.119-.05-.268-.357-.506-.406-.295-.897-.448-1.399-.438-.503 0-.993.16-1.399.457-.297.259-.397.477-.347.527zM88.765 25.352c-.23.136-.395.36-.459.62-.063.26-.02.534.122.761.136.233.36.401.623.465.262.064.538.018.766-.127.231-.138.397-.364.458-.626.062-.262.015-.539-.13-.765-.138-.229-.362-.393-.621-.454-.26-.062-.533-.017-.759.126zM88.13 24.736c.11.119.794-.408 1.746-.408.953 0 1.657.487 1.757.368.099-.12-.06-.268-.358-.507-.409-.296-.904-.45-1.408-.437-.503 0-.992.168-1.39.477-.297.238-.396.457-.347.507zM84.3 32.636c-.495-.19-1.018-.3-1.547-.328-.248 0-.447-.08-.467-.219-.01-.25.052-.499.179-.715l.754-1.988c.72-1.644 1.269-3.36 1.637-5.117-.879 1.58-1.597 3.244-2.143 4.968-.248.676-.486 1.322-.714 1.988-.167.32-.216.69-.14 1.043.072.193.23.34.427.398.14.036.283.056.427.06.53.06 1.067.03 1.587-.09z" transform="translate(-738 -236) translate(738.49 236) translate(250.51 23) translate(14.732) translate(145.544 -.002)"/>
                            <path fill="#FFF" d="M87.406 33.7c.992-.597-2.748 1.46-4.693 1.36.666 1.036 1.959 1.473 3.115 1.054 2.084-.765 1.578-2.415 1.578-2.415z" transform="translate(-738 -236) translate(738.49 236) translate(250.51 23) translate(14.732) translate(145.544 -.002)"/>
                            <path fill="#EB996E" d="M83.735 44.391c3.206.06 6.356-.84 9.049-2.583 0 0-2.144 4.968-9.069 4.382l.02-1.799z" transform="translate(-738 -236) translate(738.49 236) translate(250.51 23) translate(14.732) translate(145.544 -.002)"/>
                            <path fill="#FFBE9D" d="M103.122 24.11c.15-.05 5.18-.398 4.346 5.465-.833 5.863-6.47 3.08-6.46 2.912.01-.17 2.114-8.377 2.114-8.377z" transform="translate(-738 -236) translate(738.49 236) translate(250.51 23) translate(14.732) translate(145.544 -.002)"/>
                            <path fill="#EB996E" d="M103.092 30.688s.09.09.258.189c.224.142.496.189.754.13.84-.382 1.41-1.188 1.489-2.108.093-.498.07-1.012-.07-1.5-.06-.387-.304-.721-.655-.894-.234-.104-.509-.02-.644.198-.1.15-.08.269-.12.279-.04.01-.109-.12 0-.348.051-.145.154-.265.288-.338.177-.104.39-.13.586-.07.473.187.812.61.893 1.113.18.541.222 1.119.119 1.68-.09 1.077-.818 1.995-1.846 2.325-.332.045-.667-.06-.913-.288-.148-.229-.158-.358-.139-.368z" transform="translate(-738 -236) translate(738.49 236) translate(250.51 23) translate(14.732) translate(145.544 -.002)"/>
                            <path fill="#263238" d="M76.016 12.86c.212-1.228 1.369-2.06 2.6-1.867-1.095-.094-2.014-.865-2.298-1.928-.285-1.062.126-2.19 1.027-2.82.9-.63 2.099-.626 2.997.008-.783-.736-1.404-1.626-1.826-2.614-.436-1.036-.165-2.235.675-2.981.92-.533 2.055-.533 2.976 0 1.429.725 2.51 2.037 3.969 2.653 1.458.616 3.175.467 4.792.636 1.798.147 3.503.86 4.872 2.037 1.383 1.19 2.12 2.969 1.984 4.79 2.193-.13 4.594 0 6.29 1.361-.261-1.802.467-3.606 1.906-4.72 1.832-1.276 4.195-1.51 6.24-.616.966.33 1.747 1.051 2.154 1.988.446 1.341-.397 2.782-1.459 3.716-2.014 1.712-4.72 2.365-7.292 1.759.402 1.037.571 2.15.496 3.26-.11 1.917-1.647 3.905-2.322 5.703l-.149 1.183-1.15 4.919-3.077-.249.844-10.334s.575-4.343-3.195-4.194c-3.77.15-9.118 4.074-16.341 2.554-1.186-.141-2.324-.545-3.334-1.183-.97-.703-1.494-1.867-1.38-3.06z" transform="translate(-738 -236) translate(738.49 236) translate(250.51 23) translate(14.732) translate(145.544 -.002)"/>
                            <path fill="#263238" d="M116.467 17.402c-.58.445-1.262.74-1.984.855-3.614.822-7.31-.996-8.87-4.363-.355-.645-.543-1.37-.546-2.106.09 0 .248.805.873 1.987 1.641 3.064 5.05 4.739 8.473 4.164 1.27-.259 2.014-.636 2.054-.537z" transform="translate(-738 -236) translate(738.49 236) translate(250.51 23) translate(14.732) translate(145.544 -.002)"/>
                            <path fill="#263238" d="M109.095 23.126c-.08 0 0-.616-.178-1.53-.283-1.195-.77-2.331-1.44-3.36-.7-1.049-1.33-2.144-1.884-3.278-.258-.47-.395-.995-.397-1.53.277.436.52.895.724 1.37.447.835 1.21 1.909 1.985 3.17.71 1.075 1.178 2.293 1.369 3.568.115.535.053 1.094-.179 1.59z" transform="translate(-738 -236) translate(738.49 236) translate(250.51 23) translate(14.732) translate(145.544 -.002)"/>
                            <path fill="#FFBE9D" d="M57.69 80.602c-3.454-2.103-6.79-4.396-9.991-6.866-3.84-3.25-3.562-3.607-3.116-3.975 1.19-1.063 6.945 5.465 6.519 3.319-.427-2.146-7.938-7.135-6.668-8.188 1.687-1.381 7.6 5.565 8.146 6.111.546.547 1.34-.238.824-.705-.745-.676-8.365-7.95-6.727-9.321.912-.766 2.083 1.043 2.083 1.043s6.648 7.363 7.402 6.688c.754-.676-2.977-5.138-4.366-6.549-1.389-1.411-1.26-2.613-.158-2.723.744-.07 5.04 4.144 6.37 5.565 1.329 1.421 4.88 5.406 4.683 1.988-.199-3.419.892-6.142 1.686-6.668.794-.527 1.796.427 1.42 1.42-.304 1.121-.45 2.278-.438 3.439-.028.932.1 1.863.378 2.753.238.765.476 1.44.704 2.037l2.332 6.429-5.854 7.423-5.23-3.22z" transform="translate(-738 -236) translate(738.49 236) translate(250.51 23) translate(14.732) translate(145.544 -.002)"/>
                            <path fill="#455A64" d="M115.445 58.502c1.23.308 8.553 4.104 8.672 20.73.09 13.216-.923 42.55-9.922 46.912-4.078 1.988-10.27 1.988-15.647-1.54-15.16-9.808-42.01-41.428-42.01-41.428l12.016-12.819s31.195 31.8 32.524 30.627c1.985-1.77-1.061-16.953.645-31.958 1.171-10.673 6.132-12.422 13.722-10.524z" transform="translate(-738 -236) translate(738.49 236) translate(250.51 23) translate(14.732) translate(145.544 -.002)"/>
                            <path fill="#263238" d="M68.535 70.814c-.06.082-.13.155-.209.219l-.645.636c-.565.546-1.399 1.361-2.45 2.454-2.995 3.097-5.748 6.42-8.236 9.938v-.229c8.474 8.655 20.836 21.246 34.558 35.247 3.242 3.088 7.196 5.324 11.51 6.509 2.032.566 4.166.661 6.24.278 1.974-.437 3.806-1.363 5.329-2.693 2.78-2.55 4.813-5.81 5.883-9.43.949-3.156 1.587-6.398 1.905-9.679.804-5.962 1.23-10.93 1.42-14.28.098-1.689.148-2.98.188-3.895v-.994c-.014-.112-.014-.225 0-.338.015.116.015.233 0 .348v.994c0 .894 0 2.206-.09 3.905-.129 3.389-.496 8.298-1.26 14.32-.296 3.309-.918 6.58-1.855 9.768-1.073 3.7-3.13 7.04-5.953 9.659-1.58 1.389-3.484 2.356-5.537 2.812-2.146.399-4.355.304-6.459-.278-4.403-1.196-8.44-3.47-11.747-6.618-13.772-14.022-26.035-26.701-34.45-35.377l-.108-.109.089-.12c2.523-3.508 5.323-6.808 8.374-9.867 1.082-1.063 1.984-1.858 2.53-2.395l.675-.586.298-.199z" transform="translate(-738 -236) translate(738.49 236) translate(250.51 23) translate(14.732) translate(145.544 -.002)"/>
                            <path fill="#263238" d="M68.544 70.357s.07 0 .17.14l.465.466 1.776 1.799c1.538 1.57 3.79 3.816 6.618 6.568 2.828 2.753 6.241 6.032 10.09 9.63l6.073 5.634c2.133 1.928 4.336 3.975 6.697 5.903l-.406.198c.07-1.172.139-2.414.208-3.666.397-6.569.764-12.83 1.101-18.523.209-2.842.258-5.555.566-8.09.229-2.369.88-4.678 1.925-6.816.865-1.777 2.178-3.298 3.81-4.412 1.247-.818 2.68-1.307 4.167-1.421.933-.078 1.872.037 2.758.338.311.091.608.225.883.397 0 0-.307-.129-.913-.298-.882-.252-1.805-.333-2.718-.238-1.44.149-2.82.65-4.019 1.46-1.561 1.118-2.817 2.612-3.65 4.343-.995 2.109-1.613 4.375-1.826 6.698-.278 2.504-.308 5.217-.506 8.059l-1.062 18.522c-.07 1.253-.149 2.505-.208 3.667v.507l-.387-.308c-2.421-1.987-4.584-3.975-6.718-5.962-2.133-1.988-4.137-3.856-6.062-5.664-3.83-3.628-7.223-6.956-10.02-9.71-2.799-2.752-5.011-5.087-6.51-6.697-.764-.795-1.32-1.43-1.706-1.868l-.427-.487c-.129-.11-.178-.169-.169-.169z" transform="translate(-738 -236) translate(738.49 236) translate(250.51 23) translate(14.732) translate(145.544 -.002)"/>
                            <path fill="#263238" d="M61.837 88.483c.428-.762.937-1.475 1.518-2.127.992-1.262 2.401-2.981 4.019-4.84 1.617-1.858 3.115-3.497 4.226-4.66.568-.663 1.204-1.266 1.895-1.798-.475.733-1.02 1.418-1.627 2.047l-4.107 4.75-4.128 4.74c-.538.684-1.139 1.317-1.796 1.888zM103.142 108.158c-.613-1.215-1.118-2.482-1.508-3.786-.56-1.24-1.012-2.527-1.35-3.846 1.472 2.318 2.445 4.917 2.858 7.632z" transform="translate(-738 -236) translate(738.49 236) translate(250.51 23) translate(14.732) translate(145.544 -.002)"/>
                            <path fill="#263238" d="M105.87 106.042c-1.168-.721-2.24-1.586-3.194-2.574-1.066-.875-2.022-1.876-2.848-2.981 2.242 1.586 4.273 3.453 6.043 5.555z" transform="translate(-738 -236) translate(738.49 236) translate(250.51 23) translate(14.732) translate(145.544 -.002)"/>
                        </g>
                        <g>
                            <path fill="#FFA77A" d="M44.641 254.075L12.772 282.883 4.04 271.694 31.97 237.043z" transform="translate(-738 -236) translate(738.49 236) translate(250.51 23) translate(14.732) translate(.049 -.002)"/>
                            <path fill="#EA0028" d="M13.506 283.966l1.091-.993L4.537 270.6l-4.535 3.975.605.775c2.71 3.448 14.03 17.34 16.63 18.95 2.897 1.789-3.731-10.335-3.731-10.335z" transform="translate(-738 -236) translate(738.49 236) translate(250.51 23) translate(14.732) translate(.049 -.002)"/>
                            <g fill="#FFF" opacity=".5">
                                <path d="M3.901 7.525c.85-1.06 1.274-2.4 1.191-3.757-.06-1.341-.628-2.61-1.587-3.547L.18 3.2 3.9 7.526z" transform="translate(-738 -236) translate(738.49 236) translate(250.51 23) translate(14.732) translate(.049 -.002) translate(0 271.284)"/>
                            </g>
                            <path fill="#FFF" d="M16.572 290.048s2.103 4.452 1.12 4.521c-.981.07-12.898-13.534-17.69-19.993l.288-.219 13.821 15.99s1.816-.965 2.46-.299z" opacity=".5" transform="translate(-738 -236) translate(738.49 236) translate(250.51 23) translate(14.732) translate(.049 -.002)"/>
                            <path fill="#263238" d="M.131 274.168c.045.079.098.152.159.219l.476.626 1.816 2.246c1.538 1.888 3.71 4.462 6.161 7.254 2.451 2.792 4.733 5.277 6.41 7.055l1.984 2.087.546.557c.062.07.132.133.208.188l-.178-.218-.526-.577c-.526-.586-1.18-1.291-1.985-2.126-1.647-1.799-3.909-4.293-6.36-7.085-2.45-2.793-4.633-5.356-6.21-7.225l-1.856-2.206-.506-.596c-.039-.07-.086-.138-.139-.199z" transform="translate(-738 -236) translate(738.49 236) translate(250.51 23) translate(14.732) translate(.049 -.002)"/>
                            <path fill="#263238" d="M13.923 290.505c.44-.225.907-.395 1.389-.507.49-.056.987-.056 1.478 0-.46-.252-.998-.323-1.508-.198-.525.06-1.009.31-1.36.705zM12.613 285.417c.258.062.526.062.784 0 .426-.06.764-.159.754-.218-.525-.045-1.053.04-1.538.248v-.03zM12.276 284.006s.277.13.644.17c.368.039.665 0 .675 0 .01 0-.288-.13-.655-.17-.367-.04-.664-.06-.664 0zM12.86 282.406s.17.338.467.686c.298.348.576.606.615.566.04-.04-.168-.337-.476-.685-.307-.348-.565-.606-.605-.567zM13.466 281.492c.04.327.183.633.407.875.327.427.694.675.724.636.03-.04-.268-.338-.565-.756-.169-.266-.358-.519-.566-.755z" transform="translate(-738 -236) translate(738.49 236) translate(250.51 23) translate(14.732) translate(.049 -.002)"/>
                            <path fill="#263238" d="M14.002 284.91c.182.29.414.546.685.756.274.249.573.468.893.656.185.128.39.229.605.298.128.049.269.049.397 0 .14-.076.223-.228.208-.388-.156-.542-.544-.987-1.06-1.213-.516-.227-1.105-.212-1.609.04-.087.04-.164.098-.228.17.313-.14.65-.217.992-.23.35-.003.695.093.992.28.371.215.637.574.734.993 0 .199-.158.278-.357.218-.196-.073-.385-.163-.565-.268-.316-.18-.617-.382-.903-.606-.506-.437-.754-.735-.784-.706z" transform="translate(-738 -236) translate(738.49 236) translate(250.51 23) translate(14.732) translate(.049 -.002)"/>
                            <path fill="#263238" d="M14.14 285.139c.242-.046.458-.181.606-.378.182-.2.311-.443.377-.705.128-.337.064-.718-.169-.994-.18-.127-.427-.092-.565.08-.105.125-.182.27-.228.427-.08.251-.127.512-.14.775-.037.237-.013.48.07.706.037-.23.057-.463.06-.696.038-.247.098-.49.178-.725.07-.249.298-.577.506-.418.15.237.193.525.12.795-.054.239-.16.462-.308.656-.155.173-.324.332-.506.477zM3.594 271.535s.337.308.744.904c.537.775.85 1.683.903 2.624.035.938-.185 1.869-.635 2.693-.357.626-.685.993-.655.993.03 0 .1-.06.238-.208.2-.212.377-.445.526-.696.512-.83.761-1.797.714-2.772-.055-.977-.4-1.915-.992-2.693-.173-.234-.373-.448-.595-.636-.139-.16-.238-.219-.248-.209zM6.362 279.296c.377.683.84 1.314 1.38 1.878.492.609 1.062 1.15 1.696 1.61 0 0-.695-.775-1.538-1.74-.843-.963-1.439-1.778-1.538-1.748z" transform="translate(-738 -236) translate(738.49 236) translate(250.51 23) translate(14.732) translate(.049 -.002)"/>
                            <path fill="#263238" d="M4.328 276.95c-.06 0-.109.21-.218.438-.11.229-.228.427-.189.467.04.04.238-.11.367-.387.13-.279.09-.517.04-.517zM4.646 275.102c-.05 0-.11.18-.13.418-.02.238 0 .427.07.427s.11-.179.129-.417c.02-.239-.02-.428-.07-.428zM4.04 273.403s.11.199.199.428c.09.228.109.437.168.447.06.01.13-.239 0-.517-.129-.278-.347-.407-.367-.358zM3.485 272.3v.269c0 .129.129.228.178.208.05-.02 0-.139 0-.278 0-.14-.129-.219-.178-.199z" transform="translate(-738 -236) translate(738.49 236) translate(250.51 23) translate(14.732) translate(.049 -.002)"/>
                            <path fill="#FFA77A" d="M101.325 253.777L105.164 297.292 88.744 297.292 81.501 253.777z" transform="translate(-738 -236) translate(738.49 236) translate(250.51 23) translate(14.732) translate(.049 -.002)"/>
                            <path fill="#EA0028" d="M104.688 297.7v-1.461l-15.944-.07.188 6.032h.992c4.386.08 22.285.12 25.172-.874 3.116-1.074-10.408-3.627-10.408-3.627z" transform="translate(-738 -236) translate(738.49 236) translate(250.51 23) translate(14.732) translate(.049 -.002)"/>
                            <g fill="#FFF" opacity=".5">
                                <path d="M6.263 4.742c-.28-1.33-1.044-2.51-2.143-3.309C3.04.647 1.706.293.38.44l.158 4.442 5.725-.139z" transform="translate(-738 -236) translate(738.49 236) translate(250.51 23) translate(14.732) translate(.049 -.002) translate(88.305 297.121)"/>
                            </g>
                            <path fill="#FFF" d="M111.286 299.18s4.763 1.193 4.207 1.988c-.556.795-18.653 1.44-26.66.993v-.357l21.114-.567s.416-1.977 1.34-2.057z" opacity=".5" transform="translate(-738 -236) translate(738.49 236) translate(250.51 23) translate(14.732) translate(.049 -.002)"/>
                            <path fill="#263238" d="M88.595 301.843h3.939c2.44 0 5.804 0 9.515-.169 3.71-.168 7.074-.318 9.505-.486l2.877-.22.784-.079h.268-1.052l-2.887.16c-2.43.139-5.784.307-9.495.437-3.711.129-7.074.188-9.515.218h-3.661l-.278.14z" transform="translate(-738 -236) translate(738.49 236) translate(250.51 23) translate(14.732) translate(.049 -.002)"/>
                            <path fill="#263238" d="M109.957 301.525c.109-.483.272-.953.486-1.4.286-.415.619-.796.992-1.134-.49.193-.888.566-1.111 1.044-.302.434-.433.965-.367 1.49zM105.194 299.31c.05 0 .268-.249.486-.627.219-.377.357-.695.308-.725-.202.175-.365.392-.476.636-.157.213-.265.457-.318.715zM103.894 298.683s.278-.139.546-.397.446-.497.407-.527c-.04-.03-.278.13-.546.388s-.446.477-.407.536zM103.031 297.213c.265.087.547.11.824.07.282.023.566-.014.833-.11-.268-.092-.553-.119-.833-.08-.457.01-.824.06-.824.12zM102.704 296.16c.278.174.604.257.932.238.34.055.687 0 .993-.16-.31-.032-.623-.032-.933 0-.328-.054-.66-.08-.992-.079z" transform="translate(-738 -236) translate(738.49 236) translate(250.51 23) translate(14.732) translate(.049 -.002)"/>
                            <path fill="#263238" d="M105.68 297.908c.328.058.664.058.992 0 .369-.06.73-.153 1.082-.278.211-.07.414-.163.605-.278.12-.075.209-.192.248-.328.024-.154-.041-.308-.168-.398-.815-.372-1.78-.109-2.292.626-.153.207-.258.444-.308.696-.024.088-.024.18 0 .268.1-.315.247-.613.437-.884.22-.274.512-.48.843-.596.39-.164.83-.164 1.22 0 .169.119.11.308-.07.427-.177.102-.362.188-.555.258-.338.132-.686.235-1.042.308-.595.13-.992.15-.992.18z" transform="translate(-738 -236) translate(738.49 236) translate(250.51 23) translate(14.732) translate(.049 -.002)"/>
                            <path fill="#263238" d="M105.958 297.948c.11-.218.142-.467.09-.706-.04-.267-.145-.52-.308-.735-.178-.309-.508-.498-.863-.497-.212.059-.343.272-.298.487.025.163.09.316.188.447.14.222.311.422.506.597.161.181.366.318.596.397 0 0-.209-.179-.506-.487-.165-.186-.314-.386-.447-.596-.149-.219-.258-.596 0-.656.258-.06.526.219.685.407.15.193.255.417.307.656.035.227.052.456.05.686zM88.813 297.49s.456-.059 1.17 0c.94.082 1.837.426 2.59.995.75.563 1.33 1.323 1.677 2.196.268.675.308 1.133.347 1.123.016-.106.016-.213 0-.318-.042-.288-.112-.57-.208-.845-.315-.925-.903-1.732-1.687-2.315-.787-.573-1.726-.902-2.698-.944-.29-.025-.583-.025-.873 0-.112.018-.22.055-.318.109zM96.512 300.263c.765.147 1.546.19 2.322.13.78.005 1.556-.088 2.312-.279 0-.06-1.042.05-2.322.09-1.28.04-2.312.01-2.312.06z" transform="translate(-738 -236) translate(738.49 236) translate(250.51 23) translate(14.732) translate(.049 -.002)"/>
                            <path fill="#263238" d="M93.407 300.353s.09.218.208.447c.12.229.179.447.228.447.05 0 .08-.258-.06-.527-.138-.268-.346-.407-.376-.367zM92.186 298.942s.07.198.239.357c.168.16.337.259.377.22.04-.04-.07-.2-.248-.359-.179-.159-.338-.258-.368-.218zM90.49 298.326c0 .06.218.05.456.119.238.07.407.199.447.159.04-.04-.1-.259-.397-.338-.298-.08-.526.02-.506.06zM89.28 298.057c0 .05.079.13.208.18.129.049.258 0 .278 0 .02 0-.08-.13-.209-.18-.129-.05-.258-.05-.278 0zM72.462 126.065s12.849 85.46 10.983 89.623c-1.865 4.164-43.487 46.804-43.487 46.804l-15.637-26.79s27.543-30.557 27.146-32.137c-.397-1.58-19.844-84.377-19.844-84.377l40.839 6.877z" transform="translate(-738 -236) translate(738.49 236) translate(250.51 23) translate(14.732) translate(.049 -.002)"/>
                            <path fill="#263238" d="M77.036 157.625c-.13-.914-10.498-24.256-10.498-24.256l5.03-7.115.894-.189 4.574 31.56z" transform="translate(-738 -236) translate(738.49 236) translate(250.51 23) translate(14.732) translate(.049 -.002)"/>
                            <path fill="#263238" d="M24.32 118.016l-.783 3.17c-2.27 9.354-.848 19.225 3.969 27.556l34.806 60.447c2.473 4.283 4.273 8.922 5.338 13.753l8.681 39.113h28.575s-3.532-26.83-6.677-46.397c-2.381-14.776-22.126-60.616-31.69-82.319l5.953-7.304-10.29-1.719-37.881-6.3z" transform="translate(-738 -236) translate(738.49 236) translate(250.51 23) translate(14.732) translate(.049 -.002)"/>
                            <path fill="#455A64" d="M67.292 133.2c.4 1.307.887 2.585 1.459 3.826.992 2.335 2.262 5.564 3.651 9.152 1.39 3.587 2.61 6.866 3.483 9.231.42 1.3.923 2.572 1.508 3.806-.036-.37-.12-.734-.248-1.083-.189-.676-.486-1.66-.873-2.862-.784-2.405-1.985-5.694-3.334-9.3-1.35-3.608-2.768-6.808-3.82-9.103-.526-1.153-.992-2.077-1.28-2.703-.138-.344-.322-.669-.546-.964zM70.418 234.817c.022-.224.022-.45 0-.675-.06-.507-.13-1.143-.218-1.938-.1-1.024-.252-2.043-.457-3.051-.228-1.173-.446-2.534-.833-3.975-.179-.735-.367-1.51-.566-2.305-.198-.795-.476-1.62-.734-2.475-.476-1.719-1.151-3.497-1.806-5.386-1.556-4.066-3.328-8.047-5.308-11.924-3.668-6.973-7.73-13.731-12.164-20.242-1.677-2.504-3.066-4.522-4.039-5.903l-1.12-1.54c-.127-.188-.27-.364-.427-.527.085.211.195.411.327.597l1.042 1.64c.992 1.48 2.282 3.507 3.89 5.961 3.264 5.068 7.768 12.104 11.995 20.272 1.952 3.845 3.71 7.785 5.268 11.806.665 1.868 1.36 3.637 1.856 5.336.258.845.526 1.66.754 2.454.228.795.407 1.55.595 2.286.417 1.45.655 2.792.913 3.975.258 1.182.437 2.186.556 2.98.119.796.238 1.422.327 1.919.022.243.072.483.149.715z" transform="translate(-738 -236) translate(738.49 236) translate(250.51 23) translate(14.732) translate(.049 -.002)"/>
                            <path fill="#FAFAFA" d="M29.014 145.89s-.08-.09-.219-.299l-.605-.993c.964-1.517 2.506-2.573 4.267-2.922 1.303-.293 2.65-.334 3.968-.119 1.549.27 3.07.68 4.545 1.222 1.704.528 3.363 1.192 4.96 1.988 1.824.91 3.258 2.448 4.039 4.332.39 1.029.455 2.153.188 3.22-.325 1.034-.754 2.033-1.28 2.981-.536.925-.827 1.972-.843 3.04.087 1.08.58 2.085 1.38 2.813 1.904 1.898 4.722 2.246 7.054 3.428 2.275 1.154 4.13 2.997 5.298 5.267 1.097 2.019 1.612 4.303 1.488 6.598-.117 2-.76 3.934-1.865 5.605-1.577 2.426-3.932 4.241-6.678 5.147-.739.234-1.5.39-2.272.467-.267.02-.536.02-.803 0 1.01-.147 2.005-.38 2.976-.695 2.654-.955 4.915-2.766 6.43-5.148 1.046-1.624 1.648-3.495 1.746-5.425.093-2.215-.418-4.414-1.478-6.36-1.138-2.171-2.925-3.933-5.11-5.038-1.121-.557-2.381-.934-3.642-1.411-1.32-.436-2.531-1.151-3.552-2.097-.892-.82-1.438-1.95-1.528-3.16.018-1.155.329-2.287.903-3.29.515-.922.937-1.894 1.26-2.9.245-.973.183-1.997-.178-2.932-.726-1.783-2.073-3.241-3.79-4.104-1.57-.81-3.203-1.49-4.882-2.038-1.443-.555-2.934-.975-4.455-1.252-1.27-.234-2.575-.217-3.84.05-1.708.316-3.222 1.299-4.207 2.733l.546.993c.07.093.13.193.179.299zM101.156 234.927c-.701-.617-1.495-1.12-2.352-1.491-1.022-.402-2.087-.682-3.175-.835-1.26-.208-2.728-.338-4.335-.596-1.782-.256-3.5-.839-5.07-1.72-6.217-3.482-8.895-11.039-6.261-17.667.942-2.336 2.361-4.363 2.758-6.619.251-2.207-.07-4.442-.933-6.488-.754-1.899-1.397-3.84-1.925-5.814-.427-1.76-.427-3.596 0-5.356.622-2.548 2.058-4.823 4.088-6.479.726-.616 1.552-1.103 2.441-1.44-.81.47-1.583 1.001-2.312 1.59-1.927 1.676-3.278 3.919-3.86 6.409-.41 1.704-.41 3.482 0 5.187.553 1.95 1.215 3.868 1.985 5.744.907 2.118 1.249 4.436.992 6.727-.416 2.415-1.875 4.472-2.768 6.737-2.544 6.387-.005 13.676 5.953 17.092 1.534.879 3.215 1.468 4.961 1.74 1.588.278 3.056.427 4.326.665 1.106.196 2.182.53 3.205.994.644.289 1.242.67 1.776 1.133.347.288.526.467.506.487zM87.82 263.436c-.098 0-.128-1.292-.644-3.289-.303-1.167-.718-2.302-1.24-3.389-.653-1.323-1.44-2.575-2.352-3.736-.933-1.144-1.984-2.187-3.135-3.11-.946-.759-1.963-1.424-3.036-1.988-1.836-.934-3.096-1.242-3.066-1.341.305.003.607.06.893.169.338.076.67.18.992.308.448.15.885.329 1.31.536 1.123.517 2.188 1.153 3.175 1.898 2.423 1.837 4.353 4.248 5.616 7.016.514 1.124.907 2.3 1.17 3.508.11.461.19.93.238 1.401.057.352.084.707.08 1.063.055.316.055.639 0 .954zM73.156 151.027s-.129 0-.387.08c-.378.053-.759.087-1.14.099-1.404.047-2.806-.104-4.168-.447-2.032-.49-3.956-1.353-5.675-2.544-4.35-2.91-6.988-7.78-7.055-13.018-.046-2.094.29-4.178.993-6.15.46-1.331 1.1-2.592 1.905-3.747.211-.313.443-.612.694-.895.169-.198.268-.298.278-.288-1.057 1.567-1.907 3.264-2.53 5.048-.629 1.943-.91 3.982-.834 6.022.108 5.06 2.632 9.76 6.787 12.64 1.664 1.176 3.521 2.05 5.487 2.584 1.846.453 3.745.66 5.645.616zM47.717 206.785c.192.066.377.15.555.248.367.169.883.457 1.538.845 1.854 1.125 3.496 2.568 4.852 4.263.937 1.189 1.655 2.534 2.123 3.974.52 1.668.635 3.436.337 5.158-.297 1.93-1.217 3.71-2.619 5.068-1.468 1.43-3.621 1.908-4.872 3.478-1.25 1.57-1.528 3.627-1.716 5.545-.06 1.906-.395 3.794-.992 5.604-.673 1.637-1.899 2.984-3.463 3.806-1.33.727-2.796 1.167-4.306 1.292-2.163.12-4.332-.095-6.43-.636-.744-.179-1.31-.328-1.696-.437-.2-.038-.393-.102-.576-.189.205.01.407.04.606.09l1.706.337c2.083.461 4.222.619 6.35.467 1.45-.14 2.856-.58 4.128-1.291 1.467-.794 2.613-2.072 3.244-3.618.558-1.773.869-3.616.923-5.475.073-1.004.226-2.001.456-2.981.233-1.04.702-2.012 1.37-2.842 1.428-1.72 3.591-2.186 4.96-3.518 1.327-1.276 2.201-2.95 2.49-4.77.295-1.655.2-3.356-.277-4.968-.437-1.393-1.108-2.7-1.984-3.866-1.31-1.685-2.89-3.142-4.673-4.313-.626-.417-1.132-.725-1.479-.924-.199-.092-.385-.209-.555-.347z" transform="translate(-738 -236) translate(738.49 236) translate(250.51 23) translate(14.732) translate(.049 -.002)"/>
                            <path fill="#263238" d="M50.763 1.165C45.256-.207 39.333 3.242 36.594 8.21c-2.738 4.969-2.768 11.06-1.478 16.585.545 2.316 1.31 4.71.774 7.036-.576 2.494-2.56 4.432-3.513 6.817-1.815 4.6.496 9.698 2.759 14.09.992 1.988 2.351 4.224 4.554 4.661 2.47.487 4.643-1.49 6.727-2.911 3.678-2.486 8.154-3.497 12.541-2.832 4.961.765 9.446 3.617 14.426 3.706 4.585.033 8.871-2.27 11.38-6.111 1.48-2.316 1.985-5.804-.148-7.513-1.409-1.123-3.562-1.083-4.802-2.395-1.508-1.6-.853-4.173-.08-6.22.774-2.047 1.548-4.552.17-6.26-1.539-1.929-4.872-1.56-6.34-3.538-1.47-1.978.078-4.969 0-7.592-.198-2.34-1.452-4.463-3.404-5.764-1.865-1.361-2.123-1.799-4.693-6.479" transform="translate(-738 -236) translate(738.49 236) translate(250.51 23) translate(14.732) translate(.049 -.002)"/>
                            <path fill="#EA0028" d="M43.083 46.607l19.844 1.7s14.456-2.117 19.992 34.6l21.967-.903.993 14.627-30.212 1.49-3.562-2.136.357 30.08-49.977-3.687c1.131-6.827 6.46-15.81 8.245-21.573C28.915 96.253 18.874 77.7 18.377 68.17c-1.349-26.095 24.706-21.564 24.706-21.564" transform="translate(-738 -236) translate(738.49 236) translate(250.51 23) translate(14.732) translate(.049 -.002)"/>
                            <path fill="#000" d="M74.337 73.527s3.512 3.975 3.572 7.324c.09 5.366-1.26 8.119.417 13.981l-4.783 1.153s-.734-1.43-.109-4.491 1.836-6.788 2.371-10.116c.476-2.709-.046-5.498-1.468-7.85z" opacity=".3" transform="translate(-738 -236) translate(738.49 236) translate(250.51 23) translate(14.732) translate(.049 -.002)"/>
                            <path fill="#263238" d="M73.543 95.985c-.146-.377-.246-.77-.297-1.172-.141-1.096-.141-2.204 0-3.3.212-1.609.543-3.2.992-4.76.564-1.883 1.001-3.801 1.31-5.743.294-1.922.085-3.887-.606-5.704-.634-1.455-1.498-2.797-2.56-3.975-1.805-2.057-3.085-3.2-2.976-3.27.338.217.654.466.942.746.827.717 1.612 1.48 2.352 2.286 1.135 1.188 2.058 2.562 2.728 4.064.752 1.891.982 3.951.665 5.962-.302 1.967-.756 3.907-1.36 5.803-.469 1.536-.843 3.1-1.12 4.68-.167 1.069-.223 2.151-.169 3.23.073.38.106.767.1 1.153z" transform="translate(-738 -236) translate(738.49 236) translate(250.51 23) translate(14.732) translate(.049 -.002)"/>
                            <g fill="#000" opacity=".2">
                                <path d="M29.041 17.104l-14.803.338c-1.173.11-2.357-.028-3.473-.408-1.557-.655-2.56-2.176-3.433-3.627C4.732 9.115 2.352 4.702.19.171c0 0 3.909 12.451 6.36 17.887.494 1.425 2.017 2.211 3.462 1.789 6.443.011 12.853-.912 19.03-2.743z" transform="translate(-738 -236) translate(738.49 236) translate(250.51 23) translate(14.732) translate(.049 -.002) translate(45.157 78.504)"/>
                            </g>
                            <path fill="#FFEBDF" d="M134.515 89.22c1.205-.085 2.412.139 3.506.651.467.227.978.347 1.496.35h1.337V73.077c0-.698-.278-1.368-.774-1.861-.495-.494-1.167-.77-1.867-.769h-17.106v-1.16c.006-.536.133-1.066.373-1.547.651-1.333.862-2.838.603-4.298-.63-3.64-3.948-6.19-7.635-5.871-3.687.319-6.514 3.403-6.507 7.096 0 .985.207 1.96.608 2.86.203.45.311.939.318 1.433v1.487H92.183c-1.456 0-2.636 1.178-2.636 2.63v46.313c0 .568.227 1.114.63 1.516.402.402.948.628 1.518.628h47.011c1.185-.003 2.145-.961 2.148-2.144v-16.739h-1.901c-.44 0-.875.086-1.282.252-.842.343-1.743.519-2.652.519-3.934.139-7.236-2.931-7.375-6.857-.14-3.927 2.937-7.222 6.87-7.361v.016z" transform="translate(-738 -236) translate(738.49 236) translate(250.51 23) translate(14.732) translate(.049 -.002)"/>
                            <path fill="#FFA77A" d="M42.815 47.303l-1.538-35.078 13.89-10.553 12.641 6.19s.427 15.9 0 22.796c-.426 6.897-7.362 7.632-7.362 7.632s.169 4.035.328 8.278c.092 2.462-.826 4.855-2.541 6.621-1.715 1.767-4.078 2.753-6.538 2.73-4.773-.06-8.67-3.84-8.88-8.616z" transform="translate(-738 -236) translate(738.49 236) translate(250.51 23) translate(14.732) translate(.049 -.002)"/>
                            <path fill="#263238" d="M66.459 19.45c0 .488-.395.884-.883.884s-.883-.396-.883-.885c0-.488.395-.884.883-.884s.883.396.883.884zM67.312 18.485c-.119.12-.764-.437-1.716-.487-.953-.05-1.657.408-1.756.279-.1-.13.07-.269.377-.477.857-.566 1.985-.497 2.768.169.288.248.377.427.327.516zM56.25 19.45c0 .488-.396.884-.884.884-.487 0-.883-.396-.883-.885 0-.488.396-.884.883-.884.488 0 .883.396.883.884zM56.795 18.485c-.119.12-.764-.437-1.716-.487-.953-.05-1.657.408-1.757.279-.099-.13.07-.269.377-.477.407-.275.89-.415 1.38-.398.5.033.975.224 1.359.547.317.268.407.447.357.536z" transform="translate(-738 -236) translate(738.49 236) translate(250.51 23) translate(14.732) translate(.049 -.002)"/>
                            <path fill="#EB996E" d="M60.476 38.27c-3.271-.139-6.435-1.211-9.118-3.09 0 0 2.282 5.157 9.188 4.879l-.07-1.789z" transform="translate(-738 -236) translate(738.49 236) translate(250.51 23) translate(14.732) translate(.049 -.002)"/>
                            <path fill="#263238" d="M60.218 26.514c.507-.124 1.026-.19 1.548-.198.238 0 .476 0 .536-.219.027-.266-.02-.535-.14-.775-.204-.616-.423-1.279-.654-1.987-.447-1.402-.833-2.673-1.101-3.598-.176-.494-.293-1.008-.348-1.53.26.453.464.937.606 1.44.327.915.764 2.167 1.21 3.568l.625 1.988c.143.31.175.662.09.994-.072.171-.218.3-.397.347-.139.013-.279.013-.417 0-.519.053-1.042.043-1.558-.03z" transform="translate(-738 -236) translate(738.49 236) translate(250.51 23) translate(14.732) translate(.049 -.002)"/>
                            <path fill="#EB996E" d="M59.514 27.34c-.373.098-.714.289-.993.556-.354.3-.43.816-.18 1.207.252.39.754.533 1.173.333.367-.08.682-.316.863-.646.17-.347.124-.762-.12-1.063-.255-.276-.666-.338-.991-.15" transform="translate(-738 -236) translate(738.49 236) translate(250.51 23) translate(14.732) translate(.049 -.002)"/>
                            <path fill="#263238" d="M60.744 28.71c0 .14-.784.358-1.627-.129-.844-.487-1.072-1.291-.933-1.321.139-.03.496.497 1.19.874.695.378 1.35.428 1.37.577zM55.942.3c-2.952-.102-5.797 1.118-7.76 3.33-1.924 2.23-2.903 5.125-2.728 8.068-.02 1.106.33 2.186.993 3.07.992 1.144 2.669 1.372 4.187 1.521 1.541.286 3.129.205 4.633-.238 1.469-.567 2.689-2.087 2.362-3.617-.725.993-.12 2.464.912 3.09 1.092.536 2.312.757 3.523.636h5.199c.593.059 1.19-.07 1.706-.368.561-.571.869-1.345.854-2.146.277-2.773.535-5.724-.735-8.198-1.261-2.193-3.32-3.812-5.744-4.522C60.972.141 58.383.5 55.912.34" transform="translate(-738 -236) translate(738.49 236) translate(250.51 23) translate(14.732) translate(.049 -.002)"/>
                            <path fill="#263238" d="M41.277 46.31c1.895.993 5.487-2.922 6.658-4.72 1.042-1.896 1.393-4.095.992-6.222-.248-2.136-.814-4.233-.863-6.38-.07-3.477 1.24-6.806 1.855-10.234.66-3.73.501-7.558-.466-11.22-.377-1.42-.992-2.98-2.381-3.517-1.182-.395-2.485-.126-3.414.705-.898.83-1.602 1.848-2.063 2.981l-1.102 8.368.824 11.715-.04 18.523z" transform="translate(-738 -236) translate(738.49 236) translate(250.51 23) translate(14.732) translate(.049 -.002)"/>
                            <path fill="#EA0028" d="M91.224 90.43l5.06 17.291s-26.481 9.649-40.818 9.47c-13.445-.159-17.294-1.69-22.017-12.56-4.723-10.872-10.12-23.353-11.222-30.537 0 0-10.805-30.03 18.127-27.07l3.97 22.856s3.204 10.603 3.432 11.22c2.163 5.723 4.961 14.11 7.67 15.124 2.709 1.013 35.798-5.794 35.798-5.794z" transform="translate(-738 -236) translate(738.49 236) translate(250.51 23) translate(14.732) translate(.049 -.002)"/>
                            <path fill="#263238" d="M91.224 90.43c-.224.085-.457.145-.694.18l-1.985.426c-1.766.368-4.326.915-7.5 1.65-3.176.735-6.946 1.64-11.272 2.435-4.698.933-9.48 1.376-14.268 1.321h-.168l-.06-.159c-.546-1.42-1.121-2.921-1.667-4.452-3.81-10.722-6.707-20.58-9.049-27.635-1.16-3.537-2.133-6.39-2.827-8.347-.328-.994-.596-1.7-.794-2.256-.108-.26-.19-.53-.248-.805 0 0 .129.259.347.766.218.506.516 1.252.883 2.225.754 1.938 1.776 4.77 2.977 8.298 2.44 7.035 5.397 16.893 9.197 27.576.546 1.53 1.112 2.98 1.657 4.441l-.238-.159c4.756.06 9.506-.36 14.179-1.252 4.286-.775 8.086-1.66 11.28-2.325 3.196-.666 5.755-1.182 7.541-1.5l2.044-.328c.22-.045.442-.079.665-.1zM96.284 107.721c-.246.143-.505.263-.774.358-.516.218-1.28.516-2.272.884-1.984.735-4.901 1.71-8.543 2.773-3.64 1.063-7.997 2.225-12.848 3.458-5.249 1.466-10.63 2.409-16.064 2.812-1.436.068-2.875.032-4.306-.11-1.401-.128-2.783-.418-4.118-.864-2.5-.907-4.79-2.31-6.737-4.124-3.219-3.11-5.9-6.733-7.937-10.722-1.786-3.349-2.977-6.171-3.83-8.129-.407-.993-.714-1.739-.913-2.265-.12-.256-.216-.522-.288-.795.152.238.278.49.377.755.249.556.586 1.292.993 2.226.883 1.928 2.143 4.72 3.968 8.039 2.058 3.92 4.74 7.477 7.938 10.533 1.908 1.749 4.144 3.1 6.578 3.975 1.287.426 2.619.703 3.969.825 1.408.141 2.824.178 4.237.11 5.398-.399 10.745-1.324 15.964-2.763 4.862-1.203 9.227-2.316 12.898-3.339 3.671-1.024 6.569-1.987 8.573-2.614l2.302-.794c.271-.098.55-.174.833-.229z" transform="translate(-738 -236) translate(738.49 236) translate(250.51 23) translate(14.732) translate(.049 -.002)"/>
                            <path fill="#000" d="M32.457 102.007s4.96 19.08 17.86 18.692c12.898-.388 25.012-5.913 25.012-5.913l-.575-.596s-21.828 4.71-27.89 1.749c-11.52-5.605-14.407-13.932-14.407-13.932z" opacity=".2" transform="translate(-738 -236) translate(738.49 236) translate(250.51 23) translate(14.732) translate(.049 -.002)"/>
                            <path fill="#FFBE9D" d="M94.488 105.734h4.058c3.681-.358 5.735-.418 6.767-1.392 1.38-1.321-.516-2.603-.516-2.603s2.66-.924 2.411-2.544c-.168-1.113-1.429-1.232-1.429-1.232s2.352-.924 2.818-1.908c.625-1.332-.992-2.047-.992-2.047 3.205-1.988 2.917-3.975 2.173-4.134-.744-.16-3.235.994-3.235.994-2.113.606-7.878 2.365-5.744-.815 2.133-3.18 2.58-6.43 2.093-7.394-.278-.43-.799-.635-1.295-.512-.497.123-.861.548-.907 1.059-.33 1.25-.834 2.448-1.499 3.557-.501.914-1.152 1.737-1.925 2.435-.902.805-1.706 1.45-2.39 1.988l-3.612 3.478 3.224 11.07z" transform="translate(-738 -236) translate(738.49 236) translate(250.51 23) translate(14.732) translate(.049 -.002)"/>
                        </g>
                    </g>
                </g>
            </g>
        </g>
    </g>
</svg>
