<svg xmlns="http://www.w3.org/2000/svg" width="582" height="462" viewBox="0 0 582 462">
    <g fill="none" fill-rule="evenodd">
        <g fill-rule="nonzero">
            <g>
                <path fill="#263238" d="M403.091 187.674c14.5-1.252 29.233-2.504 43.656-.773 14.423 1.731 28.707 6.91 36.529 15.938 6.57 7.59 7.853 17.005 8.966 25.893l9.554 76.753c.819 6.508 1.545 13.264-1.33 19.447-6.369 13.527-29.82 19.911-48.51 15.69-16.802-3.715-31.063-14.75-38.878-30.082-6.663-13.449-7.513-28.011-8.286-42.295l-4.251-77.773 1.886-1.237M.128 320.295L4.627 336.109 434.194 460.861 581.949 363.347 581.949 350.053z" transform="translate(-720 -121) translate(720 121.5)"/>
                <path fill="#455A64" d="M154.221 248.721L581.949 350.053 434.194 446.469 0.128 320.295z" transform="translate(-720 -121) translate(720 121.5)"/>
                <path fill="#263238" d="M379.888 335.722L298.08 375.266 148.1 334.362 221.73 294.138z" transform="translate(-720 -121) translate(720 121.5)"/>
                <path fill="#455A64" d="M289.686 334.053L311.406 341.226 331.518 330.296 298.049 319.553 278.509 329.693z" transform="translate(-720 -121) translate(720 121.5)"/>
                <path fill="#263238" d="M129.008 223.925c.68 2.72 19.092 110.437 19.092 110.437l149.95 40.904-19.741-115.23-149.301-36.111z" transform="translate(-720 -121) translate(720 121.5)"/>
                <path fill="#455A64" d="M287.166 311.653c.217 0 2.845 14.176 5.86 31.737 3.014 17.561 5.286 31.845 5.054 31.876-.232.03-2.829-14.176-5.843-31.737-3.015-17.561-5.287-31.845-5.07-31.876zM217.571 296.75c1.824 4.716 0 9.802-4.05 11.379-4.05 1.576-8.812-.974-10.636-5.69-1.824-4.714 0-9.8 4.035-11.377s8.827.974 10.651 5.689z" transform="translate(-720 -121) translate(720 121.5)"/>
                <path fill="#FFBE9D" d="M278.309 260.036c6.678-7.729 10.558-60.289 10.558-60.289l49.468 5.565s-7.127 77-29.727 86.245l-22.616 9.275" transform="translate(-720 -121) translate(720 121.5)"/>
                <path fill="#FF2435" d="M440.826 276.53s21.89 24.534 20.576 44.97l-38.848-9.275 14.98-35.756" transform="translate(-720 -121) translate(720 121.5)"/>
                <path fill="#ED2012" d="M472.037 207.879c-.958-42.96-17.932-63.984-18.627-66.705-12.704-13.872-30.658-21.76-49.468-21.735l-46.114.742c-11.845 1.412-23.37 4.793-34.102 10.002l-1.144.325v.231c-13.047 6.818-27.052 17.422-29.263 35.308l-5.58 34.829 32.06 1.546c-3.261 11.656-6.863 13.155-3.091 24.656l12.212 20.267c0 16.154-1.082 6.369-6.044 41.414l123.856 29.371c7.188-7.08 1.715-26.28-17.453-61.17-2.86-5.225 11.996-57.785 11.996-57.785l27.67 9.6" transform="translate(-720 -121) translate(720 121.5)"/>
                <path fill="#263238" d="M327.034 189.096c-.307.762-.68 1.497-1.113 2.195-.772 1.392-1.886 3.37-3.2 5.86-2.535 4.961-6.075 12.15-6.415 20.73-.2 4 .524 7.995 2.118 11.67 1.38 2.978 3.142 5.763 5.24 8.287 1.778 2.18 3.324 3.849 4.375 5.04.57.576 1.087 1.202 1.546 1.87-.636-.525-1.23-1.099-1.778-1.716-1.113-1.113-2.736-2.736-4.637-4.9-2.203-2.51-4.045-5.314-5.473-8.333-1.693-3.768-2.466-7.885-2.257-12.011.185-4.091 1.025-8.126 2.49-11.95 1.18-3.107 2.596-6.12 4.235-9.012 1.376-2.474 2.582-4.422 3.416-5.751.431-.697.917-1.359 1.453-1.979zM467.539 170.716l-.356.309c-.247.185-.602.495-1.097.85-1.486.998-3.105 1.784-4.808 2.334-4.406 1.546-11.455 1.778-19.431-.633-3.989-1.175-8.209-2.907-12.738-4.638-4.76-1.985-9.778-3.281-14.903-3.85-5.673-.437-11.379.139-16.85 1.701-5.898 1.682-11.703 3.674-17.39 5.967-5.717 2.313-11.585 4.234-17.562 5.751-5.613 1.398-11.438 1.734-17.175.99-5.124-.925-10.115-2.483-14.855-4.638-4.483-1.917-8.61-3.772-12.537-5.055-3.5-1.176-7.138-1.888-10.822-2.118-2.788-.154-5.584.127-8.285.835-2.298.673-4.47 1.718-6.431 3.091 0 0 .108-.108.355-.309.248-.2.619-.479 1.129-.82 1.512-.95 3.144-1.693 4.854-2.21 2.731-.782 5.571-1.116 8.41-.99 3.743.176 7.445.857 11.006 2.026 3.973 1.252 8.131 3.092 12.614 4.978 4.7 2.138 9.641 3.695 14.717 4.637 5.648.71 11.378.359 16.896-1.035 5.942-1.512 11.773-3.428 17.453-5.736 5.71-2.305 11.542-4.297 17.469-5.967 5.563-1.577 11.364-2.148 17.128-1.685 5.182.592 10.253 1.925 15.057 3.958 4.545 1.762 8.719 3.509 12.66 4.715 7.884 2.442 14.81 2.272 19.185.88 2.27-.76 4.4-1.889 6.307-3.338z" transform="translate(-720 -121) translate(720 121.5)"/>
                <path fill="#263238" d="M429.51 247.515c-.313.166-.645.296-.989.386l-2.906.928c-3.58 1.134-7.238 2.007-10.945 2.612-2.555.403-5.144.559-7.73.464-2.993-.157-5.957-.676-8.826-1.546-6.076-1.762-12.228-4.993-18.953-7.56-3.283-1.21-6.652-2.177-10.079-2.89-3.201-.614-6.439-1.022-9.692-1.221-5.524-.275-11.06.103-16.495 1.128-3.684.692-7.303 1.69-10.821 2.984-1.252.402-2.195.85-2.844 1.082-.326.153-.669.267-1.02.34.31-.182.63-.347.958-.495.634-.278 1.546-.757 2.798-1.22 3.497-1.419 7.12-2.506 10.82-3.247 5.47-1.12 11.057-1.56 16.635-1.314 3.294.18 6.573.578 9.816 1.19 3.47.714 6.88 1.691 10.203 2.922 6.801 2.581 12.908 5.812 18.89 7.59 2.81.853 5.71 1.371 8.642 1.546 2.582.126 5.17.007 7.729-.356 3.689-.554 7.339-1.34 10.93-2.35l2.952-.788c.302-.094.613-.156.927-.185zM373.349 292.87c-.692.02-1.383-.053-2.056-.216-1.86-.32-3.697-.754-5.503-1.298-4.638-1.268-10.667-3.896-17.592-5.936-5.869-1.888-12.126-2.23-18.165-.99-2.454.663-4.802 1.673-6.971 3 0 0 .108-.155.386-.372.393-.331.812-.631 1.252-.896 1.604-1.025 3.356-1.797 5.194-2.288 4.638-1.376 11.502-1.283 18.55.773 7.05 2.056 13.002 4.761 17.531 6.183 2.257.727 4.112 1.237 5.395 1.546.673.105 1.335.27 1.979.495z" transform="translate(-720 -121) translate(720 121.5)"/>
                <g fill="#000" opacity=".1">
                    <path d="M9.821.186S-10.368 44.69 7.24 73.785l8.255-3.092-6.91-12.058c-.47-1.828-.548-3.735-.232-5.596 1.02-6.338 2.983-16.68 5.611-27.1L9.821.187z" transform="translate(-720 -121) translate(720 121.5) translate(420.694 198.201)"/>
                </g>
                <path fill="#263238" d="M396.815 37.74c9.956 8.687 14.392 22.353 14.717 35.555.325 13.202-.835 28.181-.526 41.955l20.19-.402c13.34.402 28.459-1.005 41.228-1.994 2.135.02 4.238-.512 6.106-1.546 2.937-1.994 3.602-5.967 4.004-9.492.634-5.55 1.237-11.285-.356-16.633-1.592-5.35-6.013-10.28-11.578-10.682-1.963-.14-4.02.278-5.844-.464-2.1-1.066-3.565-3.07-3.942-5.395-.51-2.257-.432-4.638-.773-6.895-1.138-6.955-5.98-12.735-12.63-15.072-4.142-1.407-9.135-1.546-11.856-5.009-3.308-4.158-1.144-10.172-.959-15.459.246-7.504-3.886-14.47-10.59-17.853-6.703-3.383-14.76-2.57-20.652 2.086" transform="translate(-720 -121) translate(720 121.5)"/>
                <path fill="#FFBE9D" d="M381.202 144.73c-12.642-.03-23.022-10.002-23.56-22.632-.432-10.172-.788-19.818-.788-19.818s-19.462-1.809-20.853-20.993c-1.392-19.184-.804-63.474-.804-63.474 21.634-10.928 47.489-9.29 67.57 4.282l2.983 2.026-.88 97.173c-.12 12.984-10.684 23.445-23.668 23.436z" transform="translate(-720 -121) translate(720 121.5)"/>
                <path fill="#263238" d="M343.73 54.203c1.092-1.093 1.092-2.864 0-3.957-1.093-1.092-2.865-1.092-3.957 0-1.093 1.093-1.093 2.864 0 3.957.522.529 1.235.826 1.978.826.744 0 1.456-.297 1.979-.826zM336.835 48.329c.325.325 2.118-1.252 4.762-1.422 2.643-.17 4.637 1.066 4.916.71.278-.355-.201-.741-1.083-1.329-2.426-1.51-5.551-1.28-7.729.572-.773.711-1.02 1.392-.866 1.469zM367.428 49.968c-.926.65-1.37 1.794-1.123 2.9.246 1.104 1.134 1.951 2.25 2.146 1.114.195 2.237-.302 2.843-1.257.607-.956.577-2.183-.074-3.11-.889-1.262-2.632-1.566-3.896-.68zM365.681 48.916c.325.325 2.118-1.252 4.762-1.422 2.643-.17 4.637 1.067 4.916.711.278-.355-.201-.742-1.067-1.33-1.181-.738-2.568-1.08-3.958-.973-1.39.095-2.714.637-3.772 1.546-.788.71-1.035 1.33-.88 1.468zM356.298 69.461c-1.397-.455-2.86-.67-4.329-.634-.695 0-1.252-.154-1.314-.525-.07-.692.058-1.39.371-2.01.572-1.793 1.144-3.602 1.763-5.503 2.411-7.838 4.05-14.284 3.648-14.408-.402-.124-2.674 6.184-5.101 13.913-.557 1.917-1.098 3.741-1.639 5.534-.392.919-.463 1.943-.201 2.906.234.521.697.904 1.252 1.036.392.075.792.101 1.19.077 2.69.047 4.36-.17 4.36-.386z" transform="translate(-720 -121) translate(720 121.5)"/>
                <path fill="#FFF" d="M365.078 71.857c2.66-1.809-7.342 4.499-12.738 4.638 2.02 2.746 5.672 3.728 8.796 2.365 5.627-2.52 3.942-7.003 3.942-7.003z" transform="translate(-720 -121) translate(720 121.5)"/>
                <path fill="#EB996E" d="M356.746 102.002c8.872-.376 17.43-3.39 24.58-8.657 0 0-5.055 14.19-24.317 13.634l-.263-4.977z" transform="translate(-720 -121) translate(720 121.5)"/>
                <path fill="#263238" d="M404.405 63.71c-6.94 5.596-15.35-8.888-19.076-17.963-3.725-9.074-4.87-19.122-5.41-29.031-.186-3.247-.217-6.802 1.67-9.353 1.885-2.55 2.674.433 5.054-1.917 4.097-4.05.201-4.065 4.298-3.57 7.003.85 22.26 12.985 23.544 20.328 1.283 7.343.247 14.886-.789 22.276-.479 3.37-.958 6.755-1.422 10.125-.166 2.397-.852 4.728-2.01 6.833-1.283 1.979-3.803 3.262-5.859 2.272" transform="translate(-720 -121) translate(720 121.5)"/>
                <path fill="#FFBE9D" d="M404.653 47.834c-.002-1.552 1.216-2.832 2.767-2.906 3.586-.093 9.445 1.33 10.002 11.223.788 14.114-12.8 10.59-12.846 10.187-.047-.402.046-13 .077-18.504z" transform="translate(-720 -121) translate(720 121.5)"/>
                <path fill="#EB996E" d="M407.683 60.789s.263.154.68.324c.588.247 1.251.247 1.84 0 1.468-.634 2.597-3.091 2.52-5.611-.028-1.216-.33-2.41-.882-3.494-.326-.877-1.058-1.54-1.963-1.778-.592-.131-1.191.191-1.407.758-.17.402 0 .68-.139.71-.14.032-.325-.231-.232-.818.055-.352.23-.675.495-.912.373-.317.857-.472 1.345-.433 1.19.164 2.21.937 2.69 2.04.676 1.19 1.048 2.528 1.082 3.896 0 2.844-1.253 5.596-3.262 6.292-.75.273-1.584.181-2.257-.248-.464-.386-.557-.695-.51-.726z" transform="translate(-720 -121) translate(720 121.5)"/>
                <path fill="#263238" d="M381.511 7.456c-4.112 13.173-14.01 23.748-26.883 28.722-1.043.558-2.296.558-3.339 0-1.175-.927-.726-2.875.263-4.003.99-1.129 2.365-1.917 3.092-3.231l-7.189 4.065c-1.136.73-2.392 1.253-3.71 1.546-1.35.287-2.75-.153-3.694-1.16-.43-.518-.623-1.195-.528-1.863.094-.668.465-1.265 1.022-1.645-1.623 2.659-5.781 2.906-8.177.912-2.301-2.205-3.168-5.515-2.242-8.564.952-2.984 2.693-5.655 5.04-7.73 9.94-9.677 24.394-13.186 38.23-14.13 4.265-.434 8.572-.246 12.784.557 4.173.928 10.635.588 18.164 8.827M347.533 41.11c-.155.448-2.675-.124-5.782 0-3.107.123-5.627.695-5.797.278-.17-.417 2.304-1.824 5.75-1.886 3.448-.062 5.999 1.221 5.829 1.608zM375.776 41.434c-.155.433-2.597-.108-5.596-.247-3-.14-5.473.124-5.596-.325-.124-.448 2.396-1.453 5.673-1.283 3.277.17 5.673 1.453 5.519 1.855z" transform="translate(-720 -121) translate(720 121.5)"/>
                <path fill="#455A64" d="M412.738 33.148c-.232-.139.525-1.545 1.066-3.957.721-3.123.544-6.387-.51-9.414-1.122-3.002-3.06-5.631-5.596-7.59-1.963-1.547-3.447-2.118-3.354-2.366.092-.247 1.716 0 4.003 1.438 6.166 3.812 8.884 11.376 6.555 18.241-.881 2.52-2.025 3.757-2.164 3.648z" transform="translate(-720 -121) translate(720 121.5)"/>
                <path fill="#FFBE9D" d="M430.515 198.387l11.007 68.529-88.625 33.097 14.346 29.588 93.262-29.14c15.2-4.783 24.471-20.122 21.642-35.802l-11.918-66.241-39.714-.031z" transform="translate(-720 -121) translate(720 121.5)"/>
                <path fill="#FFBE9D" d="M353.438 299.812s-16.494-5.256-24.41-7.281c-3.091-.789-16.277 6.183-25.398 11.965 0 0-12.553 7.45-11.532 9.739 1.113 2.535 5.75 2.01 13.124-1.453 0 0-2.581 7.466 2.49 7.312 0 0-2.52 8.084 2.225 8.92 4.746.834 5.859-9.477 10.033-10.033 4.174-.557 12.83-1.113 12.83-1.113s7.189 11.918 12.77 12.753c5.58.835 22.198-1.051 22.198-1.051l-14.33-29.758z" transform="translate(-720 -121) translate(720 121.5)"/>
                <path fill="#EB996E" d="M320.047 303.089c-4.02 3.168-8.362 5.904-12.954 8.162 1.908-1.677 3.98-3.158 6.183-4.421 2.122-1.477 4.391-2.731 6.771-3.741zM321.47 307.68c-2.41 1.55-4.955 2.874-7.606 3.958-2.538 1.315-5.193 2.391-7.93 3.215 2.397-1.558 4.939-2.883 7.59-3.957 2.542-1.317 5.202-2.394 7.945-3.216zM318.903 318.78c-1.698.632-3.479 1.012-5.287 1.128-1.784.403-3.617.544-5.441.417 1.695-.643 3.477-1.028 5.287-1.143 1.784-.403 3.617-.539 5.441-.402z" transform="translate(-720 -121) translate(720 121.5)"/>
            </g>
        </g>
    </g>
</svg>
