<svg xmlns="http://www.w3.org/2000/svg" width="564" height="466" viewBox="0 0 564 466">
    <g fill="none" fill-rule="evenodd">
        <g>
            <g>
                <g>
                    <g fill-rule="nonzero">
                        <g transform="translate(-732 -228) translate(608 169) translate(124.5 59) translate(.273)">
                            <path fill="#202020" d="M544.845.033H17.35C8.258.033.888 7.403.888 16.494v372.59c0 9.09 7.37 16.46 16.461 16.46h202.456v60.423H348.57v-60.422h196.276c9.092 0 16.462-7.37 16.462-16.462V16.494c0-9.091-7.37-16.461-16.462-16.461z"/>
                            <path fill="#455A64" d="M288.134 366.359c7.2 10.258-4.055 21.488-14.314 14.314-.34-.243-.637-.544-.875-.888-7.2-10.247 4.055-21.465 14.313-14.302.344.236.64.532.876.876z"/>
                            <rect width="535.523" height="317.65" x="12.79" y="22.373" fill="#E0E0E0" rx="3.27"/>
                            <path fill="#FFF" d="M12.79 45.638H548.313V340.01099999999997H12.79z"/>
                            <path fill="#455A64" d="M56.703 34.636c.005 1.734-1.037 3.3-2.639 3.966-1.601.667-3.447.3-4.673-.926-1.227-1.226-1.592-3.072-.926-4.673.666-1.602 2.232-2.644 3.967-2.639 2.359 0 4.271 1.913 4.271 4.272zM30.787 34.636c.005 1.733-1.036 3.299-2.636 3.965-1.6.667-3.444.304-4.672-.92-1.227-1.225-1.596-3.068-.934-4.67.663-1.602 2.225-2.647 3.959-2.647 1.135-.003 2.224.446 3.028 1.247.803.801 1.255 1.89 1.255 3.025zM43.193 34.636c.005 1.733-1.036 3.299-2.636 3.965-1.6.667-3.444.304-4.672-.92-1.227-1.225-1.596-3.068-.934-4.67.663-1.602 2.225-2.647 3.959-2.647 1.135-.003 2.224.446 3.028 1.247.803.801 1.255 1.89 1.255 3.025z"/>
                        </g>
                        <g>
                            <path fill="#F5F5F5" d="M0.696 0.756H141.722V236.375H0.696z" transform="translate(-732 -228) translate(608 169) translate(124.5 59) translate(390.21 62.627)"/>
                            <path fill="#EA0028" d="M38.106 139.502L39.618 142.561 43.001 143.065 40.554 145.441 41.129 148.812 38.106 147.217 35.082 148.812 35.67 145.441 33.223 143.065 36.594 142.561zM54.903 139.502L56.415 142.561 59.798 143.065 57.351 145.441 57.927 148.812 54.903 147.217 51.88 148.812 52.456 145.441 50.008 143.065 53.392 142.561zM71.689 139.502L73.2 142.561 76.584 143.065 74.136 145.441 74.712 148.812 71.689 147.217 68.677 148.812 69.253 145.441 66.805 143.065 70.177 142.561zM88.486 139.502L89.998 142.561 93.381 143.065 90.934 145.441 91.509 148.812 88.486 147.217 85.462 148.812 86.038 145.441 83.591 143.065 86.974 142.561zM105.271 139.502L106.783 142.561 110.166 143.065 107.719 145.441 108.295 148.812 105.271 147.217 102.26 148.812 102.836 145.441 100.388 143.065 103.772 142.561zM65.45 167.121c0 .18-10.703.312-23.913.312s-23.912-.132-23.912-.312 10.702-.312 23.912-.312c13.21 0 23.913.144 23.913.312z" transform="translate(-732 -228) translate(608 169) translate(124.5 59) translate(390.21 62.627)"/>
                            <path fill="#263238" d="M125.548 177.572c0 .168-23.876.312-53.331.312-29.456 0-53.332-.144-53.332-.312s23.876-.312 53.332-.312c29.455 0 53.331.072 53.331.312zM125.548 186.426c0 .168-23.876.312-53.331.312-29.456 0-53.332-.144-53.332-.312s23.876-.312 53.332-.312c29.455 0 53.331.144 53.331.312zM125.548 195.353c0 .168-23.876.312-53.331.312-29.456 0-53.332-.144-53.332-.312s23.876-.312 53.332-.312c29.455 0 53.331.132 53.331.312zM125.548 204.268c0 .18-23.876.311-53.331.311-29.456 0-53.332-.131-53.332-.311s23.876-.312 53.332-.312c29.455 0 53.331.144 53.331.312zM125.548 213.194c0 .168-23.876.312-53.331.312-29.456 0-53.332-.144-53.332-.312s23.876-.312 53.332-.312c29.455 0 53.331.132 53.331.312z" transform="translate(-732 -228) translate(608 169) translate(124.5 59) translate(390.21 62.627)"/>
                            <path fill="#E0E0E0" d="M9.97 12.718H131.451V129.339H9.97z" transform="translate(-732 -228) translate(608 169) translate(124.5 59) translate(390.21 62.627)"/>
                            <path fill="#FFBE9D" d="M113.406 109.015L121.301 129.351 102.176 129.351 97.868 118.277z" transform="translate(-732 -228) translate(608 169) translate(124.5 59) translate(390.21 62.627)"/>
                            <path fill="#EA0028" d="M40.59 129.351h51.795c.804-7.654 1.308-14.89 1.308-14.89l2.664 7.2 21.752-10.883s-7.907-21.08-14.53-28.22c-8.398-9.034-23.408-8.134-23.408-8.134l-19.533.324c-4.999.592-9.864 2.01-14.397 4.2l-.48.143v.096C41.537 82.787 28.843 99.8 28.843 99.8l4.68 4.547 9.598 8.939c-.025.057-.025.123 0 .18.072.972-2.531 15.885-2.531 15.885z" transform="translate(-732 -228) translate(608 169) translate(124.5 59) translate(390.21 62.627)"/>
                            <path fill="#263238" d="M80.723 73.728s.06.12.108.348c.07.34.115.685.132 1.032.062 1.286-.117 2.572-.528 3.791-.62 1.828-1.717 3.456-3.18 4.716-3.78 3.11-9.187 3.264-13.137.372-1.525-1.182-2.71-2.747-3.432-4.536-.477-1.195-.725-2.468-.732-3.755-.008-.35.017-.699.072-1.044 0-.228.06-.348.084-.348.016 1.707.35 3.395.984 4.98.746 1.675 1.907 3.132 3.372 4.235 3.756 2.674 8.83 2.532 12.43-.348 1.402-1.18 2.476-2.7 3.12-4.416.551-1.615.791-3.321.707-5.027zM99.224 78.36c0 .06-.528 0-1.38.36-1.204.456-2.253 1.247-3.023 2.28-1.103 1.562-1.777 3.386-1.956 5.29-.288 2.148-.348 4.572-.444 7.091-.132 5.063.06 9.599.3 12.958.108 1.548.216 2.856.288 3.911.08.48.1.968.06 1.452-.145-.461-.245-.935-.3-1.416-.132-.923-.324-2.255-.492-3.91-.435-4.322-.595-8.666-.48-13.007.042-2.407.21-4.81.504-7.199.213-1.993.968-3.89 2.184-5.483.837-1.067 1.986-1.847 3.287-2.231.347-.105.706-.162 1.068-.168.252.036.384.048.384.072zM52.792 76.176c-.075.498-.196.988-.36 1.464-.324 1.055-.72 2.4-1.2 3.947-.996 3.324-2.328 7.93-3.672 13.066-1.343 5.135-2.4 9.802-3.143 13.198-.36 1.596-.66 2.94-.9 4.02-.078.5-.211.99-.396 1.463.007-.508.06-1.013.156-1.512.144-.96.384-2.4.696-4.055.648-3.432 1.656-8.135 2.988-13.27 1.331-5.135 2.747-9.742 3.85-13.042.553-1.656 1.02-2.975 1.369-3.887.156-.484.36-.95.612-1.392z" transform="translate(-732 -228) translate(608 169) translate(124.5 59) translate(390.21 62.627)"/>
                            <path fill="#000" d="M92.073 94.785l7.2 25.508-2.868 1.44-2.664-7.2s-2.64-15.189-1.668-19.748z" opacity=".2" transform="translate(-732 -228) translate(608 169) translate(124.5 59) translate(390.21 62.627)"/>
                            <g fill="#000" opacity=".2">
                                <path d="M1.077 1.812c-4.163 2.111 6.059 7.583 10.726 7.535L8.636.276s-6.167.828-7.56 1.536z" transform="translate(-732 -228) translate(608 169) translate(124.5 59) translate(390.21 62.627) translate(52.555 74.388)"/>
                            </g>
                            <path fill="#FFBE9D" d="M71.209 85.474c-2.924.2-5.796-.852-7.899-2.893-2.103-2.042-3.24-4.88-3.128-7.809.12-3.323.228-5.999.228-5.999s-8.242-.72-8.89-8.867c-.648-8.146-.504-26.971-.504-26.971 9.169-4.692 20.159-4.054 28.723 1.667l1.272.84-.156 39.81c-.05 5.405-4.254 9.859-9.646 10.222z" transform="translate(-732 -228) translate(608 169) translate(124.5 59) translate(390.21 62.627)"/>
                            <path fill="#263238" d="M55.443 47.284c.352-.34.462-.859.279-1.312-.184-.453-.624-.75-1.113-.75s-.929.297-1.112.75c-.183.453-.073.973.278 1.312.465.45 1.203.45 1.668 0zM51.832 44.86c.132.133.888-.527 2.015-.611 1.128-.084 1.98.444 2.088.288.108-.156-.084-.312-.456-.564-.507-.31-1.099-.452-1.692-.408-.59.048-1.149.283-1.595.672-.324.3-.432.564-.36.624zM65.69 45.497c-.4.279-.591.772-.484 1.248.108.476.492.839.973.919.481.08.963-.139 1.219-.554.256-.415.235-.944-.053-1.337-.385-.527-1.12-.65-1.655-.276zM63.71 44.897c.144.132.9-.54 2.028-.624 1.127-.084 1.967.444 2.087.288.12-.156-.084-.312-.468-.552-.498-.32-1.09-.463-1.68-.408-.59.039-1.15.27-1.595.66-.336.312-.432.576-.372.636zM60.134 54.783c-.597-.187-1.222-.272-1.847-.252-.3 0-.528-.072-.564-.228-.028-.293.026-.587.156-.851l.732-2.4c.71-1.988 1.22-4.042 1.523-6.131-.917 1.9-1.632 3.89-2.135 5.939-.24.816-.468 1.596-.684 2.4-.158.38-.187.8-.084 1.2.1.224.3.389.54.443.167.029.337.029.504 0 .622.07 1.251.029 1.86-.12z" transform="translate(-732 -228) translate(608 169) translate(124.5 59) translate(390.21 62.627)"/>
                            <path fill="#EB996E" d="M60.398 68.617c3.77-.183 7.4-1.487 10.427-3.743 0 0-2.124 5.999-10.307 5.855l-.12-2.112z" transform="translate(-732 -228) translate(608 169) translate(124.5 59) translate(390.21 62.627)"/>
                            <path fill="#FFBE9D" d="M80.651 44.081c.156-.06 6.671-.768 5.64 5.531-.889 5.435-6.744 3.78-6.732 3.6.012-.18 1.092-9.131 1.092-9.131z" transform="translate(-732 -228) translate(608 169) translate(124.5 59) translate(390.21 62.627)"/>
                            <path fill="#EB996E" d="M81.839 50.812s.084.072.24.156c.218.114.471.14.708.072.723-.417 1.178-1.18 1.2-2.016.054-.462.001-.93-.156-1.368-.081-.35-.327-.641-.66-.78-.222-.069-.462.026-.576.229-.084.143 0 .251-.084.251s-.108-.096 0-.311c.043-.131.127-.245.24-.324.156-.1.346-.135.528-.096.447.118.799.465.924.911.19.484.264 1.006.216 1.524-.022.987-.631 1.866-1.548 2.232-.3.065-.614-.01-.852-.204-.18-.144-.204-.264-.18-.276z" transform="translate(-732 -228) translate(608 169) translate(124.5 59) translate(390.21 62.627)"/>
                            <path fill="#263238" d="M79.283 49.744c-1.26.756-2.975-.192-3.599-1.512-.509-1.384-.725-2.859-.636-4.331-.072-2.006-.42-3.992-1.032-5.903-.16-1.422-1.042-2.66-2.333-3.275-1.292-.616-2.81-.52-4.014.251-1.317.659-2.763 1.02-4.235 1.056-1.932-.168-3.528-1.691-5.46-1.955-1.93-.264-3.49.611-5.23 1.103-1.729.574-3.603.532-5.304-.12-1.714-.693-2.831-2.362-2.82-4.21.07-.9.513-1.728 1.223-2.283.71-.554 1.62-.785 2.51-.633-.628-.427-1.038-1.106-1.123-1.86-.085-.754.162-1.508.678-2.064 1.144-1.068 2.793-1.398 4.26-.852 1.425.55 2.717 1.397 3.791 2.484.302-1.372 1.5-2.361 2.904-2.4 1.388.006 2.736.466 3.839 1.308 1.2.768 2.172 1.704 3.383 2.4 2.4 1.332 5.256 1.475 7.955 1.967 2.7.492 5.591 1.584 6.9 4.008 1.199 2.123.383 4.679.287 7.103-.096 2.423-.108 3.083-.228 5.447-.024-.084.132 3.203-1.716 4.271z" transform="translate(-732 -228) translate(608 169) translate(124.5 59) translate(390.21 62.627)"/>
                            <path fill="#FFF" d="M59.115 58.083c0 .072.3.204.851.192 1.475-.047 2.766-1.003 3.24-2.4.168-.528.12-.864 0-.876-.12-.012-.444 1.2-1.632 2.136-.765.443-1.595.763-2.46.948z" transform="translate(-732 -228) translate(608 169) translate(124.5 59) translate(390.21 62.627)"/>
                            <path fill="#455A64" d="M49.744 29.6c-.384.269-.577.737-.492 1.2.052.51.292.985.672 1.33.537.428 1.236.595 1.908.457.795-.152 1.553-.458 2.231-.9.74-.51 1.548-.914 2.4-1.2.973-.206 1.987-.052 2.856.432.923.456 1.787 1.116 2.747 1.704.903.646 1.985.994 3.096.996 1.029-.134 1.99-.587 2.747-1.296.678-.597 1.464-1.057 2.316-1.356.756-.183 1.55-.137 2.28.132 1.08.389 1.97 1.18 2.483 2.208.158.386.274.789.348 1.2 0-.415-.09-.824-.264-1.2-.492-1.08-1.395-1.917-2.508-2.328-.764-.297-1.6-.355-2.4-.168-.886.288-1.704.758-2.399 1.38-.742.652-1.66 1.07-2.64 1.2-1.064-.01-2.1-.349-2.963-.972-.936-.576-1.812-1.2-2.771-1.704-.914-.503-1.98-.661-3-.444-.85.289-1.658.692-2.4 1.2-.655.436-1.388.742-2.16.9-.628.145-1.289 0-1.799-.396-.357-.31-.594-.734-.672-1.2-.075-.431.069-.872.384-1.176z" transform="translate(-732 -228) translate(608 169) translate(124.5 59) translate(390.21 62.627)"/>
                            <path fill="#455A64" d="M53.356 25.304c-.06-.089-.143-.16-.24-.204-.285-.138-.616-.138-.9 0-.475.197-.756.69-.684 1.2.093.669.558 1.227 1.2 1.44.754.22 1.56.182 2.291-.108.804-.323 1.635-.572 2.484-.744.945-.069 1.87.293 2.52.984.693.779 1.502 1.447 2.4 1.98 1.017.358 2.137.293 3.107-.18.867-.404 1.782-.694 2.723-.865 2.753-.374 5.454.979 6.803 3.408.384.684.504 1.104.528 1.092-.099-.394-.248-.773-.444-1.128-.515-.993-1.27-1.843-2.196-2.472-1.386-.937-3.068-1.333-4.727-1.116-.956.17-1.888.461-2.771.864-.912.453-1.968.518-2.928.18-.89-.522-1.7-1.173-2.4-1.931-.69-.738-1.68-1.118-2.687-1.032-.864.173-1.709.435-2.52.78-.674.272-1.418.323-2.123.144-.59-.182-1.024-.686-1.116-1.296-.082-.463.167-.921.6-1.104.266-.126.574-.126.84 0 .168 0 .228.12.24.108z" transform="translate(-732 -228) translate(608 169) translate(124.5 59) translate(390.21 62.627)"/>
                            <path fill="#263238" d="M77.448 31.687c.156.06.6-.924 1.655-1.572 1.056-.648 2.112-.636 2.124-.804.012-.168-.252-.192-.72-.204-1.238.03-2.361.734-2.927 1.836-.192.432-.204.72-.132.744z" transform="translate(-732 -228) translate(608 169) translate(124.5 59) translate(390.21 62.627)"/>
                            <path fill="#263238" d="M78.408 25.652c-.168 0 .072 1.272-.132 2.771-.204 1.5-.708 2.628-.564 2.712 1.282-1.535 1.554-3.676.696-5.483z" transform="translate(-732 -228) translate(608 169) translate(124.5 59) translate(390.21 62.627)"/>
                            <path fill="#455A64" d="M80.315 47.524c.45-.688.577-1.538.348-2.327-.244-.84-.694-1.608-1.308-2.232-.315-.371-.53-.817-.624-1.296-.041-.527.024-1.058.192-1.56.331-1.022.393-2.113.18-3.167-.19-.872-.71-1.637-1.451-2.136-.498-.326-1.085-.49-1.68-.467-.216.009-.429.062-.624.156 0 0 .228 0 .624-.06.568.008 1.12.188 1.584.515.692.481 1.17 1.213 1.331 2.04.197 1.02.13 2.073-.192 3.06-.177.532-.242 1.096-.191 1.655.103.516.339.995.683 1.392.602.596 1.05 1.329 1.308 2.136.126.557.126 1.135 0 1.692-.04.205-.1.406-.18.6z" transform="translate(-732 -228) translate(608 169) translate(124.5 59) translate(390.21 62.627)"/>
                            <path fill="#263238" d="M74.388 105.583c.015.26.015.52 0 .78 0 .564 0 1.2.06 2.064 0 1.775.108 4.271.132 7.283l-.072-.192 3.696 3.443h-.312l6.359-2.58-.18.24c.025-.201.061-.402.108-.6.696-3.779 1.343-7.342 1.92-10.438l.275.324c-3.54 0-6.515-.084-8.638-.132l-2.484-.072c-.29-.016-.58-.056-.864-.12.27-.04.543-.06.816-.06l2.4-.072c2.1 0 5.147-.12 8.806-.144h.324v.324c-.552 3.108-1.2 6.671-1.847 10.45l-.108.6v.168l-.156.072-6.371 2.532-.18.072-.132-.132-3.6-3.491-.084-.084v-.108c0-3.12.084-5.687.132-7.44 0-.803 0-1.463.072-2.015-.052-.22-.076-.446-.072-.672z" transform="translate(-732 -228) translate(608 169) translate(124.5 59) translate(390.21 62.627)"/>
                            <path fill="#263238" d="M85.678 108.715c-1.857.411-3.763.569-5.663.468-1.902.107-3.81-.039-5.675-.432 1.883-.228 3.782-.292 5.675-.192 1.889-.108 3.783-.056 5.663.156z" transform="translate(-732 -228) translate(608 169) translate(124.5 59) translate(390.21 62.627)"/>
                            <path fill="#FFBE9D" d="M31.519 102.452c.252.252-19.197 26.9-19.197 26.9h19.065l11.698-16.03-11.566-10.87z" transform="translate(-732 -228) translate(608 169) translate(124.5 59) translate(390.21 62.627)"/>
                        </g>
                        <g>
                            <path fill="#F5F5F5" d="M0.648 0.132H201.664V335.971H0.648z" transform="translate(-732 -228) translate(608 169) translate(124.5 59) translate(181.444 19.434)"/>
                            <path fill="#EA0028" d="M53.979 197.897L56.127 202.252 60.95 202.96 57.459 206.355 58.287 211.154 53.979 208.887 49.66 211.154 50.488 206.355 47.009 202.96 51.82 202.252zM77.904 197.897L80.063 202.252 84.875 202.96 81.395 206.355 82.211 211.154 77.904 208.887 73.596 211.154 74.424 206.355 70.933 202.96 75.756 202.252zM101.84 197.897L103.999 202.252 108.811 202.96 105.331 206.355 106.147 211.154 101.84 208.887 97.532 211.154 98.36 206.355 94.869 202.96 99.692 202.252zM125.776 197.897L127.936 202.252 132.747 202.96 129.267 206.355 130.083 211.154 125.776 208.887 121.469 211.154 122.297 206.355 118.805 202.96 123.616 202.252zM149.712 197.897L151.86 202.252 156.683 202.96 153.192 206.355 154.02 211.154 149.712 208.887 145.405 211.154 146.221 206.355 142.741 202.96 147.553 202.252zM92.95 237.262c0 .168-15.262.312-34.087.312-18.825 0-34.087-.144-34.087-.312s15.262-.312 34.087-.312c18.825 0 34.086.132 34.086.312z" transform="translate(-732 -228) translate(608 169) translate(124.5 59) translate(181.444 19.434)"/>
                            <path fill="#263238" d="M178.604 252.056c0 .18-34.039.312-76.008.312-41.97 0-76.02-.132-76.02-.312s34.026-.312 76.02-.312c41.993 0 76.008.144 76.008.312zM178.604 264.774c0 .168-34.039.312-76.008.312-41.97 0-76.02-.144-76.02-.312s34.026-.312 76.02-.312c41.993 0 76.008.144 76.008.312zM178.604 277.492c0 .168-34.039.312-76.008.312-41.97 0-76.02-.144-76.02-.312s34.026-.312 76.02-.312c41.993 0 76.008.132 76.008.312zM178.604 290.21c0 .168-34.039.312-76.008.312-41.97 0-76.02-.144-76.02-.312s34.026-.312 76.02-.312c41.993 0 76.008.132 76.008.312zM178.604 302.916c0 .18-34.039.312-76.008.312-41.97 0-76.02-.132-76.02-.312s34.026-.312 76.02-.312c41.993 0 76.008.144 76.008.312z" transform="translate(-732 -228) translate(608 169) translate(124.5 59) translate(181.444 19.434)"/>
                            <path fill="#E0E0E0" d="M13.87 17.181H187.026V183.41500000000002H13.87z" transform="translate(-732 -228) translate(608 169) translate(124.5 59) translate(181.444 19.434)"/>
                            <path fill="#263238" d="M90.526 44.729c1.811-6.083 7.378-10.63 13.545-12.106 6.167-1.476 13.822-3.492 19.473-.612 3.528 1.8 6.911 4.415 8.303 8.123 1.644 4.403-.888 12.61-2.148 17.133-1.26 4.523-2.207 9.694.276 13.678 2.484 3.983 7.367 5.375 10.439 8.758 4.24 5.06 3.693 12.574-1.236 16.966 5.459-.324 10.066 5.243 9.874 10.702-.192 5.46-4.187 10.258-9.058 12.73-4.871 2.472-10.499 2.987-15.958 3-6.778.01-13.538-.695-20.169-2.1-5.459-1.2-11.158-2.988-14.71-7.295-3.275-3.96-4.175-9.359-4.187-14.494 0-18.153 9.503-36.15 5.364-53.835" transform="translate(-732 -228) translate(608 169) translate(124.5 59) translate(181.444 19.434)"/>
                            <path fill="#263238" d="M94.953 40.554c-5.836-3.994-13.47-4.2-19.512-.527-6.042 3.674-9.374 10.545-8.516 17.564.444 3.6 1.944 7.199 1.032 10.618-1.716 6.515-10.894 9.047-12.094 15.67-.48 2.615.444 5.243 1.14 7.798.696 2.556 1.2 5.448-.168 7.751-.984 1.704-2.76 2.772-4.151 4.152-4.464 4.463-4.38 12.298-.636 17.397 3.743 5.099 10.366 7.535 16.677 7.33 6.311-.203 12.358-2.759 17.745-6.058" transform="translate(-732 -228) translate(608 169) translate(124.5 59) translate(181.444 19.434)"/>
                            <path fill="#B78876" d="M81.695 47.848l.084 4.308.864 64.633c.096 7.511 6.635 13.402 14.662 13.198 8.122-.18 14.71-6.455 14.733-14.037 0-7.955.192-16.33.192-16.33s10.259-1.704 12.382-15.081c1.056-6.647.72-17.554.156-26.468-.23-3.853-2.028-7.444-4.975-9.937-2.946-2.493-6.784-3.671-10.622-3.261l-27.476 2.975z" transform="translate(-732 -228) translate(608 169) translate(124.5 59) translate(181.444 19.434)"/>
                            <path fill="#263238" d="M119.621 65.702c.007.929-.727 1.695-1.656 1.727-.44.037-.877-.108-1.21-.4-.332-.291-.532-.706-.553-1.147-.014-.928.716-1.696 1.643-1.728.442-.036.88.107 1.215.399.334.291.537.706.561 1.149zM122.38 63.782c-.215.216-1.511-.744-3.359-.744s-3.203.936-3.395.708c-.192-.228.108-.504.708-.936.798-.547 1.743-.84 2.711-.84.96 0 1.897.301 2.676.864.588.432.78.84.66.948zM101.84 65.702c.007.929-.727 1.695-1.656 1.727-.44.03-.872-.117-1.203-.407-.331-.29-.533-.701-.56-1.14-.014-.932.724-1.702 1.655-1.728.441-.036.878.108 1.21.4.333.291.533.706.554 1.148z" transform="translate(-732 -228) translate(608 169) translate(124.5 59) translate(181.444 19.434)"/>
                            <path fill="#263238" d="M104.263 64.118c-.216.228-1.523-.732-3.359-.732s-3.204.936-3.407.708c-.204-.228.12-.504.707-.936.802-.55 1.752-.842 2.724-.84.96-.001 1.897.301 2.676.864.563.408.78.84.66.936zM110.958 77.808c.974-.305 1.981-.487 3-.54.468 0 .912-.144.996-.468.04-.485-.07-.97-.312-1.392l-1.404-3.6c-1.932-5.11-3.335-9.31-3.12-9.394.216-.084 1.932 4.007 3.876 9.119.468 1.26.912 2.46 1.332 3.6.3.566.386 1.222.24 1.847-.138.336-.42.592-.768.696-.263.067-.533.103-.804.108-1.007.137-2.027.145-3.036.024z" transform="translate(-732 -228) translate(608 169) translate(124.5 59) translate(181.444 19.434)"/>
                            <path fill="#AA6550" d="M112.23 99.656c-6.3.09-12.501-1.572-17.913-4.8 0 0 4.343 9.191 17.733 7.944l.18-3.144zM110.178 82.259c-.725-.884-1.852-1.337-2.987-1.2-.822.072-1.577.48-2.088 1.128-.511.625-.574 1.504-.156 2.196.605.666 1.55.907 2.4.611.884-.305 1.7-.782 2.4-1.403.202-.157.38-.343.527-.552.14-.207.14-.477 0-.684" transform="translate(-732 -228) translate(608 169) translate(124.5 59) translate(181.444 19.434)"/>
                            <path fill="#263238" d="M105.583 79.091c.3 0 .3 1.98 2.016 3.408s3.851 1.2 3.863 1.476c.012.276-.468.396-1.368.42-1.174.01-2.315-.389-3.227-1.128-.87-.716-1.432-1.738-1.572-2.856-.132-.84.096-1.332.288-1.32zM92.577 41.585c0-.168.216-.252.324-.204.108.048.156.216.084.384-.046.141-.191.224-.336.192-.118-.085-.15-.248-.072-.372z" transform="translate(-732 -228) translate(608 169) translate(124.5 59) translate(181.444 19.434)"/>
                            <path fill="#263238" d="M80.987 111.126c3.97-1.498 7.09-4.652 8.543-8.638 1.408-3.976 1.509-8.297.288-12.334-.528-1.86-1.272-3.9-.456-5.651.761-1.182 1.753-2.198 2.915-2.988 2.29-2.213 3.647-5.218 3.792-8.399.122-3.17-.455-6.328-1.692-9.25-.636-1.62-1.404-3.396-.816-5.027.539-1.113 1.337-2.08 2.328-2.82 1.903-1.785 3.475-3.894 4.643-6.227.816-1.644 1.428-3.6.636-5.291-.972-2.016-3.492-2.64-5.711-2.808-5.303-.408-11.158.768-14.53 4.872-3.011 3.671-3.36 8.794-3.6 13.557-.671 14.974-1.343 30.104 1.2 44.873" transform="translate(-732 -228) translate(608 169) translate(124.5 59) translate(181.444 19.434)"/>
                            <path fill="#263238" d="M129.843 46.36c-.738.447-1.504.848-2.291 1.2-.693.502-1.34 1.064-1.932 1.68-.348.336-.72.708-1.056 1.092l-.24.288-.384.384-.924.876c-.891.83-1.85 1.584-2.867 2.255-1.505 1.048-3.188 1.813-4.967 2.256-3.422.764-7.002.34-10.15-1.2-2.172-1.045-4.076-2.571-5.568-4.463-2.28-3.036-2.627-5.495-1.584-6.827 1.044-1.332 3.696-1.2 6.647-.42 1.438.375 2.896.663 4.368.864 1.157.165 2.333.133 3.48-.096.56-.127 1.104-.32 1.619-.576.756-.336 1.692-.828 2.771-1.344.54-.252 1.104-.504 1.716-.744.3-.12.624-.228.936-.336.312-.108.708-.24 1.056-.324 1.307-.339 2.663-.448 4.007-.323 2.16.082 4.169 1.13 5.471 2.855.696.859.65 2.1-.108 2.904z" transform="translate(-732 -228) translate(608 169) translate(124.5 59) translate(181.444 19.434)"/>
                            <path fill="#455A64" d="M62.246 120.34c-.068-.06-.132-.123-.192-.191-.18-.197-.349-.406-.504-.624-.607-.83-1.066-1.76-1.356-2.748-.448-1.56-.53-3.202-.24-4.799.426-2.152 1.568-4.098 3.24-5.519 1.788-1.632 4.127-2.855 6.275-4.56 1.118-.862 2.076-1.914 2.832-3.107.782-1.25 1.1-2.737.9-4.199-.409-3.024-2.904-5.675-3.12-9.299-.178-3.729 1.839-7.219 5.159-8.926 1.616-.695 3.15-1.569 4.571-2.604 1.254-1.11 1.93-2.732 1.836-4.403-.081-1.632-.49-3.232-1.2-4.703-.696-1.452-1.536-2.832-2.255-4.236-.743-1.37-1.254-2.854-1.512-4.39-.195-1.483-.01-2.99.54-4.38 1.019-2.45 2.798-4.506 5.075-5.867 1.87-1.099 3.936-1.82 6.083-2.124 1.588-.235 3.194-.34 4.8-.312 1.331 0 2.399.096 3.047.156l.792.084h.264c-.352.024-.705.024-1.056 0h-3.048c-1.608.008-3.213.144-4.799.408-2.084.33-4.084 1.06-5.891 2.148-2.165 1.335-3.847 3.328-4.8 5.687-.503 1.305-.668 2.717-.48 4.103.262 1.476.764 2.899 1.488 4.211.708 1.38 1.56 2.748 2.28 4.248.772 1.54 1.218 3.223 1.308 4.943.113 1.85-.636 3.648-2.028 4.871-1.453 1.08-3.028 1.985-4.691 2.7-3.11 1.615-4.986 4.9-4.8 8.398.157 3.336 2.616 6 3.072 9.239.218 1.594-.135 3.213-.996 4.571-.795 1.242-1.802 2.334-2.975 3.228-2.232 1.74-4.56 2.915-6.3 4.475-1.627 1.34-2.752 3.193-3.19 5.255-.321 1.561-.276 3.175.131 4.715.374 1.275.962 2.476 1.74 3.552zM136.874 117.761c.581-.3 1.015-.824 1.2-1.451.189-.722.134-1.485-.156-2.172-.446-.884-1.132-1.624-1.98-2.136-.923-.636-2.063-1.14-3.203-1.92-1.298-.78-2.178-2.1-2.4-3.599-.035-1.658.503-3.276 1.524-4.583.96-1.38 2.208-2.556 3.168-3.948.983-1.303 1.414-2.94 1.2-4.559-.279-1.505-.908-2.923-1.836-4.14-1.728-2.399-3.876-4.15-5.232-5.998-1.186-1.403-1.977-3.097-2.291-4.907-.07-.49-.07-.987 0-1.476 0-.336.096-.516.12-.504-.013.65.023 1.3.108 1.944.393 1.733 1.218 3.339 2.4 4.667 1.367 1.788 3.527 3.48 5.35 5.999.995 1.287 1.669 2.792 1.968 4.391.132.869.083 1.755-.144 2.604-.257.863-.663 1.675-1.2 2.4-1.007 1.475-2.267 2.65-3.191 3.947-.941 1.192-1.449 2.668-1.44 4.187.192 1.351.98 2.545 2.148 3.252 1.068.755 2.208 1.295 3.143 1.967.905.584 1.622 1.418 2.064 2.4.306.767.327 1.618.06 2.4-.148.494-.467.919-.9 1.2-.154.051-.32.064-.48.035zM130.78 40.89v.42c-.003.403-.048.805-.133 1.2-.296 1.467-1.018 2.815-2.075 3.875-1.593 1.612-3.828 2.419-6.083 2.195-1.33-.098-2.612-.54-3.72-1.284-1.116-.841-2.116-1.825-2.975-2.927-.836-1.05-1.808-1.982-2.892-2.772-1.022-.713-2.147-1.267-3.335-1.643-2.027-.631-4.185-.71-6.251-.228-1.4.333-2.733.897-3.948 1.667-.864.552-1.296.924-1.32.888.334-.43.74-.8 1.2-1.092 1.193-.873 2.54-1.513 3.972-1.883 2.142-.572 4.402-.539 6.527.096 1.251.38 2.437.951 3.515 1.691 1.135.813 2.152 1.778 3.024 2.868.824 1.06 1.78 2.012 2.843 2.832 1.022.678 2.198 1.09 3.42 1.2 2.104.226 4.202-.485 5.735-1.944 1.026-.985 1.768-2.229 2.147-3.6.252-.984.252-1.56.348-1.56z" transform="translate(-732 -228) translate(608 169) translate(124.5 59) translate(181.444 19.434)"/>
                            <path fill="#263238" d="M104.731 56.883c-.18.504-2.027.264-4.187.528s-3.911.852-4.2.408c-.131-.216.169-.696.877-1.2 1.909-1.207 4.267-1.468 6.395-.708.767.348 1.2.744 1.115.972zM121.72 58.43c-.323.42-1.595 0-3.119 0-1.524 0-2.831.289-3.131-.155-.12-.216.084-.636.648-1.032.755-.49 1.644-.729 2.543-.684.894.02 1.76.314 2.484.84.54.396.72.828.576 1.032z" transform="translate(-732 -228) translate(608 169) translate(124.5 59) translate(181.444 19.434)"/>
                            <path fill="#EA0028" d="M69.469 183.955c.648 1.116-4.091-14.854-4.091-14.854l-3.972 14.59-29.455.216s16.641-54.4 24.548-61.994c10.318-9.91 29.66-10.45 29.66-10.45l11.577 9.874 18.286-9.395.671.072c12.176 1.498 22.793 8.993 28.28 19.965l19.833 51.388h-26.18l-5.591-15.166 1.872 15.166" transform="translate(-732 -228) translate(608 169) translate(124.5 59) translate(181.444 19.434)"/>
                            <path fill="#FAFAFA" d="M76.788 112.638l26.54 60.374 13.413-60.998s-3.719-.216-9.034-.42c-2.94-.108-6.371 11.518-9.923 11.458-2.28 0-4.595-11.794-6.886-11.782-2.892 0-5.712 0-8.28.192-2.23.12-4.186 1.02-5.83 1.176z" transform="translate(-732 -228) translate(608 169) translate(124.5 59) translate(181.444 19.434)"/>
                            <path fill="#FAFAFA" d="M81.779 113.202v-5.543s15.813.216 16.09 12.874c0 0 2.243-12.478 15.01-12.874l.815 4.247-3.6 14.554-9.214 6.13H88.462l-5.135-6.754-1.548-12.634z" transform="translate(-732 -228) translate(608 169) translate(124.5 59) translate(181.444 19.434)"/>
                            <path fill="#263238" d="M103.1 174.62c.023-.23.075-.455.156-.672.2-.637.458-1.255.767-1.847.512-.93 1.14-1.788 1.872-2.556.84-.912 1.848-1.872 2.868-3.011 2.539-2.551 4.755-5.404 6.599-8.495 1.003-1.849 1.58-3.899 1.691-6 .162-2.247-.49-4.479-1.835-6.286l-.42-.54h.696c.267.03.536.03.804 0 1.105-.229 2.09-.851 2.771-1.752.68-.883 1.114-1.93 1.26-3.035.164-2.157-.002-4.325-.492-6.431-.684-4.128-1.308-7.847-1.824-11.003-.516-3.155-.888-5.579-1.2-7.414-.108-.828-.204-1.488-.288-2.028-.041-.234-.061-.47-.06-.708.09.224.154.458.192.696.096.516.24 1.2.396 1.992.348 1.835.816 4.33 1.38 7.39l1.956 10.967c.527 2.17.705 4.409.528 6.635-.152 1.212-.629 2.36-1.38 3.323-.77 1.028-1.895 1.734-3.156 1.98-.314.035-.632.035-.947 0l.264-.504c1.44 1.921 2.135 4.3 1.955 6.695-.12 2.193-.735 4.33-1.8 6.25-1.887 3.121-4.165 5.988-6.778 8.531-1.056 1.128-2.088 2.076-2.94 2.952-.734.72-1.378 1.526-1.92 2.4-.827 1.547-1.031 2.495-1.115 2.472zM103.1 174.104c-.188-.162-.353-.347-.492-.552l-1.356-1.62c-1.2-1.403-2.916-3.395-5.111-5.818-2.196-2.424-4.8-5.316-7.475-8.771-1.445-1.777-2.688-3.708-3.708-5.76-1.113-2.287-1.273-4.924-.443-7.33.131-.323.288-.636.467-.936l.156.456c-2.306-.834-4.356-2.252-5.95-4.115-1.47-1.701-2.625-3.652-3.408-5.76-1.26-3.56-1.763-7.344-1.476-11.11.159-2.51.459-5.01.9-7.486.156-.816.276-1.476.384-2.004.025-.238.082-.472.168-.696.027.24.027.48 0 .72-.072.528-.156 1.2-.264 2.016-.216 1.763-.588 4.307-.696 7.474-.23 3.696.302 7.4 1.56 10.883.776 2.037 1.905 3.921 3.335 5.567 1.523 1.769 3.472 3.12 5.663 3.923l.348.12-.192.336c-.154.273-.294.553-.42.84-.763 2.252-.607 4.713.432 6.85.985 2.017 2.192 3.917 3.6 5.664 2.591 3.443 5.195 6.347 7.343 8.819 2.147 2.471 3.851 4.51 4.967 5.999.564.732.984 1.295 1.26 1.703.157.18.294.378.408.588z" transform="translate(-732 -228) translate(608 169) translate(124.5 59) translate(181.444 19.434)"/>
                            <path fill="#263238" d="M102.812 183.823c-.27-1.79-.33-3.607-.18-5.411-.047-1.807.106-3.614.456-5.388.316 3.599.223 7.221-.276 10.799zM64.61 172.7c.128-.701.3-1.395.516-2.075.348-1.332.852-3.264 1.331-5.675 1.249-6.278 1.732-12.683 1.44-19.077-.104-3.512-.579-7.003-1.416-10.415-.677-2.78-1.95-5.379-3.731-7.618-1.202-1.504-2.686-2.759-4.367-3.696-1.2-.648-1.956-.852-1.932-.912.184.021.365.061.54.12.516.148 1.018.341 1.5.576 1.77.864 3.34 2.09 4.607 3.6 1.865 2.265 3.212 4.91 3.947 7.75.874 3.452 1.368 6.988 1.476 10.547.303 6.443-.245 12.897-1.632 19.197-.54 2.4-1.103 4.331-1.523 5.65-.216.649-.408 1.2-.528 1.5-.12.3-.204.6-.228.529zM133.263 162.922c-.079-.665-.107-1.335-.084-2.004 0-1.295 0-3.155-.12-5.459-.207-5.994-.731-11.974-1.572-17.913-1.168-7.881-2.855-15.677-5.051-23.336l-.084-.312.24.192c.431.301.833.643 1.2 1.02-.461-.244-.899-.53-1.308-.852l.168-.108c2.526 7.588 4.354 15.391 5.459 23.312.857 5.962 1.326 11.974 1.404 17.997 0 2.316 0 4.188-.084 5.471 0 .668-.055 1.334-.168 1.992zM94.929 113.358c0 .06-.3 0-.708.324-.534.456-.946 1.037-1.2 1.692-1.142 2.18-1.855 4.558-2.1 7.007l-.083.78-.48-.636-.864-1.2c-2.004-2.604-3.972-4.8-5.423-6.431-.837-.813-1.611-1.687-2.316-2.616.962.673 1.847 1.45 2.64 2.316 2.004 1.987 3.872 4.107 5.59 6.347l.877 1.2-.564.144c.28-2.52 1.099-4.95 2.4-7.127.334-.698.858-1.288 1.511-1.704.396-.228.732-.12.72-.096zM113.49 112.17c-.618 1.042-1.329 2.026-2.124 2.94-1.367 1.775-3.3 4.199-5.459 6.85l-1.14 1.392-.528.648v-.84c.012-1.377-.088-2.754-.3-4.115-.177-1.075-.56-2.105-1.127-3.035-.552-.829-1.252-1.549-2.064-2.124.278.047.54.158.768.324.662.398 1.23.934 1.668 1.572.651.954 1.1 2.032 1.32 3.167.256 1.385.385 2.79.383 4.2l-.552-.18 1.14-1.404c2.16-2.652 4.14-5.028 5.603-6.731.726-.956 1.533-1.847 2.412-2.664zM102.572 171.573c-.146-.66-.242-1.33-.288-2.004-.156-1.404-.348-3.24-.588-5.471-.468-4.631-1.056-11.026-1.68-18.093-.624-7.067-1.2-13.462-1.512-18.105-.156-2.232-.276-4.08-.384-5.483-.057-.675-.057-1.353 0-2.028.147.66.248 1.33.3 2.004.144 1.403.336 3.239.576 5.47.468 4.632 1.068 11.027 1.692 18.094.624 7.067 1.2 13.462 1.5 18.093.156 2.244.288 4.091.384 5.495.057.675.057 1.353 0 2.028zM102.608 131.415c0-.06.444-.36 1.092.072.377.26.608.682.623 1.14-.055.58-.45 1.073-1.006 1.253-.555.18-1.164.013-1.55-.425-.259-.376-.322-.854-.167-1.284.276-.732.852-.78.84-.708-.012.072-.324.276-.408.816-.058.287.012.585.192.816.232.241.586.321.9.204.328-.087.573-.36.624-.696.004-.29-.113-.569-.324-.768-.396-.396-.804-.324-.816-.42zM104.911 146.377c0-.072.528-.264 1.068.312.325.337.46.814.36 1.271-.175.584-.71.983-1.32.984-.605.057-1.174-.296-1.391-.864-.145-.448-.055-.94.24-1.307.491-.612 1.08-.468 1.031-.396-.048.072-.408.144-.66.648-.149.259-.175.57-.072.851.155.308.486.486.828.444.346.01.662-.195.792-.515.07-.288.019-.593-.144-.84-.312-.528-.732-.588-.732-.588z" transform="translate(-732 -228) translate(608 169) translate(124.5 59) translate(181.444 19.434)"/>
                            <g fill="#000" opacity=".3">
                                <path d="M3.24.576C.995 8.555-1.129 17.589 3.047 24.752c1.2 2.16 3.023 3.995 4.199 6.203 2.028 3.78 2.16 8.267 3.42 12.358 2.53 8.29 11.577 16.354 20.156 17.613-4.427-5.387-11.278-12.406-15.357-18.513-1.297-1.592-2.253-3.434-2.808-5.41-.504-2.22-.876-4.572.6-6.312-5.735-.888-8.999-6.815-10.03-12.526-.954-5.742-.713-11.62.707-17.265" transform="translate(-732 -228) translate(608 169) translate(124.5 59) translate(181.444 19.434) translate(71.989 112.782)"/>
                            </g>
                            <g fill="#000" opacity=".3">
                                <path d="M1.524 3.42c-1.428 8.566-.468 19.796 4.799 26.707 1.932-9.406.972-21.704-4.8-29.42" transform="translate(-732 -228) translate(608 169) translate(124.5 59) translate(181.444 19.434) translate(131.979 152.376)"/>
                            </g>
                        </g>
                        <g>
                            <path fill="#F5F5F5" d="M0.081 0.36H141.107V235.979H0.081z" transform="translate(-732 -228) translate(608 169) translate(124.5 59) translate(33.63 69.826)"/>
                            <path fill="#EA0028" d="M37.491 139.106L39.003 142.165 42.386 142.657 39.939 145.033 40.515 148.404 37.491 146.821 34.468 148.404 35.055 145.033 32.608 142.657 35.979 142.165zM54.288 139.106L55.8 142.165 59.184 142.657 56.736 145.033 57.312 148.404 54.288 146.821 51.265 148.404 51.841 145.033 49.393 142.657 52.777 142.165zM71.074 139.106L72.585 142.165 75.969 142.657 73.521 145.033 74.097 148.404 71.074 146.821 68.062 148.404 68.638 145.033 66.191 142.657 69.562 142.165zM87.871 139.106L89.383 142.165 92.766 142.657 90.319 145.033 90.895 148.404 87.871 146.821 84.848 148.404 85.423 145.033 82.976 142.657 86.359 142.165zM104.656 139.106L106.168 142.165 109.552 142.657 107.104 145.033 107.68 148.404 104.656 146.821 101.633 148.404 102.221 145.033 99.773 142.657 103.157 142.165zM64.835 166.773c0 .168-10.703.312-23.912.312-13.21 0-23.889-.192-23.889-.312s10.715-.311 23.913-.311c13.197 0 23.888.084 23.888.311z" transform="translate(-732 -228) translate(608 169) translate(124.5 59) translate(33.63 69.826)"/>
                            <path fill="#263238" d="M124.933 177.104c0 .168-23.876.312-53.331.312-29.456 0-53.332-.144-53.332-.312s23.876-.312 53.332-.312c29.455 0 53.331.144 53.331.312zM124.933 186.03c0 .168-23.876.312-53.331.312-29.456 0-53.332-.144-53.332-.312s23.876-.324 53.332-.324c29.455 0 53.331.144 53.331.324zM124.933 194.945c0 .168-23.876.312-53.331.312-29.456 0-53.332-.144-53.332-.312s23.876-.312 53.332-.312c29.455 0 53.331.144 53.331.312zM124.933 203.872c0 .168-23.876.312-53.331.312-29.456 0-53.332-.144-53.332-.312s23.876-.312 53.332-.312c29.455 0 53.331.132 53.331.312zM124.933 212.786c0 .18-23.876.312-53.331.312-29.456 0-53.368-.132-53.368-.312s23.876-.312 53.332-.312c29.455 0 53.367.144 53.367.312z" transform="translate(-732 -228) translate(608 169) translate(124.5 59) translate(33.63 69.826)"/>
                            <path fill="#E0E0E0" d="M9.14 12.322H130.62099999999998V128.94299999999998H9.14z" transform="translate(-732 -228) translate(608 169) translate(124.5 59) translate(33.63 69.826)"/>
                            <path fill="#263238" d="M77.337 70.117c0 3.035.276 4.8.3 7.859-.092.762.149 1.526.66 2.1.54.367 1.24.4 1.811.083.555-.32 1.038-.754 1.416-1.272 3.366-4.146 5.395-9.217 5.82-14.541.092-.452.001-.923-.253-1.308-.48-.552-1.368-.348-2.027 0-3.285 1.474-5.998 3.98-7.727 7.139" transform="translate(-732 -228) translate(608 169) translate(124.5 59) translate(33.63 69.826)"/>
                            <path fill="#FFBE9D" d="M56.94 33.835l.06 3.023.612 45.353c.117 2.6 1.271 5.043 3.203 6.786 1.932 1.742 4.482 2.639 7.08 2.488 5.698-.12 10.318-4.523 10.342-9.85 0-5.58.132-11.458.132-11.458s7.198-1.2 8.686-10.57c.732-4.668.504-12.323.108-18.574-.168-2.696-1.43-5.207-3.494-6.951-2.063-1.744-4.75-2.57-7.436-2.287l-19.293 2.04z" transform="translate(-732 -228) translate(608 169) translate(124.5 59) translate(33.63 69.826)"/>
                            <path fill="#263238" d="M83.552 46.36c0 .663-.537 1.2-1.2 1.2-.619.004-1.138-.464-1.2-1.08 0-.662.537-1.2 1.2-1.2.618-.002 1.138.465 1.2 1.08zM85.507 45.005c-.156.168-1.067-.516-2.4-.504-1.331.012-2.243.648-2.399.492-.156-.156.072-.36.492-.66.561-.386 1.227-.591 1.908-.588.672-.005 1.328.205 1.872.6.443.312.6.6.527.66zM71.026 46.36c0 .663-.537 1.2-1.2 1.2-.619.004-1.138-.464-1.2-1.08 0-.662.537-1.2 1.2-1.2.618-.002 1.138.465 1.2 1.08z" transform="translate(-732 -228) translate(608 169) translate(124.5 59) translate(33.63 69.826)"/>
                            <path fill="#263238" d="M72.777 45.257c-.156.156-1.067-.528-2.4-.516-1.33.012-2.243.648-2.399.492-.156-.156.072-.36.492-.66.561-.386 1.227-.591 1.908-.588.673-.002 1.33.213 1.872.612.455.3.6.588.527.66zM77.469 54.855c.685-.214 1.394-.343 2.111-.384.324 0 .636-.096.696-.324.025-.338-.05-.676-.216-.971-.312-.804-.636-1.644-.984-2.52-.904-2.134-1.638-4.337-2.195-6.587 1.08 2.054 1.991 4.193 2.723 6.395l.936 2.532c.204.4.263.857.168 1.295-.089.24-.291.42-.54.48-.183.054-.373.082-.564.084-.709.091-1.426.091-2.135 0z" transform="translate(-732 -228) translate(608 169) translate(124.5 59) translate(33.63 69.826)"/>
                            <path fill="#EB996E" d="M78.369 70.177c-4.417.068-8.766-1.09-12.562-3.348 0 0 3.047 6.443 12.43 5.567l.132-2.22zM76.929 57.975c-.511-.622-1.3-.946-2.1-.864-.575.055-1.103.34-1.464.792-.361.436-.405 1.053-.108 1.536.425.48 1.101.652 1.704.431.61-.216 1.173-.55 1.656-.983.141-.11.267-.24.372-.384.097-.146.097-.335 0-.48" transform="translate(-732 -228) translate(608 169) translate(124.5 59) translate(33.63 69.826)"/>
                            <path fill="#263238" d="M73.665 55.755c.204 0 .216 1.392 1.416 2.4s2.7.84 2.712 1.044c.012.204-.336.264-.972.288-.822.011-1.622-.27-2.256-.792-.617-.497-1.014-1.217-1.104-2.004-.036-.6.108-.948.204-.936zM71.026 33.055c.994.29 1.847.935 2.4 1.811.536.864 1.138 1.687 1.8 2.46 1.67 1.65 4.212 2.037 6.298.96.756.732 1.752 1.512 2.76 1.2.58-.233.998-.751 1.103-1.368.094-.613.002-1.24-.263-1.8-.984-2.291-3.516-3.515-6-3.995-2.987-.576-6.075-.336-8.938.696M48.373 129.327c.444.78-2.88-10.426-2.88-10.426l-2.783 10.234-20.66.156s11.674-38.165 17.217-43.493c7.199-6.959 20.804-7.33 20.804-7.33l20.961.335h.468c8.55 1.058 16 6.329 19.845 14.038l13.906 36.055H96.88l-3.91-10.643 1.307 10.643" transform="translate(-732 -228) translate(608 169) translate(124.5 59) translate(33.63 69.826)"/>
                            <path fill="#EA0028" d="M90.499 77.568c-.636-1.512-2.94-1.452-3.948-2.736-1.008-1.284-.132-3.407.696-5.003 3.972-7.655 3.6-16.797 2.844-25.364-.312-3.683-.684-7.439-2.28-10.798-3.18-6.647-10.87-11.902-20.397-11.47-7.786.3-13.713 7.318-17.925 13.881-4.211 6.563-6.455 16.798-5.075 24.512.696 3.84 4.8 6.803 4.08 10.63-.48 2.4-3 5.304-2.508 7.715.672 3.288 5.447 4.428 8.242 6.3 2.782 2.049 5.387 4.328 7.787 6.814 2.418 2.485 5.333 4.431 8.555 5.711 3.275 1.104 7.199.9 9.838-1.295 4.356-3.6 3.936-10.715 7.895-14.722 1.152-1.188 2.856-2.556 2.196-4.175zm-6.143-41.49c1.595 2.4 1.727 5.507 2.1 8.399.774 4.832.831 9.753.167 14.602-.682 4.875-2.916 9.402-6.37 12.91-3.536 3.504-8.577 5.032-13.463 4.079-5.339-1.2-7.054-6-8.566-11.218-1.512-5.22 1.86-10.079 3.36-15.346 1.2-4.067 1.595-9.802 4.223-13.114 2.627-3.311 6.982-3.54 8.266-3.48 0-.011 7.08-1.655 10.283 3.168z" transform="translate(-732 -228) translate(608 169) translate(124.5 59) translate(33.63 69.826)"/>
                            <g fill="#000" opacity=".3">
                                <path d="M.636 4.532c3.167 1.716 5.651 4.44 8.23 6.96 2.58 2.519 5.448 4.966 8.94 5.866 3.49.9 7.738-.168 9.478-3.323C16.996 15.53 7.04 9.716 3.287.02" transform="translate(-732 -228) translate(608 169) translate(124.5 59) translate(33.63 69.826) translate(45.83 70.552)"/>
                            </g>
                            <g fill="#000" opacity=".3">
                                <path d="M6.848.852C6.18 3.375 4.476 5.497 2.157 6.695c-.544.222-1.053.52-1.512.888-.464.383-.65 1.01-.468 1.584.349.584 1.06.844 1.704.623.615-.24 1.166-.623 1.607-1.115 1.728-1.668 3.528-3.48 4.02-5.831" transform="translate(-732 -228) translate(608 169) translate(124.5 59) translate(33.63 69.826) translate(79.187 71.989)"/>
                            </g>
                        </g>
                        <g fill="#455A64" stroke="#FFF" stroke-width="3">
                            <path d="M145.02-1.001c25.17 1.859 49.826 10.694 70.945 26.283 21.12 15.588 36.828 36.546 46.021 60.051 9.194 23.506 11.873 49.56 6.934 75.34-.931 4.84-2.122 9.627-3.567 14.338-5.714 18.667-15.384 35.874-28.341 50.452l-.685.765 114.756 143.55-19.731 15.728L217.681 243.31c-34.552 26.436-79.662 34.786-121.4 22.458l-1.263-.38-1.569-.49c-25.966-8.297-48.23-23.94-64.65-44.308C12.394 200.24 1.82 175.178-.783 148.015c-2.631-27.45 3.134-54.342 15.645-77.605 12.51-23.263 31.768-42.899 56.12-55.837C94.162 2.257 119.848-2.86 145.019-1.001zm22.463 29.767c-28.172-8.708-58.652-5.784-84.652 8.12-23.413 12.437-40.801 32.275-50.43 55.35-9.627 23.077-11.495 49.39-3.865 74.776 7.63 25.387 23.696 46.31 44.45 60.255 20.755 13.944 46.198 20.909 72.585 18.377 26.387-2.53 50.043-14.206 67.768-31.842 17.725-17.635 29.52-41.231 32.184-67.605 2.664-26.374-4.172-51.853-18.01-72.677-13.84-20.825-34.682-36.996-60.03-44.754z" transform="translate(-732 -228) translate(608 169) translate(124.5 59) translate(145.213 7.436)"/>
                        </g>
                    </g>
                    <path fill="#202020" d="M201.248 452.136H363.605V465.96700000000004H201.248z" transform="translate(-732 -228) translate(608 169) translate(124.5 59)"/>
                </g>
            </g>
        </g>
    </g>
</svg>
