<svg xmlns="http://www.w3.org/2000/svg" width="650" height="650" viewBox="0 0 650 650">
    <defs>
        <linearGradient id="gl3xl09c2a" x1="71.713%" x2="0%" y1="42.914%" y2="61.987%">
            <stop offset="0%" stop-color="#F9250B"/>
            <stop offset="100%" stop-color="#AB0000"/>
        </linearGradient>
    </defs>
    <g fill="none" fill-rule="evenodd">
        <g>
            <g>
                <g>
                    <path fill="#F38C85" d="M135.297 112.789L0 347.512 344.081 347.512 479.377 112.789z" transform="translate(-789 -110) translate(789 110) translate(.765 72.214)"/>
                    <path fill="#F5B8B3" d="M304.22 234.723L168.923 469.446 513.004 469.446 648.301 234.723z" transform="translate(-789 -110) translate(789 110) translate(.765 72.214)"/>
                    <path fill="#F16C62" d="M238.928 347.512L356.009 347.512 417.743 235.299 303.766 234.723z" transform="translate(-789 -110) translate(789 110) translate(.765 72.214)"/>
                    <path fill="url(#gl3xl09c2a)" d="M304.22 0L168.923 234.723 513.004 234.723 648.301 0z" transform="translate(-789 -110) translate(789 110) translate(.765 72.214)"/>
                </g>
                <g fill-rule="nonzero">
                    <g>
                        <path fill="#FFBE9D" d="M75.297 193.47l-8.315-1.728c-7.42-2.227-11.62-3.185-13.345-5.62-2.286-3.27 2.079-5.143 2.079-5.143s-5.113-2.977-3.929-6.245c.597-1.33 1.984-2.122 3.43-1.957 0 0-4.448-2.852-5.01-5.06-.768-2.997 2.931-3.788 2.931-3.788-5.778-5.371-4.385-9.285-2.785-9.368 1.6-.084 6.236 3.268 6.236 3.268 4.157 2.082 15.216 8.057 12.119.645-3.098-7.41-2.703-14.26-1.31-16.05.754-.783 1.926-.993 2.904-.52.978.474 1.542 1.523 1.399 2.601.184 2.707.737 5.375 1.642 7.932.657 2.077 1.662 4.027 2.972 5.767 1.539 2.082 2.91 3.685 4.158 5.059l6.007 8.618-11.183 21.59z" transform="translate(-789 -110) translate(789 110) translate(27.766) translate(304.915 -.004)"/>
                        <path fill="#EA0028" d="M43.286 625.057l7.15-15.114 28.353 13.24-10.227 22.214-1.808-.708c-8.024-3.227-40.576-16.925-45.065-20.964-5.01-4.497 21.597 1.332 21.597 1.332z" transform="translate(-789 -110) translate(789 110) translate(27.766) translate(304.915 -.004)"/>
                        <g fill="#FFF" opacity=".3">
                            <path d="M.79 5.396C2.33 3.2 4.624 1.651 7.234 1.046 9.8.405 12.514.77 14.82 2.065l-3.7 7.931L.79 5.397z" transform="translate(-789 -110) translate(789 110) translate(27.766) translate(304.915 -.004) translate(57.587 634.962)"/>
                        </g>
                        <g fill="#FFF" opacity=".3">
                            <path d="M9.915 1.166S.353-.334.748 1.56c.395 1.895 32.78 16.967 47.643 22.38l.25-.666-37.915-17.28s.81-3.913-.81-4.83z" transform="translate(-789 -110) translate(789 110) translate(27.766) translate(304.915 -.004) translate(20.171 621.456)"/>
                        </g>
                        <path fill="#263238" d="M69.248 644.918l-.499-.167-1.434-.562-5.26-2.186c-4.427-1.873-10.517-4.538-17.148-7.64-6.63-3.102-12.617-6.017-16.9-8.202l-5.05-2.624-1.352-.728-.478-.27c.176.044.344.114.5.207l1.392.666 5.113 2.52c4.303 2.081 10.29 4.996 16.92 8.098 6.631 3.102 12.701 5.787 17.108 7.724l5.196 2.29 1.414.624.478.25z" transform="translate(-789 -110) translate(789 110) translate(27.766) translate(304.915 -.004)"/>
                        <path fill="#263238" d="M30.71 627.888c.16-.955.215-1.926.166-2.893-.17-.965-.45-1.908-.831-2.81 1.36 1.588 1.623 3.844.665 5.703zM40.958 627.555c-.242-.471-.377-.99-.395-1.52-.124-.505-.124-1.034 0-1.54 0 0 .27.645.374 1.499.136.51.143 1.047.02 1.561zM43.91 627.41c-.105 0-.416-.48-.707-1.145-.291-.667-.437-1.229-.333-1.27.104-.042.416.458.686 1.124.227.392.349.837.353 1.29zM46.59 625.39c0 .104-.727-.125-1.558-.5-.525-.174-1.006-.458-1.414-.832 0-.104.749.125 1.56.5.524.174 1.005.458 1.413.832zM47.983 623.746c-.645.097-1.305-.005-1.891-.292-.618-.172-1.169-.527-1.58-1.02.595.167 1.173.39 1.725.666.6.165 1.184.381 1.746.646z" transform="translate(-789 -110) translate(789 110) translate(27.766) translate(304.915 -.004)"/>
                        <path fill="#263238" d="M41.228 624.62c-.647-.18-1.258-.469-1.809-.854-.624-.385-1.209-.831-1.746-1.332-.326-.293-.619-.62-.873-.978-.157-.224-.224-.5-.187-.77.056-.308.296-.549.603-.604 1.111-.01 2.17.474 2.888 1.322.72.85 1.024 1.974.833 3.07-.025.185-.089.362-.187.52.068-.653.033-1.313-.104-1.956-.194-.665-.568-1.263-1.081-1.728-.601-.581-1.41-.896-2.245-.875-.395 0-.437.48-.208.833.243.335.522.642.832.916.513.491 1.062.944 1.642 1.353.977.708 1.663 1.02 1.642 1.083z" transform="translate(-789 -110) translate(789 110) translate(27.766) translate(304.915 -.004)"/>
                        <path fill="#263238" d="M40.708 624.495c-.034-.49.106-.977.395-1.374.28-.447.656-.824 1.102-1.103.575-.393 1.309-.471 1.954-.209.339.266.412.75.166 1.104-.174.272-.409.5-.686.666-.423.297-.885.535-1.372.708-.437.196-.915.282-1.393.25 0 0 .52-.167 1.29-.5.451-.196.877-.448 1.267-.75.437-.27.936-.874.52-1.165-.416-.292-1.123 0-1.56.208-.42.234-.788.553-1.08.937-.225.397-.426.807-.603 1.228zM72.283 636.882s-.77-.458-2.079-.895c-1.758-.582-3.642-.668-5.446-.25-1.792.463-3.428 1.398-4.74 2.706-.997 1.02-1.413 1.812-1.475 1.79.05-.21.142-.408.27-.582.285-.503.627-.97 1.019-1.395 1.293-1.423 2.978-2.43 4.843-2.894 1.866-.44 3.821-.31 5.612.375.538.195 1.053.446 1.539.75.311.228.478.374.457.395zM74.84 623.704c-.693 2.027-1.512 4.01-2.453 5.933-.83 1.99-1.774 3.928-2.827 5.809.714-2.03 1.54-4.017 2.473-5.955.826-1.98 1.763-3.912 2.807-5.787zM56.09 636.028c-1.496-.332-2.948-.842-4.323-1.52-1.418-.59-2.758-1.352-3.991-2.269 0-.104 1.85.875 4.157 1.916 2.307 1.04 4.199 1.686 4.157 1.873z" transform="translate(-789 -110) translate(789 110) translate(27.766) translate(304.915 -.004)"/>
                        <path fill="#263238" d="M61.744 638.527s-.332.312-.727.645c-.395.333-.666.666-.749.625-.083-.042 0-.52.5-.916.498-.396.976-.458.976-.354zM64.966 636.882s-.291.312-.707.479c-.415.166-.81.208-.852.104-.042-.104.291-.312.707-.458.415-.146.81-.23.852-.125zM68.52 637.09s-.436-.104-.935-.146c-.499-.041-.873 0-.915 0-.041 0 .375-.374.957-.312.582.063.956.375.893.458zM70.91 637.527s-.228.167-.519.146c-.29-.02-.499-.125-.478-.229.021-.104.229-.166.52-.146.29.021.478.125.478.23z" transform="translate(-789 -110) translate(789 110) translate(27.766) translate(304.915 -.004)"/>
                        <path fill="#EA0028" d="M282.434 633.322l-7.068-15.156 28.25-13.365 10.58 22.047-1.705.957c-7.587 4.164-38.87 20.506-44.836 21.402-6.652.936 14.779-15.885 14.779-15.885z" transform="translate(-789 -110) translate(789 110) translate(27.766) translate(304.915 -.004)"/>
                        <g fill="#FFF" opacity=".3">
                            <path d="M.977 13.12c-.726-2.584-.459-5.347.748-7.744C2.882 3.005 4.885 1.155 7.338.192l3.762 7.89L.977 13.12z" transform="translate(-789 -110) translate(789 110) translate(27.766) translate(304.915 -.004) translate(302.867 618.307)"/>
                        </g>
                        <g fill="#FFF" opacity=".3">
                            <path d="M6.714 16.342s-7.254 6.433-5.55 7.329c1.705.895 33.944-14.573 47.58-22.505l-.353-.604L10.975 18.8s-2.66-3.164-4.261-2.457z" transform="translate(-789 -110) translate(789 110) translate(27.766) translate(304.915 -.004) translate(265.451 625.62)"/>
                        </g>
                        <path fill="#263238" d="M314.279 625.952l-.458.271-1.35.75-5.031 2.664c-4.261 2.228-10.185 5.226-16.816 8.328-6.631 3.102-12.66 5.87-17.066 7.786l-5.238 2.248-1.434.583-.5.167.479-.25 1.393-.646 5.196-2.331c4.365-1.978 10.393-4.747 17.024-7.911 6.631-3.165 12.472-6.1 16.837-8.328l5.072-2.56 1.393-.687c.162-.047.33-.075.499-.084z" transform="translate(-789 -110) translate(789 110) translate(27.766) translate(304.915 -.004)"/>
                        <path fill="#263238" d="M276.614 644.855c-.615-.768-1.312-1.466-2.079-2.081-.85-.478-1.749-.862-2.681-1.145 2.096-.032 4.002 1.21 4.822 3.143l-.062.083zM282.933 636.653s-.686-.208-1.414-.666c-.727-.458-1.268-.895-1.205-.979.062-.083.686.209 1.413.667.728.458 1.247.895 1.206.978zM284.637 634.342c0 .104-.623 0-1.31-.187-.685-.188-1.226-.458-1.205-.562.447-.04.897.032 1.31.208.727.146 1.226.437 1.205.541zM284.824 630.99c0 .104-.582.5-1.392.896-.811.395-1.497.645-1.56.54.396-.393.87-.698 1.393-.894.894-.396 1.497-.646 1.56-.542zM284.409 628.867s-.479.75-1.414 1.27c-.535.362-1.163.564-1.808.583 1.083-.601 2.157-1.22 3.222-1.853z" transform="translate(-789 -110) translate(789 110) translate(27.766) translate(304.915 -.004)"/>
                        <path fill="#263238" d="M280.792 634.634c-.545.394-1.158.683-1.809.853-.674.235-1.37.402-2.078.5-.442.054-.889.054-1.33 0-.275-.016-.53-.144-.707-.354-.167-.26-.167-.594 0-.854 1.101-1.382 3.025-1.792 4.593-.978.446.233.842.55 1.164.937.123.13.215.287.27.458-.45-.468-.977-.856-1.558-1.145-.65-.302-1.375-.396-2.079-.27-.821.092-1.57.512-2.079 1.165-.187.354 0 .645.5.687.407.041.818.041 1.226 0 .702-.074 1.398-.206 2.078-.396 1.019-.333 1.788-.645 1.809-.603z" transform="translate(-789 -110) translate(789 110) translate(27.766) translate(304.915 -.004)"/>
                        <path fill="#263238" d="M280.376 634.946s-.52-.292-.81-1.166c-.171-.502-.22-1.037-.146-1.561.062-.695.468-1.313 1.08-1.645.424-.093.845.164.957.583.07.315.07.642 0 .958-.05.513-.168 1.017-.353 1.499-.291.832-.645 1.27-.686 1.228-.042-.042.207-.5.436-1.312.136-.468.22-.95.25-1.436 0-.52-.104-1.291-.582-1.145-.479.145-.728.853-.832 1.332-.106.473-.106.964 0 1.437.178.435.409.848.686 1.228zM310.017 618.479s-.831.312-2.078 1.082c-1.554.96-2.807 2.338-3.617 3.976-.798 1.671-1.121 3.53-.935 5.372.145 1.436.478 2.269.415 2.29-.12-.18-.21-.376-.27-.583-.2-.538-.34-1.097-.416-1.666-.271-1.903.025-3.844.853-5.58.836-1.749 2.184-3.201 3.866-4.163.499-.294 1.028-.531 1.58-.708.198-.04.402-.047.602-.02z" transform="translate(-789 -110) translate(789 110) translate(27.766) translate(304.915 -.004)"/>
                        <path fill="#263238" d="M301.516 608.11c1.102 1.838 2.102 3.736 2.993 5.684 1 1.904 1.89 3.864 2.66 5.871-1.104-1.843-2.104-3.747-2.992-5.704-1.014-1.89-1.902-3.844-2.661-5.85zM298.98 630.366c-1.202.958-2.522 1.756-3.929 2.373-1.348.735-2.788 1.288-4.282 1.645 0 0 1.85-.875 4.158-1.978 2.307-1.103 3.99-2.123 4.053-2.04zM304.51 627.701v.979c0 .5.103.936 0 .978-.105.042-.375-.375-.375-.958s.27-.999.374-.999zM305.361 624.141c.104 0 0 .416-.104.854-.104.437-.353.75-.436.728-.083-.02 0-.416 0-.853s.436-.77.54-.729zM307.773 621.456c0 .104-.354.291-.686.624-.333.333-.54.708-.645.687-.104-.02 0-.541.374-.958.375-.416.957-.353.957-.353zM309.643 619.957s0 .291-.208.5c-.207.207-.415.29-.498.228-.084-.062 0-.291.207-.5.208-.208.416-.312.5-.228z" transform="translate(-789 -110) translate(789 110) translate(27.766) translate(304.915 -.004)"/>
                        <path fill="#263238" d="M315.464 612.254l-45.73 21.297-82.232-146.624c-10.705-38.68-21.036-174.875-21.036-174.875l59.491 4.538s9.167 97.847 23.53 148.144l65.977 147.52z" transform="translate(-789 -110) translate(789 110) translate(27.766) translate(304.915 -.004)"/>
                        <path fill="#455A64" d="M262.417 619.207s.582-.437 1.725-1.04c1.143-.604 2.827-1.458 4.905-2.478 4.158-2.082 9.957-4.81 16.38-7.807 6.423-2.998 12.243-5.642 16.484-7.495 2.078-.937 3.866-1.686 5.05-2.082.605-.307 1.249-.531 1.913-.666-.522.428-1.103.779-1.725 1.041-1.164.604-2.827 1.457-4.906 2.478-4.157 2.081-9.956 4.809-16.359 7.806-6.402 2.998-12.243 5.621-16.504 7.495-2.079.937-3.846 1.686-5.051 2.082-.603.311-1.247.535-1.912.666z" transform="translate(-789 -110) translate(789 110) translate(27.766) translate(304.915 -.004)"/>
                        <path fill="#263238" d="M252.98 257.237c1.122 0 13.282 36.078 1.58 59.999-1.186 2.394-10.394 15.572-10.394 15.572-32.385 38.264-65.186 112.42-74.332 131.968-18.708 39.992-88.052 171.544-88.052 171.544L37.3 610.817l65.041-167.484 59.034-151.142 91.605-34.954z" transform="translate(-789 -110) translate(789 110) translate(27.766) translate(304.915 -.004)"/>
                        <path fill="#263238" d="M168.025 426.324L132.46 412.085 134.164 417.31 162.33 427.636z" transform="translate(-789 -110) translate(789 110) translate(27.766) translate(304.915 -.004)"/>
                        <path fill="#455A64" d="M229.761 352.065c-.15.331-.346.64-.582.916l-1.83 2.477c-1.579 2.082-3.824 5.33-6.422 9.348-5.218 8.036-11.786 19.528-18.5 32.518-6.714 12.991-12.472 24.982-16.525 33.601l-4.885 10.264-1.351 2.769c-.143.332-.325.646-.54.936.066-.353.177-.695.332-1.02l1.185-2.852c1.039-2.477 2.598-6.037 4.552-10.409 3.95-8.744 9.52-20.818 16.276-33.788 5.626-11.154 11.872-21.982 18.707-32.435 2.703-3.977 5.03-7.1 6.735-9.181.79-.958 1.455-1.728 2.079-2.353.222-.295.48-.56.769-.791zM40.687 603.01c.125-.25 10.622 4.747 23.448 11.18C76.96 620.623 87.228 626.077 87 626.348c-.229.27-10.622-4.747-23.447-11.18-12.826-6.433-22.99-11.887-22.866-12.158z" transform="translate(-789 -110) translate(789 110) translate(27.766) translate(304.915 -.004)"/>
                        <path fill="#263238" d="M93.547 171.007c-2.412 5.453-5.147 10.757-8.19 15.885-2.725 5.307-5.78 10.438-9.146 15.364 2.417-5.458 5.152-10.769 8.19-15.906 2.742-5.292 5.796-10.415 9.146-15.343z" transform="translate(-789 -110) translate(789 110) translate(27.766) translate(304.915 -.004)"/>
                        <path fill="#455A64" d="M177.587 107.657c2.432 0 5.321 17.695 7.774 49.485 2.786 36.058 2.536 72.448-7.42 95.328-1.857 4.933-5.596 8.925-10.394 11.096-25.775 10.659-96.886-65.703-96.886-65.703l17.503-30.749 50.074 40.492s4.989-40.97 4.033-59.853c-.77-14.323 13.511-39.93 35.316-40.096z" transform="translate(-789 -110) translate(789 110) translate(27.766) translate(304.915 -.004)"/>
                        <path fill="#455A64" d="M199.745 108.01s43.486 6.371 54.731 23.484c11.246 17.112 5.55 168.046 5.55 168.046l-111.79 6.62s9.022-192.112 14.551-194.298c13.885-5.454 35.295-4.393 36.958-3.851z" transform="translate(-789 -110) translate(789 110) translate(27.766) translate(304.915 -.004)"/>
                        <path fill="#FFF" d="M71.45 97.918c-.192-2.697.308-5.397 1.453-7.844.507-1.047.774-2.194.782-3.358v-2.978H35.386c-3.245 0-5.876 2.64-5.876 5.895v38.262h-2.59c-1.196-.011-2.374-.296-3.444-.833-6.616-3.196-14.552-1.425-19.194 4.281-4.643 5.707-4.78 13.862-.334 19.724 4.447 5.86 12.32 7.9 19.039 4.93 1.01-.46 2.104-.702 3.213-.71h3.36v37.307c-.004 1.565.614 3.068 1.716 4.176 1.102 1.108 2.599 1.73 4.16 1.73h103.46c2.644 0 4.788-2.15 4.788-4.803V88.542c.004-1.275-.5-2.499-1.399-3.4-.898-.902-2.118-1.407-3.39-1.404h-37.382v4.253c-.003.983.188 1.958.562 2.867 2.391 5.843 1.116 12.55-3.25 17.1-4.366 4.55-10.999 6.084-16.91 3.91-5.91-2.175-9.982-7.647-10.38-13.95h-.086z" transform="translate(-789 -110) translate(789 110) translate(27.766) translate(304.915 -.004)"/>
                        <path fill="#263238" d="M155.824 140.113c.065.413.1.83.104 1.249v3.601c0 3.269 0 7.766.166 13.24 0 11.18.187 26.628-.166 43.72-.354 17.091-1.29 32.518-2.433 43.718-.582 5.58-1.143 10.055-1.6 13.157-.229 1.458-.416 2.624-.582 3.56-.03.42-.121.835-.27 1.229-.028-.416-.028-.834 0-1.25.104-.936.208-2.081.374-3.58.312-3.123.769-7.62 1.247-13.178.956-11.138 1.808-26.544 2.079-43.594.27-17.05.332-32.477.478-43.719 0-5.475.145-9.972.187-13.24 0-1.458 0-2.665.104-3.602.044-.45.15-.89.312-1.311zM222.32 36.853c-1.788 11.367-1.684 21.339 3.866 28.75 1.204 1.426 2.315 2.928 3.326 4.497 1.012 1.596 1.32 3.54.852 5.371-.524 1.637-1.89 2.862-3.572 3.203-1.682.341-3.416-.255-4.535-1.558.368 2.63-.888 5.222-3.18 6.558-1.161.535-2.503.505-3.639-.08-1.136-.585-1.94-1.661-2.181-2.918 0 0 1.475 5.767-5.135 4.871l4.656-39.555 9.541-9.139z" transform="translate(-789 -110) translate(789 110) translate(27.766) translate(304.915 -.004)"/>
                        <path fill="#FFBE9D" d="M192.699 124.29c-5.215 0-10.185-2.217-13.673-6.1-3.488-3.883-5.167-9.066-4.62-14.26.603-5.912 1.144-10.721 1.144-10.721s-14.55-2.27-14.738-16.842c-.187-14.573 2.35-48.029 2.35-48.029 16.842-7.24 36.279-4.787 50.801 6.412l2.079 1.645-5.051 70.783c-.686 9.62-8.663 17.083-18.292 17.113z" transform="translate(-789 -110) translate(789 110) translate(27.766) translate(304.915 -.004)"/>
                        <path fill="#263238" d="M166.903 54.653c.836-.778.889-2.086.119-2.93-.77-.843-2.076-.907-2.924-.143-.849.764-.924 2.07-.168 2.927.371.42.896.673 1.456.7.56.028 1.106-.172 1.517-.554zM162.87 50.052c.229.25 1.663-.854 3.659-.854 1.995 0 3.47 1.02 3.679.77.208-.25-.104-.561-.749-1.061-.85-.617-1.88-.939-2.93-.916-1.054 0-2.08.335-2.931.958-.624.54-.832.999-.728 1.103zM185.964 53.112c-.482.286-.829.753-.962 1.298s-.041 1.12.255 1.596c.285.489.756.84 1.305.974.549.133 1.128.037 1.605-.266.485-.289.831-.762.96-1.312.13-.55.031-1.128-.274-1.603-.288-.479-.757-.822-1.3-.951-.544-.13-1.116-.034-1.59.264zM184.634 51.822c.228.25 1.663-.854 3.658-.854 1.996 0 3.471 1.02 3.68.77.207-.25-.125-.562-.75-1.061-.857-.62-1.893-.942-2.95-.916-1.054 0-2.078.352-2.91.999-.624.5-.832.957-.728 1.062zM176.61 68.372c-1.039-.397-2.133-.628-3.243-.687-.52 0-.935-.166-.977-.458-.022-.525.108-1.046.375-1.499l1.58-4.163c1.508-3.446 2.658-7.04 3.43-10.722-1.842 3.31-3.347 6.798-4.49 10.41-.52 1.415-1.02 2.768-1.497 4.163-.349.672-.452 1.446-.291 2.186.148.404.48.713.893.833.293.075.592.117.894.125 1.111.129 2.236.065 3.326-.188z" transform="translate(-789 -110) translate(789 110) translate(27.766) translate(304.915 -.004)"/>
                        <path fill="#FFF" d="M183.116 70.6c2.079-1.25-5.758 3.06-9.832 2.852 1.397 2.169 4.104 3.084 6.527 2.207 4.365-1.603 3.305-5.06 3.305-5.06z" transform="translate(-789 -110) translate(789 110) translate(27.766) translate(304.915 -.004)"/>
                        <path fill="#EB996E" d="M175.425 93c6.716.125 13.317-1.76 18.957-5.412 0 0-4.49 10.409-18.998 9.18l.041-3.768z" transform="translate(-789 -110) translate(789 110) translate(27.766) translate(304.915 -.004)"/>
                        <path fill="#FFBE9D" d="M216.042 50.51c.312-.104 10.85-.833 9.104 11.45-1.746 12.283-13.552 6.454-13.532 6.1.021-.354 4.428-17.55 4.428-17.55z" transform="translate(-789 -110) translate(789 110) translate(27.766) translate(304.915 -.004)"/>
                        <path fill="#EB996E" d="M215.98 64.292s.187.187.54.395c.47.298 1.038.396 1.58.271 1.76-.798 2.952-2.486 3.118-4.413.195-1.046.145-2.122-.146-3.144-.125-.811-.637-1.51-1.372-1.874-.49-.216-1.066-.039-1.35.417-.209.312-.167.562-.25.583-.083.02-.229-.25 0-.73.106-.302.32-.554.603-.707.37-.218.815-.27 1.226-.146.991.392 1.703 1.278 1.87 2.332.38 1.133.466 2.343.25 3.518-.186 2.258-1.712 4.18-3.866 4.872-.696.095-1.397-.127-1.912-.604-.312-.479-.333-.75-.291-.77z" transform="translate(-789 -110) translate(789 110) translate(27.766) translate(304.915 -.004)"/>
                        <path fill="#263238" d="M159.253 26.944c.446-2.575 2.869-4.316 5.446-3.914-2.293-.197-4.217-1.812-4.813-4.038-.596-2.226.264-4.588 2.152-5.907 1.887-1.32 4.397-1.314 6.278.014-1.638-1.54-2.94-3.405-3.824-5.475-.914-2.17-.346-4.682 1.413-6.245 1.93-1.116 4.307-1.116 6.236 0 2.993 1.52 5.259 4.267 8.315 5.558 3.055 1.29 6.651.979 10.04 1.332 3.766.308 7.339 1.802 10.206 4.268 2.897 2.495 4.44 6.219 4.157 10.035 4.594-.271 9.624 0 13.178 2.852-.548-3.776.977-7.555 3.991-9.889 3.84-2.674 8.789-3.163 13.075-1.29 2.022.69 3.66 2.201 4.51 4.163.936 2.81-.83 5.83-3.055 7.786-4.22 3.587-9.89 4.954-15.278 3.685.842 2.172 1.197 4.503 1.04 6.828-.23 4.018-3.451 8.182-4.865 11.95l-.311 2.478-2.412 10.305-6.443-.52 1.766-21.652s1.206-9.098-6.693-8.785c-7.899.312-19.103 8.535-34.235 5.35-2.483-.296-4.869-1.142-6.984-2.477-2.03-1.473-3.13-3.913-2.89-6.412z" transform="translate(-789 -110) translate(789 110) translate(27.766) translate(304.915 -.004)"/>
                        <path fill="#263238" d="M244 36.458c-1.216.933-2.645 1.548-4.158 1.79-7.57 1.724-15.315-2.085-18.583-9.14-.744-1.351-1.137-2.869-1.143-4.413.187 0 .52 1.686 1.83 4.164 3.437 6.418 10.578 9.927 17.75 8.723 2.662-.542 4.22-1.333 4.304-1.124z" transform="translate(-789 -110) translate(789 110) translate(27.766) translate(304.915 -.004)"/>
                        <path fill="#263238" d="M228.555 48.449c-.166 0 0-1.29-.374-3.206-.591-2.502-1.611-4.883-3.014-7.037-1.468-2.199-2.787-4.494-3.95-6.87-.54-.982-.826-2.084-.83-3.206.58.916 1.088 1.877 1.517 2.873.935 1.749 2.536 3.997 4.157 6.641 1.49 2.252 2.469 4.803 2.869 7.474.242 1.121.11 2.292-.375 3.331z" transform="translate(-789 -110) translate(789 110) translate(27.766) translate(304.915 -.004)"/>
                        <path fill="#FFBE9D" d="M120.86 168.863c-7.234-4.408-14.222-9.21-20.931-14.386-8.045-6.807-7.463-7.557-6.527-8.327 2.494-2.228 14.55 11.45 13.657 6.953-.894-4.497-16.63-14.947-13.969-17.154 3.534-2.894 15.922 11.658 17.066 12.803 1.143 1.145 2.806-.5 1.725-1.478-1.559-1.416-17.523-16.655-14.093-19.528 1.912-1.603 4.365 2.186 4.365 2.186s13.927 15.427 15.507 14.011c1.58-1.416-6.236-10.763-9.146-13.72-2.91-2.955-2.64-5.474-.333-5.703 1.559-.146 10.56 8.68 13.345 11.658 2.785 2.977 10.227 11.325 9.811 4.164-.416-7.162 1.87-12.866 3.534-13.97 1.663-1.103 3.762.896 2.972 2.977-.634 2.348-.941 4.772-.914 7.204-.06 1.953.206 3.902.79 5.766.498 1.603.997 3.019 1.475 4.268l4.885 13.47-12.264 15.551-10.954-6.745z" transform="translate(-789 -110) translate(789 110) translate(27.766) translate(304.915 -.004)"/>
                        <path fill="#455A64" d="M241.859 122.563c2.577.645 17.918 8.598 18.167 43.427.187 27.688-1.933 89.144-20.786 98.284-8.544 4.163-21.514 4.163-32.78-3.227-31.762-20.548-88.01-86.792-88.01-86.792l25.172-26.856s65.353 66.619 68.138 64.162c4.157-3.705-2.224-35.516 1.351-66.952 2.453-22.359 12.846-26.023 28.748-22.046z" transform="translate(-789 -110) translate(789 110) translate(27.766) translate(304.915 -.004)"/>
                        <path fill="#263238" d="M143.58 148.357c-.125.17-.272.324-.436.458l-1.351 1.332c-1.185 1.145-2.931 2.852-5.135 5.142-6.272 6.489-12.04 13.448-17.252 20.819v-.48c17.751 18.134 43.651 44.51 72.399 73.844 6.79 6.468 15.074 11.153 24.112 13.636 4.258 1.186 8.729 1.385 13.075.583 4.133-.916 7.971-2.856 11.162-5.642 5.824-5.342 10.085-12.172 12.327-19.757 1.987-6.612 3.324-13.404 3.99-20.277 1.684-12.49 2.578-22.9 2.973-29.916.208-3.54.312-6.245.395-8.16v-2.083c-.028-.235-.028-.472 0-.707.032.241.032.486 0 .728v2.082c0 1.874 0 4.622-.187 8.182-.27 7.099-1.04 17.383-2.64 29.999-.621 6.933-1.923 13.788-3.887 20.465-2.247 7.753-6.558 14.748-12.472 20.235-3.31 2.91-7.3 4.936-11.599 5.892-4.496.835-9.124.636-13.532-.583-9.225-2.506-17.682-7.27-24.61-13.865-28.852-29.375-54.545-55.94-72.171-74.114l-.23-.229.188-.25c5.285-7.35 11.152-14.263 17.544-20.672 2.265-2.228 4.157-3.893 5.3-5.018l1.414-1.228.623-.416z" transform="translate(-789 -110) translate(789 110) translate(27.766) translate(304.915 -.004)"/>
                        <path fill="#263238" d="M143.601 147.399s.146 0 .354.291l.976.979 3.721 3.768c3.222 3.29 7.94 7.994 13.865 13.761 5.924 5.767 13.074 12.637 21.14 20.173l12.721 11.804c4.469 4.039 9.084 8.328 14.03 12.366l-.851.417c.145-2.457.29-5.06.436-7.682.832-13.761 1.6-26.877 2.307-38.806.437-5.954.54-11.637 1.185-16.946.48-4.964 1.845-9.801 4.033-14.282 1.813-3.723 4.564-6.909 7.982-9.243 2.613-1.714 5.616-2.738 8.73-2.977 1.954-.163 3.921.078 5.779.708.651.192 1.274.472 1.85.833 0 0-.645-.271-1.913-.625-1.85-.527-3.782-.697-5.695-.5-3.015.313-5.906 1.364-8.419 3.06-3.271 2.343-5.902 5.471-7.65 9.098-2.082 4.418-3.376 9.167-3.824 14.032-.582 5.246-.644 10.93-1.06 16.884l-2.224 38.805c-.146 2.623-.312 5.247-.437 7.682v1.062l-.81-.645c-5.072-4.164-9.604-8.328-14.073-12.491-4.469-4.164-8.668-8.078-12.7-11.867-8.024-7.599-15.133-14.573-20.994-20.34-5.862-5.766-10.498-10.659-13.636-14.031-1.601-1.666-2.765-2.998-3.576-3.914l-.893-1.02c-.27-.23-.375-.354-.354-.354z" transform="translate(-789 -110) translate(789 110) translate(27.766) translate(304.915 -.004)"/>
                        <path fill="#263238" d="M129.55 185.372c.896-1.596 1.962-3.09 3.18-4.455 2.078-2.644 5.03-6.246 8.418-10.139 3.389-3.893 6.527-7.328 8.855-9.764 1.19-1.39 2.521-2.652 3.97-3.768-.996 1.536-2.137 2.972-3.408 4.289l-8.606 9.95-8.647 9.931c-1.127 1.435-2.386 2.76-3.762 3.956zM216.084 226.592c-1.286-2.545-2.343-5.2-3.16-7.931-1.174-2.599-2.12-5.295-2.827-8.057 3.082 4.855 5.121 10.3 5.987 15.988z" transform="translate(-789 -110) translate(789 110) translate(27.766) translate(304.915 -.004)"/>
                        <path fill="#263238" d="M221.8 222.158c-2.448-1.51-4.696-3.321-6.693-5.392-2.234-1.833-4.237-3.93-5.966-6.246 4.697 3.325 8.95 7.235 12.659 11.638z" transform="translate(-789 -110) translate(789 110) translate(27.766) translate(304.915 -.004)"/>
                    </g>
                    <g>
                        <path fill="#FFA77A" d="M93.523 532.29L26.757 592.643 8.465 569.201 66.978 496.607z" transform="translate(-789 -110) translate(789 110) translate(27.766) translate(.102 -.004)"/>
                        <path fill="#EA0028" d="M28.295 594.912l2.286-2.082-21.077-25.919-9.5 8.328 1.268 1.623c5.675 7.224 29.393 36.329 34.839 39.701 6.07 3.748-7.816-21.651-7.816-21.651z" transform="translate(-789 -110) translate(789 110) translate(27.766) translate(.102 -.004)"/>
                        <g fill="#FFF" opacity=".5">
                            <path d="M8.174 15.764c1.78-2.221 2.669-5.027 2.494-7.87-.126-2.81-1.315-5.467-3.326-7.431L.38 6.708l7.795 9.056z" transform="translate(-789 -110) translate(789 110) translate(27.766) translate(.102 -.004) translate(0 568.343)"/>
                        </g>
                        <path fill="#FFF" d="M34.718 607.653s4.407 9.327 2.349 9.472c-2.058.146-27.023-28.354-37.063-41.886l.603-.458 28.956 33.496s3.804-2.019 5.155-.624z" opacity=".5" transform="translate(-789 -110) translate(789 110) translate(27.766) translate(.102 -.004)"/>
                        <path fill="#263238" d="M.275 574.385c.094.164.205.318.332.458l.998 1.312 3.804 4.705c3.222 3.955 7.774 9.347 12.908 15.197 5.135 5.85 9.915 11.055 13.428 14.781l4.158 4.372 1.143 1.166c.13.147.277.28.436.395l-.374-.458-1.101-1.207c-1.102-1.228-2.474-2.706-4.158-4.455-3.45-3.768-8.19-8.994-13.324-14.844s-9.707-11.22-13.012-15.135l-3.887-4.621-1.06-1.25c-.082-.148-.18-.288-.291-.416z" transform="translate(-789 -110) translate(789 110) translate(27.766) translate(.102 -.004)"/>
                        <path fill="#263238" d="M29.168 608.61c.923-.47 1.9-.827 2.91-1.061 1.029-.118 2.068-.118 3.097 0-.964-.529-2.091-.677-3.16-.417-1.098.125-2.112.652-2.847 1.479zM26.424 597.952c.54.128 1.102.128 1.642 0 .894-.125 1.6-.334 1.58-.458-1.1-.093-2.207.085-3.222.52v-.062zM25.717 594.995s.582.271 1.351.354c.77.084 1.393 0 1.414 0 .02 0-.603-.27-1.372-.354-.77-.083-1.393-.125-1.393 0zM26.944 591.644s.353.707.977 1.436c.623.729 1.205 1.27 1.288 1.187.084-.084-.353-.708-.997-1.437-.645-.728-1.185-1.27-1.268-1.186zM28.212 589.728c.083.686.382 1.327.852 1.832.686.895 1.455 1.416 1.517 1.333.063-.084-.56-.708-1.184-1.583-.353-.557-.75-1.087-1.185-1.582z" transform="translate(-789 -110) translate(789 110) translate(27.766) translate(.102 -.004)"/>
                        <path fill="#263238" d="M29.334 596.89c.382.608.867 1.143 1.434 1.582.575.522 1.202.982 1.871 1.374.39.27.817.48 1.268.625.268.102.564.102.832 0 .295-.158.467-.478.436-.812-.326-1.136-1.14-2.067-2.22-2.542-1.08-.475-2.316-.444-3.371.085-.182.084-.345.205-.478.354.655-.292 1.361-.454 2.078-.479.734-.008 1.456.194 2.079.583.777.452 1.333 1.205 1.538 2.082 0 .416-.333.583-.748.458-.41-.154-.807-.342-1.185-.562-.66-.377-1.293-.801-1.892-1.27-1.06-.916-1.58-1.54-1.642-1.478z" transform="translate(-789 -110) translate(789 110) translate(27.766) translate(.102 -.004)"/>
                        <path fill="#263238" d="M29.625 597.369c.506-.098.958-.38 1.268-.791.38-.42.652-.928.79-1.479.268-.706.133-1.503-.353-2.081-.377-.267-.896-.194-1.185.166-.219.263-.382.567-.478.895-.167.527-.265 1.073-.291 1.624-.08.497-.029 1.006.145 1.478.077-.482.118-.969.125-1.457.08-.517.205-1.025.374-1.52.146-.52.624-1.207 1.06-.874.314.495.404 1.1.25 1.665-.113.5-.333.969-.645 1.374-.325.362-.68.697-1.06 1zM7.53 568.868s.706.646 1.558 1.895c1.125 1.622 1.78 3.524 1.892 5.496.072 1.966-.387 3.916-1.33 5.642-.749 1.311-1.435 2.081-1.372 2.081.062 0 .207-.125.498-.437.42-.443.79-.932 1.102-1.457 1.072-1.74 1.594-3.765 1.497-5.808-.116-2.046-.84-4.011-2.079-5.642-.364-.49-.782-.938-1.247-1.333-.291-.333-.499-.458-.52-.437zM13.329 585.127c.79 1.431 1.76 2.754 2.889 3.935 1.032 1.275 2.227 2.41 3.554 3.373 0 0-1.455-1.624-3.221-3.644-1.767-2.019-3.015-3.726-3.222-3.664z" transform="translate(-789 -110) translate(789 110) translate(27.766) translate(.102 -.004)"/>
                        <path fill="#263238" d="M9.067 580.214c-.124 0-.228.437-.457.916-.229.48-.478.895-.395.979.083.083.499-.23.77-.812.27-.583.186-1.083.082-1.083zM9.733 576.342c-.104 0-.23.375-.27.874-.042.5 0 .896.145.896s.228-.375.27-.875c.042-.5-.042-.895-.145-.895zM8.465 572.782s.228.416.415.895c.187.48.229.916.354.937.124.02.27-.5 0-1.082-.27-.583-.728-.854-.77-.75zM7.3 570.471v.562c0 .27.27.48.375.437.104-.041 0-.291 0-.582 0-.292-.27-.458-.374-.417z" transform="translate(-789 -110) translate(789 110) translate(27.766) translate(.102 -.004)"/>
                        <path fill="#FFA77A" d="M212.276 531.666L220.32 622.83 185.919 622.83 170.744 531.666z" transform="translate(-789 -110) translate(789 110) translate(27.766) translate(.102 -.004)"/>
                        <path fill="#EA0028" d="M219.322 623.683v-3.06l-33.403-.146.394 12.637h2.08c9.187.166 46.686.25 52.734-1.832 6.527-2.249-21.805-7.599-21.805-7.599z" transform="translate(-789 -110) translate(789 110) translate(27.766) translate(.102 -.004)"/>
                        <g fill="#FFF" opacity=".5">
                            <path d="M13.12 9.935c-.586-2.789-2.186-5.26-4.49-6.933C6.37 1.355 3.575.612.795.921l.333 9.305 11.994-.291z" transform="translate(-789 -110) translate(789 110) translate(27.766) translate(.102 -.004) translate(185 622.471)"/>
                        </g>
                        <path fill="#FFF" d="M233.145 626.785s9.978 2.498 8.814 4.164c-1.164 1.665-39.079 3.018-55.853 2.082v-.75l44.233-1.187s.873-4.142 2.806-4.309z" opacity=".5" transform="translate(-789 -110) translate(789 110) translate(27.766) translate(.102 -.004)"/>
                        <path fill="#263238" d="M185.607 632.364H193.859c5.113 0 12.16 0 19.934-.354 7.774-.353 14.82-.666 19.914-1.02l6.028-.458 1.642-.166h.561-2.203l-6.05.333c-5.092.291-12.118.645-19.892.916-7.774.27-14.82.395-19.934.458h-7.67l-.582.291z" transform="translate(-789 -110) translate(789 110) translate(27.766) translate(.102 -.004)"/>
                        <path fill="#263238" d="M230.36 631.698c.228-1.013.57-1.998 1.019-2.935.599-.869 1.296-1.665 2.078-2.373-1.027.402-1.86 1.185-2.328 2.185-.632.91-.906 2.023-.769 3.123zM220.382 627.056c.104 0 .562-.52 1.019-1.312.457-.791.748-1.457.644-1.52-.423.368-.764.822-.997 1.333-.328.445-.554.957-.666 1.499zM217.66 625.744s.581-.291 1.143-.833c.56-.54.935-1.04.852-1.103-.083-.062-.582.27-1.143.812-.562.541-.936 1-.853 1.124zM215.851 622.663c.556.182 1.147.232 1.725.146.592.05 1.187-.029 1.746-.23-.56-.191-1.159-.248-1.746-.166-.956.021-1.725.125-1.725.25zM215.165 620.456c.584.365 1.267.54 1.954.5.71.116 1.44-.001 2.079-.333-.65-.07-1.305-.07-1.954 0-.687-.115-1.383-.17-2.079-.167z" transform="translate(-789 -110) translate(789 110) translate(27.766) translate(.102 -.004)"/>
                        <path fill="#263238" d="M221.401 624.12c.688.122 1.391.122 2.079 0 .77-.125 1.53-.32 2.265-.583.443-.146.869-.341 1.268-.583.252-.157.437-.401.52-.687.05-.322-.086-.645-.353-.832-1.707-.781-3.727-.23-4.802 1.311-.319.433-.539.93-.644 1.458-.05.184-.05.378 0 .562.21-.66.518-1.285.914-1.853.46-.574 1.073-1.007 1.767-1.25.818-.343 1.74-.343 2.557 0 .353.25.228.646-.146.896-.371.214-.76.395-1.164.541-.708.276-1.438.492-2.182.646-1.248.27-2.079.312-2.079.374z" transform="translate(-789 -110) translate(789 110) translate(27.766) translate(.102 -.004)"/>
                        <path fill="#263238" d="M221.983 624.204c.232-.456.298-.979.187-1.479-.081-.56-.303-1.09-.644-1.54-.373-.647-1.063-1.044-1.809-1.041-.444.122-.716.569-.623 1.02.052.34.188.662.395.937.294.463.65.884 1.06 1.249.337.38.767.667 1.247.833 0 0-.437-.375-1.06-1.02-.345-.39-.658-.809-.936-1.25-.311-.457-.54-1.249 0-1.373.54-.125 1.102.458 1.435.853.315.404.535.873.644 1.374.073.475.108.956.104 1.437zM186.064 623.246s.956-.125 2.453 0c1.968.17 3.848.891 5.425 2.082 1.571 1.18 2.787 2.773 3.513 4.6.561 1.416.644 2.374.728 2.353.032-.22.032-.445 0-.666-.09-.602-.236-1.195-.437-1.77-.66-1.937-1.893-3.629-3.534-4.85-1.65-1.2-3.616-1.889-5.654-1.978-.608-.052-1.22-.052-1.829 0-.233.038-.458.115-.665.229zM202.194 629.054c1.602.307 3.238.398 4.864.27 1.633.013 3.26-.183 4.844-.582 0-.125-2.183.104-4.864.187-2.682.084-4.844.021-4.844.125z" transform="translate(-789 -110) translate(789 110) translate(27.766) translate(.102 -.004)"/>
                        <path fill="#263238" d="M195.688 629.242s.187.458.437.936c.25.48.374.937.478.937.104 0 .166-.541-.125-1.103-.291-.562-.727-.854-.79-.77zM193.131 626.285s.146.417.5.75c.353.333.706.541.79.458.082-.083-.146-.416-.52-.75-.375-.333-.707-.54-.77-.458zM189.577 624.995c0 .125.457.104.956.25.499.145.852.416.936.333.083-.084-.208-.542-.832-.708-.624-.167-1.102.041-1.06.125zM187.041 624.433c0 .104.166.27.437.374.27.104.54 0 .582 0 .041 0-.167-.27-.437-.374-.27-.105-.54-.105-.582 0zM151.808 264.107s26.918 179.039 23.01 187.762c-3.907 8.723-91.106 98.054-91.106 98.054l-32.76-56.126s57.703-64.017 56.872-67.327c-.832-3.31-41.573-176.77-41.573-176.77l85.557 14.407z" transform="translate(-789 -110) translate(789 110) translate(27.766) translate(.102 -.004)"/>
                        <path fill="#263238" d="M161.39 330.226c-.27-1.915-21.992-50.817-21.992-50.817l10.54-14.906 1.87-.396 9.583 66.12z" transform="translate(-789 -110) translate(789 110) translate(27.766) translate(.102 -.004)"/>
                        <path fill="#263238" d="M50.952 247.244l-1.642 6.641c-4.755 19.598-1.777 40.277 8.315 57.73l72.918 126.638c5.181 8.973 8.953 18.691 11.184 28.813l18.188 81.941h59.865s-7.4-56.21-13.99-97.2c-4.988-30.958-46.353-126.993-66.392-172.46l12.472-15.302-21.555-3.602-79.363-13.199z" transform="translate(-789 -110) translate(789 110) translate(27.766) translate(.102 -.004)"/>
                        <path fill="#455A64" d="M140.978 279.055c.836 2.738 1.857 5.416 3.056 8.015 2.078 4.892 4.74 11.658 7.65 19.174 2.91 7.515 5.466 14.385 7.295 19.34.879 2.724 1.934 5.387 3.16 7.973-.076-.775-.25-1.538-.52-2.269-.395-1.415-1.018-3.476-1.829-5.995-1.642-5.039-4.157-11.93-6.984-19.487-2.827-7.557-5.8-14.26-8.003-19.07-1.102-2.414-2.079-4.35-2.682-5.662-.29-.72-.674-1.4-1.143-2.02zM147.526 491.944c.046-.47.046-.945 0-1.416-.125-1.061-.27-2.394-.457-4.06-.207-2.145-.526-4.278-.957-6.39-.478-2.457-.935-5.31-1.746-8.328-.374-1.54-.769-3.164-1.184-4.83-.416-1.665-.998-3.393-1.539-5.183-.997-3.602-2.41-7.329-3.783-11.284-3.259-8.52-6.971-16.86-11.12-24.982-7.685-14.609-16.194-28.767-25.485-42.407-3.513-5.247-6.423-9.473-8.46-12.366l-2.349-3.227c-.264-.395-.563-.764-.893-1.104.179.442.409.861.685 1.25l2.183 3.434c2.079 3.102 4.781 7.35 8.148 12.491 6.84 10.618 16.276 25.357 25.131 42.47 4.09 8.054 7.774 16.309 11.038 24.732 1.392 3.914 2.848 7.62 3.887 11.18.54 1.77 1.102 3.477 1.58 5.142.478 1.666.852 3.248 1.247 4.788.873 3.04 1.372 5.85 1.912 8.328.54 2.477.915 4.58 1.164 6.245.25 1.666.5 2.977.686 4.018.047.51.151 1.013.312 1.5z" transform="translate(-789 -110) translate(789 110) translate(27.766) translate(.102 -.004)"/>
                        <path fill="#FAFAFA" d="M60.784 305.64s-.166-.187-.457-.625l-1.268-2.081c2.019-3.178 5.249-5.39 8.938-6.121 2.73-.615 5.553-.7 8.315-.25 3.243.568 6.429 1.425 9.52 2.56 3.57 1.106 7.046 2.498 10.393 4.164 3.82 1.906 6.824 5.13 8.46 9.077.817 2.155.954 4.51.395 6.745-.682 2.167-1.58 4.26-2.681 6.246-1.125 1.937-1.733 4.13-1.767 6.37.181 2.26 1.214 4.367 2.889 5.892 3.991 3.976 9.894 4.705 14.78 7.182 4.767 2.416 8.651 6.278 11.1 11.034 2.297 4.23 3.377 9.015 3.117 13.824-.246 4.19-1.594 8.241-3.908 11.741-3.304 5.082-8.238 8.886-13.989 10.784-1.549.489-3.144.817-4.76.979-.56.041-1.123.041-1.684 0 2.116-.31 4.202-.798 6.236-1.458 5.56-2 10.297-5.793 13.47-10.784 2.192-3.402 3.453-7.322 3.658-11.366.195-4.641-.875-9.247-3.097-13.324-2.384-4.55-6.126-8.24-10.705-10.555-2.349-1.166-4.989-1.957-7.629-2.956-2.766-.913-5.304-2.411-7.441-4.393-1.869-1.719-3.014-4.086-3.201-6.62.037-2.42.688-4.792 1.891-6.891 1.08-1.934 1.963-3.97 2.64-6.08.514-2.036.383-4.182-.374-6.14-1.52-3.735-4.342-6.79-7.94-8.599-3.29-1.694-6.71-3.122-10.227-4.268-3.023-1.164-6.147-2.042-9.334-2.623-2.662-.49-5.395-.455-8.044.104-3.58.662-6.75 2.722-8.813 5.726l1.143 2.081c.148.194.273.403.374.625zM211.922 492.173c-1.469-1.292-3.131-2.346-4.926-3.123-2.141-.841-4.374-1.428-6.652-1.748-2.64-.438-5.716-.708-9.083-1.25-3.732-.535-7.333-1.756-10.622-3.601-13.024-7.296-18.634-23.129-13.116-37.015 1.974-4.893 4.947-9.14 5.778-13.865.527-4.625-.146-9.307-1.954-13.595-1.58-3.977-2.927-8.044-4.032-12.179-.897-3.686-.897-7.534 0-11.22 1.302-5.339 4.31-10.104 8.564-13.574 1.52-1.29 3.25-2.311 5.113-3.019-1.697.985-3.316 2.099-4.843 3.33-4.039 3.513-6.868 8.212-8.086 13.429-.862 3.57-.862 7.296 0 10.867 1.156 4.087 2.544 8.104 4.157 12.033 1.9 4.438 2.617 9.295 2.079 14.094-.873 5.059-3.929 9.368-5.8 14.115-5.328 13.381-.01 28.65 12.472 35.808 3.213 1.84 6.736 3.075 10.394 3.643 3.325.583 6.402.895 9.062 1.395 2.316.41 4.572 1.11 6.715 2.082 1.348.605 2.602 1.405 3.72 2.373.728.604 1.102.978 1.06 1.02zM183.985 551.901c-.207 0-.27-2.706-1.35-6.89-.635-2.446-1.505-4.823-2.599-7.1-1.367-2.773-3.018-5.396-4.926-7.828-1.955-2.397-4.157-4.58-6.569-6.516-1.982-1.59-4.112-2.983-6.36-4.163-3.846-1.957-6.486-2.603-6.424-2.81.64.007 1.273.126 1.871.353.709.16 1.404.376 2.079.645.938.315 1.855.69 2.744 1.125 2.353 1.082 4.583 2.415 6.651 3.976 5.077 3.848 9.12 8.898 11.765 14.698 1.078 2.354 1.9 4.818 2.453 7.349.232.966.398 1.946.5 2.935.118.736.174 1.482.165 2.228.117.66.117 1.337 0 1.998zM153.263 316.403s-.27 0-.81.167c-.793.112-1.591.182-2.391.208-2.94.097-5.878-.218-8.73-.937-4.258-1.028-8.289-2.835-11.89-5.33-9.112-6.097-14.64-16.298-14.78-27.272-.097-4.386.607-8.754 2.08-12.886.963-2.788 2.306-5.429 3.99-7.849.444-.655.93-1.281 1.455-1.874.354-.416.562-.624.582-.603-2.213 3.282-3.995 6.837-5.3 10.575-1.317 4.07-1.908 8.341-1.746 12.616.225 10.6 5.513 20.448 14.218 26.482 3.486 2.463 7.376 4.295 11.495 5.412 3.868.95 7.845 1.384 11.827 1.291zM99.967 433.215c.402.14.791.314 1.164.52.769.355 1.85.958 3.221 1.77 3.884 2.359 7.325 5.382 10.165 8.931 1.962 2.491 3.468 5.31 4.448 8.328 1.089 3.494 1.33 7.198.707 10.805-.622 4.044-2.55 7.773-5.488 10.617-3.076 2.998-7.587 3.997-10.206 7.286-2.619 3.29-3.2 7.6-3.596 11.617-.127 3.994-.827 7.948-2.078 11.742-1.41 3.428-3.978 6.25-7.255 7.973-2.785 1.523-5.858 2.445-9.021 2.707-4.532.25-9.075-.2-13.47-1.333-1.559-.375-2.744-.687-3.554-.916-.417-.08-.822-.213-1.206-.395.428.02.853.083 1.268.187l3.575.708c4.365.965 8.845 1.295 13.304.978 3.038-.293 5.982-1.215 8.647-2.706 3.073-1.662 5.475-4.34 6.797-7.578 1.17-3.716 1.82-7.576 1.933-11.471.153-2.104.473-4.192.956-6.246.488-2.178 1.47-4.215 2.869-5.954 2.993-3.601 7.525-4.58 10.393-7.37 2.778-2.673 4.61-6.181 5.218-9.992.616-3.468.417-7.032-.583-10.41-.915-2.916-2.32-5.655-4.157-8.098-2.745-3.53-6.053-6.583-9.79-9.035-1.31-.874-2.37-1.52-3.097-1.936-.417-.194-.808-.439-1.164-.729z" transform="translate(-789 -110) translate(789 110) translate(27.766) translate(.102 -.004)"/>
                        <path fill="#263238" d="M106.348 2.44C94.812-.433 82.402 6.791 76.665 17.2c-5.737 10.41-5.8 23.171-3.097 34.746 1.143 4.851 2.744 9.868 1.621 14.74-1.206 5.225-5.363 9.285-7.358 14.281-3.804 9.64 1.039 20.32 5.778 29.52 2.079 4.165 4.927 8.849 9.541 9.765 5.176 1.02 9.728-3.123 14.094-6.1 7.705-5.208 17.083-7.325 26.274-5.933 10.393 1.603 19.788 7.578 30.223 7.765 9.604.069 18.585-4.754 23.842-12.803 3.097-4.851 4.157-12.158-.312-15.74-2.951-2.352-7.462-2.268-10.06-5.016-3.16-3.352-1.788-8.744-.167-13.033 1.622-4.288 3.243-9.535.354-13.115-3.222-4.04-10.206-3.269-13.283-7.412-3.076-4.143.167-10.409 0-15.905-.414-4.903-3.039-9.35-7.13-12.075-3.907-2.852-4.448-3.768-9.831-13.573" transform="translate(-789 -110) translate(789 110) translate(27.766) translate(.102 -.004)"/>
                        <path fill="#EA0028" d="M90.26 97.643l41.572 3.56s30.286-4.434 41.885 72.49l46.021-1.895 2.079 30.645-63.295 3.123-7.462-4.476.748 63.017-104.701-7.723c2.37-14.303 13.532-33.123 17.273-45.197-3.804-9.535-24.84-48.403-25.879-68.368-2.827-54.67 51.758-45.176 51.758-45.176" transform="translate(-789 -110) translate(789 110) translate(27.766) translate(.102 -.004)"/>
                        <path fill="#000" d="M155.737 154.04s7.358 8.327 7.483 15.343c.187 11.242-2.64 17.009.873 29.292l-10.02 2.415s-1.538-2.998-.228-9.41 3.846-14.22 4.968-21.193c.996-5.675-.097-11.519-3.076-16.447z" opacity=".3" transform="translate(-789 -110) translate(789 110) translate(27.766) translate(.102 -.004)"/>
                        <path fill="#263238" d="M154.074 201.09c-.307-.79-.517-1.616-.624-2.457-.295-2.294-.295-4.617 0-6.912.445-3.37 1.14-6.704 2.079-9.972 1.181-3.945 2.098-7.965 2.744-12.033.616-4.026.18-8.143-1.268-11.95-1.328-3.047-3.14-5.859-5.363-8.327-3.783-4.31-6.465-6.703-6.236-6.85.709.453 1.37.977 1.974 1.562 1.732 1.501 3.377 3.1 4.927 4.789 2.379 2.489 4.312 5.369 5.716 8.514 1.576 3.963 2.057 8.278 1.393 12.491-.633 4.12-1.585 8.186-2.848 12.158-.984 3.217-1.768 6.492-2.349 9.806-.349 2.237-.467 4.504-.353 6.766.153.795.222 1.605.208 2.415z" transform="translate(-789 -110) translate(789 110) translate(27.766) translate(.102 -.004)"/>
                        <g fill="#000" opacity=".2">
                            <path d="M60.842 35.833l-31.013.708c-2.458.232-4.938-.058-7.276-.854-3.263-1.374-5.363-4.559-7.192-7.598C9.915 19.095 4.926 9.852.395.359c0 0 8.19 26.085 13.324 37.473 1.036 2.984 4.226 4.632 7.255 3.747 13.496.025 26.926-1.91 39.868-5.746z" transform="translate(-789 -110) translate(789 110) translate(27.766) translate(.102 -.004) translate(94.604 164.466)"/>
                        </g>
                        <path fill="#FFEBDF" d="M281.81 186.918c2.525-.18 5.054.29 7.346 1.363.977.475 2.048.726 3.134.733h2.8v-35.916c0-1.464-.582-2.867-1.62-3.9-1.038-1.034-2.446-1.614-3.912-1.61h-35.837v-2.43c.011-1.125.278-2.233.78-3.242 1.365-2.792 1.807-5.945 1.263-9.004-1.32-7.625-8.271-12.97-15.995-12.301-7.723.669-13.647 7.13-13.632 14.867 0 2.064.434 4.105 1.274 5.992.425.944.652 1.966.666 3.001v3.116h-34.953c-3.05 0-5.522 2.468-5.522 5.511v97.025c0 1.191.474 2.333 1.318 3.176.844.842 1.989 1.315 3.182 1.315h98.49c2.482-.006 4.492-2.013 4.499-4.491v-35.068h-3.983c-.921 0-1.834.18-2.686.527-1.764.718-3.651 1.088-5.556 1.088-8.242.291-15.16-6.141-15.45-14.366-.292-8.226 6.152-15.13 14.394-15.42v.034z" transform="translate(-789 -110) translate(789 110) translate(27.766) translate(.102 -.004)"/>
                        <path fill="#FFA77A" d="M89.698 99.1l-3.222-73.489 29.101-22.109 26.482 12.97s.894 33.31 0 47.757c-.894 14.448-15.423 15.989-15.423 15.989s.353 8.452.686 17.342c.193 5.158-1.73 10.17-5.324 13.872-3.593 3.7-8.542 5.767-13.696 5.719-10-.124-18.164-8.045-18.604-18.05z" transform="translate(-789 -110) translate(789 110) translate(27.766) translate(.102 -.004)"/>
                        <path fill="#263238" d="M139.232 40.746c0 1.023-.828 1.853-1.85 1.853-1.022 0-1.85-.83-1.85-1.853 0-1.023.828-1.853 1.85-1.853 1.022 0 1.85.83 1.85 1.853zM141.02 38.727c-.25.25-1.6-.916-3.596-1.02-1.996-.104-3.472.853-3.68.583-.207-.271.146-.562.79-1 1.797-1.185 4.16-1.04 5.8.354.603.52.79.895.686 1.083zM117.843 40.746c0 1.023-.828 1.853-1.85 1.853-1.022 0-1.85-.83-1.85-1.853 0-1.023.828-1.853 1.85-1.853 1.022 0 1.85.83 1.85 1.853zM118.986 38.727c-.25.25-1.6-.916-3.596-1.02-1.995-.104-3.471.853-3.68.583-.207-.271.146-.562.79-1 .852-.576 1.863-.867 2.89-.832 1.047.068 2.045.469 2.848 1.145.665.562.852.936.748 1.124z" transform="translate(-789 -110) translate(789 110) translate(27.766) translate(.102 -.004)"/>
                        <path fill="#EB996E" d="M126.698 80.176c-6.853-.291-13.481-2.537-19.103-6.474 0 0 4.781 10.805 19.248 10.222l-.145-3.748z" transform="translate(-789 -110) translate(789 110) translate(27.766) translate(.102 -.004)"/>
                        <path fill="#263238" d="M126.157 55.548c1.062-.26 2.15-.4 3.243-.416.499 0 .998 0 1.123-.458.057-.558-.044-1.121-.291-1.624-.43-1.29-.887-2.679-1.372-4.164-.936-2.935-1.746-5.6-2.308-7.536-.367-1.036-.612-2.112-.727-3.206.545.95.971 1.964 1.268 3.019.686 1.915 1.6 4.538 2.536 7.473l1.31 4.164c.299.652.365 1.387.186 2.082-.148.36-.456.629-.831.729-.29.027-.583.027-.873 0-1.086.11-2.182.089-3.264-.063z" transform="translate(-789 -110) translate(789 110) translate(27.766) translate(.102 -.004)"/>
                        <path fill="#EB996E" d="M124.682 57.276c-.78.206-1.496.607-2.079 1.166-.742.628-.903 1.71-.376 2.528.526.818 1.577 1.117 2.455.699.77-.168 1.43-.662 1.808-1.353.357-.728.26-1.598-.25-2.228-.534-.578-1.397-.707-2.078-.312" transform="translate(-789 -110) translate(789 110) translate(27.766) translate(.102 -.004)"/>
                        <path fill="#263238" d="M127.26 60.149c0 .291-1.643.75-3.41-.27-1.767-1.02-2.245-2.707-1.954-2.77.291-.062 1.04 1.041 2.495 1.832 1.455.792 2.827.896 2.868 1.208zM117.199.63c-6.185-.216-12.144 2.341-16.255 6.973-4.033 4.673-6.084 10.74-5.717 16.905-.04 2.316.69 4.58 2.079 6.433 2.079 2.394 5.591 2.873 8.772 3.185 3.23.6 6.555.428 9.707-.5 3.076-1.186 5.633-4.372 4.947-7.578-1.517 2.082-.25 5.163 1.913 6.475 2.287 1.124 4.843 1.585 7.379 1.332h10.892c1.243.123 2.493-.146 3.575-.77 1.175-1.197 1.82-2.818 1.788-4.497.582-5.808 1.122-11.991-1.538-17.175-2.644-4.593-6.955-7.986-12.036-9.472-4.968-1.645-10.393-.896-15.569-1.229" transform="translate(-789 -110) translate(789 110) translate(27.766) translate(.102 -.004)"/>
                        <path fill="#263238" d="M86.476 97.018c3.97 2.082 11.495-6.12 13.948-9.888 2.184-3.97 2.918-8.579 2.078-13.033-.52-4.476-1.704-8.868-1.808-13.365-.145-7.287 2.598-14.26 3.887-21.443 1.383-7.813 1.05-15.833-.977-23.504-.79-2.977-2.078-6.246-4.989-7.37-2.475-.827-5.204-.263-7.15 1.478-1.882 1.739-3.358 3.871-4.324 6.246l-2.307 17.529 1.725 24.545-.083 38.805z" transform="translate(-789 -110) translate(789 110) translate(27.766) translate(.102 -.004)"/>
                        <path fill="#EA0028" d="M191.115 189.452l10.601 36.224s-55.479 20.215-85.515 19.84c-28.166-.333-36.231-3.539-46.125-26.314-9.895-22.776-21.203-48.924-23.51-63.975 0 0-22.636-62.914 37.977-56.71l8.315 47.883s6.714 22.213 7.192 23.504c4.531 11.991 10.393 29.562 16.068 31.685 5.674 2.124 74.997-12.137 74.997-12.137z" transform="translate(-789 -110) translate(789 110) translate(27.766) translate(.102 -.004)"/>
                        <path fill="#263238" d="M191.115 189.452c-.47.178-.958.303-1.455.375l-4.157.895c-3.7.77-9.063 1.915-15.715 3.456-6.651 1.54-14.55 3.435-23.613 5.1-9.842 1.955-19.859 2.883-29.891 2.77h-.353l-.125-.334c-1.143-2.977-2.349-6.12-3.492-9.326-7.982-22.463-14.052-43.115-18.958-57.896-2.432-7.412-4.469-13.387-5.924-17.488-.686-2.082-1.247-3.56-1.663-4.726-.225-.544-.4-1.109-.52-1.686 0 0 .271.541.728 1.603.458 1.062 1.081 2.623 1.85 4.663 1.58 4.06 3.721 9.993 6.236 17.384 5.114 14.74 11.308 35.391 19.27 57.77 1.142 3.207 2.327 6.246 3.47 9.307l-.498-.333c9.964.124 19.915-.755 29.704-2.623 8.98-1.624 16.94-3.477 23.634-4.872 6.693-1.395 12.056-2.477 15.797-3.144l4.282-.687c.46-.094.926-.163 1.393-.208zM201.716 225.676c-.516.3-1.059.551-1.621.75-1.081.458-2.682 1.082-4.76 1.853-4.157 1.54-10.269 3.58-17.897 5.808-7.629 2.228-16.754 4.663-26.919 7.245-10.996 3.073-22.268 5.046-33.653 5.891-3.009.144-6.024.067-9.021-.229-2.936-.27-5.83-.877-8.627-1.81-5.237-1.9-10.038-4.839-14.114-8.64-6.744-6.517-12.363-14.107-16.629-22.464-3.741-7.015-6.236-12.928-8.023-17.029-.853-2.082-1.497-3.643-1.913-4.747-.251-.535-.453-1.093-.603-1.665.318.498.582 1.029.79 1.582.52 1.166 1.227 2.706 2.079 4.663 1.85 4.04 4.49 9.89 8.314 16.843 4.312 8.21 9.928 15.663 16.63 22.067 3.997 3.663 8.682 6.494 13.781 8.327 2.697.893 5.486 1.472 8.315 1.728 2.948.296 5.915.373 8.875.23 11.31-.835 22.512-2.774 33.446-5.788 10.185-2.52 19.331-4.85 27.022-6.995 7.691-2.144 13.76-4.164 17.96-5.475l4.822-1.666c.569-.204 1.153-.364 1.746-.479z" transform="translate(-789 -110) translate(789 110) translate(27.766) translate(.102 -.004)"/>
                        <path fill="#000" d="M67.997 213.706s10.393 39.971 37.416 39.16c27.022-.813 52.402-12.388 52.402-12.388l-1.205-1.249s-45.73 9.868-58.431 3.664c-24.133-11.741-30.182-29.187-30.182-29.187z" opacity=".2" transform="translate(-789 -110) translate(789 110) translate(27.766) translate(.102 -.004)"/>
                        <path fill="#FFBE9D" d="M197.954 221.513h8.502c7.711-.75 12.014-.875 14.176-2.915 2.89-2.769-1.081-5.454-1.081-5.454s5.57-1.936 5.051-5.33c-.353-2.332-2.993-2.581-2.993-2.581s4.926-1.936 5.903-3.998c1.31-2.79-2.078-4.288-2.078-4.288 6.714-4.164 6.11-8.327 4.552-8.66-1.56-.334-6.777 2.081-6.777 2.081-4.427 1.27-16.504 4.955-12.035-1.707 4.47-6.662 5.405-13.47 4.386-15.489-.584-.9-1.674-1.332-2.714-1.073-1.041.258-1.804 1.149-1.9 2.218-.69 2.62-1.747 5.13-3.14 7.453-1.05 1.914-2.413 3.638-4.032 5.1-1.891 1.687-3.575 3.04-5.01 4.164l-7.566 7.287 6.756 23.192z" transform="translate(-789 -110) translate(789 110) translate(27.766) translate(.102 -.004)"/>
                    </g>
                </g>
            </g>
        </g>
    </g>
</svg>
