<svg xmlns="http://www.w3.org/2000/svg" width="60" height="60" viewBox="0 0 60 60">
    <g fill="none" fill-rule="evenodd">
        <g>
            <g>
                <path d="M0 0L60 0 60 60 0 60z" transform="translate(-960 -860) translate(960 860)"/>
                <path fill="#000" fill-rule="nonzero" d="M35 35.63v5.225c-4.592-1.623-9.685-.917-13.661 1.896C17.362 45.563 14.999 50.13 15 55l-5-.002c-.002-6.187 2.86-12.026 7.75-15.815 4.891-3.79 11.26-5.102 17.25-3.556v.003zm-5-3.13c-8.288 0-15-6.712-15-15 0-8.287 6.712-15 15-15s15 6.713 15 15c0 8.288-6.712 15-15 15zm0-5c5.525 0 10-4.475 10-10s-4.475-10-10-10-10 4.475-10 10 4.475 10 10 10zm14.483 22.285l8.837-8.837 3.538 3.535-12.375 12.375-8.84-8.84 3.537-3.535 5.3 5.302h.003z" transform="translate(-960 -860) translate(960 860)"/>
            </g>
        </g>
    </g>
</svg>
