<svg xmlns="http://www.w3.org/2000/svg" width="60" height="60" viewBox="0 0 60 60">
    <g fill="none" fill-rule="evenodd">
        <g>
            <g>
                <path d="M0 0L60 0 60 60 0 60z" transform="translate(-80 -860) translate(80 860)"/>
                <path fill="#000" fill-rule="nonzero" d="M12.182 7.5h35.636c.8 0 1.552.383 2.022 1.03l9.557 13.14c.35.482.312 1.144-.092 1.582L30.918 54.005c-.469.506-1.259.538-1.765.07-.018-.015-9.5-10.288-28.458-30.823-.404-.438-.443-1.1-.092-1.582L10.16 8.53c.47-.647 1.222-1.03 2.022-1.03zm1.275 5l-7 9.625L30 47.625l23.542-25.5-7-9.625H13.458z" transform="translate(-80 -860) translate(80 860)"/>
            </g>
        </g>
    </g>
</svg>
