<svg xmlns="http://www.w3.org/2000/svg" width="322" height="186" viewBox="0 0 322 186">
    <g fill="none" fill-rule="evenodd">
        <g fill-rule="nonzero">
            <g>
                <g>
                    <g>
                        <path fill="#455A64" d="M130 145.005l5.475-57.929c.206-2.181-.506-4.35-1.964-5.985-1.458-1.635-3.53-2.59-5.72-2.634l-60.939-1.238c-4.157-.07-7.654 3.101-7.988 7.246l-4.672 60.517 75.808.023z" transform="translate(-1318 -1326) translate(1180 803) translate(138 523) translate(182.664 39.242)"/>
                        <path fill="#263238" d="M121.357 145c-.007-.068-.007-.136 0-.205 0-.145.028-.346.047-.602.047-.542.117-1.323.2-2.336.188-2.023.468-4.934.786-8.526.686-7.209 1.63-17.15 2.677-28.129.831-8.549 1.602-16.467 2.233-22.914v-.935c.006-.304-.024-.609-.09-.906-.152-.555-.48-1.047-.933-1.402-.442-.345-.982-.54-1.542-.56l-1.603-.042-5.34-.131-3.414-.093-.893-.033h-.308 1.205l3.415.042 5.34.084 1.603.028c1.243.054 2.308.909 2.63 2.112.071.306.104.62.098.934l.028.958c-.617 6.442-1.374 14.365-2.187 22.891l-2.751 28.12c-.36 3.592-.654 6.498-.86 8.52-.103.995-.187 1.776-.247 2.336-.028.257-.052.467-.07.603-.02.135-.024.187-.024.187z" transform="translate(-1318 -1326) translate(1180 803) translate(138 523) translate(182.664 39.242)"/>
                        <path fill="#B78876" d="M48.09 100.334c-.817.024-6.54 10.344-10.712 18.127-2.78 5.165-8.331 8.22-14.183 7.806-6.977-.485-12.68-5.753-13.716-12.67L5.96 73.346l14.09-3.485 5.756 31.515 3.531-10.02 18.753 8.978z" transform="translate(-1318 -1326) translate(1180 803) translate(138 523) translate(182.664 39.242)"/>
                        <path fill="#B78876" d="M20.177 72.776l-.467-7.064s-1.995-15.855-1.995-17.402c0-1.789-.855-2.219-1.513-2.177-1.028.07-1.757 1.332-1.808 2.869 0 .528.05 8.909.05 8.909-.486-.792-1.03-1.548-1.625-2.262-1.238-1.57-4.148-2.466-7.134-2.373-2.985.094-3.812.388-3.83 1.551.016.445.232.859.588 1.126.55.46 1.25.702 1.967.678 4.784-.085 6.073 2.47 6.073 2.47l.061.935s-2.906-2.079-5.223-1.2c-.346.127-.663.32-.934.57-1.33.002-2.557.71-3.224 1.86-.668 1.15-.675 2.567-.018 3.722.308.552.883 1.065 1.504.935.32-.098.611-.275.845-.514.132-.12.274-.226.426-.318l.537 2.565s1.509 5.7 1.869 8.255" transform="translate(-1318 -1326) translate(1180 803) translate(138 523) translate(182.664 39.242)"/>
                        <path fill="#B78876" d="M18.804 72.201c-.879.239-1.78-.406-2.252-1.182-.472-.775-.673-1.69-1.089-2.499-1.247-2.42-4.26-3.578-5.386-6.073-.159-.346-.243-.822.06-1.047.304-.224.678-.046.986.127l7.886 4.368" transform="translate(-1318 -1326) translate(1180 803) translate(138 523) translate(182.664 39.242)"/>
                        <path fill="#AA6550" d="M19.01 65.913c-.24-.224-.51-.413-.804-.56-.533-.332-1.318-.795-2.285-1.36l-3.424-1.957-.995-.56c-.327-.155-.687-.5-1.299-.37-.296.098-.502.366-.519.677-.015.249.03.497.131.725.183.405.41.789.678 1.144 1.093 1.402 2.504 2.308 3.522 3.345.496.467.917 1.007 1.247 1.602.3.561.491 1.145.72 1.668.288.895.957 1.616 1.827 1.972.32.137.685.123.995-.038-.319.006-.635-.046-.935-.154-.766-.39-1.332-1.086-1.56-1.915-.196-.587-.423-1.164-.677-1.729-.337-.644-.772-1.232-1.29-1.742-1.046-1.089-2.443-2.004-3.448-3.322-.242-.319-.45-.663-.616-1.028-.15-.34-.131-.691.07-.724.2-.032.57.126.906.318l1.005.542 3.475 1.869c.995.523 1.804.934 2.364 1.214.286.167.592.296.911.383zM10.656 60.069c-.056-.572-.243-1.124-.546-1.612-.362-.498-.872-.867-1.458-1.056-.734-.225-1.498-.336-2.266-.327-.793.01-1.584-.058-2.364-.205-.653-.131-1.26-.434-1.756-.878-.344-.315-.518-.775-.467-1.238.008-.167.062-.328.154-.468.032 0-.024.173-.028.468.005.41.189.797.504 1.06.485.383 1.056.64 1.663.752.763.128 1.535.186 2.308.173.802-.01 1.6.116 2.36.37.637.22 1.182.65 1.546 1.218.24.378.38.81.406 1.257.033.322-.037.49-.056.486zM14.422 48.408c.058.554.066 1.113.023 1.668 0 1.14-.023 2.504-.042 4.008-.019 1.505 0 2.869 0 4.009.035.556.022 1.114-.037 1.668-.127-.544-.195-1.1-.201-1.659-.07-1.028-.117-2.448-.112-4.018.004-1.57.065-2.994.14-4.017.018-.56.094-1.115.229-1.659zM8.764 61.956c-.163-.043-.32-.106-.467-.187-.398-.208-.868-.23-1.285-.06-.258.138-.423.403-.434.696-.02.361.007.724.08 1.079.095.447.024.914-.202 1.313-.296.41-.769.657-1.275.663-.498 0-.973-.206-1.313-.57-.317-.318-.531-.723-.616-1.163-.092-.713-.081-1.435.032-2.144.065-.48.208-.946.425-1.379.173-.299.332-.42.341-.406-.065.16-.14.316-.224.467-.163.436-.267.892-.308 1.355-.08.684-.068 1.375.033 2.056.149.796.813 1.393 1.62 1.457.4-.003.776-.193 1.014-.514.186-.332.246-.72.169-1.093-.067-.382-.083-.772-.047-1.159.036-.374.264-.703.602-.869.48-.177 1.015-.118 1.444.16.28.163.42.28.411.298z" transform="translate(-1318 -1326) translate(1180 803) translate(138 523) translate(182.664 39.242)"/>
                        <path fill="#AA6550" d="M3.99 64.638s.06.173-.047.467c-.172.423-.531.741-.972.86-.669.149-1.367-.066-1.836-.566-.546-.602-.839-1.392-.817-2.205 0-.802.25-1.584.714-2.237.386-.523.901-.935 1.495-1.196.395-.176.82-.276 1.252-.295.304 0 .468.024.468.047-.559.076-1.104.234-1.617.467-.538.27-1 .67-1.345 1.163-.414.608-.635 1.326-.636 2.06-.019.728.233 1.438.706 1.99.39.44.98.648 1.56.552.387-.088.718-.336.911-.682.13-.257.136-.43.164-.425zM9.755 70.24c.261-.084.542-.084.803 0 .682.149 1.295.52 1.743 1.055l-.28.08c.036-.376.096-.75.182-1.117.467-2.154 1.672-3.56 1.728-3.494.056.065-.934 1.494-1.401 3.569-.085.373-.145.738-.192 1.079l-.047.374-.233-.29c-.402-.5-.941-.87-1.551-1.065-.458-.14-.752-.15-.752-.192zM9.6 55.981c.08.038-.243.64-.98.935-.739.294-1.402.149-1.37.065.033-.084.603-.084 1.239-.37.635-.284 1.037-.69 1.111-.63z" transform="translate(-1318 -1326) translate(1180 803) translate(138 523) translate(182.664 39.242)"/>
                        <path fill="#ED2012" d="M99.008 106.403l24.676-6.073s-1.57-3.808-5.92-16.716C113.748 71.687 110.29 67.6 110.29 67.6s-12.614-6.952-20.004-10.974l-5.2-5.47v.55l-4.812 2.117-7.629 3.359-7.325-2.691-3.07-1.126-1.083 2.135-13.081 3.597S38.743 62.49 32.753 76.2c-7.4 16.898-7.942 19.841-7.942 19.841l19.327 11.212-3.21 37.738 59.117.038-1.168-28.918.13-9.708z" transform="translate(-1318 -1326) translate(1180 803) translate(138 523) translate(182.664 39.242)"/>
                        <path fill="#263238" d="M95.611 76.644c-.005-.204.017-.409.066-.607.099-.55.255-1.086.467-1.603.704-1.716 1.868-3.204 3.364-4.302 1.962-1.404 4.296-2.196 6.708-2.275.202-.023.406-.023.607 0 0 .046-.868.046-2.233.317-1.78.344-3.466 1.07-4.938 2.13-1.46 1.078-2.614 2.518-3.35 4.177-.282.703-.513 1.426-.69 2.163zM123.684 100.334l-.126.043-.384.102-1.462.374-5.386 1.336-17.837 4.326-.107.024-.126.032-.024-.126c-1.191-7.036-2.27-13.394-3.05-18.014-.379-2.294-.683-4.153-.897-5.461l-.234-1.486c-.023-.159-.037-.29-.056-.388-.005-.045-.005-.09 0-.135.018.042.03.086.037.13 0 .099.047.225.075.384.07.355.159.85.28 1.476.23 1.308.561 3.163.972 5.447.799 4.62 1.901 10.974 3.12 18.005l-.144-.098.103-.028 17.846-4.237 5.414-1.257 1.476-.332.384-.08c.04-.018.082-.03.126-.037zM61.167 55.5c.045.122.075.25.089.378.046.285.107.64.182 1.07v-.032c1.606 1.971 3.404 3.779 5.368 5.395.242.197.485.388.728.575.234.187.496.36.692.262.196-.099.303-.416.467-.654l.42-.73c.556-.934 1.089-1.774 1.551-2.461.463-.687.865-1.224 1.154-1.584.145-.182.262-.318.346-.406.084-.09.126-.136.135-.131-.122.205-.256.403-.401.593-.267.379-.645.934-1.089 1.626-.444.691-.934 1.532-1.504 2.476-.13.238-.271.467-.411.729l-.206.383c-.074.154-.193.283-.34.369-.17.084-.369.084-.538 0-.145-.072-.28-.161-.402-.266-.247-.187-.467-.379-.738-.58-1.995-1.621-3.79-3.473-5.349-5.517-.047-.435-.089-.794-.122-1.08-.03-.136-.04-.276-.032-.415zM89.463 56.299c-.058.051-.122.095-.191.13l-.58.332-2.125 1.206c-1.794 1.027-4.251 2.476-6.905 4.172-1.14.733-2.228 1.448-3.214 2.111l-.103.07-.06-.107c-1.098-1.92-2-3.588-2.593-4.789-.3-.602-.524-1.084-.659-1.425-.08-.17-.145-.346-.192-.528.1.16.185.327.257.5.16.327.407.8.72 1.402.63 1.182 1.55 2.83 2.663 4.742l-.16-.038c.982-.672 2.066-1.401 3.21-2.13 2.659-1.696 5.14-3.125 6.952-4.116.906-.495 1.649-.878 2.168-1.14l.597-.294c.067-.043.14-.076.215-.098zM75.967 83.479c-.115.012-.231.012-.346 0l-.986-.089-3.61-.388h-.085v-.088l.332-8.993.434-9.867c.066-1.238.122-2.252.159-2.99.022-.333.04-.604.056-.813.003-.096.015-.191.037-.285.013.095.013.19 0 .285v.818c0 .738-.05 1.752-.084 2.99-.093 2.555-.22 6.03-.364 9.87-.15 3.44-.285 6.579-.392 8.994l-.08-.093 3.597.467.981.14c.118 0 .236.014.35.042z" transform="translate(-1318 -1326) translate(1180 803) translate(138 523) translate(182.664 39.242)"/>
                        <path fill="#263238" d="M75.682 68.539h.103c.097.02.192.055.28.103.325.185.583.47.733.812.248.514.248 1.113 0 1.626-.157.301-.41.541-.72.682-.326.15-.688.208-1.046.168-.358-.042-.698-.179-.985-.397-.272-.205-.466-.497-.552-.827-.133-.542-.017-1.117.318-1.565.225-.3.539-.52.897-.63.096-.025.195-.038.294-.038.036-.007.072-.007.108 0 0 .028-.145.033-.374.122-.318.133-.59.355-.785.64-.29.405-.393.916-.28 1.401.22.572.738.973 1.347 1.042.608.069 1.203-.207 1.545-.715.224-.453.24-.981.046-1.448-.128-.32-.345-.598-.626-.799-.196-.117-.331-.15-.303-.177zM75.336 76.443c.034-.006.069-.006.103 0 .098.021.192.056.28.103.326.185.583.47.734.813.248.513.248 1.112 0 1.626-.157.301-.41.541-.72.682-.329.15-.692.208-1.05.168-.357-.043-.696-.18-.982-.397-.272-.206-.466-.497-.551-.827-.13-.554.001-1.137.355-1.584.223-.3.538-.52.897-.626.095-.028.194-.042.294-.042.036-.006.072-.006.108 0 0 .028-.145.033-.374.122-.319.131-.592.354-.785.64-.29.405-.393.915-.28 1.401.219.572.738.973 1.346 1.042.608.069 1.204-.207 1.545-.715.224-.453.241-.981.047-1.448-.128-.32-.345-.598-.626-.799-.21-.098-.35-.13-.34-.159z" transform="translate(-1318 -1326) translate(1180 803) translate(138 523) translate(182.664 39.242)"/>
                        <g fill="#000" opacity=".3">
                            <path d="M.425.78C.336.958 1.63 6.115 2.58 9.48c.201.711.766 1.261 1.482 1.444.716.183 1.476-.029 1.994-.556L15.814.43 3.97 7.629.425.78z" transform="translate(-1318 -1326) translate(1180 803) translate(138 523) translate(182.664 39.242) translate(72.412 56.528)"/>
                        </g>
                        <g fill="#000" opacity=".3">
                            <path d="M.15.51s2.265 7.88 6.638 8.54c0 0 1.402.05 1.743-1.09.34-1.14 2.092-7.773 2.092-7.773L6.578 6.26C4.029 4.851 1.832 2.886.149.51z" transform="translate(-1318 -1326) translate(1180 803) translate(138 523) translate(182.664 39.242) translate(61.667 56.995)"/>
                        </g>
                        <path fill="#B78876" d="M85.081 51.707l.07-31.222c.016-4.508-1.793-8.831-5.014-11.985-3.222-3.155-7.582-4.872-12.089-4.763h-.257c-9.082.758-16.06 8.364-16.033 17.477.023 7.975.15 16.627.551 20.85.855 8.984 9.965 9.638 9.965 9.638v1.644l10.395 3.817 12.412-5.456z" transform="translate(-1318 -1326) translate(1180 803) translate(138 523) translate(182.664 39.242)"/>
                        <path fill="#AA6550" d="M62.25 51.59s5.719 0 11.446-4.303c0 0-2.237 6.704-11.277 6.634l-.168-2.331z" transform="translate(-1318 -1326) translate(1180 803) translate(138 523) translate(182.664 39.242)"/>
                        <path fill="#263238" d="M54.785 26.69c.05.697.647 1.228 1.346 1.195.332-.002.65-.138.88-.377.232-.239.357-.56.348-.893-.052-.696-.648-1.224-1.345-1.192-.332.002-.65.137-.88.375-.232.238-.358.56-.349.892zM54.052 24.835c.173.154 1.088-.645 2.471-.757 1.383-.112 2.453.495 2.588.313.066-.08-.121-.369-.588-.654-.631-.368-1.361-.531-2.089-.467-.72.056-1.402.34-1.948.813-.397.369-.518.677-.434.752zM67.931 25.802c.05.697.647 1.228 1.346 1.196.332-.003.65-.139.881-.378.231-.239.356-.56.348-.893-.053-.696-.649-1.223-1.346-1.191-.332.001-.65.136-.88.374-.232.239-.357.56-.349.892zM67.656 23.97c.173.155 1.088-.649 2.466-.756 1.379-.108 2.453.495 2.589.313.07-.08-.117-.37-.589-.654-.63-.37-1.36-.533-2.088-.467-.718.054-1.4.337-1.944.808-.397.373-.518.687-.434.757zM63.489 34.631c0-.079-.87-.158-2.275-.22-.356 0-.697-.05-.776-.284-.06-.362-.008-.734.15-1.065.261-.883.532-1.808.822-2.775 1.13-3.943 1.92-7.176 1.761-7.223-.159-.046-1.21 3.121-2.336 7.064-.27.972-.53 1.906-.775 2.803-.187.445-.211.94-.07 1.401.124.245.356.418.626.468.198.037.4.048.602.032 1.383-.056 2.275-.121 2.27-.2zM67.637 35.248c-.229 0-.107 1.504-1.303 2.677s-2.803 1.14-2.803 1.35c0 .094.378.262 1.055.224.877-.064 1.703-.432 2.336-1.041.61-.59.966-1.392.995-2.238.02-.63-.177-.986-.28-.972zM66.852 18.584c.168.364 1.533.07 3.168.13 1.635.062 2.985.398 3.172.043.084-.168-.173-.505-.734-.822-.738-.399-1.562-.614-2.4-.626-.836-.036-1.668.124-2.43.467-.575.313-.85.635-.776.808zM54.23 20.794c.27.294 1.195-.112 2.335-.22 1.14-.107 2.13.038 2.336-.313.084-.168-.093-.467-.542-.729-1.218-.625-2.693-.455-3.737.43-.407.355-.51.687-.393.832zM74.575 11.436l.051.033c1.525 1.01 2.602 2.57 3.004 4.354 0 .066.028.126.042.182.565 2.537.715 5.14 1.303 7.68.589 2.542.468 4.462 3.014 5.032 1.36.295 2.762-.274 3.531-1.434.186-.371.262-.788.22-1.2-.033-6.233 1.224-8.653.673-15.128-.14-1.76-1.12-3.343-2.63-4.256-1.44-.86-3.177-1.728-4.625-.892-1.449.836-3.163 3.821-4.233 5.115" transform="translate(-1318 -1326) translate(1180 803) translate(138 523) translate(182.664 39.242)"/>
                        <path fill="#B78876" d="M82.456 24.802c.15-.075 6.026-2.336 6.34 3.826.312 6.162-5.943 5.205-5.962 5.032-.018-.173-.378-8.858-.378-8.858z" transform="translate(-1318 -1326) translate(1180 803) translate(138 523) translate(182.664 39.242)"/>
                        <path fill="#AA6550" d="M84.6 31.226s.112.07.294.145c.261.097.55.089.804-.024.64-.27 1.135-1.331 1.112-2.448-.012-.528-.142-1.046-.379-1.518-.137-.385-.455-.679-.85-.785-.259-.054-.52.083-.621.327-.07.178-.028.3-.06.308-.034.01-.136-.093-.099-.35.026-.155.103-.296.22-.402.164-.136.375-.203.588-.187.52.077.962.419 1.168.902.293.518.454 1.1.467 1.696 0 1.247-.556 2.439-1.434 2.742-.33.115-.694.073-.99-.112-.201-.145-.262-.28-.22-.294z" transform="translate(-1318 -1326) translate(1180 803) translate(138 523) translate(182.664 39.242)"/>
                        <path fill="#263238" d="M79.447 6.741c1.308-2.583-3.13-5.77-6.241-6.475-3.112-.705-7.008 1.103-9.923 2.336-1.869.79-3.681 1.827-5.69 1.91-1.35.057-2.672-.326-3.98-.667-1.286-.425-2.645-.584-3.995-.467-1.336.205-2.658 1.032-3.069 2.336-.411 1.303.467 2.933 1.817 3.008-1.78-.794-4.139.635-4.256 2.579-.116 1.943 2.051 3.653 3.91 3.079-.934-.59-2.176.616-1.976 1.7.201 1.084 1.252 1.794 2.294 2.149 2.654.934 5.606.308 8.194-.803 2.589-1.112 4.924-2.71 7.475-3.883 2.551-1.172 6.812-3.27 9.53-2.55 2 .523 3.546 2.751 4.602 2.144 1.004-.648 1.642-1.732 1.72-2.925.05-1.177-.088-2.356-.412-3.49" transform="translate(-1318 -1326) translate(1180 803) translate(138 523) translate(182.664 39.242)"/>
                        <path fill="#455A64" d="M47.61 8.629c.046-.033.355.43 1.074 1.093 1.026.92 2.26 1.578 3.597 1.915 1.966.53 4.061.273 5.84-.72 2.013-1.111 3.648-3.134 5.56-5.068 1.91-1.934 4.204-3.471 6.633-3.892 2.43-.42 4.704.271 6.073 1.551 1.076.996 1.698 2.389 1.72 3.855-.002.39-.059.779-.169 1.154-.093.252-.15.373-.173.369.077-.501.113-1.007.108-1.514-.112-1.367-.749-2.637-1.775-3.546-1.276-1.135-3.42-1.747-5.658-1.317-2.238.43-4.443 1.868-6.307 3.77-1.864 1.901-3.56 3.97-5.718 5.139-1.907 1.034-4.148 1.266-6.227.644-1.384-.39-2.641-1.133-3.649-2.158-.269-.278-.51-.581-.72-.906-.167-.234-.228-.355-.21-.37zM83.997 24.405s-.28-.145-.55-.612c-.357-.678-.52-1.44-.468-2.205-.028-1.99 1.546-4.26 1.542-7.008.055-1.276-.288-2.538-.981-3.61-.598-.849-1.458-1.476-2.448-1.785-.67-.218-1.386-.255-2.075-.108-.49.117-.742.252-.77.206-.028-.047.2-.234.7-.435.729-.253 1.517-.28 2.261-.08 1.124.279 2.115.94 2.803 1.87.793 1.16 1.191 2.543 1.136 3.947-.044 1.365-.337 2.711-.865 3.971-.424.976-.713 2.006-.86 3.06-.096.967.104 1.94.575 2.79z" transform="translate(-1318 -1326) translate(1180 803) translate(138 523) translate(182.664 39.242)"/>
                        <path fill="#B78876" d="M121.525 100.91l8.713 20.83c1.6 3.824 1.316 8.175-.766 11.759-2.686 4.62-7.886 7.172-13.184 6.47l-30.571-2.966.565-12.081 22.606-3.56-6.27-15.851 18.907-4.602z" transform="translate(-1318 -1326) translate(1180 803) translate(138 523) translate(182.664 39.242)"/>
                        <path fill="#B78876" d="M86.702 125.02s-4.933-1.089-7.05-1.523c-.686-.145-1.289-.528-1.966-.7-3.308-.86-7.358-2.995-8.278-3.892-1.598-1.565-2.775.845-1.182 2.803.774 1.04 1.723 1.94 2.803 2.658l-6.75 1.77c-.352.093-.656.315-.851.622l-5.214 8.255c-.496.667-.414 1.601.192 2.172.29.313.773.35 1.107.084l-.673 1.121c-1.107 1.869 1.612 3.672 2.803 1.869.018-.02.034-.042.047-.065l1.303 1.765s.622 1.724 2.617.617c1.653-.934 7.203-5.008 7.203-5.008s15.674.355 16.459-1.957l-2.57-10.591z" transform="translate(-1318 -1326) translate(1180 803) translate(138 523) translate(182.664 39.242)"/>
                        <path fill="#AA6550" d="M61.667 140.259c.08.037.523-.748 1.312-1.967.79-1.22 1.981-2.873 3.14-4.751.616-.888 1.285-1.77 1.868-2.462.289-.287.67-.463 1.075-.495l1.182-.173c1.444-.22 2.336-.392 2.336-.467 0-.075-.935-.047-2.373.07l-1.192.103c-.522.022-1.02.23-1.401.588-.705.8-1.362 1.64-1.967 2.518-1.182 1.916-2.294 3.57-3.013 4.864-.72 1.294-1.028 2.144-.967 2.172zM59.513 137.25c.187.131 1.948-2.92 4.47-6.372.632-.855 1.225-1.742 1.958-2.097.746-.321 1.515-.588 2.299-.8.526-.15 1.063-.254 1.607-.312.383-.028.593 0 .607-.033.014-.033-.196-.15-.607-.187-.57-.03-1.143.016-1.7.14-.828.16-1.638.399-2.42.71-.982.468-1.556 1.402-2.201 2.238-1.096 1.492-2.096 3.053-2.995 4.672-.696 1.205-1.074 2.018-1.018 2.041zM74.023 133.751c0-.074-.808-.056-2.088.042l-1.051.09c-.432.005-.86.096-1.257.265-.426.226-.795.545-1.079.935l-.934 1.079c-2.588 2.962-4.588 5.442-4.466 5.54.121.099 2.307-2.21 4.886-5.138l.935-1.084c.237-.34.546-.622.906-.827.34-.154.706-.244 1.079-.266l1.042-.16c1.257-.233 2.037-.396 2.027-.476zM77.938 124.095c0-.234-2.167-.341-4.793-.056-2.625.285-4.732.84-4.672 1.014.061.172 2.126-.206 4.747-.468l3.345-.331c.462-.006.922-.059 1.373-.16z" transform="translate(-1318 -1326) translate(1180 803) translate(138 523) translate(182.664 39.242)"/>
                    </g>
                    <g>
                        <path fill="#455A64" d="M5.56 139.4L.083 81.47c-.206-2.181.506-4.35 1.964-5.985 1.458-1.635 3.53-2.59 5.721-2.634l60.938-1.229c4.165-.08 7.675 3.093 8.012 7.246l4.672 60.517-75.832.014z" transform="translate(-1318 -1326) translate(1180 803) translate(138 523) translate(2.803 44.848)"/>
                        <path fill="#263238" d="M14.202 139.385c-.016-.066-.027-.133-.033-.2 0-.15-.037-.346-.07-.603-.056-.542-.14-1.322-.247-2.336-.201-2.023-.496-4.929-.86-8.517-.705-7.208-1.672-17.145-2.747-28.119-.817-8.549-1.574-16.467-2.186-22.891v-.958c-.003-.314.032-.628.102-.934.319-1.203 1.383-2.059 2.626-2.112l1.607-.028 5.359-.103 3.415-.042h.897l-.893.033-3.415.094-5.34.13-1.602.042c-.553.026-1.083.224-1.518.566-.454.355-.781.846-.935 1.401-.065.298-.095.602-.088.907v.934c.626 6.442 1.401 14.36 2.233 22.891l2.677 28.124.784 8.526c.085 1 .155 1.78.201 2.336l.042.602c.005.086.002.172-.009.257zM44.564 22.237c.836-1.775-.057-4.045-1.696-5.115-1.64-1.07-3.812-1.084-5.662-.435-3.349 1.228-5.685 4.282-5.994 7.835-1.434.386-2.7 1.237-3.597 2.42-2.56 3.237-2.168 8.348.682 11.338 2.85 2.99 7.727 3.686 11.422 1.84 3.695-1.845 6.073-5.965 6.026-10.095" transform="translate(-1318 -1326) translate(1180 803) translate(138 523) translate(2.803 44.848)"/>
                        <path fill="#FF725E" d="M47.264 24.106c.17-.733-.158-1.49-.808-1.869-.662-.355-1.443-.412-2.15-.158-.696.254-1.34.634-1.9 1.12-.869.659-1.616 1.462-2.21 2.374-.594.921-.86 2.016-.757 3.107.12 1.1.782 2.066 1.766 2.574 1.009.482 2.216.24 2.961-.594" transform="translate(-1318 -1326) translate(1180 803) translate(138 523) translate(2.803 44.848)"/>
                        <path fill="#263238" d="M49.987 14.29c-.065-2.022 1.799-3.592 3.677-4.344 1.878-.752 3.971-1.037 5.643-2.177 1.481-1.004 2.476-2.57 3.738-3.854C66.19.698 70.825-.574 75.17.588c4.347 1.161 7.73 4.576 8.85 8.933.733 2.878.257 6.288-2.004 8.213-2.626 2.233-6.54 1.756-9.914 1.079-3.373-.677-7.208-1.336-10.016.659-1.696 1.205-2.663 3.153-3.695 4.956-1.033 1.804-2.336 3.654-4.289 4.336-1.953.682-4.634-.467-4.723-2.546" transform="translate(-1318 -1326) translate(1180 803) translate(138 523) translate(2.803 44.848)"/>
                        <path fill="#263238" d="M50.123 15.417c.233 1.696-.986 3.218-2.205 4.424-1.22 1.205-2.588 2.476-2.803 4.176-.243 1.981 1.214 3.925.803 5.882-.261 1.238-1.219 2.2-1.798 3.326-.77 1.627-.89 3.487-.337 5.2.51 1.705 1.332 5.517 2.523 6.835 3.298 3.658 8.54 6.797 13.342 7.88 4.803 1.085 9.788 1.061 14.702.739 4.023-.266 8.648-.103 11.974-5.653 1.724-2.873 2.565-6.69 3.476-9.913.78-2.78 1.453-5.756.616-8.517-.49-1.607-1.467-3.032-1.948-4.643-.602-2.014-.397-4.168-.644-6.256-.547-4.602-3.282-8.656-7.344-10.887-4.063-2.23-8.952-2.362-13.128-.353" transform="translate(-1318 -1326) translate(1180 803) translate(138 523) translate(2.803 44.848)"/>
                        <path fill="#FFBE9D" d="M85.918 22.186c-.402-5.77-4.275-12.829-10.021-12.18L57.962 14.68c-1.746.195-3.051 1.696-3.004 3.452l2.214 43.307-.121.023s4.148 12.198 16 8.41c2.337-.753 3.416-3.332 3.869-5.98h.121v-.907c.223-1.974.237-3.966.042-5.942v-4.896c0 .032 7.368-1.276 8.835-10.909.742-4.798.448-12.637 0-19.051z" transform="translate(-1318 -1326) translate(1180 803) translate(138 523) translate(2.803 44.848)"/>
                        <path fill="#263238" d="M83.498 28.75c.013.67-.513 1.226-1.182 1.252-.317.028-.631-.073-.872-.281-.24-.208-.386-.504-.404-.822-.013-.668.51-1.224 1.178-1.252.317-.028.632.073.873.28.24.209.388.505.407.823zM84.245 26.283c-.15.159-1.093-.528-2.42-.514-1.327.014-2.298.682-2.443.523-.07-.07.084-.364.504-.677.575-.4 1.258-.615 1.958-.617.69-.005 1.363.207 1.925.608.41.313.55.602.476.677zM70.814 28.904c.01.669-.514 1.224-1.182 1.252-.317.028-.631-.073-.872-.28-.24-.209-.386-.505-.403-.823-.014-.668.509-1.226 1.177-1.256.318-.029.633.073.875.282.24.209.387.506.405.825zM71.192 26.629c-.154.159-1.093-.523-2.42-.514-1.326.01-2.298.687-2.443.523-.07-.07.084-.364.505-.677.572-.4 1.254-.616 1.952-.617.692-.008 1.369.206 1.93.612.41.3.551.589.476.673zM76.079 36.44c0-.075.817-.225 2.154-.407.34-.037.658-.103.714-.336.028-.351-.054-.702-.233-1.005l-1.019-2.574c-1.401-3.667-2.448-6.685-2.298-6.741.15-.056 1.401 2.873 2.836 6.54l.976 2.593c.216.407.282.876.187 1.327-.097.244-.303.43-.556.5-.187.054-.38.082-.575.084-1.345.08-2.181.088-2.186.018z" transform="translate(-1318 -1326) translate(1180 803) translate(138 523) translate(2.803 44.848)"/>
                        <path fill="#EB996E" d="M77.083 52.146c-4.53.1-8.998-1.06-12.908-3.35 0 0 3.168 6.587 12.796 5.606l.112-2.256zM75.542 39.64c-.518-.645-1.333-.976-2.154-.874-.592.056-1.135.351-1.504.817-.356.458-.393 1.088-.094 1.584.439.486 1.129.656 1.743.43.625-.227 1.2-.575 1.691-1.023.15-.107.279-.242.378-.397.095-.152.095-.344 0-.495" transform="translate(-1318 -1326) translate(1180 803) translate(138 523) translate(2.803 44.848)"/>
                        <path fill="#263238" d="M72.178 37.374c.215 0 .229 1.43 1.467 2.443 1.238 1.014 2.775.846 2.803 1.047 0 .093-.341.284-.99.303-.848.022-1.676-.258-2.336-.79-.631-.51-1.04-1.245-1.14-2.05-.038-.598.098-.953.196-.953zM71.772 24.293c-.127.364-1.453.2-3.009.397-1.556.196-2.803.635-3.027.313-.094-.159.126-.5.63-.85 1.37-.875 3.063-1.074 4.597-.542.575.215.865.504.809.682zM83.731 22.424c-.233.304-1.15 0-2.247 0-1.098 0-2.032.22-2.247-.098-.098-.15.047-.467.467-.743.542-.353 1.18-.53 1.827-.504.645.005 1.272.213 1.794.593.378.313.509.621.406.752z" transform="translate(-1318 -1326) translate(1180 803) translate(138 523) translate(2.803 44.848)"/>
                        <path fill="#263238" d="M51.389 46.362c2.7.532 5.491-.269 7.498-2.152 2.007-1.883 2.984-4.617 2.626-7.345-.314-2.336-1.598-4.761-.79-7.008 1.07-2.962 5.214-3.892 6.302-6.849.63-1.714.047-3.737.762-5.405.677-1.584 2.335-2.504 3.952-3.093 1.616-.588 3.35-1.009 4.704-2.07 1.355-1.06 2.191-3.06 1.308-4.535-7.19.893-14.247 2.64-21.022 5.204-1.57.593-3.214 1.308-4.14 2.705-.976 1.485-.934 3.391-.826 5.139l1.326 25.918" transform="translate(-1318 -1326) translate(1180 803) translate(138 523) translate(2.803 44.848)"/>
                        <path fill="#455A64" d="M52.006 49.67c-.056-.026-.108-.059-.155-.098l-.43-.327c-.373-.29-.934-.72-1.602-1.313-.832-.713-1.593-1.507-2.27-2.369-.925-1.147-1.55-2.507-1.818-3.957-.383-1.786.063-3.65 1.215-5.069.696-.693 1.443-1.335 2.233-1.92.799-.609 1.404-1.436 1.743-2.382.705-1.962.378-4.233.64-6.54.263-2.425 1.198-4.727 2.7-6.648.777-.965 1.744-1.76 2.84-2.336 1.08-.495 2.207-.88 3.364-1.15 1.076-.276 2.08-.778 2.948-1.471.82-.7 1.536-1.511 2.13-2.41 1.2-1.725 2.088-3.556 3.233-5.088.535-.751 1.162-1.43 1.869-2.023.667-.542 1.427-.96 2.242-1.233 1.41-.547 2.994-.396 4.275.406.902.691 1.46 1.739 1.532 2.873.061.71-.142 1.417-.57 1.986-.109.145-.242.272-.392.373-.098.075-.15.112-.15.103 0-.01.038-.051.122-.135.133-.116.25-.248.35-.393.38-.565.547-1.248.467-1.925-.097-1.07-.643-2.048-1.504-2.69-1.225-.732-2.721-.849-4.046-.318-.775.274-1.496.682-2.13 1.205-.684.581-1.293 1.245-1.813 1.976-1.107 1.51-1.976 3.336-3.19 5.107-.617.918-1.357 1.746-2.2 2.462-.908.729-1.959 1.259-3.084 1.555-1.125.265-2.22.642-3.27 1.126-1.05.551-1.972 1.315-2.71 2.243-1.451 1.857-2.357 4.08-2.616 6.423-.266 2.247.065 4.55-.682 6.643-.366 1.01-1.015 1.894-1.869 2.546-.78.568-1.517 1.192-2.205 1.87-1.1 1.34-1.532 3.108-1.177 4.806.244 1.407.832 2.733 1.71 3.86.657.862 1.392 1.662 2.195 2.391.659.607 1.187 1.06 1.547 1.369.189.142.366.3.528.472z" transform="translate(-1318 -1326) translate(1180 803) translate(138 523) translate(2.803 44.848)"/>
                        <path fill="#263238" d="M28.497 31.791c-.084.033-.162.079-.233.136-.206.155-.394.334-.56.532-.61.752-.958 1.682-.991 2.649-.004 1.428.41 2.827 1.191 4.022.896 1.5 2.19 2.72 3.738 3.527 1.568.799 3.365 1.027 5.082.645.743-.173 1.45-.475 2.089-.892.548-.373 1.033-.83 1.439-1.355.59-.756.979-1.65 1.13-2.597.04-.255.055-.513.047-.771.003-.09-.007-.18-.028-.267-.033 0 0 .37-.14 1.019-.195.908-.6 1.757-1.182 2.48-.864 1.073-2.072 1.814-3.42 2.098-1.65.353-3.37.127-4.873-.64-1.495-.785-2.75-1.96-3.63-3.4-.766-1.146-1.188-2.487-1.214-3.864.012-.927.313-1.827.86-2.574.216-.263.449-.513.695-.748zM52.64 34.365c.103.06.211.11.323.15.215.084.538.205.935.336 1.193.377 2.44.559 3.69.537 1.894-.023 3.707-.768 5.07-2.083.778-.802 1.318-1.805 1.56-2.897.294-1.098.467-2.27.934-3.326.528-1.016 1.296-1.889 2.238-2.541.878-.623 1.806-1.173 2.775-1.645 1.868-.934 3.531-1.869 4.564-3.116.85-.95 1.346-2.165 1.401-3.438-.002-.342-.05-.681-.145-1.01-.03-.113-.073-.223-.13-.326.102.437.153.886.15 1.336-.093 1.227-.597 2.388-1.43 3.293-1.019 1.177-2.668 2.088-4.523 3.004-.988.47-1.936 1.023-2.83 1.654-.985.68-1.788 1.59-2.337 2.653-.527 1.122-.672 2.308-.934 3.387-.227 1.041-.736 2-1.471 2.77-1.307 1.274-3.045 2.01-4.868 2.061-1.232.042-2.462-.105-3.649-.434-.855-.22-1.313-.393-1.322-.365zM82.012 62.732L76.359 58.453 55.07 57.088 54.215 59.943 61.139 103.161 56.518 139.385 86.217 139.385z" transform="translate(-1318 -1326) translate(1180 803) translate(138 523) translate(2.803 44.848)"/>
                        <path fill="#263238" d="M77.406 63.605l.658-6.18c.056-.522-.1-1.045-.433-1.45-.332-.406-.814-.661-1.337-.709l-19.621-1.77c-.254-.02-.504.063-.695.231-.19.169-.304.407-.314.661l-.22 7.353 5.676 9.629 5.835 1.869h7.134l4.102-4.383-.785-5.25z" transform="translate(-1318 -1326) translate(1180 803) translate(138 523) translate(2.803 44.848)"/>
                        <path fill="#455A64" d="M58.36 59.382l.78-.08c.71-.065 1.426-.078 2.139-.037 1.055.076 2.103.232 3.135.468 1.172.247 2.443.588 3.793.934 1.266.334 2.556.565 3.859.691 1.07.1 2.149.026 3.195-.22.707-.165 1.382-.445 2-.826.162-.107.317-.222.467-.346.103-.089.154-.135.15-.145-.005-.009-.239.16-.678.407-.622.343-1.291.593-1.985.743-1.032.217-2.091.27-3.14.158-1.289-.139-2.566-.372-3.821-.696-1.346-.327-2.621-.668-3.803-.901-1.046-.223-2.108-.359-3.177-.407-.72-.027-1.44.012-2.153.117-.253.042-.468.08-.58.112-.112.033-.187.019-.182.028z" transform="translate(-1318 -1326) translate(1180 803) translate(138 523) translate(2.803 44.848)"/>
                        <g fill="#000" opacity=".3">
                            <path d="M16.673 1.49c.524 1.444.538 3.228-.523 4.336-.869.901-2.261 1.126-3.49.883-1.213-.316-2.365-.834-3.405-1.533C6.555 3.57 3.812 1.906.747 1.23c-.2-.024-.392-.104-.55-.23C.123.93.082.835.082.734c0-.1.04-.196.113-.266.078-.046.167-.07.257-.07C3.163.121 5.77 1.196 8.428 1.8c2.658.602 5.709 1.219 8.143-.215" transform="translate(-1318 -1326) translate(1180 803) translate(138 523) translate(2.803 44.848) translate(60.265 58.864)"/>
                        </g>
                        <path fill="#455A64" d="M73.196 55.07c.276.15.506.371.669.64.308.495.266 1.341.266 2.252-.047 1.827-.35 3.27-.28 3.303.137-.295.227-.61.266-.934.151-.77.239-1.552.261-2.336.017-.436.008-.873-.028-1.308-.028-.37-.143-.726-.336-1.042-.136-.212-.329-.382-.556-.49-.159-.103-.262-.099-.262-.085zM68.016 60.438c-.006-.998.04-1.996.14-2.99.182-.981.415-1.953.696-2.91-.18.238-.317.507-.402.794-.256.672-.436 1.371-.537 2.083-.101.712-.122 1.433-.061 2.15.005.298.06.593.164.873zM61.704 54.02c-.175.21-.303.458-.374.723-.21.632-.298 1.298-.257 1.962.046.665.222 1.314.519 1.911.105.254.264.482.467.668-.387-.82-.634-1.697-.733-2.597-.024-.904.104-1.806.378-2.668z" transform="translate(-1318 -1326) translate(1180 803) translate(138 523) translate(2.803 44.848)"/>
                        <path fill="#ED2012" d="M101.643 118.297s-2.64-33.874-4.018-40.228c-1.757-8.082-8.437-12.558-8.437-12.558l-2.733 62.648 5.335 7.914 6.452 2.48c1.483.57 3.12.595 4.62.07l6.209-2.162.523-11.824-5.242-1.519-2.71-4.82z" transform="translate(-1318 -1326) translate(1180 803) translate(138 523) translate(2.803 44.848)"/>
                        <path fill="#ED2012" d="M83.105 139.53L82.381 92.603 81.05 62.372 77.859 59.588 89.188 65.511 91.86 74.299 94.243 99.76 89.758 129.612 92.846 139.437" transform="translate(-1318 -1326) translate(1180 803) translate(138 523) translate(2.803 44.848)"/>
                        <path fill="#263238" d="M92.234 116.98s.042-.126.107-.37l.266-1.07c.117-.466.253-1.032.384-1.7.13-.668.303-1.401.439-2.265.135-.865.303-1.766.434-2.766.13-1 .252-2.065.374-3.186.205-2.257.34-4.742.34-7.353 0-2.612-.158-5.102-.368-7.354-.126-1.126-.234-2.195-.388-3.186-.154-.99-.29-1.925-.467-2.765-.178-.841-.308-1.598-.444-2.266-.135-.668-.27-1.234-.392-1.696-.122-.463-.201-.804-.271-1.07-.026-.124-.062-.246-.108-.364.01.127.03.254.061.378.056.266.13.626.229 1.075.098.448.224 1.037.346 1.705.121.668.285 1.425.41 2.266.127.84.29 1.765.412 2.76.121.996.247 2.065.364 3.187.201 2.247.337 4.723.35 7.33.015 2.606-.13 5.082-.322 7.33-.112 1.12-.21 2.19-.35 3.186-.14.995-.266 1.92-.407 2.76-.14.841-.28 1.603-.401 2.271-.122.668-.239 1.238-.341 1.705-.103.467-.164.808-.22 1.08-.026.124-.039.25-.037.378z" transform="translate(-1318 -1326) translate(1180 803) translate(138 523) translate(2.803 44.848)"/>
                        <path fill="#ED2012" d="M37.08 64.797c-4.83 1.877-8.408 6.032-9.55 11.086-3.704 16.35-10.044 38.06-10.142 45.068-.126 8.932 3.78 15.043 8.876 16.169 2.91.644 22.742.322 33.51.093 3.973-.084 7.284-3.066 7.784-7.008.542-4.33-2.476-8.3-6.793-8.937l-21.812-3.209 4.05-22.635-4.008-31.351-1.916.724z" transform="translate(-1318 -1326) translate(1180 803) translate(138 523) translate(2.803 44.848)"/>
                        <path fill="#ED2012" d="M58.924 84.516l-4.097-21.382c-.455-2.02-.152-4.136.85-5.948l-.046-1.111-8.447 4.657-8.18 3.345-.196 24.863 4.92 50.38 17.336.065-.033-22.494c.644-10.837-.064-21.713-2.107-32.375z" transform="translate(-1318 -1326) translate(1180 803) translate(138 523) translate(2.803 44.848)"/>
                        <path fill="#263238" d="M43.241 93.121c-.033.081-.055.166-.065.253-.037.191-.084.43-.145.724l-.467 2.672c-.402 2.294-.934 5.4-1.542 8.839-.607 3.438-1.088 6.54-1.471 8.848-.173 1.107-.318 2.014-.42 2.682-.043.299-.075.542-.103.733-.01.085-.01.172 0 .257.034-.079.056-.162.065-.248.042-.191.089-.434.15-.724.12-.668.29-1.57.495-2.672.41-2.261.934-5.382 1.546-8.839.612-3.457 1.107-6.578 1.467-8.843.173-1.112.313-2.019.416-2.691.037-.295.07-.538.093-.734.001-.086-.005-.172-.019-.257zM35.038 68.329c.215.1.439.183.668.247.606.22 1.199.476 1.775.766 1.894.975 3.536 2.376 4.798 4.093.357.483.67.997.934 1.537.236.51.427 1.04.57 1.583.241.919.397 1.857.468 2.803.07.813.084 1.477.088 1.935.005.457 0 .714 0 .714.056-.232.083-.47.08-.71.035-.65.035-1.302 0-1.953-.05-.967-.195-1.928-.43-2.868-.143-.557-.333-1.101-.57-1.626-.273-.554-.595-1.082-.962-1.579-1.284-1.747-2.974-3.155-4.924-4.102-.588-.281-1.197-.516-1.822-.7-.22-.067-.445-.114-.673-.14z" transform="translate(-1318 -1326) translate(1180 803) translate(138 523) translate(2.803 44.848)"/>
                        <path fill="#FAFAFA" d="M24.176 92.173c0 .065-.121.103-.247.084-.127-.019-.225-.089-.21-.154.013-.066.116-.108.247-.084.13.023.224.089.21.154zM25.97 92.5c0 .065-.224.08-.467.037-.243-.042-.44-.14-.425-.205.014-.066.22-.084.467-.038.248.047.44.131.425.206zM27.75 92.878c0 .066-.229.07-.467 0-.238-.07-.43-.154-.416-.22.014-.065.224-.07.467 0 .243.07.43.155.416.22zM29.511 93.332c0 .065-.229.065-.467 0-.238-.066-.425-.169-.406-.234.018-.065.229-.065.467 0 .238.065.425.168.406.234zM31.254 93.855c0 .065-.23.056-.467 0-.239-.056-.42-.187-.402-.252.019-.066.233-.057.467 0 .234.056.449.186.402.252zM32.978 94.443c0 .066-.234.047-.468-.037-.233-.084-.41-.2-.392-.266.019-.066.234-.047.467.037.234.084.416.192.393.266zM34.678 95.097c-.028.066-.238.038-.467-.05-.229-.09-.406-.22-.378-.286.028-.065.233-.037.467.056.233.094.402.22.378.28zM36.35 95.817c-.027.06-.238.028-.467-.07-.228-.098-.392-.234-.369-.294.024-.061.239-.033.468.07.228.102.397.247.369.294zM37.99 96.602c-.028.06-.233 0-.467-.089-.233-.089-.383-.252-.355-.313.028-.06.238 0 .467.093.23.094.388.248.355.309zM39.607 97.447c-.033.061-.238 0-.467-.107-.23-.108-.374-.266-.341-.322.032-.057.233 0 .467.107.233.107.369.262.34.322zM41.181 98.354c-.033.056-.238 0-.467-.126-.229-.127-.364-.276-.332-.337.033-.06.239 0 .467.126.23.126.37.28.332.337zM42.354 99.082c-.038.057-.154.047-.267 0-.112-.046-.163-.172-.13-.228.032-.057.154-.047.261.023.108.07.168.163.136.205zM41.54 104.226c0 .065-.12.107-.247.089-.126-.019-.224-.084-.215-.15.01-.065.122-.107.248-.088.126.018.224.102.215.149zM43.354 104.436c0 .066-.215.098-.468.07-.252-.028-.467-.102-.439-.168.028-.065.215-.098.467-.075.253.024.444.103.44.173zM45.17 104.59c0 .07-.214.108-.466.09-.253-.02-.468-.094-.444-.16.023-.065.215-.107.467-.084.252.024.449.089.444.154zM46.988 104.698c0 .07-.205.112-.467.098-.262-.014-.467-.075-.467-.145 0-.07.215-.112.467-.098.252.014.472.093.467.145zM48.815 104.754c0 .07-.21.117-.467.112-.257-.005-.468-.065-.468-.13 0-.066.21-.118.468-.113.257.005.467.066.467.13zM50.637 104.763c0 .066-.206.122-.467.122-.262 0-.468-.052-.468-.122s.201-.121.468-.121c.266 0 .467.051.467.121zM52.459 104.717c0 .065-.201.13-.467.135-.267.005-.468-.037-.468-.107s.201-.127.468-.136c.266-.01.467.037.467.108zM54.28 104.646c0 .066-.196.131-.466.15-.271.019-.468-.028-.468-.098s.197-.131.468-.145c.27-.014.462.005.467.093zM56.098 104.478c0 .066-.192.14-.467.16-.276.018-.467 0-.467-.08s.191-.14.467-.164c.275-.023.462.019.467.084zM57.93 104.282c0 .065-.188.145-.44.173-.252.028-.467 0-.467-.07s.192-.145.44-.173c.247-.028.438.005.466.07zM59.719 104.034c0 .07-.187.15-.435.187-.248.038-.467 0-.467-.056s.182-.15.434-.182c.253-.033.458-.014.468.051zM61.078 103.82c0 .065-.084.135-.21.158-.126.024-.238 0-.252-.084-.014-.084.084-.135.21-.159.126-.023.243.014.252.085zM83.096 101.554c0 .065-.075.145-.201.173-.126.028-.238 0-.257-.07-.019-.07.075-.14.2-.169.127-.028.244 0 .258.066zM84.936 101.222c0 .066-.186.154-.439.196-.252.042-.467 0-.467-.046 0-.047.182-.155.44-.197.256-.042.457-.023.466.047zM86.8 101.012c0 .065-.2.14-.467.163-.266.024-.467 0-.467-.074 0-.075.196-.14.467-.169.271-.028.463.01.468.08zM88.67 100.91c0 .064-.206.125-.468.135-.262.009-.467-.042-.467-.108 0-.065.205-.126.467-.135.262-.01.467.056.467.107zM90.543 100.96c0 .07-.215.117-.468.108-.252-.01-.467-.075-.467-.14 0-.066.21-.117.467-.103.257.014.472.084.468.135zM92.411 101.124c0 .065-.224.098-.467.075-.243-.024-.467-.103-.467-.173 0-.07.22-.098.467-.07.248.028.477.103.467.168zM93.799 101.33c0 .065-.122.102-.248.079-.126-.023-.224-.089-.215-.154.01-.066.126-.103.253-.084.126.018.224.093.21.159zM94.71 107.996c0 .065-.131.089-.257.051-.126-.037-.215-.112-.192-.177.024-.065.136-.089.257-.056.122.033.21.103.192.182zM96.705 108.29c0 .07-.234.103-.514.075-.28-.028-.5-.103-.49-.173.008-.07.242-.098.513-.07.271.028.49.103.49.168zM98.723 108.183c0 .065-.21.145-.467.173-.257.028-.514 0-.519-.07-.005-.07.22-.145.49-.173.271-.028.482.005.496.07zM100.157 107.847c0 .06-.065.144-.192.182-.126.037-.243 0-.257-.056-.014-.056.07-.145.192-.178.121-.032.238-.014.257.052zM81.905 80.704c0 .07-.09.135-.215.154-.126.019-.239-.023-.248-.089-.01-.065.089-.135.215-.154.126-.019.238.024.248.089zM83.694 80.545c0 .065-.192.136-.44.154-.247.019-.467-.023-.467-.089 0-.065.192-.135.44-.154.247-.018.462.019.467.09zM85.492 80.508c0 .065-.205.121-.467.121-.261 0-.467-.051-.467-.121s.201-.122.467-.122c.267 0 .467.052.467.122zM87.286 80.592c0 .07-.21.112-.467.093-.257-.018-.467-.084-.439-.15.028-.065.206-.107.467-.093.262.014.444.084.44.15zM89.071 80.82c0 .066-.22.094-.467.057-.248-.038-.435-.112-.43-.178.005-.065.215-.093.467-.06.252.032.44.098.43.182zM90.837 81.138c0 .066-.224.08-.467.028-.243-.051-.425-.144-.416-.21.01-.065.22-.08.467-.028.248.052.43.145.416.21zM92.159 81.475c0 .065-.136.089-.257.056-.121-.033-.21-.112-.196-.178.014-.065.135-.093.257-.056.121.038.215.112.196.178zM81.9 64.661c0 .07-.112.117-.238.112-.127-.004-.23-.07-.23-.135 0-.066.113-.117.244-.108.13.01.229.066.224.131zM83.913 64.83c0 .07-.238.102-.514.074-.275-.028-.495-.103-.49-.168.005-.065.234-.103.514-.075.28.028.5.103.49.168zM85.913 65.105c0 .065-.243.089-.514.047-.271-.042-.49-.131-.467-.196.023-.066.238-.09.514-.047.275.042.48.13.467.196zM87.898 65.483c0 .066-.247.075-.518 0-.271-.074-.467-.154-.467-.22 0-.065.247-.074.518 0 .271.076.481.141.467.22zM89.337 65.824c0 .066-.13.094-.257.061-.126-.032-.215-.107-.196-.173.019-.065.13-.093.257-.065.126.028.21.112.196.177zM44.755 78.602c0 .065-.07.144-.191.177-.122.033-.243 0-.257-.06-.014-.061.065-.145.191-.178s.243-.005.257.06zM46.586 78.172c0 .065-.177.163-.43.22-.252.055-.467.05-.467 0 0-.052.178-.164.43-.225.252-.06.453-.06.467.005zM48.436 77.826c0 .066-.187.154-.467.201-.28.047-.467.028-.467-.037 0-.066.182-.16.44-.206.256-.047.48-.028.494.042zM50.296 77.55c0 .066-.192.145-.467.178-.276.033-.468 0-.468-.056s.192-.15.468-.182c.275-.033.457 0 .467.06zM52.17 77.373c0 .065-.202.14-.468.163-.266.024-.467 0-.467-.079 0-.08.2-.14.467-.163.266-.024.462.014.467.079zM54.047 77.27c0 .07-.205.131-.467.145-.262.014-.467-.037-.467-.103 0-.065.2-.13.467-.14.266-.01.462.033.467.098zM55.925 77.252c0 .065-.21.121-.467.121s-.467-.056-.467-.121c0-.066.21-.122.467-.122s.467.056.467.122zM57.336 77.294c0 .065-.112.116-.238.112-.126-.005-.234-.066-.23-.131.005-.066.108-.122.24-.112.13.01.228.06.228.13zM29.899 71.304c0 .066-.08.14-.206.164-.126.023-.242 0-.252-.075-.01-.075.075-.14.206-.163.13-.024.252.009.252.074zM31.656 71.057c0 .065-.187.145-.426.173-.238.028-.443 0-.467-.07-.023-.07.182-.145.425-.173.243-.028.458.023.468.07zM33.417 70.954c0 .065-.196.126-.44.136-.242.009-.438-.038-.467-.103-.028-.066.192-.131.435-.14.243-.01.467.037.472.107zM35.178 71.01c0 .066-.206.112-.467.103-.262-.01-.44-.075-.435-.145.005-.07.201-.112.468-.098.266.014.439.06.434.14zM36.935 71.183c0 .065-.215.093-.468.065-.252-.028-.43-.112-.425-.177.005-.066.21-.098.467-.066.257.033.435.113.426.178zM38.668 71.51c0 .065-.22.08-.467.028-.248-.051-.42-.145-.407-.21.014-.066.22-.08.467-.028.248.051.42.145.407.21zM40.368 71.982c0 .065-.224.06-.467 0-.243-.06-.406-.178-.388-.243.02-.066.225-.06.468 0 .242.06.406.177.387.243zM41.639 72.435c-.028.065-.145.08-.262.033-.116-.047-.2-.136-.177-.197.023-.06.14-.079.261-.032.122.046.201.135.178.196zM45.68 62.078c0 .065-.098.126-.229.13-.13.005-.233-.041-.238-.112-.005-.07.098-.126.229-.13.13-.005.233.042.238.112zM47.353 61.998c0 .066-.178.131-.412.14-.233.01-.42-.032-.425-.102-.004-.07.182-.131.416-.14.234-.01.42.032.42.102zM49.053 61.919c0 .065-.182.126-.411.14-.229.014-.425-.037-.425-.103 0-.065.182-.13.41-.14.23-.01.398.033.426.103zM50.702 61.835c0 .07-.177.13-.411.145-.234.014-.42-.038-.425-.103-.005-.066.182-.13.416-.14.233-.01.42.032.42.098zM52.38 61.755c0 .07-.183.131-.412.145-.229.014-.425-.037-.425-.103 0-.065.182-.13.411-.14.23-.009.42.033.425.098zM53.683 61.695c0 .07-.098.126-.23.135-.13.01-.233-.047-.237-.112-.005-.065.098-.126.228-.13.131-.005.234.041.239.107zM20.443 131.023c.047.051 0 .163-.079.252-.08.089-.206.126-.252.08-.047-.047 0-.164.08-.253.079-.088.205-.126.251-.079zM21.747 129.78c.047.052-.06.23-.243.397-.182.169-.364.271-.411.22-.047-.051.06-.224.243-.397.182-.173.369-.271.41-.22zM23.092 128.575c.042.051-.07.224-.257.388-.187.163-.373.261-.42.21-.047-.051.07-.224.257-.392.187-.169.374-.257.42-.206zM24.466 127.407c.046.051-.075.224-.267.383-.191.159-.383.248-.425.196-.042-.051.08-.224.271-.383.192-.159.379-.247.42-.196zM25.877 126.281c.042.052-.084.22-.28.374-.197.154-.388.238-.43.187-.043-.052.084-.224.28-.379.196-.154.388-.233.43-.182zM27.32 125.202c.038.051-.093.22-.29.364-.196.145-.397.225-.434.173-.037-.051.089-.22.29-.369.2-.15.392-.229.434-.168zM28.792 124.156c.037.05-.098.214-.3.355-.2.14-.401.215-.443.158-.042-.056.098-.214.304-.36.205-.144.401-.21.439-.153zM30.291 123.151c.038.056-.102.215-.308.35-.205.136-.406.201-.467.145-.06-.056.103-.21.308-.345.206-.136.43-.206.467-.15zM31.824 122.198c.032.056-.112.21-.323.336-.21.127-.41.192-.467.136-.056-.056.108-.21.323-.341.214-.13.41-.192.467-.13zM33.38 121.282c.032.061-.117.21-.332.332-.215.122-.416.178-.467.122-.052-.056.112-.206.327-.332.214-.126.439-.178.471-.122zM34.963 120.418c.028.06-.121.201-.34.318-.22.117-.421.168-.468.107-.047-.06.117-.2.336-.317.22-.117.44-.169.472-.108zM36.57 119.596c.028.06-.126.2-.35.313-.224.112-.425.154-.467.093-.042-.06.126-.2.35-.313.224-.112.434-.154.467-.093zM38.196 118.825c.028.06-.13.192-.355.3-.224.107-.43.14-.467.079-.038-.061.135-.197.36-.3.224-.102.439-.144.462-.079zM39.448 118.27c.028.06-.047.153-.164.205-.116.051-.238.042-.261 0-.024-.042.047-.154.163-.206.117-.051.239-.075.262 0zM56.944 121.801c-.061-.028-.066-.145 0-.262.065-.116.154-.186.21-.158.056.028.065.15 0 .266-.066.117-.16.182-.21.154zM56.224 123.44c-.06-.023-.033-.228.06-.466.094-.239.225-.393.286-.37.06.024.037.234-.06.468-.099.233-.22.392-.286.369zM55.593 125.118c-.065 0-.051-.224.028-.467.08-.243.201-.407.267-.383.065.023.046.229-.033.467-.08.238-.182.406-.262.383zM55.098 126.832c-.065 0-.065-.224 0-.467.066-.243.173-.416.238-.397.066.019.061.23 0 .467-.06.239-.172.416-.238.397zM54.687 128.575c-.065 0-.075-.22-.023-.467.051-.248.15-.425.215-.411.065.014.074.224.023.467-.051.243-.15.425-.215.411zM54.383 130.34c-.065 0-.088-.214-.05-.466.036-.253.125-.435.19-.425.066.009.09.22.052.467-.037.247-.126.425-.192.425zM54.192 132.116c-.065 0-.103-.21-.08-.467.024-.257.099-.44.164-.434.065.004.103.214.08.467-.024.252-.103.439-.164.434zM54.098 133.9c-.07 0-.116-.2-.107-.466.01-.267.07-.468.14-.468s.112.206.103.468c-.01.261-.07.471-.136.467zM54.117 135.69c-.065 0-.126-.196-.135-.444-.01-.247.046-.467.112-.467.065 0 .126.196.135.444.01.247-.037.467-.112.467zM54.192 137.05c-.065 0-.13-.094-.14-.225-.01-.13.037-.238.103-.243.065-.004.13.098.14.225.009.126-.024.238-.103.242zM103.525 123.259c-.028-.061.042-.155.164-.21.121-.057.233-.047.261 0 .028.046-.046.154-.158.21-.113.056-.234.074-.267 0zM101.937 124.179c-.038-.056.107-.21.322-.346.215-.135.425-.2.467-.14.042.06-.112.215-.327.346-.215.13-.425.196-.462.14zM100.489 125.31c-.047-.047.074-.22.27-.388.197-.168.393-.253.435-.201.042.051-.084.229-.276.388-.191.158-.387.252-.43.2zM99.204 126.632c-.051-.047.047-.234.22-.426.172-.191.35-.303.401-.257.052.047-.051.234-.22.42-.168.188-.35.305-.401.263zM98.106 128.113c-.056-.038 0-.239.159-.468.159-.229.308-.355.36-.313.051.042 0 .243-.16.467-.158.225-.289.346-.359.314zM97.246 129.729c-.06-.028 0-.234.094-.467.093-.234.257-.388.313-.355.056.032 0 .238-.094.467-.093.229-.247.383-.313.355zM96.611 131.457c-.06 0-.051-.233.028-.467.08-.233.201-.42.262-.397.06.024.051.234-.028.467-.08.234-.196.411-.262.397zM96.237 133.251c-.065 0-.084-.224-.037-.467.047-.243.14-.444.206-.43.065.014.079.23.032.468-.046.238-.154.439-.2.43zM96.074 135.083c-.07 0-.112-.21-.103-.467.01-.257.075-.468.145-.468.07 0 .112.215.098.468-.014.252-.075.467-.14.467zM96.13 136.466c-.065 0-.126-.094-.136-.225-.009-.13.033-.238.103-.243.07-.004.126.098.136.225.009.126-.033.238-.103.243zM83.67 129.906c0 .066-.126.099-.252.075-.126-.023-.22-.103-.205-.168.014-.065.13-.098.257-.07.126.028.214.098.2.163zM85.586 130.173c0 .07-.224.098-.467.07-.243-.028-.467-.108-.467-.178 0-.07.228-.093.467-.065.238.028.472.107.467.173zM87.52 130.238c0 .066-.215.122-.467.117-.252-.005-.467-.056-.467-.122 0-.065.22-.121.467-.121.247 0 .467.06.467.126zM89.45 130.098c0 .07-.202.145-.468.168-.266.024-.467 0-.49-.07-.024-.07.205-.145.467-.168.261-.023.481.005.49.07zM90.865 129.874c0 .065-.08.14-.206.163-.126.024-.243 0-.252-.075-.01-.074.08-.14.206-.163.126-.023.238 0 .252.075z" transform="translate(-1318 -1326) translate(1180 803) translate(138 523) translate(2.803 44.848)"/>
                        <path fill="#263238" d="M61.26 121.348c-.102.004-.203-.004-.303-.024l-.87-.107-3.185-.467-10.503-1.56-7.624-1.154c-.974.142-1.892.547-2.653 1.172-.592.475-1.085 1.063-1.449 1.729-.306.587-.523 1.217-.644 1.868v-.135c.008-.13.024-.26.047-.388.09-.486.247-.958.467-1.401.358-.691.85-1.304 1.448-1.804.78-.657 1.725-1.087 2.733-1.242h.051l7.643 1.144 10.488 1.626 3.177.523.86.154c.108.01.214.032.317.066zM59.504 137.218c-.072-.013-.141-.037-.206-.07-.198-.072-.39-.158-.575-.257-.683-.365-1.292-.853-1.798-1.44-.751-.874-1.31-1.898-1.64-3.003-.41-1.35-.518-2.775-.318-4.172.227-1.4.82-2.716 1.72-3.812.721-.897 1.62-1.637 2.64-2.172.68-.367 1.412-.625 2.171-.767.21-.033.423-.054.636-.06.073-.01.147-.01.22 0-1.026.173-2.017.51-2.934 1-.984.545-1.849 1.28-2.547 2.162-.861 1.073-1.43 2.351-1.649 3.71-.194 1.361-.095 2.749.29 4.069.313 1.08.842 2.087 1.556 2.957.483.584 1.063 1.08 1.714 1.467.453.248.729.364.72.388z" transform="translate(-1318 -1326) translate(1180 803) translate(138 523) translate(2.803 44.848)"/>
                        <g fill="#000" opacity=".2">
                            <path d="M2.275 0.369L5.531 24.69 1.406 23.76 0.126 13.156z" transform="translate(-1318 -1326) translate(1180 803) translate(138 523) translate(2.803 44.848) translate(40.644 94.369)"/>
                        </g>
                        <g fill="#000" opacity=".3">
                            <path d="M10.936.378C8.978.021 6.971.021 5.013.378 3.317.76 1.873 1.864 1.06 3.401.29 4.83.052 6.485.388 8.073c.28 1.369.574 2.803 1.574 3.737 1.476 1.434 2.934 1.897 4.84 1.56l3.695-1.205.44-11.787z" transform="translate(-1318 -1326) translate(1180 803) translate(138 523) translate(2.803 44.848) translate(98.573 124.268)"/>
                        </g>
                        <path fill="#263238" d="M106.347 137.41c-.076.044-.158.079-.243.102-.24.088-.487.155-.738.2-.932.193-1.898.14-2.803-.153-.625-.203-1.203-.533-1.696-.967-.558-.503-1.016-1.107-1.35-1.78-.372-.737-.633-1.524-.776-2.336-.188-.871-.209-1.77-.06-2.649.192-.868.523-1.7.98-2.462.795-1.395 2.14-2.392 3.705-2.747.636-.137 1.284-.21 1.935-.22.937-.007 1.874.054 2.803.183l.752.107c.089.007.177.026.261.056-.088.01-.178.01-.266 0l-.757-.065c-.922-.09-1.849-.124-2.775-.103-.63.02-1.255.102-1.868.243-.706.17-1.372.475-1.963.897-1.313 1.042-2.213 2.517-2.536 4.162-.14.85-.122 1.718.056 2.56.135.793.384 1.563.738 2.285.319.652.756 1.24 1.29 1.733.47.416 1.02.734 1.616.935.874.295 1.808.372 2.719.224.626-.098.971-.23.976-.206zM92.341 116.61c.003.08-.006.158-.028.234-.028.183-.07.402-.117.668-.116.575-.266 1.402-.443 2.444-.472 2.687-.722 5.41-.748 8.138.001 1.5.093 3 .276 4.49.157 1.215.379 2.422.663 3.615.108.514.248.967.35 1.37.103.4.21.742.3 1.022.088.28.14.467.191.65.03.074.046.153.051.233-.04-.07-.072-.143-.098-.22l-.233-.63c-.103-.276-.225-.617-.341-1.019-.117-.401-.271-.85-.388-1.364-.31-1.193-.55-2.404-.72-3.625-.193-1.5-.292-3.01-.294-4.522.018-2.741.287-5.475.804-8.166.196-1.033.373-1.869.518-2.434.066-.267.122-.467.164-.659.02-.079.052-.154.093-.224z" transform="translate(-1318 -1326) translate(1180 803) translate(138 523) translate(2.803 44.848)"/>
                        <g fill="#000" opacity=".3">
                            <path d="M7.134.023C5.405.491 3.569 1.033 2.383 2.36-.1 5.414-.326 9.722 1.822 13.02c.543.886 1.271 1.643 2.135 2.22.887.446 1.897.587 2.873.4 2.653-.515 4.799-2.463 5.569-5.054.761-2.686.356-5.57-1.117-7.942-.7-1.05-2.943-2.247-4.148-2.63" transform="translate(-1318 -1326) translate(1180 803) translate(138 523) translate(2.803 44.848) translate(54.66 121.465)"/>
                        </g>
                        <path fill="#FFBE9D" d="M125.445 134.943c.121 0 .743.364.248 1.345-.496.981-4.172 4.27-5.298 3.177-1.126-1.093.528-2.495.528-2.495l4.522-2.027z" transform="translate(-1318 -1326) translate(1180 803) translate(138 523) translate(2.803 44.848)"/>
                        <path fill="#FFBE9D" d="M120.764 137.017s-4.508.663-6.237 1.36c-1.869.76-4.204.317-5.765-.701-.893-.567-1.729-1.22-2.494-1.949l-5.77.033c-1.732-1.947-2.225-4.702-1.275-7.129.292-.827.723-1.598 1.275-2.28.668-.752 1.738-1.378 3.602-1.738l6.886 1.336s10.605-.98 12.51-.13c0 0 2.402 1.36 3.15 1.934.28.215 1.177 2.9-.519 4.34 0 0 1.528 1.168.738 2.256l-.383.467s1.042 1.285.533 1.87c-.51.583-4.994 3.335-6.634 2.737-1.64-.598-.327-2.135.383-2.425" transform="translate(-1318 -1326) translate(1180 803) translate(138 523) translate(2.803 44.848)"/>
                        <path fill="#EB996E" d="M124.94 129.785c-.19.055-.376.125-.556.21-.355.145-.873.35-1.518.57-.327.112-.682.224-1.07.337-.387.112-.808.205-1.242.355-.474.142-.899.412-1.229.78-.37.415-.485.999-.299 1.523.114.257.316.466.57.588.239.114.497.18.761.197.483.02.965-.017 1.44-.108.797-.144 1.58-.364 2.335-.659.645-.243 1.154-.467 1.504-.63.186-.073.364-.162.533-.267-.191.054-.379.12-.56.201-.36.136-.874.346-1.524.57-.76.272-1.54.478-2.335.617-.463.081-.933.113-1.402.093-.239-.018-.473-.078-.691-.177-.208-.11-.372-.286-.467-.5-.156-.462-.053-.972.27-1.336.31-.341.705-.593 1.145-.729.42-.15.841-.248 1.229-.369.387-.121.743-.238 1.065-.36.65-.238 1.158-.467 1.504-.626.187-.077.367-.171.537-.28z" transform="translate(-1318 -1326) translate(1180 803) translate(138 523) translate(2.803 44.848)"/>
                        <path fill="#EB996E" d="M124.464 126.524c-.19.055-.374.125-.551.21-.355.145-.865.355-1.51.584-.644.23-1.4.467-2.284.71-.482.084-.938.279-1.331.57-.207.18-.341.43-.379.701-.034.275.011.554.131.804.247.481.684.839 1.205.985.469.139.963.168 1.444.084.789-.172 1.56-.413 2.308-.719l1.513-.57c.19-.062.374-.139.552-.229-.197.034-.389.087-.575.159l-1.537.514c-.743.283-1.507.508-2.284.673-.456.077-.923.047-1.364-.09-.47-.131-.865-.453-1.089-.887-.235-.425-.152-.955.2-1.29.37-.27.797-.455 1.248-.536.776-.211 1.54-.462 2.29-.753.64-.247 1.144-.467 1.49-.64.182-.077.357-.17.523-.28z" transform="translate(-1318 -1326) translate(1180 803) translate(138 523) translate(2.803 44.848)"/>
                        <path fill="#EB996E" d="M122.306 127.5c.088-.297.15-.602.186-.91.098-.295.169-.599.21-.907-.39.52-.535 1.183-.396 1.818z" transform="translate(-1318 -1326) translate(1180 803) translate(138 523) translate(2.803 44.848)"/>
                        <path fill="#FFBE9D" d="M106.347 127.972l3.999-1.64s11.086-5.456 11.282-5.18c.196.275.804.238.696 1.602-.107 1.364-6.568 4.26-6.764 4.737-.197.477.196 2.86-2.177 4.625-2.374 1.766-4.112 1.836-4.112 1.836" transform="translate(-1318 -1326) translate(1180 803) translate(138 523) translate(2.803 44.848)"/>
                        <path fill="#EB996E" d="M109.271 133.952h.094l.28-.033c.355-.06.703-.153 1.042-.275.537-.188 1.054-.425 1.546-.71.663-.366 1.278-.811 1.832-1.327.66-.653 1.12-1.481 1.326-2.387.103-.498.172-1.002.206-1.51.004-.058.017-.117.037-.172 0-.037.052-.07.103-.112.052-.042.21-.15.322-.22.225-.14.468-.27.701-.406.963-.537 1.986-1.084 3.013-1.705.528-.312 1.04-.65 1.533-1.014.257-.187.497-.394.72-.622.115-.119.216-.252.298-.397.042-.079.072-.164.089-.252v-.248c.027-.335-.04-.672-.196-.971-.095-.14-.217-.26-.36-.35-.06-.034-.114-.079-.159-.131l-.042-.038c-.024-.015-.051-.023-.08-.023h-.074l-.121.033c-.603.196-1.154.467-1.706.691-1.097.49-2.144.986-3.144 1.458-1.99.934-3.774 1.822-5.265 2.56-.378.182-.729.369-1.07.523l-.976.406-1.565.659-.986.425-.257.112-.084.047s.033 0 .094-.028l.261-.098 1-.388 1.58-.63.985-.398c.346-.15.696-.331 1.074-.509l5.284-2.523c1-.467 2.046-.957 3.144-1.443.547-.238 1.107-.495 1.682-.687l.103-.028h.037v-.047c-.126.09-.033.028-.056.052.056.068.124.125.2.168.124.074.23.175.31.294.135.268.192.57.163.87.01.143-.02.286-.084.415-.074.13-.165.25-.271.355-.214.22-.445.42-.692.603-.487.36-.992.695-1.513 1.004-1.028.621-2.047 1.168-3.004 1.71-.243.14-.467.276-.706.416-.117.072-.231.15-.34.233-.066.048-.119.11-.155.182-.022.069-.036.14-.042.21-.032.504-.098 1.005-.196 1.5-.19.884-.63 1.694-1.266 2.336-.542.512-1.142.958-1.79 1.327-.483.29-.991.537-1.518.738-.333.127-.675.228-1.023.304-.121.028-.215.042-.275.051h-.043zM121.628 134.218c-.148.024-.291.07-.425.136-.376.158-.727.37-1.042.63-.22.18-.42.382-.598.603-.223.258-.332.595-.303.935.084.385.379.69.761.79.388.096.797.075 1.173-.062 1.272-.41 2.504-.935 3.681-1.57.356-.194.7-.407 1.032-.64.128-.075.244-.168.346-.275-.134.062-.264.134-.388.215-.243.145-.602.35-1.055.584-1.184.595-2.411 1.098-3.672 1.504-.34.124-.708.147-1.06.066-.32-.074-.572-.322-.65-.64-.024-.301.07-.6.261-.832.165-.217.353-.416.561-.593.422-.34.885-.626 1.378-.85z" transform="translate(-1318 -1326) translate(1180 803) translate(138 523) translate(2.803 44.848)"/>
                        <path fill="#FFBE9D" d="M58.116 123.189l7.115.149s10.67-3.859 12.866-3.49c1.976.332 9.213 5.14 10.628 6.073.157.107.277.258.346.435.286.783-.095 1.652-.864 1.971l-.15.066.066.215c.083.28.12.572.107.864-.026.458-.35.845-.796.953-.446.108-.91-.09-1.143-.486l.271.467c.112.198.165.423.154.65l-.023.439c-.03.488-.353.908-.817 1.06-.443.147-.93.019-1.243-.327-.935-1.009-2.901-3.027-4.242-3.27-1.454-.176-2.918-.25-4.382-.22-.606 0-1.151.37-1.374.935.795.056 6.34 2.948 8.302 3.98.615.309 1.04.898 1.14 1.58.07.616-.238 1.26-1.453.976-2.607-.608-7.297-2.766-7.297-2.766s-2.42-.691-3.99.416c-2.205 1.555-3.214 2.125-5.11 1.495-1.145-.384-2.242-.897-3.27-1.528l-6.457.626s-3.967-6.377 1.616-11.263z" transform="translate(-1318 -1326) translate(1180 803) translate(138 523) translate(2.803 44.848)"/>
                        <path fill="#EB996E" d="M74.593 125.137c0 .042.757-.197 2.004-.276 3.298-.221 6.503 1.147 8.624 3.681.426.525.822 1.072 1.187 1.64-.057-.175-.137-.341-.238-.495-.244-.435-.524-.85-.836-1.238-2.103-2.636-5.388-4.04-8.746-3.738-.498.043-.992.125-1.476.248-.18.04-.353.1-.519.178z" transform="translate(-1318 -1326) translate(1180 803) translate(138 523) translate(2.803 44.848)"/>
                        <path fill="#EB996E" d="M75.724 122.548c.678-.206 1.38-.328 2.088-.364 1.723-.012 3.414.464 4.877 1.374 1.442.927 2.757 2.04 3.91 3.307l1.07 1.14c.126.147.263.283.412.406-.104-.165-.22-.321-.35-.467-.24-.285-.585-.691-1.029-1.182-1.132-1.312-2.45-2.453-3.91-3.387-1.487-.926-3.214-1.394-4.966-1.345-.526.027-1.045.123-1.546.285-.137.043-.271.095-.402.154-.112.047-.159.07-.154.08z" transform="translate(-1318 -1326) translate(1180 803) translate(138 523) translate(2.803 44.848)"/>
                    </g>
                    <g transform="translate(-1318 -1326) translate(1180 803) translate(138 523) translate(166.313 107.45)">
                        <path fill="#455A64" d="M4.05 76.836c1.817-2.767 4.86-4.485 8.167-4.611 5.573-.192 8.362 4.61 8.362 4.61H4.05z"/>
                        <path fill="#263238" d="M14.735 76.696c-.038 0-.047-.327-.164-.832-.292-1.332-1.082-2.502-2.21-3.27-.246-.14-.483-.297-.71-.467.289.04.564.147.804.313 1.23.722 2.07 1.958 2.289 3.368.068.292.065.597-.01.888z"/>
                        <path fill="#455A64" d="M110.276 76.836v-.038c-.02-1.167-.973-2.102-2.14-2.102H60.662c-1.181 0-2.14.958-2.14 2.14h51.754z"/>
                        <path fill="#455A64" d="M1.056.318h82.843c1.525 0 2.761 1.236 2.761 2.76V55.71c0 1.525-1.236 2.761-2.76 2.761H1.055c-.54 0-.977-.437-.977-.976v-56.2c0-.54.438-.977.977-.977z" transform="rotate(180 43.37 29.394)"/>
                        <path fill="#455A64" d="M32.814 51.735H49.03V76.836H32.814z" transform="rotate(180 40.922 64.285)"/>
                        <rect width="4.27" height="58.149" x="82.39" y=".322" fill="#263238" rx="2.09" transform="rotate(180 84.525 29.397)"/>
                        <path fill="#263238" d="M32.749 47.217c.065 0 .135 6.63.154 14.81.019 8.18 0 14.809-.089 14.809s-.135-6.63-.154-14.81c-.019-8.18.042-14.809.089-14.809zM49.198 46.834c.065 0 .084 6.643.037 14.842-.046 8.199-.14 14.842-.205 14.842-.066 0-.084-6.648-.038-14.847.047-8.199.136-14.837.206-14.837zM76.733 53.412c-.003-.034-.003-.069 0-.103v-.294-1.112c0-.981 0-2.373-.042-4.125l.08.08-18.375.041.122-.121v5.624l-.117-.116 13.104.051 3.854.033H76.714c-.115.006-.23.006-.345 0h-1.014l-3.831.037-13.184.051h-.121v-5.671l.121-.121 18.374.046h.075v.075c0 1.77-.033 3.181-.042 4.172v1.093c.001.12-.003.24-.014.36zM46.979 44.101c0 .065-3.009.121-6.718.121-3.71 0-6.723-.056-6.723-.121s3.009-.121 6.723-.121 6.718.056 6.718.121z"/>
                    </g>
                    <g>
                        <path fill="#455A64" d="M89.842 48.805H24.699l8.41-45.722C33.403 1.46 34.817.28 36.466.28h58.537c1.019 0 1.984.455 2.633 1.24.65.786.914 1.82.721 2.82l-8.516 44.465z" transform="translate(-1318 -1326) translate(1180 803) translate(138 523) translate(62.134 135.48)"/>
                        <path fill="#455A64" d="M24.7 48.805H0l.098-.074c2.204-1.653 4.866-2.585 7.62-2.668l17.668-.518-.687 3.26z" transform="translate(-1318 -1326) translate(1180 803) translate(138 523) translate(62.134 135.48)"/>
                        <path fill="#263238" d="M40.345.35s-.182-.037-.528-.037c-.504.004-1 .127-1.448.36-.709.361-1.307.907-1.733 1.579-.538.908-.899 1.91-1.066 2.952-.21 1.159-.401 2.444-.63 3.812-.23 1.37-.467 2.831-.776 4.368-.565 3.074-1.238 6.443-1.971 9.975-1.472 7.059-2.831 13.445-3.738 18.084-.467 2.336-.794 4.204-1.027 5.498-.112.636-.206 1.136-.271 1.495l-.075.388c-.006.047-.019.092-.037.136-.006-.045-.006-.09 0-.136 0-.103.018-.233.056-.392.051-.365.13-.865.224-1.505.205-1.308.528-3.195.934-5.517.85-4.648 2.182-11.044 3.654-18.103.733-3.527 1.401-6.895 1.99-9.965.294-1.532.55-2.994.799-4.358.247-1.364.434-2.644.658-3.812.179-1.06.558-2.077 1.117-2.995.45-.685 1.076-1.235 1.812-1.593.462-.227.972-.337 1.486-.322.194-.002.386.028.57.088z" transform="translate(-1318 -1326) translate(1180 803) translate(138 523) translate(62.134 135.48)"/>
                        <path fill="#F5F5F5" d="M67.857 23.517c0 1.74-1.41 3.15-3.149 3.15s-3.149-1.41-3.149-3.15c0-1.739 1.41-3.148 3.149-3.148s3.149 1.41 3.149 3.148z" transform="translate(-1318 -1326) translate(1180 803) translate(138 523) translate(62.134 135.48)"/>
                    </g>
                    <g fill="#263238">
                        <path d="M321.087.735c0 .07-71.809.13-160.37.13C72.154.865.326.805.326.735s71.795-.13 160.39-.13c88.594 0 160.37.06 160.37.13z" transform="translate(-1318 -1326) translate(1180 803) translate(138 523) translate(0 183.598)"/>
                    </g>
                    <g>
                        <path fill="#ED2012" d="M6.872 22.92c-3.35-1.944-5.139-6.462-5.279-10.162-.14-3.7 1.402-7.558 4.443-9.68C9.23.847 13.782.884 17.066 2.986c3.297 2.224 5.209 5.996 5.055 9.97-.222 3.956-2.208 7.603-5.41 9.936" transform="translate(-1318 -1326) translate(1180 803) translate(138 523) translate(140.152 149.495)"/>
                        <path fill="#FFF" d="M12.221 23.274c-.053-.28-.079-.565-.075-.85 0-.602-.042-1.378-.065-2.308-.051-1.948-.126-4.634-.257-7.605-.13-2.971-.294-5.658-.416-7.601-.051-.934-.098-1.7-.135-2.303-.025-.283-.025-.568 0-.85.073.275.119.556.135.84.066.538.15 1.323.239 2.294.177 1.944.373 4.63.504 7.606.13 2.976.173 5.667.164 7.62 0 .976 0 1.765-.033 2.307.009.285-.012.57-.06.85z" transform="translate(-1318 -1326) translate(1180 803) translate(138 523) translate(140.152 149.495)"/>
                        <path fill="#263238" d="M2.588 11.918c0 .088-.542.116-1.196.06-.654-.056-1.177-.168-1.168-.252.01-.084.542-.112 1.196-.06.654.05 1.173.167 1.168.252zM2.77 8.6c-.037.08-.495-.046-1.032-.284-.537-.239-.934-.49-.902-.57.033-.08.495.046 1.033.285.537.238.934.49.901.57zM4.476 6.139c-.043.07-.561-.173-1.103-.622-.542-.448-.874-.91-.813-.967.06-.056.467.295 1.014.724.546.43.948.8.902.865zM6.195 3.812c-.08.037-.327-.35-.556-.864-.23-.514-.346-.963-.267-.995.08-.033.327.35.556.864.23.514.346.962.267.995zM8.876 2.163c-.08.037-.345-.378-.523-.934C8.176.673 8.161.164 8.246.149c.084-.014.233.435.406.986.173.551.318.99.224 1.028zM13.384.304c.085.028.033.383-.112.79-.144.406-.322.71-.406.681-.084-.028-.033-.383.112-.79.145-.406.327-.71.406-.681zM16.72 1.733c.06.066-.154.36-.467.659-.313.299-.63.49-.692.425-.06-.065.155-.36.468-.654.313-.294.635-.49.691-.43zM19.659 3.63c.046.075-.215.336-.584.584-.37.247-.71.397-.757.327-.047-.07.21-.336.58-.584.368-.248.723-.397.76-.327zM21.742 6.456c.033.084-.378.332-.934.566-.556.233-1.005.355-1.042.27-.037-.084.378-.331.934-.56.556-.229 1.01-.355 1.042-.276zM22.564 9.54c0 .088-.41.21-.934.275-.523.066-.962.047-.976-.037-.014-.084.41-.21.934-.276.523-.065.962-.046.976.038zM22.99 13.338c-.033.08-.468-.038-.996-.262-.527-.224-.906-.467-.868-.551.037-.084.467.037.995.261.527.225.901.472.869.552zM22.616 16.594c-.028.08-.594-.056-1.182-.444-.589-.388-.935-.845-.878-.902.056-.056.49.28 1.05.64.561.36 1.038.622 1.01.706zM20.92 19.56c-.051.066-.5-.196-.934-.663-.435-.467-.66-.934-.589-.976.07-.042.406.322.822.761.416.44.752.808.7.878zM4.817 19.906c.037.08-.43.402-1.052.724-.62.323-1.158.524-1.2.467-.042-.056.434-.401 1.056-.724.62-.322 1.153-.542 1.196-.467zM3.345 17.225c.037.079-.341.327-.841.556-.5.228-.934.345-.976.27-.042-.074.34-.331.845-.555.505-.225.935-.35.972-.271zM2.266 14.851c0 .084-.467.22-1.042.304-.575.084-1.07.084-1.08 0-.009-.084.468-.224 1.038-.304.57-.079 1.07-.088 1.084 0zM5.812 13.548c.023.08-.43.29-1.033.36-.602.07-1.098-.038-1.088-.122.009-.084.467-.126 1.05-.191.585-.066 1.043-.14 1.07-.047zM8.755 10.61c.028.079-.332.261-.822.312-.491.052-.874-.06-.865-.144.01-.084.383-.126.837-.169.453-.042.826-.084.85 0zM9.343 8.26c-.028.084-.42.023-.873-.136s-.799-.35-.771-.43c.028-.08.42-.023.874.136.453.159.77.35.77.43zM10.4 5.886c-.061.061-.328-.116-.52-.467-.19-.35-.21-.654-.13-.677.08-.024.229.224.402.518.172.295.313.566.247.626zM9.096 15.608c0 .084-.318.238-.752.346-.208.056-.421.087-.636.093l-.065-.182h.2c.015 0-.027.089-.12.159l-.061-.182c.193-.094.397-.165.607-.21.434-.09.808-.108.827-.024zM9.703 19.77c.033.085-.397.328-.962.547-.565.22-1.047.337-1.08.257-.032-.08.402-.327.963-.546.56-.22 1.046-.337 1.08-.257zM6.377 17.92c.028.085-.262.258-.645.388-.383.131-.715.169-.743.085-.028-.085.262-.253.645-.384.383-.13.715-.168.743-.088zM6.63 9.45c0 .08-.52.034-1.099-.172s-1-.467-.962-.56c.037-.094.504.065 1.065.261.56.196 1.019.364.995.472zM14.683 8.526c.047.075-.233.346-.63.607-.398.262-.753.411-.8.341-.046-.07.234-.345.627-.607.392-.262.756-.411.803-.341zM15.122 12.707c0 .084-.28.22-.663.3-.383.078-.705.074-.724 0-.019-.076.28-.22.663-.3.383-.08.706-.093.724 0zM15.632 17.407c-.038.08-.468-.038-.935-.266-.467-.23-.86-.468-.822-.552.037-.084.467.038.934.267.468.228.86.476.823.55zM14.552 21.985c-.065.056-.34-.173-.616-.504-.276-.332-.444-.65-.379-.706.066-.056.346.173.622.505.275.331.443.649.373.705zM14.333 5.447c.056.07-.131.3-.444.467-.313.169-.607.164-.63.084-.024-.079.205-.224.49-.364.285-.14.532-.257.584-.187zM18.28 9.666c.028.08-.336.28-.836.35-.5.07-.906-.023-.901-.107.004-.084.392-.14.86-.206.466-.065.85-.121.877-.037zM17.496 5.882c.037.074-.327.331-.841.5-.514.168-.963.163-.972.079-.01-.084.388-.224.874-.383.485-.159.897-.276.939-.196zM19.154 15.529c0 .084-.621.14-1.369 0-.747-.14-1.308-.402-1.28-.467.028-.066.617.046 1.336.172.72.127 1.313.206 1.313.295zM17.673 21.023c-.051.065-.504-.201-.962-.659-.458-.458-.724-.934-.654-.967.07-.033.434.304.878.743s.818.817.738.883z" transform="translate(-1318 -1326) translate(1180 803) translate(138 523) translate(140.152 149.495)"/>
                        <path fill="#FFF" d="M11.212 1.402c-1.004.607-1.929 1.339-2.752 2.177-1.914 2.1-3.115 4.752-3.429 7.577-.144 1.55-.075 3.113.206 4.644.224 1.26.514 2.507.869 3.737.304 1.051.58 1.869.766 2.471.113.305.202.617.266.935-.156-.278-.284-.57-.383-.874-.22-.57-.528-1.401-.86-2.448-.385-1.226-.697-2.474-.934-3.737-.303-1.558-.381-3.152-.233-4.733.314-2.89 1.574-5.594 3.583-7.694.61-.624 1.3-1.164 2.05-1.607.205-.12.416-.23.632-.327.066-.052.14-.093.22-.121z" transform="translate(-1318 -1326) translate(1180 803) translate(138 523) translate(140.152 149.495)"/>
                        <path fill="#FFF" d="M15.51 23.12c.526-1.099.994-2.224 1.402-3.373.942-2.787 1.23-5.754.84-8.67-.215-1.6-.667-3.159-1.34-4.625-.562-1.188-1.335-2.265-2.28-3.177-.666-.583-1.42-1.056-2.233-1.402-.58-.243-.934-.299-.934-.327.085-.014.171-.014.256 0 .242.043.48.107.71.192.853.312 1.644.772 2.336 1.36.992.911 1.804 2.002 2.392 3.213.707 1.489 1.18 3.077 1.402 4.71.407 2.961.086 5.977-.934 8.787-.178.542-.407 1.005-.575 1.425-.168.42-.37.757-.523 1.037-.15.297-.324.581-.519.85z" transform="translate(-1318 -1326) translate(1180 803) translate(138 523) translate(140.152 149.495)"/>
                        <path fill="#263238" d="M3.345 22.378L20.654 22.378 20.761 25.844 3.345 25.844z" transform="translate(-1318 -1326) translate(1180 803) translate(138 523) translate(140.152 149.495)"/>
                        <path fill="#263238" d="M4.817 24.111L5.812 34.688 18.467 34.688 19.481 24.228z" transform="translate(-1318 -1326) translate(1180 803) translate(138 523) translate(140.152 149.495)"/>
                        <path fill="#455A64" d="M20.761 25.886c0 .084-3.896.154-8.703.154-4.807 0-8.708-.07-8.708-.154 0-.084 3.896-.159 8.708-.159s8.703.07 8.703.159zM19.005 29.105c-.093.237-.219.46-.374.663-.388.576-.837 1.107-1.341 1.584l-.08.075-.079-.08c-1.039-1.09-2.174-2.085-3.391-2.971h.191l-1.504 1.322-1.78 1.546-.098.09-.098-.085c-1.08-.906-2.056-1.733-2.892-2.43h.168c-.593.73-1.098 1.342-1.495 1.823-.172.234-.368.45-.584.644.131-.256.288-.498.467-.724l1.402-1.868.07-.098.098.079 2.934 2.378h-.201l1.775-1.556 1.51-1.313.088-.079.103.07c1.228.902 2.358 1.929 3.373 3.065h-.16c.688-.661 1.322-1.375 1.898-2.135z" transform="translate(-1318 -1326) translate(1180 803) translate(138 523) translate(140.152 149.495)"/>
                    </g>
                    <g>
                        <path fill="#263238" d="M181.08 105.286c-.006-.041-.006-.084 0-.126v-.373c0-.35 0-.832-.023-1.444 0-1.275-.023-3.083-.042-5.312 0-4.503 0-10.689-.033-17.523V71.36l.112.113-11.258-.042-3.224-.033h-.86c-.097.01-.196.01-.294 0 .098-.008.197-.008.295 0h.86l3.223-.033 11.258-.042h.113v9.259c0 6.835-.028 13.02-.038 17.524 0 2.228-.028 4.036-.037 5.312V105.235c-.016.019-.033.036-.052.051zM94.649 77.49c.07 0 .121 12.543.121 28.03 0 15.487-.05 28.03-.121 28.03-.07 0-.121-12.539-.121-28.03 0-15.491.056-28.03.121-28.03z" transform="translate(-1318 -1326) translate(1180 803) translate(138 523) translate(33.17)"/>
                        <path fill="#263238" d="M96.237 133.513c.002.64-.381 1.216-.971 1.462s-1.27.112-1.723-.34c-.452-.45-.588-1.13-.344-1.72.244-.591.82-.976 1.46-.976.418-.002.82.164 1.116.46.296.294.462.696.462 1.114zM182.664 105.286c0 .87-.705 1.575-1.574 1.575-.87 0-1.575-.705-1.575-1.575 0-.869.705-1.574 1.575-1.574s1.574.705 1.574 1.574zM74.934 21.256H172.265V77.971H74.934z" transform="translate(-1318 -1326) translate(1180 803) translate(138 523) translate(33.17)"/>
                        <path fill="#E0E0E0" d="M82.55 75.117c-.052 0-.094-11.6-.094-25.9 0-14.3.042-25.905.093-25.905.052 0 .094 11.595.094 25.905 0 14.309-.042 25.9-.094 25.9z" transform="translate(-1318 -1326) translate(1180 803) translate(138 523) translate(33.17)"/>
                        <path fill="#E0E0E0" d="M82.725 75.173c-.06 0-.09 0-.12-.075-.05-.154-.06-.621-.08-2.014 0-1.303-.05-3.172-.07-5.55 0-4.89-.06-11.394-.06-18.313 0-6.919 0-13.426.06-18.318 0-2.377 0-4.246.07-5.55 0-1.401 0-1.868.08-2.013 0-.075.06-.075.12-.075s.09 0 .11.075c.05.154.06.621.08 2.013 0 1.304.05 3.173.06 5.55 0 4.896.06 11.4.06 18.318 0 6.919 0 13.417-.06 18.313 0 2.378 0 4.247-.06 5.55 0 1.402 0 1.869-.08 2.014-.02.075-.06.075-.11.075zm0-46.157c-.05 4.77-.08 12.081-.08 20.2 0 8.12 0 15.417.08 20.196 0-4.765.07-12.08.07-20.195s-.03-15.431-.07-20.201zM80.545 25.498c-1.07.125-2.153.125-3.223 0 1.07-.124 2.152-.124 3.223 0z" transform="translate(-1318 -1326) translate(1180 803) translate(138 523) translate(33.17)"/>
                        <path fill="#E0E0E0" d="M78.952 25.989c-1.668 0-1.668-.21-1.668-.32 0-.11 0-.32 1.668-.32s1.672.21 1.672.32c0 .11-.018.32-1.672.32zm-1.257-.32c.267 0 .687.07 1.257.07.57 0 .995 0 1.257-.07-.262 0-.687-.07-1.257-.07-.57 0-1.01.03-1.275.07h.018zM80.545 28.913c-1.07.125-2.153.125-3.223 0 1.07-.124 2.152-.124 3.223 0z" transform="translate(-1318 -1326) translate(1180 803) translate(138 523) translate(33.17)"/>
                        <path fill="#E0E0E0" d="M78.952 29.41c-1.668 0-1.668-.21-1.668-.32 0-.11 0-.33 1.668-.33s1.672.21 1.672.33c0 .12-.018.32-1.672.32zm-1.257-.32c.267 0 .687.07 1.257.07.57 0 .995 0 1.257-.07-.262 0-.687-.08-1.257-.08-.57 0-1.01.04-1.275.08h.018zM80.545 32.324c-1.07.124-2.153.124-3.223 0 1.07-.125 2.152-.125 3.223 0z" transform="translate(-1318 -1326) translate(1180 803) translate(138 523) translate(33.17)"/>
                        <path fill="#E0E0E0" d="M78.952 32.824c-1.668 0-1.668-.21-1.668-.33 0-.12 0-.32 1.668-.32s1.672.21 1.672.32c0 .11-.018.33-1.672.33zm-1.252-.33c.262 0 .682.08 1.252.08s.995 0 1.257-.08c-.262 0-.687-.07-1.257-.07-.57 0-1.01.03-1.27.07h.018zM80.545 35.739c-1.07.124-2.153.124-3.223 0 1.07-.125 2.152-.125 3.223 0z" transform="translate(-1318 -1326) translate(1180 803) translate(138 523) translate(33.17)"/>
                        <path fill="#E0E0E0" d="M78.952 36.234c-1.668 0-1.668-.21-1.668-.32 0-.11 0-.33 1.668-.33s1.672.22 1.672.33c0 .11-.018.32-1.672.32zm-1.252-.32c.266 0 .687.07 1.252.07s.99 0 1.257-.07c-.271 0-.701-.08-1.257-.08-.556 0-1 .04-1.27.08h.018zM80.545 39.154c-1.07.124-2.153.124-3.223 0 1.07-.125 2.152-.125 3.223 0z" transform="translate(-1318 -1326) translate(1180 803) translate(138 523) translate(33.17)"/>
                        <path fill="#E0E0E0" d="M78.952 39.65c-1.668 0-1.668-.21-1.668-.32 0-.11 0-.33 1.668-.33s1.672.21 1.672.33c0 .12-.018.32-1.672.32zm-1.252-.32c.262 0 .682.07 1.252.07s.995 0 1.257-.07c-.262 0-.687-.08-1.257-.08-.57 0-1.01.04-1.27.08h.018zM80.545 42.564c-1.07.125-2.153.125-3.223 0 1.07-.125 2.152-.125 3.223 0z" transform="translate(-1318 -1326) translate(1180 803) translate(138 523) translate(33.17)"/>
                        <path fill="#E0E0E0" d="M78.952 43.065c-1.668 0-1.668-.21-1.668-.33 0-.12 0-.32 1.668-.32s1.672.21 1.672.32c0 .11-.018.33-1.672.33zm-1.252-.33c.262 0 .682.08 1.252.08s.995 0 1.257-.08c-.262 0-.687-.07-1.257-.07-.57 0-1.01.03-1.27.07h.018zM80.545 45.979c-1.07.125-2.153.125-3.223 0 1.07-.125 2.152-.125 3.223 0z" transform="translate(-1318 -1326) translate(1180 803) translate(138 523) translate(33.17)"/>
                        <path fill="#E0E0E0" d="M78.952 46.475c-1.668 0-1.668-.21-1.668-.32 0-.11 0-.33 1.668-.33s1.672.22 1.672.33c0 .11-.018.32-1.672.32zm-1.257-.32c.267 0 .687.07 1.257.07.57 0 .995 0 1.257-.07-.262 0-.687-.08-1.257-.08-.57 0-1.01.04-1.275.08h.018zM80.545 49.394c-1.071.118-2.152.118-3.223 0 1.07-.124 2.152-.124 3.223 0z" transform="translate(-1318 -1326) translate(1180 803) translate(138 523) translate(33.17)"/>
                        <path fill="#E0E0E0" d="M78.952 49.89c-1.668 0-1.668-.21-1.668-.32 0-.11 0-.33 1.668-.33s1.672.21 1.672.33c0 .12-.018.32-1.672.32zm-1.252-.32c.262 0 .682.07 1.252.07s.995 0 1.257-.07c-.262 0-.687-.08-1.257-.08-.57 0-1.01.03-1.27.08h.018zM80.545 52.79c-1.07.125-2.153.125-3.223 0 1.07-.124 2.152-.124 3.223 0z" transform="translate(-1318 -1326) translate(1180 803) translate(138 523) translate(33.17)"/>
                        <path fill="#E0E0E0" d="M78.952 53.305c-1.668 0-1.668-.22-1.668-.33 0-.11 0-.32 1.668-.32s1.672.21 1.672.32c0 .11-.018.33-1.672.33zm-1.252-.33c.266 0 .687.08 1.252.08s.99 0 1.257-.08c-.271 0-.701-.07-1.257-.07-.556 0-1 .04-1.27.04l.018.03zM80.545 56.22c-1.07.124-2.153.124-3.223 0 1.07-.125 2.152-.125 3.223 0z" transform="translate(-1318 -1326) translate(1180 803) translate(138 523) translate(33.17)"/>
                        <path fill="#E0E0E0" d="M78.952 56.715c-1.668 0-1.668-.21-1.668-.32 0-.11 0-.33 1.668-.33s1.672.21 1.672.33c0 .12-.018.32-1.672.32zm-1.252-.32c.271 0 .7.07 1.252.07.551 0 .986 0 1.257-.07-.267 0-.687-.08-1.257-.08-.57 0-1.004.04-1.27.08h.018zM80.545 59.63c-1.07.124-2.153.124-3.223 0 1.07-.119 2.152-.119 3.223 0z" transform="translate(-1318 -1326) translate(1180 803) translate(138 523) translate(33.17)"/>
                        <path fill="#E0E0E0" d="M78.952 60.144c-1.668 0-1.668-.21-1.668-.33 0-.12 0-.32 1.668-.32s1.672.21 1.672.32c0 .11-.018.33-1.672.33zm-1.252-.33c.262.05.682.08 1.252.08s.995 0 1.257-.08c-.262 0-.687-.07-1.257-.07-.57 0-1.01 0-1.27.04l.018.03zM80.545 63.068c-1.07.125-2.153.125-3.223 0 1.07-.124 2.152-.124 3.223 0z" transform="translate(-1318 -1326) translate(1180 803) translate(138 523) translate(33.17)"/>
                        <path fill="#E0E0E0" d="M78.952 63.545c-1.668 0-1.668-.22-1.668-.33 0-.11 0-.32 1.668-.32s1.672.21 1.672.32c0 .11-.018.33-1.672.33zm-1.252-.33c.266 0 .687.08 1.252.08s.99 0 1.257-.08c-.271 0-.701-.07-1.257-.07-.556 0-1 .03-1.27.12l.018-.05zM80.545 66.46c-1.07.124-2.153.124-3.223 0 1.07-.125 2.152-.125 3.223 0z" transform="translate(-1318 -1326) translate(1180 803) translate(138 523) translate(33.17)"/>
                        <path fill="#E0E0E0" d="M78.952 66.956c-1.668 0-1.668-.21-1.668-.32 0-.11 0-.33 1.668-.33s1.672.21 1.672.33c0 .12-.018.32-1.672.32zm-1.257-.32c.267 0 .687.07 1.257.07.57 0 .995 0 1.257-.07-.262 0-.687-.08-1.257-.08-.57 0-1.01.04-1.275.08h.018zM80.545 69.87c-1.07.125-2.153.125-3.223 0 1.07-.124 2.152-.124 3.223 0z" transform="translate(-1318 -1326) translate(1180 803) translate(138 523) translate(33.17)"/>
                        <path fill="#E0E0E0" d="M78.952 70.37c-1.668 0-1.668-.21-1.668-.33 0-.12 0-.32 1.668-.32s1.672.21 1.672.32c0 .11-.018.33-1.672.33zm-1.252-.33c.262 0 .682.08 1.252.08s.995 0 1.257-.08c-.262 0-.687-.07-1.257-.07-.57 0-1.01.03-1.27.07h.018zM80.545 73.285c-1.07.125-2.153.125-3.223 0 1.07-.124 2.152-.124 3.223 0z" transform="translate(-1318 -1326) translate(1180 803) translate(138 523) translate(33.17)"/>
                        <path fill="#E0E0E0" d="M78.952 73.786c-1.668 0-1.668-.22-1.668-.33 0-.11 0-.32 1.668-.32s1.672.21 1.672.32c0 .11-.018.33-1.672.33zm-1.257-.33c.267 0 .687.08 1.257.08.57 0 .995 0 1.257-.08-.262 0-.687-.07-1.257-.07-.57 0-1.01.03-1.275.07h.018z" transform="translate(-1318 -1326) translate(1180 803) translate(138 523) translate(33.17)"/>
                        <path fill="#FF725E" d="M93.467 25.297c0 .052-1.869.094-4.181.094-2.313 0-4.205-.042-4.205-.094 0-.051 1.869-.093 4.205-.093 2.336 0 4.181.023 4.181.093z" transform="translate(-1318 -1326) translate(1180 803) translate(138 523) translate(33.17)"/>
                        <path fill="#FF725E" d="M89.286 25.767h-2.962c-1.28-.07-1.28-.11-1.28-.27 0-.16 0-.21 1.28-.27.79 0 1.84-.06 2.962-.06 1.121 0 2.168 0 2.957.06 1.28.06 1.28.11 1.28.27 0 .16 0 .2-1.28.27-.79-.02-1.84 0-2.957 0zm-3.27-.32c.724 0 1.868.07 3.27.07 1.401 0 2.537 0 3.27-.07-.729 0-1.869-.08-3.27-.08-1.402 0-2.542.04-3.266.08h-.004zM93.467 73.285c0 .052-1.869.094-4.181.094-2.313 0-4.205-.042-4.205-.094 0-.051 1.869-.093 4.205-.093 2.336 0 4.181.042 4.181.093z" transform="translate(-1318 -1326) translate(1180 803) translate(138 523) translate(33.17)"/>
                        <path fill="#FF725E" d="M89.286 73.76c-1.121 0-2.172 0-2.962-.06-1.28-.06-1.28-.11-1.28-.27 0-.16 0-.2 1.28-.27H92.243c1.28.07 1.28.11 1.28.27 0 .16 0 .21-1.28.27-.79.03-1.84.06-2.957.06zm-3.27-.33c.724 0 1.868.08 3.27.08 1.401 0 2.537 0 3.27-.08-.729 0-1.869-.07-3.27-.07-1.402 0-2.542.03-3.266.07h-.004zM105.114 32.324c0 .051-3.504.093-7.825.093-4.322 0-7.83-.042-7.83-.093 0-.052 3.504-.094 7.83-.094 4.326 0 7.825.042 7.825.094z" transform="translate(-1318 -1326) translate(1180 803) translate(138 523) translate(33.17)"/>
                        <path fill="#FF725E" d="M97.293 32.824c-2.093 0-4.06 0-5.536-.06-2.336-.06-2.336-.1-2.336-.27s0-.2 2.336-.26c1.476 0 3.443-.06 5.536-.06 2.093 0 4.055 0 5.531.06 2.336.06 2.336.09 2.336.26s0 .21-2.336.27c-1.476.04-3.443.06-5.53.06zm-6.101-.33c1.364 0 3.471.08 6.101.08s4.733 0 6.097-.08c-1.364 0-3.471-.07-6.097-.07-2.625 0-4.737.03-6.101.07z" transform="translate(-1318 -1326) translate(1180 803) translate(138 523) translate(33.17)"/>
                        <path fill="#E0E0E0" d="M123.217 32.324c0 .051-3.504.093-7.826.093-4.32 0-7.83-.042-7.83-.093 0-.052 3.504-.094 7.83-.094 4.326 0 7.826.042 7.826.094z" transform="translate(-1318 -1326) translate(1180 803) translate(138 523) translate(33.17)"/>
                        <path fill="#E0E0E0" d="M115.391 32.824c-2.093 0-4.06 0-5.536-.06-2.335-.06-2.335-.1-2.335-.27s0-.2 2.335-.26c1.477 0 3.443-.06 5.536-.06 2.093 0 4.055 0 5.532.06 2.336.06 2.336.09 2.336.26s0 .21-2.336.27c-1.477.04-3.443.06-5.532.06zm-6.1-.33c1.363 0 3.47.08 6.1.08 2.63 0 4.733 0 6.097-.08-1.364 0-3.471-.07-6.097-.07-2.625 0-4.737.03-6.1.07zM116.298 35.739c0 .051-5.163.093-11.535.093s-11.53-.042-11.53-.093c0-.052 5.163-.094 11.53-.094 6.368 0 11.535.042 11.535.094z" transform="translate(-1318 -1326) translate(1180 803) translate(138 523) translate(33.17)"/>
                        <path fill="#E0E0E0" d="M104.763 36.208h-8.152c-3.438-.06-3.438-.1-3.438-.27s0-.21 3.438-.27c2.177 0 5.074-.06 8.152-.06 3.079 0 5.975 0 8.157.06 3.438.06 3.438.09 3.438.27 0 .18 0 .21-3.438.27-2.177-.02-5.073 0-8.157 0zm-8.993-.32c2.004 0 5.111.07 8.989.07 3.877 0 6.984 0 8.988-.07-2.004 0-5.106-.08-8.988-.08-3.883 0-6.98.04-8.989.08zM116.298 39.154c0 .051-5.163.093-11.535.093s-11.53-.042-11.53-.093c0-.052 5.163-.094 11.53-.094 6.368 0 11.535.042 11.535.094z" transform="translate(-1318 -1326) translate(1180 803) translate(138 523) translate(33.17)"/>
                        <path fill="#E0E0E0" d="M104.763 39.65c-3.078 0-5.975 0-8.152-.06-3.438-.06-3.438-.09-3.438-.26s0-.21 3.438-.27c2.177 0 5.074-.06 8.152-.06 3.079 0 5.98 0 8.157.06 3.438.06 3.438.09 3.438.27 0 .18 0 .2-3.438.26-2.177.04-5.073.06-8.157.06zm-8.993-.32c2.004 0 5.106.07 8.98.07 3.872 0 6.979 0 8.983-.07-2.004-.05-5.106-.08-8.984-.08-3.877 0-6.96.03-8.979.08zM132.177 49.394c0 .051-5.167.089-11.535.089-6.367 0-11.534-.038-11.534-.089s5.162-.093 11.534-.093c6.373 0 11.535.042 11.535.093z" transform="translate(-1318 -1326) translate(1180 803) translate(138 523) translate(33.17)"/>
                        <path fill="#E0E0E0" d="M120.642 49.89c-3.078 0-5.975 0-8.156-.06-3.434-.06-3.434-.09-3.434-.26s0-.21 3.434-.27c2.177 0 5.078-.06 8.156-.06 3.08 0 5.98 0 8.157.06 3.434.06 3.434.09 3.434.27 0 .18 0 .2-3.434.26-2.195.01-5.078.06-8.157.06zm-8.988-.32c2.009 0 5.11.07 8.984.07 3.873 0 6.98 0 8.983-.07-2.004 0-5.11-.08-8.983-.08s-6.97.03-8.984.08zM125.323 42.564c0 .051-5.162.093-11.53.093-6.367 0-11.534-.042-11.534-.093s5.162-.093 11.535-.093c6.372 0 11.53.042 11.53.093z" transform="translate(-1318 -1326) translate(1180 803) translate(138 523) translate(33.17)"/>
                        <path fill="#E0E0E0" d="M113.794 43.065c-3.084 0-5.98 0-8.157-.06-3.439-.06-3.439-.09-3.439-.27 0-.18 0-.2 3.439-.26 2.177 0 5.073-.06 8.157-.06 3.083 0 5.975 0 8.152.06 3.438.06 3.438.09 3.438.26s0 .21-3.438.27c-2.177.04-5.074.06-8.152.06zm-8.984-.33c2.004 0 5.106.08 8.984.08 3.877 0 6.975 0 8.979-.08-2.004 0-5.106-.07-8.98-.07-3.872 0-6.979.03-8.983.07zM153.513 42.564c0 .051-5.163.093-11.535.093s-11.534-.042-11.534-.093 5.167-.093 11.534-.093c6.368 0 11.535.042 11.535.093z" transform="translate(-1318 -1326) translate(1180 803) translate(138 523) translate(33.17)"/>
                        <path fill="#E0E0E0" d="M141.978 43.065c-3.079 0-5.975 0-8.157-.06-3.433-.06-3.433-.09-3.433-.27 0-.18 0-.2 3.433-.26 2.182 0 5.078-.06 8.157-.06 3.079 0 5.975 0 8.157.06 3.434.06 3.434.09 3.434.26s0 .21-3.434.27c-2.177.04-5.074.06-8.157.06zm-8.979-.33c2.004 0 5.106.08 8.98.08 3.872 0 6.979 0 8.983-.08-2.004 0-5.111-.07-8.984-.07s-6.965.03-8.979.07zM143.711 35.739c0 .051-5.167.093-11.534.093-6.368 0-11.535-.042-11.535-.093 0-.052 5.163-.094 11.535-.094s11.534.042 11.534.094z" transform="translate(-1318 -1326) translate(1180 803) translate(138 523) translate(33.17)"/>
                        <path fill="#E0E0E0" d="M132.177 36.208h-8.157c-3.434-.06-3.434-.1-3.434-.27s0-.21 3.434-.27c2.182 0 5.078-.06 8.157-.06 3.079 0 5.975 0 8.157.06 3.433.06 3.433.09 3.433.27 0 .18 0 .21-3.433.27-2.182-.02-5.078 0-8.157 0zm-8.988-.32c2.004 0 5.11.07 8.988.07 3.877 0 6.984 0 8.988-.07-2.004 0-5.11-.08-8.988-.08-3.878 0-6.975.04-8.988.08zM159.642 49.394c0 .051-5.162.089-11.53.089-6.367 0-11.534-.038-11.534-.089s5.139-.093 11.534-.093c6.396 0 11.53.042 11.53.093z" transform="translate(-1318 -1326) translate(1180 803) translate(138 523) translate(33.17)"/>
                        <path fill="#E0E0E0" d="M148.093 49.89c-3.083 0-5.98 0-8.156-.06-3.439-.06-3.439-.09-3.439-.26s0-.21 3.439-.27c2.177 0 5.073-.06 8.156-.06 3.084 0 5.976 0 8.153.06 3.438.06 3.438.09 3.438.27 0 .18 0 .2-3.438.26-2.159.01-5.055.06-8.153.06zm-8.983-.32c2.004 0 5.106.07 8.983.07 3.878 0 6.975 0 8.98-.07-2.005 0-5.107-.08-8.98-.08-3.872 0-6.96.03-8.965.08h-.018z" transform="translate(-1318 -1326) translate(1180 803) translate(138 523) translate(33.17)"/>
                        <path fill="#455A64" d="M156.46 39.154c0 .051-8.016.093-17.906.093-9.89 0-17.912-.042-17.912-.093 0-.052 8.017-.094 17.912-.094 9.894 0 17.906.042 17.906.094z" transform="translate(-1318 -1326) translate(1180 803) translate(138 523) translate(33.17)"/>
                        <path fill="#455A64" d="M138.554 39.639c-4.784 0-9.283 0-12.665-.06-3.924 0-4.948-.07-5.21-.15-.074 0-.074-.06-.074-.1 0-.04 0-.08.07-.11.266-.08 1.285-.11 5.214-.15 3.382 0 7.876-.06 12.665-.06 4.788 0 9.278 0 12.66.06 3.93 0 4.947.07 5.214.15.075 0 .075.06.075.11s0 .07-.075.1c-.267.08-1.29.11-5.214.15-3.382.04-7.881.06-12.66.06zm-13.973-.32c3.298 0 8.362.07 13.973.07 5.61 0 10.67 0 13.968-.07-3.298-.05-8.362-.08-13.968-.08s-10.675.03-13.973.08z" transform="translate(-1318 -1326) translate(1180 803) translate(138 523) translate(33.17)"/>
                        <path fill="#E0E0E0" d="M93.467 28.913c0 .052-1.869.094-4.181.094-2.313 0-4.205-.042-4.205-.094 0-.051 1.869-.093 4.205-.093 2.336 0 4.181.042 4.181.093z" transform="translate(-1318 -1326) translate(1180 803) translate(138 523) translate(33.17)"/>
                        <path fill="#E0E0E0" d="M89.286 29.41c-1.121 0-2.172 0-2.962-.06-1.28-.06-1.28-.11-1.28-.26 0-.15 0-.21 1.28-.27.79 0 1.84-.06 2.962-.06 1.121 0 2.168 0 2.957.06 1.28.06 1.28.11 1.28.27 0 .16 0 .2-1.28.26-.79.04-1.84.06-2.957.06zm-3.27-.32c.724 0 1.868.07 3.27.07 1.401 0 2.537 0 3.27-.07-.729 0-1.869-.08-3.27-.08-1.402 0-2.542.03-3.266.08h-.004zM93.467 69.87c0 .052-1.869.094-4.181.094-2.313 0-4.205-.042-4.205-.094 0-.051 1.869-.093 4.205-.093 2.336 0 4.181.042 4.181.093z" transform="translate(-1318 -1326) translate(1180 803) translate(138 523) translate(33.17)"/>
                        <path fill="#E0E0E0" d="M89.286 70.37c-1.121 0-2.172 0-2.962-.06-1.28-.06-1.28-.11-1.28-.27 0-.16 0-.2 1.28-.26.79 0 1.84-.06 2.962-.06 1.121 0 2.168 0 2.957.06 1.28.06 1.28.11 1.28.26 0 .15 0 .21-1.28.27-.79.04-1.84.06-2.957.06zm-3.27-.33c.728.05 1.868.08 3.27.08 1.401 0 2.532 0 3.27-.08-.729 0-1.869-.07-3.27-.07-1.402 0-2.537.03-3.266.07h-.004zM97.61 42.564c0 .051-1.868.093-4.18.093-2.313 0-4.205-.042-4.205-.093s1.869-.093 4.205-.093c2.336 0 4.18.042 4.18.093z" transform="translate(-1318 -1326) translate(1180 803) translate(138 523) translate(33.17)"/>
                        <path fill="#E0E0E0" d="M93.434 43.065c-1.12 0-2.172 0-2.962-.06-1.28-.06-1.28-.11-1.28-.27 0-.16 0-.2 1.28-.26.795 0 1.87-.06 2.962-.06 1.094 0 2.168 0 2.958.06 1.284.06 1.284.1 1.284.26s0 .21-1.284.27c-.795.04-1.846.06-2.958.06zm-3.27-.33c.729 0 1.869.08 3.27.08 1.402 0 2.532 0 3.27-.08-.728 0-1.868-.07-3.27-.07-1.401 0-2.541.03-3.27.07z" transform="translate(-1318 -1326) translate(1180 803) translate(138 523) translate(33.17)"/>
                        <path fill="#FF725E" d="M164.66 42.564c0 .051-1.87.093-4.205.093-2.336 0-4.181-.042-4.181-.093s1.868-.093 4.18-.093c2.313 0 4.205.042 4.205.093z" transform="translate(-1318 -1326) translate(1180 803) translate(138 523) translate(33.17)"/>
                        <path fill="#FF725E" d="M160.473 43.065c-1.116 0-2.167 0-2.957-.06-1.284-.06-1.284-.11-1.284-.27 0-.16 0-.2 1.284-.26.79 0 1.84-.06 2.957-.06 1.117 0 2.168 0 2.962.06 1.28.06 1.28.1 1.28.26s0 .21-1.28.27c-.794.04-1.84.06-2.962.06zm-3.27-.33c.73 0 1.869.08 3.27.08 1.402 0 2.537 0 3.27-.08-.728 0-1.868-.07-3.27-.07-1.401 0-2.532.03-3.26.07h-.01zM105.114 56.2c0 .052-3.504.09-7.825.09-4.322 0-7.83-.038-7.83-.09 0-.05 3.504-.093 7.83-.093 4.326 0 7.825.042 7.825.094z" transform="translate(-1318 -1326) translate(1180 803) translate(138 523) translate(33.17)"/>
                        <path fill="#FF725E" d="M97.293 56.697c-2.093 0-4.055 0-5.536-.06-2.336-.06-2.336-.09-2.336-.26s0-.21 2.336-.27c1.476 0 3.443-.06 5.536-.06 2.093 0 4.055 0 5.531.06 2.336.06 2.336.09 2.336.27 0 .18 0 .2-2.336.26-1.48.04-3.443.06-5.53.06zm-6.106-.32c1.364 0 3.476.07 6.106.07s4.737 0 6.101-.07c-1.364-.05-3.475-.08-6.1-.08-2.626 0-4.743.03-6.107.08z" transform="translate(-1318 -1326) translate(1180 803) translate(138 523) translate(33.17)"/>
                        <path fill="#E0E0E0" d="M123.217 56.2c0 .052-3.504.09-7.826.09-4.32 0-7.83-.038-7.83-.09 0-.05 3.504-.093 7.83-.093 4.326 0 7.826.042 7.826.094z" transform="translate(-1318 -1326) translate(1180 803) translate(138 523) translate(33.17)"/>
                        <path fill="#E0E0E0" d="M115.391 56.697c-2.093 0-4.055 0-5.536-.06-2.335-.06-2.335-.09-2.335-.26s0-.21 2.335-.27c1.477 0 3.443-.06 5.536-.06 2.093 0 4.055 0 5.532.06 2.336.06 2.336.09 2.336.27 0 .18 0 .2-2.336.26-1.481.04-3.443.06-5.532.06zm-6.106-.32c1.365 0 3.476.07 6.106.07s4.738 0 6.102-.07c-1.364-.05-3.476-.08-6.102-.08-2.625 0-4.741.03-6.106.08zM116.298 59.611c0 .052-5.163.094-11.535.094s-11.53-.042-11.53-.094c0-.051 5.163-.093 11.53-.093 6.368 0 11.535.042 11.535.093z" transform="translate(-1318 -1326) translate(1180 803) translate(138 523) translate(33.17)"/>
                        <path fill="#E0E0E0" d="M104.763 60.112c-3.078 0-5.975 0-8.152-.06-3.438-.06-3.438-.09-3.438-.27 0-.18 0-.2 3.438-.26 2.177 0 5.074-.06 8.152-.06 3.079 0 5.98 0 8.157.06 3.438.06 3.438.09 3.438.26s0 .21-3.438.27c-2.177.04-5.073.06-8.157.06zm-8.993-.33c2.004 0 5.106.08 8.98.08 3.872 0 6.979 0 8.983-.08-2.004 0-5.106-.07-8.984-.07-3.877 0-6.96.03-8.979.07zM116.298 63.026c0 .052-5.163.094-11.535.094s-11.53-.042-11.53-.094c0-.051 5.163-.093 11.53-.093 6.368 0 11.535.042 11.535.093z" transform="translate(-1318 -1326) translate(1180 803) translate(138 523) translate(33.17)"/>
                        <path fill="#E0E0E0" d="M104.763 63.522c-3.078 0-5.975 0-8.152-.06-3.438-.06-3.438-.09-3.438-.26s0-.21 3.438-.27c2.177 0 5.074-.06 8.152-.06 3.079 0 5.975 0 8.157.06 3.438.06 3.438.09 3.438.27 0 .18 0 .2-3.438.26-2.177.04-5.073.06-8.157.06zm-8.993-.32c2.004 0 5.111.07 8.989.07 3.877 0 6.984 0 8.988-.07-2.004 0-5.106-.08-8.988-.08-3.883 0-6.98.03-8.989.08zM125.323 66.436c0 .052-5.162.094-11.53.094-6.367 0-11.534-.042-11.534-.094 0-.05 5.162-.088 11.535-.088 6.372 0 11.53.037 11.53.088z" transform="translate(-1318 -1326) translate(1180 803) translate(138 523) translate(33.17)"/>
                        <path fill="#E0E0E0" d="M113.794 66.937c-3.079 0-5.975 0-8.157-.06-3.439-.06-3.439-.09-3.439-.27 0-.18 0-.2 3.439-.26 2.177 0 5.073-.06 8.157-.06 3.083 0 5.975 0 8.152.06 3.438.06 3.438.09 3.438.26s0 .21-3.438.27c-2.182.04-5.078.06-8.152.06zm-8.993-.33c2.008 0 5.11.08 8.993.08 3.882 0 6.98 0 8.988-.08-2.009 0-5.11-.07-8.988-.07-3.878 0-6.985.03-8.993.07zM153.513 66.436c0 .052-5.163.094-11.535.094s-11.534-.042-11.534-.094c0-.05 5.167-.088 11.534-.088 6.368 0 11.535.037 11.535.088z" transform="translate(-1318 -1326) translate(1180 803) translate(138 523) translate(33.17)"/>
                        <path fill="#E0E0E0" d="M141.978 66.937c-3.079 0-5.975 0-8.157-.06-3.433-.06-3.433-.09-3.433-.27 0-.18 0-.2 3.433-.26 2.182 0 5.078-.06 8.157-.06 3.079 0 5.98 0 8.157.06 3.434.06 3.434.09 3.434.26s0 .21-3.434.27c-2.182.04-5.078.06-8.157.06zm-8.988-.33c2.004 0 5.11.08 8.988.08 3.878 0 6.984 0 8.989-.08-2.005 0-5.111-.07-8.989-.07-3.877 0-6.965.03-8.988.07zM143.711 59.611c0 .052-5.167.094-11.534.094-6.368 0-11.535-.042-11.535-.094 0-.051 5.163-.093 11.535-.093s11.534.042 11.534.093z" transform="translate(-1318 -1326) translate(1180 803) translate(138 523) translate(33.17)"/>
                        <path fill="#E0E0E0" d="M132.177 60.112c-3.079 0-5.975 0-8.157-.06-3.434-.06-3.434-.09-3.434-.27 0-.18 0-.2 3.434-.26 2.177 0 5.074-.06 8.157-.06s5.975 0 8.157.06c3.433.06 3.433.09 3.433.26s0 .21-3.433.27c-2.182.04-5.078.06-8.157.06zm-8.984-.33c2.004 0 5.111.08 8.984.08s6.975 0 8.979-.08c-2.004 0-5.106-.07-8.98-.07-3.872 0-6.974.03-8.983.07z" transform="translate(-1318 -1326) translate(1180 803) translate(138 523) translate(33.17)"/>
                        <path fill="#455A64" d="M156.46 63.026c0 .052-8.016.094-17.906.094-9.89 0-17.912-.042-17.912-.094 0-.051 8.017-.093 17.912-.093 9.894 0 17.906.042 17.906.093z" transform="translate(-1318 -1326) translate(1180 803) translate(138 523) translate(33.17)"/>
                        <path fill="#455A64" d="M138.554 63.517c-4.789 0-9.283 0-12.665-.06-3.93 0-4.948-.07-5.214-.15-.075 0-.075-.06-.075-.1 0-.04 0-.08.07-.11.267-.09 1.29-.11 5.214-.16 3.387 0 7.886-.06 12.665-.06 4.78 0 9.273 0 12.66.06 3.93.05 4.948.07 5.214.16.075 0 .075.06.075.11s0 .08-.075.1c-.266.08-1.285.11-5.214.15-3.377.04-7.871.06-12.655.06zm-13.983-.32c3.299 0 8.367.07 13.983.07 5.615 0 10.684 0 13.982-.07-3.298 0-8.367-.08-13.982-.08-5.616 0-10.684.03-13.983.08z" transform="translate(-1318 -1326) translate(1180 803) translate(138 523) translate(33.17)"/>
                        <path fill="#E0E0E0" d="M97.61 66.436c0 .052-1.868.094-4.18.094-2.313 0-4.205-.042-4.205-.094 0-.05 1.869-.088 4.205-.088 2.336 0 4.18.037 4.18.088z" transform="translate(-1318 -1326) translate(1180 803) translate(138 523) translate(33.17)"/>
                        <path fill="#E0E0E0" d="M93.434 66.937c-1.116 0-2.167 0-2.962-.06-1.28-.06-1.28-.11-1.28-.27 0-.16 0-.2 1.28-.26.79 0 1.841-.06 2.962-.06 1.122 0 2.168 0 2.958.06 1.284.06 1.284.11 1.284.26 0 .15 0 .21-1.284.27-.795.04-1.846.06-2.958.06zm-3.27-.33c.729 0 1.869.08 3.27.08 1.402 0 2.537 0 3.27-.08-.728 0-1.868-.07-3.27-.07-1.401 0-2.541.03-3.27.07z" transform="translate(-1318 -1326) translate(1180 803) translate(138 523) translate(33.17)"/>
                        <path fill="#FF725E" d="M164.66 66.436c0 .052-1.87.094-4.205.094-2.336 0-4.181-.042-4.181-.094 0-.05 1.868-.088 4.18-.088 2.313 0 4.205.037 4.205.088z" transform="translate(-1318 -1326) translate(1180 803) translate(138 523) translate(33.17)"/>
                        <path fill="#FF725E" d="M160.473 66.937c-1.116 0-2.167 0-2.957-.06-1.284-.06-1.284-.11-1.284-.27 0-.16 0-.2 1.284-.26.79 0 1.84-.06 2.957-.06 1.117 0 2.168 0 2.962.06 1.28.06 1.28.11 1.28.26 0 .15 0 .21-1.28.27-.794.04-1.845.06-2.962.06zm-3.27-.33c.73 0 1.869.08 3.27.08 1.402 0 2.537 0 3.27-.08-.728 0-1.868-.07-3.27-.07-1.401 0-2.536.03-3.265.07h-.005z" transform="translate(-1318 -1326) translate(1180 803) translate(138 523) translate(33.17)"/>
                        <path fill="#ED2012" d="M187.887 5.653H219.234V27.997999999999998H187.887z" transform="translate(-1318 -1326) translate(1180 803) translate(138 523) translate(33.17)"/>
                        <path fill="#FFF" d="M219.482 8.97c0 .074-7.073.14-15.804.14-8.732 0-15.805-.066-15.805-.14 0-.075 7.078-.136 15.805-.136 8.726 0 15.804.042 15.804.136zM190.447 7.34c.024.175-.064.347-.22.43-.157.084-.348.062-.482-.055-.133-.117-.18-.304-.117-.47.063-.166.222-.275.399-.275.218-.013.405.152.42.37zM192.008 7.34c.023.175-.065.347-.221.43-.156.084-.348.062-.481-.055-.133-.117-.18-.304-.118-.47.063-.166.222-.275.4-.275.217-.013.405.152.42.37zM193.526 7.34c-.018.218-.207.382-.425.368-.146.024-.292-.041-.373-.165-.08-.124-.08-.284 0-.407.081-.124.227-.19.373-.166.218-.013.407.15.425.37z" transform="translate(-1318 -1326) translate(1180 803) translate(138 523) translate(33.17)"/>
                        <path fill="#ED2012" d="M49.805 0.103H69.029V13.805H49.805z" transform="translate(-1318 -1326) translate(1180 803) translate(138 523) translate(33.17)"/>
                        <path fill="#FFF" d="M69.179 2.14c0 .032-4.34.056-9.69.056-5.348 0-9.693-.024-9.693-.056 0-.033 4.34-.061 9.694-.061 5.353 0 9.689.023 9.689.06zM51.389 1.135c.015.108-.037.214-.133.267-.095.052-.214.04-.296-.03-.083-.072-.113-.187-.076-.289.037-.102.134-.17.243-.172.134-.008.25.091.262.224zM52.323 1.135c.016.108-.037.214-.133.267-.095.052-.213.04-.296-.03-.083-.072-.113-.187-.076-.289.038-.102.135-.17.244-.172.133-.008.249.091.261.224zM53.258 1.135c.015.108-.038.214-.133.267-.096.052-.214.04-.297-.03-.082-.072-.112-.187-.075-.289.037-.102.134-.17.243-.172.133-.008.25.091.262.224z" transform="translate(-1318 -1326) translate(1180 803) translate(138 523) translate(33.17)"/>
                        <path fill="#FF725E" d="M37.883 40.018v-.467-1.29c0-1.135 0-2.803-.028-4.9 0-4.233-.037-10.31-.065-17.73l.121.122-37.729.028.15-.15V40l-.14-.135 27.142.065 7.783.038H37.925h-2.747l-7.755.037-27.231.07H0v-.14V15.416h.154l37.729.033H38v.117c-.028 7.475-.047 13.548-.061 17.804 0 2.098-.023 3.737-.033 4.873v1.266c0 .294-.023.509-.023.509z" transform="translate(-1318 -1326) translate(1180 803) translate(138 523) translate(33.17)"/>
                        <path fill="#FF725E" d="M37.883 19.266c0 .084-8.451.15-18.874.15-10.422 0-18.874-.066-18.874-.15 0-.084 8.447-.15 18.874-.15s18.874.07 18.874.15zM2.939 17.49c-.009.116-.063.224-.15.299-.088.075-.202.113-.318.104-.214-.033-.365-.227-.343-.443.021-.215.208-.376.424-.365.217.01.387.19.387.406zM4.62 17.49c-.02.24-.228.419-.467.403-.155.016-.305-.057-.388-.189-.082-.132-.082-.3 0-.431.083-.132.233-.205.388-.189.241-.016.45.166.467.407zM6.297 17.49c.026.193-.07.381-.242.473-.17.092-.38.069-.527-.059-.147-.127-.2-.332-.132-.514.067-.182.24-.304.434-.306.116-.009.231.03.319.106s.141.185.148.3z" transform="translate(-1318 -1326) translate(1180 803) translate(138 523) translate(33.17)"/>
                    </g>
                </g>
            </g>
        </g>
    </g>
</svg>
