<svg xmlns="http://www.w3.org/2000/svg" xmlns:xlink="http://www.w3.org/1999/xlink" width="511" height="241" viewBox="0 0 511 241">
    <defs>
        <path id="l4yeduu2xa" d="M0 0.913H510V240.913H0z"/>
    </defs>
    <g fill="none" fill-rule="evenodd">
        <g>
            <g transform="translate(-629 -1271) translate(629.654 1271)">
                <mask id="fho80aigob" fill="#fff">
                    <use xlink:href="#l4yeduu2xa"/>
                </mask>
                <g mask="url(#fho80aigob)">
                    <g>
                        <g fill-rule="nonzero">
                            <path fill="#B78876" d="M153.26 72.75l-4.85 5-9.71-10.34 3.23-5.53c.17-.71.35-1.5.52-2.39.195-1.05.215-2.124.06-3.18-.161-1.316-.498-2.604-1-3.83-.56-1.07.44-2.28 1.41-1.79.97.49 2.59 3.4 2.81 7.31.22 3.91 3.74-1.07 5-2.86 1.26-1.79 5.61-7.13 6.47-7.15 1.26 0 1.53 1.34.18 3.1s-5 7.32-4.06 8c2.012-.217 3.94.867 4.8 2.7.83 1.76 1.74 4.25.88 5.33-1.789 2-3.706 3.88-5.74 5.63z" transform="translate(-78.654 26) translate(85 50)"/>
                            <path fill="#B78876" d="M138.7 67.38L103.83 96.09 117.83 115.65 148.41 77.73z" transform="translate(-78.654 26) translate(85 50)"/>
                            <path fill="#AA6550" d="M156.69 59.9c-.508.705-1.088 1.355-1.73 1.94l-2 2-1.18 1.16c-.436.517-1.065.831-1.74.87-.404-.007-.778-.212-1-.55-.187-.298-.275-.649-.25-1 .088-.613.376-1.179.82-1.61.628-.704 1.296-1.372 2-2 .628-.612 1.339-1.133 2.11-1.55-.583.643-1.204 1.25-1.86 1.82-.57.56-1.23 1.25-1.92 2-.357.358-.592.82-.67 1.32-.072.477.254.923.73 1 .528-.06 1.013-.317 1.36-.72l1.2-1.15 2.07-1.93c.629-.604 1.319-1.14 2.06-1.6z" transform="translate(-78.654 26) translate(85 50)"/>
                            <path fill="#AA6550" d="M158 62.42c-.485.687-1.045 1.317-1.67 1.88l-1.91 1.94c-.37.36-.72.74-1.17 1.13-.238.199-.504.36-.79.48-.336.14-.714.14-1.05 0-.638-.337-.948-1.079-.74-1.77.173-.554.487-1.053.91-1.45.63-.671 1.297-1.306 2-1.9.593-.588 1.267-1.09 2-1.49-.556.624-1.15 1.211-1.78 1.76-.55.54-1.2 1.19-1.87 2-.352.35-.615.779-.77 1.25-.142.45.05.937.46 1.17.4.19.91-.08 1.31-.41.4-.33.78-.73 1.15-1.08l2-1.85c.579-.62 1.222-1.177 1.92-1.66z" transform="translate(-78.654 26) translate(85 50)"/>
                            <path fill="#AA6550" d="M159.34 64.81c-.463.66-.996 1.266-1.59 1.81l-1.83 1.86c-.363.387-.761.738-1.19 1.05-.257.182-.557.295-.87.33-.369.039-.736-.09-1-.35-.45-.496-.56-1.212-.28-1.82.249-.495.588-.94 1-1.31.599-.638 1.233-1.243 1.9-1.81.593-.57 1.267-1.048 2-1.42-.53.603-1.1 1.168-1.71 1.69-.53.51-1.15 1.14-1.8 1.87-.343.34-.627.736-.84 1.17-.194.419-.123.912.18 1.26.348.289.852.289 1.2 0 .407-.294.782-.629 1.12-1l1.91-1.77c.542-.583 1.146-1.106 1.8-1.56zM148.27 70.84c.044-.492.124-.98.24-1.46.145-1.162.025-2.341-.35-3.45-.395-1.104-1.039-2.103-1.88-2.92-.65-.63-1.14-.93-1.1-1 .504.118.967.37 1.34.73.978.78 1.716 1.82 2.13 3 .415 1.186.491 2.463.22 3.69-.22.94-.54 1.44-.6 1.41z" transform="translate(-78.654 26) translate(85 50)"/>
                            <path fill="#ED2012" d="M79.32 99.87l5.2 52.24-64.16 1.39.35-42.05-4.64-36.26c3-17 26.82-18.13 26.82-18.13l18.67-.3c6.386-.46 12.767.955 18.36 4.07 0 0 19 10.32 18.77 36.52" transform="translate(-78.654 26) translate(85 50)"/>
                            <path fill="#ED2012" d="M21 66.36c-5.6 5.35-11 16.09-9 37.61l29.84-1.23L41 73.3c-.086-2.98-1.498-5.767-3.85-7.6-4.817-3.77-11.657-3.491-16.15.66z" transform="translate(-78.654 26) translate(85 50)"/>
                            <path fill="#FAFAFA" d="M83.4 144.63c-.16.154-.338.288-.53.4-.549.333-1.132.604-1.74.81-2.27.7-4.683.793-7 .27-2.94-.53-6.2-2-9.94-3-4.08-1.047-8.321-1.312-12.5-.78-4.47.52-8.45 2.17-12.09 3.58-3.188 1.39-6.554 2.332-10 2.8-2.355.279-4.743.047-7-.68-.6-.215-1.182-.48-1.74-.79-.201-.096-.39-.217-.56-.36 0 0 .8.45 2.37 1 2.227.64 4.563.814 6.86.51 3.407-.509 6.73-1.474 9.88-2.87 3.61-1.44 7.65-3.13 12.19-3.66 4.244-.537 8.552-.255 12.69.83 1.91.5 3.65 1.16 5.29 1.73 1.503.55 3.04 1.004 4.6 1.36 2.256.538 4.61.504 6.85-.1.822-.273 1.615-.625 2.37-1.05z" transform="translate(-78.654 26) translate(85 50)"/>
                            <g fill="#000" opacity=".2">
                                <path d="M.43 10.26l.26.2c7.148 5.437 16.756 6.362 24.81 2.39 3-1.55 5.69-3.77 8.9-4.87 4.55-1.55 9.53-.65 14.28.11S59.1 9.36 63.4 7.2L62.84.61.59 2.23" transform="translate(-78.654 26) translate(85 50) translate(20 134)"/>
                            </g>
                            <path fill="#263238" d="M123.93 152.72l-68.17-.86L70 183.91l39.1.3c2.633.019 4.788 2.1 4.9 4.73l4.2 98 26.37-2-2.67-112.22c-.254-10.19-7.892-18.678-18-20h.03z" transform="translate(-78.654 26) translate(85 50)"/>
                            <path fill="#263238" d="M59.15 186.53l2.9 101.25 32.7-2.33s-1.81-95.5-4.25-121.72c-1.68-17.94-70.14-10.23-70.14-10.23-1 35.73 38.79 33 38.79 33" transform="translate(-78.654 26) translate(85 50)"/>
                            <path fill="#455A64" d="M57.57 152.05c.192-.026.388-.026.58 0h1.67c1.45 0 3.54.11 6.13.26 2.59.15 5.67.37 9.07.88 3.735.506 7.318 1.805 10.51 3.81.833.567 1.589 1.24 2.25 2 .647.738 1.146 1.593 1.47 2.52.55 1.726.916 3.506 1.09 5.31.282 3.028.405 6.069.37 9.11v7.8c.022.193.022.387 0 .58-.055-.189-.085-.384-.09-.58 0-.38-.08-.94-.11-1.66-.08-1.45-.13-3.55-.18-6.14-.05-2.59-.1-5.67-.49-9.05-.18-1.762-.543-3.502-1.08-5.19-.694-1.751-1.936-3.232-3.54-4.22-3.132-1.939-6.633-3.205-10.28-3.72-3.37-.53-6.44-.8-9-1l-6.11-.43-1.67-.14c-.2-.031-.397-.078-.59-.14z" transform="translate(-78.654 26) translate(85 50)"/>
                            <path fill="#263238" d="M11.94 104c.173.022.347.022.52 0h1.49l5.48-.2c4.63-.2 11-.5 18.07-.86l3.62-.19h.24v-.24c0-6.18-.07-11.64-.09-15.65 0-1.91-.05-3.47-.07-4.63v-1.25c.017-.146.017-.294 0-.44-.044.142-.061.291-.05.44v1.25c0 1.16-.05 2.72-.08 4.63 0 4-.05 9.47-.08 15.65l.23-.25-3.61.18c-7.06.37-13.44.73-18.07 1l-5.47.37-1.48.12c-.22-.019-.44.005-.65.07zM25.79 61.64c1.154-.148 2.32-.185 3.48-.11 2.79.307 5.394 1.555 7.38 3.54 1.942 2.028 3.258 4.573 3.79 7.33.43 2.12.34 3.48.44 3.48.08-.31.114-.63.1-.95.02-.867-.043-1.735-.19-2.59-.447-2.871-1.766-5.535-3.78-7.63-2.06-2.07-4.798-3.327-7.71-3.54-.87-.06-1.746 0-2.6.18-.318.04-.627.139-.91.29zM79.35 76.69c-.15.932-.21 1.876-.18 2.82v6.89c0 2.69.11 4.85.15 6.74V92.75c0-1.89.09-4.2.15-6.75s0-4.89 0-6.59c.043-.908.002-1.819-.12-2.72z" transform="translate(-78.654 26) translate(85 50)"/>
                            <path fill="#B78876" d="M15.41 104l.71 29.42c.177 3.276 1.783 6.31 4.393 8.299 2.61 1.988 5.961 2.73 9.167 2.031l44.47-12.3L77.49 115l-41.59 8-.53-20-19.96 1z" transform="translate(-78.654 26) translate(85 50)"/>
                            <path fill="#AA6550" d="M31.2 130.17c-.175-.448-.224-.936-.14-1.41.084-1.156.462-2.272 1.1-3.24.64-.967 1.514-1.758 2.54-2.3.79-.4 1.33-.48 1.35-.42-2.863 1.361-4.732 4.202-4.85 7.37z" transform="translate(-78.654 26) translate(85 50)"/>
                            <path fill="#FAFAFA" d="M40.6 84.25v.35c-.062.34-.15.673-.26 1-.421 1.199-1.104 2.289-2 3.19-1.342 1.377-3.098 2.276-5 2.56-2.304.2-4.622-.143-6.77-1-2.084-.837-4.27-1.395-6.5-1.66-1.82-.109-3.63.338-5.19 1.28-1.061.626-1.992 1.451-2.74 2.43-.53.7-.75 1.14-.79 1.11-.04-.03 0-.12.12-.33.143-.315.313-.616.51-.9.707-1.056 1.63-1.95 2.71-2.62 1.605-1.034 3.493-1.541 5.4-1.45 2.278.237 4.513.79 6.64 1.64 2.077.822 4.312 1.164 6.54 1 1.8-.262 3.473-1.084 4.78-2.35.891-.85 1.602-1.87 2.09-3 .31-.78.41-1.26.46-1.25zM37.81 66c-.136.247-.311.47-.52.66-.52.56-1.092 1.07-1.71 1.52-4.146 3.105-9.622 3.796-14.41 1.82-.698-.29-1.368-.645-2-1.06-.25-.132-.474-.308-.66-.52.05-.08 1 .59 2.82 1.24 4.694 1.73 9.935 1.086 14.07-1.73 1.54-1.08 2.34-1.93 2.41-1.93zM93.4 77c-.456-.575-.984-1.09-1.57-1.53-1.666-1.113-3.665-1.618-5.66-1.43-2.53.14-5.32 1.48-8.14 3.3-1.42.89-2.89 1.9-4.51 2.8-1.666.979-3.485 1.672-5.38 2.05-1.924.332-3.902.145-5.73-.54-1.666-.64-3.263-1.444-4.77-2.4-2.87-1.77-5.53-3.31-8-3.7-1.968-.37-4.004-.015-5.73 1-.611.405-1.16.897-1.63 1.46 0 0 .08-.18.3-.49.347-.44.758-.824 1.22-1.14 1.748-1.123 3.855-1.544 5.9-1.18 2.61.35 5.35 1.91 8.22 3.65 1.492.92 3.065 1.7 4.7 2.33 1.75.652 3.64.828 5.48.51 1.834-.378 3.594-1.053 5.21-2 1.6-.88 3.06-1.88 4.51-2.77 2.85-1.81 5.73-3.16 8.37-3.26 2.065-.159 4.12.419 5.8 1.63.444.34.835.745 1.16 1.2.108.157.192.329.25.51zM79.35 61.2c-.629.52-1.338.936-2.1 1.23-3.63 1.62-7.676 2.06-11.57 1.26-.808-.125-1.592-.378-2.32-.75 2.68.54 5.423.712 8.15.51 2.703-.393 5.34-1.15 7.84-2.25zM71.11 105.7s-.4-.35-1.2-.83c-1.15-.649-2.44-1.012-3.76-1.06-1.958-.053-3.905.326-5.7 1.11-2.07.8-4.21 2-6.63 3-4.11 1.784-8.643 2.363-13.07 1.67-1.331-.238-2.624-.658-3.84-1.25-.344-.155-.679-.332-1-.53-.21-.13-.32-.2-.31-.22 1.649.757 3.385 1.304 5.17 1.63 4.356.577 8.786-.038 12.82-1.78 2.37-1 4.53-2.19 6.65-3 1.864-.78 3.883-1.122 5.9-1 1.375.076 2.705.51 3.86 1.26.308.202.593.436.85.7.15.18.27.29.26.3z" transform="translate(-78.654 26) translate(85 50)"/>
                            <path fill="#B78876" d="M55 69.75c2.843.003 5.569-1.132 7.57-3.152 2-2.02 3.11-4.755 3.08-7.598 0-3.7-.1-6.9-.1-6.9s8.55-.79 9.18-9.25c.63-8.46.36-28 .36-28-9.547-4.814-20.951-4.087-29.81 1.9l-1.31.89.4 41.6c.076 5.82 4.81 10.5 10.63 10.51z" transform="translate(-78.654 26) translate(85 50)"/>
                            <path fill="#AA6550" d="M65.57 52c-3.913-.165-7.688-1.495-10.84-3.82 0 0 2.23 6.26 10.73 6l.11-2.18z" transform="translate(-78.654 26) translate(85 50)"/>
                            <path fill="#B78876" d="M46.15 27c-.15-.05-5.35-.73-4.86 5.41.49 6.14 6.53 3.62 6.53 3.44 0-.18-1.67-8.85-1.67-8.85z" transform="translate(-78.654 26) translate(85 50)"/>
                            <path fill="#AA6550" d="M45.76 33.8s-.1.09-.27.19c-.248.125-.533.153-.8.08-.849-.45-1.391-1.32-1.42-2.28-.055-.527.006-1.06.18-1.56.086-.398.363-.727.74-.88.246-.092.523.01.65.24.1.16.07.29.1.3.03.01.13-.12.06-.37-.05-.145-.144-.271-.27-.36-.181-.114-.4-.153-.61-.11-.478.147-.853.522-1 1-.22.552-.3 1.15-.23 1.74.019 1.125.72 2.126 1.77 2.53.353.085.724-.004 1-.24.1-.08.12-.27.1-.28z" transform="translate(-78.654 26) translate(85 50)"/>
                            <path fill="#263238" d="M75.15 16.28c2.09-.51 2.84-3.64 2.77-5.79-.174-2.187-1.528-4.104-3.53-5-2.01-.858-4.289-.821-6.27.1-.61-3.276-3.512-5.622-6.843-5.53-3.331.093-6.1 2.595-6.527 5.9-.2-1.63-2.05-2.55-3.7-2.65-1.66-.172-3.307.433-4.46 1.64-1.147 1.265-1.147 3.195 0 4.46-1.849-.244-3.722.205-5.26 1.26-1.53 1.088-2.41 2.873-2.34 4.75.125 1.908 1.46 3.52 3.31 4 .62.13.78-.29 1.11.25.18.572.262 1.17.24 1.77-.118 1.94 0 3.888.35 5.8 1.192-.445 2.522.14 3 1.32.424 1.13.542 2.35.34 3.54.52.79 1.83.55 2.4-.2.488-.811.705-1.757.62-2.7l.12-9.8c.987.53 2.173.53 3.16 0 .973-.553 1.599-1.562 1.66-2.68 1.402 1.365 3.347 2.021 5.29 1.786 1.942-.235 3.674-1.336 4.71-2.996.979.844 2.06 1.56 3.22 2.13 1.167.579 2.51.697 3.76.33 1.22-.42 2.94-.32 2.92-1.62M72.86 28.37c.006.646-.505 1.178-1.15 1.2-.305.025-.607-.075-.836-.277-.23-.201-.369-.488-.384-.793-.006-.642.498-1.173 1.14-1.2.305-.022.607.079.837.28.231.2.373.485.393.79zM73.12 27c-.15.15-1.05-.51-2.33-.51s-2.21.64-2.35.49c-.14-.15.08-.35.49-.65.552-.383 1.208-.586 1.88-.58.665-.005 1.314.205 1.85.6.4.34.53.65.46.65zM60.35 28.67c.006.646-.505 1.178-1.15 1.2-.301.02-.598-.083-.824-.284-.225-.201-.36-.484-.376-.786-.011-.644.496-1.178 1.14-1.2.626-.029 1.162.445 1.21 1.07z" transform="translate(-78.654 26) translate(85 50)"/>
                            <path fill="#263238" d="M60.56 27.28c-.15.15-1.05-.51-2.33-.51s-2.21.64-2.35.48c-.14-.16.08-.34.49-.64.552-.383 1.208-.586 1.88-.58.665-.005 1.314.205 1.85.6.4.3.53.58.46.65zM65.19 36.75c.676-.208 1.374-.332 2.08-.37.33 0 .63-.1.69-.32.036-.348-.041-.699-.22-1-.3-.79-.63-1.62-1-2.49-.894-2.103-1.62-4.273-2.17-6.49 1.065 2.024 1.964 4.131 2.69 6.3.32.88.63 1.71.92 2.5.197.396.256.846.17 1.28-.097.234-.296.41-.54.48-.18.048-.364.074-.55.08-.686.095-1.381.105-2.07.03zM61.43 37.63c.21 0 .22 1.38 1.4 2.36s2.67.84 2.68 1c.01.16-.33.27-1 .29-.812.008-1.6-.268-2.23-.78-.608-.5-.996-1.217-1.08-2-.01-.5.14-.87.23-.87zM60.89 22.27c-.13.35-1.4.18-2.9.36s-2.71.59-2.91.28c-.09-.15.12-.47.61-.81.648-.424 1.39-.685 2.16-.76.764-.087 1.538.005 2.26.27.56.22.83.49.78.66zM72.65 23.34c-.23.29-1.11 0-2.17 0-1.06 0-1.95.19-2.16-.11-.21-.3.05-.44.44-.72.526-.331 1.14-.495 1.76-.47.623.009 1.228.212 1.73.58.37.28.5.58.4.72z" transform="translate(-78.654 26) translate(85 50)"/>
                            <path fill="#455A64" d="M38.48 14.5c.065.33.201.64.4.91.653.71 1.527 1.179 2.48 1.33 1.473.404 3.02.466 4.52.18.915-.217 1.757-.673 2.44-1.32.785-.676 1.138-1.727.92-2.74-.178-.493-.628-.837-1.15-.88-.248-.025-.495.053-.684.215-.19.163-.304.396-.316.645.06 1.233.845 2.313 2 2.75 1.224.536 2.616.536 3.84 0 1.304-.57 2.43-1.483 3.26-2.64.445-.578.712-1.273.77-2 .037-.696-.41-1.326-1.08-1.52-.688-.204-1.433-.007-1.93.51-.479.567-.677 1.32-.54 2.05.42 1.535 1.677 2.699 3.24 3 1.616.408 3.325.216 4.81-.54 1.497-.717 2.658-1.986 3.24-3.54.29-.713.227-1.52-.17-2.18-.367-.636-1.17-.87-1.82-.53-.625.38-.978 1.082-.91 1.81.09.745.407 1.443.91 2 .964 1.139 2.3 1.9 3.77 2.15 2.84.48 5.85-1.25 6.57-3.7.37-1.179-.232-2.444-1.38-2.9-.534-.117-1.094-.01-1.547.296-.453.306-.762.785-.853 1.324-.196 1.025.068 2.085.72 2.9.57.743 1.356 1.292 2.25 1.57 1.464.484 3.076.096 4.16-1 .705-.659 1.184-1.523 1.37-2.47.055-.331.092-.665.11-1 .056.331.056.669 0 1-.155.988-.625 1.9-1.34 2.6-.508.517-1.137.899-1.83 1.11-.83.26-1.72.26-2.55 0-.963-.288-1.814-.864-2.44-1.65-.72-.891-1.017-2.053-.81-3.18.137-.62.492-1.17 1-1.55.537-.42 1.244-.558 1.9-.37 1.365.512 2.1 1.994 1.68 3.39-.435 1.39-1.397 2.552-2.68 3.24-1.326.768-2.876 1.058-4.39.82-1.586-.26-3.028-1.076-4.07-2.3-.56-.639-.91-1.435-1-2.28-.088-.923.363-1.815 1.16-2.29.42-.247.925-.305 1.39-.16.451.148.839.444 1.1.84.495.788.584 1.765.24 2.63-.621 1.69-1.877 3.07-3.5 3.85-1.597.813-3.436 1.012-5.17.56-.851-.215-1.641-.622-2.31-1.19-.688-.572-1.152-1.37-1.31-2.25-.154-.884.096-1.79.68-2.47.634-.597 1.543-.8 2.37-.53.435.119.814.388 1.07.76.245.366.37.8.36 1.24-.069.812-.37 1.586-.87 2.23-.89 1.225-2.091 2.188-3.48 2.79-1.349.563-2.871.538-4.2-.07-.627-.294-1.176-.733-1.6-1.28-.434-.539-.651-1.22-.61-1.91.037-.357.209-.685.48-.92.282-.225.644-.322 1-.27.666.06 1.235.506 1.45 1.14.268 1.139-.117 2.333-1 3.1-.732.674-1.629 1.144-2.6 1.36-1.546.279-3.135.19-4.64-.26-.984-.185-1.875-.704-2.52-1.47-.148-.213-.25-.455-.3-.71-.032-.073-.053-.15-.06-.23z" transform="translate(-78.654 26) translate(85 50)"/>
                            <path fill="#E0E0E0" d="M51.33 131.44L128.9 131.44 141.69 81.9 76.97 81.9 66.73 128.21 51.33 128.57z" transform="translate(-78.654 26) translate(85 50)"/>
                        </g>
                        <g fill-rule="nonzero">
                            <path fill="#FFBE9D" d="M144.66 109.34c-1.17-9.67-2.72-17.91-2.72-17.91H121s2.6 12.26 2 15.11c-.5 2.47-41.11 4.12-51.69 4.28-.63-.47-1.55.32-2.36-.39-.725-.63-1.334-1.38-1.8-2.22-.633-1.02-1.121-2.125-1.45-3.28-.054-.457-.39-.83-.838-.934-.449-.103-.914.087-1.162.474-.42.91.06 3.93 2.07 6.84 2.01 2.91-3.26 1.4-5.19.89-1.93-.51-8-1.83-8.6-1.35-.92.71-.34 1.85 1.6 2.32 1.94.47 7.65 2.3 7.34 3.33-.31 1.03-10.1-1.75-10.1-1.75s-2-.94-2.4.24c-.72 2.13 9.9 4.28 10.91 4.46.71.13.41 1.26-.34 1.09-.75-.17-9.71-3-10.46-.83-.58 1.65 8.72 1.85 10.26 3.49 1.54 1.64-7-.88-7.53.72-.19.6 3.38.88 8.51 1.6 5.267.504 10.56.691 15.85.56 11.9.66 53.94 1.52 62.92.89 10.46-.74 6.52-14.31 6.12-17.63z" transform="translate(-78.654 26) translate(419 60)"/>
                            <path fill="#FFB29D" d="M19.7 59.19s-5.77-5.89-6.89-6.12C11.69 52.84.88 47.41.88 47.41c-.356.395-.525.924-.464 1.452.061.529.347 1.005.784 1.308 1.6 1.27 5.38 3.56 5.38 3.56L3.91 59s2.56 8.55 3 8.38c.44-.17.9-1.68.9-1.68L7 63l5.23 4.37 2.27-.26 5.2-7.92z" transform="translate(-78.654 26) translate(419 60)"/>
                            <path fill="#EB9078" d="M15.25 56.36c-1.26-.49-2.477-1.082-3.64-1.77l-2.85-.76.32-.22c-.045.866.225 1.718.76 2.4.791 1 1.782 1.825 2.91 2.42l.19.1-.07.19c-.467 1.286-.51 2.688-.12 4 .28 1 .59 1.49.54 1.52-.388-.4-.667-.892-.81-1.43-.513-1.363-.534-2.863-.06-4.24l.12.29c-1.22-.597-2.288-1.466-3.12-2.54-.611-.78-.91-1.76-.84-2.75v-.3l.29.08 2.83.85c1.237.628 2.424 1.35 3.55 2.16z" transform="translate(-78.654 26) translate(419 60)"/>
                            <path fill="#FFB29D" d="M5.59 59.09c.5 2.264 1.25 4.464 2.24 6.56.492-.609.835-1.325 1-2.09" transform="translate(-78.654 26) translate(419 60)"/>
                            <path fill="#EB9078" d="M8.85 63.56c.015.823-.285 1.621-.84 2.23l-.21.28-.17-.33c-.353-.685-.667-1.39-.94-2.11-.648-1.431-1.02-2.971-1.1-4.54.15 0 .66 2 1.58 4.35.3.78.6 1.5.87 2.11l-.38-.05c.45-.613.847-1.262 1.19-1.94z" transform="translate(-78.654 26) translate(419 60)"/>
                            <path fill="#EB9078" d="M9 55.16c.44.687.777 1.435 1 2.22.317.84.525 1.717.62 2.61.128 1.118-.03 2.25-.46 3.29-.192.442-.445.856-.75 1.23l-.26.3-.17-.36c-.708-1.506-1.27-3.077-1.68-4.69-.211-.646-.322-1.32-.33-2 .14 0 .77 2.91 2.47 6.44h-.43c.273-.334.498-.704.67-1.1.646-1.807.646-3.783 0-5.59-.28-.767-.506-1.552-.68-2.35z" transform="translate(-78.654 26) translate(419 60)"/>
                            <path fill="#FFB29D" d="M19.7 59.19L60.68 86.93 48.72 101.88 14.54 67.06z" transform="translate(-78.654 26) translate(419 60)"/>
                            <path fill="#263238" d="M142.4 91.1c-3.635.304-7.283.414-10.93.33-3.649.108-7.3.025-10.94-.25 7.283-.413 14.584-.44 21.87-.08z" transform="translate(-78.654 26) translate(419 60)"/>
                            <path fill="#ED2012" d="M142.11 92.16l-4-20.13c-3-16.47-26.05-17.61-26.05-17.61l-18.12-.29s-13.44-1.81-21.73 7.54c-8.58 9.68-19.12 21.11-19.12 21.11l8 20.25L80.16 87.3c-1.597 2.791-2.476 5.935-2.56 9.15 0 5.37 5.6 7.84 5.6 7.84l1.71 16.33L79.25 147l59.19-2.37c-.994-8.843-3.978-17.346-8.73-24.87l1.1-27.59 11.3-.01z" transform="translate(-78.654 26) translate(419 60)"/>
                            <path fill="#263238" d="M78.07 92.73c.156-.926.394-1.836.71-2.72.25-.83.56-1.82.94-2.91.19-.54.4-1.11.64-1.69.13-.32.3-.59.38-.85.089-.281.126-.576.11-.87-.05-.623-.143-1.24-.28-1.85-.12-.613-.23-1.203-.33-1.77-.19-1.08-.36-2.08-.52-3-.216-.918-.33-1.857-.34-2.8.342.878.59 1.79.74 2.72.2.91.41 1.91.65 3 .107.567.227 1.157.36 1.77.154.657.254 1.326.3 2 .017.359-.03.718-.14 1.06-.12.36-.29.63-.4.89-.25.57-.46 1.12-.67 1.66l-1 2.85c-.287.877-.673 1.72-1.15 2.51z" transform="translate(-78.654 26) translate(419 60)"/>
                            <g fill="#000" opacity=".2">
                                <path d="M.39.05c.74 11.23 1.17 21.57 1.39 32.81 1.5-.053 2.957-.51 4.22-1.32C6.58 26.74 3 12.15.39.05z" transform="translate(-78.654 26) translate(419 60) translate(117 75)"/>
                            </g>
                            <path fill="#455A64" d="M138.61 142s-77.38-16.21-84.88-12.66c-7.5 3.55-42 89-42 89l27.82 12 29.94-72.57s54.18 19.79 63.64 17.82c9.46-1.97 5.48-33.59 5.48-33.59z" transform="translate(-78.654 26) translate(419 60)"/>
                            <path fill="#455A64" d="M104 146.53c-1.19.39-45.95 18.79-49.11 24.71-3.16 5.92 4.6 104.14 4.6 104.14H85l-1.58-87.3 49.69-12.59L104 146.53z" transform="translate(-78.654 26) translate(419 60)"/>
                            <path fill="#263238" d="M133.35 175.69c-.246-.003-.49-.033-.73-.09l-2.08-.37c-1.81-.33-4.42-.85-7.63-1.53-6.43-1.36-15.27-3.41-24.91-6.17-4.82-1.4-9.37-2.85-13.48-4.26-4.11-1.41-7.77-2.82-10.79-4.12-1.52-.61-2.88-1.22-4.07-1.76-1.19-.54-2.21-1-3-1.43l-1.89-.95c-.228-.096-.443-.22-.64-.37.24.059.471.146.69.26l1.94.86c.83.38 1.86.83 3.06 1.33 1.2.5 2.56 1.09 4.09 1.68 3 1.24 6.72 2.56 10.81 4 4.09 1.44 8.66 2.82 13.47 4.21 9.62 2.76 18.44 4.87 24.84 6.33l7.58 1.71 2.06.47c.233.043.46.11.68.2z" transform="translate(-78.654 26) translate(419 60)"/>
                            <path fill="#000" d="M83.18 128.8L135.93 133.04 133.68 127.14 83.7 126.42z" opacity=".2" transform="translate(-78.654 26) translate(419 60)"/>
                            <path fill="#263238" d="M84.54 7c-3.87 1.25-8.36 3.82-6.13 15.93 1 5.33 2.22 10.76 5.79 14.83.46.699 1.234 1.125 2.07 1.14.577-.16 1.082-.513 1.43-1 4.06-4.42 7.52-9.65 8.62-15.55 1.1-5.9-.55-12.56-5.2-16.36" transform="translate(-78.654 26) translate(419 60)"/>
                            <path fill="#FFB29D" d="M92 59.54c-.13-5.57-.36-11.54-.36-11.54s-8.48-1.07-8.85-9.72c-.37-8.65-.45-23.81-.45-23.81L98.89 2.22l11.62 16 .29 41c.019 2.505-.963 4.914-2.728 6.692-1.765 1.778-4.167 2.778-6.672 2.778-5.095.002-9.264-4.056-9.4-9.15z" transform="translate(-78.654 26) translate(419 60)"/>
                            <path fill="#EB9078" d="M91.6 48c4.018-.108 7.918-1.387 11.22-3.68 0 0-2.64 6.3-11.08 5.8L91.6 48zM92.36 37.92c-.163-.327-.134-.716.074-1.016.208-.3.563-.462.926-.424.097-.816.798-1.426 1.62-1.41.816.063 1.489.666 1.64 1.47.118.804-.24 1.604-.92 2.05-.688.423-1.537.486-2.28.17-.596-.219-1.034-.735-1.15-1.36" transform="translate(-78.654 26) translate(419 60)"/>
                            <path fill="#263238" d="M84.36 25.33c-.006.644.506 1.174 1.15 1.19.305.025.607-.075.836-.277.23-.201.369-.488.384-.793 0-.64-.5-1.168-1.14-1.2-.307-.025-.612.076-.844.28-.231.203-.37.492-.386.8zM84.1 24c.15.16 1-.51 2.33-.51s2.21.65 2.35.49c.14-.16-.08-.35-.49-.65-.554-.378-1.21-.58-1.88-.58-.665 0-1.312.21-1.85.6-.4.29-.56.57-.46.65zM96.87 25.63c-.006.644.506 1.174 1.15 1.19.305.025.607-.075.836-.277.23-.201.369-.488.384-.793 0-.64-.5-1.168-1.14-1.2-.307-.022-.61.08-.84.283-.232.203-.372.49-.39.797zM96.66 24.23c.15.15 1.05-.51 2.32-.51 1.27 0 2.22.64 2.36.49.14-.15-.08-.35-.49-.65-.548-.365-1.192-.56-1.85-.56-.664.003-1.31.212-1.85.6-.43.28-.56.56-.49.63zM92 33.7c-.672-.21-1.367-.335-2.07-.37-.33 0-.64-.1-.69-.32-.036-.348.041-.699.22-1 .3-.79.62-1.62 1-2.48.893-2.106 1.619-4.28 2.17-6.5-1.064 2.028-1.963 4.138-2.69 6.31-.32.87-.63 1.7-.92 2.5-.205.393-.265.847-.17 1.28.097.232.297.406.54.47.179.052.364.08.55.08.682.102 1.375.112 2.06.03zM95.78 34.59c-.2 0-.21 1.37-1.39 2.36-1.18.99-2.67.83-2.68 1-.01.17.33.27 1 .29.812.008 1.6-.268 2.23-.78.608-.5.996-1.217 1.08-2-.02-.54-.14-.88-.24-.87zM96.09 21.38c.12.34 1.4.18 2.9.36s2.71.59 2.91.28c.08-.15-.13-.48-.61-.81-.649-.422-1.39-.683-2.16-.76-.767-.097-1.547-.005-2.27.27-.55.22-.86.49-.77.66zM84.57 20.29c.23.29 1.11 0 2.17 0 1.06 0 2 .19 2.16-.11.09-.15 0-.44-.45-.71-.518-.34-1.13-.509-1.75-.48-.623.009-1.228.212-1.73.58-.37.28-.5.58-.4.72z" transform="translate(-78.654 26) translate(419 60)"/>
                            <path fill="#263238" d="M102.79 20.68c1.534-.001 3.02-.53 4.21-1.5.77 2 .75 4.3 1.45 6.36.7 2.06 2.35 10.58 4.51 10.26 2-.3 3.38-8.89 3.89-10.82 1.39-5.36-.36-11.25-3.91-15.49-4.23-5-11.27-9.31-17.81-8.84C92.196.767 89.365 1.76 87 3.5c0 0-3.53 2.73-3.24 6.2.41 4.85 7.48 8 12.33 7.82l.7.67c1.584 1.603 3.747 2.5 6 2.49z" transform="translate(-78.654 26) translate(419 60)"/>
                            <path fill="#263238" d="M82.25 19.09c1.207-.991 2.057-2.35 2.42-3.87.347-1.513.534-3.058.56-4.61 0-.45-.05-1-.48-1.14-.43-.14-.77.32-1 .7-1.517 2.873-2.054 6.163-1.53 9.37.09-.09-.29.24-.2.15M113.57 55c2.5-2.215 3.763-5.511 3.38-8.83-.31-2.49-1.54-4.86-1.42-7.36.09-2 1-3.79 1.66-5.67 1.032-3.07 1.29-6.347.75-9.54-.43-2.52-1.45-5.09-3.53-6.58-2.08-1.49-5.35-1.45-6.88.59l-.74.23c-3.479 7.259-2.45 15.874 2.64 22.11-3.855 4.365-3.773 10.942.19 15.21-2.727 3.558-3.323 8.309-1.56 12.43l.07.15c-3.83 4.06-3.989 10.351-.37 14.6-1.925 1.618-3.226 3.856-3.68 6.33-.388 2.484.84 4.94 3.06 6.12-1.856 1.583-2.754 4.018-2.37 6.427.383 2.41 1.994 4.445 4.25 5.373 1.084-1.094 2.28-2.07 3.57-2.91-.702-.337-1.277-.891-1.64-1.58.804.584 1.777.89 2.77.87l-1.2-5.44c-.131-.994-.472-1.948-1-2.8-.041-.058-.088-.111-.14-.16 1.41-.71 2.516-1.907 3.11-3.37 1.08-2.79.33-6-1.11-8.63 1.52-3.13 3-6.42 3-9.9.016-1.586-.326-3.154-1-4.59 1.373-2.08 2.119-4.509 2.15-7-.008-2.63-1.558-5.01-3.96-6.08z" transform="translate(-78.654 26) translate(419 60)"/>
                            <path fill="#455A64" d="M112.47 82.28c-.605.621-1.457.937-2.32.86-.862.097-1.722-.192-2.35-.79.07-.14 1.06.3 2.34.27 1.28-.03 2.26-.48 2.33-.34zM114.72 69.89c-1.892 1.144-3.582 2.593-5 4.29-1.267 1.798-2.24 3.786-2.88 5.89-.025-.663.077-1.325.3-1.95.916-3.107 2.96-5.76 5.73-7.44.553-.392 1.184-.661 1.85-.79zM113.72 68.19c-1.335 1.072-3.235 1.072-4.57 0 .07-.14 1 .29 2.29.28 1.29-.01 2.21-.41 2.28-.28zM115.28 66.5c-.164-3.761-1.912-7.277-4.81-9.68.535.184 1.02.489 1.42.89 2.08 1.806 3.352 4.37 3.53 7.12.085.56.037 1.132-.14 1.67zM114 53.59c.12.07-.41.9-1.49 1.32-1.08.42-2 .18-2 0s.87-.15 1.81-.52c.94-.37 1.55-.9 1.68-.8zM110.89 54.17c-.548-.485-.932-1.128-1.1-1.84-.498-1.701-.417-3.52.23-5.17.656-1.61 1.613-3.079 2.82-4.33.45-.558.978-1.046 1.57-1.45-.37.607-.802 1.173-1.29 1.69-1.09 1.28-1.97 2.725-2.61 4.28-.605 1.55-.734 3.246-.37 4.87.21.664.461 1.316.75 1.95zM114.48 40.17c-1.6.681-3.454.303-4.66-.95.09-.12 1 .44 2.29.69 1.29.25 2.34.09 2.37.26zM118.48 26.42c-.747.212-1.53.266-2.3.16-3.824-.294-7.226-2.54-9-5.94-.408-.663-.667-1.407-.76-2.18.08 0 .36.81 1.08 2 1.875 3.164 5.102 5.289 8.75 5.76 1.35.19 2.23.11 2.23.2z" transform="translate(-78.654 26) translate(419 60)"/>
                            <path fill="#455A64" d="M117.71 31.56s-.19.23-.66.43c-.688.264-1.435.334-2.16.2-2.344-.552-4.423-1.903-5.88-3.82-1.515-1.844-2.497-4.068-2.84-6.43-.105-.708-.139-1.425-.1-2.14-.002-.265.038-.528.12-.78.1 0 0 1.12.34 2.86.439 2.26 1.432 4.377 2.89 6.16 1.39 1.823 3.329 3.151 5.53 3.79.926.19 1.888.097 2.76-.27zM115.86 15.73c-.31.2-.647.359-1 .47-.94.359-1.927.584-2.93.67-1.52.14-3.055-.01-4.52-.44-1.873-.509-3.591-1.474-5-2.81l.26.06c-1.14.391-2.327.624-3.53.69-2.35.14-4.696-.342-6.8-1.4-1.707-.876-3.2-2.119-4.37-3.64-.794-1.009-1.425-2.136-1.87-3.34-.123-.327-.226-.661-.31-1 0-.23-.07-.35 0-.36.608 1.604 1.454 3.108 2.51 4.46 2.634 3.253 6.684 5.024 10.86 4.75 1.154-.064 2.294-.282 3.39-.65h.15l.11.1c1.334 1.277 2.951 2.22 4.72 2.75 1.413.438 2.893.621 4.37.54 1.348-.131 2.677-.416 3.96-.85z" transform="translate(-78.654 26) translate(419 60)"/>
                            <path fill="#455A64" d="M112 8.76c-.324.103-.66.16-1 .17-.67.08-1.64.17-2.84.28l-4.21.34c-1.736.166-3.484.166-5.22 0-3.179-.365-6.2-1.585-8.74-3.53-.76-.582-1.466-1.232-2.11-1.94-.249-.249-.46-.532-.63-.84.07-.07 1 1.1 3 2.49 2.537 1.804 5.488 2.939 8.58 3.3 1.704.145 3.416.145 5.12 0l4.23-.23c1.2-.06 2.18-.1 2.85-.11.325-.015.65.009.97.07zM112.45 93.57c-.64.722-1.567 1.121-2.53 1.09-.953.156-1.925-.132-2.64-.78.863.149 1.735.236 2.61.26.865-.132 1.72-.322 2.56-.57z" transform="translate(-78.654 26) translate(419 60)"/>
                            <path fill="#455A64" d="M110.44 95.1c.005-.526.052-1.051.14-1.57.079-1.241-.06-2.487-.41-3.68-.373-1.186-.948-2.3-1.7-3.29-.59-.76-1-1.16-1-1.23.499.224.935.568 1.27 1 .877.973 1.53 2.127 1.91 3.38.386 1.255.482 2.582.28 3.88-.038.536-.206 1.054-.49 1.51z" transform="translate(-78.654 26) translate(419 60)"/>
                            <path fill="#FFB29D" d="M144.66 109.34c-1.17-9.67-2.72-17.91-2.72-17.91H121s2.6 12.26 2 15.11c-.5 2.47-41.11 4.12-51.69 4.28-.63-.47-1.55.32-2.36-.39-.725-.63-1.334-1.38-1.8-2.22-.633-1.02-1.121-2.125-1.45-3.28-.054-.457-.39-.83-.838-.934-.449-.103-.914.087-1.162.474-.42.91.06 3.93 2.07 6.84 2.01 2.91-3.26 1.4-5.19.89-1.93-.51-8-1.83-8.6-1.35-.92.71-.34 1.85 1.6 2.32 1.94.47 7.65 2.3 7.34 3.33-.31 1.03-10.1-1.75-10.1-1.75s-2-.94-2.4.24c-.72 2.13 9.9 4.28 10.91 4.46.71.13.41 1.26-.34 1.09-.75-.17-9.71-3-10.46-.83-.58 1.65 8.72 1.85 10.26 3.49 1.54 1.64-7-.88-7.53.72-.19.6 3.38.88 8.51 1.6 5.267.504 10.56.691 15.85.56 11.9.66 53.94 1.52 62.92.89 10.46-.74 6.52-14.31 6.12-17.63z" transform="translate(-78.654 26) translate(419 60)"/>
                            <path fill="#E0E0E0" d="M5.68 70.96L22.93 121.35 101.01 121.35 100.43 118.75 68.86 117.78 54.31 70.93z" transform="translate(-78.654 26) translate(419 60)"/>
                            <path fill="#FFF" d="M40.28 94.63c.52 2.06-.37 4.08-2 4.51-1.63.43-3.33-.89-3.84-3-.51-2.11.36-4.08 2-4.51 1.64-.43 3.33.93 3.84 3z" transform="translate(-78.654 26) translate(419 60)"/>
                        </g>
                        <g>
                            <path fill="#263238" fill-rule="nonzero" d="M0.69 0.34L0.69 6.87 201.99 6.87 201.99 154.11 247.49 154.11 247.49 6.87 448.32 6.87 448.32 0.34z" transform="translate(-78.654 26) translate(117 181)"/>
                        </g>
                        <g fill-rule="nonzero" transform="translate(-78.654 26) translate(223 51)">
                            <path fill="#FFD8C1" d="M57.94 144c18.93.12 37.88.25 56.73 2 7.52.68 15.65 1.93 20.88 7.37 4.9 5.1 6 12.63 6.94 19.64l8.26 64.13c-26.177 2.669-52.594 1.831-78.55-2.49.193-15.893.377-31.783.55-47.67l.42-7.46L44 177.57 57.94 144z"/>
                            <path fill="#FAFAFA" d="M122.29 168.81c1.09-3.16 2.512-6.198 4.24-9.06-1.102 3.156-2.522 6.192-4.24 9.06z"/>
                            <path fill="#263238" d="M96.63 124.54H173.64V128.29000000000002H96.63z" transform="rotate(180 135.135 126.415)"/>
                            <path fill="#263238" d="M185.58 128.29L200.02 74.16 139.89 74.16 126.81 128.29z"/>
                            <path fill="#F5F5F5" d="M130.41 124.19L184.13 124.19 196.64 76.66 142.64 76.66z"/>
                            <path fill="#E0E0E0" d="M143.98 85.87L140.65 99.33 176.26 99.33 180.06 85.87z"/>
                            <path fill="#455A64" d="M172.55 84.09c0 .15-6.25.26-13.95.26-7.7 0-14-.11-14-.26 0-.15 6.25-.26 14-.26s13.95.17 13.95.26z"/>
                            <path fill="#263238" d="M156.32 88.44c-3.742.347-7.508.347-11.25 0 3.742-.347 7.508-.347 11.25 0zM165.34 88.23c-2.431.346-4.899.346-7.33 0 2.431-.346 4.899-.346 7.33 0z"/>
                            <path fill="#455A64" d="M175.52 90.88c0 .15-6.89.26-15.38.26-8.49 0-15.39-.11-15.39-.26 0-.15 6.89-.26 15.39-.26s15.38.12 15.38.26z"/>
                            <path fill="#EA0028" d="M154.09 93.11c-3.324.348-6.676.348-10 0 3.324-.348 6.676-.348 10 0z"/>
                            <path fill="#455A64" d="M172.76 96.29c0 .15-6.39.26-14.27.26s-14.27-.11-14.27-.26c0-.15 6.39-.26 14.27-.26s14.27.12 14.27.26zM151.75 103.19c-3.659.345-7.341.345-11 0 3.659-.345 7.341-.345 11 0z"/>
                            <path fill="#263238" d="M161.2 103.23c-2.504.327-5.041.306-7.54-.06 2.504-.327 5.041-.306 7.54.06zM166.5 103c0 .14-.71.26-1.59.26-.88 0-1.59-.12-1.59-.26s.71-.26 1.59-.26c.88 0 1.59.1 1.59.26z"/>
                            <path fill="#EA0028" d="M144.43 106c0 .14-.78.26-1.75.26s-1.75-.12-1.75-.26.78-.26 1.75-.26 1.75.07 1.75.26z"/>
                            <path fill="#263238" d="M154.94 106c-2.786.346-5.604.346-8.39 0 2.786-.346 5.604-.346 8.39 0z"/>
                            <path fill="#455A64" d="M180 105.63c0 .15-5 .26-11.2.26-6.2 0-11.19-.11-11.19-.26 0-.15 5-.26 11.19-.26 6.19 0 11.2.12 11.2.26z"/>
                            <path fill="#263238" d="M143.9 108.82c0 .14-.81.26-1.8.26s-1.81-.12-1.81-.26.81-.27 1.81-.27 1.8.12 1.8.27zM149.42 108.71c-.697.251-1.443.34-2.18.26-.734.081-1.476-.008-2.17-.26.694-.252 1.436-.341 2.17-.26.737-.08 1.483.009 2.18.26z"/>
                            <path fill="#455A64" d="M165.87 108.5c-4.7.347-9.42.347-14.12 0 4.7-.347 9.42-.347 14.12 0zM157.16 113.48c-2.839.264-5.69.35-8.54.26-2.85.09-5.701.004-8.54-.26 2.839-.258 5.69-.344 8.54-.26 2.85-.084 5.701.002 8.54.26z"/>
                            <path fill="#EA0028" d="M167.14 113.27c-2.572.347-5.178.347-7.75 0 2.572-.347 5.178-.347 7.75 0z"/>
                            <path fill="#263238" d="M181.94 113.27c-4.273.347-8.567.347-12.84 0 4.273-.347 8.567-.347 12.84 0zM178.49 83.88c0 .14-.59.26-1.32.26-.73 0-1.33-.12-1.33-.26s.59-.26 1.33-.26c.74 0 1.32.12 1.32.26z"/>
                            <path fill="#EA0028" d="M151.43 82.08c-1.928.347-3.902.347-5.83 0 1.928-.347 3.902-.347 5.83 0z"/>
                            <path fill="#EBEBEB" d="M195.74 80.08L141.74 80.08 142.65 76.66 196.65 76.66z"/>
                            <circle cx="144.91" cy="78.39" r="1" fill="#FAFAFA"/>
                            <circle cx="146.95" cy="78.39" r="1" fill="#FAFAFA"/>
                            <circle cx="148.98" cy="78.39" r="1" fill="#FAFAFA"/>
                            <path fill="#FFBE9D" d="M85 100l7.71 23.22c2.08 6.27 7.56 7.35 14.17 7.35h42.89V121l-39.18-5.59-9.39-23.91L85 100z"/>
                            <path fill="#FFBE9D" d="M154.44 119l3.4-1.61s3.67-7.09 4.51-6.8c.84.29 1.09 2.37-.38 5.62l4.52-1.29s9.8 4.53 9.37 5.14c-.26.631-.792 1.11-1.446 1.305-.655.194-1.362.082-1.924-.305-2.14-1.09-4.93-2.37-4.93-2.37l-5.29 1.51 6.81.86 6.41 5.83c-1.166.894-2.796.856-3.92-.09l-16.64 3.57-5.21.3V121l4.72-2z"/>
                            <path fill="#EB996E" d="M171.57 126.71c-.07 0-.38-.45-1-1.1-.353-.373-.761-.69-1.21-.94-.564-.27-1.175-.43-1.8-.47-1.69-.115-3.366-.4-5-.85 1.693-.058 3.388.052 5.06.33.7.05 1.381.248 2 .58.481.29.905.667 1.25 1.11.348.377.59.84.7 1.34zM169 127.37c-.06 0-.12-.34-.58-.44-.46-.1-1.24-.18-2-.26-.984-.01-1.965-.11-2.93-.3.966-.324 1.997-.4 3-.22.711.062 1.412.206 2.09.43.242.089.43.284.51.53-.03.18-.09.27-.09.26z"/>
                            <path fill="#FFBE9D" d="M53.87 14.58l-2.33 47.17 20.2 1.91 1.11-11.45s7.13 1.76 9.29-4.83c1.38-4.22 2.61-37.19 2.61-37.19l-30.88 4.39z"/>
                            <path fill="#263238" d="M86.5 15.7c.55 4.41-5.62 7-5.62 7L79.8 33.14c-.965-.069-1.935-.069-2.9 0 .52-4.9-5.79-3.94-6.43-.6-.64 3.34 3 5.36 3 5.36-2.53 3.88-3.55 5.92-7.13 9.55-3.88 3.93-6 4.25-10 4.13l-4.41-.2s-1.57-3.77-2.72-12.67c-.56-4.29-3.9-9.9-2.95-16.87C49 2 68 4.08 68 4.08c9.83.28 17.2 1.37 18.5 11.62z"/>
                            <path fill="#263238" d="M72 4.66c4.29.11 8.72.44 12.49 2.5 3.77 2.06 6.78 7.55 6 11.76-.71.13-1.49.42-2.2.55-.29-.53-.65-2.49-.95-3 0 .85-.26 2.74-.25 3.58-1.25.35-2.23-.35-3.49 0-.56-3.21-1.688-6.295-3.33-9.11"/>
                            <path fill="#FFD8C1" d="M86.53 103.84l3.89 12.64 23.24-5.48c-.76-2.34-7.2-17.12-13.83-33.66-3.685-9.218-11.91-15.847-21.7-17.49-6.618-1.213-13.323-1.882-20.05-2-11.73.13-26.94 5.06-29.26 16.57-1.78 8.78 2.17 23.13 2.17 42L28.21 156l58.32 2-5.91-34.72 5.91-19.44z"/>
                            <g fill="#000" opacity=".2">
                                <path d="M.74.71c7.32 1.49 14.84 0 22.3-.46 4.52-.27 9.54-.76 13.11 2 2.84 2.21 4 5.91 4.8 9.41 1.78 7.58 3 23.26 3.84 37.89.56 9.868 6.364 18.68 15.21 23.09 2.33 1.16 8.48 1.2 8.52 2l-59.8 2.45L.74.71z" transform="translate(26 111)"/>
                            </g>
                            <path fill="#D4AAAB" d="M.67 105.58v64.51c0 4.065 1.615 7.963 4.49 10.836 2.876 2.874 6.775 4.487 10.84 4.484h43v-79.83c0-3.772-3.058-6.83-6.83-6.83H7.5c-3.772 0-6.83 3.058-6.83 6.83z"/>
                            <path fill="#455A64" d="M104 186c-.305-1.006-.522-2.037-.65-3.08-.35-2-.82-4.87-1.37-8.43-.55-3.56-.98-7.89-2.98-12.17-1.032-2.22-2.335-4.302-3.88-6.2-1.687-2.018-3.65-3.789-5.83-5.26-2.173-1.48-4.556-2.627-7.07-3.4-2.337-.748-4.767-1.169-7.22-1.25-4.73-.11-9-.09-12.65-.15-3.65-.06-6.53-.11-8.54-.18-1.051.03-2.102-.04-3.14-.21 1.039-.157 2.09-.228 3.14-.21 2-.06 4.93-.12 8.54-.17 3.61-.05 7.89-.13 12.69-.07 2.542.055 5.064.47 7.49 1.23 2.619.79 5.101 1.977 7.36 3.52 2.255 1.526 4.276 3.372 6 5.48 1.604 1.977 2.948 4.152 4 6.47.24.56.44 1.12.65 1.67.11.28.21.55.31.83l.24.83c.15.56.3 1.1.45 1.64.15.54.2 1.08.29 1.61.37 2.12.56 4.07.81 5.86.46 3.58.82 6.48 1 8.48.214 1.04.334 2.098.36 3.16z"/>
                            <path fill="#263238" d="M52.7 51.42c3.98.221 7.972.094 11.93-.38 4.486-.758 8.693-2.682 12.2-5.58 2-1.85 2.53-2.82 2.65-6.7l.32-5.65-5.68-15.52-14.52-1.2-13.45 6.15-1.22 20.35c-.145 2.173.602 4.31 2.068 5.92 1.466 1.61 3.525 2.552 5.702 2.61z"/>
                            <path fill="#263238" d="M78.35 41.1c0 2.31-2.09 4-4 5.29-1.91 1.29-4.13 2.62-4.7 4.87-1.12 4.36 4.55 7.66 5.08 12.13.4 3.26-2 6.1-3.51 9-2.516 4.931-2.685 10.731-.46 15.8-6.11.53-12.26 1.06-18.4 1.29l-4.25-8.32-3.16 8.44c-5.39-.014-10.77-.456-16.09-1.32 3.16-2.5 3.4-7.15 3.2-11.17-.2-4.02-1-11.16 1.7-14.18 1.85-2.08 4.74-3 6.64-5 2.75-2.94 1.44-4.1.09-7.3-1.56-3.775-2.037-7.91-1.38-11.94.63-4 3.12-7.39 5.13-10.9 2.01-3.51 2.12-6 3.23-10.86"/>
                            <path fill="#263238" d="M46.31 16.39c-2.188 4.019-6.202 6.715-10.75 7.22 2.112 1.36 4.715 1.726 7.12 1-1.953 1.863-4.322 3.234-6.91 4 .87 2.24 3.53 3.2 5.92 3.37 4.295.277 8.529-1.125 11.81-3.91 4.406-4.24 5.826-10.715 3.6-16.41"/>
                            <path fill="#263238" d="M50.64 15.41c2.2-.03 4.17-1.373 5-3.41.784-2.027.827-4.265.12-6.32-.428-1.92-1.644-3.571-3.35-4.55-2.11-1-4.69-.21-6.56 1.19-2.238 1.632-3.689 4.128-4 6.88-.277 2.78.931 5.501 3.18 7.16 2.323 1.589 5.397 1.532 7.66-.14"/>
                            <path fill="#455A64" d="M38.28 31c1.603.427 3.252.659 4.91.69 1.795-.02 3.573-.358 5.25-1 4.187-1.5 7.4-4.919 8.64-9.19.522-1.716.742-3.509.65-5.3-.13-1.655-.466-3.288-1-4.86 0 0 .08.1.18.31.151.299.285.606.4.92.43 1.16.695 2.376.79 3.61.15 1.839-.04 3.69-.56 5.46-.635 2.178-1.765 4.18-3.3 5.85-1.57 1.64-3.5 2.89-5.64 3.65-1.734.627-3.567.932-5.41.9-1.236-.02-2.465-.208-3.65-.56-.34-.092-.674-.206-1-.34-.093-.034-.18-.08-.26-.14z"/>
                            <path fill="#455A64" d="M46.29 26.56c3.41-1.91 5.883-5.14 6.84-8.93.057.586-.018 1.177-.22 1.73-.746 2.75-2.541 5.099-5 6.54-.486.335-1.039.56-1.62.66zM42.89 7.05c.077-.283.21-.548.39-.78.466-.66 1.066-1.216 1.76-1.63 1.039-.623 2.229-.948 3.44-.94 1.491.04 2.932.547 4.12 1.45 1.188.883 2.114 2.072 2.68 3.44.446 1.11.674 2.294.67 3.49.003.796-.094 1.589-.29 2.36-.05.289-.152.567-.3.82.145-1.05.219-2.11.22-3.17-.049-1.14-.303-2.26-.75-3.31-.543-1.279-1.42-2.387-2.54-3.21-1.098-.841-2.428-1.326-3.81-1.39-1.133-.026-2.253.242-3.25.78-.914.53-1.71 1.242-2.34 2.09zM57.86 14.4c.08 0 .77 1.37 2.1 3.5.768 1.245 1.696 2.385 2.76 3.39 1.312 1.203 2.926 2.025 4.67 2.38 1.763.344 3.554.524 5.35.54 1.464.1 2.933.063 4.39-.11 1.335-.197 2.615-.667 3.76-1.38-.239.282-.527.52-.85.7-.88.506-1.847.845-2.85 1-1.475.232-2.97.31-4.46.23-1.832.007-3.66-.163-5.46-.51-1.832-.374-3.523-1.254-4.88-2.54-1.075-1.046-1.997-2.237-2.74-3.54-.64-1.1-1.09-2-1.39-2.67-.174-.312-.308-.645-.4-.99z"/>
                            <path fill="#455A64" d="M57.86 14.4c.21.366.394.747.55 1.14.33.73.83 1.79 1.49 3.07.66 1.28 1.47 2.81 2.4 4.47.954 1.825 2.082 3.553 3.37 5.16 1.293 1.606 2.869 2.961 4.65 4 2.817 1.627 6.162 2.08 9.31 1.26 0 0-.1.07-.3.15-.29.117-.587.214-.89.29-1.129.271-2.295.35-3.45.23-1.722-.168-3.392-.681-4.91-1.51-1.839-1.022-3.47-2.379-4.81-4-1.311-1.633-2.448-3.4-3.39-5.27-.91-1.68-1.7-3.22-2.31-4.53-.61-1.31-1.07-2.4-1.35-3.17-.18-.411-.3-.845-.36-1.29zM55.84 13c.31-.376.667-.712 1.06-1 1.02-.802 2.1-1.524 3.23-2.16 1.691-.95 3.5-1.673 5.38-2.15 2.316-.58 4.726-.675 7.08-.28 2.371.38 4.606 1.36 6.49 2.85 1.52 1.237 2.728 2.812 3.53 4.6.532 1.2.837 2.489.9 3.8.024.356.024.714 0 1.07 0 .24-.05.36-.07.36-.028-1.75-.416-3.476-1.14-5.07-.815-1.706-2.009-3.204-3.49-4.38-1.83-1.417-3.985-2.352-6.27-2.72-2.29-.382-4.633-.3-6.89.24-1.845.448-3.628 1.12-5.31 2-1.137.599-2.235 1.267-3.29 2-.382.309-.787.59-1.21.84zM68.54 4.19c-4.37.648-8.354 2.87-11.2 6.25.253-.606.624-1.157 1.09-1.62 1.045-1.204 2.29-2.22 3.68-3 1.387-.78 2.9-1.311 4.47-1.57.643-.147 1.309-.168 1.96-.06z"/>
                            <path fill="#EA0028" d="M47.37 17.55c.864.158 1.741.238 2.62.24 2.119-.052 4.103-1.048 5.41-2.717 1.306-1.668 1.798-3.834 1.34-5.903-.21-.855-.498-1.688-.86-2.49.185.163.34.355.46.57.347.57.603 1.191.76 1.84.586 2.188.107 4.525-1.291 6.307-1.399 1.782-3.554 2.802-5.819 2.753-.678.013-1.354-.085-2-.29-.223-.066-.433-.171-.62-.31z"/>
                            <path fill="#455A64" d="M56.74 88.62c-.135-.219-.25-.45-.34-.69-.2-.46-.49-1.14-.85-2-1.047-2.486-1.838-5.073-2.36-7.72-.34-1.843-.425-3.724-.25-5.59.181-2.164.848-4.259 1.95-6.13 1.16-1.94 2.91-3.68 3.38-6 .47-2.32-.5-4.8-1.75-7-.62-1.13-1.31-2.2-1.95-3.31-.626-1.088-1.177-2.217-1.65-3.38-.98-2.195-1.367-4.609-1.12-7 .408-2.138 1.347-4.14 2.73-5.82 1.15-1.438 2.105-3.021 2.84-4.71.52-1.421.856-2.903 1-4.41.129-1.142.199-2.29.21-3.44v-2.19c-.026-.253-.026-.507 0-.76.047.25.07.505.07.76 0 .5.07 1.24.08 2.19.024 1.158-.017 2.316-.12 3.47-.13 1.545-.467 3.065-1 4.52-.72 1.727-1.673 3.349-2.83 4.82-1.322 1.63-2.216 3.566-2.6 5.63-.227 2.312.156 4.642 1.11 6.76.468 1.139 1.013 2.245 1.63 3.31.62 1.09 1.32 2.17 2 3.31.652 1.128 1.175 2.325 1.56 3.57.39 1.228.469 2.534.23 3.8-.276 1.207-.793 2.347-1.52 3.35-.66 1-1.37 1.89-1.95 2.83-1.074 1.806-1.733 3.828-1.93 5.92-.185 1.83-.125 3.676.18 5.49.492 2.632 1.226 5.212 2.19 7.71.32.85.57 1.54.76 2 .116.23.217.467.3.71z"/>
                            <path fill="#263238" d="M49 31.08c-.093.197-.21.382-.35.55l-1.07 1.53c-1.334 1.842-2.404 3.862-3.18 6-.502 1.476-.732 3.031-.68 4.59.042.86.197 1.71.46 2.53.305.866.686 1.702 1.14 2.5.88 1.66 2.09 3.44 2.19 5.66.024 1.108-.249 2.203-.79 3.17-.538.977-1.21 1.872-2 2.66-1.62 1.403-3.152 2.902-4.59 4.49-1.182 1.573-1.846 3.474-1.9 5.44-.058 1.798.065 3.597.37 5.37.258 1.566.425 3.145.5 4.73.173 2.33-.409 4.656-1.66 6.63-.355.521-.787.986-1.28 1.38-.126.104-.26.197-.4.28-.09.06-.14.09-.15.08.639-.534 1.198-1.157 1.66-1.85 1.153-1.961 1.664-4.234 1.46-6.5-.097-1.57-.284-3.132-.56-4.68-.323-1.801-.464-3.63-.42-5.46.05-2.072.75-4.077 2-5.73 1.44-1.608 2.98-3.124 4.61-4.54 1.51-1.53 2.75-3.43 2.67-5.46-.08-2.03-1.21-3.76-2.1-5.44-.464-.826-.852-1.693-1.16-2.59-.269-.86-.42-1.75-.45-2.65-.073-1.618.158-3.236.68-4.77.814-2.158 1.95-4.181 3.37-6 .48-.65.87-1.14 1.15-1.47.146-.164.307-.314.48-.45z"/>
                            <path fill="#455A64" d="M67.75 88s-.06 0-.17-.08c-.165-.091-.326-.191-.48-.3-.588-.44-1.092-.983-1.49-1.6-1.367-2.354-1.771-5.145-1.13-7.79.403-1.797.938-3.562 1.6-5.28.76-1.933 1.3-3.946 1.61-6 .28-2.281.15-4.594-.38-6.83-.598-2.402-1.613-4.68-3-6.73-1.458-2.062-2.576-4.344-3.31-6.76-.537-2.292-.699-4.656-.48-7 .34-4.46 1.2-8.38 1.1-11.73.059-2.642-.5-5.261-1.63-7.65-.476-.839-1.014-1.641-1.61-2.4.726.66 1.332 1.442 1.79 2.31 1.223 2.395 1.844 5.051 1.81 7.74.15 3.39-.67 7.36-1 11.76-.202 2.292-.037 4.6.49 6.84.732 2.366 1.835 4.601 3.27 6.62 1.393 2.101 2.409 4.43 3 6.88.533 2.294.655 4.664.36 7-.328 2.097-.892 4.15-1.68 6.12-.672 1.692-1.224 3.43-1.65 5.2-.654 2.565-.319 5.282.94 7.61.539.816 1.232 1.52 2.04 2.07z"/>
                            <path fill="#263238" d="M58.12 126.14c0-.14 5-.92 11.18-1.73 6.18-.81 11.23-1.35 11.24-1.21.01.14-5 .92-11.17 1.73-6.17.81-11.23 1.35-11.25 1.21z"/>
                            <path fill="#263238" d="M73.39 124.29c-.606-.313-1.173-.695-1.69-1.14L70 121.8c-.404-.282-.703-.69-.85-1.16-.106-.563.105-1.139.55-1.5.406-.37.956-.538 1.5-.46.482.086.923.324 1.26.68.54.582.856 1.337.89 2.13.085.692.007 1.394-.23 2.05-.09 0 0-.8-.13-2-.076-.69-.383-1.335-.87-1.83-.529-.619-1.458-.695-2.08-.17-.298.24-.447.621-.39 1 .117.364.348.68.66.9l1.67 1.43c.53.41 1.003.888 1.41 1.42z"/>
                            <path fill="#263238" d="M72.72 124.34c.014-.587.176-1.162.47-1.67.265-.573.601-1.11 1-1.6.24-.295.504-.57.79-.82.358-.298.815-.451 1.28-.43.299.024.556.22.66.5.088.25.066.527-.06.76-.192.339-.427.652-.7.93-.43.469-.917.882-1.45 1.23-.46.365-1.002.613-1.58.72 0-.08.55-.37 1.36-1 .476-.373.915-.792 1.31-1.25.232-.248.434-.523.6-.82.13-.28 0-.51-.2-.54-.64-.05-1.2.57-1.65 1.05-.409.446-.768.936-1.07 1.46-.48.87-.68 1.5-.76 1.48z"/>
                            <path fill="#FAFAFA" d="M109.84 157.7c-.81-.897-1.483-1.908-2-3-.666-1.015-1.185-2.12-1.54-3.28.81.897 1.483 1.908 2 3 .661 1.018 1.18 2.121 1.54 3.28zM87.38 154.91c-1.011.76-2.121 1.38-3.3 1.84-1.11.611-2.298 1.072-3.53 1.37 2.12-1.376 4.418-2.456 6.83-3.21zM74.73 155.91c-2.935-2.025-5.79-4.163-8.56-6.41 1.624.764 3.145 1.728 4.53 2.87 1.487 1.005 2.841 2.195 4.03 3.54zM73.58 131.67c.05.15-2.24 1-4.9 2.32-2.66 1.32-4.68 2.73-4.77 2.6 2.767-2.415 6.09-4.105 9.67-4.92zM69.27 113.82c-1.219-.846-2.333-1.832-3.32-2.94-1.107-.987-2.096-2.097-2.95-3.31 1.218.847 2.332 1.834 3.32 2.94 1.112.982 2.102 2.093 2.95 3.31zM81.94 100.62c-.788.838-1.699 1.553-2.7 2.12-.907.711-1.92 1.278-3 1.68 1.689-1.548 3.604-2.83 5.68-3.8h.02zM71.71 98.29c-1.05-.855-1.988-1.84-2.79-2.93-.935-.982-1.739-2.08-2.39-3.27 1.052.857 1.99 1.845 2.79 2.94.935.978 1.739 2.074 2.39 3.26zM87.6 79.17c-1.26.838-2.576 1.587-3.94 2.24-1.284.807-2.62 1.529-4 2.16 1.097-1.057 2.36-1.925 3.74-2.57 1.293-.831 2.711-1.449 4.2-1.83zM96 91.12c.126-1.292.43-2.56.9-3.77.299-1.26.766-2.475 1.39-3.61-.432 2.55-1.202 5.033-2.29 7.38zM99.75 104.73c-1.385-.328-2.69-.93-3.84-1.77-1.238-.691-2.324-1.627-3.19-2.75.1-.11 1.54 1.08 3.48 2.32 1.94 1.24 3.6 2.06 3.55 2.2zM76.89 72.22c.582-1.454 1.324-2.839 2.21-4.13.741-1.382 1.63-2.68 2.65-3.87-.574 1.461-1.315 2.85-2.21 4.14-.743 1.378-1.631 2.672-2.65 3.86zM54.06 94.19c-1.838-.09-3.662-.355-5.45-.79-1.825-.256-3.62-.691-5.36-1.3 1.838.09 3.662.355 5.45.79 1.825.256 3.62.691 5.36 1.3z"/>
                        </g>
                        <g fill-rule="nonzero" transform="translate(-78.654 26) translate(197)">
                            <path fill="#F5F5F5" d="M151.83 56.54H225.99V112.69999999999999H151.83z"/>
                            <path fill="#EA0028" d="M206.3 69.76H214.96V104.26H206.3zM192.05 67.14H200.71V104.25H192.05zM178.24 71.74H186.9V104.25H178.24z"/>
                            <path fill="#FFF" d="M178.24 71.74H186.9V104.25H178.24z" opacity=".3"/>
                            <path fill="#EA5E54" d="M164.22 76.81H172.88V104.25H164.22zM206.3 69.76H214.96V104.26H206.3z"/>
                            <path fill="#263238" d="M221.54 104.38c0 .14-14.24.26-31.81.26s-31.8-.12-31.8-.26 14.24-.26 31.8-.26c17.56 0 31.81.11 31.81.26zM217.92 71.89c0 .06-1-.12-2.77 0-2.514.146-4.96.868-7.15 2.11-1.511.852-2.864 1.959-4 3.27-1.24 1.39-2.35 3.07-3.67 4.75-1.32 1.845-3.08 3.33-5.12 4.32-2.237.92-4.632 1.392-7.05 1.39-2.46.09-4.85 0-7.14.07-2.2.078-4.388.376-6.53.89-1.928.474-3.773 1.24-5.47 2.27-1.47.909-2.76 2.078-3.81 3.45-1.553 1.985-2.451 4.403-2.57 6.92.016.923.113 1.844.29 2.75-.336-.878-.505-1.81-.5-2.75.046-2.585.919-5.087 2.49-7.14 1.053-1.429 2.366-2.647 3.87-3.59 1.725-1.076 3.608-1.875 5.58-2.37 2.172-.54 4.394-.856 6.63-.94 2.32-.11 4.71 0 7.14-.08 2.351.004 4.68-.447 6.86-1.33 1.984-.954 3.701-2.383 5-4.16 1.31-1.64 2.43-3.33 3.71-4.74 1.179-1.327 2.575-2.443 4.13-3.3 2.246-1.24 4.756-1.925 7.32-2 .692-.016 1.384.02 2.07.11.233.012.464.045.69.1zM152.56 80.24c-.153.02-.307.02-.46 0H145.64l-18.28-.3h-.22v-.22-26.85c0-14.36.06-27.36.08-36.82 0-4.68.06-8.48.08-11.16 0-1.28 0-2.3.05-3V1.1c-.015-.09-.015-.18 0-.27.013.09.013.18 0 .27v3.79c0 2.68.05 6.48.09 11.16 0 9.46 0 22.46.07 36.82v26.85l-.22-.22 18.28.48 5.11.17 1.34.06c.18-.005.361.005.54.03zM151.83 99.22c-.12.015-.24.015-.36 0H146.41l-14.89-.05-49.12-.37-39.07-.39h-.14l-.06-.13L34.41 78 32 72.36l-.62-1.49c-.073-.168-.133-.342-.18-.52.096.157.18.32.25.49.16.36.38.85.67 1.47.58 1.32 1.42 3.21 2.49 5.62 2.14 4.88 5.18 11.84 8.85 20.23l-.2-.13 39.08.3 49.11.52 14.89.22 4.05.09h1.05c.132.004.263.024.39.06z"/>
                            <path fill="#E0E0E0" d="M50.49 98.45c0 1.846-1.115 3.508-2.823 4.21-1.708.7-3.67.3-4.966-1.014-1.296-1.314-1.67-3.281-.947-4.98.723-1.697 2.4-2.79 4.246-2.766 2.49.033 4.49 2.06 4.49 4.55z"/>
                            <path fill="#455A64" d="M34.46 72.28H7.09c-3.833 0-6.94-3.107-6.94-6.94s3.107-6.94 6.94-6.94h27.37c3.833 0 6.94 3.107 6.94 6.94 0 1.84-.731 3.606-2.033 4.907-1.301 1.302-3.066 2.033-4.907 2.033z"/>
                            <circle cx="127.86" cy="79.09" r="4.55" fill="#E0E0E0"/>
                            <rect width="62" height="23" x="107" y="1" fill="#455A64" rx="6.94"/>
                            <path fill="#FFF" d="M115.764 17v-5.972L118.667 17h.666l2.903-5.972V17H124V7h-1.694L119 13.639 115.694 7H114v10h1.764zm16.514 0v-1.764h-4.306V7h-1.889v10h6.195zm7.68-1.875v-2.403h2.39v-1.458h-2.39V8.875H138.5v2.389h-2.403v1.458h2.403v2.403h1.458zM148.181 17l.632-2.083h3.766l.643 2.083h1.945L152.11 7h-2.82l-3.055 10h1.945zm3.854-3.847h-2.685l1.332-4.383 1.353 4.383zM158.61 17v-1.889h-1.889V17h1.89zm4.278 0V7H161v10h1.889z"/>
                        </g>
                    </g>
                </g>
            </g>
        </g>
    </g>
</svg>
