<svg xmlns="http://www.w3.org/2000/svg" xmlns:xlink="http://www.w3.org/1999/xlink" width="323" height="214" viewBox="0 0 323 214">
    <defs>
        <path id="msqlcbp73a" d="M0.536 0.822H322.802V213.867H0.536z"/>
    </defs>
    <g fill="none" fill-rule="evenodd">
        <g>
            <g transform="translate(-774 -2151) translate(774 2151)">
                <mask id="x963odau5b" fill="#fff">
                    <use xlink:href="#msqlcbp73a"/>
                </mask>
                <g mask="url(#x963odau5b)">
                    <g fill-rule="nonzero">
                        <g>
                            <path fill="#E0E0E0" d="M41.919 157.332c-4.298-7.658-11.725-21.4-18.152-33.165-6.426-11.764-12.265-22.4-16.53-30.082-2.13-3.837-3.86-6.935-5.06-9.096L.794 82.52l-.35-.644c-.079-.15-.11-.23-.11-.23l.135.214.373.636 1.414 2.447c1.223 2.128 2.979 5.226 5.124 9.055 4.305 7.658 10.16 18.27 16.594 30.051 6.434 11.78 13.838 25.523 18.127 33.236" transform="translate(-12.42 6.516) translate(0 47.662)"/>
                            <path fill="#E0E0E0" d="M3.44 106.826c.19.029.376.077.556.143.357.104.866.27 1.493.477 1.247.429 2.963 1.056 4.838 1.78l4.766 1.882 1.454.556c.184.06.362.136.532.23-.193-.023-.382-.068-.564-.135-.35-.11-.858-.27-1.486-.492-1.247-.437-2.955-1.08-4.83-1.811l-4.813-1.843-1.462-.556c-.17-.057-.333-.134-.484-.23zM17.643 111.37c-.064 0 1.08-3.614 2.55-8.015 1.47-4.4 2.709-7.944 2.772-7.944.064 0-1.072 3.615-2.542 8.023-1.47 4.41-2.709 7.96-2.78 7.936zM26.707 129.879c.084-.178.188-.346.31-.5l.905-1.311c.794-1.105 1.82-2.646 2.915-4.377 1.097-1.732 2.042-3.337 2.71-4.504l.793-1.383c.087-.175.194-.34.318-.492-.064.184-.143.362-.238.532-.159.342-.413.795-.731 1.422-.627 1.192-1.589 2.812-2.653 4.552-1.065 1.74-2.177 3.273-2.979 4.353-.397.54-.73.977-.97 1.27-.11.16-.237.307-.38.438zM12.956 128.6c.18-.02.36-.02.54 0l1.47.08c1.247.07 2.963.198 4.853.349 1.891.15 3.607.302 4.846.42l1.47.16c.18.009.358.038.532.087-.179.03-.361.03-.54 0l-1.47-.08c-1.247-.079-2.963-.198-4.853-.349-1.891-.15-3.607-.302-4.846-.429l-1.454-.15c-.185-.008-.37-.037-.548-.088zM18.874 145.957c.233-.02.467-.02.7 0l1.882.095c1.589.095 3.797.23 6.228.405 2.43.175 4.623.342 6.212.469l1.882.175c.233.013.464.044.691.095-.23.02-.46.02-.69 0l-1.891-.095c-1.59-.088-3.797-.23-6.22-.398-2.423-.166-4.631-.341-6.22-.476l-1.883-.167c-.233-.012-.464-.047-.69-.103z" transform="translate(-12.42 6.516) translate(0 47.662)"/>
                            <path fill="#F5F5F5" d="M289.697 91.066h45.478s-4.028-7.316-15.729-6.252c-11.177 1.017-11.748-3.598-17.428-4.17-5.68-.572-10.422 3.79-12.32 10.422zM53.77 8.508h35.803s-3.178-5.76-12.384-4.917C68.387 4.385 67.942.755 63.469.31c-4.471-.445-8.205 2.979-9.698 8.198z" transform="translate(-12.42 6.516) translate(0 47.662)"/>
                        </g>
                        <g>
                            <path fill="#FF725E" d="M1.82 119.155c.14.657.14 1.337 0 1.994-.01.673-.153 1.337-.422 1.954-.137-1.34.01-2.693.429-3.972l-.008.024zM3.034 111.283c.098.666.054 1.345-.127 1.994-.046.664-.224 1.312-.524 1.906-.097-.666-.054-1.345.127-1.994.045-.664.223-1.312.524-1.906zM4.719 103.514c-.026 1.34-.332 2.66-.898 3.876-.053-.672.031-1.347.246-1.986.085-.668.307-1.311.652-1.89zM6.847 95.864c-.11 1.334-.491 2.631-1.12 3.813-.018-.672.104-1.34.358-1.962.128-.662.387-1.291.762-1.85zM9.43 88.357c-.023.673-.185 1.333-.477 1.939-.168.649-.463 1.26-.866 1.795.021-.672.184-1.333.476-1.938.166-.65.46-1.261.866-1.796zM12.456 81.025c-.066.669-.266 1.317-.588 1.907-.208.64-.54 1.235-.977 1.747.066-.67.269-1.318.596-1.906.198-.644.528-1.239.969-1.748zM15.887 73.876c-.343 1.293-.949 2.502-1.78 3.55.105-.664.346-1.3.708-1.866.516-1 .993-1.755 1.072-1.684zM19.78 66.925c-.134.656-.405 1.276-.795 1.82-.548.945-1.072 1.676-1.175 1.588.142-.655.412-1.276.794-1.827.556-.921 1.08-1.644 1.176-1.58zM24.053 60.229c-.183.647-.496 1.25-.921 1.771-.604.914-1.168 1.589-1.263 1.541.187-.645.5-1.248.921-1.771.604-.914 1.168-1.605 1.263-1.541zM28.708 53.794c-.215.637-.562 1.221-1.016 1.716-.66.874-1.263 1.533-1.359 1.47-.095-.064.366-.795 1.025-1.716.66-.921 1.24-1.541 1.35-1.47zM33.737 47.662c.087.08-.421.794-1.12 1.652-.7.858-1.35 1.462-1.438 1.39-.088-.071.413-.794 1.12-1.652.707-.858 1.35-1.477 1.438-1.39zM39.107 41.807c.087.08-.461.795-1.216 1.59-.754.794-1.43 1.373-1.51 1.302-.078-.072.462-.794 1.216-1.589.755-.794 1.43-1.382 1.51-1.303zM44.818 36.287c.08.087-.508.794-1.303 1.509-.794.715-1.509 1.287-1.588 1.207-.08-.08.5-.754 1.302-1.509.803-.755 1.51-1.295 1.59-1.207zM50.84 31.115c.07.088-.557.731-1.39 1.43-.474.479-1.039.857-1.661 1.112-.071-.087.548-.73 1.39-1.43.47-.481 1.036-.86 1.66-1.112zM57.147 26.301c.071.096-.588.692-1.47 1.343-.5.448-1.083.793-1.716 1.017-.071-.088.588-.691 1.47-1.35.496-.452 1.08-.795 1.716-1.01zM63.732 21.869c.064.095-.636.66-1.55 1.255-.522.42-1.125.731-1.77.914-.064-.096.627-.66 1.549-1.264.52-.423 1.123-.731 1.771-.905zM70.564 17.826c.055.103-.668.62-1.59 1.167-.548.386-1.17.656-1.826.795.447-.49.987-.887 1.588-1.168.549-.387 1.17-.657 1.828-.794zM77.625 14.195c-.484.465-1.056.827-1.684 1.065-.569.36-1.208.599-1.874.699.484-.465 1.056-.827 1.684-1.065.57-.36 1.208-.598 1.874-.699zM84.886 10.986c-.51.44-1.105.77-1.748.97-.587.325-1.237.522-1.906.58.51-.438 1.105-.765 1.747-.962.59-.322 1.238-.521 1.907-.588zM92.321 8.214c-.531.41-1.143.705-1.795.866-.609.283-1.268.443-1.938.468.532-.407 1.144-.699 1.795-.858.607-.287 1.267-.45 1.938-.476zM99.915 5.894c-.56.372-1.19.626-1.85.747-.623.254-1.29.376-1.963.357 1.18-.633 2.479-1.009 3.813-1.104zM107.629 4.02c-1.214.56-2.532.86-3.869.881.578-.345 1.222-.565 1.89-.643.636-.215 1.31-.296 1.979-.239zM115.445 2.606c-1.245.49-2.58.711-3.916.65.598-.305 1.252-.486 1.922-.531.65-.172 1.328-.213 1.994-.12zM123.333 1.66c-1.28.414-2.633.555-3.972.413.617-.268 1.282-.409 1.955-.413.664-.144 1.352-.144 2.017 0zM131.261 1.168c-.63.24-1.305.342-1.978.302-.665.094-1.343.056-1.994-.112.63-.24 1.305-.342 1.978-.301.666-.095 1.343-.057 1.994.11zM139.197 1.144c-.643.195-1.319.258-1.986.183-.67.055-1.346-.024-1.986-.23 1.313-.26 2.665-.244 3.972.047zM147.132 1.589c-1.329.18-2.68.084-3.971-.278.653-.156 1.33-.18 1.993-.072.677-.022 1.35.097 1.978.35zM155.028 2.478c-.664.116-1.344.1-2.001-.047-.67-.021-1.33-.178-1.939-.461 1.345-.112 2.699.062 3.972.508h-.032zM162.845 3.837c-1.34.027-2.67-.225-3.908-.739.669-.08 1.347-.024 1.994.167.67.06 1.32.254 1.914.572zM170.582 5.656c-1.339-.044-2.652-.375-3.853-.97 1.338.055 2.65.385 3.853.97zM178.192 7.944c-1.334-.127-2.625-.536-3.789-1.2.67.005 1.33.143 1.946.405.663.134 1.29.405 1.843.795zM185.651 10.66c-.671-.042-1.327-.218-1.93-.516-.65-.176-1.255-.484-1.78-.906.672.043 1.328.219 1.93.517.65.175 1.256.483 1.78.905zM192.936 13.822c-.666-.083-1.308-.296-1.891-.628-.637-.215-1.224-.558-1.724-1.008.666.079 1.31.292 1.89.627 1.025.453 1.82.906 1.725 1.009zM200.03 17.405c-.665-.116-1.297-.368-1.86-.74-.969-.508-1.715-1-1.66-1.103.661.117 1.29.369 1.851.738.624.255 1.19.63 1.668 1.105zM206.885 21.4c-.654-.152-1.268-.439-1.804-.842-.937-.564-1.652-1.104-1.588-1.207.653.162 1.269.45 1.81.85.93.564 1.645 1.104 1.582 1.2zM213.502 25.801c-.642-.2-1.239-.523-1.756-.953-.898-.62-1.589-1.2-1.517-1.295.644.195 1.24.52 1.755.953.906.62 1.581 1.2 1.518 1.295zM219.849 30.575c-.631-.236-1.209-.596-1.7-1.056-.858-.676-1.51-1.287-1.438-1.383.63.235 1.205.594 1.692 1.057.842.675 1.517 1.287 1.446 1.382zM225.902 35.746c-.08.088-.795-.429-1.629-1.151-.834-.723-1.438-1.375-1.358-1.462.08-.087.794.429 1.628 1.152.834.723 1.438 1.342 1.359 1.461zM231.645 41.188c-.08.08-.794-.477-1.589-1.24-.519-.426-.95-.95-1.27-1.54.079-.08.794.476 1.588 1.247.794.77 1.35 1.453 1.271 1.533zM237.055 46.995c-.088.08-.747-.517-1.486-1.327-.739-.81-1.263-1.533-1.176-1.589.088-.055.747.517 1.486 1.335s1.263 1.51 1.176 1.58zM242.123 53.111c-.096.072-.723-.564-1.406-1.414-.472-.48-.842-1.05-1.089-1.676.096-.08.723.556 1.406 1.414.472.48.842 1.05 1.089 1.676zM246.817 59.514c-.095.063-.69-.612-1.318-1.501-.443-.505-.778-1.094-.985-1.732.095-.072.683.596 1.318 1.493.44.51.774 1.101.985 1.74zM251.123 66.179c-.095.055-.644-.652-1.223-1.59-.411-.533-.711-1.143-.882-1.794.095-.064.651.643 1.231 1.588.415.53.713 1.142.874 1.796zM255.04 73.082c-.104.055-.613-.684-1.137-1.645-.385-.552-.656-1.176-.794-1.835.103-.055.611.676 1.136 1.637.387.553.658 1.18.794 1.843zM258.534 80.23c-.456-.493-.807-1.074-1.032-1.707-.348-.575-.573-1.216-.66-1.883.456.494.808 1.075 1.033 1.708.35.574.575 1.216.66 1.883zM261.608 87.523c-.427-.517-.744-1.118-.929-1.763-.317-.592-.504-1.245-.548-1.915.424.52.74 1.12.93 1.764.315.592.502 1.245.547 1.914zM264.238 95.014c-.382-.545-.652-1.16-.795-1.811-.274-.616-.42-1.28-.429-1.954.381.549.651 1.167.795 1.819.278.611.425 1.274.429 1.946zM266.422 102.648c-.606-1.19-.957-2.495-1.032-3.829.606 1.191.957 2.495 1.032 3.829zM268.154 110.417c-.526-1.23-.796-2.555-.794-3.893.333.587.541 1.236.611 1.907.196.643.258 1.318.183 1.986zM269.425 118.241c-.3-.604-.467-1.264-.492-1.938-.162-.652-.192-1.33-.088-1.994.466 1.27.664 2.622.58 3.972v-.04zM270.227 126.137c-.263-.617-.393-1.283-.381-1.954-.133-.66-.133-1.341 0-2.002.263.62.393 1.289.381 1.962.134.658.134 1.336 0 1.994z" transform="translate(-12.42 6.516) translate(25.42 81.025)"/>
                            <path fill="#950A00" d="M246.19 157.173c-.795-2.907-.652-5.958-1.033-8.936-.206-1.59-.691-3.345-2.033-4.234-.89-.588-2.026-.691-2.995-1.144-3.487-1.589-3.742-6.848-6.959-8.921-1.052-.575-2.185-.988-3.36-1.223-4.536-1.216-9.08-3.496-11.455-7.539-.794-1.31-1.303-2.796-2.335-3.916-1.033-1.12-2.82-1.803-4.115-.993.699 2.09 1.366 4.17 2.042 6.236.627 1.882 1.255 3.82 2.534 5.314 1.278 1.493 3.368 2.518 5.258 1.954.598-.296 1.265-.425 1.93-.373.46.168.841.499 1.073.93 2.113 3.177.627 7.641-2.24 10.135-2.868 2.495-6.68 3.424-10.327 4.306-1.295.426-2.682.492-4.011.19-2.344-.794-3.25-3.606-3.615-6.068-.794-5.442-.794-11.217-3.352-16.086-.834-1.534-1.938-2.987-2.328-4.695-.405-1.843.048-3.869-.794-5.56-.842-1.693-3.034-3.043-2.907-5.013.095-1.374 1.398-2.383 2.732-2.82 1.335-.437 2.757-.397 4.123-.739.532-.143 1.152-.429 1.255-.969.111-.794-.969-1.31-1.152-2.113-.182-.802.795-1.589 1.295-2.383 1.08-1.795-.627-4.012-2.446-5.068-1.82-1.057-4.028-1.954-4.655-3.972-.198-.945-.273-1.911-.223-2.876-.103-2.422-1.51-4.948-3.829-5.687-2.32-.739-5.29 1.009-5.243 3.44 0 1.334.866 2.494 1.224 3.773.357 1.279-.048 3.058-1.35 3.264-2.137.326-3.56-3.693-5.458-2.66.35 2.502.691 4.996 1.04 7.506-2.883.977-5.743-1.962-6.481-4.933-.74-2.97-.326-6.148-1.303-9.032-.977-2.883-4.361-5.441-6.975-3.868-.611 3.447 3.758 5.512 5.378 8.603 1.168 2.24.477 5.497-1.867 6.474-2.343.977-5.417-1.756-4.257-3.972.413-.795 1.191-1.359 1.398-2.224.238-1.08-.556-2.09-1.287-2.908-1.144-1.303-2.296-2.582-3.44-3.86-.691-.881-1.553-1.613-2.534-2.153-2.573-1.168-5.56.62-7.34 2.812-1.78 2.192-2.979 4.917-5.235 6.64-3.249 2.511-8.626 1.915-10.835-1.532-2.208-3.448 0-8.969 4.044-9.533 1.54-.198 3.4.111 4.369-1.08 1.7-2.121-1.772-5.64-.088-7.785 1.295-1.644 3.9-.429 5.974-.747 2.073-.317 3.447-2.144 4.87-3.685 1.421-1.541 3.447-2.98 5.409-2.24-.101-1.216.15-2.435.723-3.512.683-1.016 2.272-1.501 3.138-.659-1.224 1.493-.366 3.972 1.247 5.005 1.612 1.032 3.67 1.167 5.608 1.23 1.938.064 4.433-.309 4.87-2.2.142-.611 0-1.31.325-1.858 1.168-2.153 4.917 1.588 6.8 0 1.072-.795.286-2.662-.97-3.178-1.254-.516-2.652-.23-3.971-.381s-2.844-1.065-2.709-2.383c.135-1.319 1.724-2.034 2.065-3.297.572-2.145-3.05-3.249-4.607-1.66-1.557 1.589-1.446 4.083-1.374 6.3.071 2.216-.072 4.765-1.89 6.084-.835.937-2.527.135-2.948-1.04-.42-1.176-.119-2.479-.04-3.726.08-1.247-.262-2.74-1.421-3.241-.795-.358-1.756-.08-2.63-.088-3.447-.079-5.171-4.766-3.63-7.88 1.541-3.114 4.893-4.766 8.118-5.957 2.384-.89 5.22-1.59 7.205-.096.93.715 1.494 1.788 2.383 2.518 1.59 1.264 3.742 1.2 5.704 1.518 3.1.557 5.911 2.168 7.96 4.56.794.92 1.382 2.382.563 3.224-.818.843-3.042.795-2.843 2.05 1.112.49 2.38.481 3.485-.023 1.106-.503 1.945-1.454 2.306-2.614 1.07.692 1.69 1.903 1.628 3.177 1.469-1.02 3.3-1.374 5.043-.974 1.743.399 3.237 1.514 4.116 3.071.317.89.787 1.719 1.39 2.447.707.62 2.105.564 2.336-.342.067-.29.067-.591 0-.881-.278-1.39-.572-2.765-.85-4.14 1.946-.706 3.868 1.121 4.861 2.932 3.678 6.752 7.46 3.567 13.735 5.49 4.25 1.286 5.759 4.352 7.721 8.07 6.021 11.447 14.72 21.376 19.986 33.189.53 1.233 1.033 2.478 1.51 3.733-.072-.31-.128-.612-.207-.921-1.65-7.415-3.995-14.657-7.006-21.631-.641-1.477-1.303-2.944-1.986-4.4-.43-.898-.874-1.812-1.319-2.694-.572-1.16-1.183-2.28-1.795-3.4-.485-.905-.977-1.795-1.486-2.66-.35-.612-.715-1.216-1.088-1.828-.373-.611-.794-1.366-1.255-2.05l-1.358-2.128c-.137-.228-.285-.448-.445-.66-.469-.738-.977-1.469-1.486-2.2-.032-.085-.084-.16-.15-.222-.128-.199-.279-.397-.43-.596-.405-.62-.857-1.223-1.286-1.82-.715-.976-1.446-1.953-2.209-2.899-.611-.794-1.255-1.588-1.914-2.383-.66-.794-1.152-1.398-1.748-2.08-.596-.684-1.16-1.343-1.755-2.003-.723-.794-1.454-1.588-2.217-2.43-2.089-2.233-4.257-4.377-6.513-6.41-.556-.517-1.105-1.018-1.669-1.51-.564-.493-1.143-1.001-1.715-1.486-.572-.484-1.144-.977-1.74-1.445-.596-.47-1.168-.962-1.756-1.422-.587-.461-.945-.755-1.43-1.105-.236-.2-.483-.388-.738-.564-1.017-.794-2.058-1.588-3.106-2.28-.524-.373-1.049-.746-1.589-1.104-.667-.476-1.358-.929-2.05-1.366-.095-.08-.199-.149-.31-.206-.619-.405-1.23-.795-1.874-1.208-.89-.54-1.787-1.088-2.685-1.589-1.025-.603-2.05-1.207-3.106-1.779-1.056-.572-2.32-1.27-3.503-1.859-1.184-.588-2.383-1.2-3.598-1.771-1.216-.572-2.431-1.104-3.662-1.645-2.431-1.048-4.918-2.025-7.428-2.923l-.135-.055c-.961-.342-1.93-.676-2.9-.977-.059-.033-.123-.057-.19-.072-.413-.135-.85-.278-1.287-.405-1.81-.58-3.638-1.096-5.497-1.589-.222-.07-.447-.128-.675-.175-.532-.158-1.072-.278-1.628-.413-1.224-.301-2.463-.58-3.71-.834-1.247-.254-2.614-.54-3.924-.794-1.311-.254-2.757-.477-4.139-.675-3.66-.53-7.305-.893-10.938-1.089-.866-.063-1.708-.103-2.566-.127-.858-.024-1.78-.063-2.67-.071-.889-.008-1.787 0-2.66 0-.874 0-1.78 0-2.677.047-.755 0-1.533 0-2.296.088-1.885.09-3.752.217-5.6.381-.866.072-1.732.167-2.606.278-.874.111-1.74.207-2.59.326-1.437.19-2.843.42-4.25.66l-3.431.635h-.08c-1.167.23-2.295.484-3.447.754h-.183c-1.056.247-2.105.509-3.137.795-1.303.325-2.59.699-3.853 1.072-1.08.318-2.145.644-3.178.993-1.032.35-2.256.747-3.368 1.144l-.119.04c-1.072.381-2.145.794-3.177 1.207-1.033.413-2.169.858-3.257 1.335-1.017.429-2.01.858-3.01 1.31-.382.167-.748.35-1.137.533-1.056.484-2.089.993-3.177 1.517-1.287.627-2.534 1.303-3.781 1.978-1.105.596-2.185 1.215-3.25 1.835-6.17 3.586-12.019 7.698-17.483 12.289-1.923 1.588-3.75 3.24-5.561 4.925-1.517 1.453-3.003 2.923-4.44 4.464-1.287 1.335-2.542 2.709-3.758 4.107 1.216-1.398 2.47-2.772 3.758-4.107h.945c1.771.12 3.614.445 5.306-.087 1.589-.509 2.78-1.669 4.242-2.383 3.734-1.923 9.35-1.59 10.851-5.49.509-1.318.358-2.851 1.049-4.083 1.302-2.295 4.607-2.176 7.213-1.755 1.112.159 2.383.5 2.756 1.589.178.776.016 1.59-.445 2.24-2.287 4.338-5.998 7.758-10.51 9.683-3.685 1.589-8.332 2.534-9.826 6.252.278 1.374 2.67 1.588 2.662 3.01 0 1.112-1.502 1.47-2.153 2.383-.946 1.311.5 3.29 2.129 3.448 1.628.159 3.137-.794 4.488-1.74 4.02-2.78 8.245-5.783 10.207-10.27.795-1.852 1.35-4.084 3.09-5.14 1.074-.546 2.342-.556 3.425-.029 1.082.528 1.856 1.532 2.088 2.714 1.669-.636 4.155-.93 4.719.794.091.62.115 1.249.071 1.875.143 2.565 3.384 4.186 3.377 6.752 0 2.955-3.972 3.916-6.92 3.972-2.684 0-5.37.055-8.062.103-1.171-.084-2.346.115-3.424.58-1.098.518-1.687 1.732-1.414 2.915.318.577.708 1.11 1.16 1.589 1.867 2.494-.58 6.728-3.67 6.355-1.057-.12-2.034-.652-3.074-.842-3.098-.588-5.966 1.795-7.849 4.329-1.882 2.534-3.44 5.505-6.196 7.014-4.448 2.439-11.264.739-13.877 5.092-1.049 1.756-.946 3.916-.922 5.966.024 2.05-.167 4.273-1.588 5.759-1.422 1.485-4.433 1.382-5.029-.572-.171-.875-.08-1.782.262-2.605.88-2.813 1.75-5.627 2.614-8.445.643-2.097 1.279-4.448.27-6.355-1.422-2.708-5.426-3.05-8.007-1.414-2.582 1.637-3.972 4.576-5.029 7.42-.794 2.113-1.779 5.116-3.344 7.427-.794 2.383-1.446 4.766-2.057 7.197-.612 2.43-1.152 4.989-1.59 7.539.393-.242.77-.507 1.129-.795 1.406-1.088 4.655-6.085 6.498-3.137.456.791.326 1.79-.318 2.438-.794.795-2.2.795-2.86 1.653-.794 1.04-.119 2.573.795 3.463.913.89 2.16 1.589 2.748 2.74 1.12 2.249-.683 5.148.397 7.436.93 1.962 3.44 2.446 5.561 2.987l.723.23c1.223-4.202 3.733-7.396 9.763-7.872 8.325-.667 17.952 7.546 21.614 14.298 4.075 7.531 5.084 17.476 12.337 22.02 5.195 3.241 13.21 3.503 15.093 9.326 1.708 5.22-3.289 10.08-4.71 15.379-.922 3.511-.27 7.22-.51 10.82-.238 3.598-1.922 7.641-5.393 8.666-1.922.556-4.186.127-5.846 1.279-2.948 2.081-1.59 7.45-4.497 9.532-1.04.723-2.383.85-3.542 1.255-6.252 2.097-7.332 10.684-5.49 17.016.072.23.143.436.207.667 17.425 14.163 38.362 23.34 60.586 26.555 20.128 2.941 40.67.873 59.808-6.02 4.026-1.455 7.974-3.118 11.828-4.982 5.941-2.85 11.642-6.176 17.047-9.945 3.741-2.594 7.332-5.397 10.756-8.396 2.383-2.082 4.71-4.274 6.95-6.53 1.137-1.168 2.265-2.336 3.337-3.559 8-8.746 14.69-18.606 19.86-29.272 3.161-6.481 5.74-13.23 7.704-20.17.795-2.716 1.47-5.472 2.074-8.269-1.49 1.174-3.384 1.709-5.267 1.486-2.868-.524-4.94-3.352-5.735-6.244z" transform="translate(-12.42 6.516) translate(25.42 81.025)"/>
                            <path fill="#263238" d="M180.678 204.398c-3.757 4.202-5.155 9.938-6.807 15.324-1.653 5.385-3.972 11.041-8.738 14.06-4.766 3.018-12.512 1.676-14.108-3.734-.874-2.93.246-6.085 0-9.135-.342-3.972-2.971-7.38-3.893-11.256-.794-3.313-.286-6.768.096-10.152 2.113-18.461.405-38.304-10.168-53.588-1.295-1.883-2.812-3.75-4.91-4.64-2.578-1.052-5.535-.488-7.546 1.439-1.191 1.183-1.962 2.804-3.352 3.75-3.027 2.057-7.443-.366-8.778-3.774-1.334-3.408-.524-7.237.294-10.803 1.028-4.428 2.047-8.852 3.058-13.274.533-2.312 1.16-4.767 2.956-6.355 2.55-2.217 6.482-1.764 9.445-3.384 3.884-2.113 5.076-7.054 7.832-10.518 2.756-3.463 9.914-4.059 10.327.342 9.58-14.6 22.385 11.01 32.259 10.652 2.868-.11 5.783-1.056 8.54-.254 4.86 1.414 6.632 7.253 7.641 12.218 1.668 8.24 3.34 16.477 5.013 24.712.635 3.138 1.533 6.657 4.329 8.23 2.137 1.207 4.861.913 7.022 2.073 5.72 3.074 2.383 12.281-3.082 15.784s-12.694 5.18-15.872 10.835c-2.383 4.266-1.77 9.755-4.29 13.95-1.786 2.994-4.932 4.869-7.268 7.498z" transform="translate(-12.42 6.516) translate(25.42 81.025)"/>
                            <path fill="#FF725E" d="M24.053 152.868c.12-3.583 1.796-6.935 2.383-10.486.398-2.454.596-5.068.914-7.546-2.093-.398-4.144-.994-6.125-1.78-.43-.118-.806-.382-1.064-.746-.152-.432-.174-.899-.064-1.343.247-2.788-2.16-5.004-4.353-6.736-1.09-.914-2.272-1.713-3.527-2.383 0 .294-.08.564-.103.858-1.46 13.41-.722 26.967 2.185 40.139 1.296 5.86 3.03 11.614 5.187 17.214.882 2.383 1.89 4.806 2.963 7.15 1.326 2.914 2.74 5.782 4.305 8.57 1.438 2.677 3.003 5.307 4.687 7.857 2.29 3.53 4.762 6.94 7.403 10.215 2.341 2.923 4.817 5.733 7.428 8.428-4.107-19-7.77-38.32-17.04-55.32-2.462-4.432-5.337-9.023-5.179-14.091z" transform="translate(-12.42 6.516) translate(25.42 81.025)"/>
                            <path fill="#263238" d="M13.028 115.977c-.12.74-.255 1.47-.366 2.209-.087.603-.15 1.207-.23 1.81.08-.603.143-1.207.23-1.81.111-.723.246-1.414.366-2.209z" transform="translate(-12.42 6.516) translate(25.42 81.025)"/>
                            <path fill="#FF725E" d="M208.124 172.131c5.465-3.503 8.801-12.71 3.082-15.784-2.16-1.16-4.885-.866-7.022-2.073-2.796-1.589-3.694-5.092-4.33-8.23-1.668-8.24-3.339-16.478-5.012-24.713-1.009-4.964-2.78-10.803-7.642-12.217-2.756-.794-5.672.143-8.54.254-9.873.358-22.678-25.253-32.258-10.652-.406-4.401-7.555-3.805-10.327-.342-2.772 3.464-3.972 8.405-7.833 10.518-2.963 1.588-6.895 1.167-9.445 3.384-1.795 1.588-2.383 4.027-2.955 6.355-1.016 4.422-2.036 8.846-3.058 13.273-.794 3.567-1.589 7.388-.294 10.804 1.295 3.416 5.751 5.83 8.778 3.773 1.39-.945 2.16-2.566 3.352-3.75 2.011-1.927 4.968-2.49 7.547-1.437 2.097.89 3.614 2.756 4.909 4.639 10.573 15.284 12.28 35.127 10.168 53.588-.382 3.384-.882 6.84-.096 10.152.922 3.876 3.551 7.284 3.893 11.256.262 3.05-.858 6.204 0 9.135 1.588 5.41 9.35 6.752 14.108 3.734 4.758-3.019 7.077-8.667 8.738-14.06 1.66-5.394 3.05-11.122 6.807-15.324 2.336-2.605 5.481-4.504 7.285-7.499 2.518-4.194 1.89-9.683 4.29-13.949 3.145-5.672 10.35-7.34 15.855-10.835z" transform="translate(-12.42 6.516) translate(25.42 81.025)"/>
                            <g fill="#263238" opacity=".6">
                                <path d="M.831.302c-.05.23-.108.437-.14.675C.548 1.7.44 2.447.315 3.193.441 2.447.549 1.7.69.977.74.74.831.532.831.302z" transform="translate(-12.42 6.516) translate(25.42 81.025) translate(12.71 112.8)"/>
                            </g>
                            <g fill="#263238" opacity=".6">
                                <path d="M.54.064C.457.659.366 1.27.3 1.867.365 1.27.456.659.54.064z" transform="translate(-12.42 6.516) translate(25.42 81.025) translate(11.915 119.95)"/>
                            </g>
                            <path fill="#FF725E" d="M28.24 130.101l-.723-.23c-2.13-.54-4.64-1.025-5.56-2.987-1.081-2.288.722-5.187-.398-7.435-.588-1.176-1.803-1.827-2.748-2.74-.946-.914-1.637-2.424-.795-3.464.66-.874 2.05-.874 2.86-1.653.646-.647.774-1.65.31-2.438-1.835-2.947-5.084 2.05-6.49 3.138-.36.287-.737.552-1.128.794-.048.23-.104.437-.135.675-.135.723-.239 1.47-.358 2.216-.119.747-.254 1.47-.365 2.209-.088.603-.151 1.207-.23 1.81-.08.605-.167 1.208-.23 1.804 1.254.67 2.436 1.469 3.526 2.383 2.193 1.732 4.6 3.972 4.353 6.736-.11.444-.088.911.064 1.343.258.364.634.628 1.064.747 1.98.786 4.031 1.382 6.125 1.779" transform="translate(-12.42 6.516) translate(25.42 81.025)"/>
                            <path fill="#FF725E" d="M27.334 134.836c-.318 2.478-.516 5.092-.913 7.546-.572 3.55-2.248 6.903-2.383 10.486-.16 5.068 2.716 9.66 5.155 14.108 9.27 17 12.932 36.318 17.04 55.32 1.103 1.175 2.231 2.295 3.383 3.391.906.885 1.824 1.748 2.757 2.59.937.85 1.882 1.684 2.851 2.502.668.572 1.343 1.128 2.042 1.684-.064-.23-.135-.437-.207-.667-1.843-6.355-.794-14.918 5.49-17.015 1.19-.406 2.502-.533 3.542-1.256 2.94-2.08 1.55-7.45 4.496-9.532 1.66-1.152 3.925-.723 5.847-1.279 3.471-1.025 5.124-5.044 5.394-8.666.27-3.623-.413-7.309.508-10.82 1.422-5.298 6.418-10.16 4.71-15.379-1.922-5.822-9.937-6.084-15.092-9.325-7.253-4.528-8.262-14.49-12.337-22.02-3.662-6.728-13.29-14.942-21.615-14.299-6.029.477-8.539 3.67-9.762 7.872M25.579 83.496c2.581-1.637 6.585-1.295 8.007 1.414 1.009 1.938.373 4.29-.27 6.355-.869 2.812-1.74 5.626-2.614 8.444-.342.824-.433 1.73-.262 2.605.596 1.954 3.646 2.042 5.028.572 1.383-1.47 1.59-3.725 1.59-5.759 0-2.033-.128-4.21.92-5.966 2.614-4.353 9.43-2.653 13.878-5.091 2.757-1.51 4.322-4.48 6.196-7.015 1.875-2.534 4.766-4.917 7.849-4.329 1.04.19 2.017.723 3.074.842 3.09.342 5.56-3.892 3.67-6.355-.453-.478-.842-1.012-1.16-1.589-.273-1.183.316-2.397 1.414-2.915 1.078-.465 2.252-.664 3.424-.58 2.693-.048 5.378-.071 8.062-.103 2.971 0 6.904-.993 6.92-3.972 0-2.566-3.234-4.186-3.377-6.752.044-.626.02-1.254-.071-1.875-.564-1.716-3.05-1.422-4.719-.794-.232-1.182-1.006-2.186-2.088-2.714-1.083-.527-2.35-.516-3.425.029-1.74 1.056-2.264 3.289-3.09 5.14-1.962 4.488-6.188 7.49-10.207 10.27-1.35.922-2.86 1.891-4.488 1.74-1.629-.15-3.075-2.137-2.13-3.447.652-.906 2.138-1.263 2.153-2.383 0-1.39-2.383-1.637-2.66-3.011 1.493-3.718 6.14-4.679 9.826-6.252 4.518-1.924 8.235-5.347 10.525-9.69.461-.65.623-1.465.445-2.241-.366-1.049-1.645-1.39-2.757-1.589-2.605-.42-5.91-.54-7.213 1.756-.69 1.231-.54 2.764-1.048 4.083-1.501 3.916-7.15 3.567-10.851 5.489-1.462.739-2.677 1.898-4.242 2.383-1.692.532-3.535.207-5.306.087h-.946c-1.287 1.335-2.542 2.71-3.757 4.107-1.215 1.398-2.383 2.828-3.559 4.282-5.487 6.886-10.217 14.343-14.108 22.242-1.382 2.772-2.645 5.608-3.813 8.508-1.167 2.9-2.224 5.854-3.177 8.865 1.589-2.312 2.558-5.314 3.344-7.427 1.049-2.789 2.47-5.728 5.013-7.364z" transform="translate(-12.42 6.516) translate(25.42 81.025)"/>
                            <g fill="#263238" opacity=".6">
                                <path d="M.612.08c.36 1.646.683 3.293.969 4.94C1.295 3.368.97 1.721.61.08z" transform="translate(-12.42 6.516) translate(25.42 81.025) translate(256.58 109.622)"/>
                            </g>
                            <path fill="#FF725E" d="M258.908 152.09c.246-1.772.452-3.536.603-5.3.151-1.763.278-3.518.35-5.274.071-1.422.111-2.828.119-4.242.008-1.414 0-2.97 0-4.448-.098-4.413-.438-8.818-1.017-13.195-.222-1.668-.476-3.336-.794-4.988-.318-1.652-.612-3.297-.97-4.941-.455-1.255-.958-2.5-1.509-3.734-5.266-11.812-13.965-21.741-19.986-33.188-1.962-3.718-3.471-6.784-7.721-8.071-6.276-1.922-10.057 1.263-13.735-5.489-.993-1.811-2.915-3.638-4.861-2.931.278 1.374.572 2.748.85 4.138.067.29.067.592 0 .882-.23.906-1.629.961-2.336.342-.596-.737-1.059-1.574-1.366-2.47-.879-1.553-2.37-2.665-4.11-3.064-1.739-.399-3.565-.048-5.033.966.063-1.274-.558-2.485-1.629-3.177-.36 1.16-1.199 2.11-2.305 2.614-1.105.504-2.373.512-3.485.023-.199-1.24 1.962-1.144 2.843-2.05.882-.905.191-2.303-.564-3.225-2.054-2.377-4.865-3.973-7.96-4.52-1.961-.317-4.138-.254-5.703-1.517-.905-.73-1.47-1.803-2.383-2.518-1.986-1.533-4.853-.794-7.205.095-3.225 1.224-6.6 2.86-8.118 5.958-1.517 3.098.183 7.8 3.63 7.88.874 0 1.827-.27 2.63.088 1.16.5 1.5 1.986 1.421 3.24-.079 1.256-.413 2.55.04 3.726.453 1.176 2.113 1.978 2.947 1.04 1.82-1.286 1.986-3.86 1.89-6.084-.095-2.224-.166-4.719 1.375-6.3 1.541-1.58 5.18-.484 4.607 1.66-.341 1.264-1.938 1.987-2.065 3.297-.127 1.311 1.382 2.264 2.709 2.384 1.326.119 2.748-.135 3.972.38 1.223.517 2.041 2.344.969 3.178-1.883 1.59-5.632-2.144-6.8 0-.318.548-.183 1.247-.326 1.86-.437 1.89-2.93 2.24-4.87 2.2-1.937-.04-3.971-.16-5.607-1.232-1.637-1.072-2.47-3.51-1.248-5.004-.865-.842-2.454-.358-3.137.66-.573 1.076-.824 2.295-.723 3.51-1.962-.739-4.02.707-5.41 2.24-1.39 1.533-2.82 3.368-4.87 3.686-2.049.318-4.678-.897-5.973.747-1.684 2.145 1.787 5.664.088 7.785-.97 1.191-2.828.881-4.37 1.08-4.075.54-6.267 6.069-4.043 9.532 2.224 3.464 7.586 4.044 10.835 1.534 2.256-1.724 3.464-4.433 5.235-6.641 1.772-2.209 4.766-3.972 7.34-2.812.981.54 1.843 1.272 2.534 2.152 1.144 1.28 2.296 2.558 3.44 3.86.73.795 1.525 1.828 1.287 2.908-.207.866-.985 1.446-1.398 2.225-1.16 2.24 1.93 4.964 4.257 3.971 2.328-.993 3.035-4.234 1.867-6.474-1.589-3.09-5.99-5.155-5.378-8.603 2.614-1.588 6.006.961 6.975 3.869.969 2.907.556 6.085 1.303 9.032.746 2.947 3.598 5.91 6.482 4.933-.35-2.51-.692-5.005-1.041-7.507 1.898-1.033 3.32 2.987 5.457 2.661 1.303-.206 1.716-1.978 1.35-3.265-.365-1.287-1.183-2.438-1.223-3.773-.047-2.43 2.908-4.17 5.243-3.44 2.336.731 3.726 3.265 3.829 5.688-.05.964.025 1.93.222 2.876.628 1.994 2.86 2.9 4.655 3.972 1.796 1.072 3.527 3.272 2.447 5.068-.485.794-1.477 1.453-1.295 2.383.183.93 1.263 1.295 1.152 2.113-.103.54-.723.794-1.255.969-1.366.341-2.788.31-4.123.739-1.334.429-2.637 1.445-2.732 2.82-.128 1.97 2.05 3.24 2.907 5.012.858 1.771.381 3.718.794 5.56.39 1.708 1.494 3.178 2.328 4.695 2.59 4.87 2.534 10.645 3.352 16.086.365 2.463 1.271 5.275 3.614 6.07 1.33.3 2.717.235 4.012-.191 3.678-.882 7.515-1.835 10.327-4.306 2.812-2.47 4.353-6.99 2.24-10.136-.232-.43-.614-.761-1.073-.93-.665-.052-1.332.077-1.93.374-1.89.564-3.972-.43-5.259-1.954-1.286-1.525-1.906-3.432-2.534-5.315-.675-2.065-1.342-4.146-2.041-6.235 1.295-.795 3.066-.135 4.115.993 1.048 1.128 1.549 2.605 2.335 3.916 2.383 4.043 6.92 6.355 11.455 7.538 1.175.236 2.308.648 3.36 1.224 3.217 2.073 3.471 7.3 6.959 8.92.969.453 2.105.557 2.994 1.144 1.343.89 1.827 2.63 2.034 4.234.381 2.98.222 6.03 1.033 8.937.81 2.907 2.867 5.72 5.822 6.188 1.883.223 3.778-.311 5.267-1.485.548-2.662 1.033-5.339 1.422-8.063.071-.628.15-1.192.19-1.764z" transform="translate(-12.42 6.516) translate(25.42 81.025)"/>
                            <g fill="#000" opacity=".3">
                                <path d="M96.913 78.396c5.465-3.503 8.801-12.71 3.082-15.784-2.16-1.16-4.886-.866-7.022-2.073-2.797-1.59-3.694-5.092-4.33-8.23-1.668-8.24-3.339-16.478-5.012-24.713-1.009-4.965-2.78-10.803-7.642-12.217-2.756-.794-5.672.143-8.54.254C57.577 15.991 44.77-9.62 35.19 4.981c-.405-4.401-7.554-3.805-10.326-.342-2.773 3.464-3.972 8.404-7.833 10.517-2.963 1.59-6.895 1.168-9.445 3.384-1.795 1.59-2.383 4.028-2.955 6.355-1.017 4.422-2.036 8.847-3.058 13.274-.795 3.567-1.589 7.388-.294 10.804 1.295 3.415 5.751 5.83 8.778 3.773 1.39-.945 2.16-2.566 3.352-3.75 2.01-1.927 4.968-2.49 7.546-1.437 2.097.89 3.615 2.756 4.91 4.639 10.573 15.283 12.28 35.127 10.167 53.588-.38 3.384-.881 6.84-.095 10.152.922 3.876 3.55 7.284 3.892 11.256.263 3.05-.857 6.204 0 9.135 1.59 5.41 9.35 6.752 14.108 3.734 4.759-3.019 7.078-8.667 8.738-14.06 1.66-5.394 3.05-11.122 6.808-15.324 2.336-2.606 5.481-4.504 7.285-7.499 2.518-4.194 1.89-9.683 4.29-13.949 3.145-5.672 10.35-7.34 15.855-10.835z" transform="translate(-12.42 6.516) translate(25.42 81.025) translate(111.211 93.735)"/>
                            </g>
                            <path fill="#000" d="M46.248 222.295c1.104 1.176 2.232 2.296 3.384 3.392.906.885 1.824 1.748 2.756 2.59.938.85 1.883 1.684 2.852 2.502.667.572 1.343 1.128 2.042 1.684-.064-.23-.135-.437-.207-.667-1.843-6.355-.794-14.918 5.49-17.015 1.19-.406 2.501-.533 3.542-1.256 2.94-2.08 1.55-7.45 4.496-9.532 1.66-1.152 3.924-.723 5.847-1.279 3.471-1.025 5.123-5.044 5.393-8.666.27-3.623-.413-7.309.509-10.82 1.422-5.298 6.418-10.16 4.71-15.379-1.922-5.822-9.937-6.084-15.092-9.325-7.253-4.528-8.262-14.49-12.337-22.02-3.662-6.728-13.29-14.942-21.615-14.299-6.029.477-8.54 3.67-9.762 7.872l-.723-.23c-2.13-.54-4.64-1.025-5.56-2.987-1.081-2.288.722-5.187-.398-7.435-.588-1.176-1.803-1.827-2.749-2.74-.945-.914-1.636-2.423-.794-3.464.66-.874 2.05-.874 2.86-1.652.646-.648.774-1.65.31-2.439-1.835-2.947-5.084 2.05-6.49 3.138-.36.287-.737.552-1.128.794-.048.23-.104.437-.135.675-.135.723-.239 1.47-.358 2.217-.119.746-.254 1.47-.365 2.208-.088.604-.151 1.207-.23 1.811-.08.604-.167 1.207-.231 1.803 0 .294-.08.564-.103.858-1.483 13.43-.762 27.013 2.137 40.211 1.296 5.86 3.03 11.614 5.187 17.214.882 2.383 1.89 4.806 2.963 7.15 1.326 2.914 2.74 5.782 4.305 8.57 1.438 2.677 3.003 5.307 4.687 7.857 2.29 3.53 4.762 6.94 7.403 10.215 2.341 2.923 4.817 5.733 7.428 8.428" opacity=".3" transform="translate(-12.42 6.516) translate(25.42 81.025)"/>
                            <g fill="#000" opacity=".3">
                                <path d="M8.897 47.75c2.582-1.637 6.585-1.295 8.007 1.413 1.009 1.939.373 4.29-.27 6.355-.868 2.812-1.74 5.627-2.613 8.444-.343.824-.434 1.73-.263 2.606.596 1.954 3.647 2.041 5.029.572 1.382-1.47 1.588-3.726 1.588-5.76 0-2.033-.127-4.21.922-5.965 2.613-4.353 9.43-2.653 13.878-5.092 2.756-1.51 4.32-4.48 6.196-7.014 1.874-2.534 4.766-4.917 7.848-4.33 1.04.191 2.018.723 3.074.843 3.09.341 5.56-3.893 3.67-6.355-.452-.479-.842-1.013-1.16-1.59-.273-1.182.316-2.396 1.414-2.914 1.079-.465 2.253-.664 3.424-.58 2.693-.048 5.378-.072 8.063-.104 2.97 0 6.903-.993 6.919-3.971 0-2.566-3.233-4.187-3.376-6.753.044-.625.02-1.254-.072-1.874-.564-1.716-3.05-1.422-4.718-.795-.233-1.181-1.006-2.186-2.09-2.713-1.082-.527-2.35-.517-3.423.028-1.74 1.057-2.264 3.29-3.09 5.14-1.962 4.488-6.188 7.49-10.208 10.271-1.35.922-2.86 1.89-4.488 1.74-1.629-.151-3.074-2.137-2.129-3.448.651-.905 2.137-1.263 2.153-2.383 0-1.39-2.383-1.636-2.661-3.01 1.493-3.718 6.14-4.68 9.826-6.252 4.518-1.925 8.235-5.347 10.525-9.691.462-.65.623-1.465.445-2.24-.365-1.05-1.644-1.39-2.756-1.59-2.606-.42-5.91-.54-7.213 1.756-.691 1.232-.54 2.765-1.049 4.083-1.501 3.917-7.15 3.567-10.85 5.49-1.462.738-2.678 1.898-4.243 2.383-1.692.532-3.535.206-5.306.087h-.945c-1.287 1.334-2.542 2.709-3.758 4.107-1.215 1.398-2.383 2.828-3.558 4.281C16.15 29.812 11.42 37.27 7.53 45.168c-1.383 2.772-2.646 5.608-3.813 8.507C2.55 56.575 1.493 59.53.54 62.54c1.589-2.311 2.558-5.314 3.344-7.427 1.049-2.788 2.47-5.727 5.013-7.364z" transform="translate(-12.42 6.516) translate(25.42 81.025) translate(16.682 35.746)"/>
                            </g>
                            <g fill="#000" opacity=".3">
                                <path d="M122.277 109.988c.246-1.772.453-3.535.603-5.299.151-1.763.278-3.519.35-5.274.071-1.422.111-2.828.12-4.242.007-1.414 0-2.971 0-4.448-.1-4.414-.439-8.819-1.018-13.195-.222-1.668-.476-3.336-.794-4.989-.318-1.652-.612-3.296-.97-4.94-.455-1.256-.958-2.5-1.508-3.734-5.267-11.812-13.965-21.742-19.987-33.189-1.962-3.717-3.471-6.783-7.72-8.07-6.276-1.923-10.058 1.263-13.736-5.49-.992-1.81-2.915-3.638-4.861-2.93.278 1.374.572 2.748.85 4.138.067.29.067.592 0 .882-.23.905-1.629.96-2.336.341-.596-.737-1.059-1.573-1.366-2.47-.879-1.553-2.37-2.664-4.11-3.063-1.738-.4-3.565-.049-5.033.966.063-1.274-.558-2.485-1.628-3.178-.361 1.16-1.2 2.112-2.306 2.615-1.105.504-2.373.512-3.485.023-.199-1.24 1.962-1.144 2.843-2.05.882-.905.191-2.304-.564-3.225-2.054-2.377-4.865-3.973-7.96-4.52-1.961-.318-4.138-.254-5.703-1.517-.905-.731-1.47-1.803-2.383-2.518-1.986-1.533-1.223 1.715-3.574 2.613-3.225 1.223-4.973 1.589-6.498 4.687-.305.62-.57 1.26-.795 1.914-.642 1.74.02 3.69 1.59 4.68l.237.126c1.16.5 1.502 1.986 1.422 3.241-.08 1.255-.413 2.55.04 3.726.453 1.175 2.113 1.978 2.947 1.04 1.82-1.286 1.986-3.86 1.89-6.084-.095-2.225-.166-4.719 1.375-6.3 1.541-1.58 5.18-.484 4.607 1.66-.341 1.264-1.938 1.986-2.065 3.297-.127 1.31 1.382 2.264 2.709 2.383 1.326.12 2.748-.135 3.972.381 1.223.517 2.041 2.344.969 3.178-1.883 1.589-5.632-2.145-6.8 0-.318.548-.183 1.247-.326 1.859-.437 1.89-2.931 2.24-4.87 2.2-1.937-.04-3.971-.159-5.607-1.231-1.637-1.072-2.47-3.511-1.248-5.005-.865-.842-2.454-.357-3.137.66-.573 1.076-.824 2.295-.723 3.51-1.962-.738-4.02.708-5.41 2.24-1.39 1.534-2.82 3.369-4.87 3.687-2.049.318-4.678-.898-5.973.746-1.684 2.145 1.787 5.664.087 7.785-.969 1.192-2.827.882-4.369 1.08-4.075.54-6.267 6.07-4.043 9.533 2.224 3.463 7.586 4.043 10.835 1.533 2.256-1.724 3.464-4.432 5.235-6.64 1.772-2.21 4.766-3.973 7.34-2.813.98.54 1.843 1.272 2.534 2.153 1.144 1.279 2.296 2.558 3.44 3.86.73.795 1.525 1.828 1.287 2.908-.207.866-.985 1.446-1.399 2.224-1.16 2.24 1.93 4.965 4.258 3.972 2.328-.993 3.035-4.234 1.867-6.474-1.589-3.09-5.99-5.156-5.378-8.603 2.614-1.589 6.006.961 6.975 3.868.969 2.908.556 6.085 1.302 9.032.747 2.947 3.599 5.91 6.483 4.933-.35-2.51-.692-5.004-1.041-7.506 1.898-1.033 3.32 2.986 5.457 2.66 1.303-.206 1.716-1.977 1.35-3.264-.365-1.287-1.183-2.439-1.223-3.773-.047-2.431 2.908-4.17 5.243-3.44 2.336.73 3.726 3.265 3.829 5.688-.05.964.025 1.93.222 2.875.628 1.994 2.86 2.9 4.655 3.972 1.796 1.073 3.527 3.273 2.447 5.068-.485.795-1.478 1.454-1.295 2.383.183.93 1.263 1.295 1.152 2.113-.103.54-.723.795-1.255.97-1.366.341-2.788.31-4.123.738-1.334.43-2.637 1.446-2.732 2.82-.128 1.97 2.049 3.241 2.907 5.013.858 1.771.381 3.717.794 5.56.39 1.708 1.494 3.178 2.328 4.695 2.59 4.87 2.534 10.644 3.352 16.086.365 2.462 1.271 5.274 3.614 6.069 1.33.301 2.717.235 4.012-.19 3.678-.883 7.515-1.836 10.327-4.306 2.812-2.47 4.353-6.99 2.24-10.136-.232-.43-.614-.761-1.073-.93-.665-.052-1.332.077-1.93.374-1.89.564-3.972-.43-5.259-1.955-1.287-1.525-1.906-3.431-2.534-5.314-.675-2.065-1.342-4.147-2.041-6.236 1.295-.794 3.066-.135 4.115.993 1.048 1.128 1.549 2.606 2.335 3.916 2.383 4.044 6.919 6.355 11.455 7.539 1.175.235 2.308.648 3.36 1.223 3.217 2.074 3.471 7.3 6.959 8.921.969.453 2.105.556 2.994 1.144 1.343.89 1.827 2.63 2.034 4.234.381 2.979.222 6.03 1.033 8.937.81 2.907 2.867 5.719 5.822 6.188 1.883.223 3.778-.312 5.267-1.486.548-2.66 1.033-5.338 1.422-8.063.048-.627.127-1.191.167-1.763z" transform="translate(-12.42 6.516) translate(25.42 81.025) translate(136.63 42.101)"/>
                            </g>
                            <path fill="#FF725E" d="M29.693 16.864c-3.332-1.027-6.955-.356-9.699 1.796 0 0-6.537 4.996-3.972 12.328.97 2.69 2.869 4.944 5.354 6.355.937.545 1.927.992 2.955 1.335 3.56 1.151 13.902 3.789 13.902 3.789l1.136-.874c-.088-3.177-1.589-12.71-2.121-15.76-.707-3.773-3.408-7.737-7.555-8.969zm2.383 15.332c-2.257 1.73-5.335 1.928-7.796.503-2.462-1.425-3.822-4.193-3.447-7.012s2.412-5.134 5.16-5.866c2.749-.732 5.667.265 7.394 2.525 1.134 1.48 1.632 3.349 1.387 5.196-.246 1.848-1.217 3.522-2.698 4.654z" transform="translate(-12.42 6.516) translate(25.42 81.025)"/>
                            <path fill="#000" d="M29.693 16.864c-3.332-1.027-6.955-.356-9.699 1.796 0 0-6.537 4.996-3.972 12.328.97 2.69 2.869 4.944 5.354 6.355.937.545 1.927.992 2.955 1.335 3.56 1.151 13.902 3.789 13.902 3.789l1.136-.874c-.088-3.177-1.589-12.71-2.121-15.76-.707-3.773-3.408-7.737-7.555-8.969zm2.383 15.332c-2.257 1.73-5.335 1.928-7.796.503-2.462-1.425-3.822-4.193-3.447-7.012s2.412-5.134 5.16-5.866c2.749-.732 5.667.265 7.394 2.525 1.134 1.48 1.632 3.349 1.387 5.196-.246 1.848-1.217 3.522-2.698 4.654z" opacity=".4" transform="translate(-12.42 6.516) translate(25.42 81.025)"/>
                            <path fill="#FF725E" d="M30.877 16.03c-3.33-1.027-6.95-.356-9.691 1.796 0 0-6.538 4.996-3.972 12.328.97 2.69 2.868 4.943 5.354 6.355.937.55 1.93.997 2.963 1.335 3.55 1.151 13.893 3.789 13.893 3.789s-.317-12.988-.985-16.634c-.723-3.774-3.415-7.73-7.562-8.969zm1.24 16.205c-1.477 1.154-3.356 1.665-5.213 1.419-1.857-.247-3.538-1.23-4.662-2.73-1.73-2.257-1.928-5.335-.503-7.796 1.425-2.462 4.192-3.822 7.012-3.447 2.819.375 5.134 2.412 5.866 5.16.731 2.749-.265 5.667-2.525 7.394h.024z" transform="translate(-12.42 6.516) translate(25.42 81.025)"/>
                            <path fill="#FF725E" d="M23.537 21.027c-2.348 1.82-3.301 4.919-2.383 7.745-.611-2.633.606-5.35 2.978-6.646 2.372-1.296 5.317-.853 7.202 1.084 1.885 1.937 2.249 4.893.89 7.229-1.36 2.336-4.11 3.48-6.725 2.797 3.171 1.125 6.694-.155 8.404-3.053s1.127-6.6-1.39-8.833c-2.518-2.232-6.264-2.368-8.936-.323h-.04z" transform="translate(-12.42 6.516) translate(25.42 81.025)"/>
                            <path fill="#000" d="M23.537 21.027c-2.348 1.82-3.301 4.919-2.383 7.745-.611-2.633.606-5.35 2.978-6.646 2.372-1.296 5.317-.853 7.202 1.084 1.885 1.937 2.249 4.893.89 7.229-1.36 2.336-4.11 3.48-6.725 2.797 3.171 1.125 6.694-.155 8.404-3.053s1.127-6.6-1.39-8.833c-2.518-2.232-6.264-2.368-8.936-.323h-.04z" opacity=".4" transform="translate(-12.42 6.516) translate(25.42 81.025)"/>
                            <path fill="#FF725E" d="M294.797 113.253c2.449-2.484 3.524-6.01 2.876-9.437 0 0-1.422-8.103-9.104-9.23-2.835-.385-5.714.263-8.11 1.826-.919.575-1.774 1.246-2.55 2.002-2.653 2.63-9.763 10.589-9.763 10.589l.246 1.422c2.844 1.374 12.043 4.472 14.966 5.37 3.686 1.128 8.436.564 11.44-2.542zm-14.704-4.957c-.67-3.824 1.887-7.467 5.711-8.137 3.824-.67 7.467 1.885 8.138 5.709.672 3.823-1.883 7.467-5.706 8.14-1.838.325-3.73-.095-5.257-1.166-1.528-1.072-2.566-2.708-2.886-4.546z" transform="translate(-12.42 6.516) translate(25.42 81.025)"/>
                            <path fill="#000" d="M294.797 113.253c2.449-2.484 3.524-6.01 2.876-9.437 0 0-1.422-8.103-9.104-9.23-2.835-.385-5.714.263-8.11 1.826-.919.575-1.774 1.246-2.55 2.002-2.653 2.63-9.763 10.589-9.763 10.589l.246 1.422c2.844 1.374 12.043 4.472 14.966 5.37 3.686 1.128 8.436.564 11.44-2.542zm-14.704-4.957c-.67-3.824 1.887-7.467 5.711-8.137 3.824-.67 7.467 1.885 8.138 5.709.672 3.823-1.883 7.467-5.706 8.14-1.838.325-3.73-.095-5.257-1.166-1.528-1.072-2.566-2.708-2.886-4.546z" opacity=".4" transform="translate(-12.42 6.516) translate(25.42 81.025)"/>
                            <path fill="#FF725E" d="M294.996 114.683c2.45-2.48 3.53-6.003 2.891-9.43 0 0-1.43-8.11-9.103-9.23-2.837-.38-5.716.265-8.119 1.819-.915.579-1.767 1.252-2.542 2.01-2.677 2.621-9.786 10.565-9.786 10.565s11.677 5.703 15.22 6.792c3.678 1.151 8.428.587 11.439-2.526zm-14.958-6.355c-.494-2.8.748-5.623 3.147-7.15 2.398-1.528 5.48-1.46 7.81.172 2.329 1.631 3.445 4.505 2.83 7.28-.617 2.777-2.845 4.908-5.645 5.401-1.839.337-3.736-.079-5.266-1.152-1.53-1.073-2.567-2.716-2.876-4.56v.009z" transform="translate(-12.42 6.516) translate(25.42 81.025)"/>
                            <path fill="#FF725E" d="M293.915 105.865c-.517-2.93-2.824-5.219-5.759-5.711 2.62.672 4.469 3.008 4.523 5.71.054 2.704-1.7 5.112-4.29 5.89-2.59.776-5.38-.269-6.823-2.555-1.442-2.287-1.184-5.255.632-7.258-2.461 2.294-2.952 6.012-1.17 8.866 1.783 2.855 5.339 4.046 8.481 2.84 3.142-1.204 4.99-4.467 4.406-7.782z" transform="translate(-12.42 6.516) translate(25.42 81.025)"/>
                            <path fill="#000" d="M293.915 105.865c-.517-2.93-2.824-5.219-5.759-5.711 2.62.672 4.469 3.008 4.523 5.71.054 2.704-1.7 5.112-4.29 5.89-2.59.776-5.38-.269-6.823-2.555-1.442-2.287-1.184-5.255.632-7.258-2.461 2.294-2.952 6.012-1.17 8.866 1.783 2.855 5.339 4.046 8.481 2.84 3.142-1.204 4.99-4.467 4.406-7.782z" opacity=".4" transform="translate(-12.42 6.516) translate(25.42 81.025)"/>
                            <path fill="#263238" d="M250.678 35.27c.335-2.451-.556-4.91-2.383-6.578 0 0-4.266-3.971-9.104-1.358-1.77.992-3.128 2.583-3.828 4.488-.275.721-.472 1.47-.588 2.232-.39 2.622-1.033 10.168-1.033 10.168l.747.7c2.2-.438 8.738-2.59 10.787-3.329 2.566-.93 5.029-3.273 5.402-6.323zm-10.454 3.463c-2.012-1.881-2.117-5.038-.236-7.05 1.881-2.012 5.037-2.119 7.05-.238 2.013 1.88 2.12 5.037.24 7.05-1.883 2.01-5.039 2.117-7.054.238z" transform="translate(-12.42 6.516) translate(25.42 81.025)"/>
                            <path fill="#455A64" d="M251.4 36c.336-2.45-.555-4.91-2.382-6.577 0 0-4.266-3.972-9.104-1.358-1.775.993-3.134 2.592-3.829 4.504-.274.721-.471 1.47-.587 2.232-.39 2.622-1.033 10.168-1.033 10.168s9.064-1.74 11.534-2.63c2.47-.889 5.02-3.288 5.402-6.338zm-11.2 2.765c-.976-.899-1.55-2.152-1.593-3.479-.044-1.326.448-2.614 1.363-3.575 1.884-2.01 5.04-2.112 7.05-.228 2.01 1.883 2.113 5.04.23 7.05-1.882 2.01-5.039 2.114-7.05.232z" transform="translate(-12.42 6.516) translate(25.42 81.025)"/>
                            <path fill="#263238" d="M247.048 31.449c-1.541-1.446-3.826-1.764-5.704-.794 1.773-.734 3.817-.197 5 1.314 1.182 1.51 1.213 3.624.076 5.169-1.138 1.545-3.166 2.142-4.96 1.46-1.793-.681-2.912-2.474-2.737-4.385-.418 2.35.887 4.668 3.114 5.528 2.227.86 4.751.021 6.021-2 1.27-2.021.93-4.659-.81-6.292z" transform="translate(-12.42 6.516) translate(25.42 81.025)"/>
                        </g>
                        <g>
                            <g fill="#000" opacity=".4">
                                <path d="M70.428 9c.628 1.128-4.575 20.789-9.89 30.845-1.81 3.432-6.052 4.671-10 4.632-5.14-.056-8.93-6.586-14.99-6.355-5.402.214-7.086 4.607-12.202 6.355C13.171 47.98 3.87 39.472 2.248 32.958.191 24.728.477 18.93.961 8.174c0 .024 59.022-17.786 69.467.826z" transform="translate(-12.42 6.516) translate(100.884) translate(29.392 88.175)"/>
                            </g>
                            <path fill="#ED2012" d="M37.645 52.81c3.225 10.54 11.725 38.757 15.22 49.202.937 2.789 1.946 5.688 4.06 7.73 2.195 1.948 5.008 3.06 7.943 3.137 2.897.073 5.792-.194 8.627-.794 2.383-.413 4.957-.906 6.609-2.677 1.095-1.356 1.84-2.96 2.168-4.67C87.04 87.03 93.76 70.451 93.76 52.864c-18.683-3.646-37.637-4.766-56.082-.071" transform="translate(-12.42 6.516) translate(100.884)"/>
                            <g fill="#000" opacity=".3">
                                <path d="M.254 45.922c1.383-.675 2.436-1.877 2.923-3.336.477-1.444.758-2.946.835-4.464.794-8.182 1.549-16.396 1.024-24.626C4.758 9.072 4.043 4.52 1.7.746L.254 45.923z" transform="translate(-12.42 6.516) translate(100.884) translate(61.96 66.727)"/>
                            </g>
                            <g fill="#000" opacity=".3">
                                <path d="M4.719 28.462c-.143-6.808-1.59-10.327-1.637-12.416-.048-2.089-.405-2.66.834-4.321 1.24-1.66 3.273-2.78 5.1-3.972 1.827-1.192 3.662-2.613 4.282-4.679.254-.794.302-2.383-.517-2.732-.532-.199-1.27.524-1.771.794C8.619 2.399 6.38 3.93 4.337 5.704c-1.662 1.28-2.96 2.972-3.765 4.909-1.128 3.177.103 6.728 1.327 9.905" transform="translate(-12.42 6.516) translate(100.884) translate(77.053 57.989)"/>
                            </g>
                            <path fill="#263238" d="M26.397 47.447c-2.278-.455-4.62.393-6.077 2.2-1.216 1.59-1.748 3.758-3.487 4.704-1.335.722-2.947.46-4.465.54-2.97.169-5.684 1.74-7.309 4.234-1.624 2.493-1.966 5.61-.92 8.396.444 1.176 1.144 2.383.794 3.607-.405 1.493-2.097 2.152-3.225 3.177-1.922 1.795-2.097 5.02-.7 7.245 1.521 2.203 4.037 3.506 6.713 3.479-.739 2.804 1.001 5.894 3.59 7.15 2.59 1.254 6.229 1.739 9.128 1.739 4.21 0 5.743-1.382 7.364-3.79 1.62-2.406 4.917-35.666 6.355-38.176" transform="translate(-12.42 6.516) translate(100.884)"/>
                            <path fill="#455A64" d="M6.188 73.415c-.05-.1-.085-.207-.103-.317-.076-.313-.116-.632-.12-.954-.027-1.197.311-2.375.97-3.376.442-.705 1.033-1.304 1.732-1.755.81-.484 1.696-.828 2.62-1.017.962-.238 1.979-.381 2.988-.66 1.04-.227 2-.729 2.78-1.453.726-.782 1.24-1.736 1.493-2.772.252-.977.414-1.974.485-2.98.04-1.753.429-3.481 1.144-5.083.548-1.077 1.464-1.923 2.582-2.383.304-.109.622-.173.945-.191.11-.019.223-.019.334 0-.419.056-.83.16-1.224.31-1.044.497-1.886 1.338-2.383 2.383-.656 1.58-1.004 3.27-1.025 4.98-.063 1.033-.222 2.057-.476 3.059-.264 1.106-.811 2.125-1.589 2.955-.83.785-1.857 1.333-2.97 1.589-1.042.27-2.066.413-3.004.627-.888.175-1.74.495-2.526.945-.662.409-1.233.95-1.676 1.59-.638.94-1.001 2.04-1.048 3.177-.008.866.11 1.318.071 1.326z" transform="translate(-12.42 6.516) translate(100.884)"/>
                            <path fill="#455A64" d="M25.364 53.739c-.45.271-.85.618-1.184 1.025-.814 1.182-1.231 2.592-1.191 4.027 0 .906.071 1.906.103 2.987.084 1.172-.054 2.35-.405 3.471-.47 1.232-1.319 2.282-2.423 3.003-1.155.76-2.408 1.358-3.725 1.78-1.287.413-2.545.912-3.766 1.493-1.115.563-2.083 1.379-2.828 2.383-1.196 1.76-1.874 3.822-1.954 5.95-.07 1.44-.038 2.885.096 4.32 0 .47.063.859.087 1.177.023.136.023.276 0 .413-.046-.131-.075-.267-.087-.405-.04-.27-.104-.66-.167-1.168-.2-1.442-.277-2.898-.23-4.353.041-2.197.717-4.335 1.946-6.157.768-1.052 1.775-1.907 2.939-2.494 1.236-.597 2.513-1.106 3.82-1.525 1.282-.41 2.503-.99 3.631-1.724 1.042-.67 1.845-1.65 2.296-2.804.344-1.074.486-2.202.42-3.328 0-1.073-.095-2.074-.055-3.003-.013-1.486.464-2.936 1.358-4.123.258-.318.57-.587.922-.794.123-.072.257-.123.397-.151z" transform="translate(-12.42 6.516) translate(100.884)"/>
                            <path fill="#FF725E" d="M33.506 42.792c-1.223-1.771-4.202-1.072-6.053 0-1.684.856-2.863 2.46-3.177 4.322-.571 2.119-.368 4.372.572 6.355.994 1.99 3.078 3.196 5.298 3.066 1.552-.262 2.942-1.117 3.877-2.383.921-1.255 1.674-2.625 2.24-4.075" transform="translate(-12.42 6.516) translate(100.884)"/>
                            <g fill="#000" opacity=".4">
                                <path d="M9.675 1.485c-1.223-1.771-4.202-1.072-6.053 0C1.938 2.341.76 3.945.445 5.807c-.571 2.119-.368 4.372.572 6.355.994 1.99 3.078 3.196 5.298 3.066 1.552-.262 2.942-1.117 3.877-2.383.921-1.255 1.674-2.625 2.24-4.075" transform="translate(-12.42 6.516) translate(100.884) translate(23.831 41.307)"/>
                            </g>
                            <path fill="#263238" d="M28.176 48.456c0 .056-.31-.087-.794-.167-1.24-.236-2.486.385-3.043 1.518-.214.429-.27.73-.333.723-.064-.008-.104-.334.063-.795.239-.664.722-1.212 1.35-1.533.634-.31 1.362-.365 2.034-.15.517.087.755.325.723.404zM28.597 45.652c0 .056-.294-.103-.747-.167-.586-.079-1.183.018-1.715.278-.54.278-1.025.652-1.43 1.105-.318.35-.509.58-.556.548-.048-.032.055-.318.325-.731.37-.552.873-1.003 1.462-1.31.608-.306 1.307-.373 1.962-.191.5.174.7.428.7.468zM27.151 43.023c-.047-.103.795-.358 1.653.159.858.516 1.024 1.366.913 1.382-.111.016-.42-.612-1.128-1.033-.707-.42-1.43-.389-1.438-.508zM30.925 41.6c.08-.07.42.231.484.795.064.564-.198.906-.302.858-.103-.047-.055-.397-.11-.794-.056-.397-.168-.787-.072-.858zM24.848 54.017c-.048 0-.143-.326-.088-.874.166-1.478 1.25-2.69 2.701-3.019.532-.119.874-.063.874 0 0 .064-.318.104-.794.286-1.258.45-2.198 1.51-2.495 2.813-.119.452-.135.794-.198.794zM28.01 56.71s-.247-.223-.398-.707c-.387-1.31.105-2.72 1.223-3.503.421-.286.731-.35.747-.302-.658.535-1.18 1.218-1.525 1.994-.207.825-.223 1.686-.048 2.518zM54.176 12.71c-2.487-1.589-3.09-5.243-1.74-7.856 1.35-2.614 4.21-4.219 7.15-4.687 4.29-.649 8.632.792 11.684 3.876 1.59 1.653 2.908 3.805 5.084 4.568 1.915.667 4.028.063 6.038.326 2.702.498 5.037 2.187 6.355 4.599 1.283 2.402 2.054 5.045 2.263 7.76.294 2.48.493 5.196 2.209 7.007 1.716 1.811 4.321 2.13 6.402 3.384 4.009 2.613 5.17 7.964 2.606 12.003-.794 1.208-2.01 2.304-2.105 3.765-.088 1.327.794 2.51 1.176 3.782 1.032 3.264 1.707 5.306-1.716 5.505-1.732.095-5.712-4.107-7.436-4.131-2.613 0-7.904-.556-8.889.858-1.938 2.772-1.23 13.162-4.265 11.669-1.271-.62-2.47-1.652-3.885-1.589-1.414.064-2.518 1.303-3.908 1.589-1.811.357-3.535-.985-4.615-2.486-1.08-1.502-1.827-3.265-3.178-4.496-1.81-1.59-4.353-2.01-6.64-2.797-5.124-1.77-9.23-5.671-11.26-10.698-2.028-5.026-1.78-10.685.678-15.516" transform="translate(-12.42 6.516) translate(100.884)"/>
                            <path fill="#263238" d="M55.86 10.176c-2.52-1.53-5.568-1.928-8.397-1.096-2.833.902-4.946 3.283-5.505 6.204-.278 1.779.088 3.749-.873 5.266-1.327 2.081-4.473 2.232-6.014 4.155-1.064 1.334-1.112 3.177-.913 4.901.198 1.724.595 3.416.246 5.084-.524 2.486-.342 4.997-1.867 7.022-1.525 2.026-4.766 3.63-4.663 6.07.104 2.438 1.827 6.529 4.123 7.379 1.843.683 3.567-1.367 5.513-1.589 3.061-.38 6.163-.272 9.19.318 1.865.464 3.757.812 5.665 1.04 1.93.216 3.869-.331 5.401-1.525 1.438-1.263 2.042-3.582.977-5.18" transform="translate(-12.42 6.516) translate(100.884)"/>
                            <path fill="#FFBE9D" d="M71.199 65.138s-.207-5.052-.207-4.997c0 .056 8.667-1.461 10.438-12.773.882-5.624.58-14.847.088-22.377-.445-6.784-4.957-15.093-11.717-14.37l-21.09 5.385c-2.056.219-3.6 1.977-3.551 4.044l1.708 38.479" transform="translate(-12.42 6.516) translate(100.884)"/>
                            <path fill="#263238" d="M77.578 31.87c.027.796-.595 1.463-1.39 1.493-.38.036-.757-.087-1.044-.337-.287-.251-.458-.609-.474-.99-.009-.787.611-1.439 1.398-1.469.375-.033.746.087 1.03.333.285.245.458.595.48.97zM79.524 29.765c-.175.19-1.279-.62-2.836-.612-1.557.008-2.7.795-2.876.596-.174-.199.104-.421.596-.794.675-.472 1.48-.722 2.304-.715.81-.007 1.6.246 2.256.723.469.38.643.722.556.802zM62.239 31.87c.022.797-.602 1.463-1.399 1.493-.372.03-.742-.09-1.024-.335-.283-.245-.455-.594-.477-.967-.01-.788.61-1.44 1.398-1.47.767-.06 1.438.512 1.502 1.279zM64.185 30.09c-.175.191-1.28-.619-2.836-.611-1.557.008-2.701.794-2.876.596-.175-.199.104-.421.596-.795.675-.471 1.48-.72 2.304-.715.81-.007 1.6.247 2.256.723.484.374.643.715.556.803zM69.904 41.649c.823-.257 1.674-.411 2.534-.461.397 0 .795-.12.842-.39.028-.412-.066-.824-.27-1.183-.381-.961-.794-1.97-1.183-3.034-1.653-4.314-2.844-7.865-2.67-7.944.175-.08 1.653 3.384 3.297 7.697.397 1.065.794 2.082 1.136 3.05.257.488.333 1.051.215 1.59-.123.281-.365.494-.66.58-.22.062-.447.094-.675.095-.852.113-1.714.113-2.566 0z" transform="translate(-12.42 6.516) translate(100.884)"/>
                            <path fill="#EB996E" d="M70.992 60.118c-5.323.093-10.568-1.296-15.148-4.012 0 0 3.535 9.175 14.847 8.087l.301-4.075z" transform="translate(-12.42 6.516) translate(100.884)"/>
                            <path fill="#FF725E" d="M69.229 45.414c-.604-.749-1.546-1.14-2.502-1.04-.694.068-1.332.411-1.772.953-.426.535-.474 1.28-.119 1.866.516.571 1.327.772 2.05.509.733-.265 1.407-.67 1.986-1.192.177-.123.328-.28.444-.46.12-.178.12-.41 0-.588" transform="translate(-12.42 6.516) translate(100.884)"/>
                            <path fill="#263238" d="M65.289 42.745c.254 0 .262 1.676 1.708 2.875 1.446 1.2 3.257 1.01 3.273 1.248 0 .103-.406.325-1.168.35-.99.011-1.955-.323-2.725-.946-.736-.591-1.212-1.446-1.326-2.383-.064-.74.087-1.16.238-1.144zM64.884 27.358c-.151.421-1.708.23-3.543.453-1.835.222-3.313.723-3.55.35-.112-.183.142-.589.738-1.002.792-.518 1.696-.842 2.637-.945.936-.118 1.887-.01 2.772.318.676.294 1.01.627.946.826zM78.944 25.253c-.278.35-1.35 0-2.645 0s-2.383.238-2.637-.127c-.112-.183.063-.54.54-.874 1.31-.827 2.989-.78 4.25.12.46.34.611.706.492.88z" transform="translate(-12.42 6.516) translate(100.884)"/>
                            <path fill="#263238" d="M56.13 12.305c-2.6-1.837-5.872-2.45-8.96-1.676-3.02.865-5.521 3.582-5.617 6.656-.071 1.994.795 4.115-.095 5.918-.89 1.804-2.923 2.384-4.393 3.655-2.344 2.03-3 5.397-1.589 8.158 1.232 2.272 3.83 3.971 4.052 6.49.198 2.383-1.827 4.44-2.32 6.807l19.66 11.264c4.457-9.786-3.653-13.504-4.09-15.76-1.001-5.068 2.708-7.086 2.47-10.414-.127-1.708-1.334-3.13-2.335-4.536-1.001-1.406-1.89-3.177-1.271-4.766.794-2.09 3.55-2.637 5.21-4.17 1.398-1.314 1.935-3.302 1.39-5.14-.617-1.831-2.192-3.175-4.098-3.495" transform="translate(-12.42 6.516) translate(100.884)"/>
                            <path fill="#263238" d="M54.915 9.755c-.007 2.3 1.01 4.483 2.773 5.96 1.763 1.476 4.091 2.092 6.354 1.682 1.731-.318 3.622-1.192 5.115-.27 1.494.921 1.637 3.336 3.035 4.543 1.994 1.732 5.163.112 7.69.858 1.954.58 3.177 2.455 4.48 4.02 1.302 1.565 3.24 3.066 5.195 2.486-.065-1.762-.331-3.51-.795-5.211-.47-1.717-1.519-3.219-2.97-4.25-.856-.442-1.688-.928-2.495-1.454-1.589-1.31-2.002-3.59-3.003-5.417-1.324-2.378-3.713-3.973-6.418-4.282-2.224-.23-4.512.437-6.68-.11-1.59-.406-3.003-1.447-4.632-1.749-3.177-.603-6.1 1.669-8.396 3.925" transform="translate(-12.42 6.516) translate(100.884)"/>
                            <path fill="#455A64" d="M100.884 43.841c.065-.021.126-.05.183-.087.175-.105.32-.253.421-.43.322-.732.234-1.58-.23-2.231-.282-.496-.701-.899-1.208-1.16-.588-.305-1.195-.57-1.819-.795-.697-.209-1.347-.552-1.914-1.008-.573-.588-.953-1.336-1.088-2.145-.191-.85-.247-1.78-.406-2.74-.1-1.044-.476-2.041-1.088-2.892-1.318-1.732-3.471-2.653-5.084-4.282-.808-.851-1.41-1.875-1.763-2.995-.375-1.18-.64-2.393-.795-3.622-.35-2.486-.699-5.267-2.383-7.539-.812-1.144-2.031-1.934-3.408-2.208-1.32-.187-2.662-.155-3.971.095-1.212.23-2.448.305-3.678.223-1.165-.141-2.237-.707-3.011-1.589-1.541-1.66-2.43-3.908-4.321-5.052-1.714-1.047-3.786-1.335-5.72-.794-1.592.462-2.94 1.528-3.757 2.97-.622 1.059-.959 2.26-.977 3.488-.02.77.105 1.538.365 2.264.083.253.195.496.334.723 0 0-.103-.255-.254-.795-.22-.723-.313-1.477-.278-2.232.052-1.187.401-2.343 1.016-3.36.813-1.353 2.116-2.34 3.639-2.757 1.843-.497 3.81-.21 5.433.795.87.6 1.612 1.367 2.185 2.256.617.978 1.302 1.912 2.05 2.796.416.453.904.834 1.445 1.128.56.292 1.168.48 1.795.556 1.267.098 2.54.029 3.79-.206 1.251-.238 2.534-.27 3.796-.096 1.28.253 2.416.983 3.178 2.042.746 1.074 1.285 2.278 1.588 3.55.302 1.252.53 2.52.684 3.798.166 1.253.446 2.49.834 3.693.373 1.187 1.012 2.274 1.866 3.178 1.708 1.692 3.845 2.59 5.084 4.218.595.776.979 1.693 1.113 2.661.158.937.222 1.875.428 2.757.152.856.555 1.647 1.16 2.271.587.498 1.268.874 2.002 1.105.617.207 1.221.448 1.811.722.48.238.883.607 1.16 1.065.456.603.57 1.398.302 2.105-.129.219-.302.408-.509.556zM29.177 51.634c-.084-.167-.148-.343-.19-.525-.14-.517-.21-1.052-.207-1.588.014-.857.292-1.689.794-2.383.706-.885 1.58-1.62 2.574-2.161 1.183-.649 2.403-1.227 3.654-1.732 1.424-.57 2.747-1.366 3.916-2.359 1.311-1.043 2.081-2.622 2.097-4.298-.047-1.731-.969-3.376-1.398-5.25-.23-.94-.23-1.92 0-2.86.125-.466.344-.901.644-1.279.292-.362.644-.67 1.04-.913.786-.402 1.605-.737 2.447-1.001.773-.236 1.48-.65 2.065-1.208.506-.57.813-1.29.874-2.05.056-.737.056-1.478 0-2.216-.035-.708-.006-1.418.088-2.12.117-.648.309-1.28.572-1.883.817-1.823 2.267-3.288 4.083-4.123.485-.221.994-.386 1.517-.492.18-.045.363-.07.548-.072-.688.173-1.358.41-2.002.707-1.71.868-3.066 2.303-3.837 4.06-.244.583-.42 1.194-.524 1.818-.082.686-.103 1.377-.064 2.066.06.756.06 1.516 0 2.272-.06.838-.395 1.634-.953 2.264-1.223 1.294-3.114 1.437-4.583 2.295-.764.426-1.318 1.147-1.533 1.994-.21.875-.21 1.787 0 2.661.405 1.788 1.35 3.464 1.406 5.33.03.91-.188 1.81-.628 2.606-.412.748-.95 1.42-1.589 1.986-1.207.996-2.57 1.785-4.035 2.335-1.246.49-2.464 1.049-3.646 1.676-.969.507-1.828 1.201-2.526 2.042-.484.662-.76 1.453-.795 2.272-.021.715.043 1.43.191 2.129z" transform="translate(-12.42 6.516) translate(100.884)"/>
                            <path fill="#455A64" d="M43.936 45.04c.5.045 1.004-.017 1.478-.182 1.265-.543 2.213-1.635 2.574-2.963.252-.905.296-1.856.127-2.78-.188-1.084-.475-2.147-.858-3.178-.429-1.15-.766-2.332-1.009-3.535-.28-1.324-.183-2.7.278-3.972.524-1.35 1.716-2.144 2.478-3.082.73-.932 1.235-2.019 1.478-3.177.532-2.224.604-4.385 1.303-6.045.45-1.355 1.339-2.52 2.526-3.313.33-.197.69-.342 1.064-.429.131-.026.264-.042.397-.048-.48.151-.94.356-1.374.612-1.111.816-1.932 1.965-2.343 3.28-.644 1.59-.683 3.734-1.2 6.038-.246 1.228-.77 2.383-1.533 3.376-.834 1.001-1.946 1.756-2.383 2.979-.434 1.198-.525 2.494-.262 3.741.239 1.184.568 2.347.985 3.48.747 2.176 1.247 4.377.643 6.14-.402 1.394-1.439 2.515-2.796 3.027-.368.122-.758.165-1.144.127-.147-.007-.292-.04-.429-.095zM97.103 53.223c.195-.145.337-.348.405-.58.15-.69-.174-1.395-.794-1.732-.447-.227-.937-.357-1.438-.381-.556-.056-1.167 0-1.835-.151-.74-.086-1.402-.5-1.803-1.128-.354-.743-.43-1.589-.214-2.383.19-.795.571-1.59.794-2.47.256-.873.206-1.807-.143-2.646-.364-.901-1.03-1.648-1.883-2.113-.874-.493-1.954-.477-3.05-.795-1.153-.308-2.101-1.128-2.574-2.224-.495-1.1-.694-2.31-.58-3.51.088-1.208.366-2.384.572-3.6.26-1.194.273-2.43.04-3.63-.209-1.182-.914-2.217-1.938-2.843-1.017-.564-2.328-.398-3.472-1.01-.549-.32-.989-.8-1.263-1.373-.255-.54-.442-1.108-.556-1.692-.154-1.098-.465-2.168-.921-3.178-.5-.897-1.47-1.429-2.495-1.366-.99.076-1.973.233-2.939.468-.943.23-1.932.2-2.86-.087-.794-.333-1.542-.768-2.224-1.295-1.181-.878-2.567-1.441-4.027-1.636-1.106-.143-2.229-.08-3.313.183-.92.242-1.804.605-2.629 1.08.045-.047.095-.087.151-.12.15-.109.307-.21.469-.301.619-.35 1.281-.617 1.97-.795 1.1-.29 2.244-.377 3.376-.254 1.502.166 2.938.713 4.17 1.589.67.526 1.407.959 2.193 1.287.876.258 1.806.277 2.693.055.981-.252 1.983-.416 2.994-.492.55-.019 1.097.101 1.589.35.514.264.937.677 1.215 1.183.486 1.031.815 2.129.977 3.257.126 1.12.72 2.133 1.637 2.788.977.54 2.288.374 3.463.993 1.127.68 1.905 1.811 2.137 3.106.259 1.247.259 2.534 0 3.781-.206 1.224-.484 2.383-.572 3.567-.112 1.132.071 2.273.532 3.313.42.997 1.276 1.744 2.32 2.025 1.009.27 2.145.262 3.114.795.927.509 1.646 1.327 2.033 2.311.368.91.416 1.919.135 2.86-.254.89-.635 1.668-.794 2.454-.211.73-.155 1.51.159 2.2.346.57.929.956 1.589 1.05.627.127 1.239.119 1.803.182.525.04 1.037.188 1.501.437.383.209.668.56.795.977.095.3.095.622 0 .922-.07.26-.259.471-.509.572z" transform="translate(-12.42 6.516) translate(100.884)"/>
                            <path fill="#FFBE9D" d="M48.282 87.833L38.13 53.564S24.284 56.4 25.626 70.04c1.343 13.64 4.671 29.789 10.677 41.426 6.005 11.638 7.967 15.634 14.536 14.72 6.57-.914 10.168-6.021 11.638-13.377 1.47-7.356 2.073-39.806 2.073-39.806l-10.978-2.145-5.29 16.976zM81.947 87.03l11.78-34.157s12.225 1.74 10.891 15.387c-1.335 13.647-4.584 31.56-10.581 43.197-5.997 11.638-8.015 15.642-14.6 14.728-6.586-.914-10.16-6.021-11.638-13.377-1.477-7.356-1.867-41.315-1.867-41.315l10.994-.794 5.02 16.332z" transform="translate(-12.42 6.516) translate(100.884)"/>
                            <path fill="#FFBE9D" d="M76.855 72.947c-.068-2.419 1.138-4.696 3.177-5.998 4.012-2.828 9.835-8.579 9.835-8.579 1.318-2.97.794-8.317.659-9.048-.135-.73-.413-2.518-3.352-1.787 0 0-.31-1.24-2.383-1.017-2.074.222-2.248 1.247-2.248 1.247-.814.107-1.614.304-2.384.588-.794.373-1.954 1.954-1.882 2.915-.952.08-1.864.418-2.637.977-.795.795-1.915 1.66-1.915 3.178 0 1.517 1.438 2.041 2.574 1.962 0 0-4.091 1.406-4.862 1.589-.77.182-7.228 2.947-6.204 6.815 1.025 3.869.93 3.281.715 5.426-.214 2.145.795 7.15.795 7.15l10.112-5.418z" transform="translate(-12.42 6.516) translate(100.884)"/>
                            <path fill="#EB996E" d="M66.393 91.003c-.039-.138-.063-.279-.071-.421 0-.279-.096-.692-.135-1.224-.096-1.064-.191-2.605-.263-4.512-.143-3.805-.19-9.071-.103-14.886v-.707.055c-.414-1.325-.699-2.687-.85-4.067-.043-1.344.455-2.648 1.382-3.622.842-.832 1.852-1.474 2.963-1.883 1.01-.413 1.97-.715 2.836-1.009 1.748-.58 3.138-1.088 4.075-1.477.938-.39 1.462-.636 1.47-.604.008.032-.111.088-.35.215-.238.127-.587.317-1.056.532-.93.437-2.312.985-4.043 1.589-.858.317-1.82.627-2.805 1.048-1.054.406-2.012 1.028-2.812 1.827-.849.905-1.3 2.112-1.255 3.352.155 1.349.44 2.679.85 3.972v.763c-.087 5.807-.08 11.065 0 14.87 0 1.907.088 3.448.127 4.512 0 .493 0 .898.056 1.224.016.15.011.303-.016.453z" transform="translate(-12.42 6.516) translate(100.884)"/>
                            <path fill="#EB996E" d="M76.076 57.504c-.11 0-.071-.675.088-1.454.159-.778.381-1.398.492-1.374.112.024.072.675-.087 1.454-.159.778-.381 1.398-.493 1.374z" transform="translate(-12.42 6.516) translate(100.884)"/>
                            <path fill="#EB996E" d="M80.843 56.13s.071-.238.254-.62c.269-.522.398-1.105.373-1.692-.14-.848-.725-1.555-1.533-1.85-1.008-.34-2.098-.34-3.106 0-1.028.28-1.913.938-2.478 1.842-.46.732-.584 1.625-.342 2.455.163.558.601.992 1.16 1.152.212.037.428.058.643.063-.204.12-.446.154-.675.096-.652-.12-1.188-.582-1.406-1.208-.312-.915-.204-1.92.294-2.748.599-1.001 1.56-1.733 2.685-2.042 1.1-.366 2.291-.344 3.376.064.917.361 1.56 1.198 1.676 2.176.001.634-.18 1.255-.524 1.788-.108.192-.241.368-.397.524z" transform="translate(-12.42 6.516) translate(100.884)"/>
                            <path fill="#EB996E" d="M85.077 54.533c-.072 0 .206-.794.413-2.033.128-.72.085-1.46-.127-2.161-.307-.826-.943-1.488-1.756-1.827-.809-.364-1.725-.41-2.566-.127-.685.25-1.292.674-1.763 1.231-.42.542-.764 1.138-1.025 1.772-.012-.195.017-.39.087-.572.146-.504.386-.976.707-1.39.484-.627 1.13-1.11 1.867-1.399.93-.342 1.957-.305 2.86.104.917.386 1.625 1.147 1.946 2.089.221.757.243 1.559.064 2.327-.114.503-.266.997-.453 1.478-.135.341-.23.516-.254.508zM87.777 53.7c-.055 0 0-.39.104-.978.15-.756.228-1.525.23-2.296-.008-.757-.193-1.503-.54-2.176-.278-.509-.556-.795-.509-.795.048 0 .382.143.755.66.46.686.705 1.493.707 2.32.007.808-.116 1.613-.365 2.382-.175.556-.326.898-.382.882zM76.02 71.16c-1.007.763-2.223 1.203-3.486 1.262-1.25.198-2.531.018-3.678-.516 1.205.125 2.419.16 3.63.103 1.198-.193 2.38-.477 3.535-.85zM87.38 114.667c-.047 0 .135-.604.27-1.708.191-1.557.191-3.13 0-4.687-.365-3.972-2.232-9.199-3.972-15.021l-4.52-14.934c-.54-1.875-.992-3.408-1.318-4.536-.143-.5-.254-.914-.342-1.24-.044-.145-.076-.294-.095-.444.074.133.132.274.175.42.111.318.246.724.413 1.216.357 1.12.85 2.645 1.454 4.504l4.63 14.894c1.748 5.815 3.583 11.074 3.885 15.093.167 1.588.119 3.191-.143 4.767-.069.423-.165.843-.286 1.255-.032.146-.083.287-.15.42zM53.556 70.857c-.002.162-.026.322-.071.477-.056.302-.167.794-.31 1.327-.294 1.151-.795 2.804-1.39 4.83-.596 2.025-1.414 4.424-2.328 7.077-.46 1.327-.945 2.717-1.477 4.147-.525 1.49-1.148 2.945-1.867 4.353-1.493 2.891-3.178 5.481-4.178 8.079-.895 2.287-1.431 4.698-1.59 7.149-.12 1.66-.002 3.33.35 4.957.262 1.152.5 1.763.461 1.78-.08-.14-.143-.286-.19-.438-.172-.423-.313-.859-.422-1.303-.42-1.635-.586-3.326-.492-5.012.139-2.502.675-4.966 1.589-7.3 1.008-2.653 2.693-5.267 4.17-8.127.707-1.397 1.325-2.838 1.85-4.313.533-1.422 1.034-2.812 1.502-4.13.93-2.638 1.748-5.029 2.383-7.039.636-2.01 1.176-3.646 1.51-4.766l.389-1.31c.023-.15.06-.296.111-.438z" transform="translate(-12.42 6.516) translate(100.884)"/>
                            <path fill="#ED2012" d="M85.728 73.82l17.85-14.243S99.7 51.96 92.145 52.555c-.055 6.665-3.113 13.512-6.418 21.265zM38.678 53.437s-9.676-.159-13.441 12.344l18.89 5.426-5.45-17.77z" transform="translate(-12.42 6.516) translate(100.884)"/>
                            <path fill="#FFBE9D" d="M53.493 71.493c.067-2.419-1.139-4.695-3.178-5.998-3.972-2.827-9.834-8.579-9.834-8.579-1.31-2.97-.794-8.317-.66-9.048.136-.73.422-2.518 3.36-1.787 0 0 .303-1.24 2.384-1.017 2.081.223 2.248 1.248 2.248 1.248.814.106 1.613.303 2.383.587.794.374 1.962 1.954 1.883 2.916.951.08 1.863.417 2.637.977.794.794 1.914 1.66 1.914 3.137 0 1.478-1.43 2.042-2.573 1.963 0 0 4.09 1.406 4.861 1.588.77.183 7.284 3.114 6.252 6.983-1.033 3.868-.977 3.114-.795 5.25.183 2.137-.794 7.15-.794 7.15l-10.088-5.37z" transform="translate(-12.42 6.516) translate(100.884)"/>
                            <path fill="#EB996E" d="M63.954 89.517c-.019-.142-.019-.287 0-.429 0-.326 0-.73.056-1.223.048-1.065.095-2.606.127-4.512.072-3.805.072-9.064 0-14.87v-.795c.41-1.294.697-2.624.858-3.972.043-1.241-.412-2.448-1.263-3.352-.8-.799-1.757-1.421-2.812-1.827-.985-.421-1.938-.731-2.804-1.049-1.732-.62-3.114-1.167-4.044-1.588-.468-.215-.794-.398-1.056-.533-.125-.056-.243-.128-.35-.214 0 0 .525.214 1.47.604.945.389 2.335.897 4.075 1.477.866.294 1.827.596 2.844 1.009 1.107.41 2.115 1.052 2.955 1.883.927.973 1.425 2.278 1.382 3.622-.148 1.38-.432 2.743-.85 4.067v.651c.088 5.815.04 11.121-.103 14.887-.072 1.906-.167 3.447-.262 4.512-.04.532-.096.945-.127 1.223-.013.147-.045.29-.096.43z" transform="translate(-12.42 6.516) translate(100.884)"/>
                            <path fill="#EB996E" d="M54.271 56.019c-.111 0-.326-.588-.492-1.375-.167-.786-.199-1.43-.088-1.453.111-.024.334.588.493 1.374.159.786.206 1.438.087 1.454z" transform="translate(-12.42 6.516) translate(100.884)"/>
                            <path fill="#EB996E" d="M49.513 54.644c-.164-.157-.299-.343-.397-.548-.35-.53-.536-1.152-.533-1.787.116-.979.76-1.815 1.677-2.177 1.087-.407 2.281-.43 3.384-.063 1.123.306 2.084 1.039 2.677 2.041.498.829.605 1.834.293 2.749-.214.628-.752 1.09-1.406 1.207-.452.064-.683-.087-.675-.103.216.005.432-.013.644-.056.558-.159.996-.594 1.16-1.151.241-.83.117-1.723-.342-2.455-.564-.902-1.446-1.56-2.47-1.843-1.01-.339-2.104-.339-3.115 0-.807.295-1.393 1.003-1.533 1.851-.032.593.097 1.183.374 1.708.114.197.202.408.262.627z" transform="translate(-12.42 6.516) translate(100.884)"/>
                            <path fill="#EB996E" d="M45.279 53.048s-.12-.167-.254-.509c-.195-.478-.347-.972-.453-1.477-.183-.768-.164-1.57.055-2.328.322-.944 1.034-1.705 1.955-2.089.9-.408 1.924-.445 2.851-.103 1.243.484 2.195 1.512 2.582 2.788.07.182.098.378.08.572-.261-.634-.606-1.23-1.025-1.771-.467-.569-1.075-1.004-1.764-1.263-.838-.282-1.752-.237-2.558.127-.813.339-1.449 1-1.755 1.827-.219.699-.265 1.44-.135 2.16.206 1.28.492 2.042.42 2.066zM42.57 52.214c-.056 0-.206-.334-.381-.914-.246-.77-.369-1.574-.366-2.383.006-.825.251-1.631.707-2.32.374-.516.731-.699.795-.659.063.04-.239.302-.509.795-.35.672-.538 1.418-.548 2.176.005.771.085 1.54.239 2.296.071.62.119.993.063 1.009z" transform="translate(-12.42 6.516) translate(100.884)"/>
                        </g>
                    </g>
                </g>
            </g>
        </g>
    </g>
</svg>
