<svg xmlns="http://www.w3.org/2000/svg" width="378" height="340" viewBox="0 0 378 340">
    <g fill="none" fill-rule="evenodd">
        <g>
            <g>
                <g fill-rule="nonzero">
                    <path fill="#E0E0E0" d="M200.093 0.041H250.53699999999998V52.626999999999995H200.093z" transform="translate(-719 -2802) translate(719.5 2802) translate(19.615)"/>
                    <path fill="#FAFAFA" d="M196.677 0.041H247.12099999999998V52.626999999999995H196.677z" transform="translate(-719 -2802) translate(719.5 2802) translate(19.615)"/>
                    <path fill="#E0E0E0" d="M247.137 52.643h-50.476V0h50.476v52.643zm-50.444 0h50.42V.057h-50.42v52.586z" transform="translate(-719 -2802) translate(719.5 2802) translate(19.615)"/>
                    <path fill="#FAFAFA" d="M203.461 7.111H240.346V45.556999999999995H203.461z" transform="translate(-719 -2802) translate(719.5 2802) translate(19.615)"/>
                    <path fill="#E0E0E0" d="M203.46 45.81c-.263.388-.57.745-.915 1.063-.588.62-1.414 1.463-2.345 2.378-.932.915-1.774 1.724-2.403 2.305-.323.336-.682.635-1.071.89.26-.385.564-.74.907-1.054.589-.62 1.422-1.47 2.354-2.386.932-.916 1.782-1.733 2.411-2.313.32-.334.676-.63 1.063-.883zM240.346 45.72c.386.26.74.564 1.054.907.621.589 1.463 1.423 2.378 2.346.916.924 1.725 1.782 2.305 2.452.338.318.637.674.891 1.063-.387-.255-.742-.557-1.054-.9-.621-.596-1.463-1.422-2.379-2.353-.915-.932-1.732-1.782-2.313-2.452-.338-.316-.634-.673-.882-1.063zM240.24 7.209c.267-.383.574-.736.915-1.055.588-.62 1.414-1.463 2.345-2.378.932-.915 1.774-1.733 2.403-2.305.32-.34.68-.638 1.071-.89-.26.385-.564.74-.907 1.054-.589.62-1.422 1.463-2.346 2.378-.923.915-1.79 1.733-2.452 2.313-.306.335-.652.631-1.03.883zM203.354 7.307c-.384-.265-.738-.572-1.054-.916-.621-.588-1.463-1.414-2.378-2.337-.916-.924-1.725-1.782-2.305-2.452-.34-.32-.639-.679-.891-1.07.391.271.748.59 1.062.947.622.589 1.463 1.422 2.387 2.354.924.932 1.733 1.782 2.305 2.452.334.301.628.645.874 1.022z" transform="translate(-719 -2802) translate(719.5 2802) translate(19.615)"/>
                    <path fill="#E0E0E0" d="M240.24 45.557v-.188-.532-2.075-7.838c0-6.735-.041-16.347-.074-27.789l.139.139h-36.779l.163-.163v38.413l-.139-.139 26.628.074h9.465-9.407l-26.718.073h-.14v-.139V6.816h37.09v.147c0 11.524-.057 21.144-.073 27.903v10.372c-.015.12-.07.233-.156.319z" transform="translate(-719 -2802) translate(719.5 2802) translate(19.615)"/>
                    <path fill="#EBEBEB" d="M215.745 20.179H228.054V32.488H215.745z" transform="translate(-719 -2802) translate(719.5 2802) translate(19.615)"/>
                    <path fill="#E0E0E0" d="M6.113 21.765H77.039V95.699H6.113z" transform="translate(-719 -2802) translate(719.5 2802) translate(19.615)"/>
                    <path fill="#FAFAFA" d="M1.308 21.765H72.23400000000001V95.699H1.308z" transform="translate(-719 -2802) translate(719.5 2802) translate(19.615)"/>
                    <path fill="#E0E0E0" d="M72.258 95.715H1.291V21.74h70.967v73.975zm-70.926-.041h70.885V21.781H1.332v73.893z" transform="translate(-719 -2802) translate(719.5 2802) translate(19.615)"/>
                    <path fill="#FAFAFA" d="M10.846 31.703H62.70399999999999V85.76H10.846z" transform="translate(-719 -2802) translate(719.5 2802) translate(19.615)"/>
                    <path fill="#E0E0E0" d="M10.846 86.12c-.368.545-.798 1.044-1.284 1.487-.817.875-1.986 2.052-3.269 3.343-1.283 1.291-2.5 2.452-3.383 3.27-.448.477-.953.897-1.504 1.25.362-.537.781-1.033 1.25-1.48.818-.874 1.994-2.06 3.27-3.35 1.274-1.292 2.509-2.453 3.391-3.27.456-.478.97-.898 1.529-1.25zM62.704 85.98c.542.371 1.041.802 1.487 1.284.875.817 2.052 1.994 3.343 3.27 1.291 1.274 2.452 2.508 3.27 3.391.475.446.895.948 1.25 1.496-.543-.364-1.04-.792-1.48-1.275-.874-.818-2.06-1.995-3.35-3.27-1.292-1.275-2.452-2.509-3.27-3.391-.478-.447-.899-.952-1.25-1.504zM62.557 31.875c.37-.542.8-1.041 1.283-1.488.817-.874 1.994-2.05 3.27-3.342 1.274-1.292 2.508-2.452 3.391-3.27.446-.476.948-.895 1.496-1.25-.364.543-.792 1.04-1.275 1.48-.818.874-1.995 2.059-3.27 3.35-1.275 1.292-2.509 2.452-3.391 3.27-.447.478-.952.899-1.504 1.25zM10.707 31.981c-.545-.368-1.044-.799-1.488-1.283-.874-.817-2.06-1.994-3.343-3.27-1.283-1.274-2.451-2.508-3.269-3.391-.473-.449-.892-.95-1.25-1.496.547.359 1.044.787 1.48 1.275.874.818 2.059 1.995 3.35 3.27s2.452 2.509 3.27 3.391c.475.45.895.955 1.25 1.504z" transform="translate(-719 -2802) translate(719.5 2802) translate(19.615)"/>
                    <path fill="#E0E0E0" d="M62.557 85.76V85.5v-.76-2.918c0-2.558 0-6.285-.057-11.018 0-9.464-.058-22.95-.099-39.1l.197.197H10.895l.229-.23v54.057l-.197-.196 37.441.098 10.519.05H62.394c.08-.008.163-.008.244 0H58.97l-10.552.138-37.596.107h-.196v-.197V31.441H62.769v.205c-.04 16.2-.081 29.734-.106 39.23 0 4.709 0 8.42-.05 10.97v3.612c-.007.102-.026.204-.056.302z" transform="translate(-719 -2802) translate(719.5 2802) translate(19.615)"/>
                    <path fill="#EBEBEB" d="M28.124 50.076H45.426V67.378H28.124z" transform="translate(-719 -2802) translate(719.5 2802) translate(19.615)"/>
                    <path fill="#E0E0E0" d="M268.338 42.958H342.492V120.259H268.338z" transform="translate(-719 -2802) translate(719.5 2802) translate(19.615)"/>
                    <path fill="#FAFAFA" d="M263.312 42.958H337.466V120.259H263.312z" transform="translate(-719 -2802) translate(719.5 2802) translate(19.615)"/>
                    <path fill="#E0E0E0" d="M337.499 120.283h-74.203v-77.35h74.203v77.35zm-74.162-.049h74.113V42.982h-74.113v77.252z" transform="translate(-719 -2802) translate(719.5 2802) translate(19.615)"/>
                    <path fill="#FAFAFA" d="M273.283 53.346H327.50300000000004V109.863H273.283z" transform="translate(-719 -2802) translate(719.5 2802) translate(19.615)"/>
                    <path fill="#E0E0E0" d="M273.283 110.247c-.388.565-.837 1.086-1.34 1.553-.867.915-2.076 2.149-3.441 3.498-1.365 1.348-2.624 2.533-3.547 3.383-.469.494-.993.933-1.561 1.308.374-.57.819-1.088 1.324-1.545.866-.915 2.092-2.157 3.457-3.506 1.365-1.349 2.624-2.542 3.547-3.392.467-.493.991-.93 1.561-1.3zM327.503 110.108c.567.383 1.088.83 1.553 1.332.916.866 2.158 2.084 3.498 3.449 1.34 1.365 2.542 2.615 3.392 3.547.493.467.93.991 1.3 1.561-.563-.382-1.081-.826-1.545-1.324-.915-.866-2.158-2.092-3.498-3.457-1.34-1.365-2.55-2.624-3.4-3.547-.493-.467-.93-.991-1.3-1.561zM327.356 53.501c.385-.568.835-1.089 1.34-1.553.867-.915 2.077-2.158 3.441-3.498 1.365-1.34 2.624-2.542 3.548-3.392.467-.493.99-.93 1.56-1.3-.378.566-.823 1.084-1.323 1.545-.867.916-2.093 2.158-3.458 3.498-1.364 1.34-2.623 2.55-3.547 3.4-.467.494-.99.93-1.56 1.3zM273.136 53.64c-.568-.385-1.089-.835-1.553-1.34-.915-.867-2.158-2.085-3.498-3.45-1.34-1.364-2.542-2.615-3.392-3.538-.497-.467-.933-.994-1.3-1.57.562.387 1.08.834 1.545 1.333.916.866 2.158 2.084 3.499 3.457 1.34 1.373 2.55 2.623 3.4 3.547.493.467.93.991 1.3 1.56z" transform="translate(-719 -2802) translate(719.5 2802) translate(19.615)"/>
                    <path fill="#E0E0E0" d="M327.356 109.87c-.006-.092-.006-.185 0-.277v-.818-3.056c0-2.673 0-6.539-.057-11.516 0-9.898-.057-24.004-.106-40.866l.212.213H273.34l.237-.245v56.525l-.204-.205 39.15.099 11 .057h3.923-3.842l-10.951.049-39.28.106h-.204v-.204-56.607h54.522v.204c-.049 16.943-.081 31.058-.106 41.021 0 4.904-.049 8.81-.057 11.442v3.776c0 .188-.172.303-.172.303z" transform="translate(-719 -2802) translate(719.5 2802) translate(19.615)"/>
                    <path fill="#EBEBEB" d="M291.346 72.561H309.44100000000003V90.656H291.346z" transform="translate(-719 -2802) translate(719.5 2802) translate(19.615)"/>
                    <path fill="#F5F5F5" d="M5.059 301.595L5.059 339.444 60.415 339.444 121.476 339.444 121.476 301.595z" transform="translate(-719 -2802) translate(719.5 2802) translate(19.615)"/>
                    <path fill="#E0E0E0" d="M0.172 291.011L0.172 301.595 125.538 301.595 125.538 291.011 60.415 291.011z" transform="translate(-719 -2802) translate(719.5 2802) translate(19.615)"/>
                    <path fill="#E0E0E0" d="M62.859 339.444L121.476 339.444 121.476 301.595 125.538 301.595 125.538 291.011 60.415 291.011 60.415 300.614zM21.34 307.7H44.952V313.397H21.34z" transform="translate(-719 -2802) translate(719.5 2802) translate(19.615)"/>
                    <path fill="#FFF" d="M18.3 320.524H48.614000000000004V332.555H18.3z" transform="translate(-719 -2802) translate(719.5 2802) translate(19.615)"/>
                </g>
                <g fill-rule="nonzero">
                    <path fill="#B78876" d="M55.021 148.399s-1.912-8.304-9.62-7.887c-7.707.416-9.578.416-12.905 0-3.326-.417-8.492-4.422-9.946-3.18-1.455 1.243-.646 3.964 2.06 6.367 2.704 2.403 7.355 4.087 7.355 4.087l-9.849 1.691s-8.876-4.74-10.96-3.906c-1.23.544-1.993 1.795-1.912 3.138 0 0-3.686-1.634-4.724-.196-1.038 1.438-1.3 2.452-.254 3.27 0 0-.686-.68-2.599-.115-1.634.482-1.495 3.498 0 4.307l.507.294s13.96 8.034 14.385 8.092c2.452.327 17.506-.311 25.254-.67 2.848-.133 5.547 1.279 7.062 3.694l12.472 19.778 14.09-16.264-20.416-22.5z" transform="translate(-719 -2802) translate(719.5 2802) translate(133.221 80.913)"/>
                    <path fill="#AA6550" d="M29.717 152.943c-.746.225-1.508.394-2.28.507-1.447.27-3.474.629-5.844 1.03h-.114l-3.155-1.447-7.527-3.466-2.272-1.079c-.29-.118-.565-.271-.818-.457.303.065.597.166.875.302l2.33.956 3.424 1.48 4.16 1.896 3.146 1.463h-.122c2.37-.376 4.413-.678 5.868-.883.767-.162 1.546-.263 2.33-.302zM26.26 156.645c-2.288.875-4.251 2.433-5.623 4.463.925-2.398 3.077-4.107 5.623-4.463zM42.238 145.007c.05 0 .09.506.36 1.324.373 1.12 1.026 2.127 1.896 2.926l.286.253-.376.074c-1.31.25-2.591.63-3.825 1.136-1.95.802-3.761 1.905-5.37 3.269-1.234 1.054-1.887 1.83-1.945 1.782-.057-.05.123-.23.41-.589.413-.499.858-.971 1.331-1.414 1.582-1.47 3.414-2.643 5.41-3.465 1.263-.517 2.579-.893 3.924-1.12l-.098.327c-.903-.85-1.549-1.938-1.864-3.138-.142-.44-.19-.906-.139-1.365zM33.011 147.36c-1.726.696-3.528 1.181-5.37 1.447-1.512.278-2.893.474-3.89.572-.54.095-1.09.117-1.635.066 0-.131 2.452-.49 5.444-1.055l3.841-.76c.525-.15 1.065-.241 1.61-.27zM19.901 158.263c-.794-.265-1.572-.58-2.329-.94-1.43-.588-3.433-1.348-5.664-2.14-2.231-.794-4.242-1.554-5.672-2.167-.79-.288-1.55-.658-2.264-1.103.807.22 1.6.493 2.37.817l5.721 2.044c2.232.817 4.226 1.634 5.632 2.272.78.32 1.52.729 2.206 1.217z" transform="translate(-719 -2802) translate(719.5 2802) translate(133.221 80.913)"/>
                    <path fill="#AA6550" d="M23.449 157.928c-1.883.864-4 1.074-6.016.597 0-.123 1.373-.049 3.016-.22 1.643-.172 2.967-.5 3-.377z" transform="translate(-719 -2802) translate(719.5 2802) translate(133.221 80.913)"/>
                    <path fill="#ED2012" d="M101.117 110.181s-12.464 7.168-15.07 29.072c-1.358 11.442-6.335 32.651-6.335 32.651l-10.24-11.491L54 178.116s16.713 35.675 26.153 45.401c9.44 9.726 28.165 12.726 28.165 12.726l3.768-59.623-10.969-66.439z" transform="translate(-719 -2802) translate(719.5 2802) translate(133.221 80.913)"/>
                    <path fill="#ED2012" d="M195.623 100.333l-28.794-5.043-36.705 1.822s-30.568 12.62-29.007 13.077l-5.958 58.994 14.76 28.507-3.669 60.735h101.346l-5.288-42.223-6.628-50.877 12.578 39.386 1.904 53.714h28.198c2.983-23.392 3.915-55.888 3.915-55.888l-23.016-75.192c-3.154-10.47-10.106-19.384-19.493-24.994-1.312-.806-2.7-1.482-4.143-2.018z" transform="translate(-719 -2802) translate(719.5 2802) translate(133.221 80.913)"/>
                    <path fill="#263238" d="M100.79 139.948l.066.302c.04.22.098.515.163.89.14.818.343 1.946.597 3.417.498 2.967 1.218 7.266 2.035 12.587.817 5.32 1.782 11.67 2.599 18.732.817 7.062 1.708 14.86 2.182 23.065.041.768.082 1.528.123 2.231-.425 15.93-.916 30.24-1.365 40.571-.229 5.157-.433 9.326-.613 12.203-.093 1.422-.166 2.512-.22 3.269 0 .36-.05.646-.066.858.007.098.007.196 0 .294-.009-.098-.009-.196 0-.294v-.866c0-.777.082-1.888.147-3.27.106-2.9.27-7.061.474-12.21.368-10.33.817-24.642 1.234-40.563 0-.703-.082-1.463-.122-2.231-.474-8.173-1.3-15.979-2.15-23.04-.85-7.062-1.749-13.412-2.534-18.733-.784-5.32-1.454-9.611-1.904-12.611l-.515-3.433c-.049-.376-.09-.67-.122-.89-.012-.093-.015-.186-.009-.278zM189.133 143.151c-.05-.12-.08-.246-.09-.376-.049-.302-.114-.662-.188-1.095 0-.245-.073-.506-.114-.817-.041-.31-.05-.605-.074-.948-.068-.772-.092-1.547-.073-2.321v-1.349c0-.466.081-.956.13-1.463.104-1.073.268-2.14.49-3.195.53-2.42 1.313-4.775 2.338-7.03 1.073-2.231 2.374-4.346 3.883-6.309.67-.854 1.384-1.673 2.141-2.452.351-.36.678-.72 1.03-1.038l1.021-.89c.58-.511 1.19-.989 1.823-1.431.278-.204.531-.4.817-.556l.679-.417.956-.564c.109-.068.224-.125.343-.171 0 0-.09.098-.302.245l-.9.63-.661.44c-.237.172-.482.377-.744.581-.616.46-1.208.95-1.774 1.471l-.989.9c-.343.318-.662.686-1.005 1.045-.74.778-1.435 1.597-2.084 2.452-3.016 3.885-5.124 8.395-6.17 13.2-.23 1.041-.405 2.094-.524 3.155-.057.498-.13.972-.155 1.438-.025.466-.04.907-.057 1.34-.066.818 0 1.635 0 2.297v.948c0 .294.057.548.09.817.04.434.073.818.098 1.096.037.119.06.243.065.367zM208.225 204.711c-.082-.155-.145-.32-.188-.49-.122-.368-.277-.818-.465-1.422-.4-1.284-.957-3.057-1.635-5.231-1.381-4.422-3.27-10.535-5.468-17.254-2.198-6.718-4.217-12.799-5.852-17.122-.817-2.15-1.675-3.833-2.182-5.027-.253-.596-.45-1.062-.572-1.38-.067-.163-.121-.33-.163-.5.098.147.18.303.245.466l.637 1.349c.556 1.169 1.422 2.828 2.313 4.977 1.717 4.324 3.784 10.38 5.975 17.107 2.19 6.726 4.045 12.848 5.361 17.294.654 2.223 1.169 4.03 1.512 5.28.156.588.286 1.062.384 1.438.052.168.085.34.098.515zM229.467 202.831c0 .074-1.095-.237-2.868-.515-2.308-.35-4.65-.405-6.972-.163-2.32.252-4.596.802-6.776 1.635-1.634.653-2.648 1.193-2.689 1.127.197-.176.417-.324.654-.441.62-.36 1.262-.682 1.921-.964 2.179-.934 4.484-1.54 6.84-1.798 2.358-.26 4.742-.163 7.07.286.706.128 1.402.303 2.085.523.258.069.506.173.735.31zM101.984 198.671c-.278-.361-.532-.74-.76-1.136-.499-.727-1.235-1.765-2.224-2.983-1.953-2.452-4.822-5.721-8.01-9.342-3.187-3.62-6.072-6.865-8.107-9.276-1.013-1.202-1.83-2.183-2.378-2.877-.302-.342-.576-.709-.817-1.095.343.3.657.63.94.988l2.451 2.788 8.173 9.186c3.188 3.604 6.024 6.914 7.928 9.44.763.988 1.473 2.017 2.125 3.081.23.376.376.687.482.9.107.212.213.318.197.326z" transform="translate(-719 -2802) translate(719.5 2802) translate(133.221 80.913)"/>
                    <g fill="#000" opacity=".3">
                        <path d="M11.99 48.262c.458-16.51 1.316-31.728-.18-48.025C11.14 14.703 5.876 31.63.572 45.107l11.418 3.155z" transform="translate(-719 -2802) translate(719.5 2802) translate(133.221 80.913) translate(95.625 187.98)"/>
                    </g>
                    <g fill="#000" opacity=".3">
                        <path d="M5.214 10.854S.514.344.834.344c-.466 19.664 3.539 42.238 10.894 60.48l-6.514-49.97z" transform="translate(-719 -2802) translate(719.5 2802) translate(133.221 80.913) translate(190.433 154.471)"/>
                    </g>
                    <path fill="#263238" d="M182.725 221.065c-.18.132-.368.252-.563.36l-1.635.956c-1.43.818-3.498 2.06-6.024 3.62-2.525 1.562-5.541 3.4-8.99 5.338-3.699 2.128-7.564 3.954-11.557 5.46-4.007 1.536-8.24 2.398-12.53 2.55-1.88.005-3.75-.27-5.549-.818-1.57-.48-3.036-1.251-4.323-2.272-1.897-1.456-3.264-3.495-3.89-5.803-.155-.623-.24-1.262-.254-1.904-.004-.221.01-.443.041-.662.037.852.163 1.699.376 2.525.676 2.238 2.043 4.204 3.907 5.615 1.272.977 2.712 1.71 4.25 2.166 1.768.51 3.603.755 5.443.728 4.238-.18 8.42-1.043 12.382-2.559 3.972-1.501 7.822-3.307 11.516-5.402 3.416-1.913 6.44-3.743 8.99-5.255s4.643-2.706 6.097-3.507l1.692-.89c.199-.102.407-.184.621-.246z" transform="translate(-719 -2802) translate(719.5 2802) translate(133.221 80.913)"/>
                    <path fill="#263238" d="M182.603 197.126c-.069.482-.176.958-.319 1.423-.128.553-.286 1.098-.474 1.634-.212.63-.425 1.365-.752 2.142-.327.776-.645 1.634-1.079 2.525-.433.89-.915 1.83-1.438 2.812-2.383 4.208-5.474 7.974-9.138 11.131-.817.711-1.634 1.398-2.452 1.962-.817.564-1.56 1.103-2.272 1.553-.71.45-1.365.817-1.945 1.16-.58.344-1.095.589-1.52.818-.43.225-.876.421-1.332.588.4-.277.82-.523 1.258-.736.409-.22.916-.49 1.472-.817.555-.327 1.226-.71 1.904-1.201.678-.49 1.455-.973 2.223-1.578.768-.605 1.586-1.267 2.452-1.978 3.576-3.185 6.61-6.93 8.982-11.09.531-.965 1.054-1.872 1.463-2.771.409-.9.817-1.716 1.12-2.452.302-.736.572-1.48.817-2.1.245-.622.417-1.17.548-1.635.121-.476.282-.94.482-1.39z" transform="translate(-719 -2802) translate(719.5 2802) translate(133.221 80.913)"/>
                    <path fill="#FAFAFA" d="M102.237 159.432c0 .115-4.283-.727-9.505-1.88-5.223-1.152-9.448-2.174-9.416-2.288.033-.114 4.275.72 9.506 1.872 5.23 1.152 9.44 2.182 9.415 2.296zM102.237 154.643c-.903-.022-1.803-.123-2.689-.303-1.635-.253-3.923-.662-6.432-1.136l-6.4-1.25c-.892-.142-1.774-.344-2.64-.605.904.022 1.804.123 2.69.302 1.634.254 3.93.662 6.432 1.136l6.4 1.26c.892.136 1.774.336 2.639.596zM189.288 155.288c0 .115-18.397.074-41.094-.098-22.696-.171-41.086-.408-41.086-.523 0-.114 18.398-.073 41.094.098 22.697.172 41.086.376 41.086.523zM190.645 159.432c0 .115-18.929.213-42.28.213-23.35 0-42.278-.098-42.278-.213 0-.114 18.928-.212 42.279-.212 23.35 0 42.28.09 42.28.212zM225.103 149.723h.098c.098 0-.074 0-.123.049h-.073v-.082h.36l-.254.09c-1.504.556-7.83 2.697-15.292 5.541l-11 4.226-3.335 1.275c-.402.175-.818.317-1.243.425.374-.228.768-.42 1.177-.572.777-.344 1.896-.818 3.27-1.406 2.787-1.16 6.652-2.722 10.96-4.348 7.478-2.845 13.894-4.855 15.422-5.231v.09h-.098v-.082h.074c.049 0 .09 0 .122.065l-.065-.04zM224.433 144.443c0 .114-7.135 2.623-16.028 5.607-8.892 2.983-16.125 5.32-16.158 5.214-.033-.106 7.135-2.624 16.028-5.615 8.892-2.991 16.117-5.32 16.158-5.206zM169.763 95.903c.046.218.07.44.074.662.055.63.07 1.264.049 1.896-.088 2.346-.577 4.66-1.447 6.84-1.296 3.253-3.38 6.131-6.064 8.378-6.876 5.513-16.477 6.099-23.972 1.463-2.94-1.9-5.359-4.504-7.037-7.576-1.13-2.058-1.899-4.294-2.272-6.612-.1-.628-.16-1.261-.18-1.896-.023-.22-.023-.442 0-.662.052.217.082.439.09.662 0 .433.122 1.062.261 1.871.435 2.277 1.235 4.469 2.37 6.49 1.694 2.983 4.09 5.508 6.98 7.356 7.366 4.503 16.76 3.929 23.522-1.439 4.478-3.713 7.226-9.11 7.593-14.916 0-.817.05-1.455 0-1.888-.007-.21.004-.42.033-.63zM70.19 162.105c-.108.29-.253.565-.433.817-.294.49-.752 1.193-1.332 2.052-1.169 1.7-2.869 3.996-4.904 6.407-1.74 2.055-3.584 4.019-5.525 5.885-.744.72-1.357 1.283-1.798 1.634-.21.215-.45.4-.711.548.177-.242.376-.467.597-.67l1.7-1.75c1.438-1.478 3.383-3.554 5.41-5.95 2.027-2.394 3.76-4.65 4.986-6.309l1.438-1.961c.162-.257.354-.493.572-.703z" transform="translate(-719 -2802) translate(719.5 2802) translate(133.221 80.913)"/>
                    <g fill="#000" opacity=".3">
                        <path d="M19.493 16.591C15.365 18.937 9.8 19.313 4.83 19.444c-.936.084-1.88-.041-2.762-.368-.896-.35-1.486-1.212-1.488-2.174.107-1.128 1.226-1.847 2.264-2.28 4.013-1.635 8.517-1.57 12.734-2.624 7.176-1.806 14.507-6.93 20.097-11.785-3.838 6.795-9.426 12.44-16.182 16.346" transform="translate(-719 -2802) translate(719.5 2802) translate(133.221 80.913) translate(143.029 206.779)"/>
                    </g>
                    <path fill="#B78876" d="M147.066 115.24c-9.647-.767-17.058-8.867-16.967-18.544 0-4.594.082-8.271.082-8.271s-14.794-2.297-14.973-17.09c-.18-14.794 2.378-48.77 2.378-48.77 17.128-7.363 36.9-4.876 51.67 6.498l2.19 1.684-4.51 67.33c-.326 4.924-2.612 9.511-6.346 12.737-3.734 3.226-8.605 4.82-13.524 4.426z" transform="translate(-719 -2802) translate(719.5 2802) translate(133.221 80.913)"/>
                    <path fill="#AA6550" d="M130.156 88.196c6.83.128 13.545-1.778 19.289-5.476 0 0-4.553 10.625-19.321 9.309l.032-3.833z" transform="translate(-719 -2802) translate(719.5 2802) translate(133.221 80.913)"/>
                    <path fill="#B78876" d="M169.624 46.055c.253-.106 10.167-3.007 9.808 7.11-.36 10.12-10.413 7.7-10.421 7.414-.008-.286.613-14.524.613-14.524z" transform="translate(-719 -2802) translate(719.5 2802) translate(133.221 80.913)"/>
                    <path fill="#AA6550" d="M172.256 56.844c.049 0 .171.13.466.278.414.189.885.212 1.315.065 1.08-.36 2.036-2.027 2.142-3.85.055-.864-.085-1.73-.409-2.533-.173-.648-.653-1.17-1.283-1.398-.414-.122-.856.066-1.054.45-.147.278-.09.482-.14.498-.048.017-.212-.171-.122-.588.066-.248.213-.466.417-.621.288-.2.642-.282.989-.23.843.192 1.523.813 1.79 1.635.401.89.578 1.863.515 2.837-.123 2.043-1.234 3.914-2.706 4.29-.564.153-1.168.035-1.634-.318-.278-.27-.319-.499-.286-.515z" transform="translate(-719 -2802) translate(719.5 2802) translate(133.221 80.913)"/>
                    <path fill="#263238" d="M122.956 46.268c-.014 1.146.89 2.093 2.035 2.133.544.045 1.082-.132 1.494-.49.41-.36.659-.87.688-1.414.01-1.145-.892-2.09-2.035-2.134-.544-.044-1.083.133-1.494.491-.41.36-.66.869-.688 1.414zM120.39 43.358c.261.278 1.855-.907 4.135-.899 2.28.008 3.94 1.144 4.185.866.122-.122-.148-.62-.875-1.152-.984-.68-2.154-1.04-3.35-1.03-1.176 0-2.32.372-3.27 1.063-.72.531-.956 1.03-.826 1.152zM144.786 46.766c-.01 1.145.892 2.09 2.035 2.134.543.042 1.08-.136 1.491-.494.411-.358.66-.867.691-1.41.014-1.147-.89-2.094-2.035-2.134-.543-.045-1.082.132-1.493.49-.411.36-.66.87-.689 1.414zM142.735 43.783c.261.278 1.863-.907 4.135-.899 2.272.008 3.94 1.144 4.185.866.122-.122-.14-.62-.867-1.152-.984-.68-2.154-1.04-3.35-1.03-1.175-.002-2.32.37-3.27 1.063-.727.531-.964 1.03-.833 1.152zM134.48 60.644c0-.13-1.398-.368-3.686-.662-.58-.065-1.136-.18-1.234-.572-.046-.601.09-1.202.392-1.724.548-1.406 1.111-2.877 1.716-4.422 2.387-6.293 4.087-11.442 3.858-11.557-.229-.114-2.395 4.904-4.781 11.222l-1.635 4.446c-.365.701-.472 1.508-.302 2.28.177.404.53.705.956.818.32.088.65.135.98.139 2.297.155 3.728.163 3.736.032zM142.146 34.875c.229.62 2.493.326 5.166.645 2.672.319 4.822 1.055 5.173.499.164-.27-.212-.818-1.087-1.447-2.354-1.484-5.259-1.803-7.879-.866-.972.392-1.47.874-1.373 1.169zM121.223 36.779c.4.523 1.962 0 3.85-.041 1.888-.04 3.473.343 3.84-.196.164-.262-.089-.817-.816-1.267-.933-.593-2.027-.88-3.13-.817-1.108.018-2.182.381-3.074 1.038-.63.466-.85 1.038-.67 1.283z" transform="translate(-719 -2802) translate(719.5 2802) translate(133.221 80.913)"/>
                    <path fill="#263238" d="M110.377 13.208c-.217-1.874.546-3.727 2.02-4.904 1.537-1.126 3.665-.967 5.017.376-.282-1.25-.02-2.561.72-3.607.74-1.046 1.89-1.728 3.163-1.877 2.452-.147 4.47 1.675 6.808 2.313 2.337.637 4.716.081 6.906-.818 2.19-.899 4.234-2.1 6.449-2.91 9.75-3.555 20.544 1.403 24.2 11.116 3.27-1.013 6.915.63 8.909 3.367 1.994 2.738 2.509 6.343 2.108 9.71-.309 2.296-.877 4.55-1.691 6.718v.572c-.156 8.133-1.071 17.687-4.545 17.736-6.048.098-4.61-11.303-4.61-11.303-7.42-2.87-4.658-13.993-6.538-15.676-1.88-1.684-5.72-5.607-21.25 2.337-6.031 3.081-14.057 2.983-18.438 1.994l-.392-.081h-.09c-.04-.02-.08-.037-.123-.05-1.408-.355-2.754-.926-3.988-1.691-1.45-.84-2.595-2.12-3.27-3.654-.67-1.57-.35-3.387.818-4.634-1.209-1.426-1.968-3.177-2.183-5.034z" transform="translate(-719 -2802) translate(719.5 2802) translate(133.221 80.913)"/>
                    <path fill="#AA6550" d="M132.551 67.64c.317.92.763 1.79 1.324 2.583.575.804 1.468 1.322 2.452 1.422 1.055.004 2.039-.533 2.607-1.422.552-.886.807-1.926.728-2.967-.041-.931-.475-2.043-1.398-2.157-.392-.014-.78.073-1.128.253l-4.904 1.978" transform="translate(-719 -2802) translate(719.5 2802) translate(133.221 80.913)"/>
                    <path fill="#263238" d="M134.504 71.653c.88.063 1.762-.045 2.6-.318.853-.335 1.555-.972 1.97-1.79.471-1.006.495-2.164.064-3.188-.112-.26-.254-.508-.425-.735-.196-.197-.163-.188-.367-.164-.205.025-.523.213-.818.31l-.817.328c-1.046.425-1.994.817-2.787 1.087-1.635.596-2.615.915-2.656.817-.041-.098.874-.621 2.41-1.365.77-.368 1.693-.817 2.714-1.259l.818-.36c.29-.137.587-.26.89-.367.237-.077.492-.077.728 0 .212.095.397.241.54.425 1.071 1.392 1.225 3.284.392 4.83-.52.966-1.402 1.686-2.452 2.003-.683.219-1.412.247-2.109.081-.49-.122-.72-.286-.695-.335z" transform="translate(-719 -2802) translate(719.5 2802) translate(133.221 80.913)"/>
                    <path fill="#455A64" d="M159.825 22.599c.061-.595.061-1.195 0-1.79-.259-1.613-1.078-3.084-2.313-4.152-1.852-1.568-4.24-2.356-6.662-2.199-2.737 0-5.647.916-8.655 1.929-1.47.508-2.965.941-4.479 1.3-1.421.312-2.869.49-4.323.53-2.466.063-4.926-.262-7.29-.964-1.587-.472-3.117-1.12-4.561-1.928-.394-.217-.776-.454-1.144-.712-.135-.08-.26-.172-.376-.277 0 0 .564.31 1.634.817 1.461.742 2.991 1.339 4.569 1.782 3.73 1.05 7.661 1.156 11.442.31 1.447-.327 2.926-.817 4.438-1.291 3-1.014 5.967-1.92 8.786-1.929 2.51-.121 4.966.74 6.85 2.403 1.258 1.133 2.065 2.683 2.271 4.364.073.609.008 1.226-.187 1.807zM171.332 47.6s-.082-.098-.196-.31c-.172-.304-.324-.618-.458-.94-.52-1.183-.916-2.415-1.185-3.678-.396-1.88-.523-3.806-.376-5.722.278-2.319.718-4.615 1.316-6.873.585-2.229.585-4.571 0-6.8-.282-.951-.767-1.83-1.422-2.575-.58-.636-1.31-1.116-2.125-1.397-1.182-.437-2.488-.402-3.645.098-.408.23-.789.504-1.136.817.263-.402.626-.729 1.054-.948 1.191-.592 2.572-.674 3.825-.229.876.276 1.667.77 2.297 1.439.701.777 1.225 1.697 1.536 2.697.614 2.297.614 4.715 0 7.012-.594 2.241-1.042 4.518-1.34 6.817-.163 1.88-.07 3.775.278 5.63.24 1.252.587 2.48 1.038 3.67.36.826.572 1.276.54 1.292z" transform="translate(-719 -2802) translate(719.5 2802) translate(133.221 80.913)"/>
                    <path fill="#455A64" d="M161.247 21.405c-.019-.198-.019-.398 0-.596 0-.434 0-.99.057-1.692.1-2.072-.129-4.146-.679-6.146-.409-1.362-1.08-2.631-1.977-3.735-1.011-1.27-2.4-2.186-3.964-2.616-1.753-.405-3.582-.332-5.297.213-1.854.587-3.632 1.394-5.296 2.403-1.686 1.016-3.439 1.917-5.247 2.697-1.726.674-3.557 1.042-5.41 1.087-1.675.04-3.346-.164-4.961-.605-1.395-.392-2.742-.94-4.013-1.635-1.837-1.043-3.454-2.43-4.765-4.086-.357-.444-.68-.914-.965-1.406-.108-.167-.203-.342-.286-.523.138.144.258.303.36.474.313.47.655.92 1.021 1.349 1.344 1.58 2.964 2.9 4.782 3.898 1.26.669 2.589 1.198 3.964 1.577 1.58.42 3.212.607 4.846.556 1.804-.052 3.585-.417 5.264-1.079 1.79-.78 3.526-1.679 5.198-2.689 1.692-1.033 3.503-1.856 5.394-2.451 1.785-.56 3.688-.629 5.509-.197 1.643.46 3.095 1.434 4.143 2.78.915 1.146 1.592 2.463 1.995 3.873.53 2.034.718 4.141.555 6.236-.04.744-.098 1.316-.147 1.7-.003.207-.03.413-.081.613z" transform="translate(-719 -2802) translate(719.5 2802) translate(133.221 80.913)"/>
                </g>
                <g fill-rule="nonzero">
                    <path fill="#FF725E" d="M22.688 23.808c1.578 2.231 4.618 1.471 6.016.098 1.397-1.373 1.994-3.35 2.525-5.239 1.21-4.323 2.452-8.851 1.488-13.232-.227-1.33-.818-2.573-1.708-3.588C30.095.831 28.709.38 27.372.662c-1.537.417-2.452 1.92-3.163 3.351-2.007 4.232-3.043 8.86-3.033 13.543 0 2.182.27 4.462 1.512 6.252" transform="translate(-719 -2802) translate(719.5 2802) translate(129.952 281.971)"/>
                    <g fill="#000" opacity=".2">
                        <path d="M2.256 23.808c1.577 2.231 4.618 1.471 6.015.098 1.398-1.373 1.994-3.35 2.526-5.239 1.21-4.323 2.452-8.851 1.487-13.232-.227-1.33-.818-2.573-1.708-3.588C9.662.831 8.276.38 6.939.662c-1.537.417-2.452 1.92-3.163 3.351C1.77 8.245.734 12.873.744 17.556c0 2.182.27 4.462 1.512 6.252" transform="translate(-719 -2802) translate(719.5 2802) translate(129.952 281.971) translate(20.433)"/>
                    </g>
                    <path fill="#FF725E" d="M28.606 35.144c2.615-1.25 5.564-1.626 8.41-1.07 1.555.127 3.022.771 4.168 1.83 1.046 1.145 1.25 3.155.066 4.152-.767.524-1.692.764-2.616.679-2.231 0-4.7-.393-6.473.956-1.005.768-1.675 2.043-2.885 2.452-1.244.296-2.535-.267-3.163-1.381-.585-1.114-.72-2.41-.376-3.621.275-1.71 1.338-3.19 2.869-3.997zM18.406 27.045c1.615-2.145 2.073-4.947 1.226-7.495-.874-2.506-2.42-4.723-4.47-6.408-2.332-2.048-5.038-3.625-7.97-4.642-1.138-.447-2.358-.645-3.58-.58-1.236.076-2.355.762-2.983 1.83-.817 1.594 0 3.523.818 5.1 1.548 2.77 3.307 5.414 5.263 7.912 1.577 2.002 3.376 3.98 5.762 4.904 2.387.923 4.863.776 6.122-.883" transform="translate(-719 -2802) translate(719.5 2802) translate(129.952 281.971)"/>
                    <path fill="#263238" d="M22.778 57.538c.078-.332.122-.672.131-1.013.066-.736.155-1.635.254-2.77.13-1.373.331-2.737.604-4.087.352-1.641.836-3.251 1.447-4.814.608-1.56 1.433-3.027 2.452-4.356.823-1.08 1.876-1.965 3.081-2.591.82-.408 1.7-.684 2.607-.818.342-.015.682-.064 1.014-.147-.342-.038-.688-.038-1.03 0-.943.078-1.865.324-2.722.728-1.276.609-2.395 1.504-3.269 2.615-1.05 1.35-1.896 2.849-2.509 4.446-.624 1.59-1.108 3.23-1.447 4.904-.248 1.351-.42 2.716-.515 4.087-.081 1.185-.106 2.133-.122 2.795-.032.34-.024.683.024 1.021z" transform="translate(-719 -2802) translate(719.5 2802) translate(129.952 281.971)"/>
                    <path fill="#263238" d="M22.95 55.405c.021-.154.021-.311 0-.466v-1.348-4.961c.082-4.177.409-9.955 1.063-16.305.653-6.351 1.56-12.064 2.386-16.159.196-1.03.392-1.953.572-2.77.18-.818.327-1.504.474-2.076.147-.572.229-.965.31-1.308.047-.151.072-.308.074-.466-.066.142-.118.29-.155.442-.106.335-.229.768-.384 1.29-.155.524-.343 1.26-.548 2.069-.204.809-.425 1.732-.637 2.754-1.123 5.346-1.96 10.748-2.51 16.183-.661 6.358-.94 12.153-.94 16.346 0 2.092.042 3.792.099 4.96 0 .548.065.998.09 1.35.02.158.056.314.106.465z" transform="translate(-719 -2802) translate(719.5 2802) translate(129.952 281.971)"/>
                    <path fill="#263238" d="M22.885 44.24c.04-.467.04-.937 0-1.405-.088-1.28-.24-2.553-.458-3.817-.716-4.169-1.934-8.236-3.629-12.112-1.632-3.93-3.967-7.531-6.89-10.625-.512-.53-1.058-1.028-1.634-1.488-.246-.204-.466-.408-.687-.572l-.63-.425c-.372-.284-.769-.536-1.184-.752 1.374 1.063 2.679 2.212 3.906 3.441 2.82 3.113 5.09 6.68 6.719 10.552.934 2.124 1.726 4.308 2.37 6.538.62 2.043 1.038 3.915 1.357 5.5.318 1.586.474 2.877.58 3.776.028.467.088.931.18 1.39z" transform="translate(-719 -2802) translate(719.5 2802) translate(129.952 281.971)"/>
                </g>
                <g transform="translate(-719 -2802) translate(719.5 2802) translate(0 25.337)">
                    <path fill="#ED2012" fill-rule="nonzero" d="M168.472 186.73L133.793 185.251 133.793 150.581 168.472 150.581z"/>
                    <path fill="#ED2012" fill-rule="nonzero" d="M147.54 140.659H182.218V175.337H147.54z"/>
                    <path fill="#FF725E" fill-rule="nonzero" d="M168.472 185.251L182.219 175.337 182.219 140.659 168.472 150.581z"/>
                    <path fill="#FF725E" fill-rule="nonzero" d="M133.793 150.581L147.54 140.659 182.219 140.659 168.472 150.581z"/>
                    <path fill="#FF725E" fill-rule="nonzero" d="M168.472 186.73L182.219 175.337 182.219 140.659 168.472 150.581z"/>
                    <path fill="#FFF" fill-rule="nonzero" d="M133.793 150.581L147.54 140.659 182.219 140.659 168.472 150.581z" opacity=".3"/>
                    <path fill="#000" fill-rule="nonzero" d="M168.472 186.73L182.219 175.337 182.219 140.659 168.472 150.581z" opacity=".4"/>
                    <path fill="#FF725E" fill-rule="nonzero" d="M187.065 176.661c.208.66.28 1.355.213 2.043-.172.344-.05.098-.082.172h-.049l-.082.057-.163.123-.31.22c-.205.14-.385.262-.548.352-.319.196-.532.294-.564.245-.033-.049.114-.229.384-.482l.49-.425.295-.245.163-.123.082-.065c0 .081.09-.164-.082.171-.054-.69.032-1.386.253-2.043zM187.065 167.9c.284 1.446.284 2.934 0 4.38-.283-1.446-.283-2.934 0-4.38zM187.065 159.138c.284 1.446.284 2.934 0 4.38-.283-1.446-.283-2.934 0-4.38zM187.065 150.385c.284 1.446.284 2.934 0 4.38-.283-1.446-.283-2.934 0-4.38zM187.065 141.615c.284 1.446.284 2.934 0 4.38-.283-1.446-.283-2.934 0-4.38zM185.022 135.19c.66-.21 1.355-.283 2.043-.212l.213.213v.784c0 .246 0 .466-.05.654 0 .368-.09.597-.146.597-.057 0-.115-.229-.147-.597 0-.188 0-.408-.05-.654v-.817l.213.213c-.697.082-1.403.02-2.076-.18zM177.184 135.19c1.292-.282 2.63-.282 3.923 0-1.292.284-2.63.284-3.923 0zM169.346 135.19c1.29-.282 2.625-.282 3.915 0-1.29.284-2.625.284-3.915 0zM161.508 135.19c1.29-.282 2.625-.282 3.915 0-1.29.284-2.625.284-3.915 0zM153.654 135.19c1.29-.282 2.625-.282 3.915 0-1.29.284-2.626.284-3.915 0zM145.996 135.673c0-.057.13-.278.441-.588h.074c.335 0 .768-.05 1.25-.05.659-.07 1.325.002 1.953.213-.629.207-1.294.28-1.953.213-.482 0-.915 0-1.25-.05l.106-.04c-.319.196-.58.302-.621.302zM139.964 140.65c-.074-.09.54-.727 1.373-1.413.834-.687 1.57-1.177 1.635-1.087.065.09-.54.719-1.373 1.413-.834.695-1.561 1.177-1.635 1.087zM133.932 145.652c-.073-.09.54-.719 1.373-1.414.834-.694 1.57-1.176 1.635-1.087.065.09-.54.728-1.373 1.414-.834.687-1.529 1.185-1.635 1.087zM129.323 151.504c-.202-.66-.269-1.356-.197-2.043l.082-.163h.041l.082-.066.155-.122.302-.237.532-.385c.31-.204.515-.31.555-.261.041.049-.106.229-.367.498-.131.131-.286.287-.466.45l-.286.253-.156.131-.081.066h-.041c0-.066-.074.163.082-.156.057.688-.024 1.38-.237 2.035zM129.24 159.612c-.2-.656-.264-1.346-.187-2.027-.062-.684.016-1.374.229-2.027.28 1.35.266 2.743-.041 4.087v-.033zM129.135 167.72c-.207-.655-.274-1.345-.197-2.027-.061-.684.017-1.374.23-2.027.206.654.273 1.345.195 2.027.062.684-.016 1.374-.228 2.027zM129.086 175.827c-.202-.655-.269-1.345-.197-2.027-.06-.684.02-1.374.237-2.026.202.655.266 1.345.188 2.026.062.685-.016 1.374-.228 2.027zM129.004 183.935c-.201-.655-.265-1.345-.188-2.027-.062-.684.016-1.374.229-2.027.201.656.268 1.345.196 2.027.061.685-.02 1.375-.237 2.027zM130.99 190.065c-.665.196-1.363.257-2.052.18-.416-.433-.114-.123-.204-.221V189.231c0-.245 0-.466.05-.645.04-.368.097-.597.154-.597.058 0 .115.229.148.597 0 .188 0 .408.04.653.041.246 0 .262 0 .385v.384l-.212-.213c.703-.053 1.41.039 2.076.27zM138.73 190.188c-.624.205-1.286.27-1.937.187-.653.053-1.31-.03-1.93-.245.625-.205 1.287-.266 1.938-.18.652-.056 1.31.024 1.929.238zM146.47 190.318c-.626.196-1.286.257-1.937.18-.653.062-1.312-.022-1.93-.245.627-.196 1.287-.257 1.938-.18.653-.058 1.31.026 1.929.245zM154.218 190.433c-1.28.261-2.603.239-3.874-.066 1.28-.261 2.603-.239 3.874.066zM161.958 190.572c-1.28.261-2.603.239-3.874-.066.629-.194 1.291-.255 1.945-.18.653-.055 1.31.028 1.929.246zM169.698 190.702c-.626.196-1.286.257-1.937.18-.654.058-1.311-.026-1.93-.245.627-.196 1.287-.257 1.938-.18.653-.062 1.312.021 1.929.245zM176.179 186.951c.065.09-.564.686-1.422 1.332-.47.445-1.026.787-1.635 1.005-.073-.098.564-.694 1.414-1.34.85-.646 1.57-1.095 1.643-.997zM182.35 182.26c.073.09-.564.694-1.414 1.34-.472.44-1.028.78-1.635.997-.065-.098.564-.695 1.414-1.34.85-.646 1.545-1.08 1.635-.997zM177.65 132.404c.114 0 .114.498 0 1.046s-.319.973-.433.948c-.115-.024-.106-.49 0-1.038s.319-1.022.433-.956zM179.53 124.06c.054.718-.035 1.44-.262 2.124-.093.713-.323 1.402-.678 2.027.032-1.433.351-2.845.94-4.152zM181.442 115.747c-.034 1.432-.35 2.843-.931 4.152.034-1.432.35-2.843.931-4.152zM183.281 107.435c-.033 1.436-.352 2.85-.94 4.16-.054-.718.035-1.44.262-2.125.092-.716.322-1.407.678-2.035zM185.153 99.123c.054.719-.035 1.44-.262 2.125-.087.717-.318 1.41-.678 2.035.033-1.435.352-2.85.94-4.16zM187.033 90.82c.048.718-.04 1.439-.262 2.124-.093.713-.323 1.402-.678 2.027-.054-.718.035-1.44.261-2.125.089-.714.32-1.403.679-2.027zM188.414 84.673c.114 0 .106.49 0 1.038s-.319.98-.433.948c-.115-.033-.106-.49 0-1.038.106-.547.319-.98.433-.948z"/>
                    <path fill="#FF725E" fill-rule="nonzero" d="M145.628 133.36c.106-.049.392.319.646.817.253.499.376.957.27 1.014-.107.057-.393-.319-.646-.817-.254-.499-.376-.957-.27-1.014zM142.04 126.25c.106-.058.597.702 1.087 1.683.361.57.603 1.206.711 1.872-.106.057-.597-.703-1.087-1.684-.361-.57-.603-1.206-.711-1.871zM138.46 119.13c.473.482.843 1.055 1.087 1.684.361.572.6 1.212.703 1.88-.473-.481-.843-1.054-1.087-1.683-.363-.571-.602-1.211-.703-1.88zM134.856 112.02c.106-.057.588.703 1.087 1.684.36.569.6 1.206.703 1.871-.107.058-.589-.702-1.087-1.683-.36-.57-.6-1.206-.703-1.872zM131.292 104.901c.477.48.847 1.053 1.087 1.684.365.57.607 1.21.711 1.88-.476-.479-.846-1.053-1.087-1.684-.362-.572-.604-1.211-.71-1.88zM127.713 97.79c.106-.056.588.704 1.087 1.685.36.569.6 1.206.702 1.871-.473-.481-.843-1.054-1.087-1.684-.36-.568-.6-1.206-.702-1.871zM124.133 90.672c.473.481.843 1.054 1.087 1.684.36.569.6 1.206.703 1.871-.107.058-.589-.694-1.087-1.634-.367-.584-.607-1.238-.703-1.92zM120.545 83.562c.106-.058.596.694 1.087 1.683.363.569.605 1.206.71 1.872-.475-.48-.846-1.053-1.086-1.684-.362-.57-.603-1.206-.711-1.871zM117.84 78.175c.106-.049.392.311.645.818.253.507.376.956.27 1.005-.106.05-.392-.31-.646-.817-.253-.507-.376-.948-.27-1.006zM81.625 145.726c0 .114-.475.18-1.038.13-.564-.048-1.014-.17-1.006-.285.008-.115.474-.18 1.038-.14.564.042 1.014.18 1.006.295zM89.904 146.38c-.688.154-1.399.17-2.092.049-.705.013-1.405-.115-2.06-.376.687-.155 1.398-.171 2.092-.05.705-.016 1.406.112 2.06.377zM98.232 147.025c-1.392.176-2.805.065-4.152-.326 1.392-.176 2.805-.065 4.152.326zM106.536 147.68c-1.392.175-2.805.063-4.152-.328.688-.154 1.399-.17 2.092-.049.706-.019 1.407.11 2.06.376zM114.848 148.325c-.687.159-1.399.176-2.092.049-.704.014-1.404-.11-2.06-.368.685-.167 1.397-.192 2.092-.073.706-.004 1.406.129 2.06.392zM123.152 148.979c-.687.154-1.399.17-2.092.049-.705.016-1.406-.112-2.06-.376 1.392-.175 2.805-.064 4.152.327zM129.339 149.461c0 .123-.466.18-1.03.139-.564-.04-1.013-.18-1.005-.294.008-.115.474-.18 1.038-.131.564.049 1.013.172.997.286z"/>
                    <circle cx="100.92" cy="47.731" r="35.986" fill="#FFF" fill-rule="nonzero" transform="rotate(-76.97 100.92 47.731)"/>
                    <path fill="#FF725E" fill-rule="nonzero" d="M136.907 47.739s0-.196-.049-.589c-.049-.392-.065-.964-.114-1.708 0-.376-.025-.792-.074-1.25-.04-.466-.139-.965-.22-1.504-.082-.54-.18-1.128-.278-1.757-.123-.662-.281-1.317-.474-1.962-.835-3.365-2.177-6.584-3.98-9.546-2.358-3.945-5.455-7.397-9.122-10.167l-1.553-1.16c-.547-.352-1.12-.68-1.683-1.03-.564-.352-1.128-.728-1.75-1.014l-1.855-.89-.94-.45-.997-.36-2.01-.736c-.687-.229-1.406-.367-2.109-.564-.713-.21-1.44-.373-2.174-.49-1.493-.279-3.003-.453-4.52-.523-.776 0-1.553-.106-2.337-.09l-2.37.123c-.393 0-.818 0-1.194.073l-1.193.188c-.817.13-1.635.22-2.411.392-1.62.358-3.215.825-4.773 1.398-1.6.578-3.16 1.264-4.667 2.052-.752.408-1.48.882-2.231 1.332-.36.229-.752.433-1.104.694l-1.054.818c-1.437 1.057-2.802 2.21-4.086 3.449l-1.823 2.002-.458.507-.408.54-.818 1.095-.817 1.103-.72 1.177-.718 1.185-.36.597-.31.62-1.21 2.526-.924 2.624c-2.457 7.327-2.457 15.255 0 22.582.327.883.654 1.765.973 2.648.319.883.817 1.684 1.218 2.526l.302.62.36.597.727 1.185.72 1.177.817 1.104.817 1.095.409.547.457.499 1.815 2.002c1.284 1.242 2.65 2.397 4.086 3.458l1.055.817c.351.27.743.466 1.103.703.752.441 1.48.915 2.231 1.332 1.508.788 3.067 1.473 4.667 2.052 1.56.565 3.154 1.032 4.773 1.397.817.164 1.635.262 2.411.392l1.193.18c.4.057.818.05 1.194.082l2.37.123c.817 0 1.56-.066 2.337-.09 1.52-.073 3.033-.25 4.528-.532.732-.118 1.455-.281 2.166-.49.711-.188 1.422-.335 2.109-.564l2.018-.736.99-.36.948-.449 1.855-.89c.6-.308 1.184-.646 1.749-1.014.572-.343 1.144-.67 1.683-1.03l1.553-1.152c3.66-2.775 6.754-6.227 9.113-10.167 1.78-2.98 3.097-6.213 3.907-9.588.193-.644.351-1.3.474-1.961.098-.621.188-1.21.278-1.75.09-.539.18-1.045.22-1.503.042-.458.058-.883.074-1.259.05-.743.09-1.307.115-1.708.024-.4.049-.58.049-.58v.58c0 .384-.041.973-.066 1.717 0 .376 0 .817-.057 1.258-.057.442-.13.965-.204 1.512-.074.548-.164 1.136-.262 1.757-.113.668-.263 1.328-.45 1.978-.805 3.402-2.128 6.66-3.922 9.66-2.351 3.99-5.455 7.485-9.138 10.29l-1.553 1.17c-.547.36-1.128.694-1.7 1.046-.572.351-1.136.743-1.757 1.03l-1.872.907-.956.457-1.005.368-2.027.744c-.695.229-1.414.384-2.133.58-.717.209-1.446.375-2.182.499-1.513.28-3.041.46-4.577.54-.818 0-1.561.106-2.354.098l-2.395-.123c-.4 0-.817 0-1.21-.074l-1.21-.18c-.816-.13-1.634-.228-2.451-.392-3.318-.742-6.527-1.91-9.546-3.474-.768-.416-1.496-.899-2.256-1.348-.368-.237-.768-.433-1.12-.703l-1.07-.817c-1.437-1.073-2.802-2.24-4.087-3.49l-1.847-2.027-.458-.507-.417-.547-.817-1.112-.817-1.111-.728-1.194-.768-1.21-.368-.596-.31-.638c-.409-.839-.818-1.689-1.226-2.55-.327-.89-.654-1.781-.99-2.68-2.49-7.411-2.49-15.433 0-22.844l.982-2.68c.408-.859.817-1.709 1.234-2.559l.302-.63.368-.596.727-1.201.736-1.194.817-1.111.818-1.112.416-.547.466-.507 1.84-2.027c1.282-1.25 2.647-2.414 4.086-3.482l1.062-.817c.352-.262.752-.466 1.12-.703.76-.45 1.487-.932 2.256-1.34 3.02-1.564 6.228-2.732 9.546-3.474.817-.171 1.635-.261 2.452-.392l1.21-.18c.4-.057.817-.049 1.209-.082l2.395-.114c.817 0 1.577.065 2.354.09 1.533.077 3.06.26 4.568.547.74.12 1.472.286 2.19.499.72.196 1.44.343 2.126.572l2.035.752 1.005.368.948.457 1.88.908c.621.286 1.177.686 1.757 1.021.58.335 1.144.687 1.692 1.046l1.561 1.17c3.682 2.807 6.785 6.301 9.138 10.29 1.795 2.99 3.124 6.236 3.939 9.627.185.65.336 1.311.45 1.978.098.63.18 1.218.261 1.757.082.54.164 1.054.204 1.512.041.458.041.891.058 1.267 0 .744.049 1.316.065 1.708.016.392.057.605.057.605z"/>
                    <path d="M104.615 27.788c1.065.13 2.108.405 3.098.818l2.28-1.913 3.907 2.975-1.234 2.706c.668.844 1.218 1.777 1.634 2.77l2.96.262.661 4.863-2.787 1.046c-.13 1.065-.405 2.107-.817 3.098l1.912 2.272-2.975 3.915-2.705-1.235c-.848.665-1.78 1.214-2.77 1.635l-.262 2.959-4.904.662-1.038-2.78c-1.064-.136-2.105-.41-3.098-.816l-2.272 1.904-3.915-2.975 1.235-2.705c-.667-.843-1.217-1.773-1.635-2.763l-2.959-.261-.662-4.904 2.78-1.038c.136-1.064.41-2.105.816-3.098l-1.904-2.28 2.975-3.907 2.705 1.226c.846-.664 1.774-1.213 2.763-1.635l.261-2.958 4.904-.662 1.046 2.82zm-1.994 6.76c-2.114.284-3.849 1.814-4.394 3.876-.545 2.063.206 4.25 1.903 5.543 1.697 1.292 4.006 1.434 5.849.36 1.843-1.075 2.856-3.154 2.568-5.268-.394-2.881-3.043-4.902-5.926-4.52v.009z"/>
                    <path fill="#263238" fill-rule="nonzero" d="M102.621 34.54s.106-.041.327-.074c.323-.04.65-.04.973 0 1.23.093 2.387.617 3.269 1.48 1.048 1.02 1.639 2.422 1.639 3.885 0 1.464-.591 2.865-1.64 3.887-1.715 1.674-4.325 2.026-6.423.866-1.284-.7-2.23-1.89-2.625-3.297-.394-1.409-.202-2.917.533-4.181.61-1.056 1.57-1.866 2.713-2.289.306-.118.624-.2.948-.245.114-.02.23-.02.343 0 0 0-.465.09-1.226.409-1.068.464-1.953 1.269-2.517 2.288-.831 1.53-.831 3.375 0 4.904.47.888 1.192 1.616 2.076 2.092.948.509 2.032.706 3.098.564 2.106-.295 3.808-1.864 4.274-3.94.37-1.689-.134-3.451-1.34-4.69-.816-.833-1.886-1.37-3.04-1.529-.916-.171-1.382-.09-1.382-.13z"/>
                    <path fill="#263238" fill-rule="nonzero" d="M104.615 27.788l-.073-.171-.213-.515-.817-2.076h.074l-4.904.703.09-.098c-.074.899-.156 1.896-.237 2.958v.074h-.074c-.98.42-1.898.97-2.73 1.635l-.065.049h-.074l-2.713-1.218.188-.05-2.967 3.916v-.205l1.913 2.273.065.081v.098c-.406.976-.68 2.001-.817 3.049v.122h-.107l-2.779 1.047.123-.205c.213 1.529.433 3.18.67 4.904l-.18-.163 2.96.253h.122v.114c.424.975.974 1.89 1.634 2.722l.074.098-.05.115-1.233 2.697-.058-.245 3.907 2.966h-.261l2.28-1.904.098-.082.114.05c.974.404 1.996.678 3.04.817l.18.139v.13l.066.172.13.351.254.695c.18.466.352.932.523 1.39l-.229-.14 4.904-.653-.18.188c.082-.997.172-1.986.262-2.959v-.122l.114-.05c.975-.403 1.89-.936 2.722-1.585l.098-.074.115.05 2.705 1.233-.245.066c1.013-1.34 2.008-2.643 2.983-3.907v.245c-.646-.817-1.275-1.536-1.904-2.28l-.074-.09.049-.106c.404-.976.679-2.001.817-3.049v-.114l.098-.04 2.787-1.03-.114.187c-.229-1.708-.441-3.326-.646-4.904l.147.14-2.958-.27h-.09v-.082c-.405-.979-.938-1.9-1.586-2.738l-.049-.074v-.073l1.243-2.697.04.155-3.89-3.008h.114l-2.288 1.888h-.04c-.742-.311-1.511-.552-2.298-.719l-.58-.114-.18.04c.068-.012.137-.012.205 0 .197.016.394.044.588.082.799.135 1.58.357 2.33.662h-.066l2.256-1.929.057-.049.065.05 3.924 2.95.081.057-.04.098-1.227 2.714v-.14c.667.853 1.216 1.79 1.635 2.788l-.123-.09 2.96.253h.122v.13l.67 4.864v.147l-.13.049-2.78 1.046.123-.155c-.133 1.08-.407 2.138-.817 3.147v-.188c.629.743 1.266 1.495 1.912 2.272l.098.114-.09.13-2.975 3.916-.098.122-.147-.065-2.705-1.226h.212c-.86.668-1.805 1.218-2.811 1.635l.13-.172c-.09.973-.171 1.962-.261 2.95v.172h-.163l-4.904.662h-.172l-.057-.163-.515-1.39-.262-.694-.13-.352-.066-.172v-.13l.172.139c-1.083-.134-2.143-.409-3.155-.818h.22l-2.28 1.905-.13.106-.131-.098-3.907-2.983-.13-.098.065-.156 1.234-2.697v.213c-.67-.862-1.22-1.81-1.635-2.82l.164.123-2.95-.262h-.164v-.155c-.229-1.692-.45-3.343-.654-4.904v-.147l.147-.057 2.779-1.03-.114.147c.133-1.08.408-2.138.817-3.147v.18c-.67-.817-1.316-1.57-1.904-2.28l-.082-.098.073-.107 2.992-3.906.073-.09.115.049 2.697 1.242h-.147c.856-.67 1.799-1.22 2.803-1.634l-.074.106c.099-1.07.197-2.06.278-2.959v-.09h.082l4.904-.62h.057v.048c.31.891.556 1.586.736 2.076.073.22.139.4.18.54.021.06.035.123.04.187z"/>
                    <path fill="#FF725E" d="M95.993 56.688c.587.074 1.161.225 1.708.45l1.259-1.046 2.157 1.634-.678 1.488c.364.467.664.981.89 1.528l1.635.147.36 2.69-1.528.571c-.078.587-.231 1.162-.458 1.709l1.054 1.258-1.634 2.158-1.488-.678c-.47.356-.984.653-1.528.882l-.147 1.635-2.69.368-.571-1.537c-.587-.073-1.162-.224-1.709-.45l-1.258 1.055-2.158-1.635.678-1.495c-.365-.466-.665-.98-.89-1.529l-1.635-.139-.368-2.689 1.537-.572c.074-.589.225-1.166.45-1.716l-1.055-1.25 1.635-2.158 1.495.678c.466-.365.98-.665 1.529-.89l.139-1.635 2.688-.368.573 1.536h.008zm-1.104 3.736c-1.17.158-2.127 1.008-2.424 2.15-.297 1.143.126 2.352 1.07 3.06.945.709 2.223.776 3.237.171 1.014-.605 1.562-1.762 1.387-2.93-.236-1.573-1.693-2.666-3.27-2.451z"/>
                    <circle cx="199.284" cy="51.305" r="35.986" fill="#FFF" fill-rule="nonzero" transform="rotate(-45 199.284 51.305)"/>
                    <path fill="#FF725E" fill-rule="nonzero" d="M235.27 51.302s0-.196-.049-.58c-.049-.384-.065-.972-.106-1.708 0-.376-.05-.817-.074-1.259-.024-.441-.147-.964-.228-1.504-.082-.539-.18-1.127-.278-1.757-.098-.63-.311-1.267-.466-1.961-.842-3.365-2.186-6.583-3.989-9.546-2.357-3.943-5.45-7.395-9.113-10.168l-1.553-1.16c-.539-.352-1.111-.679-1.683-1.03-.572-.352-1.128-.728-1.741-1.014l-1.855-.89-.948-.45-.99-.36-2.018-.735c-.687-.22-1.398-.368-2.109-.564-.712-.205-1.435-.369-2.166-.49-1.495-.28-3.008-.454-4.528-.524-.776 0-1.552-.098-2.337-.09l-2.37.123c-.393 0-.818 0-1.194.074l-1.193.188c-.817.13-1.634.228-2.41.392-3.282.74-6.455 1.9-9.44 3.449-.753.409-1.48.89-2.224 1.332-.368.237-.76.433-1.111.695l-1.047.817c-1.437 1.058-2.802 2.21-4.086 3.45l-1.823 2.002-.457.506-.409.54-.817 1.095-.818 1.103-.719 1.177-.72 1.185-.359.597-.302.621-1.218 2.526-.964 2.664c-2.463 7.326-2.463 15.256 0 22.582l.972 2.648 1.21 2.526.31.621.36.597.72 1.185.719 1.177.817 1.103.817 1.095.409.548.458.498 1.822 2.01c1.284 1.24 2.65 2.392 4.087 3.45l1.054.817c.351.27.744.466 1.112.703.743.442 1.47.924 2.223 1.332 1.51.79 3.071 1.475 4.675 2.052 1.559.567 3.153 1.034 4.773 1.397.817.164 1.634.262 2.403.393l1.193.18c.4.057.817.049 1.201.081l2.37.123c.818 0 1.562-.066 2.33-.09 1.52-.073 3.032-.248 4.528-.523.73-.125 1.453-.289 2.166-.49.71-.197 1.43-.344 2.108-.573l2.019-.727.997-.368.94-.45 1.863-.89c.622-.278 1.17-.679 1.75-1.005.58-.327 1.136-.679 1.683-1.038l1.545-1.153c3.664-2.77 6.759-6.223 9.113-10.167 1.801-2.967 3.146-6.188 3.988-9.554.156-.695.393-1.333.466-1.962.074-.63.188-1.21.278-1.75.09-.538.18-1.045.229-1.503.049-.458.049-.883.073-1.259.041-.743.082-1.307.107-1.708.024-.4.049-.58.049-.58v.58c0 .384 0 .973-.066 1.717 0 .376 0 .817-.049 1.258-.049.442-.139.965-.212 1.512-.074.548-.164 1.136-.254 1.766-.09.629-.302 1.275-.457 1.97-.808 3.396-2.137 6.646-3.94 9.635-2.35 3.985-5.45 7.477-9.129 10.282l-1.561 1.169c-.548.368-1.128.695-1.692 1.054-.564.36-1.136.736-1.765 1.022l-1.905.842-.956.457-.997.368-2.035.744c-.687.229-1.414.384-2.125.58-.72.208-1.451.374-2.19.499-1.509.288-3.035.468-4.57.54-.817 0-1.568.105-2.361.098l-2.395-.123c-.4 0-.817 0-1.21-.074l-1.201-.18c-.817-.13-1.635-.229-2.452-.392-1.639-.363-3.252-.833-4.83-1.406-1.62-.582-3.198-1.273-4.724-2.068-.76-.416-1.496-.899-2.256-1.348-.368-.229-.76-.433-1.12-.703l-1.062-.817c-1.437-1.074-2.802-2.24-4.087-3.49l-1.839-2.027-.466-.507-.416-.547-.818-1.112-.817-1.112-.736-1.193-.727-1.193-.368-.605-.302-.63c-.409-.817-.818-1.7-1.234-2.557l-.981-2.681c-2.495-7.41-2.495-15.434 0-22.844l.98-2.68 1.235-2.55.31-.638.36-.597.736-1.201.727-1.194.817-1.111.818-1.103.416-.556.466-.507c.613-.678 1.234-1.348 1.84-2.027 1.284-1.248 2.65-2.411 4.086-3.482l1.062-.817c.36-.27.752-.474 1.12-.71.76-.45 1.496-.925 2.256-1.341 1.524-.799 3.103-1.49 4.724-2.068 1.578-.573 3.191-1.043 4.83-1.406.817-.163 1.635-.261 2.452-.392l1.201-.18c.4-.057.818-.049 1.21-.082l2.395-.114c.817 0 1.577.065 2.354.098 1.536.07 3.066.25 4.577.54.737.12 1.466.286 2.182.498.719.196 1.438.343 2.133.58l2.027.744 1.013.417.957.457 1.871.908c.621.286 1.177.686 1.757 1.021.58.335 1.153.687 1.7 1.046l1.553 1.17c3.682 2.807 6.785 6.301 9.138 10.29 1.8 2.986 3.126 6.234 3.931 9.627.155.703.384 1.349.458 1.978.073.63.171 1.218.253 1.765.082.548.172 1.046.213 1.504.04.458 0 .891.049 1.267 0 .744.049 1.316.065 1.716.016.4.008.572.008.572z"/>
                    <circle cx="198.239" cy="51.505" r="18.112" fill="#F5F5F5" fill-rule="nonzero" transform="rotate(-65.66 198.24 51.505)"/>
                    <path fill="#263238" fill-rule="nonzero" d="M180.16 50.305c.006.098.006.197 0 .295v1.495c0 .229 0 .482.065.76.044.632.132 1.26.261 1.88.322 1.71.894 3.362 1.7 4.904 3.947 7.652 12.765 11.433 21.03 9.015.816-.238 1.616-.53 2.394-.875.79-.366 1.552-.79 2.28-1.266.749-.48 1.464-1.01 2.142-1.586.67-.613 1.3-1.268 1.888-1.962 1.206-1.419 2.177-3.022 2.877-4.748.704-1.784 1.139-3.663 1.291-5.574.103-1.924-.084-3.853-.556-5.721-.46-1.807-1.212-3.526-2.223-5.092-.498-.764-1.044-1.496-1.634-2.19-.595-.662-1.234-1.282-1.913-1.856-.662-.567-1.364-1.086-2.1-1.553-8.139-5.054-18.81-2.84-24.266 5.035-1.003 1.422-1.786 2.987-2.321 4.642-.213.597-.383 1.21-.507 1.83-.057.27-.123.516-.164.745-.04.229-.065.441-.09.629-.049.36-.09.638-.114.817-.01.1-.03.198-.057.295-.013-.098-.013-.197 0-.295 0-.22.049-.498.082-.858 0-.196.04-.408.065-.637.024-.23.09-.483.147-.752.113-.632.271-1.255.474-1.864.515-1.682 1.284-3.275 2.28-4.724 2.904-4.284 7.498-7.124 12.628-7.806 5.13-.682 10.307.858 14.23 4.235.696.585 1.352 1.219 1.96 1.896.593.707 1.14 1.453 1.635 2.231 1.037 1.603 1.807 3.364 2.28 5.214.483 1.903.676 3.868.573 5.828-.156 1.962-.602 3.89-1.324 5.721-.716 1.782-1.712 3.437-2.95 4.904-.602.709-1.25 1.378-1.938 2.002-.693.593-1.425 1.139-2.19 1.635-.749.484-1.53.915-2.338 1.291-3.802 1.646-8.043 1.98-12.055.948-5.07-1.323-9.328-4.761-11.688-9.44-.794-1.57-1.345-3.25-1.634-4.985-.118-.63-.191-1.265-.22-1.905 0-.277-.05-.53-.05-.768v-.637c0-.36 0-.646.041-.858-.008-.099-.005-.197.008-.295z"/>
                    <path fill="#263238" fill-rule="nonzero" d="M206.452 52.046c-.215.023-.431.023-.646 0l-1.757.041h-6.04v-1.291-6.71c0-.818 0-1.52.041-2.036-.009-.25.005-.503.04-.751.037.248.054.5.05.751v2.036c0 1.716.04 4.086.04 6.71v1.177l-.122-.115c2.354 0 4.43 0 5.926.041h1.757c.242.021.48.07.71.147zM198.18 36.354c.153 1.008.153 2.033 0 3.04-.152-1.007-.152-2.032 0-3.04zM206.436 38.798c-.595.813-1.312 1.53-2.125 2.125.265-.43.596-.817.98-1.145.327-.385.714-.716 1.145-.98zM211.258 44.07c-.385.318-.804.592-1.25.817-.406.29-.845.532-1.308.719.332-.381.734-.694 1.185-.924.415-.287.881-.495 1.373-.613zM214.086 51.89c-1.38.153-2.773.153-4.152 0 1.38-.152 2.772-.152 4.152 0zM185.325 51.613c-1.304.153-2.62.153-3.924 0 1.304-.153 2.62-.153 3.924 0zM187.351 57.432c-.434.51-.93.963-1.479 1.349-.497.45-1.046.84-1.635 1.16.442-.502.938-.955 1.48-1.348.5-.447 1.048-.836 1.634-1.16zM192.378 61.936c-.295.607-.633 1.191-1.014 1.749-.31.597-.667 1.169-1.07 1.708.197-.651.492-1.269.874-1.831.316-.602.725-1.15 1.21-1.626zM198.18 67.747c-.152-1.38-.152-2.773 0-4.152.153 1.38.153 2.772 0 4.152zM207.122 64.984c-.63-.292-1.207-.687-1.708-1.169-.546-.433-1.018-.952-1.398-1.536.545.42 1.064.873 1.553 1.357.543.419 1.062.87 1.553 1.348zM211.323 60.48c-.506-.344-.967-.75-1.373-1.209-.464-.4-.871-.862-1.21-1.373.507.345.968.75 1.373 1.21.46.405.866.867 1.21 1.373zM187.163 46.039c-.448-.292-.855-.644-1.21-1.046-.405-.353-.758-.763-1.045-1.218.449.292.856.644 1.21 1.046.405.353.758.763 1.045 1.218zM192.345 40.58c-.448-.277-.85-.622-1.193-1.022-.4-.343-.747-.742-1.03-1.185.449.276.851.62 1.193 1.021.4.343.747.742 1.03 1.185z"/>
                    <circle cx="212.012" cy="36.366" r="9.497" fill="#FF725E" fill-rule="nonzero" transform="rotate(-22.33 212.012 36.366)"/>
                    <path fill="#FAFAFA" fill-rule="nonzero" d="M216.587 33.395c-.338.545-.73 1.054-1.17 1.52-.751.9-1.822 2.134-3.023 3.474-.335.368-.662.72-.973 1.07l-.139.148-.147-.131c-1.087-.973-2.019-1.839-2.672-2.452-.374-.307-.707-.661-.99-1.054.425.234.818.523 1.17.858.702.572 1.634 1.397 2.762 2.354h-.286c.305-.349.624-.709.956-1.08 1.201-1.34 2.305-2.533 3.122-3.39.41-.492.876-.934 1.39-1.317z"/>
                    <path fill="#FF725E" fill-rule="nonzero" d="M125.906 192.762c-.073-.082.54-.768 1.381-1.52.842-.752 1.578-1.3 1.635-1.21.057.09-.54.768-1.381 1.52-.842.752-1.553 1.333-1.635 1.21zM119.834 198.23c-.082-.09.53-.768 1.373-1.529.842-.76 1.585-1.29 1.634-1.201.05.09-.53.768-1.373 1.52-.842.752-1.56 1.3-1.634 1.21zM113.753 203.698c-.082-.09.54-.818 1.381-1.529.46-.507 1.015-.918 1.635-1.21.073.09-.54.769-1.382 1.529-.459.507-1.015.918-1.634 1.21zM107.68 209.157c-.081-.082.532-.768 1.373-1.52.842-.752 1.586-1.3 1.635-1.21.049.09-.531.769-1.373 1.529-.842.76-1.561 1.275-1.635 1.201zM101.6 214.625c-.082-.09.539-.768 1.38-1.52.843-.752 1.578-1.3 1.635-1.21.058.09-.539.768-1.38 1.52-.843.752-1.554 1.3-1.635 1.21z"/>
                    <circle cx="79.58" cy="243.786" r="35.986" fill="#FFF" fill-rule="nonzero" transform="rotate(-76.68 79.58 243.786)"/>
                    <path fill="#FF725E" fill-rule="nonzero" d="M115.567 243.795s0-.196-.049-.58c-.049-.385-.057-.965-.106-1.709 0-.376-.049-.817-.074-1.258-.024-.442-.147-.965-.228-1.504-.082-.54-.18-1.128-.278-1.75-.12-.661-.275-1.316-.466-1.96-.84-3.369-2.185-6.59-3.989-9.555-2.357-3.943-5.45-7.395-9.113-10.167l-1.552-1.177c-.548-.36-1.12-.687-1.692-1.038-.572-.352-1.12-.728-1.741-1.006l-1.864-.89-.948-.45-.989-.368-2.018-.727c-.687-.23-1.398-.376-2.109-.572-.713-.201-1.436-.365-2.166-.49-1.496-.276-3.009-.45-4.528-.524-.768 0-1.553-.098-2.337-.09l-2.362.123c-.4 0-.818 0-1.202.082l-1.193.18c-.817.13-1.635.228-2.403.392-1.62.363-3.214.83-4.773 1.397-1.601.575-3.16 1.26-4.667 2.052-.76.408-1.487.89-2.231 1.332-.368.237-.76.433-1.103.703l-1.055.817c-1.437 1.058-2.802 2.21-4.086 3.45l-1.815 2.002-.457.506-.417.548-.818 1.095-.817 1.095-.72 1.177-.718 1.185-.36.597-.302.63c-.409.817-.818 1.675-1.218 2.517-.4.841-.646 1.765-.973 2.656-2.463 7.323-2.463 15.25 0 22.574.327.883.646 1.773.973 2.648.327.875.817 1.692 1.21 2.525l.31.63.36.588.719 1.185.72 1.185.816 1.096.818 1.095.408.547.458.507 1.823 2.003c1.284 1.238 2.65 2.39 4.086 3.449l1.046.817c.352.261.744.458 1.112.695.744.441 1.471.923 2.223 1.332 1.51.79 3.072 1.475 4.675 2.051 1.557.575 3.152 1.042 4.773 1.398.817.171 1.635.261 2.403.392l1.193.188c.4.05.818.05 1.202.074l2.37.122c.817 0 1.56-.065 2.33-.09 1.519-.069 3.032-.243 4.527-.523.732-.116 1.455-.28 2.166-.49.711-.196 1.43-.343 2.109-.564l2.018-.736.997-.36.94-.449 1.864-.899c.621-.278 1.169-.678 1.749-1.005.58-.327 1.136-.678 1.684-1.038l1.544-1.152c3.667-2.77 6.764-6.223 9.121-10.168 1.805-2.98 3.15-6.214 3.989-9.595.19-.645.346-1.3.466-1.961.098-.63.196-1.21.278-1.758.081-.547.18-1.038.228-1.504.05-.465.05-.882.074-1.258.05-.736.082-1.308.106-1.708.025-.4.05-.58.05-.58v.588c0 .392 0 .964-.066 1.708 0 .376 0 .817-.05 1.267-.048.45-.13.964-.212 1.504-.081.54-.163 1.136-.253 1.765-.118.667-.27 1.327-.458 1.978-.81 3.392-2.135 6.639-3.93 9.628-2.357 3.983-5.46 7.474-9.138 10.282l-1.561 1.176c-.548.36-1.128.687-1.692 1.047-.564.36-1.136.735-1.766 1.021l-1.871.907-.957.458-.997.368-2.035.744c-.686.237-1.414.384-2.125.58-.719.211-1.45.378-2.19.499-1.508.288-3.035.468-4.569.539-.817 0-1.57.106-2.362.099l-2.395-.115c-.4 0-.817 0-1.201-.082l-1.21-.18c-.817-.13-1.634-.22-2.452-.392-1.64-.36-3.253-.83-4.83-1.406-1.62-.581-3.198-1.272-4.724-2.068-.76-.408-1.496-.89-2.256-1.34-.368-.237-.76-.441-1.12-.711l-1.062-.818c-1.438-1.07-2.804-2.236-4.086-3.49l-1.84-2.018-.465-.515-.417-.548-.817-1.111-.818-1.112-.735-1.185-.728-1.201-.36-.605-.31-.63-1.234-2.558-.98-2.68c-2.496-7.41-2.496-15.434 0-22.844l.98-2.68c.417-.818.817-1.7 1.234-2.55l.31-.638.368-.597.728-1.201.727-1.186.818-1.12.817-1.103.417-.547.466-.515 1.822-1.97c1.285-1.25 2.65-2.416 4.087-3.49l1.07-.817c.352-.27.744-.474 1.12-.711.752-.441 1.488-.924 2.248-1.34 1.527-.793 3.105-1.483 4.724-2.068 1.586-.566 3.208-1.028 4.855-1.382.817-.163 1.634-.261 2.451-.392l1.202-.18c.409-.049.817-.049 1.21-.073l2.394-.123c.818 0 1.578.066 2.362.098 1.534.071 3.06.252 4.569.54.736.123 1.465.29 2.182.498.72.196 1.439.352 2.133.58l2.035.744.998.368.956.458 1.871.907c.63.286 1.177.687 1.758 1.022.58.335 1.152.686 1.7 1.054l1.553 1.169c3.68 2.805 6.784 6.296 9.137 10.281 1.803 2.99 3.132 6.24 3.94 9.636.187.648.34 1.306.457 1.97.09.63.18 1.218.254 1.766.073.547.171 1.046.212 1.512.04.465 0 .882.05 1.258 0 .744.056 1.316.064 1.717.009.4-.008.572-.008.572z"/>
                    <path fill="#263238" fill-rule="nonzero" d="M97.636 259.904c-.23.031-.463.045-.695.04l-1.986.042-7.356.073-24.151.074h-1.921v-.23c0-8.99.049-17.114.065-23.006 0-2.885.058-5.231.074-6.907 0-.817 0-1.405.04-1.871-.012-.218-.012-.436 0-.654.038.216.055.435.05.654v1.871c0 1.676 0 4.022.073 6.907 0 5.892 0 13.984.066 23.007l-.23-.229h1.725l24.152.065 7.356.074 1.986.04c.251-.008.503.009.752.05z"/>
                    <path fill="#263238" fill-rule="nonzero" d="M93.647 235.336c-.327.37-.685.712-1.07 1.021l-3.025 2.656c-2.574 2.232-6.146 5.288-10.102 8.64l-.604.514-.156.131-.147-.139-4.495-4.176h.327l-6.604 5.443-1.912 1.528c-.222.196-.463.369-.72.515.187-.229.398-.437.63-.62l1.839-1.636 6.49-5.565.146-.123.14.13 4.51 4.153h-.302l.597-.507c3.964-3.36 7.568-6.375 10.192-8.54l3.122-2.55c.36-.32.742-.612 1.144-.875z"/>
                    <path fill="#263238" fill-rule="nonzero" d="M93.647 242.847c-.123-.737-.175-1.485-.155-2.232 0-1.389-.066-3.318-.066-5.46l.221.23h-.384c-2.231 0-4.25 0-5.721-.066-.794.025-1.588-.03-2.37-.163.783-.123 1.577-.178 2.37-.164 1.463 0 3.482-.065 5.721-.065h.613v.229c0 2.141 0 4.086-.065 5.46.025.747-.03 1.495-.164 2.23z"/>
                    <circle cx="43.601" cy="143.019" r="35.986" fill="#FFF" fill-rule="nonzero" transform="rotate(-76.13 43.601 143.019)"/>
                    <path fill="#FF725E" fill-rule="nonzero" d="M79.581 143.029s0-.204-.049-.589c-.049-.384-.057-.964-.106-1.708 0-.376-.05-.817-.074-1.258-.024-.442-.147-.957-.228-1.504-.082-.548-.18-1.128-.278-1.75-.098-.62-.31-1.266-.466-1.96-.845-3.372-2.195-6.596-4.005-9.563-2.357-3.946-5.45-7.4-9.113-10.176l-1.512-1.152c-.548-.352-1.12-.679-1.692-1.03-.572-.352-1.12-.727-1.74-1.014l-1.864-.89-.948-.45-.99-.36-2.018-.735c-.686-.229-1.398-.376-2.109-.564-.71-.209-1.434-.373-2.165-.49-1.496-.28-3.009-.454-4.528-.523-.769 0-1.553-.107-2.338-.09l-2.362.122c-.4 0-.817 0-1.201.074l-1.194.188c-.817.13-1.634.22-2.402.384-1.62.362-3.215.832-4.774 1.406-1.6.575-3.16 1.26-4.666 2.051-.76.409-1.488.883-2.232 1.332-.367.23-.76.433-1.103.695l-1.054.817c-1.437 1.058-2.803 2.21-4.087 3.45l-1.814 2.002-.458.498-.417.548-.817 1.095-.817 1.103-.72 1.177-.719 1.185-.36.589-.302.63-1.234 2.5-.973 2.648c-2.463 7.323-2.463 15.251 0 22.574.327.891.646 1.774.973 2.657.327.882.817 1.683 1.21 2.517l.31.63.36.596.719 1.185.72 1.177.817 1.103.817 1.095.409.54.457.507 1.823 2.002c1.284 1.239 2.65 2.391 4.086 3.449l1.047.817c.351.262.743.466 1.111.695.744.45 1.471.924 2.223 1.332 2.99 1.549 6.165 2.71 9.448 3.457.818.164 1.635.254 2.403.393l1.193.18c.4.049.818.049 1.202.073l2.37.123c.817 0 1.561-.057 2.33-.09 1.519-.07 3.032-.244 4.527-.523.732-.116 1.456-.28 2.166-.49.711-.189 1.43-.336 2.109-.565l2.018-.735.998-.36.94-.45 1.863-.89c.621-.286 1.169-.687 1.749-1.014.58-.327 1.136-.67 1.684-1.03l1.544-1.152c3.66-2.783 6.75-6.246 9.097-10.2 1.797-2.965 3.139-6.183 3.98-9.546.19-.645.346-1.3.466-1.962.098-.62.196-1.21.278-1.749.082-.539.18-1.046.229-1.503.049-.458.049-.883.073-1.259.05-.744.082-1.308.107-1.708.024-.4.049-.58.049-.58v.58c0 .384 0 .972-.066 1.708 0 .384 0 .817-.049 1.267-.049.45-.13.964-.212 1.512-.082.547-.164 1.128-.254 1.757-.116.667-.27 1.327-.457 1.978-.809 3.392-2.135 6.64-3.931 9.628-2.35 3.985-5.448 7.478-9.122 10.29l-1.56 1.168c-.548.36-1.129.695-1.693 1.047-.563.351-1.136.743-1.765 1.03l-1.872.907-.956.45-.997.367-2.035.752c-.687.229-1.414.376-2.125.572-.719.214-1.45.383-2.19.507-1.51.28-3.036.46-4.57.54-.816 0-1.568.105-2.361.098l-2.395-.123c-.4 0-.817 0-1.201-.074l-1.21-.188c-.817-.13-1.635-.22-2.452-.384-1.639-.366-3.252-.838-4.83-1.414-1.615-.587-3.188-1.284-4.708-2.084-.76-.409-1.496-.891-2.256-1.34-.367-.238-.76-.434-1.12-.703l-1.062-.818c-1.438-1.068-2.803-2.23-4.086-3.481l-1.84-2.027-.465-.507-.417-.548-.817-1.111-.818-1.112-.735-1.193-.728-1.201-.36-.597-.31-.638c-.408-.817-.817-1.7-1.234-2.55l-1.03-2.607c-2.495-7.41-2.495-15.433 0-22.844l.981-2.68 1.234-2.559.31-.629.369-.605.727-1.193.727-1.193.818-1.112.817-1.111.417-.548.466-.507 1.847-2.067c1.283-1.25 2.648-2.414 4.086-3.482l1.071-.817c.351-.262.744-.466 1.12-.703.752-.45 1.487-.932 2.247-1.34 1.526-.796 3.105-1.487 4.724-2.069 1.577-.576 3.19-1.046 4.83-1.405.818-.172 1.635-.262 2.453-.393l1.201-.188c.409-.049.817-.049 1.21-.073l2.394-.115c.818 0 1.578.066 2.362.09 1.533.08 3.06.26 4.57.54.736.122 1.465.292 2.181.507.72.196 1.439.343 2.133.572l2.036.752.997.367.956.45 1.929.923c.63.286 1.177.695 1.757 1.03.58.335 1.152.687 1.7 1.046l1.553 1.17c3.681 2.807 6.784 6.301 9.137 10.289 1.803 2.987 3.132 6.234 3.94 9.628.155.703.384 1.34.457 1.978.074.637.18 1.21.254 1.757.073.548.171 1.046.212 1.512.041.466 0 .883.05 1.267 0 .744.048 1.308.065 1.708.016.4-.025.605-.025.605z"/>
                    <path fill="#FAFAFA" fill-rule="nonzero" d="M44.527 127.361l3.898 7.903c.153.296.44.5.769.548l8.72 1.267c.383.056.7.325.818.693.118.368.017.771-.262 1.04l-6.31 6.146c-.236.235-.342.57-.285.899l1.487 8.68c.066.38-.09.766-.402.993-.313.228-.727.258-1.07.077l-7.796-4.086c-.294-.156-.646-.156-.94 0l-7.805 4.086c-.341.183-.757.154-1.069-.075-.312-.228-.465-.615-.394-.995l1.487-8.68c.054-.33-.056-.665-.294-.9l-6.31-6.145c-.272-.272-.369-.674-.25-1.04.12-.366.434-.634.814-.693l8.72-1.267c.328-.049.611-.253.76-.548l3.9-7.903c.17-.344.522-.562.907-.562.384 0 .736.218.907.562z"/>
                    <path fill="#263238" fill-rule="nonzero" d="M44.527 127.361s0-.082-.164-.212c-.232-.244-.573-.353-.904-.288-.33.064-.606.293-.73.606l-.76 1.586c-.572 1.193-1.275 2.64-2.093 4.323l-.637 1.308c-.106.229-.22.458-.335.687-.147.263-.39.46-.679.547-1.087.18-2.174.327-3.342.507l-3.662.548-1.937.294c-.287.056-.522.261-.616.538-.095.276-.034.582.158.802l6.318 6.163c.35.306.5.783.384 1.234l-.196 1.177c-.139.817-.27 1.585-.408 2.386-.27 1.635-.556 3.27-.818 4.904-.09.346.056.71.36.9.142.094.313.135.482.114.185-.023.362-.09.515-.197l2.313-1.21 4.716-2.451.605-.319c.254-.12.542-.151.817-.09.232.07.454.17.662.294l.588.311 2.346 1.234 4.569 2.403c.235.096.502.077.72-.05.22-.129.368-.352.4-.604-.001-.19-.023-.379-.066-.564l-.417-2.452c-.27-1.634-.54-3.179-.817-4.724l-.196-1.144c-.081-.448.088-.906.441-1.193.54-.531 1.08-1.046 1.635-1.561 1.062-1.03 2.09-2.03 3.081-3l1.471-1.422c.235-.166.365-.442.343-.729-.022-.286-.192-.54-.449-.668-.28-.107-.575-.17-.875-.188l-.956-.14-1.79-.27-3.326-.498-1.537-.228c-.253-.05-.474-.058-.743-.131-.258-.084-.475-.258-.613-.49l-2.109-4.332-1.324-2.755-.327-.71c-.074-.164-.106-.254-.106-.254.056.07.102.147.139.229.098.18.22.408.367.703.336.645.818 1.553 1.382 2.705l2.166 4.283c.102.184.268.326.465.4.197.057.475.074.712.114l1.528.213 3.334.474 1.79.253.932.131c.336.017.668.089.98.213.336.192.558.535.595.92.037.384-.114.764-.406 1.017l-1.455 1.43-3.073 3.008-1.635 1.577c-.255.188-.38.506-.318.817l.196 1.145c.267 1.536.54 3.11.817 4.724.139.817.278 1.634.425 2.452.05.222.071.45.065.678-.02.256-.127.498-.302.686-.347.394-.91.516-1.39.303l-4.6-2.403-2.281-1.234-.589-.31c-.174-.106-.36-.191-.555-.254-.174-.037-.354-.017-.515.057l-.597.31-4.716 2.453-2.313 1.217c-.206.128-.437.212-.678.246-.262.02-.523-.046-.744-.188-.443-.282-.66-.813-.54-1.324.29-1.668.562-3.302.818-4.904.139-.818.278-1.635.417-2.387l.196-1.177c.106-.322.002-.677-.261-.89l-6.343-6.22c-.253-.322-.324-.75-.188-1.136.128-.375.435-.66.818-.76l1.961-.287 3.662-.514 3.318-.474c.22-.066.406-.212.523-.41l.335-.677.654-1.3 2.158-4.29c.302-.59.564-1.112.817-1.57.183-.426.617-.688 1.079-.654.275.02.53.153.703.368.072.067.125.151.155.245z"/>
                    <circle cx="43.601" cy="143.019" r="35.986" fill="#FFF" fill-rule="nonzero" transform="rotate(-76.13 43.601 143.019)"/>
                    <path fill="#FF725E" fill-rule="nonzero" d="M79.581 143.029s0-.204-.049-.589c-.049-.384-.057-.964-.106-1.708 0-.376-.05-.817-.074-1.258-.024-.442-.147-.957-.228-1.504-.082-.548-.18-1.128-.278-1.75-.098-.62-.31-1.266-.466-1.96-.845-3.372-2.195-6.596-4.005-9.563-2.357-3.946-5.45-7.4-9.113-10.176l-1.512-1.152c-.548-.352-1.12-.679-1.692-1.03-.572-.352-1.12-.727-1.74-1.014l-1.864-.89-.948-.45-.99-.36-2.018-.735c-.686-.229-1.398-.376-2.109-.564-.71-.209-1.434-.373-2.165-.49-1.496-.28-3.009-.454-4.528-.523-.769 0-1.553-.107-2.338-.09l-2.362.122c-.4 0-.817 0-1.201.074l-1.194.188c-.817.13-1.634.22-2.402.384-1.62.362-3.215.832-4.774 1.406-1.6.575-3.16 1.26-4.666 2.051-.76.409-1.488.883-2.232 1.332-.367.23-.76.433-1.103.695l-1.054.817c-1.437 1.058-2.803 2.21-4.087 3.45l-1.814 2.002-.458.498-.417.548-.817 1.095-.817 1.103-.72 1.177-.719 1.185-.36.589-.302.63-1.234 2.5-.973 2.648c-2.463 7.323-2.463 15.251 0 22.574.327.891.646 1.774.973 2.657.327.882.817 1.683 1.21 2.517l.31.63.36.596.719 1.185.72 1.177.817 1.103.817 1.095.409.54.457.507 1.823 2.002c1.284 1.239 2.65 2.391 4.086 3.449l1.047.817c.351.262.743.466 1.111.695.744.45 1.471.924 2.223 1.332 2.99 1.549 6.165 2.71 9.448 3.457.818.164 1.635.254 2.403.393l1.193.18c.4.049.818.049 1.202.073l2.37.123c.817 0 1.561-.057 2.33-.09 1.519-.07 3.032-.244 4.527-.523.732-.116 1.456-.28 2.166-.49.711-.189 1.43-.336 2.109-.565l2.018-.735.998-.36.94-.45 1.863-.89c.621-.286 1.169-.687 1.749-1.014.58-.327 1.136-.67 1.684-1.03l1.544-1.152c3.66-2.783 6.75-6.246 9.097-10.2 1.797-2.965 3.139-6.183 3.98-9.546.19-.645.346-1.3.466-1.962.098-.62.196-1.21.278-1.749.082-.539.18-1.046.229-1.503.049-.458.049-.883.073-1.259.05-.744.082-1.308.107-1.708.024-.4.049-.58.049-.58v.58c0 .384 0 .972-.066 1.708 0 .384 0 .817-.049 1.267-.049.45-.13.964-.212 1.512-.082.547-.164 1.128-.254 1.757-.116.667-.27 1.327-.457 1.978-.809 3.392-2.135 6.64-3.931 9.628-2.35 3.985-5.448 7.478-9.122 10.29l-1.56 1.168c-.548.36-1.129.695-1.693 1.047-.563.351-1.136.743-1.765 1.03l-1.872.907-.956.45-.997.367-2.035.752c-.687.229-1.414.376-2.125.572-.719.214-1.45.383-2.19.507-1.51.28-3.036.46-4.57.54-.816 0-1.568.105-2.361.098l-2.395-.123c-.4 0-.817 0-1.201-.074l-1.21-.188c-.817-.13-1.635-.22-2.452-.384-1.639-.366-3.252-.838-4.83-1.414-1.615-.587-3.188-1.284-4.708-2.084-.76-.409-1.496-.891-2.256-1.34-.367-.238-.76-.434-1.12-.703l-1.062-.818c-1.438-1.068-2.803-2.23-4.086-3.481l-1.84-2.027-.465-.507-.417-.548-.817-1.111-.818-1.112-.735-1.193-.728-1.201-.36-.597-.31-.638c-.408-.817-.817-1.7-1.234-2.55l-1.03-2.607c-2.495-7.41-2.495-15.433 0-22.844l.981-2.68 1.234-2.559.31-.629.369-.605.727-1.193.727-1.193.818-1.112.817-1.111.417-.548.466-.507 1.847-2.067c1.283-1.25 2.648-2.414 4.086-3.482l1.071-.817c.351-.262.744-.466 1.12-.703.752-.45 1.487-.932 2.247-1.34 1.526-.796 3.105-1.487 4.724-2.069 1.577-.576 3.19-1.046 4.83-1.405.818-.172 1.635-.262 2.453-.393l1.201-.188c.409-.049.817-.049 1.21-.073l2.394-.115c.818 0 1.578.066 2.362.09 1.533.08 3.06.26 4.57.54.736.122 1.465.292 2.181.507.72.196 1.439.343 2.133.572l2.036.752.997.367.956.45 1.929.923c.63.286 1.177.695 1.757 1.03.58.335 1.152.687 1.7 1.046l1.553 1.17c3.681 2.807 6.784 6.301 9.137 10.289 1.803 2.987 3.132 6.234 3.94 9.628.155.703.384 1.34.457 1.978.074.637.18 1.21.254 1.757.073.548.171 1.046.212 1.512.041.466 0 .883.05 1.267 0 .744.048 1.308.065 1.708.016.4-.025.605-.025.605z"/>
                    <path fill="#FAFAFA" fill-rule="nonzero" d="M44.527 127.361l3.898 7.903c.153.296.44.5.769.548l8.72 1.267c.383.056.7.325.818.693.118.368.017.771-.262 1.04l-6.31 6.146c-.236.235-.342.57-.285.899l1.487 8.68c.066.38-.09.766-.402.993-.313.228-.727.258-1.07.077l-7.796-4.086c-.294-.156-.646-.156-.94 0l-7.805 4.086c-.341.183-.757.154-1.069-.075-.312-.228-.465-.615-.394-.995l1.487-8.68c.054-.33-.056-.665-.294-.9l-6.31-6.145c-.272-.272-.369-.674-.25-1.04.12-.366.434-.634.814-.693l8.72-1.267c.328-.049.611-.253.76-.548l3.9-7.903c.17-.344.522-.562.907-.562.384 0 .736.218.907.562z"/>
                    <path fill="#263238" fill-rule="nonzero" d="M44.527 127.361s0-.082-.164-.212c-.232-.244-.573-.353-.904-.288-.33.064-.606.293-.73.606l-.76 1.586c-.572 1.193-1.275 2.64-2.093 4.323l-.637 1.308c-.106.229-.22.458-.335.687-.147.263-.39.46-.679.547-1.087.18-2.174.327-3.342.507l-3.662.548-1.937.294c-.287.056-.522.261-.616.538-.095.276-.034.582.158.802l6.318 6.163c.35.306.5.783.384 1.234l-.196 1.177c-.139.817-.27 1.585-.408 2.386-.27 1.635-.556 3.27-.818 4.904-.09.346.056.71.36.9.142.094.313.135.482.114.185-.023.362-.09.515-.197l2.313-1.21 4.716-2.451.605-.319c.254-.12.542-.151.817-.09.232.07.454.17.662.294l.588.311 2.346 1.234 4.569 2.403c.235.096.502.077.72-.05.22-.129.368-.352.4-.604-.001-.19-.023-.379-.066-.564l-.417-2.452c-.27-1.634-.54-3.179-.817-4.724l-.196-1.144c-.081-.448.088-.906.441-1.193.54-.531 1.08-1.046 1.635-1.561 1.062-1.03 2.09-2.03 3.081-3l1.471-1.422c.235-.166.365-.442.343-.729-.022-.286-.192-.54-.449-.668-.28-.107-.575-.17-.875-.188l-.956-.14-1.79-.27-3.326-.498-1.537-.228c-.253-.05-.474-.058-.743-.131-.258-.084-.475-.258-.613-.49l-2.109-4.332-1.324-2.755-.327-.71c-.074-.164-.106-.254-.106-.254.056.07.102.147.139.229.098.18.22.408.367.703.336.645.818 1.553 1.382 2.705l2.166 4.283c.102.184.268.326.465.4.197.057.475.074.712.114l1.528.213 3.334.474 1.79.253.932.131c.336.017.668.089.98.213.336.192.558.535.595.92.037.384-.114.764-.406 1.017l-1.455 1.43-3.073 3.008-1.635 1.577c-.255.188-.38.506-.318.817l.196 1.145c.267 1.536.54 3.11.817 4.724.139.817.278 1.634.425 2.452.05.222.071.45.065.678-.02.256-.127.498-.302.686-.347.394-.91.516-1.39.303l-4.6-2.403-2.281-1.234-.589-.31c-.174-.106-.36-.191-.555-.254-.174-.037-.354-.017-.515.057l-.597.31-4.716 2.453-2.313 1.217c-.206.128-.437.212-.678.246-.262.02-.523-.046-.744-.188-.443-.282-.66-.813-.54-1.324.29-1.668.562-3.302.818-4.904.139-.818.278-1.635.417-2.387l.196-1.177c.106-.322.002-.677-.261-.89l-6.343-6.22c-.253-.322-.324-.75-.188-1.136.128-.375.435-.66.818-.76l1.961-.287 3.662-.514 3.318-.474c.22-.066.406-.212.523-.41l.335-.677.654-1.3 2.158-4.29c.302-.59.564-1.112.817-1.57.183-.426.617-.688 1.079-.654.275.02.53.153.703.368.072.067.125.151.155.245z"/>
                </g>
            </g>
        </g>
    </g>
</svg>
