<?xml version="1.0" encoding="UTF-8"?>
<svg width="225px" height="171px" viewBox="0 0 225 171" version="1.1" xmlns="http://www.w3.org/2000/svg" xmlns:xlink="http://www.w3.org/1999/xlink">
    <title>AC6ACB37-8383-4B23-BA46-DD3FF30E40A2</title>
    <g id="Webpages" stroke="none" stroke-width="1" fill="none" fill-rule="evenodd">
        <g id="Contact-Message-Sent---Mobile" transform="translate(-75.000000, -148.000000)" fill-rule="nonzero">
            <g id="Group-3" transform="translate(20.000000, 133.500000)">
                <g id="New-message-pana" transform="translate(55.912322, 15.000000)">
                    <g id="freepik--background-complete--inject-89" transform="translate(14.434091, 0.000000)">
                        <polygon id="Rectangle" fill="#FFFFFF" transform="translate(39.207737, 110.533894) rotate(-70.850000) translate(-39.207737, -110.533894) " points="16.7044842 77.1477187 61.7109907 77.1477187 61.7109907 143.92007 16.7044842 143.92007"></polygon>
                        <path d="M78.1243473,100.217929 C77.8755611,100.363785 77.6135778,100.485861 77.3418748,100.582537 L75.0518114,101.508394 L66.5798056,104.822636 L38.4845369,115.576512 L38.2510242,115.662543 L38.1199293,115.453611 L37.7962889,114.945618 L21.6060728,89.1117359 L16.7555627,81.2460439 L15.4650976,79.091172 C15.3054089,78.8459975 15.1682899,78.5868425 15.0554261,78.3168929 C15.2489174,78.5357991 15.4204374,78.7731828 15.5675155,79.0256245 L16.9563017,81.1190457 L21.9665837,88.8987067 L38.3124749,114.638365 C38.4189895,114.814523 38.5296008,114.986585 38.6320186,115.146357 L38.267411,115.023456 L66.4282272,104.441642 L74.9698771,101.291268 L77.3009077,100.471925 C77.5664335,100.36057 77.8422308,100.275498 78.1243473,100.217929 Z" id="Path" fill="#E0E0E0"></path>
                        <path d="M0.286770022,120.853081 C0.200739015,120.709696 6.96851153,116.531047 15.3995502,111.516668 C23.8305888,106.502289 30.7376496,102.557153 30.8236806,102.700538 C30.9097116,102.843923 24.1419391,107.022572 15.7068038,112.036951 C7.27166841,117.051329 0.372801028,120.975982 0.286770022,120.853081 Z" id="Path" fill="#E0E0E0"></path>
                        <path d="M51.9750181,109.427059 C52.1306932,109.374086 54.8099446,116.80143 57.9562214,125.982167 C61.1024982,135.162905 63.5236565,142.680376 63.3638846,142.733918 C63.2041128,142.786891 60.5289581,135.359547 57.3826813,126.17881 C54.2364045,116.998072 51.8152462,109.480601 51.9750181,109.427059 Z" id="Path" fill="#E0E0E0"></path>
                        <polygon id="Rectangle" fill="#FFFFFF" transform="translate(173.548703, 93.583026) rotate(-9.620000) translate(-173.548703, -93.583026) " points="141.895438 72.2473365 205.201968 72.2473365 205.201968 114.918716 141.895438 114.918716"></polygon>
                        <path d="M201.185557,67.2762471 C201.045344,67.5107002 200.883501,67.7315197 200.702145,67.9358181 L199.223231,69.7506627 L193.692666,76.3709535 C188.944574,81.9711623 182.447185,89.6361154 175.25745,98.124508 L175.105872,98.3047634 L174.901036,98.1900554 L174.401237,97.9155755 L149.157282,83.8310708 L141.541489,79.5049402 L139.493132,78.3046028 C139.24597,78.1773676 139.012589,78.0249831 138.79669,77.8498675 C139.057576,77.9455174 139.309767,78.0633894 139.550486,78.2021849 L141.660294,79.3123946 L149.366214,83.4746566 L174.692104,97.4034862 L175.191903,97.6779661 L174.835489,97.7435135 L193.409993,76.1005703 L199.075749,69.5990843 C199.727127,68.8739658 200.243313,68.2922323 200.636597,67.8497871 C200.80406,67.6443301 200.987628,67.4525432 201.185557,67.2762471 Z" id="Path" fill="#EBEBEB"></path>
                        <path d="M145.900394,119.923126 C145.765202,119.841192 149.480922,113.278255 154.200337,105.265082 C158.919753,97.2519078 162.860792,90.8200659 162.995984,90.9020002 C163.131175,90.9839345 159.415455,97.5427745 154.69604,105.560045 C149.976625,113.577315 146.035585,120.000964 145.900394,119.923126 Z" id="Path" fill="#EBEBEB"></path>
                        <path d="M183.655715,86.8503494 C183.76223,86.7356414 189.391116,91.6721825 196.179372,97.8828018 C202.967628,104.093421 208.424452,109.222508 208.31384,109.353603 C208.203229,109.484698 202.60302,104.523576 195.790184,98.3211503 C188.977348,92.1187244 183.532814,86.9773476 183.655715,86.8503494 Z" id="Path" fill="#EBEBEB"></path>
                        <polygon id="Rectangle" fill="#FFFFFF" transform="translate(154.388049, 23.020114) rotate(-68.530000) translate(-154.388049, -23.020114) " points="139.027417 0.230090838 169.74868 0.230090838 169.74868 45.8101374 139.027417 45.8101374"></polygon>
                        <path d="M181.20588,17.4479075 C181.033638,17.5439446 180.850781,17.619562 180.661017,17.6732268 L179.075588,18.2467668 L173.204996,20.2746405 L153.741505,26.8293839 L153.581733,26.8826412 L153.499799,26.7351595 L153.294963,26.382842 L142.975339,8.31223391 C141.684874,6.02217046 140.636115,4.1540686 139.886417,2.81444293 L139.067074,1.31094867 C138.962968,1.13928391 138.875187,0.958236122 138.804884,0.770182344 C138.931864,0.924736178 139.044317,1.09067327 139.140815,1.26588481 C139.362037,1.63868584 139.657001,2.12619488 140.029802,2.73250864 L143.233432,8.1688489 C145.920877,12.8104265 149.603824,19.1603342 153.667764,26.1943931 L153.8726,26.5508073 L153.630894,26.4565829 L173.127159,20.0165475 L179.026428,18.0951884 L180.636437,17.6158728 C180.82149,17.5448515 181.011906,17.4886854 181.20588,17.4479075 L181.20588,17.4479075 Z" id="Path" fill="#E0E0E0"></path>
                        <path d="M127.547112,29.3611535 C127.489758,29.2628324 132.221464,26.5958712 138.112539,23.4086272 C144.003615,20.2213832 148.821351,17.7223873 148.874608,17.8207085 C148.927866,17.9190296 144.204354,20.5859908 138.309181,23.7609447 C132.414009,26.9358985 127.60037,29.4635714 127.547112,29.3611535 Z" id="Path" fill="#E0E0E0"></path>
                        <path d="M163.114788,23.0069931 C163.2254,22.9743755 164.847699,28.1075588 166.736284,34.47795 C168.624869,40.8483412 170.075106,46.0224918 169.964495,46.0554217 C169.853884,46.0880392 168.231585,40.9589525 166.342999,34.5844646 C164.454414,28.2099767 163.004177,23.0399229 163.114788,23.0069931 Z" id="Path" fill="#E0E0E0"></path>
                    </g>
                    <g id="freepik--Character--inject-89" transform="translate(0.095590, 26.218973)">
                        <path d="M6.02217046,30.5041369 L11.8804723,28.4271026 L9.36099285,25.0636999 C9.23607867,24.3206123 9.17576809,23.5681008 9.18073741,22.8146036 C9.18207977,22.4266445 9.2485512,22.0416641 9.37737971,21.6757169 C9.5195889,21.2153124 9.72501946,20.7768767 9.98779018,20.3729617 C10.1215159,20.2320376 10.1487831,20.0208231 10.0552309,19.8505582 C9.96167876,19.6802932 9.76877612,19.5900512 9.57811872,19.6273596 C9.16844726,19.7297775 8.39826492,20.6638284 8.05004418,22.048518 C7.70182344,23.4332075 6.75138565,21.3930436 6.41135834,20.6597317 C6.07133103,19.9264198 4.83412322,17.6978071 4.5186762,17.6281629 C4.05984416,17.525745 3.86729858,18.0009639 4.24419632,18.7260824 C4.62109406,19.4512009 5.59201542,21.7125874 5.19053739,21.8846494 C4.78905936,22.0567114 3.02337537,18.2795405 3.02337537,18.2795405 C3.02337537,18.2795405 2.7775725,17.411037 2.31054703,17.5953892 C1.46662383,17.9231264 3.6501727,21.7945216 3.86729858,22.1550325 C4.01887702,22.4090288 3.5928187,22.6097679 3.45762712,22.3311913 C3.32243554,22.0526147 1.77387742,18.5253434 0.913567355,18.8530806 C0.253996305,19.1029802 2.67925135,22.0526147 2.59322034,22.9497952 C2.50718933,23.8469757 0.983211503,20.5286368 0.360510884,20.7908266 C0.131094867,20.8891477 -0.0491605751,20.9956623 1.1224998,22.7818299 C1.69632884,23.61749 2.31302658,24.4228891 2.97011808,25.1947948 L2.97011808,25.1947948 L6.03036388,30.4959434" id="Path" fill="#FFBE9D"></path>
                        <path d="M58.750984,37.665194 C58.750984,37.665194 55.8587035,30.9138083 53.8636035,27.6323399 C51.9832115,24.5434171 49.492409,24.043618 48.1650735,23.9452968 C47.6147549,23.7760346 47.0496005,23.6594372 46.4772271,23.5970761 L35.641417,23.5110451 C33.2730577,23.5325687 30.9849227,24.3719858 29.1645112,25.8871395 C28.6606153,26.296811 24.9121215,30.6475219 19.9346132,36.8417544 L11.2290947,27.4193108 L6.03855731,30.4918467 C6.03855731,30.4918467 11.6756366,49.9553378 18.7383726,48.6198088 C22.9416017,47.8373363 26.2189734,44.9204755 26.2189734,44.9204755 L31.7290545,40.4796369 L31.8560527,41.2170455 C31.966664,42.114226 32.2452406,43.564463 32.4582697,44.4411599 C33.1219375,47.2228291 33.4947385,50.885292 32.0485983,53.310547 C32.0485983,53.310547 30.086272,54.8140413 31.6389268,56.4650173 L52.0610491,56.4650173 C52.0610491,56.4650173 54.9533296,54.502691 52.3109487,52.3232388 L50.6722628,48.1814604 L51.7415053,43.1261145 L52.1511768,41.1023375 L53.9496345,44.1830669 C53.9496345,44.1830669 57.5055828,48.6566793 61.2049161,48.1077195 C65.6498514,47.4440517 68.2266849,39.344847 64.2160013,28.636035 L59.3818781,30.1067556 L58.750984,37.665194 Z" id="Path" fill="#ED2012"></path>
                        <g id="Group" opacity="0.4" transform="translate(5.735400, 27.038316)" fill="#000000">
                            <polygon id="Path" points="0.286770022 3.46582055 0.798859346 5.08811953 6.5670335 1.56904169 5.47730741 0.393284601"></polygon>
                        </g>
                        <g id="Group" opacity="0.2" transform="translate(31.544702, 40.967146)" fill="#000000">
                            <path d="M0.499799181,12.3434011 C2.23417647,12.0837239 3.78764417,11.1279714 4.80134951,9.69692345 C5.86292255,8.25605263 6.30533729,6.45100052 6.03036388,4.68254478 C5.98523164,4.05338017 5.67559402,3.47280962 5.17824725,3.08482609 C4.53506306,2.67515463 3.65426942,2.88818379 2.98650494,2.53176962 C2.43754518,2.24090288 2.14667845,1.64278255 1.75749056,1.1511768 C1.36830267,0.65957105 0.848019921,-0.102417865 0.282673307,0.143385011 C0.282673307,0.143385011 0.966824645,3.74849385 1.26588481,5.35440598 C1.56494498,6.9603181 1.67555627,9.26676842 1.09791951,10.9505181 C0.94981954,11.4351919 0.749258368,11.9022521 0.499799181,12.3434011 L0.499799181,12.3434011 Z" id="Path"></path>
                        </g>
                        <path d="M19.0988834,40.147803 C19.1047405,39.5708497 19.207211,38.9989538 19.4020403,38.4558599 C19.5272976,37.8959753 19.6999829,37.347768 19.9182264,36.8171741 C19.9173206,37.3945821 19.8147,37.967316 19.6150695,38.5091172 C19.4898122,39.0690018 19.3171269,39.6172091 19.0988834,40.147803 L19.0988834,40.147803 Z" id="Path" fill="#263238"></path>
                        <path d="M20.3934453,39.2670094 C20.0833855,38.4938055 19.9167966,37.6705788 19.9018395,36.8376576 C20.0891734,37.2109512 20.2084779,37.6146445 20.254157,38.0298016 C20.3703832,38.4313268 20.417484,38.8496927 20.3934453,39.2670094 L20.3934453,39.2670094 Z" id="Path" fill="#263238"></path>
                        <polygon id="Path" fill="#455A64" points="59.3368142 15.4200337 51.9217608 27.4316009 57.7554824 29.0579966 64.2282914 19.0743032"></polygon>
                        <path d="M58.8738855,25.6536268 L59.123785,27.4111174 L60.1602538,28.7425496 L60.2626717,29.8322757 L63.9824886,28.7015825 L62.4789943,23.3758535 C62.5994071,22.658708 62.6488067,21.931436 62.626476,21.2045947 L61.6022974,22.5606073 L61.3196241,20.3483814 L59.2262029,18.6646317 C59.1165427,18.5840058 58.9792963,18.5503535 58.8447781,18.5711078 C58.7102599,18.591862 58.5895383,18.6653151 58.5092779,18.775243 L58.5092779,18.775243 C58.3635258,18.9785906 58.3860453,19.2574859 58.5625351,19.434814 L60.2462848,20.9178247 L60.3568961,22.7490561 L59.1278818,21.6183629 C59.0078251,21.5061034 58.8588747,21.4295003 58.6977267,21.3971403 L57.0057836,21.057113 C56.8838492,21.033463 56.7575891,21.0621552 56.6578509,21.1361796 C56.5581127,21.2102041 56.4940826,21.3227429 56.4814041,21.4463009 L56.4814041,21.4463009 C56.460046,21.655157 56.5884069,21.8502656 56.7886577,21.9133264 L58.3290224,22.3844486 L59.885774,23.957587 L58.3617961,23.3758535 L56.2929553,23.6667202 C56.0926022,23.6991778 55.9462192,23.8734434 55.9487968,24.0763917 L55.9487968,24.0763917 C55.9487968,24.302647 56.1322474,24.4860631 56.3585027,24.4860631 L57.6735481,24.4123223 L58.4478271,24.6540284 L56.669853,25.1251506 C56.5046473,25.1663724 56.3925617,25.3198434 56.4035666,25.4897582 L56.4035666,25.4897582 C56.4077014,25.5865944 56.4510959,25.6775703 56.5237509,25.7417231 C56.596406,25.805876 56.6920547,25.8376723 56.7886577,25.8297855 L58.8738855,25.6536268 Z" id="Path" fill="#FFBE9D"></path>
                        <g id="Group" opacity="0.4" transform="translate(58.992690, 28.267331)" fill="#000000">
                            <polygon id="Path" points="0.368704314 1.83942485 0.208932444 3.80584786 5.85010844 2.25319303 5.20282754 0.368704314"></polygon>
                        </g>
                        <path d="M51.9217608,27.4479878 C51.9217608,27.4479878 51.4219616,26.7720299 51.4629287,26.6573219 C51.5038959,26.5426139 58.5174713,14.9939754 58.5174713,14.9939754 L59.3368142,15.4364206 L51.9217608,27.4479878 Z" id="Path" fill="#263238"></path>
                        <path d="M61.1926259,18.4352157 C61.2800929,18.347511 61.4175329,18.3343116 61.5200931,18.4037665 C61.6226533,18.4732214 61.6614096,18.6057428 61.6124346,18.7195146 C61.5634595,18.8332864 61.4405651,18.8962226 61.3196241,18.8694674 C61.2379806,18.8439957 61.1732018,18.7813988 61.1449487,18.7006757 C61.1166956,18.6199526 61.1282997,18.5306217 61.1762391,18.459796" id="Path" fill="#263238"></path>
                        <path d="M56.5346614,33.2612258 C56.4823507,33.3705812 56.4101061,33.4692228 56.3216323,33.5520925 C56.0661444,33.7908457 55.7502259,33.95518 55.4080649,34.0273114 C54.8674106,34.137672 54.3100333,34.137672 53.7693791,34.0273114 C53.0810007,33.8640129 52.3679943,33.8320458 51.6677645,33.933087 C50.8465902,34.172372 50.0893318,34.5922935 49.4514419,35.1621014 C48.71813,35.7233513 47.9438509,36.4197928 46.9032854,36.7475299 C46.3710057,36.8987974 45.8138299,36.9419786 45.2645996,36.8745281 C44.7023047,36.7883115 44.1522291,36.6356655 43.6259137,36.4197928 C42.5525745,36.0101213 41.5242991,35.4038075 40.3936059,34.9941361 C39.3039746,34.5692387 38.1107606,34.4863567 36.9728492,34.7565266 C35.8626396,34.9859426 34.8220741,35.3710338 33.7856053,35.5758695 C31.9333136,35.975136 29.9995466,35.7082094 28.3246847,34.8220741 C27.1904028,34.2372427 26.2084139,33.395538 25.4569845,32.3640453 C25.1833637,31.9916836 24.9537841,31.5888883 24.7728332,31.1637079 C24.8015102,31.1637079 24.9981525,31.6061531 25.5266286,32.3148847 C26.2943603,33.3056954 27.2742386,34.1119953 28.3943289,34.6745923 C30.0457154,35.5257532 31.9429093,35.772142 33.7569283,35.3710338 C34.7770102,35.1498112 35.8052856,34.7606233 36.9441722,34.5230139 C38.121079,34.2408783 39.3561055,34.3252146 40.4837336,34.7647201 C41.6390071,35.1743915 42.6713792,35.7807053 43.7242349,36.1985702 C44.2349069,36.4087296 44.768355,36.55859 45.3137601,36.6451121 C45.8351972,36.7085642 46.3640066,36.6695993 46.8705117,36.530404 C47.8537232,36.2272472 48.6239055,35.555386 49.3613142,34.9941361 C50.0251574,34.4167424 50.8107636,33.9966322 51.659571,33.7651217 C52.3790729,33.6669101 53.1107734,33.7086421 53.8144429,33.8880231 C54.3363915,34.0064245 54.8766134,34.0203478 55.4039682,33.9289903 C55.7347434,33.8725965 56.045261,33.7314522 56.3052454,33.5193188 C56.3865015,33.4376624 56.4630948,33.351495 56.5346614,33.2612258 L56.5346614,33.2612258 Z" id="Path" fill="#FAFAFA"></path>
                        <path d="M58.8697887,41.0654671 C58.7412359,40.4694418 58.6848424,39.8601172 58.7018234,39.2506225 C58.6450719,38.6430482 58.6629575,38.0308098 58.7550807,37.4275845 C58.8836336,38.0236099 58.9400271,38.6329345 58.923046,39.2424291 C58.9795922,39.85001 58.9617073,40.4622234 58.8697887,41.0654671 L58.8697887,41.0654671 Z" id="Path" fill="#263238"></path>
                        <path d="M46.0921359,116.391758 C46.2682946,117.104587 50.4469435,140.533697 50.4469435,140.533697 L56.8501084,140.054382 L55.6784481,116.129569 L46.0921359,116.391758 Z" id="Path" fill="#FFBE9D"></path>
                        <path d="M57.042654,140.427183 L57.0221705,139.751225 L50.2011407,139.89461 L50.2421078,142.115029 L50.6517793,142.115029 C52.5280745,142.17648 60.1971243,142.303478 61.4384288,141.930677 C62.8395052,141.525102 57.042654,140.427183 57.042654,140.427183 Z" id="Path" fill="#FF725E"></path>
                        <g id="Group" opacity="0.3" transform="translate(49.979918, 140.107639)" fill="#000000">
                            <path d="M2.72431521,1.909069 C2.6030946,1.36942143 2.28268878,0.895396387 1.82713471,0.581733473 C1.36145154,0.255492884 0.795946947,0.103241648 0.229416017,0.15157844 L0.266286449,1.91726243 L2.72431521,1.909069 Z" id="Path"></path>
                        </g>
                        <g id="Group" opacity="0.3" transform="translate(49.979918, 140.926982)" fill="#000000">
                            <path d="M9.89766246,0.131094867 C9.89766246,0.131094867 11.9460198,0.634990762 11.6879267,0.950437786 C11.4298337,1.26588481 3.68704314,1.40926982 0.262189734,1.19214395 L0.262189734,1.04875894 L9.30773556,0.958631215 C9.30773556,0.958631215 9.50437786,0.15157844 9.89766246,0.131094867 Z" id="Path"></path>
                        </g>
                        <path d="M50.1437866,141.971644 L50.2584947,141.971644 L50.5944253,141.971644 L51.8234396,142.000321 C52.8681019,142.000321 54.3060487,142.020805 55.8996707,142.000321 C57.4932926,141.979838 58.9312395,141.918387 59.9759017,141.86513 L61.2049161,141.795486 L61.5367499,141.770905 L61.6555547,141.770905 L61.5367499,141.770905 L61.2008193,141.770905 L59.971805,141.815969 C58.9312395,141.85284 57.4891959,141.902 55.8996707,141.92658 C54.3101454,141.951161 52.8681019,141.959354 51.8234396,141.959354 L50.1437866,141.959354 L50.1437866,141.971644 Z" id="Path" fill="#263238"></path>
                        <path d="M59.2958471,141.979838 C59.3440754,141.786896 59.4170561,141.601001 59.5129729,141.426781 C59.6305889,141.261606 59.7681915,141.111619 59.9226444,140.980239 C59.715664,141.051043 59.5430258,141.197347 59.4392321,141.389911 C59.3176604,141.560938 59.2663388,141.77209 59.2958471,141.979838 Z" id="Path" fill="#263238"></path>
                        <path d="M57.27207,141.070367 C57.27207,141.070367 57.3826813,140.972046 57.4810025,140.824564 C57.5793236,140.677082 57.6366776,140.550084 57.6161941,140.537794 C57.5957105,140.525504 57.5055828,140.636115 57.4113583,140.783597 C57.3171339,140.931079 57.2515865,141.058077 57.27207,141.070367 Z" id="Path" fill="#263238"></path>
                        <path d="M56.7149169,140.808177 C56.7149169,140.808177 56.8378183,140.75492 56.9525263,140.656599 C57.0672343,140.558278 57.1450719,140.464053 57.1327817,140.447666 C57.1204916,140.43128 57.0098803,140.500924 56.8951723,140.599245 C56.7804643,140.697566 56.69853,140.795887 56.7149169,140.808177 Z" id="Path" fill="#263238"></path>
                        <path d="M56.354406,140.21825 C56.4690353,140.256686 56.5907502,140.269277 56.7108201,140.255121 C56.8298418,140.267353 56.9500984,140.25337 57.0631376,140.214154 C56.9480436,140.177912 56.826799,140.16537 56.7067234,140.177283 C56.5877416,140.168106 56.4681075,140.182017 56.354406,140.21825 L56.354406,140.21825 Z" id="Path" fill="#263238"></path>
                        <path d="M56.2274078,139.800386 C56.3499678,139.876353 56.4931887,139.912158 56.6370793,139.902803 C56.7767089,139.923577 56.919361,139.902179 57.0467507,139.841353 C56.9103919,139.830945 56.7734381,139.830945 56.6370793,139.841353 C56.502007,139.815577 56.3649096,139.801867 56.2274078,139.800386 L56.2274078,139.800386 Z" id="Path" fill="#263238"></path>
                        <path d="M57.4891959,140.517311 C57.6344177,140.540174 57.7823226,140.540174 57.9275444,140.517311 C58.0836876,140.497362 58.2374135,140.461675 58.3863764,140.410796 C58.4794287,140.387132 58.5689603,140.35132 58.6526629,140.304281 C58.7029154,140.277958 58.7400006,140.231972 58.7550807,140.177283 C58.770613,140.114409 58.7420701,140.048929 58.6854366,140.017511 C58.3430045,139.859905 57.9372233,139.956278 57.7022251,140.251024 C57.6381514,140.33186 57.5920617,140.425437 57.5670335,140.525504 C57.5670335,140.595148 57.5670335,140.636115 57.5670335,140.636115 C57.6061049,140.50868 57.6701675,140.390304 57.7554824,140.287895 C57.8538969,140.176837 57.9817192,140.095883 58.1241867,140.054382 C58.2945058,139.996652 58.4803516,140.005432 58.6444694,140.078962 C58.7141136,140.124026 58.6895333,140.201864 58.6157924,140.242831 C58.5375965,140.285328 58.4552265,140.319649 58.3699896,140.345249 C58.2243582,140.396077 58.0750832,140.435792 57.9234477,140.464053 C57.6571612,140.517311 57.4891959,140.517311 57.4891959,140.517311 Z" id="Path" fill="#263238"></path>
                        <path d="M57.6039039,140.517311 C57.6510281,140.431052 57.6655682,140.330725 57.6448711,140.234637 C57.6293688,140.127543 57.5870971,140.026091 57.5219696,139.939674 C57.4406578,139.815002 57.3021085,139.73957 57.1532653,139.738935 C57.1105614,139.745891 57.0725048,139.76987 57.0477966,139.805388 C57.0230885,139.840906 57.0138417,139.884926 57.0221705,139.927384 C57.0331214,139.99289 57.0598344,140.054752 57.100008,140.107639 C57.1605036,140.196898 57.2320855,140.278116 57.3130372,140.349345 C57.3833069,140.422641 57.4705386,140.477513 57.5670335,140.509117 C57.5670335,140.509117 57.4769058,140.439473 57.3540043,140.312475 C57.2823863,140.239172 57.2191783,140.158101 57.1655555,140.070769 C57.1041047,139.988834 57.0590409,139.833159 57.1655555,139.812676 C57.2820614,139.824518 57.3879298,139.885653 57.4564222,139.980641 C57.5190242,140.056681 57.5625642,140.14657 57.5834204,140.242831 C57.5995121,140.333396 57.6063751,140.42536 57.6039039,140.517311 L57.6039039,140.517311 Z" id="Path" fill="#263238"></path>
                        <path d="M50.2421078,140.242831 C50.2421078,140.242831 50.4387501,140.222347 50.7460037,140.242831 C51.1424373,140.282445 51.5219764,140.423538 51.8480199,140.652502 C52.1613008,140.875479 52.4054911,141.182137 52.5526548,141.537393 C52.6632661,141.807776 52.6755563,141.988031 52.6919431,141.988031 C52.7009096,141.946173 52.7009096,141.902891 52.6919431,141.861033 C52.6775551,141.745351 52.6514759,141.631426 52.6141056,141.521006 C52.4760587,141.146039 52.2275037,140.821775 51.9012772,140.591051 C51.5645798,140.350239 51.1672693,140.208343 50.7541971,140.18138 C50.6302239,140.169296 50.5053693,140.169296 50.3813961,140.18138 C50.2871717,140.222347 50.2421078,140.234637 50.2421078,140.242831 Z" id="Path" fill="#263238"></path>
                        <path d="M53.5440598,141.385814 C53.8714509,141.452315 54.2059452,141.477092 54.5395614,141.459555 C54.8724405,141.469125 55.20527,141.438867 55.5309663,141.369427 C55.5309663,141.344847 55.0844245,141.369427 54.5354647,141.369427 C53.9865049,141.369427 53.5481565,141.365331 53.5440598,141.385814 Z" id="Path" fill="#263238"></path>
                        <path d="M52.2126275,141.410394 C52.2126275,141.410394 52.249498,141.496425 52.2986585,141.59065 C52.3478191,141.684874 52.3723994,141.766809 52.3969797,141.766809 C52.42156,141.766809 52.4297534,141.664391 52.3723994,141.557876 C52.3150454,141.451362 52.2290144,141.394008 52.2126275,141.410394 Z" id="Path" fill="#263238"></path>
                        <path d="M51.7005382,140.836854 C51.7005382,140.836854 51.7292152,140.918789 51.7988593,140.984336 C51.8685035,141.049884 51.9422444,141.090851 51.9586312,141.074464 C51.9750181,141.058077 51.9299542,140.99253 51.8562134,140.926982 C51.7824725,140.861435 51.7128283,140.824564 51.7005382,140.836854 Z" id="Path" fill="#263238"></path>
                        <path d="M50.9754197,140.586955 C50.9754197,140.607438 51.0696441,140.607438 51.172062,140.636115 C51.2744799,140.664792 51.344124,140.713953 51.3605109,140.701663 C51.3768977,140.689373 51.3195437,140.599245 51.1966423,140.562374 C51.0737409,140.525504 50.9672263,140.566471 50.9754197,140.586955 Z" id="Path" fill="#263238"></path>
                        <path d="M50.4592337,140.472247 C50.4592337,140.472247 50.4920074,140.521407 50.5493614,140.541891 C50.6067154,140.562374 50.6599727,140.562374 50.6681661,140.541891 C50.6763595,140.521407 50.6353924,140.488634 50.5780384,140.46815 C50.5206844,140.447666 50.4674271,140.451763 50.4592337,140.472247 Z" id="Path" fill="#263238"></path>
                        <path d="M29.8035987,114.437626 C29.770825,115.170937 27.1120572,137.985541 27.1120572,137.985541 L33.3759338,139.374327 L39.1563981,116.129569 L29.8035987,114.437626 Z" id="Path" fill="#FFBE9D"></path>
                        <path d="M33.6586071,139.980641 L33.8019921,139.325167 L27.1407342,137.838059 L26.6532252,140.005221 L27.0628966,140.119929 C28.8695478,140.627922 36.2886979,142.577958 37.5873564,142.508314 C39.0294,142.430476 33.6586071,139.980641 33.6586071,139.980641 Z" id="Path" fill="#FF725E"></path>
                        <g id="Group" opacity="0.3" transform="translate(26.628645, 138.059282)" fill="#000000">
                            <path d="M2.45802876,2.45802876 C2.47081694,1.90489515 2.27314899,1.36753116 1.90497229,0.954534501 C1.53045989,0.526095787 1.01700573,0.243260866 0.45473532,0.155675155 L0.0696441481,1.880392 L2.45802876,2.45802876 Z" id="Path"></path>
                        </g>
                        <g id="Group" opacity="0.3" transform="translate(26.628645, 139.697968)" fill="#000000">
                            <path d="M9.63547273,1.5731384 C9.63547273,1.5731384 11.4912844,2.54815648 11.1799341,2.80215278 C10.8685838,3.05614909 3.30195196,1.33962567 0.0245802876,0.315447024 L0.0655474335,0.180255442 L8.87348381,2.22861274 C8.87348381,2.22861274 9.24628484,1.49939754 9.63547273,1.5731384 Z" id="Path"></path>
                        </g>
                        <path d="M26.5917744,139.841353 L26.7023857,139.878223 L27.0260262,139.972448 L28.2181701,140.291991 C29.2300586,140.554181 30.6270383,140.902402 32.1796931,141.254719 C33.732348,141.607037 35.1457145,141.897903 36.1698932,142.094546 L37.3989075,142.319865 L37.7307414,142.373122 L37.8495461,142.373122 L37.7348381,142.344445 L37.407101,142.274801 L36.1780866,142.024902 C35.1539079,141.811872 33.7446381,141.516909 32.1919833,141.164592 C30.6393285,140.812274 29.2423488,140.472247 28.2263636,140.222347 L27.0383163,139.943771 L26.7105792,139.865933 C26.672417,139.851889 26.6323765,139.843604 26.5917744,139.841353 L26.5917744,139.841353 Z" id="Path" fill="#263238"></path>
                        <path d="M35.4775484,142.028998 C35.5720323,141.853123 35.6875917,141.689414 35.8216724,141.541489 C35.9778326,141.410767 36.1482409,141.298077 36.329665,141.205559 C36.113585,141.229513 35.9131301,141.329741 35.7643184,141.488232 C35.6024586,141.624672 35.4996898,141.818465 35.4775484,142.028998 Z" id="Path" fill="#263238"></path>
                        <path d="M33.7282513,140.664792 C33.7282513,140.664792 33.8634428,140.595148 33.990441,140.472247 C34.1174392,140.349345 34.2075669,140.242831 34.19118,140.230541 C34.1747932,140.21825 34.0600851,140.300185 33.933087,140.418989 C33.8060888,140.537794 33.7118644,140.648405 33.7282513,140.664792 Z" id="Path" fill="#263238"></path>
                        <path d="M33.2489357,140.279701 C33.3441649,140.270983 33.4357031,140.238593 33.5152221,140.185477 C33.6504137,140.115833 33.7528316,140.042092 33.7405414,140.025705 C33.7282513,140.009318 33.6094465,140.046188 33.474255,140.115833 C33.3390634,140.185477 33.2407422,140.259218 33.2489357,140.279701 Z" id="Path" fill="#263238"></path>
                        <path d="M33.0154229,139.181782 C33.1139318,139.28017 33.2393801,139.347171 33.3759338,139.374327 C33.5059919,139.425947 33.6479009,139.440138 33.7856053,139.415294 C33.6612081,139.364823 33.5322528,139.326411 33.4005141,139.300586 C33.2751775,139.251767 33.1464791,139.212062 33.0154229,139.181782 L33.0154229,139.181782 Z" id="Path" fill="#263238"></path>
                        <path d="M34.0723753,140.177283 C34.2034116,140.228457 34.3416322,140.258866 34.4820468,140.267411 C34.6400992,140.282384 34.7992131,140.282384 34.9572656,140.267411 C35.0512726,140.263228 35.1446111,140.249502 35.2358422,140.226444 C35.2916676,140.211839 35.3399389,140.176732 35.3710338,140.128123 C35.3970955,140.068892 35.3858595,139.999871 35.3423568,139.951964 C35.0453551,139.718802 34.6274701,139.718802 34.3304683,139.951964 C34.2468743,140.013745 34.1782644,140.093557 34.1297293,140.185477 C34.0969556,140.246927 34.0928589,140.287895 34.0969556,140.287895 C34.1663664,140.174852 34.2567514,140.076124 34.363242,139.997028 C34.48389,139.912812 34.6259364,139.864517 34.7729135,139.85774 C34.9521969,139.841647 35.1308867,139.894375 35.2727127,140.005221 C35.3300667,140.066672 35.2727127,140.132219 35.2030685,140.1568 C35.1186881,140.180091 35.0322562,140.195183 34.9449755,140.201864 C34.7908309,140.211954 34.6361914,140.211954 34.4820468,140.201864 C34.2362439,140.197767 34.076472,140.164993 34.0723753,140.177283 Z" id="Path" fill="#263238"></path>
                        <path d="M34.1788899,140.21825 C34.1788899,140.21825 34.2690176,140.140413 34.2895012,139.956061 C34.2980746,139.848127 34.2797772,139.73975 34.2362439,139.640614 C34.1861001,139.500359 34.069326,139.394341 33.9248936,139.35794 C33.8818209,139.355716 33.8396785,139.371 33.8080456,139.400318 C33.7764128,139.429636 33.7579768,139.470498 33.7569283,139.513616 C33.7521696,139.579501 33.7634138,139.64556 33.789702,139.706161 C33.8263802,139.80639 33.8759579,139.901413 33.9371837,139.988834 C33.9892591,140.076272 34.0607456,140.150562 34.1461162,140.20596 C34.1461162,140.20596 34.076472,140.115833 33.9863443,139.964254 C33.9352807,139.875629 33.8927567,139.782351 33.8593461,139.685678 C33.818379,139.587356 33.8142823,139.427585 33.9248936,139.435778 C34.0355049,139.443971 34.1215359,139.57097 34.1665997,139.665194 C34.2094938,139.754723 34.2318862,139.85269 34.2321472,139.951964 C34.2242857,140.042421 34.2064242,140.131728 34.1788899,140.21825 Z" id="Path" fill="#263238"></path>
                        <path d="M27.099767,138.18628 C27.099767,138.18628 27.2923126,138.21086 27.5872761,138.313278 C27.9629417,138.44078 28.2989595,138.66385 28.5622942,138.960559 C28.8135985,139.25381 28.9781659,139.611319 29.0375131,139.992931 C29.0543087,140.148034 29.0625147,140.303947 29.0620933,140.459957 C29.0620933,140.459957 29.0825769,140.414893 29.0907703,140.337055 C29.1036917,140.219971 29.1036917,140.101821 29.0907703,139.984738 C29.0458582,139.58955 28.8831363,139.217002 28.6237449,138.915495 C28.3494294,138.606621 27.9949368,138.379746 27.5995662,138.260021 C27.4793649,138.223471 27.3558748,138.198773 27.2308619,138.18628 C27.1874848,138.178787 27.1431442,138.178787 27.099767,138.18628 L27.099767,138.18628 Z" id="Path" fill="#263238"></path>
                        <path d="M30.0330147,140.083059 C30.3339497,140.225713 30.6520174,140.328981 30.9793558,140.390312 C31.3012669,140.479296 31.6328011,140.52882 31.966664,140.537794 C31.966664,140.517311 31.5283155,140.44357 30.9998393,140.316572 C30.4713632,140.189573 30.0412081,140.062575 30.0330147,140.083059 Z" id="Path" fill="#263238"></path>
                        <path d="M28.7343562,139.788095 C28.7343562,139.788095 28.7343562,139.88232 28.7753233,139.984738 C28.8162905,140.087156 28.8040003,140.173187 28.8285806,140.177283 C28.8531609,140.18138 28.8859346,140.087156 28.8572576,139.972448 C28.8285806,139.85774 28.750743,139.775805 28.7343562,139.788095 Z" id="Path" fill="#263238"></path>
                        <path d="M28.3697486,139.112138 C28.3697486,139.112138 28.3697486,139.198169 28.435296,139.276006 C28.5008434,139.353844 28.550004,139.411198 28.5663909,139.403004 C28.5827777,139.394811 28.5663909,139.316973 28.5049402,139.239136 C28.4434894,139.161298 28.3902321,139.099847 28.3697486,139.112138 Z" id="Path" fill="#263238"></path>
                        <path d="M27.7265644,138.694273 C27.7265644,138.718853 27.8166921,138.73524 27.9068198,138.788497 C27.9969475,138.841754 28.0583983,138.907302 28.0788818,138.899108 C28.0993654,138.890915 28.0788818,138.788497 27.947787,138.72295 C27.8166921,138.657402 27.7265644,138.673789 27.7265644,138.694273 Z" id="Path" fill="#263238"></path>
                        <path d="M27.2554422,138.468953 C27.2554422,138.468953 27.2759258,138.526307 27.3250864,138.559081 C27.3742469,138.591855 27.4275042,138.604145 27.4397944,138.583661 C27.4520845,138.563178 27.4397944,138.526307 27.3701502,138.493534 C27.3005061,138.46076 27.2677323,138.444373 27.2554422,138.468953 Z" id="Path" fill="#263238"></path>
                        <path d="M53.3187405,12.8309101 C53.1507752,12.3434011 52.737007,11.9787935 52.536268,11.5035746 C52.2372078,10.7907462 52.4584304,9.98369347 52.536268,9.21760784 C52.6141056,8.45152221 52.4543337,7.51747128 51.7537955,7.20202426 C51.4471647,7.12211477 51.146095,7.02221437 50.8525183,6.90296409 C50.3035585,6.55884007 50.3322355,5.78046429 50.2830749,5.1372801 C50.2499485,4.71195717 50.1417635,4.29586115 49.9635312,3.90826572 L50.0782392,3.87139529 C50.93501,3.66396785 51.8171987,4.10074618 52.1716604,4.90786409 C52.3256372,5.24048006 52.2977825,5.62889844 52.0979195,5.93613945 C51.9242692,6.19522531 51.5958953,6.3018622 51.3031569,6.19423247 C51.0766798,6.07619145 50.9574649,5.82097066 51.0122901,5.57153185 C51.0832974,5.39074379 51.2714971,5.28466759 51.4629287,5.31753555 C51.5885129,5.32817591 51.7034409,5.39235649 51.7783758,5.49369427 C51.8275363,5.56743514 51.8316331,5.62069243 51.8398265,5.61659571 C51.8480199,5.612499 51.8398265,5.56333842 51.8398265,5.4732107 C51.7695365,5.33976255 51.6405326,5.24718333 51.4916058,5.22331111 C51.386124,5.20363672 51.2773197,5.21211497 51.1761587,5.2478914 C51.048008,5.29564776 50.9475315,5.3976239 50.9016788,5.52646799 C50.8039268,5.84578185 50.946586,6.18953898 51.2417062,6.34581091 C51.610284,6.50725801 52.0415731,6.38745551 52.2740782,6.05904089 C52.5272413,5.69908424 52.573851,5.2329866 52.3969797,4.83002651 C52.0433986,3.97653763 51.1567196,3.47082719 50.2421078,3.60101213 C50.4370501,3.27221252 50.4832133,2.87610272 50.369106,2.51128605 C50.2164447,2.0659 49.8674873,1.71543195 49.4227649,1.56084826 C49.038213,1.41944085 48.6200906,1.39660823 48.2224275,1.49530083 C47.8859764,1.57704107 47.5659376,1.715586 47.2760864,1.90497229 C47.0098,2.0770343 46.8049643,2.26548317 46.608322,2.39248132 C46.44545,2.51004189 46.254916,2.58343273 46.0552655,2.60551048 C45.8835274,2.62134652 45.710963,2.58569272 45.559563,2.50309262 C45.559563,2.50309262 45.6865612,2.69973492 46.0593622,2.69973492 C46.2793491,2.69367665 46.4934015,2.62705108 46.6779661,2.50718933 C46.895092,2.38428789 47.1122178,2.19993574 47.3662142,2.0483573 C47.9430001,1.64866117 48.6732914,1.54108713 49.3408306,1.75749056 C49.7256979,1.8896156 50.0280485,2.19196614 50.1601735,2.57683348 C50.2840261,2.96546549 50.1741366,3.39068996 49.8775002,3.67065628 C49.6699378,3.29325622 49.3641827,2.97900795 48.9926098,2.76118564 C48.1732669,2.29825689 46.9442526,2.52357619 46.5345811,3.3674994 L39.8118724,1.05695237 C38.9553409,0.336972458 37.7906803,0.103731395 36.7229496,0.438348462 L36.5836613,0.413768174 C36.1954644,0.377341933 35.8044584,0.44227434 35.4488714,0.602217046 C35.0026501,0.852506084 34.6134026,1.19292326 34.305888,1.60181541 C34.1215906,1.81396843 33.9044336,1.99516313 33.6627038,2.13848502 C33.6199752,2.15734964 33.5762059,2.17376313 33.531609,2.18764559 C33.2338107,2.22128032 32.9338871,2.23223644 32.6344285,2.22041931 C32.0690819,2.08932444 31.4832517,1.76568399 30.7868102,1.69603984 C30.3974699,1.64336284 30.0014582,1.671251 29.6233432,1.77797413 C29.2216773,1.89629418 28.8611976,2.12478726 28.5827777,2.43754518 C28.2900697,2.76538071 28.1294835,3.1902041 28.1321391,3.62968913 C28.1375063,3.94505095 28.1871521,4.25809499 28.2796209,4.55964334 C28.1285241,4.9652278 28.0616168,5.39733717 28.0829786,5.82962487 C28.1116556,6.3990682 28.2755241,6.99718853 28.2837176,7.55434171 C28.1190712,7.68296139 27.9313477,7.77890897 27.7306611,7.83701502 C27.3783436,7.94762632 26.9973492,8.00088361 26.6368383,8.1401719 C25.953913,8.41830332 25.4249587,8.97863634 25.1866013,9.67643987 C24.9577422,10.2361401 25.0254687,10.8733855 25.3668568,11.3724797 C25.1926425,12.1295815 25.367043,12.9249079 25.8420757,13.5396417 C26.2150322,13.8939886 26.5666037,14.2701837 26.8949313,14.6662383 C27.3373765,15.3503896 27.2718291,16.2311832 27.3865371,17.038236 C27.5012451,17.8452888 27.9641738,18.7629528 28.77942,18.8162101 C29.4348944,18.8571773 30.0084344,18.3082175 30.6802956,18.3614748 C31.5979597,18.4352157 31.9748574,19.5372319 32.5074303,20.2910274 C33.2077224,21.2555497 34.3764564,21.7638313 35.5594827,21.6183629 C36.3788256,21.5077516 37.2227488,21.0653065 38.037995,21.2701422 C39.0662704,21.5323319 39.6766809,22.736766 40.7377299,22.8883444 C41.5161057,22.9989557 42.2412242,22.478673 42.8229577,21.9461001 C43.4046911,21.4135272 43.9905213,20.79902 44.7688971,20.6597317 C45.702948,20.4917664 46.6042252,21.0694032 47.5464696,21.1841112 C48.796685,21.3338548 50.0155586,20.7228057 50.6435858,19.6314563 C51.1597719,18.6933087 51.1556752,17.5421319 51.6431842,16.5875974 C52.0161463,15.9795516 52.4266122,15.3953219 52.8721986,14.8383003 C53.2572897,14.2606635 53.5563499,13.5191582 53.3187405,12.8309101 Z M26.3623584,9.80753474 C26.2867399,9.79137718 26.2085609,9.79137718 26.1329424,9.80753474 C26.1329424,9.80753474 26.2025866,9.80753474 26.3172946,9.8525986 L26.1902964,9.94682304 C25.8067253,10.266289 25.5295126,10.6949685 25.3955338,11.1758374 C25.1903253,10.7356308 25.1755072,10.2303332 25.3545666,9.77885774 C25.5822506,9.14350446 26.0715233,8.63633157 26.698289,8.38597478 C27.0260262,8.26307334 27.3988272,8.20981605 27.7798217,8.09510804 C27.9448549,8.04861766 28.1021969,7.97822783 28.2468471,7.8861756 C28.2294284,8.10928932 28.1637305,8.32595252 28.0543016,8.52116636 C27.7019841,9.13157683 26.956382,9.38966985 26.3623584,9.80753474 L26.3623584,9.80753474 Z M30.9506788,2.26957989 C29.8463274,2.47820784 28.9066847,3.19890466 28.4189091,4.2114226 C28.3771546,4.02720409 28.355181,3.8390552 28.3533425,3.6501727 C28.3514643,3.26739296 28.4899254,2.89719186 28.7425496,2.6096072 C29.2565083,2.06808801 30.0046222,1.81513967 30.7417463,1.93364929 C31.119117,1.98320855 31.4891297,2.07811886 31.8437626,2.2163226 C31.5451497,2.21147455 31.2465992,2.22927802 30.9506788,2.26957989 L30.9506788,2.26957989 Z M34.3222749,1.98690658 C34.2403406,2.02377701 34.1543096,2.0483573 34.0723753,2.0770343 C34.1918416,1.96854317 34.3053499,1.85366724 34.4124026,1.73291027 C34.7024802,1.33594148 35.0670354,0.999214861 35.4857418,0.741505342 C35.7949912,0.589662081 36.1369357,0.516488762 36.4812435,0.528476183 C36.3035014,0.59345942 36.1332053,0.677234074 35.9732509,0.778375773 C35.3997108,1.14708009 34.9449755,1.70013656 34.3222749,1.98690658 Z" id="Shape" fill="#263238"></path>
                        <path d="M48.8942887,16.0591212 C49.2138324,14.0435376 49.1155113,10.7333922 48.9434493,8.02546389 C48.8706193,6.85926492 48.324721,5.77338237 47.4321692,5.01927662 C46.5396173,4.26517087 45.3778284,3.90825006 44.2158406,4.03116716 L37.1735882,4.77676922 C36.4370649,4.85340322 35.8827299,5.48260016 35.89951,6.22290947 L36.6246285,23.5233352 L34.9859426,23.5233352 L34.9859426,26.6573219 C34.9859426,30.2412058 37.8912546,33.1465178 41.4751386,33.1465178 C45.0590225,33.1465178 47.9643345,30.2412058 47.9643345,26.6573219 L47.9643345,23.9452968 C47.9643345,23.9452968 46.2764881,23.3922403 45.2523094,23.4495943 L45.0024098,23.4495943 C45.0024098,21.8641658 45.1335047,20.6228613 45.1335047,20.6228613 C45.1335047,20.6228613 48.2511045,20.1189654 48.8942887,16.0591212 Z" id="Path" fill="#FFBE9D"></path>
                        <path d="M47.8905938,10.6514579 C47.8908087,10.9332504 47.6682752,11.16483 47.3866977,11.1758374 C47.2524601,11.1871136 47.1194143,11.1432712 47.0181782,11.0543998 C46.916942,10.9655284 46.8562352,10.8392826 46.850028,10.7047152 C46.849813,10.4229228 47.0723466,10.1913432 47.353924,10.1803358 C47.4878968,10.1702244 47.6202988,10.2144775 47.721267,10.3031137 C47.8222352,10.3917498 47.8832658,10.5173041 47.8905938,10.6514579 Z" id="Path" fill="#263238"></path>
                        <path d="M48.2265242,9.75018074 C48.1609768,9.81572817 47.7676922,9.52486143 47.2064423,9.52486143 C46.6451924,9.52486143 46.2355209,9.80753474 46.1740702,9.73789059 C46.1126195,9.66824645 46.2109406,9.58631215 46.3911961,9.45521729 C46.6325617,9.29010007 46.9180994,9.20158337 47.210539,9.20122098 C47.5046071,9.19912428 47.791662,9.29098187 48.0298819,9.46341072 C48.1978472,9.59450558 48.2592979,9.71740702 48.2265242,9.75018074 Z" id="Path" fill="#263238"></path>
                        <path d="M42.4132862,10.6514579 C42.4157174,10.9325746 42.1943967,11.1647799 41.913487,11.1758374 C41.7792494,11.1871136 41.6462036,11.1432712 41.5449675,11.0543998 C41.4437313,10.9655284 41.3830245,10.8392826 41.3768174,10.7047152 C41.3722001,10.4227394 41.5947439,10.1892508 41.8766166,10.1803358 C42.0105894,10.1702244 42.1429914,10.2144775 42.2439596,10.3031137 C42.3449277,10.3917498 42.4059584,10.5173041 42.4132862,10.6514579 L42.4132862,10.6514579 Z" id="Path" fill="#263238"></path>
                        <path d="M42.7205398,9.8525986 C42.6549924,9.92224275 42.2617078,9.63137601 41.7004579,9.63137601 C41.139208,9.63137601 40.7295365,9.91404932 40.6680858,9.84440517 C40.6066351,9.77476102 40.7049562,9.69282673 40.8852117,9.56173187 C41.1248057,9.39298158 41.4115209,9.30409984 41.7045546,9.30773556 C41.9989318,9.30358667 42.2866173,9.395646 42.5238975,9.5699253 C42.6918628,9.70102016 42.7533135,9.83211503 42.7205398,9.8525986 Z" id="Path" fill="#263238"></path>
                        <path d="M44.7525102,14.0066672 C45.0476671,13.9144121 45.3531862,13.8593636 45.6619809,13.8427986 C45.8053659,13.8427986 45.9405575,13.8018315 45.9651378,13.7035103 C45.9739055,13.560723 45.9411822,13.4184478 45.8709133,13.2938389 C45.7357217,12.9497148 45.5964334,12.5851072 45.4612419,12.2041128 C44.8754117,10.6555547 44.4493534,9.38147642 44.5149008,9.35689614 C44.9778802,10.2467989 45.3709833,11.1713446 45.6906579,12.1221785 C45.8299462,12.5072697 45.9651378,12.8677805 46.1003293,13.220098 C46.1908081,13.3924792 46.2169497,13.5914452 46.1740702,13.7813479 C46.130786,13.88352 46.0433302,13.9604208 45.9364608,13.9902803 C45.8577093,14.0119117 45.7764227,14.0229336 45.6947546,14.0230541 C45.3812652,14.0579182 45.0645978,14.0524109 44.7525102,14.0066672 L44.7525102,14.0066672 Z" id="Path" fill="#263238"></path>
                        <path d="M45.1416981,20.6351514 C43.2302642,20.6643901 41.3482494,20.1623304 39.7053579,19.1849145 C39.7053579,19.1849145 41.0245,21.9747771 45.0843441,21.5937826 L45.1416981,20.6351514 Z" id="Path" fill="#EB996E"></path>
                        <path d="M44.5149008,15.358583 C44.2982198,15.0853301 43.956102,14.94291 43.6095269,14.9816853 C43.359865,15.0052411 43.1305769,15.1295004 42.9745361,15.3258093 C42.820155,15.5166051 42.8021258,15.7837657 42.9294722,15.9935738 C43.1152408,16.195819 43.4034582,16.2682759 43.6627842,16.1779259 C43.9258483,16.0886715 44.1692574,15.9495805 44.3797092,15.7682545 C44.4430105,15.7227602 44.4972068,15.6657847 44.5394811,15.6002892 C44.5827554,15.5373673 44.5827554,15.4542786 44.5394811,15.3913567" id="Path" fill="#EB996E"></path>
                        <path d="M43.105631,14.3958551 C43.1957587,14.3958551 43.1957587,14.9980721 43.7160414,15.4282272 C44.2363242,15.8583822 44.8836051,15.7928348 44.8877018,15.8788658 C44.8917985,15.9648968 44.7443168,15.9976705 44.4780304,16.0058639 C44.1225029,16.0103885 43.7769367,15.888424 43.5030123,15.6617399 C43.2370824,15.4473207 43.0663455,15.1367562 43.0277934,14.7973331 C43.0155033,14.5433368 43.0646638,14.3917584 43.105631,14.3958551 Z" id="Path" fill="#263238"></path>
                        <path d="M42.9704394,8.87348381 C42.9171821,9.02506225 42.3559322,8.95132139 41.7004579,9.03325568 C41.0449835,9.11518998 40.5124106,9.2913487 40.4263796,9.15206041 C40.3854125,9.09060969 40.4796369,8.94722468 40.6926661,8.79974295 C40.9764226,8.61379635 41.3012631,8.49989125 41.6390071,8.46790907 C41.9752449,8.42753945 42.316264,8.46683383 42.6345088,8.58261708 C42.876215,8.68093823 43.0155033,8.79974295 42.9704394,8.87348381 Z" id="Path" fill="#263238"></path>
                        <path d="M48.0216885,8.60310065 C47.9233673,8.7300988 47.5341795,8.60310065 47.0712507,8.60310065 C46.608322,8.60310065 46.2150374,8.68913166 46.1249096,8.55394008 C46.0839425,8.48839264 46.1249096,8.36139449 46.3174552,8.24258977 C46.5468894,8.09607952 46.8156164,8.02318016 47.0876376,8.03365732 C47.360457,8.0379037 47.6252471,8.12664417 47.8455298,8.28765363 C48.0093983,8.41055506 48.0626556,8.54164993 48.0216885,8.60310065 Z" id="Path" fill="#263238"></path>
                        <path d="M50.455137,4.40396819 C50.1765604,3.32243554 49.3572174,2.32283718 48.2592979,2.11800145 C47.5423729,1.98690658 46.809061,2.19583902 46.0839425,2.15077516 C45.4817254,2.11390473 45.2645996,1.63458912 44.6951562,1.44614025 C43.7447185,1.13478994 43.0155033,0.0778375773 40.9630492,0.299060165 C40.4140895,0.360510884 39.7094546,0.995501647 39.2055587,1.71652342 C38.4189895,1.3764961 37.3825207,1.7411037 36.8171741,1.99100329 C35.641417,2.50309262 34.9081051,3.82633143 34.6745923,5.17005382 C34.4410796,6.51377621 34.6336252,7.89436903 34.8220741,9.24628484 C34.9081051,9.86079203 34.9941361,10.4752992 35.0842638,11.0979998 C35.1177062,11.5080111 35.2274701,11.908163 35.4079042,12.2778536 L34.4738533,20.9628886 C35.4187624,21.2650928 36.4463606,21.1655004 37.3156509,20.6874682 C38.1849413,20.209436 38.8194492,19.3950181 39.0703671,18.4352157 C39.430878,16.7268857 38.4804402,14.9898787 38.6320186,13.248775 C38.7221464,12.2123062 39.3079765,11.2495783 39.3038798,10.2090128 C39.2971736,9.86688083 39.2476272,9.5269371 39.1563981,9.19712427 L39.1563981,9.19712427 C40.7950839,7.85749859 41.2293357,6.78006266 41.1596915,5.51008113 C41.6653978,5.86368694 42.2635008,6.06163053 42.8803117,6.07952446 C43.7488152,6.07952446 44.6541891,5.75178729 45.4653386,6.07952446 C46.0236647,6.36519165 46.5162152,6.76425526 46.9114788,7.25118483 C47.3580207,7.69363001 47.9356575,8.09920476 48.5501647,8.01317375 C48.8439185,7.94369066 49.1295339,7.84345062 49.4022813,7.71411358 C49.6797435,7.58271656 50.001516,7.58271656 50.2789782,7.71411358 C50.6106743,6.64230279 50.6712028,5.50492968 50.455137,4.40396819 Z" id="Path" fill="#263238"></path>
                        <path d="M26.1861997,13.2979356 C26.6063246,13.6026087 27.0582371,13.8608444 27.5340188,14.0681179 C28.0921821,14.3032211 28.6900526,14.4297472 29.2956061,14.4409189 C30.0983559,14.4623269 30.8867622,14.2253742 31.5447024,13.764961 C32.3427097,13.213966 32.8697237,12.3504966 32.9949394,11.3888666 C33.0586138,10.8610685 32.9508949,10.3267829 32.6876858,9.86488875 C32.4111557,9.38403027 31.9101343,9.07570936 31.3562535,9.04554583 C31.0778334,9.03829447 30.8055565,9.1280879 30.5860712,9.29954213 C30.3634084,9.48571381 30.1985384,9.73159747 30.1108523,10.0082738 C29.9142854,10.5880924 30.0321062,11.2283557 30.4222026,11.7002169 C30.8395387,12.1852737 31.4031053,12.5216885 32.0281147,12.6588481 C32.6735963,12.8111283 33.34434,12.8223074 33.9945377,12.6916218 C34.6469836,12.5617365 35.260043,12.2811601 35.784802,11.8722789 C36.2927364,11.4789396 36.6778848,10.9488275 36.8950116,10.3442044 C37.1081804,9.76247667 37.1591595,9.13373413 37.0424934,8.52526307 C36.9868063,8.23744197 36.8844012,7.96067152 36.7393365,7.70592015 C36.6067745,7.45079607 36.4175949,7.22938591 36.18628,7.05863925 C35.9718669,6.88872703 35.7098002,6.78991498 35.4365813,6.77596594 C35.1782645,6.76720089 34.9365739,6.90305309 34.8097839,7.1282834 C34.6905122,7.35361901 34.6626359,7.61624259 34.7319463,7.86159531 C34.8108669,8.10532734 34.9520856,8.32421639 35.1416178,8.49658607 C36.5391613,9.67894424 38.6081044,9.59895932 39.9101936,8.31223391 C40.3318942,7.87756462 40.6400315,7.34571126 40.8073741,6.7636758 C40.9454366,6.26543901 40.9885188,5.7456731 40.9343722,5.23150454 C40.9722074,5.36501955 40.9942077,5.50252127 40.9999197,5.641176 C41.0290322,6.03086616 40.9930348,6.42268398 40.8934051,6.80054623 C40.7310329,7.4018429 40.4244837,7.95447534 40.0003213,8.41055506 C39.4230207,9.01332416 38.6508825,9.39213632 37.8208691,9.47979757 C36.8086664,9.61067197 35.7885208,9.30537293 35.0146196,8.63997108 C34.8023442,8.44614006 34.6466046,8.19837249 34.563981,7.92304603 C34.4806672,7.62827969 34.5144243,7.31272485 34.6582055,7.04225239 C34.8193556,6.75606486 35.1245849,6.58142336 35.4529681,6.58751707 C35.7700082,6.60059157 36.0750608,6.71230097 36.3255683,6.90706081 C36.5802783,7.09382106 36.7890415,7.33621058 36.9359788,7.61579243 C37.0940124,7.89511063 37.2060567,8.19804518 37.2678127,8.51297293 C37.3953,9.15924264 37.3428674,9.82811196 37.1162342,10.4466222 C36.8867891,11.0928503 36.4791678,11.6609637 35.9404771,12.0853081 C35.3868695,12.5116016 34.7417174,12.8033225 34.0559884,12.9374247 C33.37849,13.0725143 32.6798291,13.0599384 32.0076311,12.9005543 C31.3365307,12.7511946 30.7316077,12.3891029 30.2829143,11.8681822 C30.0712337,11.603243 29.9302742,11.2889034 29.8732428,10.9546148 C29.8226782,10.6252729 29.8493246,10.2886866 29.9510804,9.97140333 C30.0501441,9.65158164 30.2393208,9.36710542 30.4959434,9.15206041 C30.7561108,8.95198483 31.0773426,8.84780156 31.4054141,8.85709696 C32.0302705,8.89054597 32.5938188,9.24353775 32.8966182,9.79114788 C33.1752799,10.289332 33.2886023,10.8631161 33.2202587,11.4298337 C33.0821654,12.4394423 32.5204344,13.3423838 31.6757973,13.9124428 C30.9914831,14.3849829 30.1714766,14.6209146 29.3406699,14.584304 C28.7214734,14.566725 28.1117808,14.4275258 27.5463089,14.1746325 C27.1878869,14.0209023 26.8494755,13.8241835 26.5385171,13.5888023 C26.4320026,13.5109647 26.3582617,13.4413206 26.3050044,13.4003534 L26.1861997,13.2979356 Z" id="Path" fill="#455A64"></path>
                        <path d="M50.6927464,6.23929633 C50.6346207,6.29430271 50.5682771,6.33991392 50.4961041,6.37448791 C50.2953054,6.48651577 50.0783242,6.56667444 49.8529199,6.61209736 C49.4933509,6.68515081 49.1227628,6.68515081 48.7631938,6.61209736 C48.2876874,6.49971402 47.8472503,6.27175619 47.4809222,5.94842959 C47.0395435,5.55565862 46.6946787,5.06639923 46.4731304,4.5186762 C46.3243531,4.20003885 46.31251,3.83438452 46.4403567,3.50678769 C46.5186924,3.33194546 46.6526432,3.18791239 46.8213511,3.09711623 C47.0062311,3.00092948 47.2263981,3.00092948 47.411278,3.09711623 C47.7725306,3.30707512 47.9421065,3.7377978 47.8209495,4.13768174 C47.6768891,4.52246754 47.3804493,4.83076489 47.0016066,4.98979838 C46.246978,5.3155181 45.3939963,5.32877688 44.6296088,5.02666881 C44.2476955,4.88883682 43.8811231,4.71172879 43.535786,4.49819263 C43.1908084,4.29841568 42.8774062,4.04852236 42.6058318,3.75668728 C42.306125,3.43865663 42.2669827,2.95533417 42.5116074,2.59322034 C42.6543328,2.4196291 42.8813674,2.33922099 43.1015343,2.38428789 C43.2997553,2.42809821 43.4764991,2.53964957 43.6013334,2.69973492 C43.7259025,2.85715615 43.7833182,3.057375 43.7611053,3.2568881 C43.7353904,3.44362641 43.6556481,3.61877464 43.5316893,3.760784 C43.3039964,4.02373964 42.9813978,4.18577548 42.6345088,4.2114226 C42.3224048,4.2337593 42.0089881,4.19336336 41.712748,4.09261788 C41.4458936,4.0078783 41.1845654,3.90663072 40.9302755,3.789461 C40.4796805,3.60132784 40.0857843,3.2991996 39.7872922,2.91276408 C39.5694567,2.60837793 39.4650958,2.23731677 39.4923287,1.86400514 C39.506598,1.63091743 39.5892438,1.40720385 39.7299381,1.22082095 C39.7789741,1.15626717 39.8402201,1.10198095 39.9101936,1.06104908 C39.7037621,1.28480959 39.5858118,1.57604487 39.5783597,1.880392 C39.5676904,2.22825264 39.6760849,2.56933406 39.8856133,2.84721664 C40.1780691,3.21229805 40.5607524,3.49472117 40.995823,3.66655956 C41.5037414,3.92317513 42.0654567,4.05517824 42.6345088,4.05165073 C42.9355665,4.02316852 43.2128038,3.87570185 43.4046911,3.64197928 C43.6233151,3.42041007 43.6476686,3.07250289 43.4620451,2.82263636 C43.277693,2.5809302 42.8844084,2.47441562 42.7000562,2.72431521 C42.6049364,2.85080183 42.5650388,3.01039224 42.5894449,3.16676038 C42.6134631,3.33340092 42.6845223,3.48973126 42.7942807,3.61739899 C43.0520932,3.88756283 43.3473334,4.11934017 43.6709776,4.30564704 C44.0027211,4.5111072 44.3557288,4.68005642 44.7238332,4.80954294 C45.4291782,5.10314108 46.2225208,5.10314108 46.9278657,4.80954294 C47.2472485,4.67569887 47.4975857,4.41647397 47.6202105,4.09261788 C47.7238134,3.77922687 47.5917782,3.43627816 47.3047634,3.27327496 C47.1729076,3.21360868 47.0219611,3.21252313 46.8892608,3.27028681 C46.7565604,3.32805049 46.6544992,3.43926883 46.608322,3.57643184 C46.5031778,3.85561864 46.5134964,4.16517667 46.636999,4.43674191 C46.8428253,4.96098835 47.1650067,5.43165338 47.5792433,5.81323801 C47.9209514,6.12887357 48.334314,6.35664481 48.7836774,6.47690578 C49.1249362,6.56365778 49.4800278,6.58176049 49.8283396,6.53016307 C50.128129,6.47208273 50.4188292,6.37426417 50.6927464,6.23929633 Z" id="Path" fill="#455A64"></path>
                        <path d="M38.8614347,15.7682545 C38.8126788,15.8244004 38.7544399,15.8715462 38.6893726,15.9075428 C38.5076656,16.0255038 38.304372,16.1062643 38.0912523,16.1451522 C37.7542001,16.2147141 37.4046248,16.1920695 37.0793638,16.0796048 C36.6256685,15.9479512 36.2508629,15.6269026 36.0510884,15.1988111 C35.9142082,14.9215744 35.9777425,14.5871837 36.2067636,14.3794682 C36.4662445,14.1793015 36.8280764,14.1793015 37.0875572,14.3794682 C37.6048414,14.8012612 37.8474302,15.4738939 37.7184513,16.1287654 C37.6335102,16.8519325 37.187779,17.4827423 36.5345008,17.8043216 C35.8162935,18.1077642 34.9959054,18.0467688 34.3304683,17.640453 C33.9912045,17.4500862 33.7019697,17.1819122 33.4865451,16.8579806 C33.2651639,16.5300651 33.192283,16.1240142 33.2858061,15.7395775 C33.3350153,15.5494243 33.4356516,15.3764999 33.5766728,15.2397783 C33.7218389,15.0981769 33.9189124,15.0226073 34.1215359,15.0308459 C34.496156,15.0592326 34.8286671,15.2814246 34.9982328,15.616676 C35.1500854,15.913895 35.2327173,16.2416215 35.239939,16.5753073 C35.2519986,16.8825238 35.2216709,17.1899371 35.1498112,17.4888746 C35.0209789,18.0324144 34.7362064,18.5264946 34.3304683,18.9104346 C33.7368651,19.4845916 32.8565312,19.6461208 32.0977589,19.320106 C31.8995715,19.2337159 31.719025,19.1114998 31.565186,18.9595951 C31.5096166,18.9102853 31.4625562,18.8521518 31.4258977,18.7875331 C31.6359798,18.9733856 31.8737018,19.1254171 32.1305326,19.2381717 C32.4354381,19.3560285 32.7647123,19.396836 33.0891638,19.3569765 C33.5158966,19.3052261 33.9134848,19.1136347 34.219857,18.8121134 C34.590062,18.4430291 34.8460774,17.9750899 34.9572656,17.4642943 C35.0234431,17.1812289 35.0482812,16.8900721 35.0310065,16.5998875 C35.0221998,16.2984253 34.9451626,16.0028824 34.8056872,15.7354808 C34.6713597,15.462984 34.4038412,15.2810092 34.1010523,15.2561652 C33.7910914,15.2752377 33.5357998,15.5067021 33.4865451,15.8133183 C33.4082209,16.13815 33.4723132,16.4809691 33.6627038,16.7555627 C33.859515,17.0492096 34.1217467,17.2932114 34.4287895,17.468391 C35.0429007,17.841721 35.7991759,17.8966119 36.4607599,17.6158728 C37.0495217,17.3239915 37.4526287,16.7562569 37.5340991,16.1041851 C37.6519738,15.5246526 37.4484372,14.926568 37.0015262,14.5392401 C36.8055208,14.3853959 36.5297672,14.3853959 36.3337617,14.5392401 C36.1640798,14.6960776 36.1159614,14.9449655 36.214957,15.1537473 C36.3890274,15.5428787 36.7193054,15.8404264 37.1244277,15.9730902 C37.4305128,16.0864142 37.7603424,16.1202429 38.0830589,16.0714114 C38.3579135,16.0155088 38.6211728,15.9129763 38.8614347,15.7682545 Z" id="Path" fill="#455A64"></path>
                        <path d="M21.9379067,115.35529 C21.9379067,115.35529 24.6786087,120.681019 31.823279,118.091895 C31.823279,118.091895 38.8204675,121.893646 45.5144992,117.63716 C45.5144992,117.63716 54.1790505,118.79653 58.894369,116.51466 L52.8476183,64.2241947 L52.0774359,56.1946341 L32.9416821,56.1946341 C32.9416821,56.1946341 27.2636356,58.779661 26.3500683,71.4016387 C25.4365009,84.0236164 23.4823681,101.360913 23.4823681,101.360913 L21.9379067,115.35529 Z" id="Path" fill="#263238"></path>
                        <path d="M45.1048277,117.796931 C45.1048277,117.796931 45.1048277,117.743674 45.1048277,117.63716 C45.1048277,117.530645 45.0802474,117.370873 45.0638606,117.174231 C45.0310868,116.764559 44.986023,116.154149 44.9245723,115.388063 C44.8098642,113.839505 44.6582858,111.594506 44.4944172,108.83332 C44.1625833,103.286368 43.8102659,95.6091252 43.6259137,87.1207326 C43.4415616,78.6323399 43.4620451,70.9510001 43.5521729,65.4081452 C43.5972367,62.626476 43.6463973,60.3773797 43.6996546,58.8247249 C43.7242349,58.0545425 43.7447185,57.4564222 43.7611053,57.0344606 C43.7611053,56.8378183 43.7611053,56.6821431 43.7611053,56.5674351 C43.7558475,56.5156766 43.7558475,56.4635185 43.7611053,56.41176 C43.7673285,56.4634651 43.7673285,56.51573 43.7611053,56.5674351 L43.7611053,57.0344606 C43.7611053,57.4441321 43.7611053,58.0586392 43.7406217,58.8247249 C43.7406217,60.3896699 43.6955579,62.6387662 43.6627842,65.4081452 C43.6136236,70.9673869 43.6136236,78.6487268 43.7979757,87.1207326 C43.9823279,95.5927384 44.3141618,103.274078 44.6173187,108.83332 C44.7688971,111.602699 44.8917985,113.843602 44.9819263,115.388063 C45.0228934,116.154149 45.0556671,116.756366 45.0802474,117.174231 C45.0802474,117.370873 45.0802474,117.526548 45.100731,117.641256 C45.1064086,117.692945 45.1077788,117.745016 45.1048277,117.796931 Z" id="Path" fill="#455A64"></path>
                        <path d="M46.7844807,102.827536 C46.7844807,102.827536 46.8254478,102.770182 46.9319624,102.741505 C47.0896419,102.707211 47.2542918,102.727431 47.3989879,102.798859 C47.6210771,102.907616 47.7821669,103.11086 47.8373363,103.351916 C47.8693722,103.664691 47.7140085,103.966951 47.4410227,104.122942 C47.1680369,104.278934 46.8287519,104.259331 46.5755482,104.072938 C46.3958679,103.90109 46.3039388,103.65695 46.3256486,103.40927 C46.3374297,103.248554 46.4039421,103.096733 46.5140975,102.979115 C46.5919351,102.901277 46.6574825,102.88489 46.6615792,102.893084 C46.5521874,103.04714 46.4883067,103.228845 46.4772271,103.417463 C46.4777259,103.609728 46.559586,103.792797 46.7025464,103.921359 C46.8944449,104.04247 47.1374691,104.04797 47.3346494,103.935662 C47.5318298,103.823355 47.6510696,103.611523 47.6447907,103.38469 C47.609869,103.194735 47.4929509,103.029851 47.325247,102.934051 C47.1600735,102.844225 46.9713807,102.807058 46.7844807,102.827536 L46.7844807,102.827536 Z" id="Path" fill="#455A64"></path>
                        <path d="M46.3584224,87.300988 C46.3584224,87.300988 46.3993895,87.2477307 46.5059041,87.2190537 C46.663464,87.1823528 46.8289319,87.2026735 46.9729296,87.2764077 C47.1990231,87.380127 47.3619271,87.5856601 47.411278,87.8294642 C47.4400659,88.1400685 47.2844917,88.4387951 47.013493,88.5932732 C46.7424943,88.7477512 46.4061839,88.7294149 46.1535866,88.5463893 C45.9703012,88.3786719 45.8775541,88.1338805 45.903687,87.8868182 C45.9169569,87.7333207 45.981956,87.5888783 46.0880392,87.4771468 C46.1699735,87.3952125 46.2314242,87.3829223 46.2355209,87.3911158 C46.1266528,87.5439056 46.0627867,87.7241499 46.0511688,87.9113985 C46.0511498,88.1037739 46.1330999,88.2870441 46.2764881,88.4152944 C46.4672784,88.5390486 46.7110457,88.5464819 46.9090219,88.4345823 C47.106998,88.3226828 47.226355,88.1100054 47.2187324,87.8827215 C47.1828056,87.6932771 47.0681467,87.5279895 46.9032854,87.4279862 C46.7370493,87.3357021 46.5483298,87.2917148 46.3584224,87.300988 Z" id="Path" fill="#455A64"></path>
                        <path d="M46.1085228,73.5688007 C46.1085228,73.5688007 46.1494899,73.5155434 46.2601012,73.4868664 C46.4163279,73.4504487 46.5804143,73.470778 46.72303,73.5442204 C46.9494509,73.6485157 47.1134258,73.8534843 47.1654751,74.0972769 C47.195675,74.4093261 47.0396096,74.7099718 46.7670287,74.8648473 C46.4944478,75.0197228 46.1562901,74.9998858 45.903687,74.8142019 C45.7220485,74.6453723 45.629625,74.4014348 45.6537875,74.1546309 C45.6650773,73.9945849 45.7300303,73.8430278 45.8381396,73.7244759 C45.9200739,73.6466383 45.9815246,73.6302514 45.989718,73.6384449 C45.8783875,73.7902547 45.8129804,73.9708351 45.8012692,74.1587276 C45.8001294,74.3522123 45.8840049,74.536439 46.0306852,74.6626235 C46.2213167,74.7840809 46.4634602,74.7902516 46.6600305,74.6786614 C46.8566009,74.5670713 46.975414,74.3559908 46.9688328,74.1300506 C46.932906,73.9406062 46.8182471,73.7753186 46.6533858,73.6753153 C46.4851758,73.589914 46.2965104,73.553032 46.1085228,73.5688007 L46.1085228,73.5688007 Z" id="Path" fill="#455A64"></path>
                        <path d="M45.6210137,58.8779822 C45.6210137,58.8779822 45.6619809,58.8206282 45.7684955,58.7919512 C45.926568,58.7572189 46.0918132,58.7789617 46.2355209,58.8534019 C46.4603673,58.9587041 46.6226925,59.163507 46.6738694,59.4064584 C46.7168606,59.7234554 46.5517101,60.0322867 46.2641979,60.172544 C45.9944454,60.3397672 45.648845,60.3201122 45.3997911,60.1233834 C45.2201108,59.9515353 45.1281817,59.7073958 45.1498916,59.4597156 C45.1661369,59.3062026 45.232345,59.1622721 45.3383404,59.0500442 C45.4202747,58.9722066 45.4817254,58.9558197 45.4858222,58.9640132 C45.3764303,59.1180689 45.3125496,59.299774 45.30147,59.4883926 C45.3019688,59.6806572 45.3838289,59.8637263 45.5267893,59.9922885 C45.7186878,60.1133998 45.961712,60.118899 46.1588923,60.0065919 C46.3560727,59.8942848 46.4753125,59.6824527 46.4690337,59.4556189 C46.434112,59.2656646 46.3171938,59.10078 46.1494899,59.0049803 C45.9900998,58.9104928 45.8059329,58.8662357 45.6210137,58.8779822 L45.6210137,58.8779822 Z" id="Path" fill="#455A64"></path>
                    </g>
                    <g id="freepik--Message--inject-89" transform="translate(69.739738, 30.725359)">
                        <polygon id="Path" fill="#ED2012" points="0.917664069 38.4681501 97.5468712 37.7676119 100.238413 103.462527 0.180255442 102.53667"></polygon>
                        <path d="M0.913567355,38.4681501 L46.6492891,1.46252711 C48.586324,-0.102924869 51.3564913,-0.0926586528 53.28187,1.4871074 L97.5468712,37.7676119" id="Path" fill="#FF725E"></path>
                        <g id="Group" opacity="0.3" transform="translate(0.819343, 0.000000)" fill="#000000">
                            <path d="M0.0942244357,38.4681501 L45.8299462,1.46252711 C47.7669811,-0.102924869 50.5371484,-0.0926586528 52.4625271,1.4871074 L96.7275283,37.7676119" id="Path"></path>
                        </g>
                        <path d="M0.180255442,102.53667 C0.0614507189,102.421962 7.79604788,93.9745361 17.4601976,83.6712989 C27.1243473,73.3680617 35.0514901,65.1049884 35.1743915,65.2155996 C35.297293,65.3262109 27.5585991,73.7736364 17.8944494,84.0809704 C8.23029962,94.3883043 0.30315688,102.647281 0.180255442,102.53667 Z" id="Path" fill="#263238"></path>
                        <path d="M100.238413,103.462527 C100.115511,103.573138 92.5816531,95.2977749 83.4132059,84.9822476 C74.2447586,74.6667202 66.9116395,66.2111013 67.0263475,66.10049 C67.1410555,65.9898787 74.6831071,74.2652422 83.8515543,84.5848663 C93.0200016,94.9044903 100.369508,103.351916 100.238413,103.462527 Z" id="Path" fill="#263238"></path>
                        <g id="Group" opacity="0.5" transform="translate(0.819343, 37.689774)" fill="#000000">
                            <polyline id="Path" points="96.7275283 0.0778375773 48.2019439 38.8409511 0.0983211503 0.778375773"></polyline>
                        </g>
                        <polygon id="Path" fill="#FAFAFA" points="5.78046429 42.056872 5.63298257 11.8804723 90.2424291 10.8767773 91.1969636 42.6304121 49.0171901 76.0227327"></polygon>
                        <path d="M5.78046429,42.056872 C5.78046429,42.056872 6.05494417,42.2617078 6.57522693,42.6672825 L8.8693871,44.4534501 L17.6158728,51.2826733 L49.0827376,75.9530886 L48.976223,75.9530886 L91.1437063,42.5484778 L91.1027392,42.6345088 C90.9224837,36.5795646 90.7299381,30.2214636 90.5332958,23.7568479 C90.4062977,19.4020403 90.2752028,15.10049 90.1482047,10.880874 L90.2547193,10.9832918 L5.64527271,11.9460198 L5.71082015,11.8804723 C5.74359386,21.37256 5.77227087,28.9146116 5.78865772,34.0846654 C5.78865772,36.6696923 5.78865772,38.6606956 5.78865772,40.0085147 L5.78865772,41.5365893 C5.78865772,41.8807133 5.78865772,42.056872 5.78865772,42.056872 C5.78865772,42.056872 5.78865772,41.88481 5.78865772,41.5447827 C5.78865772,41.2047554 5.78865772,40.6926661 5.78865772,40.0249016 C5.78865772,38.6770825 5.75998072,36.6901759 5.73949715,34.1092457 C5.70672343,28.9309985 5.65756286,21.3848502 5.59611214,11.8804723 L5.59611214,11.8108282 L5.66165957,11.8108282 L90.2752028,10.7743594 L90.3776207,10.7743594 L90.3776207,10.880874 C90.5046188,15.0963933 90.631617,19.3979436 90.7627119,23.7527512 C90.9593542,30.2214636 91.147803,36.5754679 91.3321552,42.6345088 L91.3321552,42.6877661 L91.291188,42.7205398 L49.0950277,76.0964736 L49.0417704,76.1374408 L48.9885131,76.0964736 L17.5421319,51.344124 L8.84890353,44.4821271 L6.55474335,42.6795727 C6.03855731,42.2699012 5.78046429,42.056872 5.78046429,42.056872 Z" id="Path" fill="#263238"></path>
                        <path d="M76.8707527,26.0755884 C76.8707527,26.1329424 63.9292313,26.2599406 47.9725279,26.354165 C32.0158246,26.4483894 19.0702064,26.4852599 19.0702064,26.4238091 C19.0702064,26.3623584 32.0076311,26.239457 47.9725279,26.1411358 C63.9374247,26.0428147 76.8707527,26.0141377 76.8707527,26.0755884 Z" id="Path" fill="#263238"></path>
                        <path d="M76.8707527,34.5967548 C76.8707527,34.6582055 63.9292313,34.7852036 47.9725279,34.8794281 C32.0158246,34.9736525 19.0702064,35.0064262 19.0702064,34.9490722 C19.0702064,34.8917182 32.0076311,34.7647201 47.9725279,34.6663989 C63.9374247,34.5680778 76.8707527,34.5394008 76.8707527,34.5967548 Z" id="Path" fill="#263238"></path>
                        <path d="M76.8707527,44.4247731 C76.8707527,44.4821271 63.9292313,44.6091252 47.9725279,44.7074464 C32.0158246,44.8057675 19.0702064,44.8344445 19.0702064,44.7729938 C19.0702064,44.7115431 32.0076311,44.5886417 47.9725279,44.4944172 C63.9374247,44.4001928 76.8707527,44.3633224 76.8707527,44.4247731 Z" id="Path" fill="#263238"></path>
                        <path d="M76.8707527,54.2486947 C76.8707527,54.3101454 64.5273516,54.4289501 49.2998634,54.5231746 C34.0723753,54.617399 21.7289742,54.6419793 21.7248765,54.5846253 C21.7207808,54.5272713 34.0682786,54.4043698 49.2998634,54.3101454 C64.5314483,54.215921 76.8707527,54.1913407 76.8707527,54.2486947 Z" id="Path" fill="#263238"></path>
                        <path d="M66.0472327,62.8722789 C65.936283,62.89106 65.8238039,62.8992902 65.7113021,62.8968592 L64.736284,62.9255362 L61.1639489,62.9828902 L49.3695076,63.1508555 C44.7648004,63.2286931 40.5902482,63.2532734 37.5709696,63.2573701 L33.9986344,63.2573701 L33.0236164,63.2573701 C32.9112745,63.2594121 32.7989472,63.2525629 32.6876858,63.2368865 C32.7986354,63.2181054 32.9111146,63.2098752 33.0236164,63.2123062 L33.9986344,63.1877259 L37.5709696,63.1262752 L49.3654109,62.9583099 C53.9701181,62.8804723 58.1446703,62.855892 61.1598522,62.8517953 L64.736284,62.8517953 L65.7113021,62.8517953 C65.8235998,62.8515 65.9358028,62.8583417 66.0472327,62.8722789 L66.0472327,62.8722789 Z" id="Path" fill="#263238"></path>
                        <path d="M55.1540686,71.1640292 C55.1540686,71.2213832 52.3969797,71.2705438 49.0089967,71.2705438 C45.6210137,71.2705438 42.8639248,71.2213832 42.8639248,71.1640292 C42.8639248,71.1066752 45.6251105,71.0575147 49.0089967,71.0575147 C52.392883,71.0575147 55.1540686,71.1025785 55.1540686,71.1640292 Z" id="Path" fill="#263238"></path>
                        <circle id="Oval" fill="#263238" cx="83.6344285" cy="54.2486947" r="10.2213029"></circle>
                        <circle id="Oval" fill="#455A64" cx="80.9756607" cy="54.2486947" r="10.2213029"></circle>
                        <polygon id="Path" fill="#EBEBEB" points="82.2743192 49.492409 82.2743192 57.9889951 80.7052775 57.9889951 80.7052775 50.799261 78.9068198 50.799261 78.9068198 49.4760222"></polygon>
                    </g>
                    <g id="freepik--speech-bubble--inject-89" transform="translate(66.052695, 10.241786)">
                        <path d="M10.1311752,18.5786007 L19.4798779,18.5786007 L18.2139931,17.1283637 L18.2139931,13.650253 C18.2139931,11.7678089 16.6879706,10.2417865 14.8055265,10.2417865 L14.8055265,10.2417865 C13.9019213,10.2417865 13.0353851,10.6010218 12.396824,11.2403513 C11.7582629,11.8796808 11.4000693,12.7466484 11.4011567,13.650253 L11.4011567,16.9563017 L10.1311752,18.5786007 Z" id="Path" fill="#ED2012"></path>
                        <path d="M13.5191582,18.1197687 C13.54737,18.6752984 13.8925794,19.1650708 14.4062898,19.3784035 C14.9200002,19.5917361 15.5106063,19.4905873 15.9240505,19.1184677 C16.3374947,18.746348 16.5000514,18.1696142 16.3417945,17.6363563" id="Path" fill="#FF725E"></path>
                        <rect id="Rectangle" fill="#FF725E" x="14.4081452" y="8.82432324" width="1" height="1.95003615"></rect>
                        <path d="M28.435296,12.1836292 C28.4075103,12.1033943 28.3856032,12.0212429 28.3697486,11.9378263 C28.3287814,11.7616676 28.2755241,11.5281549 28.20588,11.2168046 C28.1203754,10.8249408 28.0095311,10.4390388 27.8740461,10.061531 C27.7921118,9.84030846 27.7347578,9.59040887 27.6241465,9.34050928 L27.2759258,8.54574665 C26.6457497,7.20317477 25.8094738,5.9674217 24.7974134,4.8832838 C23.4682055,3.48207422 21.8587673,2.37654505 20.0739015,1.63868584 C19.0573997,1.21081225 17.9926289,0.90816422 16.9030444,0.737408627 C15.7278198,0.566135412 14.5354363,0.546859004 13.3552896,0.680054623 C12.7343489,0.745373454 12.1184688,0.852126001 11.511768,0.999598361 C11.2045144,1.06514579 10.9054543,1.18395052 10.5941039,1.27817495 C10.2814363,1.36492571 9.97599215,1.4758718 9.68053659,1.61000884 C8.42538371,2.11761115 7.25735733,2.81842698 6.21881276,3.68704314 C3.91395634,5.58748969 2.28924311,8.18559306 1.58952526,11.0898064 C1.22110643,12.6457557 1.13095414,14.2546274 1.32323881,15.8419953 C1.4919297,17.4840439 1.968644,19.0795775 2.72841192,20.5450237 L2.96602137,20.9915656 L2.99469837,21.0489196 L2.99469837,21.1103703 C2.23680617,23.5683991 1.49939754,26.0264278 0.778375773,28.3738453 L0.585830187,28.1976866 L6.44003534,25.1456342 L6.50967949,25.1087638 L6.57522693,25.1579243 C11.6162615,29.0452944 18.677501,28.9228156 23.5806892,24.8629609 C24.8012913,23.8424407 25.8413711,22.6237054 26.6573219,21.257852 C27.3096171,20.1172179 27.8121902,18.8972733 28.1526227,17.6281629 C28.382347,16.6643167 28.5195265,15.6807396 28.5622942,14.6908185 C28.5622942,14.2811471 28.5622942,13.9288296 28.5622942,13.6133826 C28.5622942,13.2979356 28.5131336,13.048036 28.4967467,12.8309101 C28.4803599,12.6137842 28.463973,12.4703992 28.4557796,12.3515945 C28.4493689,12.2971597 28.4493689,12.2421607 28.4557796,12.1877259 C28.4702822,12.2399765 28.4798827,12.2934652 28.4844566,12.3474978 C28.4844566,12.4676681 28.5049402,12.62744 28.5459073,12.8268134 C28.5704876,13.0439393 28.5991646,13.3020323 28.636035,13.6133826 C28.6729055,13.9247329 28.636035,14.2893405 28.636035,14.6949153 C28.6131904,15.6934725 28.4896635,16.6871777 28.2673307,17.6609366 C27.9402649,18.9495442 27.4443676,20.1892875 26.7925135,21.3479798 C25.9764675,22.7435718 24.9291863,23.9903351 23.6953972,25.0350229 C20.6394329,27.586034 16.6338572,28.6993572 12.6998152,28.091172 C10.4109013,27.7276235 8.24763444,26.802922 6.40316491,25.3996305 L6.54245321,25.3996305 L0.696441481,28.4598763 L0.40147803,28.6155514 L0.499799181,28.2837176 L2.71202506,21.0202426 L2.71202506,21.1390473 L2.4703189,20.684312 C1.69532728,19.1865547 1.20892379,17.5564081 1.03646879,15.8788658 C0.835965347,14.2543748 0.930337177,12.6070313 1.31504539,11.0160655 C2.03167569,8.05503138 3.6925605,5.40768164 6.04675074,3.47401398 C7.10942316,2.59479897 8.30210355,1.88582442 9.58221544,1.37239939 C9.88292182,1.23623508 10.1938637,1.12391245 10.5121697,1.03646879 C10.8276167,0.946341072 11.1307736,0.827536348 11.4462206,0.761988915 C12.0617751,0.610516843 12.6874707,0.503724161 13.3184192,0.442445176 C14.5182245,0.310345529 15.730128,0.335134463 16.923528,0.516186039 C18.0273598,0.699193249 19.1055294,1.01274258 20.1353522,1.45023697 C21.9395709,2.20989778 23.5620874,3.3437045 24.8957346,4.77676922 C25.9079982,5.88090846 26.7377551,7.139373 27.3537634,8.5047795 C27.4725681,8.79154952 27.5872761,9.05783597 27.689694,9.32412242 C27.7921118,9.59040887 27.8535625,9.83211503 27.9314001,10.0574343 C28.0642596,10.4379681 28.1669941,10.828359 28.2386537,11.224998 C28.2960077,11.5322516 28.3451683,11.7739577 28.377942,11.9542132 C28.4020838,12.0293409 28.4212434,12.1059793 28.435296,12.1836292 Z" id="Path" fill="#263238"></path>
                    </g>
                    <g id="freepik--Plant--inject-89" transform="translate(179.122018, 97.911479)">
                        <path d="M28.3943289,21.7986184 C29.7339545,26.325488 28.7179693,32.1469194 27.0956703,36.5795646 C25.4470724,41.0558079 22.4130922,44.8891859 18.4352157,47.5218893 C17.9927705,47.812756 17.4233272,48.0954294 16.9563017,47.8455298 C16.606535,47.5677077 16.3979747,47.1490867 16.3868584,46.7025464 C14.4187919,36.6487989 19.31567,26.5013328 28.4107157,21.7863282" id="Path" fill="#FF725E"></path>
                        <g id="Group" opacity="0.2" transform="translate(15.567515, 21.712587)" fill="#000000">
                            <path d="M12.8268134,0.0860310065 C14.1664391,4.61290063 13.1504539,10.4343321 11.5281549,14.8669773 C9.87955696,19.3432205 6.84557675,23.1765986 2.86770022,25.809302 C2.42525504,26.1001687 1.85581171,26.382842 1.38878625,26.1329424 C1.03901953,25.8551204 0.830459234,25.4364994 0.819342919,24.989959 C-1.1487236,14.9362115 3.74815455,4.78874545 12.8432003,0.0737408627" id="Path"></path>
                        </g>
                        <path d="M8.27126677,0.311350309 C11.0898064,0.233512732 12.9497148,3.3674994 13.2323881,6.17784561 C13.5150615,8.98819182 12.8923608,11.913246 13.7158005,14.6006908 C14.7481725,18.0255442 17.9681902,20.483573 18.9350149,23.9371034 C20.0820949,28.005141 17.8493855,32.2288537 17.7428709,36.4525665 C17.6896136,38.5009238 18.1525424,40.5861515 17.7633545,42.5976384 C17.0949844,46.1457045 14.0129787,48.7272883 10.4026871,48.7635402 C6.79239553,48.7990357 3.65969951,46.2792045 2.92095751,42.7451201 C2.26138646,39.5824564 3.65836613,36.2190537 2.82263636,33.0932605 C2.20403245,30.7868102 0.40967146,28.8244839 0.262189734,26.440196 C0.0901277211,23.6011728 2.28596674,21.1472407 2.6956382,18.3327978 C3.10530966,15.5183549 1.67965298,12.7694594 1.46662383,9.93043618 C1.08562937,4.84231665 3.19134067,0.848019921 8.26717005,0.30315688" id="Path" fill="#ED2012"></path>
                        <path d="M14.4491124,58.2593783 C14.4875586,58.1684082 14.5163922,58.0736692 14.5351434,57.976705 C14.584304,57.7636758 14.6457547,57.4891959 14.7194955,57.157362 C14.871074,56.4486304 15.129167,55.420355 15.415937,54.1544702 C17.0166596,47.5593821 19.2999225,41.1489465 22.2287734,35.0269098 C22.7900233,33.8511527 23.2570488,32.9089083 23.5888826,32.2575307 L23.9616837,31.507832 C24.0094251,31.4220394 24.0478787,31.3313989 24.0763917,31.2374488 C24.0137904,31.311436 23.9601606,31.3925684 23.9166198,31.479155 L23.5069483,32.2083702 C23.1464375,32.8433609 22.650735,33.7774118 22.0690015,34.9449755 C19.0382018,41.0386497 16.7455778,47.4723 15.2397783,54.1094064 C14.957105,55.3834846 14.7481725,56.4199534 14.6252711,57.1409752 C14.5720138,57.4728091 14.52695,57.7472889 14.4900795,57.9603181 C14.4656939,58.0582386 14.4519585,58.1585071 14.4491124,58.2593783 L14.4491124,58.2593783 Z" id="Path" fill="#263238"></path>
                        <path d="M8.38597478,14.1910194 C8.38773957,14.3420768 8.40143791,14.4927586 8.42694192,14.641658 C8.46381235,14.957105 8.51706964,15.38726 8.58261708,15.9280263 L9.20941441,20.6597317 C9.73789059,24.6540284 10.4671058,30.1682063 11.2331914,36.2682143 C11.9992771,42.3682223 12.6588481,47.8946903 13.1299703,51.8971805 C13.3675797,53.8758936 13.5601253,55.4899992 13.6994136,56.6329826 C13.7690578,57.1737489 13.822315,57.6039039 13.8632822,57.919351 C13.8776205,58.0697096 13.9022586,58.2189073 13.9370231,58.3658928 C13.9497562,58.2159498 13.9497562,58.0651973 13.9370231,57.9152542 C13.9083461,57.5957105 13.8714756,57.1655555 13.822315,56.6206924 C13.7035103,55.4736123 13.5396417,53.8595068 13.3389027,51.8726002 C12.9292313,47.8660133 12.2860471,42.3354486 11.5199614,36.2354406 C10.7538758,30.1354326 9.99598361,24.6212547 9.41425014,20.6310547 C9.11928669,18.660535 8.87758053,17.0546229 8.70961523,15.9157362 C8.61948751,15.3749699 8.54984336,14.9489116 8.50068279,14.6334645 C8.47646052,14.4827006 8.438054,14.3345611 8.38597478,14.1910194 Z" id="Path" fill="#263238"></path>
                        <rect id="Rectangle" fill="#263238" x="2.87999036" y="52.7247168" width="21.4094305" height="2.4989959"></rect>
                        <polygon id="Path" fill="#263238" points="4.86689694 55.2237127 7.37818299 70.3897502 20.6597317 70.3897502 22.3967387 55.2237127"></polygon>
                        <path d="M22.4663828,55.1212949 C22.4663828,55.1827456 18.5130533,55.27697 13.6338662,55.3384208 C8.75467909,55.3998715 4.80134951,55.3998715 4.80134951,55.3384208 C4.80134951,55.27697 8.75467909,55.1827456 13.6338662,55.1212949 C18.5130533,55.0598442 22.4663828,55.0639409 22.4663828,55.1212949 Z" id="Path" fill="#455A64"></path>
                        <path d="M21.7371676,62.712507 L21.6183629,62.712507 L21.2619488,62.712507 C20.8051578,62.7289792 20.3477747,62.7111769 19.8936461,62.6592497 C19.163879,62.58723 18.4659145,62.3244337 17.8698691,61.8972608 C17.4961132,61.627093 17.1937996,61.2699411 16.9890754,60.8566953 C16.7515912,60.3841462 16.7060837,59.8380564 16.8620773,59.3327175 C17.0459644,58.751644 17.5881678,58.3591286 18.1976062,58.3658928 C18.5133089,58.3917606 18.8068334,58.5385228 19.0169492,58.7755643 C19.2222585,59.024229 19.3629816,59.3197476 19.4266206,59.6358744 C19.6847136,60.9304362 18.775243,62.3724797 17.3782633,62.8231183 C15.9812836,63.2737569 14.2770504,62.4953812 13.5806089,61.0820146 C13.3987546,60.7252468 13.2927457,60.3346877 13.2692586,59.9349345 C13.2414766,59.5182082 13.3508242,59.1038381 13.5806089,58.7550807 C13.8258107,58.3972759 14.2146554,58.1639691 14.6457547,58.1159933 C15.0929652,58.0915008 15.5203707,58.3028722 15.7723512,58.6731464 C16.0203237,59.0233857 16.1482377,59.4444958 16.1369588,59.8734838 C16.1287328,60.2880611 16.0235038,60.6949467 15.8297052,61.061531 C15.4526343,61.770856 14.8542189,62.3376244 14.1254719,62.6756366 C13.4365506,63.0003991 12.6988151,63.2094011 11.941923,63.2942405 C11.213314,63.3994283 10.4702558,63.3349365 9.77066431,63.1057916 C9.09464228,62.8791019 8.51643894,62.4281033 8.13197847,61.8276167 C7.77031406,61.2491033 7.69189935,60.5373391 7.91894931,59.8939674 C8.11199062,59.2755952 8.6302543,58.8140412 9.26676842,58.69363 C9.85393356,58.6037002 10.4458602,58.8237358 10.8317134,59.2753635 C11.150485,59.7145565 11.2039088,60.2927911 10.9710017,60.7829545 C10.7807271,61.2074208 10.4665543,61.5644354 10.0697245,61.8071331 C9.7370408,62.0193763 9.38100997,62.1925805 9.0086754,62.3233191 C8.66864808,62.454414 8.35320106,62.5568319 8.06643104,62.6387662 C7.62912304,62.766511 7.18450405,62.8677473 6.7349988,62.941923 L6.38268134,62.9951803 L6.26387662,62.9951803 C6.26387662,62.9951803 6.30074705,62.9951803 6.37858463,62.9624066 L6.72680537,62.8927625 C7.02996225,62.827215 7.48060085,62.7247972 8.04594747,62.5486384 C8.32452406,62.4626074 8.63587437,62.3519961 8.97180496,62.2209013 C9.33459178,62.0872906 9.68095451,61.9127347 10.004177,61.7006185 C10.3672548,61.4614964 10.6521479,61.1210491 10.82352,60.7215037 C11.0344576,60.2787322 10.9840474,59.7557265 10.6924251,59.3613945 C10.3391399,58.9559235 9.80200183,58.760882 9.27086513,58.8452085 C8.69846206,58.9626889 8.23625911,59.3840167 8.06643104,59.943128 C7.85848773,60.535844 7.93398952,61.1911995 8.27126677,61.7211021 C8.63436256,62.2802686 9.17572236,62.7003638 9.80753474,62.913246 C10.479255,63.1275059 11.190878,63.1863409 11.8886658,63.0853081 C12.6211524,62.9998119 13.3349979,62.7964489 14.0025705,62.483091 C14.6907105,62.1617481 15.2557646,61.6254501 15.6125793,60.9550165 C16.0032811,60.2827496 15.9874892,59.4489419 15.5716122,58.7919512 C15.365074,58.4790876 15.0077545,58.2996477 14.6334645,58.320829 C14.2665084,58.3643385 13.9363398,58.5645312 13.7280906,58.8697887 C13.5231962,59.1794288 13.4266733,59.5482328 13.4536107,59.9185477 C13.4753065,60.2889834 13.5714454,60.6512457 13.736284,60.9836935 C14.3876617,62.3069323 15.9894771,63.0689212 17.2881356,62.6223793 C18.5867941,62.1758374 19.4471042,60.8485019 19.2094947,59.6604547 C19.1573804,59.3717968 19.0302209,59.1019361 18.8407904,58.8779822 C18.6641431,58.6670798 18.4103509,58.5357571 18.1361555,58.5133746 C17.5984884,58.506615 17.1188525,58.8501605 16.952205,59.3613945 C16.8026317,59.8298267 16.8408211,60.338039 17.0587196,60.7788577 C17.2471443,61.1744447 17.5282068,61.5187463 17.8780625,61.7825528 C18.4551858,62.2042263 19.1308249,62.4708146 19.8403888,62.5568319 C20.2900577,62.6152604 20.7429551,62.6453624 21.1964013,62.6469596 L21.5528155,62.6469596 L21.7371676,62.712507 Z" id="Path" fill="#455A64"></path>
                    </g>
                </g>
            </g>
        </g>
    </g>
</svg>