<svg xmlns="http://www.w3.org/2000/svg" width="60" height="60" viewBox="0 0 60 60">
    <g fill="none" fill-rule="evenodd">
        <g>
            <g>
                <path d="M0 0L60 0 60 60 0 60z" transform="translate(-960 -860) translate(960 860)"/>
                <path fill="#FFF" fill-rule="nonzero" d="M44.045 14.92l3.633-3.633 3.535 3.535-3.633 3.633c7.453 9.329 6.32 22.854-2.579 30.814-8.9 7.96-22.467 7.583-30.91-.86-8.443-8.443-8.82-22.01-.86-30.91 7.96-8.9 21.485-10.032 30.814-2.579zM30 50c6.252 0 12.03-3.335 15.155-8.75 3.127-5.415 3.127-12.085 0-17.5C42.03 18.335 36.252 15 30 15c-9.665 0-17.5 7.835-17.5 17.5S20.335 50 30 50zm-2.5-30h5v15h-5V20zM20 2.5h20v5H20v-5z" transform="translate(-960 -860) translate(960 860)"/>
            </g>
        </g>
    </g>
</svg>
