<svg xmlns="http://www.w3.org/2000/svg" width="60" height="60" viewBox="0 0 60 60">
    <g fill="none" fill-rule="evenodd">
        <g>
            <g>
                <path d="M0 0L60 0 60 60 0 60z" transform="translate(-80 -860) translate(80 860)"/>
                <path fill="#FFF" fill-rule="nonzero" d="M44.602 39.148l.44.442.445-.443c1.422-1.42 3.493-1.975 5.434-1.455 1.941.52 3.457 2.036 3.977 3.977.52 1.941-.034 4.012-1.456 5.434l-8.4 8.397-8.395-8.398c-2.196-2.196-2.196-5.758 0-7.954 2.197-2.197 5.759-2.197 7.956 0zM30 35v5c-8.284 0-15 6.716-15 15h-5c0-10.802 8.578-19.652 19.375-19.99L30 35zm0-32.5c8.288 0 15 6.713 15 15 .003 8.067-6.376 14.69-14.438 14.99L30 32.5c-8.288 0-15-6.712-15-15-.003-8.067 6.376-14.69 14.438-14.99L30 2.5zm0 5c-5.525 0-10 4.475-10 10s4.475 10 10 10 10-4.475 10-10-4.475-10-10-10z" transform="translate(-80 -860) translate(80 860)"/>
            </g>
        </g>
    </g>
</svg>
