<?xml version="1.0" encoding="UTF-8"?>
<svg width="177px" height="181px" viewBox="0 0 177 181" version="1.1" xmlns="http://www.w3.org/2000/svg" xmlns:xlink="http://www.w3.org/1999/xlink">
    <title>44A29CCD-C87F-47D8-8493-77439914288D</title>
    <g id="Webpages" stroke="none" stroke-width="1" fill="none" fill-rule="evenodd">
        <g id="CREDITS---Mobile" transform="translate(-99.000000, -144.000000)" fill-rule="nonzero">
            <g id="Notebook-pana" transform="translate(99.858079, 144.000000)">
                <g id="freepik--background-complete--inject-423" transform="translate(0.000000, 3.467624)">
                    <path d="M3.46762399,79.8593804 L32.2879138,76.8035368 L29.1410451,48.8068076 L0.307751629,51.5809068 L0.697859327,53.7481718 L1.56476532,53.4404202 C2.13258875,53.414413 2.38832602,53.782848 2.47068209,54.3463369 C2.46856284,54.3577985 2.46856284,54.3695516 2.47068209,54.3810132 C2.53570004,54.9531711 2.40132961,55.4863183 1.83784071,55.6076851 L0.754208217,55.5426672 L0.975269246,57.5105438 C0.975269246,57.5105438 2.88679697,57.0770908 2.9778221,58.2907592 C2.9778221,58.2907592 2.8911315,59.417737 1.17465763,59.2963702 L1.35670788,60.9348225 C1.35670788,60.9348225 3.26823561,60.4146789 3.37659886,61.6760271 C3.46762399,62.746656 2.35364978,62.8290121 1.57343438,62.8593538 L1.76848823,64.5931658 C1.76848823,64.5931658 3.6713469,64.1987236 3.64533972,65.494748 C3.61933254,66.7907725 1.98954926,66.5437043 1.98954926,66.5437043 L2.23661747,68.7499801 C2.23661747,68.7499801 3.99643664,67.9784337 4.14381066,69.2961308 C4.29118468,70.6138279 2.87379338,70.5141338 2.40999867,70.410105 L2.59638346,72.0875681 C2.59638346,72.0875681 4.3952134,71.3160218 4.47756947,73.0064885 C4.53825289,74.2765058 2.78710278,73.7563622 2.78710278,73.7563622 L3.04717458,76.0926738 C3.04717458,76.0926738 4.81132828,75.3428002 4.95003324,76.5998139 C5.04972743,77.492727 3.97042946,77.9001728 3.21622125,77.492727 L3.46762399,79.8593804 Z" id="Path" fill="#FFFFFF"></path>
                    <polygon id="Rectangle" fill="#E0E0E0" transform="translate(16.562593, 49.448141) rotate(-2.080000) translate(-16.562593, -49.448141) " points="7.91737297 47.0814875 25.2078131 47.0814875 25.2078131 51.8147942 7.91737297 51.8147942"></polygon>
                    <path d="M25.6257413,56.1668395 C25.3918566,56.2176318 25.1540149,56.2480872 24.9148783,56.2578646 L22.9730089,56.4139077 C21.3345566,56.5352746 19.0719319,56.6869831 16.5709081,56.8473607 C14.0698843,57.0077383 11.8029251,57.1291052 10.1601383,57.2114612 L8.21393432,57.2938173 C7.97751477,57.3163307 7.73949095,57.3163307 7.5030714,57.2938173 C7.7362279,57.2482075 7.97233298,57.2192375 8.20959979,57.2071267 L10.1514692,57.0510836 C11.7899216,56.9297168 14.0525462,56.7780082 16.5579045,56.6176306 C19.0632629,56.457253 21.3258875,56.3358862 22.9643398,56.2535301 L24.9105438,56.171174 C25.1484982,56.1518258 25.3875698,56.1503768 25.6257413,56.1668395 L25.6257413,56.1668395 Z" id="Path" fill="#E0E0E0"></path>
                    <path d="M26.3149315,59.6778088 C26.0811301,59.7290828 25.843246,59.7595436 25.6040686,59.7688339 L23.6621992,59.9205425 C22.0237468,60.0462439 19.7611222,60.1979524 17.2600984,60.3539955 C14.7590746,60.5100386 12.4921154,60.6357399 10.8493285,60.718096 L8.90745911,60.8004521 C8.669467,60.8201536 8.43025378,60.8201536 8.19226167,60.8004521 C8.42497034,60.7520774 8.66128937,60.7230812 8.89879005,60.7137615 L10.8406595,60.5577184 C12.4791118,60.4363515 14.7417365,60.2803085 17.2470948,60.1242654 C19.7524531,59.9682223 22.0150778,59.8381864 23.6535301,59.7601649 L25.5997341,59.6734743 C25.8379382,59.6580859 26.0769315,59.6595343 26.3149315,59.6778088 Z" id="Path" fill="#E0E0E0"></path>
                    <path d="M26.5619997,63.2841377 C26.3288432,63.3297476 26.0927382,63.3587175 25.8554713,63.3708283 L23.9136019,63.5268714 C22.2751496,63.6482383 20.0125249,63.7999468 17.5115011,63.9603244 C15.0104773,64.120702 12.7435181,64.2420689 11.1007313,64.3244249 L9.15452732,64.4111155 C8.91787762,64.428107 8.68031411,64.428107 8.44366441,64.4111155 C8.67595041,64.3595491 8.91242188,64.3290835 9.15019279,64.3200904 L11.0920622,64.1640473 C12.7305146,64.0426805 14.9931392,63.8909719 17.494163,63.7305943 C19.9951868,63.5702167 22.262146,63.4488499 23.9049329,63.3664938 L25.8511368,63.2841377 C26.0875501,63.2614928 26.3255865,63.2614928 26.5619997,63.2841377 L26.5619997,63.2841377 Z" id="Path" fill="#E0E0E0"></path>
                    <path d="M27.0041218,66.8861322 C26.7703596,66.9369582 26.5323848,66.9659796 26.2932589,66.9728228 L24.355724,67.1288658 C22.7172716,67.2545672 20.454647,67.4062758 17.9492887,67.5623188 C15.4439303,67.7183619 13.1813057,67.8440633 11.5385188,67.9220848 L9.59664938,68.0087754 C9.35865727,68.0284769 9.11944405,68.0284769 8.88145193,68.0087754 C9.11377806,67.9581169 9.35029868,67.9290959 9.58798032,67.9220848 L11.5298498,67.7660417 C13.1683021,67.6446749 15.4309267,67.4886318 17.9362851,67.3325888 C20.4416434,67.1765457 22.704268,67.0465098 24.3427204,66.9684882 L26.2889243,66.8817976 C26.5271284,66.8664092 26.7661217,66.8678577 27.0041218,66.8861322 Z" id="Path" fill="#E0E0E0"></path>
                    <path d="M28.0053982,70.769871 C27.771636,70.8206971 27.5336612,70.8497184 27.2945353,70.8565616 L25.3570004,71.0126047 C23.7185481,71.1339715 21.4559234,71.2900146 18.9505651,71.4460577 C16.4452068,71.6021008 14.1825821,71.7321367 12.5397952,71.8101582 L10.5979258,71.8968488 C10.3598273,71.9137815 10.1208268,71.9137815 9.88272836,71.8968488 C10.1164905,71.8460228 10.3544653,71.8170014 10.5935913,71.8101582 L12.5311262,71.6541151 C14.1695785,71.5284138 16.4322032,71.3767052 18.9375615,71.2206621 C21.4429198,71.0646191 23.7055445,70.9389177 25.3483313,70.8565616 L27.2902008,70.7742056 C27.5280735,70.7530613 27.7672867,70.7516115 28.0053982,70.769871 L28.0053982,70.769871 Z" id="Path" fill="#E0E0E0"></path>
                    <path d="M22.6262465,4.481904 L22.4441963,33.4625715 L50.6186411,33.4625715 L51.0824358,4.481904 L48.8804946,4.62927802 L49.0885521,5.49618402 C49.0495413,6.06834198 48.6550991,6.28073394 48.0872756,6.29807206 L48.0525994,6.29807206 C47.4761069,6.29807206 46.9602978,6.10735275 46.9039489,5.53519479 L47.0903337,4.46023135 L45.1094535,4.46023135 C45.1094535,4.46023135 45.3305146,6.41076984 44.1081771,6.36309001 C44.1081771,6.36309001 42.9985374,6.15503258 43.3149581,4.46023135 L41.6635022,4.46023135 C41.6635022,4.46023135 41.9669193,6.4194389 40.7012365,6.38476266 C39.6262731,6.35442095 39.6739529,5.24044675 39.7259673,4.46023135 L37.9921553,4.46023135 C37.9921553,4.46023135 38.169871,6.39343172 36.8868502,6.22438506 C35.6038293,6.05533839 36.0199442,4.46023135 36.0199442,4.46023135 L33.8093339,4.46023135 C33.8093339,4.46023135 34.3771573,6.29373753 33.0551256,6.29373753 C31.733094,6.29373753 31.9844967,4.89801888 32.1405398,4.46023135 L30.4500731,4.46023135 C30.4500731,4.46023135 31.013562,6.32841377 29.3274299,6.22438506 C28.0574126,6.14636352 28.7682755,4.46023135 28.7682755,4.46023135 L26.4189602,4.46023135 C26.4189602,4.46023135 26.9694456,6.29373753 25.7037628,6.29373753 C24.8021806,6.29373753 24.4987635,5.1754288 25.010238,4.46023135 L22.6262465,4.481904 Z" id="Path" fill="#FFFFFF"></path>
                    <polygon id="Rectangle" fill="#EBEBEB" transform="translate(24.393233, 5.872824) rotate(-35.570000) translate(-24.393233, -5.872824) " points="17.5099994 3.98947027 31.2764666 3.98947027 31.2764666 7.75617682 17.5099994 7.75617682"></polygon>
                    <polygon id="Rectangle" fill="#EBEBEB" transform="translate(49.505879, 32.400507) rotate(-35.570000) translate(-49.505879, -32.400507) " points="42.6226452 30.5171542 56.3891124 30.5171542 56.3891124 34.2838607 42.6226452 34.2838607"></polygon>
                    <path d="M48.1132828,12.136684 C48.0400638,12.148429 47.9654408,12.148429 47.8922218,12.136684 L47.2593804,12.136684 L44.9404069,12.1756947 C42.9811993,12.1756947 40.2721181,12.2060364 37.2856269,12.2060364 C34.2991358,12.2060364 31.58572,12.2060364 29.6265124,12.1756947 L27.3075389,12.1800293 L26.6746975,12.1800293 C26.6029573,12.192073 26.5297112,12.192073 26.457971,12.1800293 C26.5299288,12.1709634 26.6027398,12.1709634 26.6746975,12.1800293 L27.3075389,12.1800293 L29.6265124,12.145353 C31.58572,12.145353 34.2948012,12.1106768 37.2856269,12.1106768 C40.2764526,12.1106768 42.9811993,12.1106768 44.9404069,12.145353 L47.2593804,12.1800293 L47.8922218,12.1800293 C47.9638298,12.1564833 48.0380853,12.1419234 48.1132828,12.136684 Z" id="Path" fill="#E0E0E0"></path>
                    <path d="M47.5888047,17.3381199 C47.5199847,17.3502738 47.4495672,17.3502738 47.3807472,17.3381199 L46.7782476,17.3381199 L44.5633028,17.3727962 C42.6951203,17.3944688 40.1117405,17.4074724 37.2552852,17.4074724 C34.3988299,17.4074724 31.8197846,17.4074724 29.9516022,17.3727962 L27.7409919,17.3944688 L27.1384922,17.3944688 C27.0681935,17.4063515 26.996399,17.4063515 26.9261003,17.3944688 C26.996399,17.3825862 27.0681935,17.3825862 27.1384922,17.3944688 L27.7409919,17.3944688 L29.9559367,17.3597926 C31.8241191,17.3597926 34.407499,17.3251163 37.2596197,17.3251163 C40.1117405,17.3251163 42.6994549,17.3251163 44.5676373,17.3597926 L46.7825821,17.3944688 L47.3850818,17.3944688 C47.449106,17.3637415 47.5180905,17.3446607 47.5888047,17.3381199 L47.5888047,17.3381199 Z" id="Path" fill="#E0E0E0"></path>
                    <path d="M37.7537561,22.3835128 C37.2508074,22.4485965 36.7437092,22.4761247 36.2366707,22.4658689 C35.3004122,22.4658689 34.0087222,22.4962106 32.5826619,22.4962106 C31.1566015,22.4962106 29.8605771,22.4962106 28.9286531,22.4658689 C28.4216145,22.4761247 27.9145163,22.4485965 27.4115676,22.3835128 C27.9147711,22.3215443 28.4217473,22.2954713 28.9286531,22.3054913 C29.8605771,22.3054913 31.1566015,22.2708151 32.5826619,22.2708151 C34.0087222,22.2708151 35.3004122,22.2708151 36.2366707,22.3054913 C36.7435765,22.2954713 37.2505526,22.3215443 37.7537561,22.3835128 L37.7537561,22.3835128 Z" id="Path" fill="#E0E0E0"></path>
                </g>
                <g id="freepik--Notebook--inject-423" transform="translate(53.748172, 0.000000)">
                    <path d="M96.4779684,140.521128 L2.70474671,128.596836 L19.0372557,0.151708549 L115.142454,12.3750831 C116.192175,12.5079481 116.935436,13.4666192 116.802579,14.5163409 L101.245951,136.828108 C101.10433,137.950525 100.522146,138.970543 99.6277402,139.663301 C98.7333339,140.35606 97.6001401,140.66468 96.4779684,140.521128 Z" id="Path" fill="#455A64"></path>
                    <polygon id="Rectangle" fill="#FF725E" transform="translate(114.362292, 37.765716) rotate(-82.750000) translate(-114.362292, -37.765716) " points="111.213256 31.9054311 117.511328 31.9054311 117.511328 43.6260002 111.213256 43.6260002"></polygon>
                    <polygon id="Rectangle" fill="#000000" opacity="0.3" transform="translate(114.362292, 37.765716) rotate(-82.750000) translate(-114.362292, -37.765716) " points="111.213256 31.9054311 117.511328 31.9054311 117.511328 43.6260002 111.213256 43.6260002"></polygon>
                    <polygon id="Rectangle" fill="#E0E0E0" transform="translate(60.209476, 70.980495) rotate(7.250000) translate(-60.209476, -70.980495) " points="14.5018573 9.41716587 105.917095 9.41716587 105.917095 132.543825 14.5018573 132.543825"></polygon>
                    <polygon id="Rectangle" fill="#FFFFFF" transform="translate(56.358410, 68.971487) rotate(7.250000) translate(-56.358410, -68.971487) " points="10.6507909 7.40815815 102.066028 7.40815815 102.066028 130.534817 10.6507909 130.534817"></polygon>
                    <polygon id="Rectangle" fill="#E0E0E0" transform="translate(65.352131, 19.967871) rotate(-82.750000) translate(-65.352131, -19.967871) " points="65.1354046 -25.5793699 65.5688576 -25.5793699 65.5688576 65.5151122 65.1354046 65.5151122"></polygon>
                    <polygon id="Rectangle" fill="#E0E0E0" transform="translate(65.147280, 26.116177) rotate(-82.750000) translate(-65.147280, -26.116177) " points="64.9305533 -19.4310638 65.3640063 -19.4310638 65.3640063 71.6634183 64.9305533 71.6634183"></polygon>
                    <polygon id="Rectangle" fill="#E0E0E0" transform="translate(64.377153, 32.186720) rotate(-82.750000) translate(-64.377153, -32.186720) " points="64.1604266 -13.3605206 64.5938796 -13.3605206 64.5938796 77.7339615 64.1604266 77.7339615"></polygon>
                    <polygon id="Rectangle" fill="#E0E0E0" transform="translate(64.004667, 38.759844) rotate(-82.519114) translate(-64.004667, -38.759844) " points="63.7953006 -6.71902498 64.2140328 -6.71902498 64.2140328 84.2387128 63.7953006 84.2387128"></polygon>
                    <polygon id="Rectangle" fill="#E0E0E0" transform="translate(63.215132, 44.855710) rotate(-82.519114) translate(-63.215132, -44.855710) " points="63.0057659 -0.623158734 63.4244981 -0.623158734 63.4244981 90.334579 63.0057659 90.334579"></polygon>
                    <polygon id="Rectangle" fill="#E0E0E0" transform="translate(62.425597, 50.947242) rotate(-82.519114) translate(-62.425597, -50.947242) " points="62.2162313 5.46837298 62.6349635 5.46837298 62.6349635 96.4261107 62.2162313 96.4261107"></polygon>
                    <polygon id="Rectangle" fill="#E0E0E0" transform="translate(61.640397, 57.043108) rotate(-82.519114) translate(-61.640397, -57.043108) " points="61.4310312 11.5642392 61.8497634 11.5642392 61.8497634 102.521977 61.4310312 102.521977"></polygon>
                    <polygon id="Rectangle" fill="#E0E0E0" transform="translate(60.513142, 62.554005) rotate(-82.750000) translate(-60.513142, -62.554005) " points="60.2964159 17.0067638 60.7298689 17.0067638 60.7298689 108.101246 60.2964159 108.101246"></polygon>
                    <polygon id="Rectangle" fill="#E0E0E0" transform="translate(59.743016, 68.628883) rotate(-82.750000) translate(-59.743016, -68.628883) " points="59.5262892 23.0816416 59.9597422 23.0816416 59.9597422 114.176124 59.5262892 114.176124"></polygon>
                    <polygon id="Rectangle" fill="#E0E0E0" transform="translate(59.279856, 75.331227) rotate(-82.519114) translate(-59.279856, -75.331227) " points="59.0704895 29.8523581 59.4892217 29.8523581 59.4892217 120.810096 59.0704895 120.810096"></polygon>
                    <polygon id="Rectangle" fill="#E0E0E0" transform="translate(58.490321, 81.422759) rotate(-82.519114) translate(-58.490321, -81.422759) " points="58.2809549 35.9438898 58.6996871 35.9438898 58.6996871 126.901628 58.2809549 126.901628"></polygon>
                    <polygon id="Rectangle" fill="#E0E0E0" transform="translate(57.700786, 87.518625) rotate(-82.519114) translate(-57.700786, -87.518625) " points="57.4914202 42.039756 57.9101524 42.039756 57.9101524 132.997494 57.4914202 132.997494"></polygon>
                    <polygon id="Rectangle" fill="#E0E0E0" transform="translate(56.915023, 93.618782) rotate(-82.519114) translate(-56.915023, -93.618782) " points="56.7056566 48.1399135 57.1243888 48.1399135 57.1243888 139.097651 56.7056566 139.097651"></polygon>
                    <line x1="10.6932855" y1="93.244409" x2="101.059567" y2="104.735248" id="Path" fill="#455A64"></line>
                    <polygon id="Rectangle" fill="#E0E0E0" transform="translate(55.340245, 105.806744) rotate(-82.519114) translate(-55.340245, -105.806744) " points="55.1308786 60.3278749 55.5496107 60.3278749 55.5496107 151.285613 55.1308786 151.285613"></polygon>
                    <polygon id="Rectangle" fill="#E0E0E0" transform="translate(54.555045, 111.902610) rotate(-82.519114) translate(-54.555045, -111.902610) " points="54.3456785 66.4237411 54.7644106 66.4237411 54.7644106 157.381479 54.3456785 157.381479"></polygon>
                    <polygon id="Rectangle" fill="#E0E0E0" transform="translate(53.765510, 117.994142) rotate(-82.519114) translate(-53.765510, -117.994142) " points="53.5561438 72.5152729 53.974876 72.5152729 53.974876 163.473011 53.5561438 163.473011"></polygon>
                    <polygon id="Rectangle" fill="#E0E0E0" transform="translate(52.789386, 123.294002) rotate(-82.750000) translate(-52.789386, -123.294002) " points="52.5726597 77.7467612 53.0061127 77.7467612 53.0061127 168.841243 52.5726597 168.841243"></polygon>
                    <polygon id="Rectangle" fill="#FF725E" transform="translate(25.430080, 65.467680) rotate(-82.710000) translate(-25.430080, -65.467680) " points="-35.9208569 65.2509538 86.7810178 65.2509538 86.7810178 65.6844068 -35.9208569 65.6844068"></polygon>
                    <path d="M26.6833666,9.66600186 C26.5533063,10.6842484 25.6227399,11.404491 24.6044108,11.2750781 C23.5860818,11.1456653 22.8652478,10.2155569 22.9940132,9.19714575 C23.1227787,8.17873462 24.0524286,7.45730947 25.0709214,7.58542747 C25.5608485,7.64705627 26.0061457,7.90101835 26.3086263,8.29131589 C26.6111069,8.68161344 26.7459296,9.17619318 26.6833666,9.66600186 Z" id="Path" fill="#455A64"></path>
                    <path d="M24.9582236,23.2157426 C24.8643807,23.9624314 24.3297278,24.5789389 23.6038302,24.7774918 C22.8779326,24.9760447 22.1039265,24.7174913 21.6431026,24.1225191 C21.1822786,23.5275469 21.1255044,22.7134757 21.4992811,22.0602976 C21.8730577,21.4071195 22.6036819,21.0436316 23.350113,21.1395027 C24.3654936,21.2723093 25.0835637,22.1994133 24.9582236,23.2157426 L24.9582236,23.2157426 Z" id="Path" fill="#455A64"></path>
                    <path d="M23.2330807,36.7698178 C23.1007328,37.7847091 22.1714746,38.5006915 21.156383,38.3698885 C20.1412915,38.2390856 19.4238955,37.3109183 19.5531531,36.2956288 C19.6824108,35.2803394 20.609485,34.5615314 21.6249701,34.6892435 C22.114605,34.7508222 22.5595277,35.0049471 22.8613185,35.3954041 C23.1631092,35.7858611 23.2968947,36.2804692 23.2330807,36.7698178 Z" id="Path" fill="#455A64"></path>
                    <path d="M21.5122723,50.3195586 C21.4186916,51.065936 20.8846529,51.6824158 20.1592435,51.8814582 C19.4338342,52.0805006 18.6599583,51.8228946 18.1985686,51.2287935 C17.737179,50.6346923 17.6791684,49.8211325 18.0515942,49.1675764 C18.42402,48.5140203 19.1535153,48.1492169 19.8998272,48.2433187 C20.9169602,48.3739674 21.6374869,49.3017423 21.5122723,50.3195586 L21.5122723,50.3195586 Z" id="Path" fill="#455A64"></path>
                    <path d="M19.7871294,63.8736338 C19.6932865,64.6203226 19.1586336,65.2368301 18.4327359,65.435383 C17.7068383,65.6339359 16.9328323,65.3753825 16.4720083,64.7804103 C16.0111843,64.1854382 15.9544101,63.371367 16.3281868,62.7181888 C16.7019634,62.0650107 17.4325877,61.7015228 18.1790187,61.797394 C18.6678003,61.8590141 19.1120007,62.1125173 19.4136701,62.5020042 C19.7153395,62.8914911 19.8497019,63.3849732 19.7871294,63.8736338 L19.7871294,63.8736338 Z" id="Path" fill="#455A64"></path>
                    <path d="M18.0619864,77.4277091 C17.9296385,78.4426003 17.0003803,79.1585827 15.9852888,79.0277798 C14.9701972,78.8969769 14.2528012,77.9688095 14.3820589,76.9535201 C14.5113165,75.9382306 15.4383908,75.2194226 16.4538758,75.3471347 C16.9435108,75.4087134 17.3884335,75.6628383 17.6902242,76.0532953 C17.992015,76.4437524 18.1258004,76.9383604 18.0619864,77.4277091 Z" id="Path" fill="#455A64"></path>
                    <path d="M16.341178,90.9774498 C16.2470688,91.7244485 15.7117994,92.3409799 14.9854139,92.5390396 C14.2590283,92.7370992 13.4848951,92.4775955 13.0246405,91.8817523 C12.5643858,91.285909 12.5088511,90.4713292 12.8839788,89.8185331 C13.2591066,89.165737 13.9908568,88.8035685 14.7374019,88.9012099 C15.7523059,89.0339503 16.4691165,89.9619294 16.341178,90.9774498 Z" id="Path" fill="#455A64"></path>
                    <path d="M14.6160351,104.531525 C14.5205221,105.277558 13.9850042,105.89259 13.2592034,106.089821 C12.5334025,106.287053 11.7602601,106.02764 11.3003065,105.432552 C10.8403529,104.837464 10.784173,104.023899 11.1579643,103.371237 C11.5317556,102.718576 12.2619026,102.355355 13.0079245,102.450951 C13.4975594,102.512529 13.9424821,102.766654 14.2442729,103.157111 C14.5460636,103.547568 14.6798491,104.042176 14.6160351,104.531525 L14.6160351,104.531525 Z" id="Path" fill="#455A64"></path>
                    <path d="M12.8952267,118.081266 C12.801646,118.827643 12.2676073,119.444123 11.5421979,119.643165 C10.8167886,119.842208 10.0429127,119.584602 9.58152302,118.990501 C9.12013339,118.3964 9.06212277,117.58284 9.43454859,116.929284 C9.80697442,116.275728 10.5364697,115.910924 11.2827815,116.005026 C12.2999146,116.135675 13.0204413,117.063449 12.8952267,118.081266 L12.8952267,118.081266 Z" id="Path" fill="#455A64"></path>
                    <path d="M17.4768249,15.0451536 C17.4768249,15.0668262 17.4031379,15.0668262 17.273102,15.0451536 C17.0824115,15.0141249 16.8951593,14.9647716 16.7139476,14.8977796 C16.4244964,14.7836417 16.148346,14.6382994 15.8903869,14.4643266 C15.5465119,14.2295579 15.2396984,13.9446597 14.9801356,13.6190932 C14.6710059,13.2180299 14.4307706,12.768321 14.2692727,12.2883925 C14.0859134,11.7390293 13.990818,11.1640679 13.9875283,10.5849222 C13.9629066,9.92572429 14.096681,9.27022983 14.377636,8.6733945 C14.7078162,8.04509813 15.1907697,7.50997378 15.7820237,7.11729823 C16.3614892,6.72725779 17.0176773,6.4656693 17.706555,6.35008642 C18.3394813,6.24601407 18.9851564,6.24601407 19.6180827,6.35008642 C20.6682011,6.53460909 21.6696561,6.93135634 22.5612286,7.51607499 C23.1517564,7.89422213 23.7034768,8.32979091 24.20835,8.81643398 C24.5594469,9.16319638 24.7284936,9.37992288 24.6981518,9.41459912 C24.6678101,9.44927536 24.43808,9.30190134 24.0393033,9.02015689 C23.4815602,8.62229176 22.9027839,8.25476879 22.3054913,7.91918628 C21.4439068,7.42978667 20.4987924,7.10494952 19.5183885,6.96125515 C18.9522106,6.88426634 18.377494,6.89596541 17.8149182,6.99593139 C17.2191775,7.10334998 16.6523285,7.33363237 16.1504587,7.67211807 C15.6528962,8.00303872 15.2425104,8.4491103 14.9541284,8.97247706 C14.7160248,9.47473605 14.5959313,10.0247936 14.6030315,10.5805877 C14.5942066,11.0973394 14.6598998,11.6126658 14.7980854,12.1106768 C14.9201965,12.5432114 15.1088356,12.954123 15.3572397,13.3286797 C15.5701634,13.6361068 15.8238889,13.9131635 16.1114479,14.1522404 C16.3321461,14.3359004 16.568566,14.4997989 16.8179763,14.6420423 C17.0216992,14.7634091 17.1950804,14.8284271 17.3077782,14.8977796 C17.420476,14.967132 17.485494,15.0234809 17.4768249,15.0451536 Z" id="Path" fill="#FF725E"></path>
                    <path d="M15.7560165,28.6078979 C15.7560165,28.6339051 15.6779949,28.6078979 15.547959,28.6078979 C15.3573482,28.5744396 15.1701875,28.5236596 14.9888047,28.4561893 C14.6995601,28.3445858 14.4245658,28.1990862 14.1695785,28.0227363 C13.8229233,27.7932003 13.5155592,27.5092544 13.2593272,27.1818375 C12.9470051,26.7828455 12.7064656,26.3325674 12.5484643,25.8511368 C12.3651505,25.30027 12.2700624,24.7238896 12.2667199,24.143332 C12.2386888,23.4843232 12.3710712,22.8283611 12.652493,22.2318043 C12.985376,21.6065696 13.4678547,21.0734605 14.0568807,20.6800425 C14.6372715,20.2878985 15.2950194,20.0247993 15.9857466,19.9084962 C16.6186665,19.8043462 17.2643544,19.8043462 17.8972743,19.9084962 C18.9465908,20.0910928 19.9470085,20.4880136 20.8360856,21.0744848 C21.4266134,21.4526319 21.9783339,21.8882007 22.483207,22.3748438 C22.8386385,22.7216062 23.0076851,22.9383327 22.9773434,22.9730089 C22.9470017,23.0076851 22.7172716,22.8559766 22.3141604,22.5785667 C21.7576784,22.1788322 21.1787964,21.8112421 20.5803484,21.4775961 C19.7187779,20.987327 18.7737715,20.6610572 17.7932456,20.5153304 C17.2256204,20.438312 16.6494718,20.4500104 16.0854408,20.5500066 C15.4945214,20.6629406 14.933582,20.8976495 14.4383194,21.2391969 C13.9407569,21.5701176 13.530371,22.0161891 13.2419891,22.5395559 C13.0027067,23.041412 12.8825525,23.5917474 12.8908922,24.1476665 C12.8788783,24.6657261 12.9431394,25.1827351 13.0816115,25.6820901 C13.2030865,26.1156164 13.3933341,26.5268439 13.6451004,26.9000931 C13.8541883,27.2079455 14.106769,27.4838862 14.3949741,27.7193192 C14.6152539,27.9035288 14.8517243,28.0674623 15.1015025,28.2091211 C15.3052254,28.3348225 15.4829411,28.3998404 15.5913043,28.4691929 C15.6996676,28.5385454 15.760351,28.5732216 15.7560165,28.6078979 Z" id="Path" fill="#FF725E"></path>
                    <path d="M14.0308736,42.1489696 C14.0308736,42.1489696 13.952852,42.1489696 13.8228161,42.1489696 C13.6336723,42.1173132 13.4479176,42.0679721 13.2679963,42.0015955 C12.5862842,41.7441655 11.9871007,41.3067616 11.5341843,40.7359128 C11.2227391,40.334755 10.9823084,39.8832143 10.8233214,39.4008775 C10.6399621,38.8515144 10.5448667,38.2765529 10.5415769,37.6974073 C10.5169552,37.0382093 10.6507296,36.3827149 10.9316846,35.7858795 C11.259228,35.1582697 11.7410143,34.6242774 12.3317378,34.2341178 C12.9128797,33.8433929 13.5703113,33.5804202 14.2606036,33.4625715 C14.8935299,33.3584991 15.5392051,33.3584991 16.1721314,33.4625715 C17.2231135,33.6465176 18.2249636,34.0448968 19.1152772,34.6328946 C19.7045957,35.0108595 20.2548953,35.4464528 20.7580641,35.9332536 C21.1134955,36.2756814 21.2825422,36.4924079 21.2522005,36.5270842 C21.2218588,36.5617604 20.9921287,36.4143864 20.5933519,36.1326419 C20.0347098,35.7374461 19.4559993,35.3714117 18.85954,35.0360059 C17.9991086,34.5432238 17.0536171,34.2167866 16.0724372,34.0737402 C15.5062634,33.9966806 14.9315357,34.0083799 14.3689669,34.1084164 C13.7732261,34.215835 13.2063771,34.4461174 12.7045074,34.7846031 C12.2069449,35.1155238 11.796559,35.5615953 11.5081771,36.0849621 C11.2700734,36.5872211 11.14998,37.1372787 11.1570802,37.6930727 C11.1439726,38.2100507 11.209746,38.7260062 11.352134,39.2231618 C11.4721956,39.6564482 11.6609781,40.0676723 11.9112884,40.4411647 C12.1228785,40.7483124 12.3751337,41.0253557 12.6611621,41.2647254 C12.8833485,41.4464195 13.1195991,41.6102006 13.3676905,41.7545273 C13.5757479,41.8758942 13.7491291,41.9452466 13.8574924,42.0145991 C13.9658556,42.0839516 14.0395426,42.1272969 14.0308736,42.1489696 Z" id="Path" fill="#FF725E"></path>
                    <path d="M12.3057306,55.7030448 C12.3057306,55.7247175 12.2320436,55.7247175 12.1020077,55.7030448 C11.9112781,55.6701209 11.7240686,55.6193276 11.5428533,55.5513363 C11.2527908,55.4415358 10.9775839,55.2959237 10.7236272,55.1178833 C10.3764827,54.8873708 10.0678347,54.6035901 9.80904135,54.2769844 C9.49991168,53.8759212 9.25967629,53.4262122 9.09817843,52.9462837 C8.91865777,52.3944858 8.82366769,51.8186998 8.81643398,51.2384789 C8.79248617,50.5793365 8.92622843,49.9239995 9.20654168,49.3269512 C9.53942469,48.7017166 10.0219033,48.1686075 10.6109294,47.7751895 C11.1894381,47.3833404 11.8460332,47.1215897 12.5354607,47.0079777 C13.168387,46.9039053 13.8140622,46.9039053 14.4469884,47.0079777 C15.4978794,47.1897612 16.4998748,47.5867225 17.3901343,48.1739662 C17.9806621,48.5521134 18.5323826,48.9876821 19.0372557,49.4743252 C19.3883526,49.8210876 19.5573993,50.0378141 19.5313921,50.0724904 C19.5053849,50.1071666 19.2669858,49.9597926 18.868209,49.6780481 C18.3110451,49.2793237 17.732221,48.9117704 17.134397,48.5770775 C16.2719663,48.0887123 15.3273225,47.7625678 14.3472942,47.6148119 C13.7795452,47.5399892 13.2037332,47.5516808 12.6394894,47.6494881 C12.0440495,47.7603876 11.4776069,47.99198 10.9750299,48.3300093 C9.97532154,48.9501113 9.38472443,50.0585149 9.42760271,51.2341444 C9.41908187,51.7523053 9.48476578,52.2690187 9.62265656,52.768568 C9.74476769,53.2011026 9.93340685,53.6120142 10.1818109,53.9865709 C10.3936174,54.2936115 10.6475002,54.5693807 10.9360191,54.8057971 C11.1562989,54.9900067 11.3927694,55.1539402 11.6425475,55.295599 C11.8462704,55.4213004 12.0196516,55.4863183 12.1323494,55.5556708 C12.2450472,55.6250233 12.3143997,55.6770376 12.3057306,55.7030448 Z" id="Path" fill="#FF725E"></path>
                    <path d="M10.5849222,69.2527855 C10.5849222,69.2527855 10.5069007,69.2527855 10.3768648,69.2527855 C10.1867296,69.217221 9.99974733,69.1664894 9.81771041,69.101077 C9.52928526,68.9876822 9.25449148,68.8422886 8.99848424,68.667624 C8.65182903,68.4380879 8.34446495,68.154142 8.08823295,67.8267252 C7.7759141,67.4261339 7.53539934,66.9744354 7.37737003,66.4916899 C7.19401073,65.9423268 7.09891533,65.3673653 7.09562558,64.7882197 C7.07148853,64.1295222 7.20368687,63.474472 7.48139875,62.8766919 C7.81308441,62.2506171 8.29580523,61.7172404 8.88578646,61.3249302 C9.46655504,60.9334995 10.1241436,60.6704641 10.8146523,60.5533839 C11.4475722,60.4492338 12.0932601,60.4492338 12.72618,60.5533839 C13.7754965,60.7359804 14.7759142,61.1329013 15.6649914,61.7193724 C16.2555192,62.0975196 16.8072396,62.5330883 17.3121128,63.0197314 C17.6675442,63.3664938 17.8365909,63.5832203 17.8062492,63.613562 C17.7759075,63.6439037 17.5461774,63.5008642 17.1474006,63.2234543 C16.59004,62.8250216 16.0112322,62.4574787 15.4135886,62.1224837 C14.5520182,61.6322146 13.6070118,61.3059449 12.6264858,61.1602181 C12.060312,61.0831585 11.4855844,61.0948578 10.9230156,61.1948943 C10.3272748,61.3023129 9.76042581,61.5325953 9.25855604,61.871081 C8.76099356,62.2020016 8.3506077,62.6480732 8.06222577,63.17144 C7.82204385,63.6729876 7.70184303,64.223537 7.71112884,64.7795506 C7.69911502,65.2976101 7.76337603,65.8146191 7.90184816,66.3139742 C8.0260521,66.7451361 8.21612356,67.1545208 8.46533706,67.5276426 C8.67461714,67.8366165 8.92714831,68.1139628 9.21521074,68.3512033 C9.43665584,68.5338788 9.67298871,68.697717 9.92173913,68.8410052 C10.125462,68.962372 10.3031778,69.0317245 10.411541,69.101077 C10.5199043,69.1704295 10.5892567,69.2311129 10.5849222,69.2527855 Z" id="Path" fill="#FF725E"></path>
                    <path d="M8.85977928,82.7895227 C8.85977928,82.8111953 8.78609227,82.8111953 8.65605638,82.7895227 C8.46581849,82.7563942 8.27875493,82.7070906 8.09690201,82.6421487 C7.80679048,82.5294554 7.5304835,82.3840307 7.27334131,82.2086957 C6.92852552,81.976824 6.62150477,81.6931953 6.36309001,81.3677968 C6.05396034,80.9667335 5.81372496,80.5170246 5.6522271,80.0370961 C5.4688678,79.487733 5.37377239,78.9127715 5.37048265,78.3336258 C5.34586097,77.6744279 5.47963535,77.0189335 5.76059035,76.4220981 C6.09077064,75.7938018 6.57372409,75.2586774 7.16497806,74.8660019 C7.74919343,74.4800733 8.41028816,74.2256923 9.10251296,74.1204627 C9.73543924,74.0163903 10.3811144,74.0163903 11.0140407,74.1204627 C12.0641591,74.3049854 13.0656141,74.7017326 13.9571865,75.2864513 C14.5477144,75.6645984 15.0994348,76.1001672 15.6043079,76.5868103 C15.9554049,76.9335727 16.1244515,77.1502992 16.0941098,77.1849754 C16.0637681,77.2196516 15.834038,77.0722776 15.4352613,76.7905332 C14.8775182,76.392668 14.2987418,76.0251451 13.7014493,75.6895626 C12.8398648,75.200163 11.8947504,74.8753258 10.9143465,74.7316314 C10.3483977,74.6531402 9.77367076,74.663377 9.21087621,74.7619731 C8.61543624,74.8728727 8.04899373,75.1044651 7.5464167,75.4424943 C6.54326389,76.0614389 5.95177201,77.1731786 5.9989895,78.350964 C5.988052,78.8678295 6.05378418,79.3834619 6.19404335,79.8810531 C6.31410488,80.3143394 6.50288747,80.7255635 6.75319771,81.099056 C6.96612135,81.4064831 7.21984693,81.6835398 7.50740593,81.9226167 C7.72629833,82.1053538 7.96132739,82.267843 8.20959979,82.408084 C8.41765723,82.5337854 8.59103843,82.5988034 8.70373621,82.6681558 C8.81643398,82.7375083 8.86844834,82.7895227 8.85977928,82.7895227 Z" id="Path" fill="#FF725E"></path>
                    <path d="M7.13897088,96.3566015 C7.13897088,96.3826087 7.06094934,96.3782742 6.93091344,96.3566015 C6.74077827,96.321037 6.55379599,96.2703054 6.37175907,96.204893 C6.08251449,96.0932894 5.80752018,95.9477898 5.55253291,95.77144 C5.20506351,95.5396151 4.89639731,95.2543548 4.63794708,94.9262066 C4.32861154,94.5259593 4.0896875,94.0759613 3.93141869,93.5955059 C3.74845728,93.044552 3.65337843,92.4682279 3.64967425,91.8877011 C3.62164323,91.2286923 3.75402561,90.5727302 4.03544741,89.9761734 C4.36833042,89.3509387 4.85080905,88.8178296 5.43983513,88.4244116 C6.02022587,88.0322676 6.67797383,87.7691684 7.36870097,87.6528653 C8.0016209,87.5487153 8.64730876,87.5487153 9.28022869,87.6528653 C10.3295452,87.8354619 11.3299628,88.2323827 12.21904,88.8188539 C12.8095678,89.197001 13.3612883,89.6325698 13.8661614,90.1192129 C14.2215929,90.4659753 14.3906395,90.6827018 14.3602978,90.717378 C14.3299561,90.7520542 14.0958915,90.6003457 13.6971147,90.3229358 C13.1406328,89.9232013 12.5617508,89.5556112 11.9633028,89.2219652 C11.1017323,88.7316961 10.1567259,88.4054263 9.17619997,88.2596995 C8.60857478,88.1826811 8.03242615,88.1943795 7.46839516,88.2943757 C6.87394968,88.4016346 6.3084847,88.6319545 5.80827018,88.9705624 C5.31070769,89.3014831 4.90032183,89.7475547 4.6119399,90.2709214 C4.37220939,90.7726239 4.25203206,91.3230658 4.26084297,91.879032 C4.24882915,92.3970916 4.31309016,92.9141006 4.45156229,93.4134557 C4.57303732,93.8469819 4.76328492,94.2582094 5.01505119,94.6314586 C5.22413914,94.939311 5.47671977,95.2152517 5.76492488,95.4506847 C5.99503301,95.6437849 6.24159673,95.8163795 6.50179497,95.9664938 C6.70551788,96.0878607 6.88323361,96.1572131 6.99159686,96.2265656 C7.09996011,96.2959181 7.14330541,96.3349289 7.13897088,96.3566015 Z" id="Path" fill="#FF725E"></path>
                    <path d="M5.41382795,109.910677 C5.41382795,109.932349 5.33580641,109.932349 5.20577051,109.910677 C5.01662668,109.87902 4.83087195,109.829679 4.65095067,109.763303 C4.36149949,109.649165 4.08534904,109.503823 3.82738997,109.32985 C3.48259916,109.09623 3.17562308,108.811181 2.91713868,108.484616 C2.60481654,108.085624 2.36427711,107.635346 2.20627576,107.153916 C2.02291646,106.604553 1.92782106,106.029591 1.92453131,105.450445 C1.89990963,104.791247 2.03368401,104.135753 2.31463901,103.538918 C2.6432974,102.910915 3.12478058,102.375769 3.7146922,101.982821 C4.29607175,101.593394 4.95353245,101.331887 5.64355804,101.21561 C6.27648431,101.111537 6.92215949,101.111537 7.55508576,101.21561 C8.6052042,101.400132 9.60665916,101.79688 10.4982316,102.381598 C11.0875501,102.759563 11.6378497,103.195156 12.1410185,103.681957 C12.4964499,104.02872 12.6654966,104.245446 12.6351549,104.280122 C12.6048132,104.314799 12.3750831,104.167425 11.9763063,103.88568 C11.4179051,103.488793 10.8391815,103.121304 10.2424943,102.784709 C9.38090985,102.29531 8.43579544,101.970473 7.45539157,101.826778 C6.88921775,101.749719 6.3144901,101.761418 5.75192129,101.861455 C5.15618051,101.968873 4.58933154,102.199156 4.08746177,102.537641 C3.58989929,102.868562 3.17951343,103.314634 2.8911315,103.838 C2.65302784,104.340259 2.5329344,104.890317 2.54003457,105.446111 C2.526927,105.963089 2.59270037,106.479044 2.73508842,106.9762 C2.85514995,107.409486 3.04393254,107.82071 3.29424279,108.194203 C3.50574895,108.501417 3.75801393,108.778471 4.04411647,109.017764 C4.26630287,109.199458 4.50255345,109.363239 4.75064486,109.507565 C4.95436777,109.628932 5.1320835,109.69395 5.24044675,109.763303 C5.34881,109.832655 5.42249701,109.889004 5.41382795,109.910677 Z" id="Path" fill="#FF725E"></path>
                    <path d="M3.68868502,123.460417 C3.68868502,123.486425 3.61499801,123.48209 3.48496211,123.460417 C3.29423247,123.427494 3.10702296,123.3767 2.92580774,123.308709 C2.63473101,123.198145 2.35818065,123.052592 2.10224704,122.875256 C1.75743125,122.643384 1.4504105,122.359756 1.19199575,122.034357 C0.88286607,121.633294 0.642630689,121.183585 0.481132828,120.703656 C0.301935154,120.15178 0.206953223,119.576043 0.199388379,118.995852 C0.175104381,118.336681 0.308862646,117.681266 0.589496078,117.084324 C0.922379081,116.459089 1.40485771,115.92598 1.99388379,115.532562 C2.57311095,115.141227 3.22926928,114.878172 3.9184151,114.761016 C4.55133503,114.656866 5.1970229,114.656866 5.82994283,114.761016 C6.88083384,114.942799 7.88282917,115.339761 8.77308869,115.927004 C9.3636165,116.305152 9.91533695,116.74072 10.4202101,117.227363 C10.771307,117.574126 10.9403537,117.790852 10.910012,117.825529 C10.8796703,117.860205 10.6499402,117.708496 10.2511634,117.431086 C9.69399947,117.032362 9.11517536,116.664809 8.51735142,116.330116 C7.65449689,115.83925 6.70795787,115.512959 5.72591411,115.36785 C5.15973622,115.290861 4.58501958,115.30256 4.02244382,115.402526 C3.42670305,115.509945 2.85985408,115.740227 2.35798431,116.078713 C1.86053219,116.408448 1.45130399,116.854878 1.16598857,117.379072 C0.925359192,117.880621 0.803725817,118.430938 0.810557107,118.987183 C0.802036264,119.505343 0.867720171,120.022057 1.00561096,120.521606 C1.12772209,120.954141 1.31636124,121.365052 1.56476532,121.739609 C1.77657184,122.04665 2.03045456,122.322419 2.31897354,122.558835 C2.53925333,122.743045 2.77572378,122.906978 3.02550193,123.048637 C3.22922484,123.174339 3.40260604,123.239356 3.51530382,123.308709 C3.6280016,123.378061 3.69735408,123.438745 3.68868502,123.460417 Z" id="Path" fill="#FF725E"></path>
                    <g id="Group" opacity="0.2" transform="translate(0.000000, 6.068342)" fill="#000000">
                        <path d="M17.4768249,8.97681159 C17.4768249,8.99848424 17.4031379,8.99848424 17.273102,8.97681159 C17.0824115,8.9457829 16.8951593,8.89642961 16.7139476,8.82943757 C16.4244964,8.71529976 16.148346,8.56995742 15.8903869,8.39598458 C15.5465119,8.16121594 15.2396984,7.87631768 14.9801356,7.55075123 C14.6710059,7.14968794 14.4307706,6.69997902 14.2692727,6.22005053 C14.0859134,5.67068735 13.990818,5.09572591 13.9875283,4.51658024 C13.9629066,3.85738232 14.096681,3.20188786 14.377636,2.60505252 C14.7078162,1.97675615 15.1907697,1.44163181 15.7820237,1.04895626 C16.3614892,0.658915816 17.0176773,0.397327319 17.706555,0.281744449 C18.3394813,0.177672093 18.9851564,0.177672093 19.6180827,0.281744449 C20.6682011,0.466267111 21.6696561,0.86301436 22.5612286,1.44773301 C23.1517564,1.82588016 23.7034768,2.26144894 24.20835,2.74809201 C24.5594469,3.09485441 24.7284936,3.31158091 24.6981518,3.34625715 C24.6678101,3.38093339 24.43808,3.23355937 24.0393033,2.95181492 C23.4815602,2.55394979 22.9027839,2.18642682 22.3054913,1.8508443 C21.4439068,1.36144469 20.4987924,1.03660755 19.5183885,0.892913176 C18.9522106,0.815924366 18.377494,0.827623433 17.8149182,0.927589416 C17.2191775,1.035008 16.6523285,1.2652904 16.1504587,1.60377609 C15.6528962,1.93469674 15.2425104,2.38076833 14.9541284,2.90413509 C14.7160248,3.40639408 14.5959313,3.95645166 14.6030315,4.51224571 C14.5942066,5.02899738 14.6598998,5.54432384 14.7980854,6.0423348 C14.9201965,6.47486938 15.1088356,6.88578103 15.3572397,7.26033772 C15.5701634,7.56776487 15.8238889,7.84482155 16.1114479,8.08389842 C16.3321461,8.26755844 16.568566,8.4314569 16.8179763,8.57370031 C17.0216992,8.69506715 17.1950804,8.7600851 17.3077782,8.82943757 C17.420476,8.89879005 17.485494,8.95513894 17.4768249,8.97681159 Z" id="Path"></path>
                        <path d="M15.7560165,22.5395559 C15.7560165,22.5655631 15.6779949,22.5395559 15.547959,22.5395559 C15.3573482,22.5060976 15.1701875,22.4553176 14.9888047,22.3878474 C14.6995601,22.2762438 14.4245658,22.1307442 14.1695785,21.9543944 C13.8229233,21.7248583 13.5155592,21.4409124 13.2593272,21.1134955 C12.9470051,20.7145035 12.7064656,20.2642254 12.5484643,19.7827948 C12.3651505,19.231928 12.2700624,18.6555476 12.2667199,18.07499 C12.2386888,17.4159813 12.3710712,16.7600191 12.652493,16.1634623 C12.985376,15.5382277 13.4678547,15.0051186 14.0568807,14.6117006 C14.6372715,14.2195565 15.2950194,13.9564573 15.9857466,13.8401542 C16.6186665,13.7360042 17.2643544,13.7360042 17.8972743,13.8401542 C18.9465908,14.0227508 19.9470085,14.4196716 20.8360856,15.0061428 C21.4266134,15.3842899 21.9783339,15.8198587 22.483207,16.3065018 C22.8386385,16.6532642 23.0076851,16.8699907 22.9773434,16.9046669 C22.9470017,16.9393432 22.7172716,16.7876346 22.3141604,16.5102247 C21.7576784,16.1104902 21.1787964,15.7429002 20.5803484,15.4092541 C19.7187779,14.918985 18.7737715,14.5927153 17.7932456,14.4469884 C17.2256204,14.36997 16.6494718,14.3816685 16.0854408,14.4816647 C15.4945214,14.5945987 14.933582,14.8293075 14.4383194,15.1708549 C13.9407569,15.5017756 13.530371,15.9478472 13.2419891,16.4712139 C13.0027067,16.97307 12.8825525,17.5234055 12.8908922,18.0793246 C12.8788783,18.5973841 12.9431394,19.1143931 13.0816115,19.6137482 C13.2030865,20.0472744 13.3933341,20.4585019 13.6451004,20.8317511 C13.8541883,21.1396035 14.106769,21.4155442 14.3949741,21.6509773 C14.6152539,21.8351868 14.8517243,21.9991203 15.1015025,22.1407792 C15.3052254,22.2664805 15.4829411,22.3314985 15.5913043,22.400851 C15.6996676,22.4702034 15.760351,22.5048797 15.7560165,22.5395559 Z" id="Path"></path>
                        <path d="M14.0308736,36.0806276 C14.0308736,36.0806276 13.952852,36.0806276 13.8228161,36.0806276 C13.6336723,36.0489712 13.4479176,35.9996301 13.2679963,35.9332536 C12.5862842,35.6758235 11.9871007,35.2384196 11.5341843,34.6675708 C11.2227391,34.266413 10.9823084,33.8148724 10.8233214,33.3325356 C10.6399621,32.7831724 10.5448667,32.208211 10.5415769,31.6290653 C10.5169552,30.9698674 10.6507296,30.3143729 10.9316846,29.7175376 C11.259228,29.0899277 11.7410143,28.5559355 12.3317378,28.1657758 C12.9128797,27.7750509 13.5703113,27.5120783 14.2606036,27.3942295 C14.8935299,27.2901571 15.5392051,27.2901571 16.1721314,27.3942295 C17.2231135,27.5781756 18.2249636,27.9765548 19.1152772,28.5645526 C19.7045957,28.9425175 20.2548953,29.3781108 20.7580641,29.8649116 C21.1134955,30.2073394 21.2825422,30.4240659 21.2522005,30.4587422 C21.2218588,30.4934184 20.9921287,30.3460444 20.5933519,30.0643 C20.0347098,29.6691042 19.4559993,29.3030697 18.85954,28.9676639 C17.9991086,28.4748818 17.0536171,28.1484446 16.0724372,28.0053982 C15.5062634,27.9283387 14.9315357,27.940038 14.3689669,28.0400745 C13.7732261,28.147493 13.2063771,28.3777754 12.7045074,28.7162611 C12.2069449,29.0471818 11.796559,29.4932534 11.5081771,30.0166201 C11.2700734,30.5188791 11.14998,31.0689367 11.1570802,31.6247308 C11.1439726,32.1417087 11.209746,32.6576643 11.352134,33.1548198 C11.4721956,33.5881062 11.6609781,33.9993303 11.9112884,34.3728228 C12.1228785,34.6799704 12.3751337,34.9570137 12.6611621,35.1963835 C12.8833485,35.3780776 13.1195991,35.5418586 13.3676905,35.6861853 C13.5757479,35.8075522 13.7491291,35.8769047 13.8574924,35.9462571 C13.9658556,36.0156096 14.0395426,36.0589549 14.0308736,36.0806276 Z" id="Path"></path>
                        <path d="M12.3057306,49.6347028 C12.3057306,49.6563755 12.2320436,49.6563755 12.1020077,49.6347028 C11.9112781,49.6017789 11.7240686,49.5509856 11.5428533,49.4829943 C11.2527908,49.3731939 10.9775839,49.2275817 10.7236272,49.0495413 C10.3764827,48.8190288 10.0678347,48.5352482 9.80904135,48.2086425 C9.49991168,47.8075792 9.25967629,47.3578703 9.09817843,46.8779418 C8.91865777,46.3261439 8.82366769,45.7503578 8.81643398,45.1701369 C8.79248617,44.5109946 8.92622843,43.8556575 9.20654168,43.2586092 C9.53942469,42.6333746 10.0219033,42.1002655 10.6109294,41.7068475 C11.1894381,41.3149984 11.8460332,41.0532477 12.5354607,40.9396357 C13.168387,40.8355633 13.8140622,40.8355633 14.4469884,40.9396357 C15.4978794,41.1214192 16.4998748,41.5183805 17.3901343,42.1056243 C17.9806621,42.4837714 18.5323826,42.9193402 19.0372557,43.4059832 C19.3883526,43.7527456 19.5573993,43.9694721 19.5313921,44.0041484 C19.5053849,44.0388246 19.2669858,43.8914506 18.868209,43.6097062 C18.3110451,43.2109818 17.732221,42.8434284 17.134397,42.5087355 C16.2719663,42.0203704 15.3273225,41.6942258 14.3472942,41.5464699 C13.7795452,41.4716472 13.2037332,41.4833388 12.6394894,41.5811461 C12.0440495,41.6920457 11.4776069,41.923638 10.9750299,42.2616673 C9.97532154,42.8817693 9.38472443,43.9901729 9.42760271,45.1658024 C9.41908187,45.6839633 9.48476578,46.2006768 9.62265656,46.700226 C9.74476769,47.1327606 9.93340685,47.5436723 10.1818109,47.918229 C10.3936174,48.2252696 10.6475002,48.5010387 10.9360191,48.7374551 C11.1562989,48.9216647 11.3927694,49.0855982 11.6425475,49.227257 C11.8462704,49.3529584 12.0196516,49.4179763 12.1323494,49.4873288 C12.2450472,49.5566813 12.3143997,49.6086957 12.3057306,49.6347028 Z" id="Path"></path>
                        <path d="M10.5849222,63.1844436 C10.5849222,63.1844436 10.5069007,63.1844436 10.3768648,63.1844436 C10.1867296,63.148879 9.99974733,63.0981474 9.81771041,63.032735 C9.52928526,62.9193402 9.25449148,62.7739467 8.99848424,62.599282 C8.65182903,62.3697459 8.34446495,62.0858001 8.08823295,61.7583832 C7.7759141,61.3577919 7.53539934,60.9060934 7.37737003,60.423348 C7.19401073,59.8739848 7.09891533,59.2990233 7.09562558,58.7198777 C7.07148853,58.0611803 7.20368687,57.40613 7.48139875,56.80835 C7.81308441,56.1822751 8.29580523,55.6488984 8.88578646,55.2565882 C9.46655504,54.8651575 10.1241436,54.6021221 10.8146523,54.4850419 C11.4475722,54.3808919 12.0932601,54.3808919 12.72618,54.4850419 C13.7754965,54.6676384 14.7759142,55.0645593 15.6649914,55.6510304 C16.2555192,56.0291776 16.8072396,56.4647464 17.3121128,56.9513894 C17.6675442,57.2981518 17.8365909,57.5148783 17.8062492,57.5452201 C17.7759075,57.5755618 17.5461774,57.4325223 17.1474006,57.1551124 C16.59004,56.7566796 16.0112322,56.3891367 15.4135886,56.0541417 C14.5520182,55.5638726 13.6070118,55.2376029 12.6264858,55.0918761 C12.060312,55.0148165 11.4855844,55.0265158 10.9230156,55.1265523 C10.3272748,55.2339709 9.76042581,55.4642533 9.25855604,55.802739 C8.76099356,56.1336596 8.3506077,56.5797312 8.06222577,57.103098 C7.82204385,57.6046456 7.70184303,58.155195 7.71112884,58.7112086 C7.69911502,59.2292681 7.76337603,59.7462772 7.90184816,60.2456322 C8.0260521,60.6767942 8.21612356,61.0861788 8.46533706,61.4593006 C8.67461714,61.7682745 8.92714831,62.0456209 9.21521074,62.2828613 C9.43665584,62.4655369 9.67298871,62.629375 9.92173913,62.7726632 C10.125462,62.89403 10.3031778,62.9633825 10.411541,63.032735 C10.5199043,63.1020875 10.5892567,63.1627709 10.5849222,63.1844436 Z" id="Path"></path>
                        <path d="M8.85977928,76.7211807 C8.85977928,76.7428533 8.78609227,76.7428533 8.65605638,76.7211807 C8.46581849,76.6880522 8.27875493,76.6387487 8.09690201,76.5738067 C7.80679048,76.4611134 7.5304835,76.3156887 7.27334131,76.1403537 C6.92852552,75.9084821 6.62150477,75.6248534 6.36309001,75.2994549 C6.05396034,74.8983916 5.81372496,74.4486827 5.6522271,73.9687542 C5.4688678,73.419391 5.37377239,72.8444295 5.37048265,72.2652839 C5.34586097,71.6060859 5.47963535,70.9505915 5.76059035,70.3537561 C6.09077064,69.7254598 6.57372409,69.1903354 7.16497806,68.7976599 C7.74919343,68.4117313 8.41028816,68.1573504 9.10251296,68.0521207 C9.73543924,67.9480484 10.3811144,67.9480484 11.0140407,68.0521207 C12.0641591,68.2366434 13.0656141,68.6333906 13.9571865,69.2181093 C14.5477144,69.5962564 15.0994348,70.0318252 15.6043079,70.5184683 C15.9554049,70.8652307 16.1244515,71.0819572 16.0941098,71.1166334 C16.0637681,71.1513097 15.834038,71.0039356 15.4352613,70.7221912 C14.8775182,70.3243261 14.2987418,69.9568031 13.7014493,69.6212206 C12.8398648,69.131821 11.8947504,68.8069838 10.9143465,68.6632895 C10.3483977,68.5847982 9.77367076,68.5950351 9.21087621,68.6936312 C8.61543624,68.8045307 8.04899373,69.0361231 7.5464167,69.3741524 C6.54326389,69.9930969 5.95177201,71.1048366 5.9989895,72.282622 C5.988052,72.7994875 6.05378418,73.3151199 6.19404335,73.8127111 C6.31410488,74.2459974 6.50288747,74.6572215 6.75319771,75.030714 C6.96612135,75.3381412 7.21984693,75.6151978 7.50740593,75.8542747 C7.72629833,76.0370118 7.96132739,76.199501 8.20959979,76.3397421 C8.41765723,76.4654434 8.59103843,76.5304614 8.70373621,76.5998139 C8.81643398,76.6691663 8.86844834,76.7211807 8.85977928,76.7211807 Z" id="Path"></path>
                        <path d="M7.13897088,90.2882595 C7.13897088,90.3142667 7.06094934,90.3099322 6.93091344,90.2882595 C6.74077827,90.252695 6.55379599,90.2019634 6.37175907,90.136551 C6.08251449,90.0249475 5.80752018,89.8794478 5.55253291,89.703098 C5.20506351,89.4712731 4.89639731,89.1860129 4.63794708,88.8578646 C4.32861154,88.4576174 4.0896875,88.0076193 3.93141869,87.5271639 C3.74845728,86.97621 3.65337843,86.3998859 3.64967425,85.8193591 C3.62164323,85.1603504 3.75402561,84.5043882 4.03544741,83.9078314 C4.36833042,83.2825968 4.85080905,82.7494877 5.43983513,82.3560697 C6.02022587,81.9639256 6.67797383,81.7008264 7.36870097,81.5845233 C8.0016209,81.4803733 8.64730876,81.4803733 9.28022869,81.5845233 C10.3295452,81.7671199 11.3299628,82.1640407 12.21904,82.7505119 C12.8095678,83.128659 13.3612883,83.5642278 13.8661614,84.0508709 C14.2215929,84.3976333 14.3906395,84.6143598 14.3602978,84.649036 C14.3299561,84.6837123 14.0958915,84.5320037 13.6971147,84.2545938 C13.1406328,83.8548593 12.5617508,83.4872693 11.9633028,83.1536232 C11.1017323,82.6633541 10.1567259,82.3370844 9.17619997,82.1913575 C8.60857478,82.1143391 8.03242615,82.1260376 7.46839516,82.2260338 C6.87394968,82.3332926 6.3084847,82.5636125 5.80827018,82.9022204 C5.31070769,83.2331411 4.90032183,83.6792127 4.6119399,84.2025794 C4.37220939,84.7042819 4.25203206,85.2547238 4.26084297,85.8106901 C4.24882915,86.3287496 4.31309016,86.8457586 4.45156229,87.3451137 C4.57303732,87.7786399 4.76328492,88.1898674 5.01505119,88.5631166 C5.22413914,88.8709691 5.47671977,89.1469097 5.76492488,89.3823428 C5.99503301,89.5754429 6.24159673,89.7480376 6.50179497,89.8981518 C6.70551788,90.0195187 6.88323361,90.0888712 6.99159686,90.1582236 C7.09996011,90.2275761 7.14330541,90.2665869 7.13897088,90.2882595 Z" id="Path"></path>
                        <path d="M5.41382795,103.842335 C5.41382795,103.864007 5.33580641,103.864007 5.20577051,103.842335 C5.01662668,103.810678 4.83087195,103.761337 4.65095067,103.694961 C4.36149949,103.580823 4.08534904,103.435481 3.82738997,103.261508 C3.48259916,103.027888 3.17562308,102.742839 2.91713868,102.416274 C2.60481654,102.017282 2.36427711,101.567004 2.20627576,101.085574 C2.02291646,100.536211 1.92782106,99.9612491 1.92453131,99.3821034 C1.89990963,98.7229055 2.03368401,98.0674111 2.31463901,97.4705757 C2.6432974,96.8425735 3.12478058,96.3074266 3.7146922,95.9144795 C4.29607175,95.5250522 4.95353245,95.2635453 5.64355804,95.1472677 C6.27648431,95.0431953 6.92215949,95.0431953 7.55508576,95.1472677 C8.6052042,95.3317903 9.60665916,95.7285376 10.4982316,96.3132562 C11.0875501,96.6912212 11.6378497,97.1268145 12.1410185,97.6136152 C12.4964499,97.9603776 12.6654966,98.1771041 12.6351549,98.2117803 C12.6048132,98.2464566 12.3750831,98.0990826 11.9763063,97.8173381 C11.4179051,97.4204511 10.8391815,97.0529616 10.2424943,96.7163675 C9.38090985,96.2269679 8.43579544,95.9021307 7.45539157,95.7584364 C6.88921775,95.6813768 6.3144901,95.6930761 5.75192129,95.7931126 C5.15618051,95.9005312 4.58933154,96.1308136 4.08746177,96.4692993 C3.58989929,96.8002199 3.17951343,97.2462915 2.8911315,97.7696583 C2.65302784,98.2719173 2.5329344,98.8219749 2.54003457,99.3777689 C2.526927,99.8947469 2.59270037,100.410702 2.73508842,100.907858 C2.85514995,101.341144 3.04393254,101.752368 3.29424279,102.125861 C3.50574895,102.433075 3.75801393,102.710129 4.04411647,102.949422 C4.26630287,103.131116 4.50255345,103.294897 4.75064486,103.439224 C4.95436777,103.56059 5.1320835,103.625608 5.24044675,103.694961 C5.34881,103.764313 5.42249701,103.820662 5.41382795,103.842335 Z" id="Path"></path>
                        <path d="M3.68868502,117.392076 C3.68868502,117.418083 3.61499801,117.413748 3.48496211,117.392076 C3.29423247,117.359152 3.10702296,117.308358 2.92580774,117.240367 C2.63473101,117.129803 2.35818065,116.98425 2.10224704,116.806914 C1.75743125,116.575042 1.4504105,116.291414 1.19199575,115.966015 C0.88286607,115.564952 0.642630689,115.115243 0.481132828,114.635314 C0.301935154,114.083438 0.206953223,113.507701 0.199388379,112.92751 C0.175104381,112.26834 0.308862646,111.612924 0.589496078,111.015982 C0.922379081,110.390747 1.40485771,109.857638 1.99388379,109.46422 C2.57311095,109.072885 3.22926928,108.80983 3.9184151,108.692674 C4.55133503,108.588524 5.1970229,108.588524 5.82994283,108.692674 C6.88083384,108.874457 7.88282917,109.271419 8.77308869,109.858662 C9.3636165,110.23681 9.91533695,110.672378 10.4202101,111.159021 C10.771307,111.505784 10.9403537,111.72251 10.910012,111.757187 C10.8796703,111.791863 10.6499402,111.640154 10.2511634,111.362744 C9.69399947,110.96402 9.11517536,110.596467 8.51735142,110.261774 C7.65449689,109.770908 6.70795787,109.444617 5.72591411,109.299508 C5.15973622,109.222519 4.58501958,109.234218 4.02244382,109.334184 C3.42670305,109.441603 2.85985408,109.671885 2.35798431,110.010371 C1.86053219,110.340106 1.45130399,110.786537 1.16598857,111.31073 C0.925359192,111.812279 0.803725817,112.362596 0.810557107,112.918841 C0.802036264,113.437002 0.867720171,113.953715 1.00561096,114.453264 C1.12772209,114.885799 1.31636124,115.29671 1.56476532,115.671267 C1.77657184,115.978308 2.03045456,116.254077 2.31897354,116.490493 C2.53925333,116.674703 2.77572378,116.838636 3.02550193,116.980295 C3.22922484,117.105997 3.40260604,117.171014 3.51530382,117.240367 C3.6280016,117.309719 3.69735408,117.370403 3.68868502,117.392076 Z" id="Path"></path>
                    </g>
                    <polygon id="Rectangle" fill="#ED2012" transform="translate(114.384657, 32.939327) rotate(-82.750000) translate(-114.384657, -32.939327) " points="111.235621 27.666371 117.533693 27.666371 117.533693 38.2122824 111.235621 38.2122824"></polygon>
                    <path d="M101.328307,33.8570137 C101.270659,33.8628076 101.212575,33.8628076 101.154926,33.8570137 L100.647786,33.8093339 L98.7059168,33.5752692 L91.5582768,32.6650179 L68.0001064,29.5744981 L61.2859194,28.6815849 C59.1186544,28.3955059 57.0250765,28.1007579 55.0355272,27.8580242 C53.1561516,27.5939854 51.2505586,27.5735892 49.365962,27.7973408 C47.6104773,28.044409 45.9503523,28.4215131 44.4072597,28.2307938 C43.6778927,28.1483794 42.9705847,27.9292757 42.3223508,27.5849488 C41.711182,27.2641936 41.1780348,26.8957585 40.6665603,26.5793379 C40.1999019,26.2726835 39.7049514,26.0114194 39.1884856,25.7991225 C38.7508605,25.6381335 38.289332,25.5516885 37.8231086,25.5433852 C37.1718547,25.5099401 36.5312127,25.7183417 36.0242787,26.1285467 C35.8598031,26.2826407 35.7142913,26.4557997 35.5908257,26.6443558 C35.6128992,26.5896759 35.6404941,26.5373908 35.6731818,26.4883127 C35.7071353,26.424886 35.7478259,26.3653034 35.7945486,26.310597 C35.8539431,26.2308004 35.9222978,26.1580827 35.9982715,26.0938705 C36.504786,25.6566025 37.1588778,25.4287553 37.8274432,25.4566946 C38.3058875,25.4581017 38.7806707,25.540163 39.2318309,25.6994283 C39.7584994,25.89784 40.2650433,26.146032 40.7445818,26.4406329 C41.2603909,26.7570536 41.7978726,27.1168196 42.4003723,27.4289057 C43.0358947,27.7574235 43.7264924,27.9660721 44.4376014,28.044409 C45.9460178,28.2134557 47.5844702,27.8363515 49.3529584,27.5762798 C51.2522891,27.3405143 53.1742669,27.3536286 55.0702034,27.6152905 C57.0727563,27.8536897 59.1576652,28.1484377 61.3292647,28.4258476 L68.0434517,29.2927536 L91.5929531,32.4482915 L98.7275894,33.4322298 L100.669459,33.7096397 L101.172264,33.7876612 C101.22671,33.8048661 101.279052,33.8281293 101.328307,33.8570137 L101.328307,33.8570137 Z" id="Path" fill="#263238"></path>
                    <path d="M99.4948012,40.1637548 L99.3344236,40.1637548 L98.8619598,40.1117405 L97.0414573,39.903683 L90.3619465,39.0887914 L68.3295306,36.3233613 L46.3014493,33.4885786 L39.6306076,32.6216726 L37.8187741,32.3659354 L37.3463103,32.2965829 C37.2921416,32.2906674 37.2385187,32.2805225 37.1859327,32.2662412 C37.2405702,32.2585898 37.2960074,32.2585898 37.3506449,32.2662412 L37.8231086,32.313921 L39.6392767,32.5219785 L46.3231219,33.3368701 L68.3598724,36.1066348 L90.3836192,38.9414174 L97.0544608,39.8083234 L98.8662944,40.0597261 L99.3387581,40.1290786 C99.3921138,40.133445 99.4446179,40.1451126 99.4948012,40.1637548 L99.4948012,40.1637548 Z" id="Path" fill="#263238"></path>
                    <path d="M92.091424,76.5564686 L91.9397155,76.5564686 L91.5062625,76.5087887 L89.7724505,76.3094003 L83.422364,75.537854 L62.4822497,72.9111288 L41.5291318,70.2193857 L35.1877144,69.3524797 L33.4539024,69.1140806 L33.0204494,69.0447281 L32.8687409,69.0143864 C32.9191955,69.0095659 32.9699948,69.0095659 33.0204494,69.0143864 L33.4539024,69.0577317 L35.1877144,69.2571201 L41.5378008,70.0286664 L62.4822497,72.6597261 L83.4180295,75.3558037 L89.7594469,76.1967026 L91.4932589,76.4394362 L91.9267119,76.5044542 C91.9841493,76.5124108 92.0398339,76.5299954 92.091424,76.5564686 L92.091424,76.5564686 Z" id="Path" fill="#263238"></path>
                    <path d="M90.5266587,88.8578646 L90.3749501,88.8578646 L89.9414971,88.8145193 L88.2076851,88.615131 L81.8575987,87.8435846 L60.9131498,85.2125249 L39.97737,82.5164473 L33.6359527,81.6755485 L31.9021407,81.4328148 L31.4686877,81.3677968 L31.3169791,81.3374551 C31.3687858,81.3308817 31.4212155,81.3308817 31.4730222,81.3374551 L31.9064752,81.385135 L33.6402872,81.5845233 L39.9860391,82.3560697 L60.930488,84.9871294 L81.8619333,87.6788725 L88.2076851,88.5457785 L89.9414971,88.7841776 L90.3749501,88.8535301 C90.4255513,88.8506877 90.4763023,88.8521378 90.5266587,88.8578646 L90.5266587,88.8578646 Z" id="Path" fill="#263238"></path>
                    <path d="M90.0932057,82.4297567 C90.0427511,82.4345772 89.9919518,82.4345772 89.9414971,82.4297567 L89.5080441,82.3864114 L87.8175774,82.1913575 L81.5975269,81.4371493 L61.0908656,78.8624385 L40.5928733,76.2227097 L34.3814918,75.3948145 L32.6953597,75.1607499 L32.2619067,75.095732 L32.1145326,75.0653902 C32.1648814,75.0587073 32.2158925,75.0587073 32.2662412,75.0653902 L32.6996942,75.1130701 L34.3944954,75.3037894 L40.6102114,76.0579976 L61.1168728,78.6283739 L81.614865,81.2724372 L87.821912,82.0959979 L89.5080441,82.3300625 L89.9414971,82.399415 L90.0932057,82.4297567 Z" id="Path" fill="#263238"></path>
                    <path d="M57.2157958,90.2059035 C57.1250734,90.2164028 57.0334427,90.2164028 56.9427204,90.2059035 L56.1668395,90.1278819 L53.3103843,89.7984577 L43.9044542,88.6368036 L34.5071932,87.4057971 L31.659407,87.0113549 L30.8878607,86.889988 C30.7964967,86.8810405 30.7063826,86.8621456 30.6191198,86.8336391 C30.7097837,86.8221703 30.8015313,86.8221703 30.8921952,86.8336391 L31.6724106,86.9116607 L34.5245313,87.2367504 L43.9174578,88.4244116 L53.3147188,89.6337455 L56.162505,90.0325223 L56.9340513,90.1495546 C57.0299301,90.1566502 57.1245632,90.1755768 57.2157958,90.2059035 L57.2157958,90.2059035 Z" id="Path" fill="#263238"></path>
                    <path d="M45.1571397,38.7637016 C45.1571397,38.8243851 42.9161814,38.5903204 40.1724239,38.243558 C37.4286664,37.8967956 35.2137216,37.5587023 35.2223653,37.4980189 C35.2310597,37.4373355 37.4590081,37.6670655 40.2027656,38.0181625 C42.9465231,38.3692594 45.1614679,38.6986837 45.1571397,38.7637016 Z" id="Path" fill="#263238"></path>
                    <path d="M92.9496609,69.820609 C92.8993122,69.8272919 92.8483011,69.8272919 92.7979524,69.820609 L92.3644994,69.7772637 C91.9830608,69.7339184 91.4195719,69.6732349 90.6957054,69.6125515 C89.9718389,69.5518681 89.0789257,69.4825156 88.0473075,69.4218322 C87.0156894,69.3611488 85.8366972,69.3004654 84.5320037,69.2441165 C81.9312857,69.1270842 78.8234277,69.0490626 75.3818109,68.8453397 C73.6479989,68.741311 71.8535035,68.6112751 69.9853211,68.3685414 C68.1171387,68.1258077 66.2099455,67.809387 64.2420689,67.5016354 L44.0951735,64.4197846 L37.9921553,63.4575189 L36.3363648,63.1844436 L35.9029118,63.106422 C35.8537788,63.1020049 35.8055736,63.0903188 35.7598724,63.0717458 L35.9072464,63.0717458 L36.3406994,63.1280947 L38.0051589,63.3578248 L44.1125116,64.2507379 L64.2680761,67.2849089 C66.2359527,67.5753224 68.169153,67.8830741 70.0113283,68.1518149 C71.8535035,68.4205558 73.6696716,68.528919 75.39048,68.6372823 C78.8277623,68.8496742 81.9312857,68.9493684 84.5363383,69.0707353 C85.8366972,69.1400878 87.0156894,69.2051057 88.0516421,69.2831272 C89.0875947,69.3611488 89.9718389,69.4348358 90.7000399,69.5128573 C91.4282409,69.5908789 92.0003989,69.6602314 92.3688339,69.7209148 L92.8022869,69.7859327 C92.8520744,69.7944675 92.9012914,69.806048 92.9496609,69.820609 L92.9496609,69.820609 Z" id="Path" fill="#263238"></path>
                </g>
                <g id="freepik--Character--inject-423" transform="translate(18.205026, 39.444223)">
                    <path d="M17.7715729,67.3759341 C17.7715729,67.3759341 70.8132163,14.9281213 76.8468821,6.61882728 L73.2145459,3.2812392 L13.3980322,62.7683287 L17.7715729,67.3759341 Z" id="Path" fill="#E0E0E0"></path>
                    <path d="M1.60811062,78.4549927 C3.99643664,78.498338 10.4462173,77.5880867 19.5270576,68.2081638 L27.5416035,60.9781678 L21.4125781,55.0485308 C21.4125781,55.0485308 33.6316181,43.7267385 33.0507911,43.1069007 C32.4699641,42.4870629 25.9681691,48.5467358 20.8360856,52.9722909 C16.1677968,57.0164074 0.585161548,71.268342 0.221061029,76.9249036 C0.192474246,77.3141043 0.324635658,77.6980163 0.586737674,77.9871476 C0.848839689,78.2762789 1.21798028,78.4453656 1.60811062,78.4549927 L1.60811062,78.4549927 Z" id="Path" fill="#ED2012"></path>
                    <path d="M33.0507911,43.1199043 C32.4656296,42.5000665 25.9681691,48.5293977 20.8360856,52.9722909 C20.4329743,53.3233878 19.9388379,53.7525063 19.3883526,54.2466427 L25.4783672,60.0809201 L17.4768249,67.3282542 C9.24121792,75.8499402 3.17287595,77.4060364 0.346762399,77.5924212 C0.562526817,78.1023575 1.0547212,78.4406354 1.60811062,78.4593272 C3.99643664,78.5026725 10.4462173,77.5924212 19.5270576,68.2124983 L27.5416035,60.9825023 L21.4125781,55.0485308 C21.4125781,55.0485308 33.6316181,43.7397421 33.0507911,43.1199043 Z" id="Path" fill="#000000" opacity="0.2"></path>
                    <polygon id="Path" fill="#263238" points="28.3911714 53.5921287 70.1977131 11.5731951 68.4292248 9.94341178 26.6920356 51.7976333"></polygon>
                    <path d="M76.8165404,6.67517617 C76.8165404,6.67517617 80.7826353,0.429118468 79.6729956,0.0996941896 C78.5633559,-0.229730089 73.223215,3.2812392 73.223215,3.2812392 L74.2461641,4.33452998 L68.1778221,10.1774764 L70.2193857,11.5731951 L75.7415769,5.74325223 L76.8165404,6.67517617 Z" id="Path" fill="#455A64"></path>
                    <path d="M36.0719585,35.1096929 L36.0719585,35.1096929 C37.1278701,35.1893447 38.1707961,34.8363291 38.9612435,34.1317111 C39.7516909,33.427093 40.2217394,32.4314178 40.263449,31.373328 C40.3458051,29.2494083 40.4194921,27.103816 40.4194921,27.103816 C40.4194921,27.103816 43.6357133,26.8047334 43.8654434,23.636192 C44.0951735,20.4676506 43.9954793,13.1076187 43.9954793,13.1076187 L43.9954793,13.1076187 C40.4052507,11.2962536 36.1155518,11.5716171 32.7863848,13.8271506 L32.2922484,14.1609095 L32.4699641,31.2823029 C32.502111,33.2968383 34.0630769,34.955482 36.0719585,35.1096929 L36.0719585,35.1096929 Z" id="Path" fill="#FFBE9D"></path>
                    <path d="M35.9245845,8.94646988 C33.9870496,8.89012099 32.231565,10.1558037 31.3299827,11.7119 C30.4284005,13.2679963 30.2376812,15.0754953 30.1553251,16.8309799 C30.0520637,20.2802391 30.1330903,23.7325518 30.3980588,27.1731685 C30.3858023,27.4341023 30.4638754,27.6912842 30.6191198,27.9013695 C30.8572084,28.0960777 31.1526325,28.2072425 31.4600186,28.2177902 C37.3424994,29.0283139 43.3077478,29.0370628 49.1925808,28.2437974 C49.5783539,27.5416035 49.0322032,26.7093738 48.4080308,26.171892 C47.7838585,25.6344103 47.0036431,25.1446084 46.7782476,24.3860657 C46.4184816,23.1940699 47.6018083,21.9197181 47.1423481,20.7580641 C46.7955857,19.8911581 45.6469352,19.4577051 45.243824,18.5907991 C44.5676373,17.1604042 46.3144529,15.4309267 45.538572,14.0395426 C45.1354607,13.3156761 44.1905332,12.9949209 43.592368,12.3924212 C43.0635554,11.859274 42.8381598,11.1354075 42.3830342,10.550246 C41.5662119,9.63689179 40.4241073,9.07984352 39.2014892,8.99848424 C38.1178486,8.82176747 37.0147314,8.79842108 35.9245845,8.92913176" id="Path" fill="#263238"></path>
                    <path d="M31.3863316,12.5701369 C30.5671054,12.9689137 30.211674,13.952852 30.0859726,14.8587688 C29.9602712,15.7646855 29.999282,16.7182821 29.6221779,17.5505119 C29.2450738,18.3827417 28.3781678,19.1196118 28.1571068,20.0688738 C27.8710278,21.3085494 28.6859194,22.7649515 27.9490493,23.8009041 C27.4765856,24.4640872 26.5446616,24.6331339 25.9595001,25.2052918 C25.1532775,25.9985108 25.22263,27.2945353 25.3526659,28.4215131 L35.9809334,28.3261534" id="Path" fill="#263238"></path>
                    <path d="M33.7313123,10.8970084 C33.5353796,9.84725394 32.8350952,8.96129788 31.8589659,8.52823253 C30.8828366,8.09516718 29.7560553,8.17053512 28.846297,8.72974339 C27.1514958,9.77869964 26.5489961,12.2797234 24.641803,12.8605505 C24.143332,13.012259 23.5321633,13.0556043 23.2677569,13.5063954 C23.0033506,13.9571865 23.3371094,14.607366 23.8225768,14.8414307 C24.3342313,15.0286513 24.8873985,15.0721251 25.4220183,14.967132 C25.1062083,14.9345286 24.7932555,15.0510438 24.57566,15.282239 C24.3580646,15.5134341 24.2607126,15.8328678 24.3123787,16.1461242 C24.4912701,16.7831684 25.1200161,17.1842971 25.7731153,17.0780481 C26.4123242,16.9422907 26.9280615,16.471328 27.1211541,15.8470416 C26.8870895,16.5145592 26.6559146,17.1820769 26.4276293,17.8495945 C27.7496609,18.0836591 28.8766387,16.8916633 29.5441564,15.7300093 C30.211674,14.5683553 30.8445154,13.2073129 32.0625183,12.6958383 C32.6130036,12.4661082 33.2501795,12.4227629 33.7226433,12.0586624 C34.195107,11.6945619 34.2904667,10.7843106 33.7226433,10.6109294" id="Path" fill="#263238"></path>
                    <path d="M34.2817976,10.9360191 C34.2817976,10.9360191 34.5288658,11.0313788 34.7455923,11.3694721 C35.0401406,11.8338748 35.0969064,12.4104764 34.8985749,12.9234025 C34.7002435,13.4363286 34.2703356,13.8247498 33.7399814,13.9701901 C33.5332299,14.0480389 33.3052224,14.0480389 33.0984709,13.9701901 C33.0984709,13.9311794 33.3412046,13.944183 33.687967,13.805478 C34.1444534,13.64256 34.5078579,13.2896922 34.6841329,12.8381956 C34.8604078,12.386699 34.8322284,11.8809476 34.6068874,11.4518282 C34.4465098,11.1224039 34.2427869,10.9663609 34.2817976,10.9360191 Z" id="Path" fill="#263238"></path>
                    <polygon id="Path" fill="#FFBE9D" points="45.8073129 111.943571 51.255817 137.070842 58.4424678 136.90613 55.2565882 109.719957"></polygon>
                    <path d="M20.1772371,41.923574 C20.1772371,41.923574 20.0558702,42.1012897 19.8564819,42.4177104 C18.7034969,44.2512166 15.4525994,50.8266986 18.1920223,55.2262465 L25.0665869,49.1839117 L26.2239064,46.4704959" id="Path" fill="#FFBE9D"></path>
                    <polygon id="Path" fill="#FFBE9D" points="24.1389975 91.649302 21.8243585 134.556814 28.8983114 136.264619 34.2037761 92.5552187"></polygon>
                    <path d="M55.3866241,37.7104108 L45.4172052,40.116075 L44.8407127,47.8098657 L46.2277623,52.1964101 C46.2277623,52.3524531 48.4730488,59.7298232 48.4730488,59.7298232 L49.1709081,62.1701635 L26.3799495,62.4085627 C26.3019279,59.7428268 28.0747507,57.1161016 28.0747507,57.1161016 C29.3751097,54.9184949 29.0370164,51.5982449 28.4345167,49.079883 C28.2437974,48.2823295 28.0010637,46.9646324 27.8883659,46.1540753 L27.8883659,46.0110358 L26.5880069,48.3040021 L18.6384789,42.5824226 C21.2088552,37.6237202 24.9798963,32.6130036 25.4350219,32.240234 C27.0826098,30.8621654 29.1561703,30.0964488 31.3039755,30.072969 L41.1433586,30.1596596 C41.1433586,30.1596596 48.8891637,29.1887249 53.4057439,28.4258476 L55.3866241,37.7104108 Z" id="Path" fill="#455A64"></path>
                    <path d="M53.6138014,29.5441564 C53.2469515,29.7521354 52.9026791,29.9976292 52.5865178,30.2766919 C52.2787661,30.5454328 51.9363383,30.9095333 51.541896,31.3343172 C51.1011975,31.8325917 50.6118592,32.285629 50.0811594,32.6866906 C48.6790668,33.7236034 47.0129646,34.3440725 45.2741657,34.4768515 C44.2538739,34.5538555 43.2279131,34.457122 42.2399947,34.1907725 C41.2127111,33.9090281 40.2114346,33.4539024 39.1494748,33.1504853 C38.6278326,32.9958806 38.0892451,32.9056308 37.5456987,32.8817444 C37.0197722,32.8777436 36.4954565,32.9403702 35.9852679,33.0681292 C35.0165396,33.3435431 34.0783413,33.7167892 33.1851615,34.1821034 C32.3673198,34.6054456 31.5232555,34.9760811 30.6581306,35.2917431 C28.7719441,35.9629313 26.6938473,35.8377447 24.9018748,34.9449807 C24.6186895,34.8033922 24.3463216,34.6411305 24.0869831,34.4595134 C23.9947594,34.3989822 23.907765,34.3308366 23.8269113,34.2557905 C23.8269113,34.2341178 24.1996809,34.5201968 24.9408855,34.8626247 C26.7167345,35.7002383 28.7542923,35.7907964 30.5974471,35.1140274 C31.4521197,34.7935325 32.2859685,34.4200377 33.0941364,33.9957187 C33.9968404,33.5170415 34.9468779,33.1335401 35.928919,32.8514027 C36.460134,32.7174032 37.0065626,32.6532889 37.5543678,32.6606834 C38.115691,32.6806631 38.6721458,32.7724344 39.2101582,32.9337588 C40.2981252,33.2415104 41.2950671,33.7009706 42.3006781,33.9783805 C43.2684366,34.2418203 44.2737227,34.3400042 45.2741657,34.268794 C46.9787013,34.1473705 48.6159495,33.5545996 50.0031379,32.5566547 C50.5310902,32.171626 51.0203093,31.7361193 51.4638745,31.2562957 C51.8061314,30.8931875 52.1663481,30.5474374 52.5431725,30.220343 C52.7859464,30.0152517 53.0487942,29.8351791 53.3277224,29.6828613 C53.4007749,29.6438467 53.4760337,29.6091119 53.5531179,29.5788326 C53.5935735,29.5528254 53.6138014,29.5412667 53.6138014,29.5441564 Z" id="Path" fill="#263238"></path>
                    <path d="M44.9143997,42.4783938 C44.859135,42.5527273 44.7917263,42.6172051 44.7150113,42.6691131 C44.5020169,42.8301356 44.2539904,42.9385544 43.9911448,42.9855338 C43.5740227,43.058569 43.1457853,43.0363421 42.7384656,42.9205159 C42.2050196,42.7628531 41.7012318,42.5182817 41.2473873,42.1966494 C40.7136268,41.8085512 40.1497996,41.4635875 39.5612552,41.1650312 C38.8783244,40.8697941 38.137282,40.7334423 37.3939902,40.7662545 C35.7945486,40.8182688 34.1344236,41.490121 32.4352879,42.2226566 C31.6022206,42.5895893 30.7412641,42.8896196 29.8605771,43.1199043 C29.0318442,43.342409 28.1681771,43.4042046 27.316208,43.3019545 C26.5432262,43.1961078 25.8031716,42.9208075 25.148943,42.495732 C24.5804576,42.1326651 24.06297,41.6953517 23.6101848,41.195373 C22.9664049,40.4749267 22.3957801,39.6923141 21.9067145,38.8590613 C21.7333333,38.5686478 21.5989629,38.3389177 21.5122723,38.1828746 C21.4643665,38.1037144 21.4223525,38.0211352 21.3865709,37.9358064 C21.4504505,38.0023603 21.5057814,38.0766202 21.5512831,38.1568674 L21.9847361,38.8113815 C22.4950897,39.6191148 23.0752462,40.3805703 23.7185481,41.0870097 C24.1707242,41.5629599 24.6803291,41.9808359 25.2356336,42.3310198 C25.8726302,42.7302269 26.5881775,42.9874691 27.3335461,43.085228 C28.1586297,43.1788035 28.9939663,43.115565 29.7955591,42.8988432 C30.6633881,42.6651849 31.512452,42.3667085 32.3355937,42.0059301 C34.0303949,41.277729 35.7251961,40.5928733 37.376652,40.5538625 C38.1557977,40.5191683 38.9322256,40.6676249 39.6436112,40.9873155 C40.2353717,41.2982068 40.802019,41.6547164 41.3384124,42.0536099 C41.7753721,42.3749919 42.2612973,42.623809 42.7774764,42.79048 C43.1655347,42.9114078 43.5754527,42.9454443 43.9781412,42.8901742 C44.3204979,42.8358895 44.6430132,42.6940425 44.9143997,42.4783938 Z" id="Path" fill="#263238"></path>
                    <path d="M45.2481585,49.8470948 C45.2481585,49.8470948 45.2178168,49.8991092 45.1354607,49.9857998 C45.0197056,50.1136323 44.8903492,50.2284543 44.7496875,50.3282276 C44.2185428,50.6849736 43.6056123,50.9012143 42.9681957,50.9567345 C42.025647,51.0346066 41.0774566,50.905913 40.189762,50.5796304 C39.184151,50.2372025 38.1568674,49.6910517 37.0472278,49.2402606 C36.0160131,48.7864664 34.8964472,48.568773 33.7703231,48.6030847 C32.852581,48.6507479 31.9516466,48.8682655 31.1132562,49.2445951 C30.3457238,49.6123487 29.6348583,50.0882052 29.0023401,50.6576519 C29.0023401,50.6576519 29.0326818,50.601303 29.1107034,50.5146124 C29.2241695,50.385594 29.3457855,50.2639781 29.4748039,50.1505119 C29.9460503,49.7289966 30.4742611,49.3758833 31.0439037,49.1015556 C31.8954407,48.692719 32.8186499,48.4541865 33.761654,48.3993618 C34.9181508,48.3467316 36.0710716,48.5633679 37.1295838,49.0322032 C38.2608962,49.4916633 39.2968488,50.0378141 40.2591145,50.3845765 C41.1172383,50.7102952 42.0346025,50.8506327 42.9508576,50.7963569 C43.563807,50.7569983 44.1583753,50.5711957 44.6846696,50.2545406 C45.0791118,50.0161415 45.2308204,49.8470948 45.2481585,49.8470948 Z" id="Path" fill="#263238"></path>
                    <path d="M47.6798298,56.9297168 C47.6798298,56.9297168 47.4500997,56.7693392 47.0036431,56.5396091 C46.3674381,56.2340275 45.6791314,56.0516556 44.9750831,56.0021274 C43.9273656,55.9338766 42.8757583,56.0482774 41.8672251,56.3402207 C40.7229092,56.6436378 39.5049063,57.1334397 38.1872091,57.5495546 C36.9457373,57.9659828 35.6431814,58.1711098 34.333812,58.1563888 C33.2730602,58.1390971 32.2204034,57.9682776 31.2086159,57.6492488 C30.5223704,57.4309295 29.8612575,57.1403304 29.2364047,56.7823428 C29.0153437,56.6609759 28.8506316,56.5526127 28.7422683,56.4789257 C28.6823923,56.4439755 28.6270684,56.4017546 28.5775562,56.3532243 C28.5775562,56.3532243 28.8289589,56.4832602 29.27975,56.7043212 C30.8538029,57.5024146 32.5907484,57.9266387 34.3554846,57.9439968 C35.640512,57.9461827 36.9172535,57.7382729 38.1351948,57.3284936 C39.4355538,56.9167132 40.6665603,56.4312458 41.8325489,56.1321633 C42.8641843,55.8457589 43.938686,55.7459418 45.0054248,55.8374152 C45.7256823,55.900209 46.4251787,56.1112385 47.059992,56.457253 C47.2308298,56.5531501 47.3932333,56.6633525 47.5454594,56.7866773 C47.640819,56.8733679 47.6798298,56.9210477 47.6798298,56.9297168 Z" id="Path" fill="#263238"></path>
                    <polygon id="Path" fill="#263238" points="26.4146257 61.5373222 22.0454195 111.640154 32.8427337 111.700838 38.1742056 71.5500864 45.1397952 112.064938 55.941444 110.071054 49.3182821 61.9577716"></polygon>
                    <path d="M45.907007,70.2193857 C45.907007,70.2844037 42.2139875,70.7742056 37.6410584,71.3160218 C33.0681292,71.8578381 29.3577716,72.2479458 29.3490873,72.1829278 C29.3404335,72.1179099 33.0421221,71.6324425 37.6150512,71.0906262 C42.1879803,70.54881 45.898338,70.1760404 45.907007,70.2193857 Z" id="Path" fill="#455A64"></path>
                    <path d="M59.4220715,137.638665 L59.3917298,136.836777 L51.255817,137.070842 L51.3251695,139.723574 L51.827975,139.723574 C54.068927,139.779923 63.2191198,139.857944 64.7015291,139.398484 C66.352985,138.895679 59.4220715,137.638665 59.4220715,137.638665 Z" id="Path" fill="#ED2012"></path>
                    <g id="Group" opacity="0.6" transform="translate(51.147454, 137.404600)" fill="#FFFFFF">
                        <path d="M3.11219253,2.16726499 C2.96468462,1.52271098 2.5772065,0.958542835 2.02856003,0.589496078 C1.4698312,0.203713919 0.793001407,0.0272163536 0.11703231,0.0910251296 L0.182050259,2.1976067 L3.11219253,2.16726499 Z" id="Path"></path>
                    </g>
                    <g id="Group" opacity="0.6" transform="translate(51.147454, 138.271506)" fill="#FFFFFF">
                        <path d="M11.6642202,0.0953596596 C11.6642202,0.0953596596 14.0958915,0.676186677 13.8314852,1.05329079 C13.5670788,1.43039489 4.29551921,1.67312857 0.199388379,1.45206754 L0.199388379,1.28302087 L10.992368,1.0836325 C10.992368,1.0836325 11.1917564,0.125701369 11.6642202,0.0953596596 Z" id="Path"></path>
                    </g>
                    <path d="M51.2038027,139.571865 L51.3468422,139.571865 L51.7456189,139.571865 L53.2193591,139.593538 C54.4633692,139.593538 56.1841776,139.593538 58.0870363,139.545858 C59.989895,139.498178 61.7020343,139.415822 62.9460444,139.34647 L64.4154501,139.25111 L64.8142268,139.216434 L64.9529318,139.216434 L64.8142268,139.216434 L64.4154501,139.216434 L62.9417099,139.281452 C61.6976998,139.337801 59.9812259,139.407153 58.0827018,139.454833 C56.1841776,139.502513 54.4633692,139.519851 53.2193591,139.52852 L51.7456189,139.52852 L51.3468422,139.52852 L51.2038027,139.571865 Z" id="Path" fill="#263238"></path>
                    <path d="M62.1268182,139.472171 C62.1853706,139.243106 62.2712316,139.021905 62.3825555,138.813323 C62.51558,138.614044 62.6728252,138.432047 62.8506847,138.271506 C62.6056949,138.357947 62.4017053,138.532575 62.2785268,138.761308 C62.1351978,138.968556 62.0805827,139.224467 62.1268182,139.472171 L62.1268182,139.472171 Z" id="Path" fill="#263238"></path>
                    <path d="M59.703816,138.405877 C59.703816,138.405877 59.8381864,138.288845 59.9508842,138.111129 C60.063582,137.933413 60.1329345,137.781705 60.1112618,137.768701 C60.0895892,137.755697 59.9768914,137.890068 59.8641936,138.063449 C59.7514958,138.23683 59.6778088,138.392873 59.703816,138.405877 Z" id="Path" fill="#263238"></path>
                    <path d="M59.0362984,138.10246 C59.0362984,138.10246 59.1793379,138.037442 59.3180428,137.916075 C59.4567478,137.794708 59.5477729,137.686345 59.5304348,137.664672 C59.5130967,137.643 59.3830608,137.72969 59.2486903,137.851057 C59.1143199,137.972424 59.0189602,138.085122 59.0362984,138.10246 Z" id="Path" fill="#263238"></path>
                    <path d="M58.5985108,137.4046 C58.7383591,137.449367 58.8863697,137.462688 59.0319638,137.443611 C59.1785258,137.459866 59.3268618,137.442066 59.4654168,137.391597 C59.3255686,137.346831 59.177558,137.33351 59.0319638,137.352586 C58.8854728,137.341618 58.7382478,137.359285 58.5985108,137.4046 Z" id="Path" fill="#263238"></path>
                    <path d="M58.4424678,136.90613 C58.7464089,137.041808 59.0908068,137.05577 59.4047334,136.94514 C59.2446191,136.932144 59.0837149,136.932144 58.9236006,136.94514 C58.7646369,136.918375 58.6036669,136.905324 58.4424678,136.90613 L58.4424678,136.90613 Z" id="Path" fill="#263238"></path>
                    <path d="M59.9552187,137.742694 C60.1290633,137.768892 60.3058523,137.768892 60.4796968,137.742694 C60.6664057,137.716377 60.8505563,137.674327 61.0301822,137.616992 C61.1379769,137.583305 61.2424455,137.539777 61.3422683,137.486957 C61.4016102,137.451797 61.446251,137.396381 61.4679697,137.330913 C61.4809152,137.255578 61.4465505,137.179976 61.3812791,137.140194 C60.9687733,136.964243 60.489614,137.082707 60.2066215,137.430608 C60.1318482,137.528116 60.0786582,137.640406 60.0505784,137.760032 C60.0391744,137.802627 60.0391744,137.847473 60.0505784,137.890068 C60.100456,137.733793 60.1766862,137.587196 60.2759739,137.456615 C60.3911525,137.323881 60.5413638,137.226243 60.7094269,137.17487 C60.9121738,137.106783 61.132934,137.116045 61.3292647,137.200878 C61.4159553,137.252892 61.3856136,137.343917 61.2945885,137.400266 C61.2020839,137.450327 61.1047927,137.490986 61.004175,137.521633 C60.8316275,137.583253 60.6549093,137.632502 60.4753623,137.669007 C60.1546071,137.721021 59.9552187,137.72969 59.9552187,137.742694 Z" id="Path" fill="#263238"></path>
                    <path d="M60.0939237,137.764366 C60.1506156,137.661288 60.1675778,137.54101 60.1416035,137.426273 C60.1234261,137.297756 60.0710274,137.17649 59.989895,137.075176 C59.893319,136.929934 59.730858,136.842205 59.556442,136.841112 C59.5062506,136.850536 59.4619355,136.879696 59.4334201,136.922062 C59.4049046,136.964428 59.3945711,137.01646 59.4047334,137.066507 C59.4204231,137.144811 59.4529623,137.218764 59.5000931,137.283234 C59.5715443,137.388775 59.6560106,137.484892 59.7514958,137.569313 C59.8374341,137.655495 59.9430581,137.719464 60.0592474,137.755697 C60.0592474,137.755697 59.9508842,137.673341 59.8035102,137.521633 C59.7177658,137.436723 59.6421313,137.34218 59.5781146,137.239888 C59.5000931,137.13586 59.4480787,136.953809 59.5781146,136.927802 C59.7173407,136.940223 59.844104,137.013112 59.924877,137.127191 C60.0021649,137.216537 60.0558153,137.323838 60.0809201,137.439277 C60.0961452,137.54693 60.1005016,137.655841 60.0939237,137.764366 L60.0939237,137.764366 Z" id="Path" fill="#263238"></path>
                    <path d="M51.3078314,137.486957 C51.3078314,137.486957 51.541896,137.460949 51.9059965,137.486957 C52.3796339,137.523359 52.8354573,137.683271 53.2280282,137.950751 C53.610439,138.213185 53.9109444,138.578299 54.0949342,139.004042 C54.160804,139.178597 54.2172345,139.35657 54.2639809,139.537189 C54.2639809,139.537189 54.2639809,139.48084 54.2639809,139.385481 C54.2481206,139.247401 54.2146159,139.111925 54.1642867,138.982369 C53.995297,138.533868 53.6926978,138.148054 53.2973807,137.877064 C52.8892739,137.599945 52.4118805,137.442315 51.9190001,137.421939 C51.7741547,137.414464 51.6289246,137.421726 51.4855471,137.443611 C51.4244254,137.448794 51.3644757,137.463416 51.3078314,137.486957 Z" id="Path" fill="#263238"></path>
                    <path d="M55.2565882,138.821992 C55.6476973,138.897233 56.0466584,138.923442 56.4442494,138.900013 C56.8419403,138.908151 57.2391839,138.868863 57.6275761,138.782981 C57.6275761,138.752639 57.0944289,138.782981 56.4442494,138.808988 C55.7940699,138.834995 55.2609227,138.795985 55.2565882,138.821992 Z" id="Path" fill="#263238"></path>
                    <path d="M53.6701502,138.861003 C53.6701502,138.882675 53.7178301,138.965031 53.774179,139.077729 C53.8305279,139.190427 53.8652041,139.285786 53.8912113,139.285786 C53.9172185,139.285786 53.930222,139.16442 53.8608696,139.034384 C53.7915171,138.904348 53.6874884,138.843664 53.6701502,138.861003 Z" id="Path" fill="#263238"></path>
                    <path d="M53.0503125,138.184816 C53.0503125,138.184816 53.0849887,138.280176 53.1716793,138.358197 C53.2583699,138.436219 53.3450605,138.479564 53.3623986,138.462226 C53.3797367,138.444888 53.3277224,138.366866 53.2410318,138.293179 C53.1543412,138.219492 53.0676506,138.167478 53.0503125,138.184816 Z" id="Path" fill="#263238"></path>
                    <path d="M52.1834065,137.890068 C52.1834065,137.916075 52.3004388,137.91174 52.4174711,137.950751 C52.5345034,137.989762 52.6255285,138.041776 52.6472012,138.024438 C52.6688738,138.0071 52.5995213,137.903071 52.4478128,137.859726 C52.2961042,137.816381 52.1747374,137.868395 52.1834065,137.890068 Z" id="Path" fill="#263238"></path>
                    <path d="M51.5809068,137.760032 C51.5809068,137.781705 51.6199176,137.820715 51.6849355,137.842388 C51.7499535,137.864061 51.8149714,137.864061 51.8236405,137.842388 C51.8323095,137.820715 51.7889642,137.781705 51.7196118,137.760032 C51.6502593,137.738359 51.5809068,137.734025 51.5809068,137.760032 Z" id="Path" fill="#263238"></path>
                    <polygon id="Path" fill="#ED2012" points="21.616301 134.188379 20.4113017 139.485175 28.551549 139.485175 28.8983114 136.034889"></polygon>
                    <path d="M28.7162611,138.704959 C28.3252394,138.768522 27.9285663,138.790317 27.5329345,138.769977 C26.8003989,138.769977 25.7991225,138.769977 24.6721447,138.717963 L21.8156894,138.596596 C21.4191254,138.602113 21.0229259,138.570185 20.6323627,138.501237 C21.0237081,138.440754 21.4202099,138.42042 21.8156894,138.440553 C22.548225,138.440553 23.5495014,138.440553 24.6808137,138.492567 L27.5329345,138.613934 C27.9293933,138.605898 28.3256957,138.636382 28.7162611,138.704959 L28.7162611,138.704959 Z" id="Path" fill="#263238"></path>
                    <path d="M25.2703098,135.237335 C25.3459831,135.812796 25.3459831,136.395687 25.2703098,136.971147 C25.2673691,137.544781 25.191632,138.115722 25.0449142,138.670283 C24.9651492,138.095098 24.9651492,137.511656 25.0449142,136.936471 C25.0444282,136.362608 25.1202238,135.791225 25.2703098,135.237335 L25.2703098,135.237335 Z" id="Path" fill="#263238"></path>
                    <polyline id="Path" fill="#FFFFFF" opacity="0.6" points="20.4113017 139.485175 28.551549 139.485175 28.6295705 138.717963 20.5586757 138.51424 20.4113017 139.39415"></polyline>
                    <path d="M72.5123521,11.703231 L69.543199,12.7738599 C69.5041883,11.5861986 68.676293,10.3465231 68.676293,10.9403537 C68.676293,11.5341843 68.3945486,14.607366 68.3945486,14.607366 L62.2048398,25.378673 C61.3379338,27.112485 59.7905066,28.0964233 58.6765324,28.2741391 L53.5964632,29.3577716 L55.0485308,36.0632895 L62.1268182,34.3294775 C63.9634614,33.8775525 65.4768819,32.581254 66.205611,30.8358463 L72.0919027,16.7182821 C72.4828838,15.8102846 72.8144514,14.8778412 73.08451,13.9268448 C73.225628,13.1377262 73.0168228,12.3262332 72.5123521,11.703231 L72.5123521,11.703231 Z" id="Path" fill="#FFBE9D"></path>
                </g>
            </g>
        </g>
    </g>
</svg>