<svg xmlns="http://www.w3.org/2000/svg" width="90" height="30" viewBox="0 0 90 30">
    <g fill="none" fill-rule="evenodd">
        <g fill="#FFF">
            <g>
                <path d="M116.073 276.06c2.868 0 5.4.524 7.594 1.572 1.934.927 2.467 1.42 2.941 1.898l.129.13.065.065c.79.787 1.778 2.749 1.9 2.984l.012.02-11.197 19.224c-.314.021-.633.035-.956.042l-.488.005h-12.686v-25.94h12.686zm-35.073 0l20.804.002v6.729l-12.093-.001v3.112l12.093.002v6.225l-12.093-.001v3.113h12.093V302L81 301.999V276.06zm69.196 0l20.804.002v6.729l-12.092-.001v3.112l12.092.002v6.225l-12.092-.001v3.113H171V302l-20.804-.001V276.06zM137.541 272c2.481 0 4.704.423 6.669 1.265 1.189.51 2.259 1.156 3.2 1.956l-3.8 6.56c-1.582-1.852-3.464-2.776-5.635-2.776-1.877 0-3.37.573-4.482 1.724-.893.924-2.131 3.295-2.577 4.178l-.124.249-.045.09s1.629 3.66 2.725 4.831c1.101 1.177 2.564 1.76 4.394 1.76 1.086 0 2.125-.206 3.113-.624v-6.489h7.408v10.856c-1.494 1.053-3.231 1.858-5.2 2.42-1.981.563-3.92.842-5.827.842-2.694 0-5.118-.568-7.27-1.703-2.14-1.136-3.825-2.725-5.04-4.77-.062-.103-.124-.212-.18-.32l11.57-20.013c.361-.026.728-.036 1.1-.036zm-21.835 10.805h-3.642v12.45h3.642c1.864 0 3.355-.612 4.47-1.685 1.114-1.074 2.91-4.557 2.91-4.557s-1.796-3.448-2.91-4.522c-1.115-1.074-2.606-1.613-4.47-1.686z" transform="translate(-78 -5445) translate(-3 5173)"/>
            </g>
        </g>
    </g>
</svg>
