<svg xmlns="http://www.w3.org/2000/svg" width="799" height="411" viewBox="0 0 799 411">
    <g fill="none" fill-rule="evenodd">
        <g fill-rule="nonzero">
            <g>
                <g>
                    <path fill="#F5F5F5" d="M111.836 0.206L114.388 288.065 0.14 288.065 0.14 4.13z" transform="translate(-601 -197) translate(601 197) translate(0 115)"/>
                    <path fill="#CACACA" d="M50.287 2.371L51.298 288.065.14 288.065.14 4.13zM108.249 3.761L108.249 44.102 54.133 44.102 54.133 5.668z" transform="translate(-601 -197) translate(601 197) translate(0 115)"/>
                    <path fill="#F5F5F5" d="M89.586 14.858L89.586 20.813 73.03 20.813 73.03 14.317zM72.488 25.832H89.586V28.268H72.488z" transform="translate(-601 -197) translate(601 197) translate(0 115)"/>
                    <path fill="#CACACA" d="M108.249 145.144L108.249 185.497 54.133 185.497 54.133 147.051z" transform="translate(-601 -197) translate(601 197) translate(0 115)"/>
                    <path fill="#F5F5F5" d="M89.586 156.253L89.586 162.208 73.03 162.208 73.03 155.712zM72.488 167.215H89.586V169.651H72.488z" transform="translate(-601 -197) translate(601 197) translate(0 115)"/>
                    <path fill="#CACACA" d="M108.249 49.244L108.249 89.597 54.133 89.597 54.133 51.151z" transform="translate(-601 -197) translate(601 197) translate(0 115)"/>
                    <path fill="#F5F5F5" d="M89.586 60.341L89.586 66.308 73.03 66.308 73.03 59.8zM72.488 71.315H89.586V73.751H72.488z" transform="translate(-601 -197) translate(601 197) translate(0 115)"/>
                    <path fill="#CACACA" d="M108.249 190.627L108.249 230.968 54.133 230.968 54.133 192.534z" transform="translate(-601 -197) translate(601 197) translate(0 115)"/>
                    <path fill="#F5F5F5" d="M89.586 201.724L89.586 207.679 73.03 207.679 73.03 201.183zM72.488 212.698H89.586V215.13400000000001H72.488z" transform="translate(-601 -197) translate(601 197) translate(0 115)"/>
                    <path fill="#CACACA" d="M108.828 236.098L108.828 276.451 54.712 276.451 54.712 238.005z" transform="translate(-601 -197) translate(601 197) translate(0 115)"/>
                    <path fill="#F5F5F5" d="M90.165 247.195L90.165 253.162 73.61 253.162 73.61 246.654zM73.067 258.169H90.16499999999999V260.60499999999996H73.067z" transform="translate(-601 -197) translate(601 197) translate(0 115)"/>
                    <path fill="#CACACA" d="M54.836 97.557H108.952V137.91H54.836z" transform="translate(-601 -197) translate(601 197) translate(0 115)"/>
                    <path fill="#F5F5F5" d="M89.931 115.741L89.931 121.338 74.362 121.338 74.362 115.236zM73.856 126.05H89.931V128.338H73.856zM445.384 252.941L445.384 288.114 496.924 288.114 553.764 288.114 553.764 252.941z" transform="translate(-601 -197) translate(601 197) translate(0 115)"/>
                    <path fill="#CACACA" d="M440.835 243.111L440.835 252.941 557.548 252.941 557.548 243.111 496.924 243.111z" transform="translate(-601 -197) translate(601 197) translate(0 115)"/>
                    <path fill="#CACACA" d="M499.192 288.114L553.764 288.114 553.764 252.941 557.548 252.941 557.548 243.111 496.924 243.111 496.924 252.03zM460.546 258.612H482.525V263.90200000000004H460.546z" transform="translate(-601 -197) translate(601 197) translate(0 115)"/>
                    <path fill="#FFF" d="M457.711 270.521H485.928V281.704H457.711z" transform="translate(-601 -197) translate(601 197) translate(0 115)"/>
                    <path fill="#F5F5F5" d="M585.408 207.937L585.408 243.111 636.935 243.111 693.776 243.111 693.776 207.937z" transform="translate(-601 -197) translate(601 197) translate(0 115)"/>
                    <path fill="#CACACA" d="M580.859 198.107L580.859 207.937 697.56 207.937 697.56 198.107 636.935 198.107z" transform="translate(-601 -197) translate(601 197) translate(0 115)"/>
                    <path fill="#CACACA" d="M639.216 243.111L693.776 243.111 693.776 207.937 697.56 207.937 697.56 198.107 636.935 198.107 636.935 207.027z" transform="translate(-601 -197) translate(601 197) translate(0 115)"/>
                    <path fill="#E0E0E0" d="M600.558 213.609H622.537V218.899H600.558z" transform="translate(-601 -197) translate(601 197) translate(0 115)"/>
                    <path fill="#FFF" d="M597.735 225.518H625.952V236.701H597.735z" transform="translate(-601 -197) translate(601 197) translate(0 115)"/>
                    <path fill="#F5F5F5" d="M580.206 252.941L580.206 288.114 631.745 288.114 688.586 288.114 688.586 252.941z" transform="translate(-601 -197) translate(601 197) translate(0 115)"/>
                    <path fill="#CACACA" d="M575.669 243.111L575.669 252.941 692.37 252.941 692.37 243.111 631.745 243.111z" transform="translate(-601 -197) translate(601 197) translate(0 115)"/>
                    <path fill="#CACACA" d="M634.026 288.114L688.586 288.114 688.586 252.941 692.37 252.941 692.37 243.111 631.745 243.111 631.745 252.03z" transform="translate(-601 -197) translate(601 197) translate(0 115)"/>
                    <path fill="#E0E0E0" d="M595.368 258.612H617.3470000000001V263.90200000000004H595.368z" transform="translate(-601 -197) translate(601 197) translate(0 115)"/>
                    <path fill="#FFF" d="M592.545 270.521H620.762V281.704H592.545z" transform="translate(-601 -197) translate(601 197) translate(0 115)"/>
                    <path fill="#F5F5F5" d="M687.057 0.058L684.506 287.905 798.741 287.905 798.741 3.983z" transform="translate(-601 -197) translate(601 197) translate(0 115)"/>
                    <path fill="#CACACA" d="M748.607 2.223L747.596 287.905 798.741 287.905 798.741 3.983zM690.644 3.613L690.644 43.954 744.761 43.954 744.761 5.52z" transform="translate(-601 -197) translate(601 197) translate(0 115)"/>
                    <path fill="#F5F5F5" d="M709.308 14.711L709.308 20.665 725.863 20.665 725.863 14.169zM709.308 25.685H726.406V28.121H709.308z" transform="translate(-601 -197) translate(601 197) translate(0 115)"/>
                    <path fill="#CACACA" d="M690.644 144.996L690.644 185.349 744.761 185.349 744.761 146.903z" transform="translate(-601 -197) translate(601 197) translate(0 115)"/>
                    <path fill="#F5F5F5" d="M709.308 156.106L709.308 162.06 725.863 162.06 725.863 155.565zM709.308 167.068H726.406V169.50400000000002H709.308z" transform="translate(-601 -197) translate(601 197) translate(0 115)"/>
                    <path fill="#CACACA" d="M690.644 49.097L690.644 89.45 744.761 89.45 744.761 51.004z" transform="translate(-601 -197) translate(601 197) translate(0 115)"/>
                    <path fill="#F5F5F5" d="M709.308 60.194L709.308 66.161 725.863 66.161 725.863 59.652zM709.308 71.168H726.406V73.60400000000001H709.308z" transform="translate(-601 -197) translate(601 197) translate(0 115)"/>
                    <path fill="#CACACA" d="M690.644 190.48L690.644 230.82 744.761 230.82 744.761 192.387z" transform="translate(-601 -197) translate(601 197) translate(0 115)"/>
                    <path fill="#F5F5F5" d="M709.308 201.577L709.308 207.531 725.863 207.531 725.863 201.035zM709.308 212.551H726.406V214.987H709.308z" transform="translate(-601 -197) translate(601 197) translate(0 115)"/>
                    <path fill="#CACACA" d="M690.065 235.951L690.065 276.304 744.181 276.304 744.181 237.858z" transform="translate(-601 -197) translate(601 197) translate(0 115)"/>
                    <path fill="#F5F5F5" d="M708.716 247.048L708.716 253.014 725.284 253.014 725.284 246.506zM708.716 258.022H725.814V260.45799999999997H708.716z" transform="translate(-601 -197) translate(601 197) translate(0 115)"/>
                    <path fill="#CACACA" d="M689.942 97.41H744.058V137.763H689.942z" transform="translate(-601 -197) translate(601 197) translate(0 115)"/>
                    <path fill="#F5F5F5" d="M708.963 115.593L708.963 121.191 724.532 121.191 724.532 115.076zM708.963 125.903H725.038V128.191H708.963z" transform="translate(-601 -197) translate(601 197) translate(0 115)"/>
                </g>
                <g transform="translate(-601 -197) translate(601 197) translate(221 4)">
                    <path fill="#EA0028" d="M5.595 68.274l8.694 148.367c.307 5.285 4.673 9.417 9.963 9.428l266.862.813c2.654.01 5.203-1.036 7.086-2.909 1.882-1.872 2.944-4.417 2.95-7.073l.358-115.524c.006-2.668-1.05-5.228-2.937-7.114-1.886-1.885-4.446-2.94-7.112-2.93l-164.12.555c-2.652.01-5.2-1.037-7.08-2.909L91.822 60.781c-1.869-1.851-4.39-2.895-7.02-2.908l-69.184-.21c-2.762-.004-5.403 1.132-7.3 3.14-1.898 2.009-2.883 4.712-2.724 7.471z"/>
                    <path fill="#000" d="M5.595 68.274l8.694 148.367c.307 5.285 4.673 9.417 9.963 9.428l266.862.813c2.654.01 5.203-1.036 7.086-2.909 1.882-1.872 2.944-4.417 2.95-7.073l.358-115.524c.006-2.668-1.05-5.228-2.937-7.114-1.886-1.885-4.446-2.94-7.112-2.93l-164.12.555c-2.652.01-5.2-1.037-7.08-2.909L91.822 60.781c-1.869-1.851-4.39-2.895-7.02-2.908l-69.184-.21c-2.762-.004-5.403 1.132-7.3 3.14-1.898 2.009-2.883 4.712-2.724 7.471z" opacity=".3"/>
                    <path fill="#FFF" d="M26.138 36.767L171.015 36.716 170.974 152.518 26.097 152.57z" transform="rotate(-52.7 98.556 94.643)"/>
                    <path fill="#263238" d="M96.38 1.886l-.407.566-1.231 1.615c-1.084 1.442-2.672 3.537-4.729 6.285L72.12 33.989 8.859 117.335l-.062-.394 92.115 70.172-.456.062 87.792-115.24.062.37-66.734-51.046-18.62-14.284-4.926-3.77-1.65-1.32 1.675 1.233 4.926 3.697 18.62 14.136 67.041 50.922.21.16-.16.222-87.706 115.314-.197.259-.259-.197-92.066-70.246-.221-.173.172-.234 63.606-83.322 17.98-23.501 4.753-6.162 1.232-1.578.394-.53z"/>
                    <path fill="#BEB2B2" d="M31.164 44.124L165.864 44.077 165.828 145.307 31.128 145.355z" transform="rotate(-52.7 98.496 94.716)"/>
                    <path fill="#455A64" d="M97.956 180.249L76.405 104.667 125.369 105.344 120.603 76.852 179.542 73.068z"/>
                    <ellipse cx="89.009" cy="74.114" fill="#455A64" rx="10.603" ry="10.611" transform="rotate(-7.77 89.009 74.114)"/>
                    <path fill="#FFF" d="M132.632 -15.426L293.889 -15.43 293.883 186.126 132.626 186.131z" transform="rotate(-87.64 213.257 85.35)"/>
                    <path fill="#263238" d="M317.221 8.91h-.96l-2.808-.098-10.923-.42-41.206-1.614-145.5-5.854.296-.27c-1.958 47.951-4.211 102.928-6.588 161.109l-.308-.333 201.433 8.331-.27.259c2.056-48.556 3.756-88.806 4.925-116.916.616-14.074 1.096-25.117 1.417-32.634.172-3.759.295-6.643.381-8.627.087-1.984.148-2.957.148-2.957s0 .973-.086 2.908-.185 4.806-.32 8.54c-.296 7.518-.727 18.486-1.232 32.585-1.12 28.16-2.734 68.471-4.68 117.076v.26h-.283L109.2 162.058h-.32v-.32c2.4-58.182 4.679-113.158 6.662-161.11V.345h.283l145.672 6.162 41.131 1.775 10.862.48 2.783.124.948.024z"/>
                    <path fill="#BEB2B2" d="M142.639 -8.352L283.6 -8.356 283.594 179.039 142.634 179.043z" transform="rotate(-87.64 213.117 85.344)"/>
                    <path fill="#263238" d="M116.576 151.879L185.564 67.029 223.826 123.473 252.507 95.325 303.81 159.594z"/>
                    <ellipse cx="228.965" cy="58.078" fill="#263238" rx="14.763" ry="14.754" transform="rotate(-77.36 228.965 58.078)"/>
                    <path fill="#EBEBEB" d="M326.975 78.17L54.177 115.758 83.068 315.7 353.624 277.558z"/>
                    <path fill="#E0E0E0" d="M328.021 53.227L58.376 109.152 100.69 306.692 368.057 250.359z"/>
                    <path fill="#FFF" d="M304.205 31.056L44.448 122.524 112.734 312.644 370.2 221.078z"/>
                    <path fill="#263238" d="M304.205 31.056c.714 2.046 26.12 74.868 66.24 189.935l.087.247-.246.086-257.38 91.616-.308.11-.098-.307-.505-1.38c-24.297-67.696-47.338-131.866-67.731-188.74l-.099-.284.271-.086 259.842-91.197-259.731 91.739.172-.37 67.818 188.716.505 1.392-.419-.197 257.49-91.505-.16.333C330.127 105.985 304.92 33.102 304.205 31.056z"/>
                    <path fill="#263238" d="M311.532 213.413c-.505.184-12.98-32.24-27.869-72.416-14.888-40.175-26.575-72.895-26.07-73.081.505-.184 12.967 32.228 27.868 72.416 14.901 40.188 26.563 72.87 26.07 73.081zM289.34 223.556c-.492.184-12.98-32.24-27.868-72.404-14.888-40.163-26.563-72.908-26.07-73.093.492-.185 12.98 32.24 27.88 72.415 14.901 40.176 26.563 72.896 26.059 73.082zM220.464 252.43c-.493.184-12.98-32.24-27.869-72.415-14.888-40.176-26.563-72.896-26.07-73.082.493-.184 12.98 32.228 27.868 72.416 14.889 40.188 26.563 72.896 26.07 73.081zM242.421 243.582c-.505.184-12.98-32.24-27.868-72.416-14.889-40.176-26.576-72.896-26.07-73.081.504-.184 12.967 32.228 27.868 72.416 14.9 40.188 26.575 72.895 26.07 73.08zM264.366 234.733c-.492.184-12.967-32.24-27.868-72.403-14.901-40.164-26.563-72.908-26.07-73.094.492-.184 12.98 32.24 27.88 72.416 14.9 40.176 26.563 72.896 26.058 73.081zM195.034 259.75c-.493.185-12.98-32.24-27.869-72.415-14.888-40.176-26.563-72.896-26.07-73.081.493-.184 12.98 32.227 27.88 72.416 14.902 40.188 26.564 72.895 26.059 73.08zM170.712 268.66c-.493.185-12.967-32.24-27.868-72.403-14.901-40.163-26.563-72.895-26.07-73.019.492-.123 12.979 32.24 27.88 72.416 14.9 40.175 26.563 72.834 26.058 73.007zM146.403 277.596c-.505.184-12.98-32.24-27.881-72.404-14.901-40.163-26.563-72.908-26.058-73.093.505-.184 12.967 32.24 27.868 72.415 14.901 40.176 26.539 72.896 26.07 73.082z"/>
                    <path fill="#ED2012" d="M.14 149.488l21.71 181.888c.386 3.23 3.117 5.667 6.367 5.682l284.152.862c3.363.018 6.17-2.561 6.44-5.915l14.865-181.777c.144-1.792-.465-3.563-1.68-4.887-1.216-1.324-2.928-2.08-4.724-2.088l-320.714-.974c-1.845-.006-3.604.78-4.83 2.159-1.228 1.378-1.805 3.217-1.586 5.05z"/>
                </g>
                <g>
                    <path fill="#BF7A62" d="M48.469 83.782L38.839 90.631 44.458 118.05 57.108 106.836z" transform="translate(-601 -197) translate(601 197) translate(519 20)"/>
                    <path fill="#455A64" d="M50.66 290.004l40.039-19.329 51.365 6.148c3.44 2.574 5.749 6.365 6.448 10.587.34 1.364.132 2.806-.582 4.02-1.15 1.599-3.515 1.795-5.433 1.328-1.918-.467-3.713-1.463-5.681-1.697-3.825-.442-7.352 1.98-10.224 4.525-2.871 2.545-5.73 5.447-9.48 6.308-3.374.55-6.834-.094-9.778-1.82-2.995-1.55-5.669-3.689-8.664-5.349-5.428-3.255-11.778-4.659-18.083-3.996-4.95.652-9.654 2.816-14.63 3.603-4.975.787-12.661-.086-15.36-4.303" transform="translate(-601 -197) translate(601 197) translate(519 20)"/>
                    <path fill="#D89377" d="M146.123 368.93s-32.799-111.091-33.418-114.645c-.569-3.209 4.543-81.04 6.833-101.23l-36.13.296v.344l-17.166.418 7.674 220.903 22.217 1.697-.149-72.889c14.01 35.203 30.262 74.4 30.262 74.4l19.877-9.295z" transform="translate(-601 -197) translate(601 197) translate(519 20)"/>
                    <path fill="#BF7A62" d="M81.342 249.195s-.074.86-.149 2.459c-.128 2.192-.095 4.39.1 6.578.272 3.248.814 6.468 1.62 9.628 1.065 3.852 2.371 7.634 3.912 11.324 3.045 7.967 5.768 15.21 7.699 20.447.915 2.558 1.683 4.66 2.252 6.234.302.757.55 1.533.743 2.324-.39-.716-.724-1.46-1.003-2.225-.619-1.562-1.46-3.689-2.475-6.148-2.055-5.201-4.852-12.406-7.897-20.386-.755-1.992-1.497-3.947-2.203-5.828-.665-1.829-1.226-3.692-1.683-5.583-.78-3.2-1.277-6.463-1.485-9.75-.141-2.213-.1-4.433.123-6.64.087-.787.186-1.377.273-1.782.018-.226.077-.447.173-.652z" transform="translate(-601 -197) translate(601 197) translate(519 20)"/>
                    <path fill="#BF7A62" d="M96.034 330.334c0-.677.507-24.727.507-24.727s-8.045-22.316-8.256-21.64c-.21.676 7.749 46.367 7.749 46.367z" transform="translate(-601 -197) translate(601 197) translate(519 20)"/>
                    <path fill="#EA0028" d="M72.666 374.942v-2.46l23.516.468-.124 8.189-1.448.074c-6.473.233-32.948.774-37.255-.603-4.69-1.574 15.31-5.668 15.31-5.668z" transform="translate(-601 -197) translate(601 197) translate(519 20)"/>
                    <g fill="#FFF" opacity=".3">
                        <path d="M.118 6.996c.38-1.96 1.478-3.713 3.082-4.918C4.77.88 6.736.314 8.707.492l-.111 6.504H.118z" transform="translate(-601 -197) translate(601 197) translate(519 20) translate(87.549 373.786)"/>
                    </g>
                    <path fill="#FFF" d="M62.888 377.29s-7.03 1.87-6.189 3.037c.842 1.169 27.626 1.611 39.446.787v-.516l-31.227-.27s-.669-2.964-2.03-3.038z" opacity=".3" transform="translate(-601 -197) translate(601 197) translate(519 20)"/>
                    <path fill="#263238" d="M96.541 380.586c-.136.016-.273.016-.408 0H94.98l-4.27.11c-3.601.062-8.577.099-14.072 0-5.496-.098-10.471-.283-14.073-.467l-4.258-.246-1.15-.086h-.41H58.309l4.27.16c3.602.135 8.565.295 14.06.381 5.496.086 10.472.098 14.073.086h5.422l.408.062z" transform="translate(-601 -197) translate(601 197) translate(519 20)"/>
                    <path fill="#263238" d="M64.905 380.684c-.174-.704-.432-1.385-.767-2.029-.41-.6-.888-1.154-1.423-1.647.726.273 1.323.809 1.67 1.5.432.64.616 1.412.52 2.176zM71.886 377.315c-.074 0-.396-.369-.73-.91-.24-.307-.405-.664-.483-1.045.074 0 .396.357.73.898.241.31.406.672.483 1.057zM73.792 376.356s-.408-.197-.817-.566c-.408-.369-.668-.713-.619-.774.05-.062.421.196.817.565.396.37.68.664.619.775zM75.042 374.18c-.399.13-.821.172-1.238.123-.668 0-1.237-.062-1.237-.148.397-.134.82-.18 1.237-.135.42-.043.844.011 1.238.16zM75.5 372.63c-.86.437-1.867.495-2.772.16.458-.07.922-.094 1.386-.074.459-.067.922-.096 1.386-.086z" transform="translate(-601 -197) translate(601 197) translate(519 20)"/>
                    <path fill="#263238" d="M71.119 375.274c-.496.08-1.002.08-1.498 0-.547-.077-1.086-.204-1.61-.381-.313-.1-.616-.231-.903-.394-.176-.106-.308-.272-.371-.467-.037-.23.058-.463.248-.602 1.199-.552 2.623-.187 3.403.873.222.297.382.636.47.996v.405c-.145-.444-.367-.86-.655-1.23-.326-.393-.754-.69-1.238-.86-.587-.209-1.234-.173-1.795.098-.247.173-.16.443.112.615.263.15.54.274.829.369.503.185 1.02.328 1.547.43.891.086 1.46.099 1.46.148z" transform="translate(-601 -197) translate(601 197) translate(519 20)"/>
                    <path fill="#263238" d="M70.735 375.335c-.19-.314-.247-.689-.161-1.045.055-.39.204-.76.433-1.082.258-.44.725-.718 1.238-.737.317.073.52.382.458.7-.045.238-.138.463-.273.664-.198.33-.444.628-.73.886-.47.455-.854.627-.866.59-.013-.037.31-.258.73-.726.244-.273.46-.57.644-.885.21-.32.359-.885 0-.959-.36-.074-.768.332-1.003.627-.219.283-.37.61-.445.96-.041.334-.05.671-.025 1.007zM96.133 374.204s-.669-.074-1.733 0c-1.38.13-2.697.641-3.8 1.476-1.112.844-1.968 1.975-2.475 3.27-.372.996-.421 1.673-.47 1.66-.028-.154-.028-.312 0-.467.041-.419.133-.832.272-1.23.455-1.366 1.318-2.563 2.475-3.43 1.145-.867 2.523-1.377 3.96-1.463.414-.02.829 0 1.238.061.184.009.364.05.533.123zM84.758 378.458c-1.126.24-2.278.335-3.428.283-1.153.038-2.305-.074-3.429-.332 0-.086 1.535 0 3.429 0 1.893 0 3.416-.037 3.428.05z" transform="translate(-601 -197) translate(601 197) translate(519 20)"/>
                    <path fill="#263238" d="M89.35 378.532c0 .062-.136.32-.297.664-.161.345-.248.652-.334.652-.087 0-.112-.369.074-.775.186-.405.507-.602.557-.54zM91.12 376.417c0 .062-.1.296-.347.541-.247.246-.495.382-.544.332-.05-.049.099-.295.346-.54.248-.247.483-.382.545-.333zM93.608 375.483c0 .086-.322.074-.669.184-.346.111-.594.295-.656.246-.062-.049.136-.38.57-.516.433-.135.792.012.755.086zM95.39 375.016c0 .073-.111.196-.31.258-.198.061-.37.074-.408 0-.037-.074.111-.185.31-.258.198-.074.321 0 .408 0z" transform="translate(-601 -197) translate(601 197) translate(519 20)"/>
                    <path fill="#EA0028" d="M126.246 378.704l-1.065-2.25 21.289-10.02 3.59 7.377-1.238.713c-5.694 3.086-29.148 15.296-33.616 15.984-5.05.763 11.04-11.804 11.04-11.804z" transform="translate(-601 -197) translate(601 197) translate(519 20)"/>
                    <g fill="#FFF" opacity=".3">
                        <path d="M.328 9.677C-.214 7.754-.02 5.699.873 3.91 1.746 2.146 3.25.769 5.093.05l2.822 5.876-7.587 3.75z" transform="translate(-601 -197) translate(601 197) translate(519 20) translate(142.008 367.638)"/>
                    </g>
                    <path fill="#FFF" d="M118.535 385.172s-5.434 4.795-4.159 5.447c1.275.652 25.448-10.796 35.671-16.771l-.26-.455-28.083 13.599s-1.907-2.349-3.169-1.82z" opacity=".3" transform="translate(-601 -197) translate(601 197) translate(519 20)"/>
                    <path fill="#263238" d="M150.109 373.22c-.107.087-.223.16-.347.222l-1.015.553-3.713 1.992c-3.193 1.648-7.636 3.885-12.6 6.234-4.963 2.348-9.493 4.39-12.797 5.816l-3.973 1.733-1.077.43-.384.136c.113-.073.234-.134.359-.184l1.052-.48 3.886-1.746c3.28-1.475 7.798-3.541 12.761-5.89 4.963-2.348 9.407-4.561 12.625-6.147l3.812-1.906 1.04-.504c.117-.094.241-.18.37-.258z" transform="translate(-601 -197) translate(601 197) translate(519 20)"/>
                    <path fill="#263238" d="M121.864 387.311c-.46-.562-.993-1.062-1.584-1.487-.639-.357-1.315-.641-2.017-.849.773-.06 1.542.157 2.166.615.684.369 1.198.985 1.435 1.721zM126.605 381.164c-.384-.084-.743-.252-1.052-.492-.545-.332-.953-.664-.904-.726.05-.061.508.148 1.052.48.545.332.941.738.904.738zM127.88 379.504c0 .073-.458 0-.978-.148-.52-.147-.928-.332-.904-.406.025-.073.458 0 .99.136.533.135.916.332.892.418zM128.016 376.995c0 .074-.433.37-1.04.664-.354.218-.75.36-1.163.418 0-.073.433-.369 1.04-.664.354-.217.75-.36 1.163-.418zM127.719 375.421s-.372.554-1.065.947c-.394.277-.865.428-1.349.43.39-.264.804-.49 1.238-.676.631-.369 1.114-.762 1.176-.7z" transform="translate(-601 -197) translate(601 197) translate(519 20)"/>
                    <path fill="#263238" d="M125.008 379.713c-.41.294-.872.51-1.361.639-.524.171-1.063.294-1.61.369-.328.044-.66.044-.99 0-.204-.013-.395-.106-.532-.258-.13-.194-.13-.446 0-.64.828-1.022 2.263-1.33 3.441-.737.335.17.63.409.867.7.173.197.235.332.21.345-.333-.354-.727-.645-1.163-.861-.479-.209-1.007-.277-1.523-.197-.62.07-1.187.384-1.572.873-.136.27.062.48.372.504.308.031.62.031.928 0 .53-.06 1.056-.16 1.572-.295.817-.221 1.361-.48 1.361-.442z" transform="translate(-601 -197) translate(601 197) translate(519 20)"/>
                    <path fill="#263238" d="M124.686 379.934s-.383-.221-.606-.86c-.131-.376-.165-.777-.1-1.169.026-.52.327-.989.793-1.23.314-.078.633.108.718.419.08.229.1.474.062.713-.033.386-.116.766-.248 1.131-.09.343-.269.657-.52.91 0 0 .161-.369.322-.971.1-.354.163-.716.186-1.082 0-.382-.074-.947-.446-.849-.371.098-.532.627-.619.996-.077.348-.077.71 0 1.057.117.328.27.642.458.935zM146.916 367.638s-.632.234-1.535.8c-1.177.734-2.128 1.776-2.748 3.012-.593 1.249-.832 2.635-.693 4.008.111 1.045.371 1.673.322 1.685-.097-.125-.168-.267-.21-.418-.138-.4-.242-.812-.31-1.23-.518-3.37 1.46-6.629 4.703-7.746.15-.06.309-.098.47-.11zM138.623 376.528c-.899.717-1.89 1.313-2.946 1.77-1.008.551-2.086.965-3.205 1.23 0-.074 1.386-.64 3.081-1.475 1.696-.836 3.07-1.599 3.07-1.525z" transform="translate(-601 -197) translate(601 197) translate(519 20)"/>
                    <path fill="#263238" d="M142.782 374.56c.074 0 0 .345 0 .726s.074.701 0 .726c-.075.024-.26-.283-.273-.726-.012-.442.198-.762.273-.725zM143.413 371.88c.074 0 0 .308 0 .64s-.272.565-.347.54c-.074-.024 0-.307.075-.639.074-.332.198-.565.272-.54zM145.232 369.938c0 .086-.26.209-.52.467s-.408.529-.482.504c-.075-.025 0-.393.284-.7.285-.308.706-.345.718-.271zM146.619 368.77s0 .22-.149.368-.31.234-.359.173c-.05-.062 0-.21.149-.37.148-.16.309-.22.359-.171zM118.572 146.797c-9.902-16.968-12.377-14.988-9.035-24.874l9.654-32.165-4.084-20.165c-4.55-4.4-10.772-6.664-17.106-6.221l-20.15 1.377s-9.901-2.152-24.53 11.939l-10.076 9.381 12.736 24.013.644 10.894 9.184 29.793-2.476 13.144c-1.064 9.996-14.592 124.64-12.76 126.46 1.831 1.82 30.125-12.136 36.957-6.406 6.833 5.73 20.584 9.246 28.344 6.775 7.76-2.472 19.395-17.804 31.14-7.464.025 0-3.812-101.721-28.442-136.48z" transform="translate(-601 -197) translate(601 197) translate(519 20)"/>
                    <path fill="#263238" d="M107.482 64.76s21.041 5.546 17.885 20.436c-1.522 7.378-11.585 22.6-11.585 22.6L89.994 96.619l17.488-31.858z" transform="translate(-601 -197) translate(601 197) translate(519 20)"/>
                    <path fill="#FAFAFA" d="M64.67 156.88c4.15-3.563 9.494-5.45 14.976-5.288 2.78.1 5.489.9 7.872 2.324 2.764 1.647 4.931 4.122 6.189 7.07.663 1.6.96 3.326.866 5.054-.132 1.797-.66 3.543-1.547 5.115-1.696 3.233-4.37 5.926-6.189 9.221-1.819 3.296-1.93 7.07-1.67 10.587.26 3.516.78 7.045 0 10.34-.333 1.602-.945 3.133-1.808 4.525-.792 1.353-1.944 2.463-3.329 3.21-1.316.68-2.814.934-4.282.725-1.322-.217-2.585-.698-3.714-1.414-1.873-1.266-3.588-2.748-5.111-4.414-1.21-1.173-2.483-2.281-3.812-3.32-.838-.662-1.723-1.262-2.65-1.795-.63-.37-.99-.529-.977-.553.012-.025.1 0 .272.086.174.086.446.184.768.344.956.496 1.87 1.068 2.735 1.709 1.362 1.02 2.668 2.111 3.911 3.27 1.53 1.619 3.241 3.058 5.1 4.292 1.088.667 2.3 1.11 3.564 1.303 1.362.182 2.746-.063 3.96-.7 1.293-.712 2.363-1.763 3.095-3.038.82-1.341 1.397-2.814 1.708-4.352.755-3.16.21-6.615 0-10.169-.167-1.832-.167-3.676 0-5.508.207-1.905.787-3.752 1.708-5.435 1.844-3.406 4.505-6.074 6.189-9.197.857-1.51 1.368-3.19 1.497-4.918.093-1.638-.182-3.276-.804-4.796-1.182-2.839-3.24-5.232-5.88-6.836-2.296-1.407-4.916-2.207-7.611-2.324-3.928-.244-7.844.644-11.276 2.558-.94.504-1.854 1.058-2.735 1.66l-.693.48c-.223.147-.31.196-.322.184zM144.564 252.22l-.322.086-.965.16c-.854.135-2.104.331-3.713.54-4.571.689-9.19 1.001-13.813.935-3.201-.05-6.386-.463-9.493-1.23-3.587-.882-6.989-2.384-10.05-4.438-3.427-2.263-6.15-5.431-7.86-9.148-1.812-4.035-2.183-8.564-1.052-12.837.622-2.154 1.717-4.144 3.206-5.828 1.483-1.548 3.094-2.971 4.814-4.254 1.631-1.214 3.122-2.603 4.444-4.144 1.193-1.517 2.015-3.29 2.4-5.176.793-3.689.422-7.378.595-10.796-.011-3.214.798-6.378 2.352-9.197 1.32-2.296 3.118-4.287 5.272-5.84 1.612-1.18 3.405-2.094 5.31-2.705 1.205-.39 2.45-.637 3.713-.738h1.312c-1.685.127-3.348.462-4.95.996-1.861.64-3.608 1.57-5.174 2.754-4.706 3.45-7.444 8.946-7.352 14.755-.149 3.381.26 7.07-.545 10.906-.385 1.976-1.233 3.833-2.475 5.422-1.343 1.588-2.863 3.02-4.53 4.267-1.695 1.264-3.28 2.667-4.74 4.193-1.417 1.612-2.46 3.514-3.058 5.57-1.091 4.13-.733 8.505 1.015 12.406 1.65 3.626 4.292 6.719 7.624 8.926 2.997 2.026 6.327 3.516 9.84 4.402 3.063.792 6.206 1.241 9.37 1.34 4.599.097 9.2-.146 13.763-.725l3.713-.418.965-.11.384-.074zM85.563 282.959c.131-.12.277-.222.433-.308.448-.223.864-.504 1.237-.836.434-.43.26-1.23 0-2.102-.37-.961-.825-1.887-1.361-2.767-1.126-2.029-2.475-4.439-4.084-7.02-1.733-2.808-3.812-5.39-6.189-7.685-2.37-2.292-5.211-4.046-8.33-5.14-2.539-.89-5.259-1.148-7.921-.75-1.793.306-3.49 1.026-4.95 2.102-1.028.775-1.51 1.316-1.56 1.23.088-.153.196-.294.321-.418.337-.375.701-.724 1.09-1.045 1.445-1.19 3.169-1.998 5.012-2.349 2.741-.482 5.56-.266 8.194.627 3.218 1.094 6.151 2.883 8.59 5.238 2.418 2.334 4.52 4.97 6.25 7.845 1.621 2.607 2.896 5.066 3.985 7.107.502.918.917 1.882 1.238 2.877.133.424.216.86.248 1.303.031.399-.108.792-.384 1.082-.391.329-.835.59-1.312.775-.322.184-.495.258-.507.234zM112.631 138.4s-.148.294-.594.639c-.65.477-1.398.805-2.19.959-1.185.229-2.41.126-3.54-.295-1.38-.542-2.567-1.474-3.417-2.68-1.485-2.192-2.127-4.842-1.807-7.464.04-1.07.275-2.124.693-3.111.112 0-.16 1.23-.235 3.135-.176 2.493.481 4.974 1.87 7.058.786 1.09 1.861 1.94 3.106 2.46 1.032.41 2.153.55 3.255.405 1.018-.174 1.99-.55 2.86-1.107zM114.426 103.037s-.161 0-.483.11c-.47.043-.941.043-1.41 0-1.75-.132-3.425-.759-4.828-1.807-.978-.72-1.792-1.638-2.389-2.692-.683-1.222-1.065-2.587-1.114-3.984-.078-1.546.242-3.086.929-4.476.81-1.413 1.82-2.704 2.995-3.836.532-.575.982-1.22 1.337-1.918.327-.654.452-1.39.359-2.115-.381-1.405-.992-2.738-1.807-3.947-1.332-2.348-1.102-5.263.581-7.377 1.134-1.367 2.788-2.204 4.567-2.312.472-.031.947-.002 1.411.086.164.016.324.062.47.136 0 .073-.668-.111-1.856 0-1.691.2-3.23 1.069-4.27 2.41-1.523 1.982-1.69 4.683-.42 6.836.872 1.258 1.521 2.655 1.918 4.131.104.842-.038 1.696-.409 2.46-.378.751-.862 1.447-1.436 2.065-1.13 1.098-2.112 2.338-2.92 3.689-.635 1.296-.94 2.727-.892 4.168.053 2.48 1.22 4.808 3.181 6.344 1.33 1.03 2.91 1.691 4.58 1.918 1.225.148 1.906.05 1.906.111zM57.628 114.865c.66.081 1.326.114 1.992.099 1.806-.09 3.525-.798 4.864-2.004 1.952-1.833 2.736-4.58 2.043-7.156-.397-1.507-1.264-2.85-2.476-3.837-1.403-1.053-2.63-2.318-3.639-3.75-.82-1.595-1.111-3.407-.829-5.176.186-1.685.582-3.246.842-4.734.296-1.385.384-2.807.26-4.217-.118-1.217-.587-2.374-1.35-3.333-1.126-1.4-2.736-2.333-4.517-2.618-.662-.074-1.328-.099-1.993-.074 0 0 .161-.062.508-.136.501-.06 1.008-.06 1.51 0 1.893.203 3.633 1.13 4.852 2.583.843 1.008 1.372 2.238 1.522 3.54.156 1.466.085 2.946-.21 4.39-.248 1.525-.632 3.074-.793 4.697-.261 1.638.003 3.315.755 4.795.986 1.367 2.17 2.581 3.515 3.603 1.274 1.086 2.178 2.538 2.587 4.156.717 2.775-.175 5.715-2.314 7.636-1.432 1.236-3.265 1.917-5.162 1.918-.508.008-1.015-.046-1.51-.16-.297-.135-.47-.197-.457-.222z" transform="translate(-601 -197) translate(601 197) translate(519 20)"/>
                    <path fill="#455A64" d="M88.137 3.074c4.272-.846 8.704.183 12.157 2.821 3.453 2.64 5.59 6.63 5.864 10.95.148 2.348-.149 5.066 1.522 6.738 1.238 1.23 2.996 1.426 4.468 2.225 2.841 1.632 4.11 5.041 3.02 8.116-.569 1.463-1.658 2.705-2.215 4.18-.817 2.176-1.498 4.672-.83 6.898 3.442 11.68-4.95 13.107-9.332 13.894-6.262 1.094-12.612-.885-13.255-7.377-.21-2.103-3.986-1.87-6.09-1.599-2.475.332-4.419 2.46-6.275 4.168-2.812 2.845-6.371 4.847-10.273 5.78-3.957.902-8.107-.214-11.065-2.976-2.773-2.84-3.453-7.722-1.015-10.845-3.016-1.365-5.238-4.026-6.031-7.222-.794-3.197-.072-6.579 1.959-9.18 1.522-1.955 3.713-3.406 4.815-5.632.915-1.869 1.906-6.147 2.624-8.127 1.014-2.791 4.48-7.574 7.166-8.878" transform="translate(-601 -197) translate(601 197) translate(519 20)"/>
                    <path fill="#D89377" d="M99.264 66.863l-23.244.332c-.396-2.668-1.176-13.033-1.176-13.033s-9.74-.59-10.768-10.107C63.049 34.538 62.64 12.48 62.64 12.48c10.657-5.776 23.625-5.377 33.901 1.045l1.522.947 1.2 52.391z" transform="translate(-601 -197) translate(601 197) translate(519 20)"/>
                    <path fill="#263238" d="M74.064 37.846c-.705-.214-1.442-.302-2.178-.258-.347 0-.631 0-.668-.234-.048-.343.004-.693.148-1.008l.792-2.767c1.09-3.934 1.807-7.168 1.597-7.217-.21-.05-1.238 3.086-2.327 7.02-.248.96-.495 1.882-.73 2.78-.163.47-.163.98 0 1.45.125.255.363.437.643.492.198.024.397.024.594 0 .72.025 1.438-.062 2.13-.258z" transform="translate(-601 -197) translate(601 197) translate(519 20)"/>
                    <path fill="#BF7A62" d="M74.807 54.027c4.44-.338 8.678-1.977 12.179-4.71 0 0-2.302 7.144-11.969 7.181l-.21-2.471z" transform="translate(-601 -197) translate(601 197) translate(519 20)"/>
                    <path fill="#263238" d="M81.292 27.886c0 .68-.554 1.23-1.237 1.23-.315.02-.625-.088-.858-.299-.233-.21-.37-.507-.38-.82 0-.679.554-1.23 1.238-1.23.315-.02.624.088.858.3.233.21.37.506.38.82zM83.285 26.583c-.148.148-1.052-.54-2.364-.566-1.312-.024-2.277.603-2.475.443-.198-.16.099-.356.52-.652.576-.376 1.253-.569 1.943-.553.681.01 1.34.24 1.881.652.446.32.57.602.495.676zM67.888 27.85c0 .679-.554 1.23-1.238 1.23-.313.023-.623-.082-.857-.291-.234-.21-.371-.504-.38-.817 0-.679.554-1.23 1.237-1.23.638-.002 1.174.477 1.238 1.108z" transform="translate(-601 -197) translate(601 197) translate(519 20)"/>
                    <path fill="#263238" d="M69.62 26.78c-.148.147-1.051-.541-2.363-.566-1.312-.024-2.277.603-2.476.443-.198-.16.1-.357.52-.652.578-.372 1.256-.56 1.944-.54.68.006 1.339.23 1.88.639.446.32.583.602.496.676z" transform="translate(-601 -197) translate(601 197) translate(519 20)"/>
                    <path fill="#BF7A62" d="M76.267 41.19c-.13-.303-.202-.629-.21-.959.004-.34.207-.648.52-.787.223-.073.495 0 .693-.16.198-.16.272-.565.433-.86.243-.386.706-.574 1.151-.467.429.122.814.36 1.114.688.39.341.637.815.693 1.328-.03.5-.297.955-.718 1.23-.428.273-.916.442-1.423.491-.54.082-1.089.103-1.634.062-.157-.004-.313-.037-.458-.099-.145-.07-.234-.22-.223-.38M75.314 41.387c2.195-.263 4.083-1.669 4.951-3.689" transform="translate(-601 -197) translate(601 197) translate(519 20)"/>
                    <path fill="#263238" d="M80.302 37.698c-.503 2.278-2.609 3.847-4.95 3.689.965-.413 1.9-.894 2.797-1.439 1.361-1.008 1.98-2.336 2.153-2.25z" transform="translate(-601 -197) translate(601 197) translate(519 20)"/>
                    <path fill="#BF7A62" d="M64.88 23.263c1.12-.525 2.381-.667 3.59-.405" transform="translate(-601 -197) translate(601 197) translate(519 20)"/>
                    <path fill="#263238" d="M68.47 22.858c-.1.356-.879.442-1.758.54-.878.099-1.658.173-1.832-.135-.173-.307.533-1.008 1.696-1.13 1.164-.124 1.993.393 1.894.725z" transform="translate(-601 -197) translate(601 197) translate(519 20)"/>
                    <path fill="#BF7A62" d="M78.36 23.362c1.665-.555 3.481-.454 5.074.282" transform="translate(-601 -197) translate(601 197) translate(519 20)"/>
                    <path fill="#263238" d="M83.434 23.632c-.174.32-1.238.074-2.55 0-1.312-.074-2.389 0-2.475-.295-.087-.295.99-1.082 2.599-.984 1.609.099 2.599 1.009 2.426 1.28z" transform="translate(-601 -197) translate(601 197) translate(519 20)"/>
                    <path fill="#455A64" d="M83.681 2.89C82.291 1.3 80.303.353 78.186.27c-6.422-.633-12.699 2.178-16.474 7.378-2.117 3.025-3.18 7.242-1.238 10.353 1.363 2.134 3.855 3.28 6.375 2.93 2.519-.35 4.6-2.13 5.322-4.553.053 1.945 1.159 3.71 2.892 4.618 1.734.907 3.825.814 5.47-.242 1.645-1.057 2.589-2.913 2.467-4.856.593 1.96 1.798 3.683 3.441 4.918 1.72 1.07 4.431.812 5.322-1.008 1.09 1.23 2.612 2.595 4.246 2.189 1.398-.482 2.303-1.828 2.215-3.295-.12-1.43-.605-2.806-1.41-3.996-3.17-5.484-7.848-10.525-14-12.185" transform="translate(-601 -197) translate(601 197) translate(519 20)"/>
                    <path fill="#455A64" d="M91.058 15.898c2.91 5.148 2.961 11.418.136 16.612-1.035 1.521-1.917 3.14-2.636 4.832-.703 1.743-.255 3.735 1.126 5.016.904.677 2.29 1.02 2.476 2.115.041.561-.075 1.123-.335 1.623-.852 2.215-.956 4.644-.297 6.923.446 1.5.52 3.356 4.122 4.918 1.782.8 2.76 2.152 6.634 1.168 6.783-1.734 4.381-16.796 3.713-23.718-.668-6.923-3.886-19.28-7.797-25.046" transform="translate(-601 -197) translate(601 197) translate(519 20)"/>
                    <path fill="#D89377" d="M75.587 63.126s-7.03 26.079-2.55 23.496c4.48-2.582 26.227-19.759 26.227-19.759l-10.99-8.238-12.687 4.5zM9.382 108.041c-.78-2.557-10.508-7.82-9.035-9.234 1.918-1.856 9.901 5.951 10.631 6.554.73.602 1.61-.43.929-.947-.99-.738-11.14-8.767-9.234-10.599 1.04-1.02 2.674 1.046 2.674 1.046s8.911 8.225 9.765 7.377c.854-.849-4.208-5.914-6.04-7.476-1.831-1.561-1.819-3.05-.495-3.295.916-.172 6.622 4.488 8.392 6.148 1.77 1.66 6.56 6.037 5.953 1.893v-.196c-.718-4.058.087-7.378.978-8.239.434-.333 1.02-.392 1.513-.151.492.24.803.738.802 1.283.042.198.042.404 0 .602v.308c-.06 1.411.032 2.825.272 4.217.18 1.254.573 2.468 1.163 3.59.693 1.23 1.337 2.386 1.894 3.283 6.51 3.59 25.224 13.058 43.988 14.546 3.379.27 18.355-23.202 18.355-23.202L114.166 106c-5.19 9.699-11.12 18.988-17.736 27.788-18.913 25.231-77.617-16.98-77.617-16.98l-.544-.27c-4.456-2.188-8.786-4.618-12.972-7.28-5.05-3.54-4.752-4.008-4.245-4.536 1.35-1.439 9.11 5.865 8.33 3.32z" transform="translate(-601 -197) translate(601 197) translate(519 20)"/>
                </g>
                <g>
                    <path fill="#455A64" d="M128.789 398.667l-.111-10.1-18.935.098v14.78l1.231.075c5.22.258 26.58.96 30.064-.111 3.854-1.207-12.25-4.742-12.25-4.742z" transform="translate(-601 -197) translate(601 197) translate(65)"/>
                    <path fill="#263238" d="M109.497 403.015h1.256l3.447.135c2.905.086 6.919.16 11.35.148 4.433-.012 8.459-.123 11.364-.234l3.435-.16.936-.062h.32c-.106-.014-.214-.014-.32 0h-.936l-3.447.074c-2.906.074-6.92.16-11.351.173-4.432.012-8.446 0-11.351-.074l-3.447-.062h-1.231l-.025.062z" transform="translate(-601 -197) translate(601 197) translate(65)"/>
                    <path fill="#263238" d="M134.994 403.421c.143-.573.354-1.127.628-1.65.359-.485.772-.927 1.23-1.318-.597.218-1.087.66-1.366 1.231-.378.496-.554 1.117-.492 1.737zM129.392 400.613c.062 0 .32-.296.59-.727.2-.248.338-.54.407-.85 0 0-.32.284-.59.727-.272.443-.456.813-.407.85zM127.853 399.812s.345-.16.665-.456c.32-.295.554-.566.517-.615-.037-.05-.345.147-.665.443-.32.296-.554.579-.517.628zM126.88 398.026c.317.108.652.15.985.123.337.036.677-.001.998-.11-.319-.117-.66-.16-.998-.124-.332-.035-.668.003-.985.111zM126.548 396.77c.325.212.708.32 1.096.308.388.06.785.008 1.145-.148-.37-.07-.746-.094-1.12-.074-.37-.067-.746-.096-1.12-.086z" transform="translate(-601 -197) translate(601 197) translate(65)"/>
                    <path fill="#263238" d="M130.032 398.95c.406.084.825.084 1.231 0 .444-.051.88-.146 1.305-.283.257-.076.505-.18.739-.308.14-.09.243-.225.295-.382.039-.186-.033-.378-.184-.493-.961-.458-2.111-.18-2.758.665-.187.245-.321.526-.394.826-.03.104-.03.215 0 .32.113-.376.297-.728.542-1.035.272-.32.631-.556 1.034-.677.476-.17 1-.139 1.453.086.197.148.123.37-.099.493-.211.128-.439.228-.677.295-.399.15-.81.262-1.231.333-.788.123-1.256.123-1.256.16z" transform="translate(-601 -197) translate(601 197) translate(65)"/>
                    <path fill="#263238" d="M130.34 399.073c.153-.25.202-.551.135-.837-.032-.32-.146-.626-.332-.887-.21-.364-.59-.596-1.01-.616-.253.055-.42.298-.381.554.03.194.101.379.21.542.161.27.355.517.578.74.19.218.43.388.701.492 0 0-.246-.222-.578-.604-.2-.222-.373-.465-.517-.726-.16-.259-.283-.715 0-.776.283-.062.615.27.8.517.173.233.291.503.345.788.046.269.062.541.049.813zM109.854 397.841h1.403c2.259.259 4.171 1.784 4.925 3.93.295.813.32 1.354.37 1.342.02-.126.02-.255 0-.382-.029-.344-.099-.683-.21-1.01-.344-1.11-1.013-2.093-1.92-2.82-.92-.715-2.029-1.143-3.19-1.232-.343-.04-.69-.04-1.033 0-.123.04-.24.098-.345.172z" transform="translate(-601 -197) translate(601 197) translate(65)"/>
                    <path fill="#263238" d="M111.787 389.946c-.128 1.293-.178 2.593-.148 3.892-.06 1.298-.03 2.599.086 3.893.12-1.294.165-2.594.136-3.893.051-1.297.027-2.597-.074-3.892zM119.001 401.413c.906.196 1.832.283 2.758.26.93.043 1.861-.035 2.77-.235 0-.074-1.231 0-2.77 0s-2.758-.098-2.758-.025zM115.283 401.413s.111.271.234.555c.123.283.197.53.259.53.061 0 .098-.309 0-.629-.099-.32-.444-.493-.493-.456zM113.88 399.689s.086.234.283.431c.197.197.382.32.43.283.05-.037-.073-.246-.27-.443s-.394-.32-.443-.271zM111.885 398.9c0 .062.259.062.542.16.283.1.48.235.53.198.049-.037-.111-.308-.456-.419-.345-.11-.64 0-.616.062zM110.457 398.531c0 .062.086.16.246.222s.296 0 .32 0c.025 0-.086-.16-.246-.222-.16-.061-.295-.061-.32 0z" transform="translate(-601 -197) translate(601 197) translate(65)"/>
                    <path fill="#455A64" d="M18.602 384.096l5.356-8.622L7.953 365.36 0 377.863l.948.69c4.26 3.03 21.865 15.138 25.374 16.11 3.94 1.085-7.72-10.567-7.72-10.567z" transform="translate(-601 -197) translate(601 197) translate(65)"/>
                    <path fill="#263238" d="M0 377.346l.259.21.763.541 2.82 1.97c2.461 1.64 5.749 3.868 9.491 6.246 3.743 2.377 7.178 4.458 9.69 5.924l2.979 1.725.824.455c.185.099.284.148.296.136l-.271-.185-.8-.48-2.943-1.786c-2.462-1.503-5.91-3.61-9.652-5.986-3.742-2.378-7.103-4.57-9.516-6.159l-2.869-1.91-.788-.504-.283-.197z" transform="translate(-601 -197) translate(601 197) translate(65)"/>
                    <path fill="#263238" d="M21.274 391.437c.434-.398.908-.75 1.416-1.047.545-.228 1.115-.39 1.699-.48-.612-.135-1.252-.038-1.798.27-.583.235-1.054.685-1.317 1.257zM18.073 386.054c0 .062.43-.074.886-.296.456-.221.825-.443.8-.505-.317.03-.624.132-.898.296-.394.222-.813.443-.788.505zM17.236 384.551c0 .062.37 0 .8 0 .431 0 .776-.184.763-.246-.012-.062-.369 0-.8 0-.43 0-.763.185-.763.246zM17.347 382.519s.307.333.763.64c.455.308.862.493.899.432.037-.062-.308-.333-.764-.629-.264-.21-.57-.36-.898-.443zM17.74 381.275s.247.48.764.862c.289.26.649.428 1.034.48 0-.061-.406-.295-.899-.665-.282-.248-.582-.474-.898-.677z" transform="translate(-601 -197) translate(601 197) translate(65)"/>
                    <path fill="#263238" d="M19.501 384.995c.297.28.644.5 1.022.653.396.185.808.334 1.231.443.256.079.52.128.788.148.167.005.33-.052.456-.16.127-.135.166-.332.098-.505-.553-.91-1.672-1.303-2.672-.936-.288.106-.552.27-.775.48-.148.148-.21.246-.197.259.304-.252.65-.448 1.022-.58.401-.121.83-.121 1.23 0 .513.105.959.417 1.232.863.086.222-.099.37-.357.37-.246-.017-.489-.059-.726-.124-.42-.1-.832-.232-1.232-.394-.714-.296-1.108-.542-1.12-.517z" transform="translate(-601 -197) translate(601 197) translate(65)"/>
                    <path fill="#263238" d="M19.698 385.216s.32-.147.566-.64c.144-.286.212-.604.197-.924.016-.42-.183-.82-.529-1.06-.245-.092-.518.029-.616.272-.08.177-.119.372-.11.566-.013.315.016.63.086.937.046.285.16.556.332.788 0 0-.098-.32-.172-.825-.033-.295-.033-.592 0-.887 0-.308.148-.764.43-.64.284.122.37.554.407.862.01.289-.036.578-.135.85-.132.246-.284.481-.456.701zM3.115 373.207s.48.247 1.145.789c.872.705 1.533 1.639 1.908 2.697.362 1.059.421 2.198.172 3.289-.197.85-.455 1.318-.418 1.342.079-.097.145-.205.197-.32.161-.31.289-.636.381-.973.299-1.124.26-2.31-.11-3.412-.391-1.096-1.093-2.055-2.02-2.759-.28-.206-.581-.384-.898-.53-.111-.06-.232-.102-.357-.123zM8.987 367.578c-.807 1.017-1.551 2.082-2.228 3.19-.744 1.065-1.418 2.175-2.02 3.326.803-1.022 1.543-2.091 2.217-3.202.734-1.069 1.412-2.175 2.031-3.314zM8.889 381.115c.645.667 1.378 1.244 2.179 1.712.759.54 1.587.974 2.462 1.293 0-.061-1.059-.653-2.339-1.49-1.28-.838-2.265-1.564-2.302-1.515z" transform="translate(-601 -197) translate(601 197) translate(65)"/>
                    <path fill="#263238" d="M5.75 379.132s0 .27-.1.579c-.098.308-.122.554 0 .591.124.037.247-.21.296-.554.05-.345-.135-.64-.197-.616zM5.503 376.902v.518c0 .283.148.48.21.468.061-.013.073-.247 0-.518-.074-.27-.148-.468-.21-.468zM4.235 375.166c0 .061.197.197.382.43.184.235.27.457.332.457s.074-.32-.16-.604c-.234-.283-.53-.345-.554-.283zM3.238 374.094s0 .173.086.308c.086.136.222.21.27.173.05-.037 0-.173-.085-.308-.086-.136-.222-.222-.271-.173z" transform="translate(-601 -197) translate(601 197) translate(65)"/>
                    <path fill="#ED2012" d="M91.904 188.07s16.005 106.727 13.715 111.875c-2.29 5.149-77.303 87.636-77.303 87.636L.702 369.266s65.471-82.525 64.979-84.458c-.493-1.934-24.807-105.324-24.807-105.324l51.03 8.585z" transform="translate(-601 -197) translate(601 197) translate(65)"/>
                    <path fill="#ED2012" d="M31.75 178.031l-.972 3.954c-2.845 11.674-1.08 23.996 4.925 34.401l43.508 75.529c3.092 5.346 5.343 11.137 6.673 17.17l19.698 87.205h30.323c0 1.81-7.843-71.846-11.782-96.308-2.955-18.475-27.64-75.713-39.593-102.761l7.386-9.115-12.877-2.118-47.288-7.957z" transform="translate(-601 -197) translate(601 197) translate(65)"/>
                    <path fill="#263238" d="M85.44 196.987c.271.382.495.796.665 1.232.394.788.936 1.946 1.589 3.387 1.305 2.87 3.016 6.885 4.764 11.369 1.748 4.483 3.189 8.621 4.174 11.602.48 1.503.861 2.722 1.108 3.572.157.434.265.884.32 1.343-.239-.385-.425-.799-.554-1.232-.357-.96-.8-2.13-1.305-3.51-1.084-2.956-2.598-7.033-4.346-11.517-1.748-4.483-3.386-8.51-4.58-11.43-.542-1.355-1.01-2.463-1.404-3.461-.208-.429-.353-.885-.43-1.355zM89.01 323.57c-.09-.277-.157-.562-.196-.85-.11-.629-.259-1.441-.431-2.464-.099-.542-.197-1.133-.308-1.773-.11-.64-.295-1.343-.468-2.094-.332-1.49-.677-3.203-1.23-5.063-.26-.936-.518-1.909-.801-2.919l-.997-3.14c-.64-2.168-1.54-4.422-2.462-6.824-1.872-4.755-4.15-9.854-6.796-15.15-4.639-8.94-9.747-17.627-15.303-26.026-2.106-3.178-3.817-5.777-5.06-7.637-.567-.862-1.01-1.552-1.367-2.081-.169-.238-.317-.49-.443-.752.209.205.394.432.554.678l1.465 2.007c1.231 1.762 3.066 4.324 5.232 7.538 5.673 8.344 10.845 17.019 15.488 25.977 2.66 5.284 4.925 10.445 6.784 15.224.849 2.463 1.735 4.693 2.363 6.885l.96 3.153c.26 1.035.518 2.008.764 2.956.517 1.873.825 3.597 1.133 5.1.147.755.283 1.457.406 2.106.098.653.172 1.232.258 1.786.123 1.022.234 1.848.32 2.463.078.294.123.596.136.9zM32.379 383.172c-.425-.092-.838-.233-1.231-.419-1.124-.441-2.222-.947-3.287-1.515-3.503-1.912-6.853-4.09-10.022-6.516-3.693-2.783-7.091-5.32-9.627-6.996-2.536-1.675-4.174-2.611-4.125-2.71.431.13.844.313 1.231.542.776.37 1.847.986 3.152 1.786 2.622 1.59 6.045 4.077 9.763 6.861 3.145 2.407 6.434 4.62 9.85 6.627 2.597 1.502 4.333 2.229 4.296 2.34zM135.794 391.683c-.41.048-.822.048-1.231 0h-3.435l-11.29-.086-11.301.061h-3.435c-.412.021-.825-.004-1.231-.074.4-.12.814-.181 1.23-.184.813-.062 1.983-.148 3.436-.21 2.88-.148 6.894-.27 11.314-.258 4.42.012 8.42.123 11.314.283 1.44.074 2.61.148 3.422.222.412.025.818.108 1.207.246zM51.708 69.086c-2.667.362-5.38-.066-7.806-1.231-2.448-1.197-4.028-3.656-4.1-6.38 0-1.565.727-3.104.468-4.644-.258-1.54-1.403-2.771-2.142-4.15-1.808-3.63-.845-8.029 2.315-10.569 1.612-1.232 3.693-1.872 5.023-3.387 1.6-1.786 1.859-4.373 2.831-6.565 1.467-3.207 4.428-5.477 7.904-6.06 1.896-.296 3.866-.086 5.676-.69 1.495-.646 2.904-1.473 4.198-2.463 4.283-2.77 9.482-3.748 14.478-2.722 2.189.386 4.222 1.39 5.86 2.894 1.76 1.75 4.026 3.695 4.666 6.036.751 2.832-.172 6.38-.923 9.2-.751 2.821-3.029 5.408-5.934 5.752" transform="translate(-601 -197) translate(601 197) translate(65)"/>
                    <path fill="#FFBE9D" d="M51.104 90.875l23.121.32c.394-2.66 1.231-13.055 1.231-13.055s9.69-.58 10.699-10.125c1.01-9.546 1.428-31.618 1.428-31.618-10.602-5.8-23.511-5.399-33.733 1.047l-1.515.96-1.23 52.471z" transform="translate(-601 -197) translate(601 197) translate(65)"/>
                    <path fill="#263238" d="M76.17 61.795c.709-.199 1.444-.282 2.18-.247.344 0 .615-.061.664-.246.035-.34-.02-.685-.16-.998l-.788-2.771c-.765-2.356-1.297-4.782-1.588-7.242 1.003 2.266 1.778 4.626 2.314 7.045.259.96.493 1.872.727 2.784.17.465.17.975 0 1.44-.126.26-.369.443-.653.493-.196.03-.395.03-.59 0-.712.037-1.424-.05-2.106-.258z" transform="translate(-601 -197) translate(601 197) translate(65)"/>
                    <path fill="#EB996E" d="M75.431 78.004c-4.415-.33-8.633-1.967-12.114-4.705 0 0 2.302 7.144 11.905 7.18l.21-2.475z" transform="translate(-601 -197) translate(601 197) translate(65)"/>
                    <path fill="#FFBE9D" d="M52.41 48.443c-.198-.086-6.538-1.12-6.156 6.43.381 7.55 7.854 4.692 7.867 4.47.012-.221-1.712-10.9-1.712-10.9z" transform="translate(-601 -197) translate(601 197) translate(65)"/>
                    <path fill="#EB996E" d="M51.708 56.806s-.136.099-.345.21c-.307.148-.66.174-.985.074-1.019-.586-1.648-1.67-1.65-2.846-.05-.65.048-1.302.283-1.909.124-.48.473-.87.936-1.047.309-.093.641.04.8.32.111.21 0 .358.111.37.11.012.148-.135.074-.443-.05-.185-.164-.346-.32-.456-.208-.154-.473-.213-.727-.16-.626.147-1.128.616-1.317 1.231-.292.67-.415 1.402-.357 2.131-.018 1.378.8 2.63 2.068 3.166.429.115.886.019 1.232-.259.197-.197.197-.37.197-.382z" transform="translate(-601 -197) translate(601 197) translate(65)"/>
                    <path fill="#263238" d="M67.601 48.258c-.11-.135.074-.492.567-.874.655-.465 1.427-.738 2.228-.789.802-.062 1.604.104 2.315.48.541.309.763.641.677.777-.185.32-1.404-.099-2.906 0-1.502.098-2.659.69-2.88.406zM80.984 48.332c-.074-.332.96-.825 2.314-.813 1.355.013 2.389.493 2.327.838-.061.345-1.095.443-2.327.443-1.23 0-2.253-.11-2.314-.468zM50.009 40.72c.369 2.316.73 4.636 1.083 6.96.062 1.106.442 2.171 1.096 3.066 1.23 1.368 3.471 1.232 5.047.333 2.303-1.343 3.57-3.917 4.543-6.405.973-2.488 1.835-5.112 3.694-7.008 2.741 2.872 7.017 3.657 10.6 1.946 1.539-.764 2.819-1.971 4.296-2.858 1.43-1.012 3.25-1.303 4.925-.788.874.37 1.662 1.084 2.598 1.034.73-.061 1.374-.5 1.698-1.157.307-.657.414-1.39.308-2.107-.308-2.66-2.462-4.779-4.924-5.961-3.435-1.687-7.387-1.921-11.228-1.934-3.642-.108-7.283.253-10.834 1.072-3.566.84-6.809 2.701-9.332 5.358-2.519 2.713-3.661 6.427-3.103 10.087" transform="translate(-601 -197) translate(601 197) translate(65)"/>
                    <path fill="#263238" d="M80.11 33.084c.503 2.451 1.802 4.668 3.693 6.306.853.85 1.987 1.358 3.189 1.429 1.998-.238 3.498-1.94 3.484-3.954-.086-1.96-.93-3.81-2.352-5.16-1.214-1.44-2.94-2.35-4.813-2.538-1.926-.093-3.6 1.313-3.841 3.227M68.943 51.83c0 .68.552 1.232 1.232 1.232.313.02.62-.088.853-.3.232-.21.368-.507.378-.82 0-.681-.552-1.233-1.231-1.233-.315-.023-.625.083-.857.295-.233.212-.369.511-.375.826zM66.998 50.5c.16.16 1.059-.542 2.364-.567 1.305-.024 2.265.616 2.4.444.136-.173-.085-.345-.516-.64-1.157-.77-2.672-.736-3.792.086-.394.332-.53.677-.456.677zM82.313 51.793c0 .68.552 1.232 1.232 1.232.314.024.624-.083.857-.295.233-.212.368-.51.374-.826 0-.68-.551-1.232-1.231-1.232-.64-.002-1.174.485-1.232 1.121z" transform="translate(-601 -197) translate(601 197) translate(65)"/>
                    <path fill="#263238" d="M80.59 50.71c.148.16 1.059-.543 2.364-.567 1.305-.025 2.265.616 2.462.456.197-.16-.086-.358-.517-.653-1.161-.776-2.685-.737-3.804.098-.444.308-.579.604-.505.665zM75.862 65.662c0 .087-.32.234-.91.197-.77-.057-1.49-.4-2.02-.96-.535-.56-.846-1.296-.874-2.07 0-.579.16-.911.234-.899.074.013 0 1.417 1.096 2.525 1.095 1.109 2.487 1.035 2.474 1.207z" transform="translate(-601 -197) translate(601 197) translate(65)"/>
                    <path fill="#EB996E" d="M80.22 115.005l19.219-6.43s13.37 31.667 16.817 32.024c19.07 1.737 39.482-4.582 46.635-7.082.726-.825 1.564-1.798 2.462-3.005.788-1.032 1.396-2.19 1.798-3.424.55-1.52.894-3.107 1.022-4.718-.083-.643.257-1.266.841-1.546.585-.28 1.283-.153 1.732.314.825 1.072 1.034 5.161-.85 9.558-1.883 4.398 4.777.9 7.227-.332s10.218-4.68 11.191-4.225c1.428.665.985 2.316-1.49 3.486-2.474 1.17-9.664 5.222-8.95 6.479.714 1.256 13.1-5.186 13.1-5.186s2.461-1.81 3.299-.382c1.575 2.587-12.115 8.462-13.42 8.992-.923.37-.197 1.773.764 1.318.96-.456 12.212-6.713 13.838-4.09 1.23 2.008-11.204 4.927-12.804 7.526-1.6 2.6 9.209-3.178 10.329-1.232.406.74.616 1.343-6.082 3.696-4.901 1.54-9.882 2.814-14.921 3.818 0 0-68.944 30.866-81.255 1.084-12.644-30.202-10.501-36.643-10.501-36.643z" transform="translate(-601 -197) translate(601 197) translate(65)"/>
                    <path fill="#EBEBEB" d="M105.877 119.008c-7.694-18.02-17.765-25.078-23.083-27.69-1.864-.904-3.89-1.423-5.959-1.527l-.64-3.103-25.485-2.291-.628 3.941-3.693-.21s-21.963 2.205-22.013 27.665c0 11.91 6.415 23.5 8.68 29.179 1.416 11.874-3.693 33.416-3.533 38.663l62.455 4.434 2.56-39.032-.578-3.696 20.56-6.306-8.643-20.027z" transform="translate(-601 -197) translate(601 197) translate(65)"/>
                    <path fill="#263238" d="M244.158 32.837C225.723 9.994 195.352.507 167.2 8.796c-28.151 8.29-48.543 32.724-51.67 61.916-2.505 23.554 6.64 46.848 24.499 62.399l-63.514 74.58 9.11 7.772 64.02-75.208c9.191 5.678 19.542 9.218 30.285 10.358 2.609.28 5.23.42 7.855.419 27.919-.093 53.314-16.187 65.327-41.401 12.013-25.215 8.518-55.086-8.99-76.843l.036.05zm3.767 52.028c-3.075 28.746-26.017 51.315-54.798 53.907-28.78 2.592-55.382-15.517-63.538-43.252-8.156-27.734 4.405-57.37 30.003-70.785 25.597-13.415 57.101-6.872 75.246 15.628 10.128 12.49 14.84 28.515 13.087 44.502z" transform="translate(-601 -197) translate(601 197) translate(65)"/>
                    <path fill="#455A64" d="M239.049 27.726c-18.43-22.855-48.806-32.352-76.963-24.06-28.158 8.29-48.55 32.736-51.666 61.935-2.509 23.554 6.638 46.85 24.5 62.398l-64.29 75.134 9.738 7.797 64.204-75.836c9.195 5.673 19.544 9.213 30.286 10.358 2.609.275 5.23.414 7.854.42 27.92-.094 53.314-16.188 65.327-41.402 12.014-25.214 8.519-55.086-8.99-76.843v.099zm3.767 52.027c-3.071 28.76-26.022 51.344-54.816 53.939-28.794 2.595-55.41-15.521-63.57-43.269-8.16-27.747 4.41-57.398 30.02-70.816 25.61-13.42 57.13-6.869 75.28 15.644 10.123 12.493 14.835 28.515 13.086 44.502z" transform="translate(-601 -197) translate(601 197) translate(65)"/>
                    <path fill="#263238" d="M149.644 112.64c-.182-.156-.343-.334-.48-.53-.296-.37-.751-.9-1.231-1.626-1.497-2.03-2.85-4.162-4.05-6.38-8.112-14.823-9.6-32.38-4.1-48.357.804-2.385 1.775-4.71 2.905-6.96.382-.812.739-1.403.973-1.81.095-.22.223-.423.381-.603-.07.229-.161.451-.27.665-.185.431-.505 1.035-.862 1.847-1.034 2.284-1.938 4.624-2.709 7.009-5.204 15.904-3.729 33.241 4.088 48.036 1.154 2.22 2.436 4.372 3.84 6.442.481.752.9 1.232 1.158 1.688.138.18.258.374.357.579zM152.66 38.097c.111.148-.627.837-1.366 1.81-.739.973-1.231 1.848-1.404 1.786-.172-.061.074-1.133.887-2.18.812-1.047 1.797-1.564 1.883-1.416zM88.838 105.397c.199.552.347 1.121.444 1.7.246 1.096.566 2.697.948 4.693.738 3.966 1.637 9.484 2.462 15.605.825 6.122 1.231 11.69 1.465 15.717.123 2.02.197 3.695.222 4.78.058.585.058 1.175 0 1.76-.126-.57-.2-1.152-.222-1.736-.11-1.232-.259-2.846-.43-4.767-.358-4.015-.9-9.57-1.65-15.68-.752-6.109-1.589-11.615-2.217-15.605-.295-1.897-.541-3.486-.738-4.73-.157-.567-.252-1.15-.284-1.737z" transform="translate(-601 -197) translate(601 197) translate(65)"/>
                    <path fill="#FFBE9D" d="M122.805 165.899s-68.943 30.928-81.254 1.145c-12.632-30.337-10.49-36.779-10.49-36.779l19.218-6.43s13.383 31.668 16.818 32.025c19.082 1.75 39.494-4.582 46.647-7.082.727-.813 1.552-1.798 2.463-2.993.91-1.195 1.625-2.464 2.462-3.535 1.822-2.279 3.262-2.66 4.063-3.56 1.895-2.155 3.693-.579 2.807.58-.887 1.157-2.869 2.34-4.753 6.749-1.883 4.41 4.826 2.23 7.486 1.54 2.93-.776 8.433-2.92 8.433-2.92.135 1.294-1.33 3.893-3.804 5.063-1.341.653-2.718 1.228-4.125 1.724 0 0 5.085-.628 5.22.542.136 1.17-1.502 9.743-6.919 12.317l-4.272 1.614z" transform="translate(-601 -197) translate(601 197) translate(65)"/>
                    <path fill="#EBEBEB" d="M45.761 96.246l12.385 37.407-27.085 10.715s-14.133-36.741 3.768-45.733l10.932-2.39z" transform="translate(-601 -197) translate(601 197) translate(65)"/>
                    <path fill="#263238" d="M59.944 132.2s-.148-.1-.37-.346c-.306-.385-.578-.797-.812-1.231-.754-1.6-1.408-3.246-1.958-4.927-1.514-4.188-3.57-10.002-5.798-16.419l-3.115-9.065c-.96-2.784-1.711-5.37-3.127-7.033-1.068-1.368-2.698-2.178-4.432-2.205-.632.041-1.253.191-1.834.443 0 0 .123-.135.418-.295.435-.229.913-.363 1.404-.394 1.848-.084 3.625.716 4.789 2.155 1.55 1.737 2.351 4.385 3.336 7.132.985 2.746 2.044 5.838 3.164 9.053 2.24 6.417 4.223 12.317 5.626 16.48.714 2.118 1.231 3.855 1.749 4.927.517 1.071 1.01 1.687.96 1.724zM59.365 132.901c-.311.257-.655.473-1.022.64-.677.383-1.674.9-2.917 1.516-2.463 1.231-5.971 2.833-9.85 4.422-3.878 1.588-7.559 2.857-10.206 3.695-1.317.418-2.462.739-3.151.936-.397.142-.811.23-1.231.258 1.356-.632 2.755-1.172 4.185-1.613 2.61-.949 6.156-2.279 10.108-3.855 3.952-1.577 7.387-3.117 9.948-4.25 1.341-.668 2.723-1.252 4.136-1.749z" transform="translate(-601 -197) translate(601 197) translate(65)"/>
                    <path fill="#263238" d="M35.494 142.989c-1.12-1.678-1.867-3.576-2.192-5.567.647.782 1.121 1.693 1.391 2.672.476.895.75 1.883.8 2.895zM41.218 140.784c-.16.086-.898-.998-1.44-2.463-.428-.888-.599-1.878-.493-2.858.504.82.874 1.713 1.096 2.648.41.845.692 1.746.837 2.673zM47.214 138.185c-.748-.694-1.281-1.587-1.539-2.574-.45-.92-.629-1.95-.517-2.968.498.855.875 1.775 1.12 2.734.438.89.753 1.834.936 2.808zM53.628 135.599c-.593-.863-1.012-1.834-1.231-2.858-.409-.962-.622-1.996-.628-3.042.607.85 1.027 1.82 1.231 2.845.42.963.635 2.004.628 3.055zM115.012 138.641c-3.4 1.438-6.881 2.672-10.427 3.695-3.48 1.22-7.028 2.24-10.625 3.055 3.402-1.432 6.883-2.666 10.428-3.695 3.479-1.224 7.027-2.244 10.624-3.055zM98.49 142.989c-.172.074-.713-.838-1.23-2.02-.518-1.183-.776-2.205-.616-2.279.16-.074.702.838 1.231 2.033.53 1.194.8 2.155.616 2.266zM103.81 141.794c-.161 0-.74-1.01-1.134-2.463-.338-.853-.432-1.783-.27-2.685.184 0 .504 1.12.886 2.463.345.853.52 1.765.517 2.685zM109.57 139.971c-.769-1.647-1.136-3.454-1.07-5.271.474.782.765 1.662.85 2.574.28.87.355 1.793.22 2.697zM53.21 87.993c-.185 0-.271-.69-.222-1.527.05-.838.258-1.49.43-1.478.173.012.272.702.21 1.527-.061.825-.246 1.49-.418 1.478zM58.823 88.326c-.184 0-.344-.665-.381-1.49-.037-.826.086-1.516.258-1.516.173 0 .345.653.382 1.49.037.838-.086 1.503-.259 1.516zM63.157 89.077c-.172 0-.308-.702-.308-1.564 0-.862.16-1.552.333-1.552.172 0 .32.702.307 1.552-.012.85-.147 1.564-.332 1.564zM69.017 89.718c-.16 0-.517-.752-.541-1.811-.025-1.06.27-1.872.43-1.835.16.037.173.837.21 1.81.037.973.086 1.786-.099 1.836zM73.868 89.718c-.185 0-.419-.776-.542-1.786-.123-1.01-.074-1.848.099-1.86.172-.013.418.776.541 1.786.124 1.01.062 1.835-.098 1.86z" transform="translate(-601 -197) translate(601 197) translate(65)"/>
                </g>
            </g>
        </g>
    </g>
</svg>
