<svg xmlns="http://www.w3.org/2000/svg" width="759" height="482" viewBox="0 0 759 482">
    <g fill="none" fill-rule="evenodd">
        <g fill-rule="nonzero">
            <g>
                <g fill="#263238">
                    <path d="M758.152 1.028c0 .188-169.7.35-378.982.35C169.888 1.377.14 1.215.14 1.027c0-.189 169.666-.35 379.03-.35 209.364 0 378.982.148 378.982.35z" transform="translate(-582 -119) translate(582 119) translate(0 479.205)"/>
                </g>
                <g transform="translate(-582 -119) translate(582 119) translate(97.815 131.916)">
                    <rect width="519.637" height="343.733" x="22.014" y=".03" fill="#263238" rx="14.57"/>
                    <path fill="#263238" d="M.294 318.337h562.972v9.173c0 11.545-9.356 20.905-20.898 20.905H21.133c-11.542 0-20.898-9.36-20.898-20.905v-9.173h.059z"/>
                    <path fill="#455A64" d="M35.962 13.677H526.2470000000001V303.95000000000005H35.962zM230.613 318.337L237.599 329.447 335.905 329.447 342.386 318.337z"/>
                    <rect width="471.101" height="279.515" x="46.059" y="23.507" fill="#EBEBEB" rx="3.27"/>
                    <path fill="#EBEBEB" d="M46.059 43.989H517.16V303.034H46.059z"/>
                    <path fill="#455A64" d="M84.698 34.336c.005 1.527-.911 2.906-2.32 3.492-1.41.587-3.034.265-4.113-.815-1.08-1.08-1.401-2.704-.815-4.114.586-1.41 1.965-2.326 3.491-2.322 2.073.007 3.75 1.686 3.757 3.759zM61.898 34.336c.004 1.527-.912 2.906-2.321 3.492-1.41.587-3.034.265-4.113-.815-1.08-1.08-1.401-2.704-.815-4.114.587-1.41 1.965-2.326 3.492-2.322 2.072.007 3.75 1.686 3.757 3.759zM72.793 34.336c.005 1.527-.912 2.906-2.321 3.492-1.41.587-3.033.265-4.113-.815-1.079-1.08-1.4-2.704-.814-4.114.586-1.41 1.965-2.326 3.491-2.322 2.072.007 3.75 1.686 3.757 3.759zM537.19 318.337c0 .188-115.342.33-257.57.33-142.229 0-257.606-.142-257.606-.33 0-.188 115.318-.34 257.606-.34 142.287 0 257.57.152 257.57.34z"/>
                </g>
                <g>
                    <path fill="#263238" d="M41.884 418.183c-.14-.066-.273-.145-.399-.235l-1.175-.763-1.879-1.28c-.74-.516-1.62-1.08-2.537-1.843l-3.136-2.465c-1.174-.927-2.349-2.054-3.594-3.204-2.944-2.74-5.691-5.681-8.222-8.805-6.862-8.637-12.103-18.445-15.469-28.948C1.095 356.697-.559 342.043.6 327.476c.605-8.458 2.072-16.832 4.381-24.992 2.45-8.883 6.102-17.39 10.853-25.286 1.233-2.042 2.62-4.015 4.064-5.975l4.604-5.705c1.633-1.831 3.336-3.64 5.027-5.482 1.691-1.843 3.594-3.522 5.403-5.283 7.71-7.03 16.013-13.382 24.818-18.982 17.994-11.633 38.326-21.259 59.256-31.284 20.872-10.213 42.871-20.015 65.422-29.922 90.311-39.537 172.964-73.204 233.172-96.588 30.092-11.74 54.651-20.696 71.647-26.836 8.504-3.028 15.152-5.282 19.638-6.832l5.121-1.749 1.316-.422c.145-.056.294-.1.446-.13l-.423.188-1.292.493-5.085 1.855-19.557 7.043c-16.937 6.28-41.438 15.343-71.483 27.188-60.066 23.63-142.66 57.438-232.96 96.952-22.55 9.92-44.503 19.686-65.375 29.887-20.954 10.013-41.25 19.604-59.173 31.155-8.748 5.539-17 11.823-24.666 18.783-1.797 1.76-3.653 3.439-5.367 5.223-1.715 1.785-3.371 3.616-5.004 5.435l-4.569 5.647c-1.433 1.925-2.807 3.862-4.017 5.87-4.725 7.807-8.36 16.223-10.806 25.015-2.324 8.095-3.811 16.406-4.44 24.804-1.178 14.467.416 29.025 4.699 42.895 3.27 10.477 8.39 20.285 15.116 28.96 2.488 3.12 5.184 6.07 8.07 8.827 1.28 1.174 2.419 2.348 3.523 3.24l3.077 2.512c.905.775 1.774 1.35 2.514 1.879l1.832 1.326 1.116.81c.135.05.265.113.387.188z" transform="translate(-582 -119) translate(582 119) translate(77.175 35.896)"/>
                    <path fill="#EA5E54" d="M496.07 3.399L517.823 21.418 515.814 42.055 533.632 32.159 552.613 45.636 623.344 0.23z" transform="translate(-582 -119) translate(582 119) translate(77.175 35.896)"/>
                    <g fill="#000" opacity=".5">
                        <path d="M2.196 21.142L105.803 0 12.744 28.15 0.188 41.779 0.188 41.779z" transform="translate(-582 -119) translate(582 119) translate(77.175 35.896) translate(515.626 .277)"/>
                    </g>
                    <g fill="#000" opacity=".8">
                        <path d="M12.744 0.253L18.006 3.986 0.188 13.882z" transform="translate(-582 -119) translate(582 119) translate(77.175 35.896) translate(515.626 28.173)"/>
                    </g>
                </g>
                <g>
                    <path fill="#FFF" d="M3.901 115.376L117.331 115.394 117.343 191.72 3.913 191.702z" transform="translate(-582 -119) translate(582 119) translate(166.017 200.118) rotate(-5.42 60.622 153.548)"/>
                    <path fill="#455A64" d="M120.693 186.205s-.082-.492-.176-1.406c-.094-.914-.246-2.344-.434-4.031-.364-3.516-.892-8.719-1.562-15.305-1.314-13.219-3.18-32.156-5.47-55.207l.458.375L.605 121.436c-.117.117.88-1.09.47-.563V121.471l.058.632.118 1.266.235 2.531c.164 1.688.328 3.364.48 5.028.314 3.351.627 6.672.94 9.96.618 6.587 1.233 13.063 1.843 19.43 1.174 12.716 2.348 24.938 3.44 36.516l-.529-.433 81.35-7.453 23.29-2.075 6.21-.539 1.62-.117c.187-.013.376-.013.563 0-.167.033-.335.056-.505.07l-1.56.176-6.105.645-23.149 2.344-81.561 7.957h-.481v-.48c-1.116-11.579-2.278-23.802-3.522-36.517-.61-6.367-1.229-12.844-1.855-19.43-.32-3.289-.638-6.605-.95-9.949-.165-1.676-.318-3.351-.482-5.027l-.235-2.531-.129-1.266V120.978l.481-.585 112.928-10.547h.422v.421c2.102 23.18 3.839 42.188 5.048 55.513.575 6.55 1.033 11.718 1.338 15.234.141 1.7.258 3.012.329 3.961.07.95-.012 1.23-.012 1.23z" transform="translate(-582 -119) translate(582 119) translate(166.017 200.118)"/>
                    <path fill="#455A64" d="M113.474 110.209c-.258.416-.553.808-.88 1.172l-2.654 3.094-9.966 11.296-33.408 37.29-.294.34-.376-.246-3.005-1.91-44.208-28.302-13.324-8.683c-1.502-.996-2.688-1.805-3.603-2.403-.42-.262-.813-.564-1.174-.902.461.201.905.44 1.326.715l3.698 2.238 13.453 8.356 44.372 28.043 3.005 1.922-.669.094 33.644-37.09 10.2-11.063 2.806-2.965c.321-.364.675-.697 1.057-.996z" transform="translate(-582 -119) translate(582 119) translate(166.017 200.118)"/>
                    <path fill="#FFF" d="M356.587 -2.943L412.598 -2.918 412.635 80.312 356.624 80.287z" transform="translate(-582 -119) translate(582 119) translate(166.017 200.118) rotate(-74.22 384.611 38.684)"/>
                    <path fill="#455A64" d="M417.004 76.95s.082-.362.258-1.007c.176-.645.435-1.64.775-2.871.693-2.543 1.702-6.211 2.994-10.887l10.94-39.211.211.375L352.065.825l.47-.258v.2l-.06.222-.128.446-.258.902-.505 1.793-1.01 3.516-1.995 7.03c-1.327 4.688-2.63 9.27-3.91 13.782-2.57 9.012-5.024 17.684-7.36 25.899l-.246-.445 57.602 16.406 16.434 4.746 4.403 1.277 1.173.352.388.129-.364-.082-1.174-.293-4.343-1.172-16.435-4.547-57.907-16.16-.34-.094.093-.34c2.348-8.203 4.766-16.887 7.314-25.91 1.267-4.508 2.566-9.102 3.897-13.781l1.995-7.032c.33-1.172.67-2.344 1.01-3.515l.505-1.793.258-.891.117-.457.07-.223V.333l.482-.27 80.07 22.665.306.094-.094.292c-4.696 16.407-8.593 29.895-11.293 39.317l-3.052 10.793c-.352 1.172-.634 2.133-.822 2.801-.188.668-.352.926-.352.926z" transform="translate(-582 -119) translate(582 119) translate(166.017 200.118)"/>
                    <path fill="#455A64" d="M432.265 23.056c-.282.205-.58.385-.893.539l-2.63 1.406-9.813 5.086-32.774 16.664-.294.153-.188-.27-1.538-2.097-22.714-31.079-6.82-9.469-1.808-2.543c-.23-.29-.427-.604-.587-.937.263.26.502.542.716.844l1.937 2.52 7.043 9.316 22.903 30.95 1.55 2.097-.494-.117 32.869-16.407 9.919-4.863 2.712-1.29c.285-.194.588-.363.904-.503z" transform="translate(-582 -119) translate(582 119) translate(166.017 200.118)"/>
                </g>
                <g>
                    <path fill="#EA5E54" d="M2.535 1.387s5.528-4.478 14.085 8.957c4.49 6.831 8.52 13.955 12.065 21.323 0 0 2.195 2.774 4.038.646 1.843-2.127 4.096-7.899 7.64-7.24 3.545.658 5.247 4.56 5.13 10.508-.118 5.948.117 18.983.14 20.159.024 1.175.846 2.786 2.348 1.54 1.502-1.246 9.671-12.378 14.706-8.17 5.036 4.209 1.996 20.724 1.702 22.534-.293 1.81.118 2.527.998 2.891.88.365 3.286-3.643 5.74-6.711 2.452-3.068 5.868-6.195 8.544-3.527s4.695 14.658-4.918 35.346l-5.059 9.298-10.563.447c-22.77-.459-32.676-7.453-33.885-11.05-1.209-3.597 3.075-5.29 6.902-6.16 3.826-.869 8.462-1.269 8.533-2.22.07-.953-.4-1.646-2.16-2.163-1.76-.518-17.91-5.031-19.472-11.402-1.56-6.371 11.995-8.875 13.768-9.674 1.772-.8.669-2.245-.352-2.774-1.022-.53-12.653-6.454-18.04-8.946-5.387-2.492-8.216-5.618-7.195-9.227 1.021-3.609 7.124-2.986 9.847-3.714 2.723-.73 1.174-3.915 1.174-3.915-5.06-6.414-9.688-13.16-13.85-20.194C-3.909 4.35 2.7 1.305 2.7 1.305" transform="translate(-582 -119) translate(582 119) translate(174.093 186.657)"/>
                    <path fill="#263238" d="M10.223 13.4c.049.101.103.2.164.294l.493.846 1.937 3.233c1.69 2.797 4.155 6.841 7.23 11.754 6.138 9.968 14.742 23.65 24.295 38.72 9.554 15.069 18.181 28.751 24.378 38.672 3.087 4.96 5.587 8.969 7.336 11.755l1.995 3.197c.223.352.4.635.528.823l.188.282c-.048-.102-.103-.2-.164-.294l-.493-.846-1.937-3.115c-1.69-2.798-4.166-6.841-7.23-11.814-6.15-9.956-14.741-23.65-24.295-38.73-9.554-15.082-18.193-28.74-24.39-38.661L12.934 17.76c-.857-1.375-1.526-2.457-1.995-3.197l-.528-.823c-.118-.247-.188-.34-.188-.34z" transform="translate(-582 -119) translate(582 119) translate(174.093 186.657)"/>
                    <path fill="#263238" d="M37.558 33.254c-.095.238-.161.486-.2.74-.105.482-.246 1.176-.398 2.045-.317 1.728-.693 4.126-1.056 6.794-.364 2.669-.658 4.973-.904 6.806-.106.811-.211 1.493-.282 2.057-.055.251-.078.508-.07.764.098-.237.17-.486.211-.74.106-.482.235-1.176.387-2.045.305-1.728.646-4.138 1.01-6.795.364-2.656.692-4.972.95-6.805.118-.8.212-1.493.294-2.057.048-.252.068-.508.058-.764zM33.674 52.743c0-.095-4.895-1.094-10.963-2.222-6.068-1.129-11.02-1.963-11.033-1.869-.011.094 4.895 1.093 10.963 2.222 6.068 1.128 11.02 2.021 11.033 1.869zM49.39 75.229c-.262-.031-.526-.031-.787 0l-2.113.212c-1.784.164-4.248.4-6.971.552-2.723.153-5.2.235-6.984.27h-2.124c-.264-.004-.527.016-.787.06.258.06.522.088.787.081.493 0 1.173.06 2.124.07 1.784 0 4.272 0 7.042-.152 2.77-.153 5.2-.435 6.984-.67.88-.117 1.608-.235 2.1-.317.246-.012.49-.047.728-.106zM56.749 58.385c-.137.196-.255.404-.353.623l-.868 1.775c-.704 1.492-1.667 3.526-2.711 5.877-1.045 2.35-1.972 4.396-2.63 5.877-.328.764-.586 1.375-.75 1.81-.108.216-.187.446-.235.682.147-.189.266-.399.352-.623.211-.411.504-1.01.868-1.763.716-1.505 1.679-3.526 2.723-5.877 1.045-2.351 1.96-4.397 2.618-5.878.328-.752.586-1.375.763-1.81.105-.22.18-.453.223-.693zM73.145 76.487c-.183.247-.336.516-.458.799-.293.6-.669 1.363-1.103 2.269-.927 1.904-2.183 4.56-3.521 7.499s-2.582 5.619-3.45 7.558c-.4.929-.74 1.705-1.01 2.351-.133.28-.243.571-.329.87.185-.251.338-.524.458-.811l1.115-2.257c.916-1.916 2.171-4.56 3.521-7.511 1.35-2.95 2.582-5.607 3.45-7.547.412-.928.74-1.704 1.01-2.35.138-.278.244-.57.317-.87zM63.38 97.21c-.328-.029-.658-.029-.986 0l-2.688.164c-2.265.141-5.399.33-8.861.435-3.463.106-6.608.13-8.885.13h-2.688c-.328-.028-.658-.028-.986 0 .325.062.655.094.986.094.634 0 1.55.082 2.688.117 2.277.059 5.422.083 8.897 0 3.474-.082 6.607-.329 8.873-.529 1.173-.106 2.042-.2 2.676-.282.328-.01.654-.054.974-.13z" transform="translate(-582 -119) translate(582 119) translate(174.093 186.657)"/>
                    <path fill="#EA5E54" d="M412.99 107.413c-4.057-1.698-8.631-1.664-12.664.094-3.985 1.763-7.514 4.417-10.316 7.758-5.587 6.288-8.698 15.457-10.259 23.732 9.26 1.176 18.31-4.807 22.712-8.11 6.96-5.231 16.361-18.902 10.563-23.51M363.003 142.23c4.438-2.205 7.355-6.625 7.64-11.579.203-4.914-1.573-9.703-4.929-13.294-1.502-1.669-3.521-3.174-5.74-3.068-2.128.237-3.959 1.615-4.776 3.597-.79 1.959-1.049 4.092-.752 6.183.705 7.17 2.7 13.976 8.557 18.16" transform="translate(-582 -119) translate(582 119) translate(174.093 186.657)"/>
                    <path fill="#263238" d="M350.831 165.633s.47-.435 1.174-1.328c.704-.894 1.69-2.198 2.864-3.856 3.146-4.285 5.704-8.974 7.606-13.94 1.874-5.046 2.349-10.505 1.373-15.799-.322-1.59-.838-3.133-1.538-4.596-.188-.545-.461-1.057-.81-1.516.763 2.03 1.363 4.117 1.796 6.242.746 5.174.181 10.453-1.643 15.351-1.895 4.887-4.336 9.544-7.277 13.882-1.29 1.781-2.474 3.638-3.545 5.56z" transform="translate(-582 -119) translate(582 119) translate(174.093 186.657)"/>
                    <path fill="#263238" d="M404.646 117.016c-.832.505-1.618 1.084-2.348 1.728-1.467 1.176-3.52 2.88-6.15 5.02-5.14 4.29-12.16 10.332-19.73 17.184-7.57 6.853-14.296 13.248-19.073 17.938-2.347 2.35-4.295 4.267-5.598 5.619-.711.662-1.363 1.386-1.948 2.162.786-.573 1.524-1.21 2.206-1.904l5.81-5.395c4.883-4.573 11.655-10.861 19.237-17.714 7.582-6.853 14.507-12.93 19.53-17.385l5.951-5.243c.756-.613 1.462-1.285 2.113-2.01z" transform="translate(-582 -119) translate(582 119) translate(174.093 186.657)"/>
                    <path fill="#EA5E54" d="M368.331 154.913c8.68-5.768 19.606-6.99 29.343-3.28 2.418.952 5.059 2.692 5.094 5.302.035 2.61-2.547 4.443-4.965 5.407-10.41 3.968-22.18 1.273-29.836-6.83" transform="translate(-582 -119) translate(582 119) translate(174.093 186.657)"/>
                    <path fill="#263238" d="M391.348 156.335c-.46-.333-.972-.587-1.514-.752-.6-.277-1.22-.509-1.855-.694-.837-.274-1.687-.506-2.547-.693-2.23-.52-4.507-.808-6.796-.858-5.634-.131-11.223 1.048-16.326 3.444-2.068.977-4.034 2.158-5.868 3.526-.71.515-1.388 1.073-2.03 1.67-.51.423-.99.882-1.433 1.375-.74.799-1.173 1.257-1.08 1.304.094.047 1.773-1.622 4.93-3.808 1.855-1.266 3.819-2.364 5.869-3.28 2.512-1.102 5.126-1.956 7.805-2.55 2.704-.547 5.456-.823 8.216-.823 2.24.01 4.475.223 6.678.635 3.674.775 5.892 1.716 5.95 1.504z" transform="translate(-582 -119) translate(582 119) translate(174.093 186.657)"/>
                </g>
                <g transform="translate(-582 -119) translate(582 119) translate(236.91 84.354)">
                    <path fill="#FAFAFA" d="M0.504 1.233H296.959V326.584H0.504z"/>
                    <path fill="#263238" d="M296.96 326.584c0-2.348-.106-130.925-.27-325.351l.27.27H.54l.305-.306V326.55l-.259-.259 296.455.259-296.455.258H.328v-.258V.892h297.03v.259c-.293 194.52-.399 323.12-.399 325.433z"/>
                    <path fill="#263238" d="M235.003 234.272c0 .165-37.699.305-84.195.305-46.496 0-84.207-.14-84.207-.305 0-.164 37.687-.305 84.207-.305 46.52 0 84.195.13 84.195.305zM261.348 264.462c0 .165-49.499.306-110.54.306-61.041 0-110.552-.141-110.552-.306 0-.164 49.487-.305 110.552-.305 61.064 0 110.54.141 110.54.305zM261.348 294.462c0 .165-49.499.306-110.54.306-61.041 0-110.552-.141-110.552-.306 0-.164 49.487-.305 110.552-.305 61.064 0 110.54.141 110.54.305z"/>
                    <path fill="#E0E0E0" d="M14.44 13.888c0 1.388-1.125 2.513-2.511 2.513-1.386 0-2.51-1.125-2.51-2.513 0-1.387 1.124-2.512 2.51-2.512.667-.003 1.307.26 1.778.732.472.472.735 1.113.732 1.78z"/>
                    <ellipse cx="20.304" cy="13.888" fill="#E0E0E0" rx="2.51" ry="2.512"/>
                    <path fill="#E0E0E0" d="M31.177 13.888c0 1.388-1.123 2.513-2.51 2.513-1.386 0-2.51-1.125-2.51-2.513 0-1.387 1.124-2.512 2.51-2.512 1.387 0 2.51 1.125 2.51 2.512z"/>
                </g>
                <g>
                    <path fill="#FFBE9D" d="M318.854 150.866l4.884-17.59s1.749-7.142 2.172-8.807c.551-2.205-.998-2.897-1.902-1.396-.352.563-4.215 7.834-4.215 7.834s3.076-11.903 3.193-12.337c.998-3.882-1.42-3.518-2.125-2.087-.704 1.43-5.083 13.145-5.083 13.145 4.097-15.303 2.818-16.652 1.655-16.898-1.162-.246-4.696 13.756-4.696 13.756-.93-1.594-2.19-2.97-3.698-4.035-3.698-2.544-9.873 0-10.167 1.736-.293 1.736 1.902 2.228 1.902 2.228 4.638-2.99 9.392.633 8.91 5.043-.48 4.409-6.092 3.81-6.785.668-1.538-6.907-3.91-4.69-3.91-4.69l2.349 15.244-2.524 7.646" transform="translate(-582 -119) translate(582 119) translate(192.938)"/>
                    <path fill="#455A64" d="M143.106 222.505L248.59 221.801 251.49 293.44 142.272 292.361z" transform="translate(-582 -119) translate(582 119) translate(192.938)"/>
                    <path fill="#263238" d="M143.106 222.505L196.687 179.256 248.59 221.801M142.33 292.361c-.14-.117 8.313-9.322 18.867-20.557 10.554-11.234 19.219-20.228 19.348-20.111.129.117-8.312 9.323-18.867 20.557-10.554 11.234-19.277 20.24-19.347 20.111zM251.513 293.44c-.129.118-8.347-8.912-18.35-20.17-10.002-11.258-18.044-20.475-17.891-20.592.152-.117 8.347 8.912 18.35 20.17 10.002 11.258 18.009 20.475 17.891 20.592z" transform="translate(-582 -119) translate(582 119) translate(192.938)"/>
                    <path fill="#263238" d="M248.59 221.801L195.595 264.041 143.106 222.505" transform="translate(-582 -119) translate(582 119) translate(192.938)"/>
                    <path fill="#FFBE9D" d="M72.619 141.777h.352l-1.409-4.69-4.52-18.013c-.417-1.661.505-3.366 2.125-3.928l3.252-.118 11.13-5.195c.98-.363 2.07-.274 2.977.245.907.518 1.537 1.413 1.719 2.44.41 3.32 2.665 12.209 5.06 9.09l.176-.2c3.369-4.632 7.572-7.142 9.298-7.036.76.063 1.413.566 1.666 1.285.253.72.06 1.52-.492 2.045-.172.225-.388.412-.634.551-.127.074-.248.157-.364.247-1.49 1.315-2.837 2.785-4.015 4.385-1.082 1.412-1.912 2.998-2.454 4.691-.599 1.876-1.033 3.518-1.373 4.902l.868 9.194" transform="translate(-582 -119) translate(582 119) translate(192.938)"/>
                    <path fill="#455A64" d="M102.344 60.17s-13.02-2.486-31.698-19.454C51.968 23.746 42.716.762 40.486.938c-2.23.176-12.033-4.057-29.444 36.67C-6.368 78.335 1.24 87.47 4.914 87.294c3.675-.175 28.481-7.845 44.154-6.52 15.673 1.325 35.972 8.89 35.972 8.89l17.304-29.494z" transform="translate(-582 -119) translate(582 119) translate(192.938)"/>
                    <path fill="#263238" d="M130.45 81.314l-4.18 8.502-1.866 3.811c-2.565 5.198-8.74 7.501-14.088 5.254l-28.012-8.866 15.063-37.244 28.117 13.955c5.379 2.68 7.594 9.187 4.966 14.588z" transform="translate(-582 -119) translate(582 119) translate(192.938)"/>
                    <path fill="#263238" d="M114.836 95.187l-8.336 17.59-4.46-1.102-28.177 24.262-8.511-15.538s16.846-7.821 19.828-13.978c2.982-6.157-.704-7.447-.704-7.447l7.772-9.381 22.588 5.594zM12.557 38.3C3.329 60.358-.216 79.883 4.632 81.912c4.849 2.029 16.272-14.213 25.5-36.271 9.227-22.058 12.773-41.584 7.924-43.612-4.849-2.029-16.272 14.213-25.5 36.27z" transform="translate(-582 -119) translate(582 119) translate(192.938)"/>
                    <path fill="#455A64" d="M133.174 93.357L125.59 91.211 129.992 82.24 135.721 85.582zM89.571 92.794L110.128 105.084 112.511 100.088z" transform="translate(-582 -119) translate(582 119) translate(192.938)"/>
                    <path fill="#455A64" d="M129.992 82.24L125.59 91.211 127.139 91.645 130.673 82.639zM124.862 84.433c-.094.246-3.886-1.173-8.465-3.025-4.578-1.853-8.218-3.66-8.1-3.905.117-.247 3.897 1.172 8.476 3.025 4.578 1.853 8.194 3.659 8.089 3.905zM127.069 79.097c-.118.247-3.522-1.09-7.678-2.966-4.156-1.877-7.385-3.612-7.267-3.859.117-.246 3.522 1.091 7.666 2.979 4.144 1.888 7.35 3.612 7.279 3.846zM122.103 90.027c0 .129-.928 0-2.348-.446-.728-.2-1.573-.457-2.513-.75-.939-.293-1.913-.774-2.958-1.173-4.168-1.794-7.361-3.518-7.267-3.788.094-.27 3.522 1.173 7.643 2.897 1.033.434 1.995.914 2.9 1.266l2.406.927c1.35.527 2.172.938 2.137 1.067zM32.503 32.894s-11.447-6.65-17.164 8.701c-5.717 15.35 6.175 17.508 6.175 17.508 4.878-8.177 8.577-17 10.989-26.21z" transform="translate(-582 -119) translate(582 119) translate(192.938)"/>
                    <path fill="#263238" d="M43.938 14.47c-.028.98-.146 1.953-.352 2.91-.306 1.864-.728 4.573-1.362 7.891-.423 1.642-.893 3.436-1.397 5.36-.259.961-.517 1.958-.787 2.978l-.423 1.571c-.152.528-.352 1.032-.528 1.572l-2.348 6.614c-.2.574-.41 1.172-.622 1.735-.211.563-.493 1.173-.74 1.724l-1.573 3.518-1.585 3.518c-.27.563-.493 1.173-.798 1.689-.305.516-.587 1.079-.892 1.618-1.174 2.123-2.348 4.187-3.405 6.145-.282.48-.528.973-.822 1.43l-.892 1.35-1.726 2.568-3.087 4.596c-2.078 2.662-3.828 4.773-5.025 6.227-.592.784-1.244 1.52-1.949 2.205.477-.858 1.03-1.67 1.655-2.427l4.767-6.415 2.982-4.69c.528-.833 1.092-1.69 1.655-2.569l.88-1.348c.282-.458.517-.95.799-1.443l3.334-6.121.869-1.56c.293-.54.516-1.173.786-1.689l1.562-3.518c.528-1.172 1.056-2.345 1.561-3.518.247-.574.54-1.172.752-1.7l.622-1.724c.822-2.275 1.632-4.468 2.348-6.555.176-.528.387-1.032.552-1.548.164-.516.281-1.044.434-1.548.282-1.009.552-1.994.822-2.944.54-1.9 1.045-3.682 1.514-5.3.681-3.26 1.245-5.863 1.644-7.798.186-.953.445-1.89.775-2.803z" transform="translate(-582 -119) translate(582 119) translate(192.938)"/>
                    <path fill="#EA5E54" d="M111.549 182.082l-11.647-44.175-29.091.774 9.051 61.648c1.174 13.416 9.064 22.187 22.306 24.322 7.983 1.278 16.636-6.321 23.046-11.235 4.18-3.213 4.919-2.58 9.24-6.496l18.783-13.533.458 2.228h-.117l3.181 37.667 38.813 30.49 46.29-37.046-1.056-16.03c.118 0 .223-.235 0-.235l-1.174-18.153 23.715 27.171c5.683 8.278 15.487 12.732 25.468 11.571 9.981-1.16 18.499-7.745 22.126-17.106l12.21-62.152-26.814-5.758-12.55 44.75-29.926-34.395c-17.281-22.492-37.45-20.592-37.45-20.592l-37.193-.657h-.082c-1.104 0-21.884.692-35.972 15.726l-31.615 31.216z" transform="translate(-582 -119) translate(582 119) translate(192.938)"/>
                    <path fill="#FAFAFA" d="M255.305 158.84s-.399-.188-1.174-.434c-1.162-.356-2.382-.484-3.592-.375-1.912.205-3.774.737-5.506 1.571-2.055.915-4.18 2.345-6.657 3.788-2.648 1.735-5.722 2.708-8.887 2.814-1.76-.1-3.49-.497-5.119-1.172-1.667-.657-3.322-1.466-5.06-2.158-3.62-1.469-7.591-1.844-11.423-1.079-3.991.762-7.654 3.002-11.4 5.172-1.854 1.103-3.79 2.067-5.787 2.884-1.959.767-4.012 1.264-6.105 1.478-3.987.446-8.023-.11-11.74-1.618-3.28-1.456-6.374-3.299-9.216-5.489-2.712-1.958-5.213-3.823-7.666-5.241-2.203-1.287-4.573-2.261-7.044-2.897-1.863-.47-3.791-.63-5.706-.469-1.627.181-3.214.629-4.696 1.325l.27-.164c.188-.106.47-.258.857-.446 1.124-.48 2.31-.8 3.522-.95 1.945-.202 3.91-.075 5.811.376 2.514.607 4.929 1.567 7.174 2.85 2.489 1.407 5.013 3.271 7.736 5.206 2.818 2.15 5.885 3.954 9.134 5.37 5.585 2.24 11.814 2.274 17.422.095 1.972-.807 3.88-1.764 5.706-2.862 3.721-2.157 7.455-4.444 11.587-5.218 3.944-.764 8.026-.356 11.74 1.173 3.522 1.419 6.657 3.248 9.98 3.353 3.322.106 6.21-1.336 8.663-2.685 2.454-1.349 4.626-2.826 6.728-3.717 1.775-.828 3.683-1.336 5.635-1.501 1.234-.095 2.474.073 3.64.492.414.12.809.297 1.173.528zM276.872 180.84c-.136.573-.35 1.125-.634 1.641-.804 1.491-1.96 2.764-3.37 3.706-2.214 1.52-4.789 2.433-7.466 2.65-3.529.228-7.072.071-10.566-.469-3.828-.387-8.218-.856-12.527.563-2.201.83-4.291 1.93-6.222 3.272-2.069 1.448-4.256 2.72-6.54 3.8-5.033 2.182-10.6 2.83-16.001 1.864-2.845-.502-5.59-1.464-8.124-2.85-2.583-1.384-4.99-3.096-7.479-4.69-2.391-1.662-5.008-2.973-7.772-3.894-2.707-.776-5.55-.956-8.335-.528-5.518.81-10.566 3.026-15.52 4.374-2.43.732-4.943 1.15-7.479 1.243-2.403.094-4.8-.305-7.044-1.172-4.332-1.783-7.525-4.832-10.354-7.458-2.455-2.49-5.162-4.719-8.077-6.65-2.235-1.404-4.768-2.264-7.397-2.51-1.659-.15-3.33.05-4.907.587-1.068.399-1.573.739-1.597.704.482-.335 1.002-.61 1.55-.821 1.586-.601 3.287-.842 4.978-.704 2.675.206 5.263 1.046 7.549 2.451 2.966 1.912 5.72 4.133 8.218 6.626 2.852 2.615 6.022 5.594 10.249 7.306 2.182.852 4.514 1.251 6.856 1.172 2.49-.106 4.956-.532 7.337-1.266 2.466-.692 4.966-1.56 7.537-2.345 2.613-.952 5.304-1.674 8.042-2.158 2.87-.45 5.802-.27 8.594.528 2.818.944 5.49 2.278 7.936 3.963 2.5 1.618 4.896 3.33 7.42 4.69 2.48 1.355 5.165 2.297 7.948 2.792 5.287.954 10.739.33 15.673-1.794 4.696-2.04 8.335-5.582 12.82-7.036 2.141-.672 4.377-.993 6.621-.95 2.05.036 4.096.185 6.129.445 3.453.556 6.956.74 10.448.552 2.631-.19 5.17-1.05 7.373-2.498 1.394-.912 2.556-2.137 3.393-3.577.552-.973.704-1.571.74-1.56zM310.8 210.696c-.492-.501-1.04-.946-1.632-1.325-1.68-.917-3.63-1.212-5.506-.833-2.756.715-5.303 2.073-7.431 3.964-1.28.997-2.606 2.075-4.11 3.049-3.07 2.213-6.962 2.96-10.636 2.04-1.67-.367-3.313-.845-4.919-1.43-1.538-.516-2.982-1.044-4.367-1.408-1.28-.336-2.59-.556-3.91-.656-1.904-.203-3.83.105-5.576.89-1.174.599-1.76 1.174-1.808 1.103.11-.15.24-.284.388-.399.163-.156.34-.297.528-.422.241-.189.5-.354.775-.492 1.765-.91 3.747-1.316 5.729-1.173 1.35.075 2.69.275 4.003.598 1.42.352 2.888.868 4.414 1.372 3.041.985 6.54 2.193 10.179 1.513 1.748-.372 3.407-1.081 4.884-2.087 1.467-.95 2.782-2.017 4.085-3.002 2.205-1.919 4.844-3.272 7.69-3.94 1.97-.36 4.003.011 5.718 1.043.436.303.83.662 1.174 1.067.131.161.242.339.328.528zM316.694 176.993c-.294.273-.636.488-1.01.633-.998.45-2.067.719-3.158.798-1.613.107-3.234-.04-4.802-.434-1.892-.5-3.75-1.118-5.564-1.853-1.786-.715-3.633-1.264-5.518-1.642-1.553-.275-3.143-.275-4.696 0-1.417.294-2.76.872-3.945 1.7.234-.327.529-.605.869-.82.898-.626 1.912-1.069 2.982-1.302 1.587-.339 3.223-.378 4.825-.117 1.936.359 3.831.909 5.659 1.641 1.794.718 3.624 1.344 5.482 1.877 1.512.4 3.074.582 4.638.54 1.461-.09 2.896-.436 4.238-1.021zM238.846 221.32c-.993-.529-2.016-.999-3.065-1.407-2.918-.978-6.017-1.298-9.075-.938-4.511.603-8.882 1.993-12.914 4.104-4.696 2.193-9.591 5.125-15.332 7.036-2.788.933-5.701 1.435-8.64 1.49-2.74-.046-5.457-.512-8.054-1.384-2.328-.786-4.613-1.694-6.845-2.72-2.101-.927-4.05-1.83-5.87-2.534-2.823-1.223-5.816-2.013-8.875-2.345l-1.444-.082h-1.069c-.292.027-.587.027-.88 0 .29-.066.584-.105.88-.117l1.057-.094h1.467c3.1.234 6.144.958 9.017 2.146 1.843.692 3.804 1.571 5.87 2.474 2.226 1.002 4.502 1.886 6.82 2.65 2.544.838 5.2 1.285 7.878 1.326 2.877-.06 5.727-.559 8.453-1.478 5.647-1.83 10.566-4.69 15.262-6.907 4.105-2.122 8.56-3.484 13.149-4.022 3.114-.328 6.261.073 9.192 1.172 1.08.395 2.096.944 3.018 1.63zM78.512 191.347c.166-.12.353-.208.552-.258.588-.156 1.21-.131 1.784.07.92.297 1.734.85 2.348 1.595.733.997 1.355 2.07 1.855 3.201.63 1.308 1.512 2.48 2.595 3.448 1.278 1.061 2.755 1.859 4.344 2.345 3.714 1.083 7.633 1.272 11.434.551 3.844-.745 7.736-1.212 11.647-1.395 3.251-.072 6.452.813 9.204 2.545 1.875 1.146 3.341 2.853 4.19 4.878.313.743.48 1.54.494 2.345-.2-.75-.439-1.49-.716-2.216-.9-1.927-2.366-3.535-4.203-4.609-2.7-1.63-5.816-2.444-8.97-2.345-3.879.213-7.739.695-11.552 1.442-3.906.738-7.933.525-11.74-.621-1.656-.54-3.185-1.41-4.496-2.557-1.12-1.02-2.023-2.257-2.653-3.635-.466-1.117-1.049-2.182-1.738-3.178-.547-.714-1.283-1.263-2.125-1.583-.726-.265-1.522-.273-2.254-.023zM103.976 155.521c-1.215-.965-2.607-1.686-4.097-2.122-1.62-.418-3.305-.53-4.966-.329-2.027.29-4.003.863-5.87 1.7-2.02.868-3.886 1.865-5.612 2.71-1.523.776-3.091 1.461-4.696 2.052-1.092.383-2.215.67-3.357.856-.416.092-.844.12-1.268.082 1.515-.366 3.008-.816 4.473-1.349 1.573-.637 3.113-1.353 4.613-2.146 1.703-.868 3.581-1.876 5.636-2.767 1.935-.864 3.989-1.433 6.093-1.689 1.732-.19 3.484-.03 5.154.47 1.122.338 2.17.888 3.087 1.617.322.256.596.565.81.915z" transform="translate(-582 -119) translate(582 119) translate(192.938)"/>
                    <g fill="#000" opacity=".3">
                        <path d="M.869 66.497c15.062-8.725 32.508-18.963 41.207-34.008 5.565-9.64 8.336-21.179 9.392-32.249l2.266 34.418-46.29 37.045-6.575-5.206z" transform="translate(-582 -119) translate(582 119) translate(192.938) translate(188.117 192.045)"/>
                    </g>
                    <g fill="#000" opacity=".2">
                        <path d="M39.282.446C35.948 13.467 28.734 25.17 18.596 34.008c-2.413 2.272-5.243 4.056-8.335 5.253-3.129 1.19-6.62.964-9.568-.621l.223-.798 23.48-23.207L39.282.445z" transform="translate(-582 -119) translate(582 119) translate(192.938) translate(110.633 144.24)"/>
                    </g>
                    <path fill="#263238" d="M114.53 200.529c-.093 0 .282-1.067.6-2.78.396-2.236.416-4.523.058-6.766-.375-2.241-1.129-4.403-2.23-6.391-.858-1.525-1.55-2.345-1.468-2.44.744.621 1.37 1.372 1.843 2.217 1.24 1.987 2.074 4.199 2.454 6.509.39 2.314.31 4.682-.235 6.965-.175.95-.52 1.86-1.021 2.686zM107.803 194.665c2.595-3.404 3.78-7.673 3.311-11.926.295.57.455 1.2.47 1.841.319 3.112-.545 6.23-2.419 8.737-.728.914-1.303 1.348-1.362 1.348zM151.488 170.39c.164 0 1.174 9.382 2.149 20.875.974 11.492 1.714 20.92 1.537 20.932-.176.012-1.174-9.382-2.148-20.874-.974-11.492-1.714-20.92-1.538-20.932zM214.156 134.46c.113.199.2.412.259.633.215.612.384 1.24.504 1.876.452 2.371.417 4.809-.105 7.165-.768 3.524-2.546 6.747-5.119 9.276-6.764 6.224-17.107 6.45-24.137.528-2.678-2.416-4.595-5.557-5.518-9.041-.623-2.332-.77-4.764-.435-7.154.1-.643.245-1.277.435-1.9.048-.223.123-.44.223-.644.07 0-.223.914-.423 2.58-.241 2.362-.034 4.75.61 7.036.953 3.373 2.852 6.404 5.472 8.736 6.837 5.667 16.806 5.447 23.386-.516 4.264-4.152 6.266-10.102 5.377-15.984-.259-1.688-.6-2.568-.529-2.591zM282.366 205.102c-.374-2.433-.441-4.903-.2-7.353.042-2.464.39-4.914 1.033-7.294.177 0-.2 3.296-.422 7.33-.223 4.034-.235 7.317-.411 7.317zM287.074 207.236c-.433-.735-.768-1.523-.998-2.345-.667-1.978-1.212-3.995-1.632-6.04-.424-2.044-.725-4.111-.904-6.191-.118-.86-.118-1.732 0-2.592.176 0 .528 3.917 1.526 8.666.998 4.75 2.184 8.444 2.008 8.502zM239.609 207.917c-.176 0-.564-6.603-.869-14.764-.305-8.162-.41-14.765-.247-14.776.165-.012.552 6.602.857 14.752.306 8.15.423 14.776.259 14.788z" transform="translate(-582 -119) translate(582 119) translate(192.938)"/>
                    <path fill="#FFBE9D" d="M197.509 156.389c-8.8-.172-15.948-7.153-16.319-15.937-.27-6.426-.493-12.325-.493-12.325s-13.466-1.43-14.276-14.764c-.81-13.333 0-44.104 0-44.104 15.15-7.395 33.119-6.018 46.96 3.6l2.055 1.43-.986 65.67c-.053 4.427-1.87 8.65-5.05 11.734-3.18 3.084-7.46 4.774-11.891 4.696z" transform="translate(-582 -119) translate(582 119) translate(192.938)"/>
                    <path fill="#EB996E" d="M180.686 127.94c6.173-.188 12.151-2.205 17.175-5.793 0 0-3.65 9.803-17.046 9.252l-.13-3.46z" transform="translate(-582 -119) translate(582 119) translate(192.938)"/>
                    <path fill="#FFBE9D" d="M214.473 88.186c.223-.106 9.052-3.155 9.205 5.992.152 9.147-9.064 7.4-9.087 7.142-.024-.258-.118-13.134-.118-13.134z" transform="translate(-582 -119) translate(582 119) translate(192.938)"/>
                    <path fill="#EB996E" d="M217.326 97.813s.165.106.435.223c.377.15.796.15 1.174 0 .962-.363 1.749-1.911 1.76-3.518.013-.78-.151-1.555-.48-2.263-.184-.555-.62-.99-1.175-1.173-.379-.09-.768.102-.927.458-.118.258 0 .433-.106.457-.106.023-.2-.153-.13-.54.045-.224.165-.427.341-.574.249-.198.566-.287.88-.246.768.141 1.408.669 1.691 1.395.406.782.612 1.652.6 2.533 0 1.841-.952 3.577-2.267 3.987-.494.15-1.03.068-1.455-.223-.317-.304-.364-.504-.34-.516z" transform="translate(-582 -119) translate(582 119) translate(192.938)"/>
                    <path fill="#263238" d="M172.855 89.44c-.013 1.036.807 1.892 1.843 1.924.489.038.972-.122 1.341-.444.37-.322.593-.78.62-1.268.013-1.034-.798-1.891-1.832-1.935-.492-.039-.978.122-1.35.447-.37.324-.595.784-.622 1.276zM170.507 87.529c.235.258 1.679-.82 3.733-.81 2.055.013 3.522 1.033 3.792.775.27-.258-.129-.551-.786-1.032-.889-.618-1.947-.946-3.03-.938-1.07-.002-2.114.334-2.981.961-.622.481-.834.938-.728 1.044zM192.578 89.675c-.013 1.036.807 1.891 1.843 1.923.491.042.978-.116 1.35-.439.371-.322.596-.782.623-1.273.013-1.038-.805-1.897-1.843-1.935-.492-.038-.979.123-1.35.447-.371.325-.596.785-.623 1.277z" transform="translate(-582 -119) translate(582 119) translate(192.938)"/>
                    <path fill="#263238" d="M190.723 87.951c.235.246 1.69-.82 3.745-.82s3.522 1.031 3.78.785c.259-.246-.129-.563-.786-1.032-.886-.623-1.946-.951-3.029-.938-1.07 0-2.113.337-2.982.961-.622.446-.845.892-.728 1.044zM183.268 103.196c-1.085-.34-2.21-.545-3.346-.61-.528 0-1.02-.152-1.103-.516-.047-.538.071-1.078.34-1.548.505-1.266 1.022-2.603 1.562-3.999 2.148-5.687 3.71-10.354 3.522-10.436-.188-.082-2.172 4.444-4.32 10.132-.517 1.407-1.022 2.744-1.492 4.022-.33.63-.426 1.358-.27 2.052.153.375.468.66.857.774.292.074.592.114.893.117 1.114.145 2.242.15 3.357.012zM189.291 104.568c-.329 0-.34 2.205-2.254 3.788-1.914 1.583-4.285 1.337-4.297 1.653 0 .141.528.434 1.538.458 1.308.017 2.58-.427 3.592-1.255.97-.795 1.592-1.934 1.738-3.178.106-.926-.14-1.478-.317-1.466zM190.195 79.871c.2.552 2.254.294 4.696.587 2.442.293 4.356.938 4.696.445.153-.246-.188-.774-.974-1.313-2.13-1.338-4.756-1.627-7.127-.786-.939.364-1.373.798-1.291 1.067zM171.27 81.584c.364.469 1.785 0 3.522 0 1.738 0 3.146.316 3.522-.176.14-.235-.082-.704-.716-1.173-.842-.539-1.83-.805-2.83-.762-.999.015-1.968.343-2.77.938-.693.504-.88.95-.728 1.173z" transform="translate(-582 -119) translate(582 119) translate(192.938)"/>
                    <path fill="#263238" d="M159.624 60.44c-.187-1.686.505-3.35 1.831-4.41 1.392-1.005 3.307-.861 4.532.34-.25-1.129-.01-2.312.661-3.255.671-.943 1.71-1.558 2.861-1.693 2.184-.14 4.05 1.513 6.152 2.087 2.103.429 4.289.17 6.234-.738 1.984-.798 3.839-1.9 5.87-2.627 8.813-3.22 18.577 1.254 21.883 10.026 3.058-.749 6.261.464 8.054 3.05 1.706 2.584 2.388 5.711 1.913 8.771-.29 2.048-.806 4.057-1.537 5.992v.516c-.141 7.341-.975 15.972-4.11 16.02-5.47.081-4.167-10.215-4.167-10.215-6.715-2.58-4.215-12.63-5.87-14.154-1.656-1.525-5.19-5.066-19.242 2.11-5.46 2.78-12.715 2.698-16.683 1.795-.114-.017-.228-.04-.34-.07h-.2c-1.273-.319-2.489-.833-3.604-1.525-1.318-.757-2.36-1.916-2.97-3.307-.597-1.42-.298-3.057.763-4.175-1.11-1.28-1.817-2.858-2.031-4.538z" transform="translate(-582 -119) translate(582 119) translate(192.938)"/>
                </g>
            </g>
        </g>
    </g>
</svg>
