<?xml version="1.0" encoding="UTF-8"?>
<svg width="763px" height="456px" viewBox="0 0 763 456" version="1.1" xmlns="http://www.w3.org/2000/svg" xmlns:xlink="http://www.w3.org/1999/xlink">
    <title>A9AA3B96-A945-48F6-BC8D-578FAA2AA8AA</title>
    <g id="Webpages" stroke="none" stroke-width="1" fill="none" fill-rule="evenodd">
        <g id="08-ELA" transform="translate(-673.000000, -158.000000)" fill-rule="nonzero">
            <g id="Group-5" transform="translate(673.807339, 158.000000)">
                <g id="Live-collaboration-pana-(1)" transform="translate(8.891923, 92.000000)">
                    <g id="freepik--background-complete--inject-33" transform="translate(40.300738, 209.000000)" fill="#E0E0E0">
                        <path d="M0.4725,93 C0.638339976,92.7202675 0.769788793,92.4215899 0.864,92.1104348 C1.107,91.396087 1.4175,90.5334783 1.782,89.4821739 C2.5785,87.1908696 3.645,83.8617391 4.9005,79.723913 C7.4385,71.4482609 10.557,59.8973913 13.8375,47.12 C17.118,34.3426087 20.142,22.7782609 22.491,14.4621739 C23.652,10.4186957 24.597,7.08956522 25.299,4.62304348 C25.6095,3.54478261 25.8525,2.65521739 26.055,1.9273913 C26.1707177,1.62107708 26.2345895,1.29767724 26.244,0.970434783 C26.0857899,1.25697797 25.9590544,1.55974969 25.866,1.87347826 C25.6095,2.58782609 25.299,3.45043478 24.9345,4.50173913 C24.138,6.77956522 23.0715,10.1221739 21.816,14.26 C19.2915,22.5356522 16.1595,34.0730435 12.879,46.863913 C9.5985,59.6547826 6.5745,71.2056522 4.2255,79.5217391 C3.078,83.5652174 2.1195,86.8943478 1.4175,89.3608696 L0.675,92.0565217 C0.570877991,92.362054 0.502916037,92.678699 0.4725,93 L0.4725,93 Z" id="Path"></path>
                    </g>
                    <g id="freepik--character-2--inject-33" transform="translate(330.300738, 0.000000)">
                        <path d="M421.341702,165.062583 L347.451125,349.842952 L139.87234,349.842952 L205.836474,162.523985 C206.314231,161.166932 207.594952,160.25771 209.033921,160.254022 L418.184559,160.388339 C419.316299,160.386043 420.374948,160.947074 421.008312,161.884789 C421.641676,162.822503 421.766667,164.013885 421.341702,165.062583 L421.341702,165.062583 Z" id="Path" fill="#ABC4D0"></path>
                        <path d="M409.908815,170.394982 L342.077264,335.941107 C341.776488,336.668779 341.064535,337.14154 340.277021,337.136983 L151.264924,337.136983 C150.642736,337.150104 150.053569,336.857267 149.688805,336.353145 C149.324042,335.849022 149.230218,335.19793 149.437812,334.611365 L209.584742,169.06524 C209.862428,168.30405 210.588013,167.798936 211.398419,167.802636 L408.16231,167.802636 C408.787417,167.807353 409.369958,168.120081 409.71919,168.638445 C410.068422,169.156808 410.139374,169.814055 409.908815,170.394982 L409.908815,170.394982 Z" id="Path" fill="#FFFFFF"></path>
                        <polygon id="Path" fill="#ABC4D0" points="347.410821 350.13845 345.570274 350.13845 65.4175076 350.13845 65.4175076 337.136531 339.75307 337.136531"></polygon>
                        <path d="M153.302796,172.235129 C153.302796,172.235129 147.619939,239.769889 135.380973,243.060664 C102.06304,252.006199 63.9489362,245.384354 50.5680243,242.751734 C49.0633435,241.408561 47.3302736,239.904207 45.3688146,237.970037 C43.7074514,236.287276 42.3445421,234.334197 41.3384195,232.194391 C39.9463211,229.575463 38.9201978,226.777963 38.2887538,223.880148 C37.9663222,221.193801 34.5942249,220.253579 33.398541,222.416089 C32.2028571,224.578598 31.7057751,232.839114 36.1929483,240.360886 C36.5913531,241.319154 36.5498941,242.403816 36.0795024,243.328891 C35.6091106,244.253967 34.7570021,244.9266 33.7478419,245.169446 C28.0918541,247.264797 8.15483283,253.456827 4.93051672,254.974613 C2.06893617,256.317786 -0.698601824,258.762362 2.31075988,259.259336 C5.32012158,259.75631 21.791003,257.378893 21.791003,257.378893 C21.791003,257.378893 0.147781155,260.06524 0.685167173,263.181402 C1.04790274,265.343911 6.87854103,266.378155 21.0117933,263.181402 C21.0117933,263.181402 3.19744681,265.505092 1.34346505,267.372103 C-2.86158055,271.589668 18.5935562,268.997343 18.5935562,268.997343 C3.57361702,270.944945 3.73483283,270.165904 3.57361702,272.220959 C3.45270517,273.765609 6.85167173,274.383469 15.1005471,274.477491 C21.8178723,274.558081 28.6964134,275.981845 38.8798784,276.666863 L38.8798784,276.666863 C38.8798784,276.666863 167.651003,313.080295 185.317568,256.42524 C194.869605,225.881476 194.923343,214.263026 198.228267,194.249742" id="Path" fill="#FFBE9D"></path>
                        <path d="M27.6082067,268.04369 C27.6082067,268.419779 23.0807295,269.212251 17.371003,269.803247 C11.6612766,270.394244 7.01288754,270.582288 6.99942333,270.192768 C6.98601824,269.803247 11.5537994,269.024207 17.2366565,268.43321 C22.9195137,267.842214 27.5544681,267.667601 27.6082067,268.04369 Z" id="Path" fill="#A36957"></path>
                        <path d="M27.4738602,262.200886 C27.4738602,262.576974 22.6911246,263.691808 16.7261398,264.685756 C10.761155,265.679705 5.76346505,266.190111 5.69629179,265.827454 C5.62911854,265.464797 10.4655927,264.336531 16.4440122,263.329151 C22.4224316,262.321771 27.4066869,261.824797 27.4738602,262.200886 Z" id="Path" fill="#A36957"></path>
                        <path d="M27.2857751,256.129742 C27.3529483,256.50583 22.7986018,257.634096 17.1157447,258.654908 C11.4328875,259.67572 6.75762918,260.199557 6.69045593,259.8369 C6.62328267,259.474244 11.1776292,258.319114 16.8604863,257.298303 C22.5433435,256.277491 27.2186018,255.753653 27.2857751,256.129742 Z" id="Path" fill="#A36957"></path>
                        <polygon id="Path" fill="#263238" points="320.416413 287.506273 328.786201 336.250037 198.214833 336.250037 203.212523 298.372546"></polygon>
                        <path d="M166.589666,120.093137 C166.589666,120.093137 147.606505,177.083985 148.829058,179.353948 L190.597386,189.038229 L166.589666,120.093137 Z" id="Path" fill="#EA0028"></path>
                        <path d="M166.589666,120.093137 C166.589666,120.093137 147.606505,177.083985 148.829058,179.353948 L190.597386,189.038229 L166.589666,120.093137 Z" id="Path" fill="#D53C31"></path>
                        <path d="M202.312401,227.144059 L198.282006,308.714982 L324.419939,294.437048 L304.684438,215.592768 C304.684438,215.592768 291.115441,124.176384 266.382249,114.048856 C257.809234,110.721644 249.048198,107.900602 240.144377,105.600295 C224.388717,101.12876 207.888654,99.90409 191.645289,102.00059 L189.10614,102.336384 C178.823713,103.467977 170.085257,110.359224 166.589666,120.093137 C166.589666,120.093137 166.146322,148.165461 174.771368,166.754982 L202.312401,227.144059 Z" id="Path" fill="#EA5E54"></path>
                        <path d="M232.177629,334.705387 C231.989544,334.705387 231.707416,328.083542 231.559635,319.93048 C231.411854,311.777417 231.438723,305.155572 231.559635,305.155572 C231.680547,305.155572 232.043283,311.790849 232.191064,319.93048 C232.338845,328.070111 232.419453,334.705387 232.177629,334.705387 Z" id="Path" fill="#455A64"></path>
                        <path d="M239.136778,308.809004 C239.136778,308.809004 239.271125,308.594096 239.687599,308.446347 C240.450097,308.231911 241.269166,308.39368 241.892828,308.881889 C242.516491,309.370097 242.870052,310.126272 242.844742,310.917786 C242.814481,312.130154 242.039829,313.198407 240.896717,313.604133 C239.757211,313.929762 238.531376,313.587018 237.72614,312.717638 C237.092951,312.029377 236.810681,311.088681 236.960365,310.165609 C237.242492,308.607528 238.196353,308.08369 238.209787,308.16428 C237.820645,308.790442 237.564554,309.489969 237.457447,310.219336 C237.389405,311.051489 237.730659,311.864694 238.372209,312.399203 C239.013759,312.933712 239.875343,313.122655 240.681763,312.905683 C241.535003,312.588885 242.130621,311.810571 242.213313,310.904354 C242.261385,310.158331 241.881029,309.449877 241.232584,309.077638 C240.594275,308.722742 239.84399,308.626573 239.136778,308.809004 L239.136778,308.809004 Z" id="Path" fill="#455A64"></path>
                        <path d="M322.498784,316.787454 C322.3448,316.937232 322.173403,317.068006 321.988267,317.176974 C321.501432,317.540834 320.9946,317.877153 320.470152,318.184354 C318.544262,319.344402 316.499452,320.294537 314.370821,321.01845 C299.861344,326.095895 283.745114,320.897 274.940122,308.298598 C273.641574,306.473812 272.5426,304.515001 271.662067,302.455793 C271.326201,301.73048 271.15155,301.11262 271.003769,300.749963 C270.855988,300.387306 270.815684,300.145535 270.842553,300.131938 C270.869422,300.118672 271.232158,300.924576 271.903891,302.334908 C274.316774,307.294039 277.826741,311.639207 282.167964,315.041328 C288.517185,320.071562 296.47096,322.637969 304.563526,322.267601 C307.847112,322.14125 311.097577,321.562711 314.22304,320.548339 C316.333377,319.872887 318.375483,319.000459 320.322371,317.942583 C321.023189,317.512804 321.750063,317.127016 322.498784,316.787454 L322.498784,316.787454 Z" id="Path" fill="#455A64"></path>
                        <path d="M220.650699,156.345387 C220.193614,156.877106 219.690064,157.367062 219.146018,157.809446 C217.730493,159.09098 216.226581,160.271407 214.64541,161.341993 C212.289141,162.999351 209.572103,164.072118 206.718967,164.471587 C203.195539,164.673689 199.679368,163.965981 196.508632,162.416531 C193.109666,160.925609 190.06,159.192915 187.104377,158.118376 C184.518418,157.066302 181.712473,156.669495 178.936109,156.963247 C177.067896,157.171925 175.285758,157.861485 173.763769,158.964576 C172.715866,159.77048 172.272523,160.388339 172.218784,160.307749 C172.291608,160.140358 172.39146,159.986075 172.514347,159.85107 C172.835253,159.436786 173.200119,159.058489 173.602553,158.722804 C175.114217,157.493708 176.937261,156.707923 178.868936,156.452841 C181.727889,156.076982 184.635485,156.432843 187.319331,157.487085 C190.368997,158.548192 193.445532,160.280886 196.79076,161.744945 C199.8548,163.255725 203.252715,163.962892 206.665228,163.8 C209.431112,163.447804 212.076413,162.454307 214.390152,160.898745 C215.980772,159.872197 217.514572,158.760209 218.984802,157.567675 C219.507892,157.118091 220.064837,156.709454 220.650699,156.345387 L220.650699,156.345387 Z" id="Path" fill="#FAFAFA"></path>
                        <path d="M187.561155,124.445018 C186.894304,125.300469 186.074316,126.024635 185.142918,126.580664 C180.765283,129.553741 175.408853,130.722951 170.190152,129.844576 C169.110068,129.728816 168.061641,129.409799 167.100182,128.904354 C167.100182,128.7969 168.322736,129.132694 170.257325,129.361033 C175.34898,129.937474 180.488333,128.813485 184.874225,126.16428 C186.553556,125.1569 187.480547,124.350996 187.561155,124.445018 Z" id="Path" fill="#FAFAFA"></path>
                        <path d="M301.607903,201.28797 C301.335122,201.555064 301.043267,201.801964 300.73465,202.026716 C299.835201,202.670366 298.866316,203.211021 297.846201,203.638524 C294.006975,205.025272 289.875197,205.399965 285.849058,204.726494 C283.088221,204.313881 280.352328,203.748885 277.653921,203.034096 C274.567906,202.199837 271.424665,201.593772 268.249666,201.220812 C264.765529,200.923321 261.256263,201.177166 257.851246,201.972989 C254.173332,202.855377 250.577652,204.050681 247.103526,205.54583 C239.942857,208.514244 233.171793,211.751292 226.481337,213.13476 C220.56607,214.37109 214.444234,214.214743 208.599818,212.678081 C204.685334,211.69985 200.839245,210.465959 197.086322,208.984354 L194.023222,207.762066 C193.666759,207.632341 193.320899,207.475166 192.988754,207.291956 C193.360072,207.373916 193.72403,207.486225 194.07696,207.627749 L197.180365,208.729151 C200.951727,210.10823 204.800625,211.265339 208.707295,212.194539 C214.486968,213.63898 220.520263,213.744643 226.346991,212.503469 C232.92997,211.160295 239.647295,207.882952 246.834833,204.887675 C250.333903,203.381827 253.956894,202.181916 257.663161,201.301402 C261.140317,200.499943 264.72264,200.255128 268.276535,200.576089 C271.453867,200.973702 274.597267,201.606735 277.68079,202.469963 C280.335753,203.197872 283.026193,203.789641 285.741581,204.242952 C289.696799,204.94886 293.76586,204.653329 297.577508,203.383321 C298.999286,202.847038 300.352247,202.143651 301.607903,201.28797 Z" id="Path" fill="#FAFAFA"></path>
                        <path d="M201.640669,251.173432 C201.640669,251.173432 201.640669,251.07941 201.815319,250.918229 L202.393009,250.179483 C203.189163,249.292986 204.091616,248.508023 205.079939,247.842362 C206.651294,246.78395 208.378288,245.977288 210.198541,245.451513 C212.612569,244.76339 215.119043,244.455247 217.627903,244.538155 C223.243587,244.618745 229.571307,246.942435 236.208024,249.910849 C239.662275,251.499917 243.200873,252.898906 246.807964,254.10155 C250.650834,255.414994 254.708722,255.984798 258.764802,255.780517 C262.797903,255.346548 266.691496,254.055071 270.184255,251.992768 C273.66383,250.112325 276.834407,247.963247 280.045289,246.20369 C283.060005,244.440623 286.333248,243.162431 289.745106,242.415941 C297.174825,241.098417 304.803041,243.194981 310.515076,248.124428 C311.744485,249.160088 312.832985,250.35221 313.752827,251.670406 C313.664435,251.607628 313.587229,251.530439 313.524438,251.442066 C313.349787,251.267454 313.148267,251.039114 312.906444,250.77048 C312.582393,250.388526 312.232253,250.029486 311.858541,249.695941 C311.381187,249.216819 310.874147,248.768208 310.340426,248.352768 C306.986207,245.603909 302.986741,243.754847 298.719453,242.980074 C295.787618,242.449873 292.784419,242.449873 289.852584,242.980074 C286.51196,243.731191 283.310921,245.004983 280.36772,246.754391 C277.183708,248.513948 274.026565,250.676458 270.520122,252.583764 C266.943946,254.703408 262.952768,256.027404 258.818541,256.465535 C254.675766,256.668765 250.531988,256.085389 246.606444,254.746273 C242.980507,253.521485 239.42401,252.100092 235.952766,250.488413 C229.342918,247.506568 223.10924,245.182878 217.601033,245.021697 C215.142641,244.921437 212.683208,245.193139 210.306018,245.827601 C208.512449,246.310589 206.804091,247.067177 205.241155,248.070701 C203.912351,248.945605 202.702173,249.988481 201.640669,251.173432 L201.640669,251.173432 Z" id="Path" fill="#FAFAFA"></path>
                        <path d="M315.566505,294.262435 C314.934125,292.734083 314.136758,291.279316 313.188571,289.923985 C310.424273,286.336042 306.596878,283.712918 302.252766,282.429077 C299.295606,281.480228 296.192875,281.066317 293.090334,281.20679 C289.524976,281.375898 285.997296,282.01264 282.597872,283.100664 C278.827776,284.300727 275.146591,285.763905 271.581459,287.47941 C267.846626,289.212103 264.031185,291.159705 260.00079,292.919262 C256.119794,294.691269 252.068538,296.063897 247.909605,297.015941 C243.983836,297.793823 239.973257,298.055719 235.979635,297.794982 C229.230886,297.235098 222.60022,295.69205 216.297872,293.21476 C210.924012,291.186568 206.705532,289.18524 203.790213,287.842066 L200.471854,286.230258 L199.612036,285.787011 L199.329909,285.612399 C199.442576,285.630199 199.551524,285.666507 199.65234,285.719852 L200.525593,286.095941 L203.911125,287.600295 C206.839878,288.943469 211.085228,290.783616 216.472523,292.758081 C222.737492,295.14231 229.310489,296.621252 235.99307,297.150258 C239.925439,297.395715 243.873026,297.124772 247.734954,296.344354 C251.892113,295.416453 255.943551,294.066267 259.82614,292.314834 C263.856535,290.568708 267.645106,288.634539 271.406809,286.94214 C275.001901,285.221342 278.714733,283.758076 282.517264,282.563395 C285.970085,281.473973 289.553001,280.8506 293.170942,280.709815 C296.360835,280.591215 299.546115,281.046157 302.575198,282.052989 C306.985437,283.406405 310.84315,286.142479 313.578176,289.856827 C314.285082,290.87556 314.875422,291.97038 315.338116,293.120738 C315.459027,293.496827 315.566505,293.792325 315.647112,294.034096 C315.627174,294.11248 315.600195,294.188904 315.566505,294.262435 Z" id="Path" fill="#FAFAFA"></path>
                        <g id="Group" opacity="0.2" transform="translate(209.237082, 193.416974)" fill="#000000">
                            <path d="M10.1910638,112.598229 C22.9942857,112.087823 35.8109422,107.816531 45.6048024,99.5560148 C59.0394529,88.2464945 65.6358663,70.4897417 67.1002432,53.0016236 C68.5646201,35.5135055 65.4477812,18.0791144 62.3443769,0.752177122 C50.3550016,17.544961 40.6129377,35.8327657 33.3658359,55.1507011 C28.6099696,67.8302583 24.4317933,81.6783764 13.8990274,90.1806642 C10.1373252,93.2162362 5.65015198,95.4861993 2.70796353,99.3142435 C-0.234224924,103.142288 -0.865653495,109.455203 3.04382979,112.302731 L6.5099696,113.430996" id="Path"></path>
                        </g>
                        <path d="M126.917143,306.68679 C129.469509,307.923743 132.182913,308.796365 134.977933,309.279114 C137.184194,309.756858 139.455554,309.856776 141.695258,309.574613 C142.743161,309.440295 143.723891,309.292546 144.664316,309.144797 C148.989553,308.446391 153.033335,306.552879 156.339027,303.678081 C170.888754,291.038819 210.279149,251.092841 217.305471,242.053284 C225.769301,231.187011 228.147234,159.354096 228.147234,159.354096 L275.410334,167.090775 C275.410334,167.090775 274.563951,218.856679 262.942979,259.13845 C255.540486,284.752768 166.213495,337.445461 166.106018,337.499188 C159.482736,344.752325 152.039939,352.609889 147.458723,356.437934 C137.933556,364.416384 137.208085,363.583616 136.469179,362.307601 C134.480851,358.909373 152.684802,347.640148 147.364681,347.787897 C142.044559,347.935646 126.702188,364.161181 124.767599,360.521181 C122.241884,355.766347 141.534043,344.322509 143.092462,343.234539 C144.650881,342.146568 143.092462,339.849742 141.748997,340.910849 C139.800973,342.428635 118.910091,357.915424 116.411246,353.281476 C115.067781,350.702583 119.863951,348.620664 119.863951,348.620664 C119.863951,348.620664 140.459271,335.57845 139.196413,333.429373 C137.933556,331.280295 125.573678,338.493137 121.570152,341.23321 C117.566626,343.973284 114.74535,343.16738 114.987173,340.427306 C115.161824,338.560295 127.185836,329.869963 131.202796,327.250775 C135.219757,324.631587 146.330213,317.647085 138.041033,316.639705 C129.751854,315.632325 123.773435,311.710258 122.886748,309.534317 C122.000061,307.358376 124.700426,305.316753 126.917143,306.68679 Z" id="Path" fill="#FFBE9D"></path>
                        <path d="M245.948146,112.544502 C254.990102,110.691611 264.353226,113.572336 270.788815,120.187159 C276.297021,125.922509 281.832097,135.526199 281.361884,150.744354 C280.434894,180.441919 278.097264,190.569446 278.097264,190.569446 L219.858055,188.554686 L222.141945,138.655793 C222.141945,138.655793 226.642553,116.614317 245.948146,112.544502 Z" id="Path" fill="#EA0028"></path>
                        <path d="M245.948146,112.544502 C254.990102,110.691611 264.353226,113.572336 270.788815,120.187159 C276.297021,125.922509 281.912705,136.30524 281.442492,151.496531 C280.528936,181.194096 278.097264,190.569446 278.097264,190.569446 L219.858055,188.554686 L222.222553,139.421402 C222.222553,139.421402 226.642553,116.614317 245.948146,112.544502 Z" id="Path" fill="#EA5E54" opacity="0.727585565"></path>
                        <path d="M280.300547,173.269373 C280.300547,173.336531 279.628815,172.678376 278.339088,171.765018 C276.474227,170.519213 274.405309,169.609996 272.226322,169.078672 C268.995436,168.271171 265.630154,168.15673 262.351854,168.742878 C258.373914,169.677241 254.512321,171.051255 250.838359,172.839557 C247.111944,174.638232 243.231703,176.099188 239.244255,177.204871 C235.934681,177.983325 232.510216,178.147226 229.141398,177.688413 C226.86561,177.391291 224.667641,176.661833 222.665897,175.539336 C222.126863,175.228657 221.614584,174.873733 221.134347,174.478229 C220.955546,174.35605 220.793024,174.211618 220.650699,174.048413 C220.650699,173.981255 221.37617,174.558819 222.786809,175.297565 C224.802941,176.294816 226.974855,176.939889 229.208571,177.204871 C232.515939,177.580955 235.863819,177.36721 239.096474,176.573579 C243.035091,175.445767 246.869189,173.980767 250.556231,172.194834 C254.284957,170.392168 258.206031,169.017837 262.244377,168.098155 C265.609171,167.533802 269.056483,167.707964 272.347234,168.608561 C274.563684,169.199441 276.647334,170.206851 278.486869,171.576974 C278.968897,171.955 279.4183,172.372854 279.830334,172.826125 C280.002267,172.956884 280.159881,173.10546 280.300547,173.269373 Z" id="Path" fill="#FAFAFA"></path>
                        <path d="M277.922614,131.228044 C277.305642,131.553065 276.663116,131.82709 276.001459,132.04738 C275.383465,132.302583 274.657994,132.557786 273.690699,132.839852 C272.723404,133.121919 271.742675,133.44428 270.57386,133.699483 C267.841346,134.368611 265.067845,134.857682 262.271246,135.163542 C258.838846,135.506163 255.388234,135.631775 251.94,135.539631 C248.496324,135.405826 245.066418,135.028798 241.675927,134.411365 C238.909062,133.889445 236.187038,133.152951 233.534529,132.208561 C232.507977,131.866558 231.503027,131.462871 230.525167,130.999705 C229.768242,130.6896 229.032265,130.330665 228.321884,129.925166 C227.691209,129.628805 227.092493,129.268753 226.535076,128.850627 C227.192218,129.076806 227.830168,129.355287 228.442796,129.683395 C229.167441,130.043412 229.912034,130.361813 230.672948,130.637048 C231.659651,131.059152 232.668765,131.426838 233.695745,131.73845 C236.331815,132.605929 239.025308,133.288132 241.756535,133.780074 C245.120016,134.353364 248.517165,134.707811 251.926565,134.841181 C255.342341,134.936474 258.760762,134.82883 262.163769,134.518819 C264.937302,134.232771 267.69166,133.784275 270.412644,133.175646 C271.594894,132.947306 272.629362,132.678672 273.542918,132.423469 C274.456474,132.168266 275.249119,131.96679 275.880547,131.751882 C276.543018,131.512718 277.226807,131.33731 277.922614,131.228044 L277.922614,131.228044 Z" id="Path" fill="#FAFAFA"></path>
                        <path d="M215.2231,47.924428 C215.058637,49.4790332 215.808375,50.9884564 217.146619,51.7969829 C218.484863,52.6055094 220.170089,52.5672189 221.470213,51.6987454 C223.861581,49.9794834 223.619757,46.3260517 222.665897,43.6397048 C221.712036,40.9533579 220.261094,37.9715129 221.040304,35.137417 C221.644863,32.9749077 223.431672,31.3765314 224.734833,29.5498155 C227.055581,26.3138912 227.726788,22.1781642 226.548511,18.3746125 C225.253569,14.5877531 221.960959,11.8341551 218.004073,11.2289299 C214.040851,10.7722509 209.526809,12.6661255 206.275623,10.3558672 C203.911125,8.6903321 203.266261,5.4398524 201.304802,3.30420664 C198.268571,0 192.961884,0.228339483 188.649362,1.51778598 C184.336839,2.80723247 180.091489,4.92944649 175.604316,4.52649446 C171.869483,4.20413284 168.510821,2.14907749 164.856596,1.12826568 C156.776648,-1.10272134 148.169953,2.02758789 143.412461,8.92763298 C138.654969,15.8276781 138.790747,24.9831928 143.75076,31.7391882 C145.410201,34.1828717 147.879647,35.962009 150.723343,36.7626568" id="Path" fill="#263238"></path>
                        <path d="M208.640122,132.195129 L208.640122,132.195129 C196.520136,134.417188 184.887033,126.415159 182.630638,114.304059 C181.287173,107.386716 180.26614,101.543911 180.26614,101.543911 C180.26614,101.543911 162.277143,101.812546 159.066261,84.324428 C155.85538,66.83631 152.268328,28.4215498 152.268328,28.4215498 L152.039939,26.0978598 C170.84845,13.9152768 195.030821,14.7883395 214.860365,25.278524 L215.451489,28.8916605 L226.830638,107.709077 C228.145266,119.382084 220.197494,130.080491 208.640122,132.195129 L208.640122,132.195129 Z" id="Path" fill="#FFBE9D"></path>
                        <path d="M188.998663,71.0270111 L177.75386,76.4802952 C179.865836,78.8260242 183.326576,79.3849884 186.069909,77.8234686 C190.986991,74.975941 188.998663,71.0270111 188.998663,71.0270111 Z" id="Path" fill="#FFFFFF"></path>
                        <path d="M180.185532,101.30214 C188.304217,100.071126 195.874418,96.4574781 201.936231,90.9194096 C201.936231,90.9194096 198.685046,104.445166 180.924438,105.842066 L180.185532,101.30214 Z" id="Path" fill="#EB996E"></path>
                        <path d="M216.297872,40.6847232 C216.660608,40.496679 229.195137,37.4879705 229.611611,52.6121033 C230.028085,67.7362362 214.605106,63.1560148 214.564802,62.7261993 C214.524498,62.2963838 216.297872,40.6847232 216.297872,40.6847232 Z" id="Path" fill="#FFBE9D"></path>
                        <path d="M219.105714,57.2863469 C219.172888,57.2863469 219.374407,57.4609594 219.831185,57.6624354 C220.465616,57.9130769 221.171649,57.9130769 221.806079,57.6624354 C223.377933,57.0311439 224.654225,54.4522509 224.654225,51.7256089 C224.656085,50.4260479 224.371703,49.1420189 223.821277,47.9647232 C223.50176,47.0168541 222.739378,46.284725 221.77921,46.00369 C221.151082,45.8584274 220.508301,46.1797482 220.24766,46.7692989 C220.04614,47.1991144 220.153617,47.4946125 220.073009,47.521476 C219.992401,47.5483395 219.737143,47.2797048 219.84462,46.6484133 C219.92504,46.2711001 220.128178,45.9310359 220.42231,45.6813284 C220.828283,45.3593554 221.344566,45.2098105 221.859818,45.2649446 C223.133232,45.4748153 224.203707,46.3361054 224.681094,47.5349077 C225.360852,48.8272211 225.715887,50.2654909 225.715563,51.7256089 C225.715563,54.7746125 224.210881,57.6758672 222.047903,58.3608856 C221.233145,58.627606 220.340882,58.5037075 219.629666,58.0250923 C219.146018,57.6490037 219.051976,57.3132103 219.105714,57.2863469 Z" id="Path" fill="#EB996E"></path>
                        <path d="M149.232097,36.2656827 C149.232097,36.2656827 160.557508,39.9459779 173.414468,31.1616236 C181.864863,25.3859779 192.142371,21.7594096 194.721824,23.2369004 C197.301277,24.7143911 199.07465,33.9822878 208.438602,35.5135055 C208.438602,35.5135055 210.25228,53.4314391 217.278602,51.819631 C224.304924,50.2078229 216.082918,23.2100369 216.082918,23.2100369 L198.201398,13.700369 L178.721155,12.7198524 L158.098967,17.9179336 L147.19003,26.7560148 L149.232097,36.2656827 Z" id="Path" fill="#263238"></path>
                        <path d="M215.330578,8.05904059 C212.65398,8.54868036 210.218319,9.91992 208.411733,11.9542435 C209.561539,9.23196002 212.406134,7.63049672 215.330578,8.05904059 L215.330578,8.05904059 Z" id="Path" fill="#263238"></path>
                        <path d="M207.054833,2.10878229 C207.907814,3.82561425 208.323168,5.7266017 208.263951,7.64265683 C208.289273,9.01566259 208.061568,10.3815987 207.592219,11.6721771 C207.441598,12.219319 207.160374,12.7217252 206.772705,13.1362362 C207.21132,11.3481128 207.476759,9.52193004 207.56535,7.68295203 C207.511611,4.62051661 206.893617,2.16250923 207.054833,2.10878229 Z" id="Path" fill="#263238"></path>
                        <path d="M157.642188,53.8881181 C157.707568,55.3096008 158.906817,56.4126701 160.329119,56.3595572 C160.991664,56.3739696 161.632254,56.1218094 162.107127,55.6596656 C162.582001,55.1975218 162.851388,54.5640996 162.854833,53.9015498 C162.79672,52.5110601 161.640325,51.4204699 160.248511,51.4435424 C159.573588,51.4029041 158.911716,51.6419604 158.418601,52.1044729 C157.925486,52.5669853 157.64466,53.2121238 157.642188,53.8881181 L157.642188,53.8881181 Z" id="Path" fill="#263238"></path>
                        <path d="M157.575015,51.9136531 C157.910881,52.2360148 159.778298,50.6913653 162.545836,50.5704797 C165.313374,50.4495941 167.409179,51.7256089 167.691307,51.362952 C167.825653,51.215203 167.476353,50.6242066 166.562796,50.0197786 C165.323807,49.2540929 163.87909,48.8883022 162.424924,48.9721033 C160.986925,49.0346024 159.607033,49.5572468 158.488571,50.4630258 C157.669058,51.1480443 157.413799,51.7659041 157.575015,51.9136531 Z" id="Path" fill="#263238"></path>
                        <path d="M184.86079,52.4643542 C184.98186,53.8391491 186.169102,54.8718258 187.54772,54.801476 C188.2118,54.7912288 188.843482,54.5127991 189.298989,54.029561 C189.754495,53.5463229 189.995071,52.899391 189.965957,52.2360148 C189.844888,50.8612199 188.657646,49.8285432 187.279027,49.898893 C186.613718,49.9053875 185.979785,50.1826659 185.523467,50.6667645 C185.06715,51.150863 184.827857,51.7999728 184.86079,52.4643542 Z" id="Path" fill="#263238"></path>
                        <path d="M184.054711,50.4630258 C184.404012,50.758524 186.204255,49.1198524 188.958359,48.8780812 C191.712462,48.63631 193.875441,49.7914391 194.144134,49.4287823 C194.412827,49.0661255 193.888875,48.6900369 192.94845,48.0856089 C191.673057,47.3745382 190.209238,47.0743328 188.756839,47.2259779 C187.327557,47.3685726 185.979011,47.9557906 184.901094,48.9049446 C184.162188,49.697417 183.920365,50.3287085 184.054711,50.4630258 Z" id="Path" fill="#263238"></path>
                        <path d="M176.087964,71.8597786 C174.591105,71.5481524 173.060942,71.4263074 171.533617,71.4971218 C170.821581,71.4971218 170.190152,71.4165314 169.975198,70.9464207 C169.849054,70.2236946 169.942652,69.479754 170.243891,68.8107749 C170.740973,67.0512177 171.264924,65.1976384 171.80231,63.2500369 C173.951854,55.3521771 175.429666,48.8780812 175.107234,48.784059 C174.784802,48.6900369 172.796474,55.0701107 170.620061,62.9545387 C170.109544,64.9021402 169.612462,66.7557196 169.155684,68.5421402 C168.791898,69.4323533 168.758542,70.4232894 169.061641,71.335941 C169.320747,71.811699 169.779037,72.1467204 170.311064,72.2492989 C170.71248,72.3004389 171.118766,72.3004389 171.520182,72.2492989 C173.05325,72.319125 174.588869,72.1881742 176.087964,71.8597786 Z" id="Path" fill="#263238"></path>
                        <path d="M182.388815,42.2293727 C182.738116,42.9546863 185.451915,42.3368266 188.716535,42.4039852 C191.981155,42.4711439 194.694954,43.1158672 195.05769,42.4039852 C195.218906,42.0681919 194.694954,41.4100369 193.566444,40.7921771 C190.543645,39.2634113 186.984576,39.2138528 183.920365,40.6578598 C182.778419,41.2488561 182.241033,41.8935793 182.388815,42.2293727 Z" id="Path" fill="#263238"></path>
                        <path d="M157.18541,44.5127675 C157.736231,45.0903321 159.563343,44.2575646 161.847234,44.0023616 C164.131125,43.7471587 166.106018,44.0023616 166.482188,43.3173432 C166.643404,42.9815498 166.280669,42.3771218 165.380547,41.8667159 C162.914384,40.6535548 159.961387,41.0345039 157.884012,42.8338007 C157.18541,43.5591144 156.957021,44.2307011 157.18541,44.5127675 Z" id="Path" fill="#263238"></path>
                    </g>
                    <g id="freepik--character-1--inject-33" transform="translate(0.300738, 15.000000)">
                        <path d="M0.38962585,155.316102 L72.3897959,335.21374 L274.484694,335.21374 L210.277041,152.899567 C209.818012,151.571845 208.565816,150.681949 207.160034,150.684404 L3.45289116,150.818661 C2.36539265,150.824557 1.35039146,151.364649 0.738504178,152.263013 C0.126616895,153.161376 -0.00384052396,154.30303 0.38962585,155.316102 Z" id="Path" fill="#ABC4D0"></path>
                        <path d="M11.4738095,160.229724 L77.5892857,321.332087 C77.8834222,322.035158 78.5732868,322.491184 79.3358844,322.48677 L263.40051,322.48677 C264.003549,322.493405 264.572195,322.20666 264.924998,321.717918 C265.275378,321.229176 265.370673,320.59951 265.17398,320.029843 L206.595748,158.92748 C206.316357,158.191355 205.610163,157.705386 204.822279,157.705386 L13.2204082,157.705386 C12.6025872,157.692903 12.0195236,157.990668 11.6680584,158.498555 C11.3165932,159.006443 11.2436332,159.656671 11.4738095,160.229724 Z" id="Path" fill="#FFFFFF"></path>
                        <polygon id="Path" fill="#ABC4D0" points="72.3897959 335.200315 74.1901361 335.200315 347.035714 335.200315 347.035714 322.540354 79.8598639 322.540354"></polygon>
                        <path d="M90.0170068,321.332087 L221.388095,322.003346 L223.027211,298.844882 L120.542177,253.279764 C111.664597,264.020456 105.770783,276.905723 103.452381,290.642087 L90.0170068,321.332087" id="Path" fill="#263238"></path>
                        <path d="M152.048129,276.760433 C151.705114,277.250403 151.308566,277.700683 150.865816,278.102953 C150.386545,278.618212 149.874968,279.102496 149.334184,279.552874 C148.651361,280.183289 147.93368,280.774927 147.184524,281.325 C146.298492,282.02231 145.369633,282.663499 144.403401,283.244803 C143.313465,283.94287 142.187844,284.583675 141.031122,285.164606 C135.703767,287.855416 129.853459,289.353537 123.887585,289.554646 C122.594212,289.622923 121.298134,289.622923 120.004762,289.554646 C118.879434,289.501973 117.758011,289.385433 116.645918,289.205591 C115.74071,289.08397 114.843462,288.909139 113.958844,288.682008 C113.265735,288.553848 112.583126,288.37435 111.916667,288.145 C111.334261,288.01294 110.770249,287.810049 110.237245,287.540866 C110.237245,287.393189 112.695918,288.212126 116.766837,288.722283 C117.77449,288.829685 118.889626,288.963937 120.085374,288.977362 C121.281122,288.990787 122.570918,288.977362 123.914456,288.977362 C129.762438,288.668566 135.488057,287.184594 140.74898,284.614173 C141.944728,283.996614 143.086735,283.432756 144.107823,282.788346 C145.06502,282.222055 145.993224,281.608201 146.888946,280.949094 C150.207483,278.532559 151.940646,276.653031 152.048129,276.760433 Z" id="Path" fill="#455A64"></path>
                        <path d="M187.772789,319.385433 C188.205354,317.867375 188.734899,316.378598 189.358163,314.928268 C190.473299,312.028425 191.870578,308.336496 193.388776,304.268661 C194.906973,300.200827 196.398299,296.535748 197.540306,293.635906 C198.057754,292.141102 198.686496,290.687115 199.421259,289.286142 C199.064882,290.828917 198.588724,292.341594 197.997109,293.810433 C197.029762,296.495472 195.645918,300.348504 194.047109,304.550591 C192.448299,308.752677 190.930102,312.458031 189.77466,315.143071 C189.196939,316.485591 188.713265,317.559606 188.35051,318.297992 C188.206931,318.684416 188.012661,319.050089 187.772789,319.385433 L187.772789,319.385433 Z" id="Path" fill="#455A64"></path>
                        <path d="M188.511735,288.212126 C187.757534,288.564639 187.139427,289.153988 186.751701,289.890276 C186.375083,290.658653 186.42077,291.566632 186.872619,292.293386 C187.397783,293.213971 188.43784,293.714248 189.485509,293.550207 C190.533178,293.386167 191.370245,292.591977 191.588435,291.555 C191.79594,290.726126 191.562503,289.848866 190.970408,289.232441 C190.372586,288.659449 189.6126,288.284432 188.793878,288.158425 C188.793878,288.158425 189.035714,288.024173 189.505952,288.051024 C190.187137,288.116321 190.826275,288.409628 191.319728,288.883386 C192.108077,289.59672 192.447501,290.681023 192.206463,291.716102 C191.96016,293.031212 190.910506,294.048067 189.587402,294.253325 C188.264297,294.458583 186.955513,293.8076 186.321769,292.629016 C185.780028,291.714101 185.780028,290.576962 186.321769,289.662047 C186.645387,289.063059 187.161181,288.590212 187.786224,288.319528 C188.229592,288.145 188.498299,288.17185 188.511735,288.212126 Z" id="Path" fill="#455A64"></path>
                        <path d="M264.6698,286.877558 C266.678788,287.847104 268.814575,288.530989 271.014647,288.909193 C272.751273,289.283533 274.53918,289.361641 276.302209,289.140188 C277.127087,289.034772 277.89909,288.918832 278.639368,288.802897 C282.044081,288.254886 285.227366,286.769905 287.829758,284.515643 C299.283967,274.604612 330.294466,243.281792 335.826205,236.1938 C342.489676,227.673465 344.368784,171.354136 344.368784,171.354136 L381.571494,177.415097 C381.571494,177.415097 380.899996,218.001151 371.748368,249.584412 C365.918838,269.667533 295.599086,310.98924 295.514479,311.031374 C290.300177,316.718719 284.440726,322.880036 280.8342,325.881801 C273.335583,332.138108 272.764608,331.485268 272.183103,330.484911 C270.618321,327.820804 284.94884,318.983549 280.761052,319.099931 C276.573265,319.216313 264.494756,331.939167 262.972299,329.085499 C260.984648,325.357829 276.171775,316.383561 277.398607,315.530402 C278.625439,314.677243 277.398951,312.876623 276.341325,313.708699 C274.807769,314.898886 258.361784,327.043107 256.395271,323.410213 C255.338015,321.388423 259.113567,319.755649 259.113567,319.755649 C259.113567,319.755649 275.326649,309.528075 274.3328,307.843265 C273.338951,306.158455 263.609049,311.814792 260.457366,313.963497 C257.305683,316.112203 255.084976,315.480638 255.275608,313.332316 C255.413275,311.868508 264.878948,305.05381 268.041194,302.999881 C271.20344,300.945952 279.949827,295.468767 273.425041,294.679797 C266.900255,293.890827 262.194697,290.816423 261.496956,289.110513 C260.799215,287.404603 262.925034,285.803635 264.6698,286.877558 Z" id="Path" fill="#907469" transform="translate(318.417853, 251.240502) scale(-1, 1) rotate(10.000000) translate(-318.417853, -251.240502) "></path>
                        <path d="M277.359864,125.377913 C277.359864,125.377913 285.75642,185.751024 284.668154,188.060157 L256.615646,194.799606 L277.359864,125.377913 Z" id="Path" fill="#EA0028"></path>
                        <path d="M277.359864,125.377913 C277.359864,125.377913 285.658026,185.751024 284.569761,188.060157 L256.615646,194.799606 L277.359864,125.377913 Z" id="Path" fill="#D53C31"></path>
                        <path d="M245.867347,218.93811 L233.60085,270.933898 L225.633673,300.026299 L120.501871,253.279764 L153.87534,199.578976 C153.87534,199.578976 172.147449,124.894606 197.929932,111.093504 C216.672279,101.051457 232.593197,104.542008 234.971259,104.542008 L257.368027,107.643228 C257.865136,107.710354 258.34881,107.790906 258.832483,107.884882 C270.776531,110.234291 278.878061,121.39063 278.260034,133.527008 C277.776361,143.24685 276.15068,159.692717 270.789966,171.990197 C263.602041,188.516614 245.867347,218.93811 245.867347,218.93811 Z" id="Path" fill="#EA5E54"></path>
                        <path d="M229.529932,288.359803 L228.764116,288.010748 C228.014374,287.663249 227.287409,287.268653 226.587585,286.829331 C223.887503,285.142707 221.527053,282.966181 219.628061,280.412087 C216.571113,276.366561 214.776481,271.509781 214.468878,266.449882 C214.275903,263.278412 214.890687,260.109821 216.255782,257.240197 C216.997597,255.667841 218.037945,254.254405 219.319048,253.078386 C220.69176,251.835427 222.38628,251.002764 224.209524,250.675276 C227.246343,250.368125 230.280635,251.281315 232.642563,253.213254 C235.004491,255.145193 236.499828,257.937012 236.798469,260.972402 C236.964551,263.153088 236.566663,265.339814 235.643027,267.32252 C233.711886,271.53488 229.995359,274.662475 225.512755,275.84752 C220.795633,277.032326 215.814113,276.558255 211.405612,274.505 C206.843173,272.316004 202.851208,269.099116 199.743707,265.107362 C198.102259,263.100036 196.619879,260.967923 195.310034,258.730394 C193.940986,256.445569 192.917776,253.970915 192.273639,251.386811 C191.617061,248.745457 191.584862,245.987635 192.179592,243.331693 C192.780126,240.5815 194.255415,238.09943 196.384864,236.256614 C198.644053,234.418431 201.553232,233.575408 204.446088,233.92063 C205.895576,234.081007 207.281524,234.602652 208.476701,235.437677 C209.644989,236.308319 210.570179,237.46393 211.163776,238.793976 C212.29202,241.486316 212.344909,244.508312 211.311565,247.238425 C210.249011,249.870809 208.465607,252.15072 206.165816,253.816772 C197.187096,260.042292 185.680544,261.348406 175.533163,257.293898 C170.871354,255.295615 166.85707,252.041999 163.938435,247.89626 C161.126655,243.968884 159.541821,239.297397 159.383844,234.471063 C159.320645,232.153243 159.694377,229.844231 160.485544,227.664488 C161.255007,225.533169 162.587436,223.649697 164.341497,222.213858 C166.075323,220.858037 168.18818,220.074526 170.387415,219.97185 C172.536934,219.836716 174.651186,220.566716 176.258673,221.999055 C177.735781,223.42162 178.651403,225.327721 178.838265,227.369134 C179.048273,229.293306 178.761493,231.239157 178.005272,233.021142 C176.446898,236.278125 173.658785,238.784077 170.253061,239.988819 C167.299093,241.104755 164.167549,241.67783 161.009524,241.680394 C155.962064,241.746319 150.959135,240.730011 146.338095,238.7 C143.433031,237.426666 140.719834,235.754796 138.276871,233.732677 C137.430442,233.034567 136.82585,232.470709 136.436224,232.081378 C136.046599,231.692047 135.845068,231.477244 135.845068,231.477244 C135.845068,231.477244 136.073469,231.651772 136.489966,232.027677 C136.906463,232.403583 137.511054,232.954016 138.357483,233.625276 C144.796487,238.725806 152.807436,241.435223 161.022959,241.291063 C164.129564,241.272618 167.206971,240.690355 170.105272,239.572638 C171.672124,238.94814 173.131772,238.08298 174.431463,237.008425 C175.797363,235.889999 176.871527,234.45733 177.561905,232.833189 C178.277362,231.139317 178.545676,229.290278 178.341156,227.46311 C178.157985,225.548692 177.295404,223.76293 175.909354,222.428661 C174.401621,221.106896 172.428843,220.440138 170.427721,220.575984 C168.343534,220.672363 166.341951,221.418867 164.704252,222.710591 C163.042339,224.089564 161.780462,225.888232 161.04983,227.919567 C160.291766,230.027245 159.940719,232.259489 160.015306,234.497913 C160.174527,239.20991 161.726631,243.769265 164.47585,247.600906 C167.326,251.657417 171.253361,254.837843 175.815306,256.78374 C185.732679,260.746615 196.979075,259.465457 205.74932,253.37374 C207.945088,251.786746 209.649242,249.613966 210.666667,247.104173 C211.638263,244.548658 211.590165,241.717818 210.532313,239.196732 C209.987961,237.964318 209.125514,236.89866 208.033333,236.108937 C206.925571,235.365499 205.652409,234.904558 204.32517,234.766417 C201.64719,234.474764 198.963389,235.262383 196.868537,236.954724 C194.83441,238.698273 193.42028,241.053371 192.837925,243.667323 C192.259554,246.229401 192.287156,248.89096 192.918537,251.440512 C194.154592,256.542087 197.12381,260.958976 200.254252,264.865709 C203.295082,268.780056 207.198465,271.940826 211.660884,274.102244 C215.93197,276.100189 220.759583,276.574055 225.338095,275.444764 C229.652355,274.319767 233.233047,271.318404 235.092177,267.268819 C235.990803,265.383592 236.37989,263.296145 236.220748,261.214055 C235.948592,258.321946 234.536672,255.656684 232.296186,253.805718 C230.055701,251.954751 227.170569,251.070023 224.276701,251.346535 C222.540601,251.651313 220.925162,252.437487 219.614626,253.615394 C218.373378,254.756383 217.361104,256.123284 216.631973,257.642953 C215.29526,260.440745 214.680942,263.52847 214.845068,266.624409 C215.116775,271.623982 216.854975,276.433095 219.843027,280.452362 C221.701989,283.004367 224.010163,285.197063 226.654762,286.923307 C227.340556,287.367246 228.04912,287.775034 228.777551,288.145 L229.529932,288.359803 Z" id="Path" fill="#FAFAFA"></path>
                        <path d="M261.07619,188.060157 C261.07619,188.060157 260.982143,187.966181 260.820918,187.764803 L260.108844,186.87874 C259.240037,185.701843 258.488555,184.442827 257.865136,183.119685 C255.615504,178.166599 255.021921,172.62128 256.172279,167.304803 C256.916835,163.60955 258.627358,160.177199 261.129932,157.356732 C261.879408,156.588795 262.800224,156.00912 263.817007,155.665157 C264.905983,155.31537 266.090855,155.426974 267.095238,155.973937 C268.096792,156.544009 268.895268,157.412281 269.379252,158.457598 C269.843585,159.516006 270.085928,160.65827 270.091327,161.813898 C270.049062,166.622698 268.366577,171.273259 265.321769,174.997441 C263.744338,176.976409 261.818325,178.650726 259.638605,179.937913 C257.387662,181.297754 254.82442,182.055973 252.195408,182.139646 C249.529765,182.161576 246.948555,181.206296 244.940306,179.454606 C242.998897,177.789721 241.533936,175.640268 240.694728,173.225315 C239.901998,170.91961 239.515599,168.493957 239.552721,166.05626 C239.510473,163.726973 239.799993,161.403521 240.412585,159.155709 C240.736462,158.056449 241.255237,157.024231 241.944218,156.108189 C242.629775,155.170266 243.632038,154.512135 244.765646,154.255512 C245.879248,154.03953 247.033436,154.245308 248.003571,154.832795 C248.906297,155.39515 249.676348,156.146297 250.260714,157.034528 C250.807168,157.859647 251.21979,158.765821 251.483333,159.719567 C251.741047,160.651653 251.880967,161.612312 251.89983,162.579134 C251.937053,164.38652 251.636325,166.184971 251.013095,167.882087 C249.937196,170.79259 248.166148,173.396455 245.853912,175.467323 C244.134443,177.015809 242.266917,178.391785 240.278231,179.575433 C238.639116,180.555472 237.335884,181.240157 236.44915,181.696614 L235.441497,182.206772 C235.327877,182.275574 235.205987,182.329707 235.078741,182.367874 L235.40119,182.153071 L236.381973,181.575787 C237.241837,181.079055 238.531633,180.354094 240.130442,179.347205 C242.07868,178.133757 243.905375,176.73555 245.585204,175.171969 C247.813911,173.123302 249.514651,170.567216 250.542857,167.720984 C251.127354,166.075911 251.40513,164.337714 251.362415,162.592559 C251.340607,161.682298 251.195992,160.779138 250.932483,159.90752 C250.693208,158.990171 250.30272,158.119043 249.777041,157.329882 C249.246881,156.51127 248.534071,155.826572 247.694558,155.329528 C246.860623,154.813627 245.860824,154.635913 244.9,154.832795 C242.911565,155.235551 241.648639,157.276181 241.017177,159.316811 C240.445507,161.507543 240.17432,163.765724 240.211054,166.029409 C240.187584,168.39046 240.569302,170.738061 241.339626,172.970236 C242.13734,175.264288 243.527864,177.306811 245.370238,178.890748 C247.256353,180.533184 249.680278,181.426539 252.181973,181.40126 C254.687228,181.31124 257.128395,180.585912 259.27585,179.293504 C261.385164,178.050548 263.251508,176.435791 264.784354,174.527559 C267.727017,170.925851 269.365188,166.436118 269.432993,161.787047 C269.434863,160.719877 269.215275,159.663911 268.788095,158.685827 C268.36531,157.75887 267.666104,156.985168 266.786224,156.470669 C265.925765,156.004776 264.914249,155.903218 263.978231,156.18874 C263.064423,156.51152 262.237026,157.039735 261.559864,157.732638 C259.094433,160.472562 257.389846,163.809727 256.615646,167.412205 C255.939475,170.366649 255.811964,173.420048 256.239456,176.420512 C256.551516,178.689381 257.16604,180.906315 258.066667,183.012283 C258.67025,184.327112 259.375505,185.592916 260.17602,186.798189 L260.834354,187.724528 C261.022449,187.952756 261.089626,188.046732 261.07619,188.060157 Z" id="Path" fill="#FAFAFA"></path>
                        <path d="M228.898469,172.258701 C228.898469,172.258701 228.898469,219.998701 240.855952,224.522992 C273.382993,236.820472 312.291837,233.987756 325.982483,232.698937 C327.621599,231.557795 329.515986,230.161575 331.665646,228.416299 L336.193367,224.643819 C336.193367,224.643819 357.689966,228.738504 357.367517,229.86622 C357.045068,230.993937 348.983844,233.598425 340.680782,231.732323 C340.186709,232.656986 340.122437,233.751417 340.504888,234.727477 C340.887338,235.703537 341.678186,236.463414 342.669218,236.807047 C348.137415,239.492087 367.511224,247.668031 370.587925,249.520709 C373.275,251.172008 375.854592,253.883898 372.791327,254.07185 C369.728061,254.259803 353.430952,250.245669 353.430952,250.245669 C353.430952,250.245669 374.927551,255.07874 374.040816,258.166535 C373.44966,260.301142 367.497789,260.757598 353.632483,256.152756 C353.632483,256.152756 371.273129,260.260866 372.952551,262.328346 C376.754762,266.973465 355.486565,262.220945 355.486565,262.220945 C370.359524,265.684646 370.265476,264.905984 370.265476,266.960039 C370.265476,268.517362 366.758844,268.799291 358.482653,268.074331 C351.764966,267.483622 344.684524,268.222008 334.393027,267.886378 L334.393027,267.886378 C334.393027,267.886378 201.530612,291.52815 189.438776,232.954016 C182.909184,201.364528 184.064626,189.711457 182.721088,169.305157" id="Path" fill="#B78876"></path>
                        <path d="M346.471429,260.354843 C346.377381,260.717323 350.905102,261.965866 356.57483,263.147283 C362.244558,264.328701 366.879762,264.94626 366.946939,264.570354 C367.014116,264.194449 362.486395,262.945906 356.856973,261.777913 C351.227551,260.609921 346.632653,259.978937 346.471429,260.354843 Z" id="Path" fill="#AA6550"></path>
                        <path d="M347.196939,254.501457 C347.102891,254.877362 351.845578,256.474961 357.784014,258.085984 C363.722449,259.697008 368.639796,260.690472 368.733844,260.314567 C368.827891,259.938661 364.098639,258.341063 358.146769,256.743465 C352.194898,255.145866 347.304422,254.138976 347.196939,254.501457 Z" id="Path" fill="#AA6550"></path>
                        <path d="M347.97619,248.433268 C347.868707,248.809173 352.329252,250.393346 357.931803,251.990945 C363.534354,253.588543 368.169558,254.582008 368.277041,254.206102 C368.384524,253.830197 363.92398,252.246024 358.321429,250.648425 C352.718878,249.050827 348.097109,248.070787 347.97619,248.433268 Z" id="Path" fill="#AA6550"></path>
                        <path d="M204.392347,125.552441 C195.633962,124.788207 187.131036,128.742321 182.07619,135.930118 C177.561905,142.239961 173.410374,152.389409 175.452551,167.439055 C179.483163,196.813386 182.694218,206.61378 182.694218,206.61378 L236.717857,198.061929 L229.328401,148.791457 C229.328401,148.791457 222.812245,127.405118 204.392347,125.552441 Z" id="Path" fill="#EA0028"></path>
                        <path d="M204.392347,125.552441 C195.633962,124.788207 187.131036,128.742321 182.07619,135.930118 C177.561905,142.239961 173.410374,152.389409 175.452551,167.439055 C179.483163,196.813386 182.694218,206.61378 182.694218,206.61378 L236.717857,198.061929 L229.328401,148.791457 C229.328401,148.791457 222.812245,127.405118 204.392347,125.552441 Z" id="Path" fill="#EA5E54" opacity="0.727585565"></path>
                        <path d="M340.506122,225.543307 C340.117422,225.527604 339.730822,225.478193 339.35068,225.39563 C338.598299,225.274803 337.469728,225.046575 336.059014,224.845197 C335.293157,224.908524 334.563516,225.19829 333.963095,225.677559 C333.186907,226.205593 332.44636,226.784128 331.746259,227.409409 C330.037008,228.948701 328.417619,230.584792 326.896088,232.309606 L326.896088,232.309606 L326.896088,232.309606 C322.713099,233.536747 318.383913,234.196019 314.025,234.269685 C308.894112,234.32909 303.763652,234.118471 298.654932,233.638701 C286.267517,232.766063 275.008673,232.081378 266.920578,230.953661 C262.889966,230.416654 259.62517,229.852795 257.394898,229.382913 C256.266327,229.16811 255.419898,228.939882 254.828741,228.80563 C254.525959,228.74796 254.22913,228.662574 253.942007,228.550551 C254.250309,228.553795 254.557081,228.594367 254.855612,228.671378 L257.435204,229.114409 C259.678912,229.50374 262.943707,229.987047 266.987755,230.456929 C275.04898,231.450394 286.294388,232.067953 298.708673,232.940591 C304.082823,233.356772 309.255442,233.732677 314.011565,233.61185 C318.314224,233.560593 322.59166,232.94677 326.734864,231.786024 L326.613946,231.866575 C328.167419,230.144109 329.827723,228.520934 331.585034,227.006654 C332.308159,226.373088 333.080927,225.798441 333.895918,225.288228 C334.564475,224.774641 335.377402,224.483524 336.220238,224.455866 C337.671259,224.72437 338.746088,224.992874 339.498469,225.153976 C339.845812,225.251943 340.183178,225.382292 340.506122,225.543307 L340.506122,225.543307 Z" id="Path" fill="#AA6550"></path>
                        <path d="M233.009694,170.567126 C232.876378,170.624405 232.736484,170.664989 232.593197,170.687953 L231.343707,170.956457 L229.288095,171.157835 C228.341511,171.179716 227.394512,171.139353 226.453231,171.037008 C222.235731,170.562789 218.259911,168.826733 215.046599,166.05626 C213.646015,164.895068 212.419805,163.538668 211.405612,162.028701 C210.247202,160.377422 209.396125,158.53103 208.893197,156.578071 C208.632423,155.525218 208.546188,154.436762 208.637925,153.356024 C208.720644,152.194764 209.161905,151.087757 209.90085,150.187677 C210.732274,149.282672 211.896261,148.754428 213.12534,148.724329 C214.348142,148.723504 215.552382,149.023183 216.631973,149.596969 C218.853361,150.814451 220.641905,152.690765 221.75085,154.967047 C222.931745,157.322474 223.460568,159.95068 223.282483,162.579134 C223.1258,165.331508 222.137334,167.971664 220.447619,170.150945 C216.816485,174.747954 211.081167,177.164996 205.252211,176.554764 C199.486872,175.790911 194.318617,172.613231 191.037585,167.814961 C189.394476,165.615888 188.361009,163.022599 188.041497,160.29685 C187.893452,158.937094 188.049476,157.561454 188.498299,156.269291 C188.954418,155.024653 189.700493,153.906389 190.67483,153.006969 C191.616619,152.101099 192.811195,151.501923 194.10085,151.288543 C195.361028,151.091469 196.651241,151.303205 197.782143,151.892677 C199.924501,153.031832 201.457378,155.054481 201.97398,157.423858 C202.471777,159.565765 202.471777,161.793172 201.97398,163.935079 C201.522304,165.898163 200.745814,167.772124 199.676531,169.479685 C196.408246,174.731948 190.556911,177.811967 184.373639,177.534803 C182.731609,177.48315 181.106254,177.189088 179.55034,176.662165 C179.008133,176.489199 178.482141,176.269079 177.978401,176.004331 C177.978401,176.004331 178.529252,176.219134 179.604082,176.527913 C181.152719,176.988867 182.757881,177.232847 184.373639,177.252874 C186.930189,177.31299 189.468096,176.803958 191.803401,175.762677 C194.888984,174.366085 197.48252,172.073901 199.246599,169.184331 C200.27976,167.531728 201.024802,165.71593 201.45,163.814252 C201.920331,161.75535 201.920331,159.617012 201.45,157.55811 C200.96732,155.363483 199.542146,153.492517 197.553741,152.44311 C196.533497,151.914098 195.370391,151.725883 194.235204,151.906102 C193.072509,152.113215 191.997246,152.659782 191.145068,153.47685 C190.25523,154.309419 189.574044,155.339623 189.156633,156.484094 C188.754607,157.670688 188.612565,158.929776 188.740136,160.176024 C189.071292,162.782036 190.06585,165.259616 191.628741,167.371929 C194.782566,172.013557 199.757666,175.101735 205.319388,175.870079 C210.90744,176.461197 216.409037,174.150757 219.896769,169.748189 C223.046145,165.555687 223.540924,159.940292 221.173129,155.262402 C220.627677,154.187775 219.9359,153.193817 219.117517,152.308858 C218.313532,151.459425 217.379264,150.743393 216.34983,150.187677 C215.364716,149.651027 214.260773,149.369481 213.138776,149.36874 C212.074047,149.378564 211.061494,149.83095 210.344218,150.617283 C209.67688,151.419205 209.277535,152.40977 209.202211,153.45 C209.111054,154.470798 209.183623,155.499592 209.417177,156.49752 C209.895546,158.387959 210.705217,160.178794 211.808673,161.787047 C212.78854,163.286865 213.973354,164.642495 215.328741,165.814606 C216.529421,166.856548 217.845732,167.757448 219.251871,168.499646 C221.50628,169.705375 223.959127,170.496603 226.493537,170.83563 C228.666385,171.084222 230.864706,170.993638 233.009694,170.567126 L233.009694,170.567126 Z" id="Path" fill="#FAFAFA"></path>
                        <path d="M204.593878,21.6414173 C202.598648,16.014191 197.588186,11.9999997 191.657615,11.2773766 C185.727044,10.5547535 179.898038,13.2481866 176.607993,18.2314173 C174.565816,21.3192126 173.692517,24.9440157 172.402721,28.5016929 C171.112925,32.0593701 169.218537,35.5096457 165.953741,37.2683465 C162.138095,39.3358268 157.113265,38.6108661 153.646939,41.2959055 C149.777551,44.1823228 149.616327,50.5592913 152.921429,54.1303937 C156.226531,57.7014961 161.802211,58.4801575 166.356803,56.6946063 C165.256296,59.5165463 164.634223,62.5020503 164.516156,65.5283858 C164.424366,68.6103037 165.875382,71.5353104 168.385544,73.3284252 C171.139322,74.80168 174.461095,74.7406829 177.158844,73.1673228 C179.802335,71.5927338 182.071589,69.4626251 183.809354,66.9246063 C184.244365,69.0584168 184.991315,71.1166287 186.02619,73.0330709 C187.086036,74.963479 188.935603,76.3361215 191.091327,76.792126 C193.806562,77.0260824 196.428415,75.7394021 197.903061,73.449252 C199.318163,71.1734649 200.161682,68.5895563 200.361735,65.9177165 C201.139399,59.3573432 200.711402,52.7102059 199.09881,46.3035039 C198.091156,42.1953937 196.667007,37.9933071 197.459694,33.8449213 C198.252381,29.6965354 202.336735,25.7898031 206.380782,27.0517717" id="Path" fill="#263238"></path>
                        <path d="M151.631633,49.9551575 C151.839849,50.1010346 152.071632,50.2100261 152.316837,50.2773622 C152.997036,50.5240079 153.69269,50.7258188 154.39932,50.8814961 C161.044566,52.2892362 167.956986,50.3301078 172.872959,45.6456693 C174.584906,44.0100394 176.010838,42.0996497 177.091667,39.9936614 C178.191008,37.7225957 178.986061,35.3166759 179.456293,32.8380315 C179.893428,30.4337074 180.550026,28.0744435 181.417857,25.7898031 C182.249346,23.7230763 183.64613,21.9318956 185.448469,20.6211024 C188.553275,18.387841 192.481922,17.6272421 196.196769,18.5401969 C198.698953,19.1885491 201.004927,20.4374402 202.914456,22.1784252 C204.257993,23.4135433 204.87602,24.2727559 204.956633,24.2056299 C205.037245,24.1385039 204.862585,23.9505512 204.593878,23.5343701 C204.192613,22.9434837 203.743243,22.3866868 203.25034,21.8696457 C201.365413,19.9489268 199.006369,18.5595808 196.411735,17.8420866 C192.454566,16.7512651 188.216591,17.4849628 184.857313,19.8424409 C182.892689,21.247929 181.365152,23.1791727 180.45051,25.4138976 C179.537026,27.7553007 178.848716,30.1782943 178.394898,32.6500787 C177.9464,35.0369323 177.192301,37.356172 176.15119,39.5506299 C173.35712,45.0344618 168.248354,48.9764666 162.232143,50.2907874 C159.687841,50.8337151 157.06663,50.9155659 154.493367,50.5324409 C152.652721,50.1833858 151.658503,49.8611811 151.631633,49.9551575 Z" id="Path" fill="#455A64"></path>
                        <path d="M187.060714,74.7514961 C187.060714,74.7514961 187.262245,74.6575197 187.598129,74.3890157 C188.107368,74.007376 188.559738,73.5553491 188.941667,73.0464961 C190.308914,71.1902821 191.136509,68.9927775 191.333163,66.696378 C191.633763,63.3284181 191.245207,59.9345604 190.191156,56.7214567 C189.170068,53.0966535 187.598129,49.2570472 186.993537,45.0683858 C186.380849,41.1415807 187.16021,37.1242649 189.196939,33.7106693 C190.846769,30.9112806 193.286321,28.6603741 196.210204,27.2397244 C198.19103,26.2759616 200.330689,25.6800403 202.52483,25.4810236 C203.342496,25.4677147 204.15881,25.4094507 204.970068,25.3064961 C204.168717,25.0704062 203.330681,24.9839353 202.497959,25.0514173 C200.215842,25.0919225 197.966211,25.5990767 195.887755,26.5416142 C192.751444,27.934312 190.113298,30.2473793 188.323639,33.1736614 C186.110461,36.7877498 185.253426,41.0696793 185.905272,45.2563386 C186.536735,49.646378 188.162415,53.4994094 189.22381,57.0436614 C190.291118,60.1304602 190.747436,63.3952179 190.567347,66.6561024 C190.463727,68.8503558 189.787489,70.9793557 188.605782,72.8316929 C187.678741,74.1070866 186.980102,74.6709449 187.060714,74.7514961 Z" id="Path" fill="#455A64"></path>
                        <path d="M276.768707,49.310748 C287.302041,24.9708661 272.859014,10.1494488 263.454252,4.83307087 C257.851701,1.66472441 251.187755,0.993464567 244.765646,0.805511811 C238.405572,0.498811237 232.033807,1.08173177 225.835204,2.5373622 C219.612518,4.01110627 213.931576,7.20770517 209.444048,11.7604724 C201.745578,20.0035433 200.039286,32.2070472 200.711054,43.4573622 C201.54365,56.7612731 205.378983,69.7043237 211.929592,81.3164173 C212.655207,82.8727161 213.79363,84.200644 215.221259,85.1560236 C216.729508,86.0809864 218.692866,85.7221781 219.77585,84.3236614" id="Path" fill="#263238"></path>
                        <path d="M258.711565,110.086614 L258.321939,97.2789764 C258.321939,97.2789764 273.302381,94.795315 276.405952,75.2616535 C277.95102,65.541811 277.467347,49.6195276 276.647789,36.5970866 C276.295453,30.9718732 273.655697,25.735491 269.341747,22.1043755 C265.027798,18.4732599 259.415152,16.7634725 253.807653,17.3722047 L219.910204,20.9567323 C216.357449,21.3261375 213.6817,24.3559671 213.756803,27.9244094 L213.756803,27.9244094 L218.257653,111.764764 C218.801975,122.48621 227.667351,130.896032 238.410714,130.882868 L238.410714,130.882868 C243.897278,130.925381 249.164267,128.731336 252.995499,124.806728 C256.826731,120.88212 258.890968,115.56626 258.711565,110.086614 Z" id="Path" fill="#B78876"></path>
                        <path d="M273.262125,47.6325984 C273.270535,48.9908356 272.201771,50.1121885 270.843707,50.1699606 C270.197556,50.2178238 269.559207,50.0045991 269.07175,49.5780823 C268.584294,49.1515656 268.288503,48.5474321 268.250633,47.9011024 C268.242474,46.5452721 269.313115,45.4278945 270.669048,45.3771654 C271.313857,45.3255122 271.952303,45.5356032 272.440223,45.9599993 C272.928143,46.3843954 273.224391,46.9873082 273.262125,47.6325984 Z" id="Path" fill="#263238"></path>
                        <path d="M273.194898,44.8267323 C272.872449,45.148937 270.978061,43.7392913 268.277551,43.7527165 C265.577041,43.7661417 263.602041,45.0952362 263.319898,44.7730315 C263.037755,44.4508268 263.481122,44.0346457 264.354422,43.4305118 C265.535476,42.607418 266.945242,42.1754172 268.385034,42.1953937 C269.784889,42.192308 271.149435,42.6342742 272.281293,43.4573622 C273.060544,44.0883465 273.342687,44.6790551 273.194898,44.8267323 Z" id="Path" fill="#263238"></path>
                        <path d="M246.230152,48.3307087 C246.238562,49.6889459 245.169798,50.8102987 243.811735,50.8680709 C243.165583,50.915934 242.527234,50.7027093 242.039778,50.2761926 C241.552321,49.8496758 241.25653,49.2455423 241.218661,48.5992126 C241.210501,47.2433823 242.281142,46.1260047 243.637075,46.0752756 C244.281035,46.0273549 244.91743,46.2387681 245.404495,46.6624202 C245.891559,47.0860722 246.188836,47.6867729 246.230152,48.3307087 L246.230152,48.3307087 Z" id="Path" fill="#263238"></path>
                        <path d="M246.673469,45.3234646 C246.364456,45.6456693 244.456633,44.2494488 241.769558,44.2494488 C239.082483,44.2494488 237.094048,45.5919685 236.798469,45.283189 C236.502891,44.9744094 236.973129,44.5448031 237.832993,43.9406693 C239.015643,43.1223324 240.42528,42.6950664 241.863605,42.7189764 C243.26675,42.7213029 244.633946,43.1626056 245.773299,43.9809449 C246.539116,44.5850787 246.821259,45.1757874 246.673469,45.3234646 Z" id="Path" fill="#263238"></path>
                        <path d="M256.467857,65.3135827 C257.888053,64.863982 259.35998,64.5977921 260.847789,64.5214961 C261.532993,64.4543701 262.191327,64.3201181 262.29881,63.8502362 C262.359683,63.1393042 262.200202,62.4268703 261.842007,61.8096063 L259.79983,56.5603543 C256.978401,49.0959449 254.922789,42.9606299 255.231803,42.8532283 C255.540816,42.7458268 258.066667,48.7066142 260.901531,56.1575984 C261.573299,58.0102756 262.245068,59.7555512 262.84966,61.4337008 C263.277262,62.2599969 263.405437,63.2087232 263.212415,64.1187402 C263.012862,64.6161886 262.589207,64.9897186 262.070408,65.1256299 C261.68994,65.2322566 261.29668,65.2864583 260.901531,65.2867323 C259.430373,65.4779134 257.941226,65.4869317 256.467857,65.3135827 Z" id="Path" fill="#263238"></path>
                        <path d="M258.321939,97.2118504 C249.119373,97.3506385 240.058915,94.9338679 232.14983,90.230748 C232.14983,90.230748 238.504762,103.655945 258.066667,101.816693 L258.321939,97.2118504 Z" id="Path" fill="#AA6550"></path>
                        <path d="M255.272109,71.811378 C254.226594,70.4954913 252.57646,69.8105702 250.905612,69.9989764 C249.703326,70.1136938 248.598526,70.7092529 247.842347,71.6502756 C247.103594,72.5686268 247.017723,73.8503447 247.627381,74.8588976 C248.518609,75.8483037 249.918782,76.2033815 251.17432,75.7583858 C252.445641,75.3017921 253.614409,74.5992376 254.613776,73.6909055 C254.921959,73.4792573 255.186517,73.2103417 255.393027,72.8988189 C255.595002,72.5935289 255.595002,72.1972191 255.393027,71.8919291" id="Path" fill="#AA6550"></path>
                        <path d="M248.554422,67.1259843 C248.984354,67.1259843 248.997789,70.0258268 251.496769,72.0933071 C253.995748,74.1607874 257.12619,73.8520079 257.153061,74.268189 C257.153061,74.4427165 256.454422,74.8320472 255.137755,74.8723228 C253.420483,74.8926135 251.750904,74.3079905 250.421939,73.2210236 C249.144183,72.1864688 248.324001,70.6919771 248.137925,69.0592126 C248.003571,67.8912205 248.32602,67.1259843 248.554422,67.1259843 Z" id="Path" fill="#263238"></path>
                        <path d="M247.882653,40.5977953 C247.627381,41.3361811 244.926871,40.987126 241.769558,41.3764567 C238.612245,41.7657874 236.032653,42.6115748 235.616156,41.9537402 C235.428061,41.6449606 235.871429,40.9468504 236.959694,40.2487402 C238.329444,39.3624688 239.890695,38.8148342 241.514286,38.6511417 C243.13521,38.4510247 244.780526,38.6444446 246.310714,39.215 C247.412415,39.6848819 248.003571,40.2755906 247.882653,40.5977953 Z" id="Path" fill="#263238"></path>
                        <path d="M272.20068,37.0132677 C271.717007,37.6308268 269.862925,37.0132677 267.632653,37.0132677 C265.402381,37.0132677 263.507993,37.4160236 263.064626,36.7716142 C262.876531,36.4628346 263.172109,35.8587008 264.005102,35.2679921 C265.106169,34.5561415 266.403497,34.2085706 267.713265,34.2745276 C269.024282,34.295003 270.296562,34.7219026 271.354252,35.4962205 C272.146939,36.0869291 272.402211,36.7179134 272.20068,37.0132677 Z" id="Path" fill="#263238"></path>
                        <path d="M276.647789,36.5299606 C273.235204,19.8827165 268.586565,26.4744882 263.333333,18.5267717 C255.728912,26.2194094 238.222619,35.0800394 227.541497,36.825315 C226.432801,36.9077714 225.359707,37.2529262 224.411054,37.8322047 C222.771939,39.0538976 222.637585,41.4167323 222.637585,43.4707874 C222.851249,49.2573799 222.373153,55.0487776 221.213435,60.7221654 C220.044911,66.4295569 217.129174,71.6326203 212.870068,75.6107087 C206.421088,62.0378346 205.77619,46.2498031 208.664796,31.4955118 C209.847109,25.4675984 211.835544,19.1577559 216.645408,15.3852756 C220.084864,12.7002362 224.518537,11.5456693 228.844728,10.7535827 C239.52585,8.79350394 250.825,8.32362205 260.995578,12.0961024 C271.166156,15.8685827 279.066156,20.594252 280.423129,31.3612598" id="Path" fill="#263238"></path>
                        <path d="M202.780102,24.8366142 C203.461194,25.3184984 204.196134,25.7194804 204.970068,26.0314567 C205.836028,26.4633617 206.734457,26.82695 207.657143,27.1188976 L209.376871,27.7230315 L211.365306,28.2197638 C214.64438,28.9979377 217.992896,29.4476662 221.361224,29.5622835 C229.63421,29.871918 237.884105,28.5017831 245.612075,25.5347244 C247.358673,24.756063 249.051531,24.1250787 250.529422,23.2792913 L252.679082,22.1247244 L254.586905,20.9030315 C255.677973,20.2060945 256.719464,19.4345399 257.703912,18.5938976 L258.939966,17.6004331 L259.880442,16.6472441 C260.493472,16.0880012 261.047242,15.4671681 261.532993,14.7945669 C261.358333,14.6066142 258.980272,17.2648031 254.156973,20.2451969 L252.262585,21.3863386 L250.112925,22.4603543 C248.648469,23.2658661 246.969048,23.802874 245.24932,24.5815354 C241.43619,25.9684046 237.506279,27.0107943 233.506803,27.6961811 C229.508884,28.3346747 225.463212,28.6266408 221.414966,28.5688189 C218.101039,28.4929009 214.800615,28.1199749 211.553401,27.4545276 C206.018027,26.2999606 202.87415,24.621811 202.780102,24.8366142 Z" id="Path" fill="#455A64"></path>
                        <path d="M208.315476,11.6799213 C208.818965,12.1935634 209.382882,12.6443549 209.994898,13.0224409 C210.680217,13.5319594 211.408454,13.9811479 212.171429,14.3649606 L213.582143,15.1301969 L215.234694,15.8283071 C221.35481,18.1915922 227.873436,19.3539367 234.433844,19.2517323 C240.957213,19.2652105 247.461108,18.5401004 253.821088,17.0902756 C256.266327,16.5398425 258.214456,15.9894094 259.531122,15.546378 C260.238916,15.3778134 260.92114,15.1159655 261.559864,14.7677165 C261.559864,14.593189 258.536905,15.412126 253.673299,16.3250394 C247.331805,17.5363532 240.890162,18.147666 234.433844,18.1508661 C227.998767,18.2424268 221.597065,17.2111161 215.516837,15.1033465 C213.059758,14.0851508 210.656189,12.9425281 208.315476,11.6799213 L208.315476,11.6799213 Z" id="Path" fill="#455A64"></path>
                        <path d="M268.385034,7.43755906 C268.385034,7.31673228 267.713265,7.18248031 266.665306,7.43755906 C263.880736,8.25945042 261.872429,10.6856439 261.586735,13.572874 C261.519558,14.6468898 261.77483,15.277874 261.909184,15.2644488 C262.043537,15.2510236 262.097279,12.686811 264.031973,10.431378 C265.966667,8.17594488 268.438776,7.74633858 268.385034,7.43755906 Z" id="Path" fill="#455A64"></path>
                        <path d="M167.404762,28.4748425 C167.263026,28.2044214 167.066236,27.9666236 166.827041,27.7767323 C166.147919,27.1851986 165.304124,26.8151467 164.408673,26.7161417 C162.998235,26.5476051 161.573085,26.8751412 160.378061,27.6424803 C158.707143,28.7011962 157.78466,30.6176746 158,32.5829528 C158.261268,34.9345494 159.662729,37.0075413 161.748469,38.1275591 C164.235163,39.2870268 167.158967,38.9824795 169.352891,37.3354724 C170.545622,36.5093588 171.511243,35.3967347 172.160884,34.1 C172.779623,32.7479972 173.130911,31.289203 173.195408,29.803937 C173.396939,26.8503937 172.886395,23.87 173.42381,20.9701575 C174.583064,15.4120029 178.529395,10.8444267 183.863095,8.88748031 C188.241546,7.3908091 193.065184,7.9846469 196.94915,10.4985039 C199.596097,12.150838 201.734837,14.5016706 203.129422,17.2916535 C204.096769,19.2785827 204.298299,20.527126 204.472959,20.5002756 C204.488372,20.1965273 204.452027,19.8923701 204.365476,19.6007874 C204.19238,18.7465699 203.92658,17.9137605 203.572789,17.117126 C202.27394,14.1485645 200.135122,11.6240579 197.419388,9.85409449 C195.547359,8.61398164 193.44608,7.76041288 191.239116,7.34358268 C188.678141,6.8770405 186.039932,7.0805375 183.580952,7.93429134 C177.863961,9.95159571 173.619016,14.8094711 172.389286,20.7419291 C171.825,23.9102756 172.389286,26.9175197 172.17432,29.7099606 C172.12732,31.0549169 171.816933,32.377624 171.260714,33.6032677 C170.705448,34.7504625 169.868925,35.7387511 168.828912,36.4762598 C166.9387,37.9305846 164.407121,38.2442214 162.218707,37.2951969 C160.374029,36.3331483 159.11161,34.5360642 158.832993,32.4755512 C158.604002,30.7768791 159.352413,29.0942286 160.767687,28.1257874 C161.847488,27.3771818 163.151776,27.0217363 164.462415,27.1188976 C165.559445,27.2576371 166.586941,27.7311461 167.404762,28.4748425 Z" id="Path" fill="#263238"></path>
                        <path d="M218.741327,37.2817717 C219.405778,37.4360832 220.089566,37.4903827 220.770068,37.442874 C222.113605,37.442874 223.981122,37.442874 226.332313,37.442874 C232.484762,37.3403175 238.584535,36.2897415 244.416327,34.3282283 C250.311381,32.279901 255.458361,28.5161003 259.195238,23.5209449 C260.288953,22.0006104 261.170353,20.3385118 261.815136,18.5804724 C262.086188,17.948212 262.25838,17.2780789 262.32568,16.5935433 C261.276731,18.8632004 260.017257,21.0296511 258.563776,23.0644882 C254.772001,27.761128 249.741327,31.304573 244.040136,33.2944882 C238.302598,35.2120435 232.333066,36.349956 226.292007,36.6776378 C223.765922,36.7403408 221.245211,36.9420242 218.741327,37.2817717 L218.741327,37.2817717 Z" id="Path" fill="#263238"></path>
                        <path d="M190.997279,84.9949213 C190.997279,84.9949213 191.064456,85.7870079 191.92432,86.8475984 C193.201831,88.3307859 195.033338,89.2240005 196.989456,89.3178346 C199.886643,89.3957842 202.698893,88.3353616 204.822279,86.3642913 C206.162664,85.2121232 207.017048,83.5957793 207.213776,81.84 C207.430408,79.8415229 206.423578,77.908815 204.661054,76.9398031 C202.726806,76.042439 200.429438,76.8533623 199.488435,78.7656299 C199.124774,79.6964927 199.198759,80.741349 199.689966,81.6117717 C200.112714,82.4176658 200.78735,83.063506 201.611224,83.4510236 C203.092985,84.0731013 204.75741,84.1019423 206.259864,83.5315748 C207.53237,83.0896717 208.679795,82.348324 209.605272,81.3701181 C210.963157,79.9984241 211.835866,78.2213309 212.090816,76.3088189 C212.234918,75.6256379 212.193164,74.9163512 211.969898,74.2547638 C211.87585,74.2547638 211.969898,74.9931496 211.67432,76.2416929 C211.27598,77.9910133 210.369189,79.5837016 209.067857,80.819685 C208.194391,81.6706171 207.130439,82.3011409 205.964286,82.658937 C204.692134,83.1108346 203.296366,83.0676992 202.054592,82.5381102 C200.760653,81.9733828 200.087624,80.5363764 200.482653,79.181811 C201.206099,77.8578262 202.827805,77.3137668 204.204252,77.9332677 C205.551268,78.719166 206.309301,80.2235628 206.138946,81.772874 C205.961094,83.2640139 205.244444,84.6389401 204.123639,85.6393307 C202.204685,87.4660529 199.666412,88.5016894 197.016327,88.5391732 C195.229362,88.5105787 193.519883,87.8052331 192.233333,86.5656693 C191.346599,85.6527559 191.091327,84.9546457 190.997279,84.9949213 Z" id="Path" fill="#263238"></path>
                        <path d="M303.088605,322.540354 C303.088605,322.728307 254.318197,322.889409 194.168027,322.889409 C134.017857,322.889409 85.2340136,322.728307 85.2340136,322.540354 C85.2340136,322.352402 133.990986,322.191299 194.168027,322.191299 C254.345068,322.191299 303.088605,322.352402 303.088605,322.540354 Z" id="Path" fill="#455A64"></path>
                    </g>
                </g>
                <g id="Group-4" fill="#ED2012">
                    <path d="M21.3472167,74.0786455 C21.3472167,74.8028046 16.6268298,75.4095324 10.7784093,75.4095324 C4.92998886,75.4095324 0.209602006,74.8028046 0.209602006,74.0786455 C0.209602006,73.3544865 4.94734323,72.7673305 10.7784093,72.7673305 C16.6094755,72.7673305 21.3472167,73.3544865 21.3472167,74.0786455 Z" id="Path"></path>
                    <path d="M33.2371249,44.5838443 C33.9666881,44.5838443 34.5582259,49.5005629 34.5582259,55.5930186 C34.5582259,61.6854743 33.9666881,66.6021929 33.2371249,66.6021929 C32.5075617,66.6021929 31.916024,61.6676601 31.916024,55.5930186 C31.916024,49.5183771 32.5075617,44.5838443 33.2371249,44.5838443 Z" id="Path"></path>
                    <path d="M45.1270332,73.2174835 C45.1270332,72.4737526 49.8512988,71.8865966 55.6871562,71.8865966 C61.5230137,71.8865966 66.2646479,72.4737526 66.2646479,73.2174835 C66.2646479,73.9612143 61.5403823,74.5287984 55.6871562,74.5287984 C49.8339301,74.5287984 45.1270332,73.9416425 45.1270332,73.2174835 Z" id="Path"></path>
                    <path d="M33.2371249,101.831551 C32.5075617,101.831551 31.916024,96.8970179 31.916024,90.8223764 C31.916024,84.7477349 32.5075617,79.8132021 33.2371249,79.8132021 C33.9666881,79.8132021 34.5582259,84.7477349 34.5582259,90.8223764 C34.5582259,96.8970179 33.9666881,101.831551 33.2371249,101.831551 Z" id="Path"></path>
                    <path d="M51.1811053,89.4440633 C50.6825906,89.8309673 48.546099,88.2160636 46.4096073,85.7937081 C44.2731157,83.3713526 42.9734166,81.1172163 43.4719313,80.7471342 C43.970446,80.3770521 46.1247418,81.9751339 48.2434293,84.3806674 C50.3621169,86.786201 51.6974241,89.0235154 51.1811053,89.4440633 Z" id="Path"></path>
                    <path d="M49.4401814,56.998627 C49.9062564,57.4429794 48.5252934,59.5451077 46.3848007,61.6814169 C44.244308,63.8177262 42.1383394,65.2020546 41.6895264,64.7577023 C41.2407134,64.31335 42.6044144,62.2112216 44.7449071,60.0578219 C46.8853998,57.9044222 48.9913684,56.5542747 49.4401814,56.998627 Z" id="Path"></path>
                    <path d="M25.6799764,64.7213989 C25.2618691,65.1852879 23.1713326,64.2575099 21.0080818,62.6173309 C18.8448309,60.9771519 17.4814376,59.3038379 17.8995449,58.806814 C18.3176522,58.30979 20.4263673,59.270703 22.5896181,60.910882 C24.7528689,62.551061 26.0799051,64.224375 25.6799764,64.7213989 Z" id="Path"></path>
                    <path d="M23.8912415,79.8975624 C24.3444534,80.3488867 23.1862454,82.4319217 21.2894699,84.5843912 C19.3926945,86.7368607 17.4959191,88.0561162 17.0427073,87.6742265 C16.5894954,87.2923367 17.7309178,85.1572258 19.6276932,83.0047563 C21.5244687,80.8522868 23.4883866,79.4462381 23.8912415,79.8975624 Z" id="Path"></path>
                    <path d="M625.530703,17.281092 C625.530703,17.6510003 622.768864,17.9504498 619.365565,17.9504498 C615.962267,17.9504498 613.200428,17.6510003 613.200428,17.281092 C613.200428,16.9111838 615.962267,16.6117342 619.365565,16.6117342 C622.768864,16.6117342 625.530703,16.9111838 625.530703,17.281092 Z" id="Path"></path>
                    <path d="M631.695841,0.547147061 C632.065749,0.547147061 632.365198,3.30870656 632.365198,6.7034899 C632.365198,10.0982732 632.065749,12.8774223 631.695841,12.8774223 C631.325932,12.8774223 631.026483,10.1158628 631.026483,6.7034899 C631.026483,3.29111701 631.325932,0.547147061 631.695841,0.547147061 Z" id="Path"></path>
                    <path d="M638.741712,17.2722847 C638.741712,16.9023764 641.507548,16.6029269 644.915772,16.6029269 C648.323995,16.6029269 651.071987,16.9023764 651.071987,17.2722847 C651.071987,17.6421929 648.323995,17.9592572 644.915772,17.9592572 C641.507548,17.9592572 638.741712,17.6598076 638.741712,17.2722847 Z" id="Path"></path>
                    <path d="M632.576574,33.134303 C632.206666,33.134303 631.907217,30.3766774 631.907217,26.9691654 C631.907217,23.5616535 632.206666,20.8040278 632.576574,20.8040278 C632.946483,20.8040278 633.245932,23.5616535 633.245932,26.9691654 C633.245932,30.3766774 632.946483,33.134303 632.576574,33.134303 Z" id="Path"></path>
                    <path d="M642.205443,26.0548152 C641.909375,26.2845336 640.725106,25.3126477 639.540836,23.8813248 C638.356566,22.4500018 637.642521,21.0893615 637.921173,20.8419724 C638.199824,20.5945832 639.384094,21.5841398 640.568364,23.0154627 C641.752634,24.4467857 642.484095,25.8427673 642.205443,26.0548152 Z" id="Path"></path>
                    <path d="M641.335196,7.64144979 C641.588504,7.89345861 640.82858,9.06949979 639.646477,10.2623416 C638.464373,11.4551833 637.28227,12.2112098 637.028962,11.9424004 C636.775654,11.673591 637.535578,10.531151 638.717681,9.3383092 C639.899785,8.14546744 641.081888,7.38944097 641.335196,7.64144979 Z" id="Path"></path>
                    <path d="M627.253365,12.8084324 C627.006646,13.076439 625.861168,12.5404258 624.680444,11.6024027 C623.499719,10.6643797 622.724318,9.69285575 622.918169,9.42484916 C623.112019,9.15684257 624.310366,9.67610534 625.49109,10.6141284 C626.671814,11.5521515 627.482461,12.5404258 627.253365,12.8084324 Z" id="Path"></path>
                    <path d="M627.233008,20.8482096 C627.509695,21.0866847 626.790308,22.2449924 625.609776,23.4544019 C624.429245,24.6638115 623.248713,25.4133047 622.95358,25.1577957 C622.658447,24.9022866 623.396279,23.7439789 624.576811,22.5516033 C625.757343,21.3592277 627.011658,20.6097344 627.233008,20.8482096 Z" id="Path"></path>
                    <path d="M349.860978,155.565165 C346.670312,156.246423 343.363571,156.246423 340.172905,155.565165 C343.360845,154.860324 346.673038,154.860324 349.860978,155.565165 L349.860978,155.565165 Z" id="Path"></path>
                    <path d="M354.273255,142.345312 C354.954616,145.536969 354.954616,148.841729 354.273255,152.033386 C353.568942,148.844312 353.568942,145.534386 354.273255,142.345312 L354.273255,142.345312 Z" id="Path"></path>
                    <path d="M359.549052,155.547478 C362.739717,154.86622 366.046459,154.86622 369.237125,155.547478 C366.049184,156.252319 362.736992,156.252319 359.549052,155.547478 L359.549052,155.547478 Z" id="Path"></path>
                    <path d="M354.264648,167.886597 C353.58349,164.694778 353.58349,161.390342 354.264648,158.198523 C354.945806,161.390342 354.945806,164.694778 354.264648,167.886597 L354.264648,167.886597 Z" id="Path"></path>
                    <path d="M362.138574,162.573908 C361.920361,162.766047 360.974771,161.959063 360.029181,160.767799 C359.083591,159.576536 358.483505,158.442915 358.719903,158.231562 C358.9563,158.020208 359.90189,158.846407 360.84748,160.03767 C361.79307,161.228934 362.374972,162.381769 362.138574,162.573908 Z" id="Path"></path>
                    <path d="M361.274172,148.544975 C361.467808,148.754214 360.869297,149.678353 359.91872,150.637365 C358.968144,151.596376 358.017567,152.18922 357.823931,151.997418 C357.630295,151.805615 358.228806,150.86404 359.179383,149.922465 C360.129959,148.980889 361.062933,148.353173 361.274172,148.544975 Z" id="Path"></path>
                    <path d="M350.707868,151.98283 C350.522391,152.17956 349.595004,151.786101 348.630521,151.081153 C347.666039,150.376205 347.053964,149.638469 347.257989,149.441739 C347.462014,149.24501 348.370853,149.638469 349.335336,150.343417 C350.299818,151.048364 350.893346,151.769706 350.707868,151.98283 Z" id="Path"></path>
                    <path d="M350.69046,158.244628 C350.92318,158.438744 350.34138,159.356386 349.391106,160.309322 C348.440833,161.262257 347.451772,161.879901 347.257839,161.685784 C347.063906,161.491668 347.606919,160.574026 348.557193,159.62109 C349.507466,158.668155 350.45774,158.015217 350.69046,158.244628 Z" id="Path"></path>
                    <path d="M596.466483,174.941276 C596.466483,175.311184 593.704644,175.610633 590.301345,175.610633 C586.898047,175.610633 584.136208,175.399257 584.136208,174.941276 C584.136208,174.483294 586.880228,174.254303 590.283527,174.254303 C593.686825,174.254303 596.466483,174.571367 596.466483,174.941276 Z" id="Path"></path>
                    <path d="M603.512354,159.079257 C603.882263,159.079257 604.181712,161.836883 604.181712,165.244395 C604.181712,168.651907 603.882263,171.409532 603.512354,171.409532 C603.142446,171.409532 602.842997,168.651907 602.842997,165.244395 C602.842997,161.836883 603.142446,159.079257 603.512354,159.079257 Z" id="Path"></path>
                    <path d="M609.677492,174.932468 C609.677492,174.56256 612.443328,174.26311 615.851552,174.26311 C619.259775,174.26311 622.007767,174.56256 622.007767,174.932468 C622.007767,175.302376 619.259775,175.601826 615.851552,175.601826 C612.443328,175.601826 609.677492,175.302376 609.677492,174.932468 Z" id="Path"></path>
                    <path d="M603.512354,191.666413 C603.142446,191.666413 602.842997,188.891223 602.842997,185.501276 C602.842997,182.111328 603.142446,179.336138 603.512354,179.336138 C603.882263,179.336138 604.181712,182.093764 604.181712,185.501276 C604.181712,188.908787 603.811804,191.666413 603.512354,191.666413 Z" id="Path"></path>
                    <path d="M613.141223,184.58194 C612.845155,184.830111 611.660885,183.855154 610.476616,182.419308 C609.292346,180.983461 608.578301,179.600794 608.856952,179.37035 C609.135604,179.139906 610.319874,180.097136 611.504144,181.532983 C612.688414,182.968829 613.419874,184.351496 613.141223,184.58194 Z" id="Path"></path>
                    <path d="M613.15171,165.295325 C613.405018,165.547863 612.645094,166.709536 611.462991,167.904881 C610.280887,169.100226 609.098784,169.874675 608.845476,169.588465 C608.592168,169.302256 609.352092,168.174254 610.534195,166.962074 C611.716299,165.749893 612.898402,165.042787 613.15171,165.295325 Z" id="Path"></path>
                    <path d="M599.069879,170.45249 C598.82316,170.736756 597.677682,170.201666 596.496957,169.265259 C595.316233,168.328851 594.540832,167.342279 594.734682,167.074734 C594.928533,166.807189 596.12688,167.342279 597.307604,168.278686 C598.488328,169.215094 599.298974,170.184945 599.069879,170.45249 Z" id="Path"></path>
                    <path d="M598.168788,178.499542 C598.445475,178.7548 597.726088,179.911971 596.545556,181.103175 C595.365024,182.29438 594.184492,183.077172 593.889359,182.804896 C593.594226,182.532621 594.332059,181.392468 595.512591,180.201263 C596.693123,179.010059 597.873655,178.261301 598.168788,178.499542 Z" id="Path"></path>
                    <path d="M276.133281,18.161826 L276.932194,20.0369369 C278.332204,23.3012372 281.001996,25.8871731 284.353207,27.2248624 L286.448134,28.058245 L284.441975,28.8395413 C281.03544,30.1953686 278.337939,32.8459196 276.967701,36.1837259 L276.399585,37.5379727 L275.547411,35.8017589 C274.021989,32.6745088 271.29853,30.2606034 267.966615,29.0826112 L266.191253,28.4228499 L268.570238,27.3116731 C271.568577,25.8677738 273.919219,23.395937 275.174585,20.3668176 L276.133281,18.161826 Z" id="Path"></path>
                    <path d="M443.618378,89.8348624 L444.871596,92.9114963 C447.050793,98.259379 451.233315,102.491557 456.484752,104.662529 L459.743119,106.029922 L456.610074,107.311852 C451.289528,109.539835 447.072469,113.868918 444.91337,119.319271 L444.036117,121.541284 L442.699351,118.763768 C440.315526,113.652074 436.073078,109.695788 430.877325,107.739163 L428.036697,106.713618 L431.754578,104.876184 C436.39434,102.529639 440.055962,98.5566651 442.072742,93.6806548 L443.618378,89.8348624 Z" id="Path"></path>
                    <path d="M745.655154,38.4187067 L746.159923,39.6989122 C747.077077,41.9219899 748.815958,43.6855376 750.998738,44.6063664 L752.356391,45.157566 L751.068361,45.7087656 C748.844893,46.622577 747.079798,48.4192656 746.177329,50.6873424 L745.811807,51.6297159 L745.272227,50.4561942 C744.269747,48.3336152 742.4963,46.6942116 740.328977,45.8865719 L739.145382,45.4420561 L740.694499,44.677489 C742.644191,43.7239516 744.176731,42.0633367 744.993734,40.0189635 L745.655154,38.4187067 Z" id="Path"></path>
                    <path d="M748.206675,91.2627434 L749.005588,93.1361757 C750.398395,96.4062922 753.069809,98.9977274 756.426601,100.335013 L758.521529,101.150303 L756.51537,101.948246 C753.109009,103.300038 750.406853,105.940244 749.023342,109.268509 L748.47298,110.63889 L747.620806,108.904231 C746.095383,105.77978 743.371924,103.368036 740.04001,102.191098 L738.264648,101.549274 L740.643633,100.421746 C743.624784,99.0071721 745.973701,96.5763779 747.24798,93.5871871 L748.206675,91.2627434 Z" id="Path"></path>
                    <path d="M423.285431,7.59301862 L423.662888,8.44696218 C424.342839,9.93643474 425.638854,11.1075297 427.25772,11.6952965 L428.246299,12.0804083 L427.293669,12.4320321 C425.652763,13.0413267 424.352895,14.2522301 423.698836,15.7808304 L423.429224,16.4003581 L423.015818,15.6301345 C422.297644,14.2112088 421.004941,13.1153609 419.420986,12.582728 L418.558226,12.2980802 L419.690598,11.7790165 C421.110196,11.1392226 422.229142,10.037295 422.836076,8.68137806 L423.285431,7.59301862 Z" id="Path"></path>
                    <path d="M178.028509,152.91412 L178.510998,154.018304 C179.350496,155.951824 180.973636,157.482559 183.014229,158.265166 L184.282997,158.757802 L183.067839,159.216463 C180.996405,160.011088 179.356628,161.576021 178.528868,163.548263 L178.189339,164.363661 L177.67111,163.344414 C176.734994,161.504765 175.080953,160.084769 173.060659,159.386338 L171.952721,158.995627 L173.400188,158.333116 C175.210894,157.492311 176.639439,156.055853 177.42093,154.290103 L178.028509,152.91412 Z" id="Path"></path>
                </g>
            </g>
        </g>
    </g>
</svg>