<svg xmlns="http://www.w3.org/2000/svg" width="650" height="651" viewBox="0 0 650 651">
    <defs>
        <linearGradient id="emc1u0odya" x1="71.713%" x2="0%" y1="32.423%" y2="79.735%">
            <stop offset="0%" stop-color="#F9250B"/>
            <stop offset="100%" stop-color="#AB0000"/>
        </linearGradient>
        <linearGradient id="k78pikm77b" x1="100%" x2="0%" y1="50%" y2="50%">
            <stop offset="0%" stop-color="#FFD9BE"/>
            <stop offset="100%" stop-color="#FFB18A"/>
        </linearGradient>
    </defs>
    <g fill="none" fill-rule="evenodd">
        <g>
            <g>
                <g>
                    <path fill="#ED2012" d="M247.071 0L0 427.952 307.869 427.952 554.94 0z" opacity=".3" transform="translate(-710 -110) translate(710 110) translate(0 .755)"/>
                    <path fill="url(#emc1u0odya)" d="M321.074 130.929L74.003 558.881 381.873 558.881 628.944 130.929z" transform="translate(-710 -110) translate(710 110) translate(0 .755)"/>
                </g>
                <g fill-rule="nonzero">
                    <g transform="translate(-710 -110) translate(710 110) translate(34.925 19.403) matrix(-1 0 0 1 614.62 0)">
                        <path fill="#E0E0E0" d="M15.572 380.517c-.404-4.855-.54-9.729-.408-14.6-.132-4.875.004-9.754.408-14.614.413 4.86.55 9.74.408 14.615.141 4.87.005 9.745-.408 14.6z"/>
                        <path fill="#E0E0E0" d="M30.673 365.855c-5.023.404-10.064.54-15.101.408-5.032.132-10.068-.004-15.086-.408 5.017-.413 10.054-.55 15.086-.408 5.037-.141 10.079-.005 15.101.408zM598.127 530.653c-.414-4.855-.55-9.73-.408-14.6-.142-4.875-.006-9.755.408-14.615.404 4.86.54 9.74.407 14.615.132 4.87-.004 9.745-.407 14.6z"/>
                        <path fill="#E0E0E0" d="M613.228 516.038c-5.022.423-10.064.564-15.101.423-5.038.142-10.08 0-15.102-.423 5.023-.404 10.064-.54 15.102-.408 5.037-.132 10.078.004 15.101.408zM509.51 29.407c-.413-4.86-.55-9.74-.408-14.615-.141-4.87-.005-9.745.408-14.6.404 4.856.54 9.73.408 14.6.132 4.875-.004 9.754-.408 14.615z"/>
                        <path fill="#E0E0E0" d="M524.611 14.792c-5.022.413-10.064.55-15.101.408-5.037.141-10.079.005-15.101-.408 5.023-.404 10.064-.54 15.101-.408 5.037-.132 10.078.004 15.101.408z"/>
                        <circle cx="32.382" cy="243.304" r="8.923" fill="#FFF"/>
                        <path fill="#FFF" d="M471.576 454.738c.009 4.924-3.973 8.924-8.896 8.939-4.924.014-8.93-3.963-8.95-8.887-.02-4.923 3.953-8.933 8.876-8.959 2.372-.012 4.652.92 6.335 2.591 1.683 1.672 2.631 3.944 2.635 6.316zM206.385 10.291c0 4.928-3.995 8.923-8.923 8.923s-8.922-3.995-8.922-8.923 3.994-8.923 8.922-8.923c4.928 0 8.923 3.995 8.923 8.923z"/>
                        <circle cx="244.209" cy="538.305" r="4.469" fill="#E0E0E0"/>
                        <path fill="#E0E0E0" d="M140.993 516.038c.006 1.809-1.078 3.443-2.748 4.14-1.67.697-3.594.318-4.876-.959-1.281-1.277-1.667-3.2-.976-4.872.691-1.672 2.322-2.763 4.13-2.763 1.185-.004 2.321.463 3.16 1.299.839.836 1.31 1.97 1.31 3.155z"/>
                        <path fill="#FFF" d="M251.015 19.292c0 2.469-2.001 4.47-4.47 4.47-2.468 0-4.469-2.001-4.469-4.47 0-2.468 2.001-4.469 4.47-4.469 2.464.009 4.46 2.005 4.469 4.47z"/>
                        <path fill="#E0E0E0" d="M447.6 260.695c0 2.468-2.002 4.469-4.47 4.469s-4.47-2.001-4.47-4.47c0-2.468 2.002-4.469 4.47-4.469s4.47 2.001 4.47 4.47z"/>
                    </g>
                    <g>
                        <path fill="#FFF" d="M168.906 2.775C110.775 6.993 47.296 14.693.753 32.57l14.709 99.468s90.2-32.288 163.606-30.046L168.906 2.775z" transform="translate(-710 -110) translate(710 110) translate(34.925 19.403) matrix(-1 0 0 1 518.963 56.192)"/>
                        <g fill="#FFF" opacity=".8">
                            <path d="M168.906.47C110.775 4.69 47.296 12.388.753 30.265l14.709 99.469s90.2-32.289 163.606-30.046L168.906.47z" transform="translate(-710 -110) translate(710 110) translate(34.925 19.403) matrix(-1 0 0 1 518.963 56.192) translate(0 2.305)"/>
                        </g>
                        <path fill="#EA0028" d="M164.657 88.867l-.565.094-1.647.235-6.272.784c-2.76.33-6.132.737-10.036 1.302-3.905.564-8.359 1.129-13.251 1.944-19.618 3.027-46.622 8.03-75.946 15.682-10.193 2.634-20.026 5.347-29.011 8.17l-.455.126v-.455c-3.136-22.801-6.178-42.466-8.515-56.454-1.192-6.931-2.148-12.545-2.807-16.324-.33-1.867-.58-3.325-.768-4.36 0-.47-.126-.847-.173-1.129-.02-.13-.02-.262 0-.392.052.12.09.247.11.376 0 .283.141.659.25 1.114.205 1.035.503 2.477.895 4.344.752 3.779 1.803 9.314 3.026 16.277 2.478 13.925 5.614 33.59 8.813 56.454l-.517-.314c9.017-2.854 18.818-5.583 29.058-8.217 25.065-6.459 50.452-11.599 76.055-15.4 4.909-.768 9.41-1.285 13.283-1.803 3.873-.517 7.292-.894 10.052-1.176l6.366-.643 1.662-.141c.128-.043.26-.075.393-.094z" transform="translate(-710 -110) translate(710 110) translate(34.925 19.403) matrix(-1 0 0 1 518.963 56.192)"/>
                        <path fill="#EA0028" d="M166.695 64.686s-.22-.69-.674-1.992c-.75-1.843-1.758-3.57-2.995-5.128-1.958-2.475-4.349-4.574-7.057-6.194-.753-.502-1.647-.878-2.51-1.333-.921-.403-1.87-.743-2.837-1.019-2.09-.664-4.298-.878-6.477-.627-2.387.26-4.66 1.154-6.586 2.587-2.078 1.585-3.862 3.522-5.27 5.724-3.136 4.532-5.033 10.052-7.385 15.776-1.149 3.025-3.03 5.72-5.473 7.84-1.307 1.091-2.864 1.84-4.532 2.18-1.726.292-3.5.085-5.112-.596-6.618-2.619-9.566-10.255-16.262-12.545-3.288-1.043-6.853-.75-9.927.815-1.5.745-2.837 1.78-3.936 3.043-1.04 1.289-1.92 2.7-2.618 4.202-1.49 2.948-2.62 6.273-5.144 8.547-1.24 1.156-2.828 1.867-4.516 2.023-1.63.097-3.256-.25-4.705-1.004-2.702-1.5-4.947-3.706-6.492-6.382-1.341-2.523-2.49-5.144-3.434-7.841-.88-2.472-2.02-4.843-3.403-7.072-1.291-2.026-3.078-3.688-5.19-4.83-3.704-1.96-8.108-2.088-11.919-.345-2.917 1.2-5.511 3.07-7.574 5.457-1.288 1.52-2.254 3.286-2.838 5.19-.408 1.302-.455 2.039-.518 2.023.038-.702.16-1.396.36-2.07.521-1.958 1.457-3.782 2.745-5.347 2.062-2.468 4.68-4.413 7.637-5.677 3.94-1.85 8.517-1.75 12.373.267 2.215 1.168 4.094 2.885 5.457 4.987 1.42 2.261 2.593 4.67 3.497 7.182.952 2.648 2.1 5.222 3.434 7.7 1.494 2.564 3.664 4.669 6.273 6.084 1.327.693 2.818 1.013 4.312.925 1.52-.156 2.947-.806 4.062-1.85 2.32-2.117 3.45-5.316 4.94-8.312.726-1.57 1.642-3.044 2.728-4.39 1.168-1.344 2.592-2.442 4.187-3.23 3.267-1.669 7.06-1.979 10.554-.863 3.56 1.176 6.116 3.92 8.484 6.398 2.136 2.626 4.81 4.765 7.84 6.272 1.484.63 3.117.82 4.705.55 1.538-.318 2.976-1.007 4.187-2.008 2.343-2.043 4.151-4.627 5.269-7.527 2.336-5.661 4.39-11.26 7.527-15.854 1.449-2.27 3.298-4.257 5.457-5.865 2.022-1.473 4.397-2.387 6.884-2.65 2.252-.236 4.528.005 6.68.705.991.294 1.96.656 2.902 1.082 3.769 1.834 7.06 4.518 9.613 7.841 1.227 1.606 2.205 3.388 2.9 5.285.166.515.302 1.038.408 1.568-.005.1-.016.2-.03.298zM12.624 51.623c0 .22-.722.549-1.694.737-.972.188-1.803.157-1.835 0-.031-.157.706-.549 1.678-.737.972-.188 1.772-.22 1.85 0zM15.195 69.735c.095.22-.47.675-1.27 1.051-.8.376-1.568.502-1.568.298 0-.204.486-.659 1.286-1.035.8-.376 1.458-.47 1.552-.314zM18.41 89.635c0 .22-.517.612-1.317.894-.8.282-1.568.33-1.568.126 0-.204.517-.612 1.317-.894.8-.283 1.49-.33 1.568-.126zM22.268 109.143c0 .22-.612.627-1.568.894-.957.267-1.663.345-1.725.125-.063-.22.596-.611 1.474-.893.878-.283 1.74-.33 1.819-.126zM131.898 15.414c.612-.221 1.25-.369 1.897-.439 1.255-.204 3.137-.486 5.41-.815 4.705-.659 11.307-1.568 19.226-2.493h.376v.376c.612 6.68 1.333 14.364 2.086 22.519v.737h-.392l-25.984 3.136h-.361v-.345c-.721-6.822-1.333-12.545-1.772-16.607-.188-1.913-.33-3.434-.455-4.595-.062-.52-.094-1.044-.094-1.568.127.548.221 1.103.282 1.663.173 1.16.377 2.712.643 4.704.518 4.046 1.223 9.66 2.086 16.403l-.392-.314 25.984-3.308-.36.439v-.33c-.722-8.154-1.396-15.854-1.992-22.534l.408.33-26.596 3.041z" transform="translate(-710 -110) translate(710 110) translate(34.925 19.403) matrix(-1 0 0 1 518.963 56.192)"/>
                        <path fill="#EA0028" d="M156.047 19.366c0 .251-4.469.235-9.926.831s-9.832 1.568-9.895 1.27c6.389-2.072 13.14-2.788 19.821-2.1zM156.33 25.2c0 .235-4.172.392-9.268.894-5.097.501-9.237 1.129-9.284.893 2.982-.964 6.076-1.538 9.205-1.709 3.099-.435 6.241-.46 9.347-.078zM150.104 30.28c-1.698.64-3.487 1.004-5.3 1.083-1.77.358-3.582.454-5.38.282 1.697-.629 3.479-.994 5.286-1.082 1.774-.359 3.592-.454 5.394-.282z" transform="translate(-710 -110) translate(710 110) translate(34.925 19.403) matrix(-1 0 0 1 518.963 56.192)"/>
                        <path fill="#FFF" d="M452.304 32.1C395.38 14.756 347.347-.063 282.943.344l-9.848 101.35c66.976 5.928 89.385 10.319 151.201 32.697L452.304 32.1z" transform="translate(-710 -110) translate(710 110) translate(34.925 19.403) matrix(-1 0 0 1 518.963 56.192)"/>
                        <g fill="#FFF" opacity=".8">
                            <path d="M179.444 32.1C122.52 14.756 74.487-.063 10.084.344L.234 101.694c66.976 5.928 89.385 10.319 151.202 32.697L179.444 32.1z" transform="translate(-710 -110) translate(710 110) translate(34.925 19.403) matrix(-1 0 0 1 518.963 56.192) translate(272.86)"/>
                        </g>
                        <path fill="#ED2012" d="M323.432 49.46l2.51-21.5c-6.251-.627-12.51 1.107-17.548 4.861-6.769 4.959-10.775 12.842-10.79 21.233-.026 1.046 0 2.093.08 3.136l25.09-2.823.658-4.908zM349.385 45.946c-2.437-8.49-9.287-14.99-17.892-16.983l-.753-.157-.486-.11-1.474-.219h-.126l-2.477 21.406-.596 5.049 23.71 8.656c.598-1.787 1.008-3.632 1.224-5.504.47-4.08.085-8.214-1.13-12.138z" transform="translate(-710 -110) translate(710 110) translate(34.925 19.403) matrix(-1 0 0 1 518.963 56.192)"/>
                        <g fill="#000" opacity=".3">
                            <path d="M23.945 17.72C21.507 9.23 14.658 2.728 6.053.736L5.3.58 4.814.47 3.34.25h-.126L.736 21.656l-.595 5.05 23.71 8.655c.598-1.787 1.008-3.632 1.223-5.504.47-4.08.086-8.214-1.129-12.137z" transform="translate(-710 -110) translate(710 110) translate(34.925 19.403) matrix(-1 0 0 1 518.963 56.192) translate(325.44 28.227)"/>
                        </g>
                        <path fill="#ED2012" d="M323.793 57.347l-25.09 2.823c1.05 12.169 9.926 22.252 21.844 23.726 11.918 1.474 23.099-6.273 27.02-17.877l-23.711-8.656" transform="translate(-710 -110) translate(710 110) translate(34.925 19.403) matrix(-1 0 0 1 518.963 56.192)"/>
                        <path fill="#EA0028" d="M430.302 51.357c-.762-.233-1.501-.532-2.21-.894-1.396-.643-3.435-1.568-5.975-2.588-6.589-2.756-13.333-5.122-20.198-7.088-6.876-1.972-13.861-3.543-20.92-4.704-2.697-.44-4.908-.753-6.429-.957-.795-.058-1.583-.195-2.352-.408.8-.031 1.603 0 2.4.095 1.567.11 3.747.345 6.476.705 14.242 1.937 28.135 5.897 41.258 11.761 2.509 1.13 4.516 2.102 5.88 2.823.725.358 1.418.778 2.07 1.255zM428.577 61.895c-.76-.244-1.5-.548-2.21-.91-1.396-.627-3.435-1.568-5.975-2.572-13.184-5.55-26.99-9.488-41.117-11.73-2.698-.439-4.909-.752-6.43-.956-.793-.078-1.58-.215-2.352-.408.8-.052 1.605-.02 2.4.094 1.567.094 3.747.33 6.476.69 7.11.974 14.143 2.452 21.044 4.422 6.901 1.978 13.656 4.436 20.214 7.355 2.509 1.13 4.516 2.101 5.88 2.823.73.325 1.423.724 2.07 1.192zM426.852 72.511c-.761-.232-1.501-.531-2.21-.894-1.396-.627-3.435-1.568-5.975-2.587-6.59-2.765-13.334-5.147-20.198-7.135-6.878-1.966-13.862-3.536-20.92-4.705-2.697-.423-4.892-.753-6.429-.956-.795-.059-1.583-.196-2.352-.408.8-.032 1.603 0 2.4.094 1.567.11 3.747.345 6.476.706 7.11.973 14.143 2.451 21.044 4.422 6.906 1.963 13.661 4.421 20.214 7.354 2.509 1.13 4.516 2.102 5.88 2.823.731.36 1.424.79 2.07 1.286zM423.403 83.096c-.738-.243-1.456-.542-2.149-.894-1.348-.643-3.324-1.568-5.77-2.572-12.765-5.54-26.164-9.485-39.895-11.745-2.634-.44-4.704-.753-6.272-.957-.775-.06-1.542-.196-2.29-.407.78-.042 1.563-.01 2.337.094 1.49.094 3.638.33 6.272.705 6.92.973 13.76 2.451 20.465 4.423 6.708 1.994 13.264 4.468 19.618 7.401 2.43 1.13 4.375 2.102 5.676 2.823.703.312 1.375.69 2.008 1.13zM415.907 91.533c-.664-.2-1.31-.457-1.93-.769l-5.19-2.305c-11.359-5.15-23.418-8.59-35.785-10.209l-5.63-.784c-.693-.063-1.38-.184-2.054-.36.693-.082 1.393-.082 2.086 0 1.348 0 3.277.25 5.66.517 12.488 1.322 24.653 4.791 35.958 10.256 2.18 1.035 3.905 1.913 5.097 2.556.633.301 1.232.67 1.788 1.098zM390.612 92.725c-1.368-.172-2.72-.45-4.046-.832-2.477-.58-5.911-1.332-9.738-1.975-3.826-.643-7.323-1.145-9.848-1.569-1.377-.118-2.74-.354-4.077-.705 1.38-.109 2.769-.066 4.14.125 2.556.22 6.069.596 9.926 1.27 3.286.559 6.537 1.302 9.739 2.227 1.353.335 2.663.824 3.904 1.459zM292.744 12.294l1.317-.079 3.92-.125c3.45 0 8.468 0 14.866.33 17.704 1.177 35.22 4.333 52.22 9.408l.282.094v.298c-3.92 22.472-8.593 49.178-13.58 77.75-.204 1.16-.408 2.32-.612 3.45v.438l-.439-.11c-11.486-3.007-23.122-5.41-34.86-7.197-11.243-1.725-21.954-2.948-31.959-3.576h-.392V92.6c2.744-23.977 5.05-44.05 6.665-58.179.815-6.994 1.474-12.545 1.913-16.308.22-1.85.408-3.278.517-4.281 0-.455.11-.816.142-1.098.031-.282 0-.36 0-.345.014.13.014.262 0 .392 0 .282 0 .659-.11 1.129-.094 1.02-.251 2.478-.44 4.36-.391 3.826-.987 9.408-1.724 16.402-1.568 14.114-3.701 34.108-6.273 58.022l-.345-.392c10.02.596 20.778 1.804 32.038 3.513 11.769 1.781 23.436 4.179 34.954 7.182l-.502.33c.204-1.13.408-2.29.612-3.45 5.033-28.572 9.738-55.263 13.69-77.719l.235.393c-16.941-5.093-34.39-8.316-52.032-9.613-6.366-.424-11.416-.533-14.803-.518h-5.269l-.031-.125z" transform="translate(-710 -110) translate(710 110) translate(34.925 19.403) matrix(-1 0 0 1 518.963 56.192)"/>
                    </g>
                    <g>
                        <path fill="#EA0028" d="M191.378 261.004L246.891 273.298 255.374 261.004 254.01 245.181 245.573 237.466 216.5 237.466 189.339 261.929" transform="translate(-710 -110) translate(710 110) translate(34.925 19.403) matrix(-1 0 0 1 479.759 14.588)"/>
                        <g fill="#000" opacity=".3">
                            <path d="M2.367 24.212L57.88 36.507 66.364 24.212 65 8.39 56.563 0.674 27.489 0.674 0.329 25.138" transform="translate(-710 -110) translate(710 110) translate(34.925 19.403) matrix(-1 0 0 1 479.759 14.588) translate(189.01 236.792)"/>
                        </g>
                        <path fill="#FFBE9D" d="M275.996 146.685l70.08-9.409 10.978-3.136s25.263-5.551 27.615-6.398c2.729-.972 3.858.11 4.14 1.13.455 1.567-1.082 3.402-3.403 4.312-.784.313-13.596 4.704-13.596 4.704 1.471.314 2.917.733 4.328 1.255 3.058 1.035 5.99 4.986 7.465 9.597 1.474 4.61 1.49 6.021-.283 6.68-.688.208-1.432.105-2.038-.282-.992-.6-1.738-1.534-2.102-2.635-2.462-7.354-7.056-7.935-7.056-7.935l-1.443.408s4.705 3.309 4.705 7.323c-.012.59-.14 1.17-.377 1.71.709 2.03.291 4.282-1.098 5.923-1.389 1.64-3.542 2.423-5.66 2.059-1.004-.189-2.102-.784-2.243-1.788-.028-.542.086-1.083.33-1.568.1-.272.183-.55.25-.831l-4.203.58s-9.518.784-13.611 1.568l-65.612 19.759c-4.357 1.323-9.062.844-13.063-1.332-4-2.175-6.96-5.865-8.217-10.241-1.34-4.743-.553-9.834 2.156-13.95 2.709-4.118 7.072-6.855 11.958-7.503z" transform="translate(-710 -110) translate(710 110) translate(34.925 19.403) matrix(-1 0 0 1 479.759 14.588)"/>
                        <path fill="#FFBE9D" d="M347.723 139.033c.305 1.483 1.523 2.607 3.027 2.791 1.442.298 2.948.11 4.406.298 4.36.596 7.763 4.563 12.138 4.94.611 0 1.395 0 1.568-.659.172-.658-.298-1.05-.721-1.427l-10.977-9.675" transform="translate(-710 -110) translate(710 110) translate(34.925 19.403) matrix(-1 0 0 1 479.759 14.588)"/>
                        <path fill="#EB996E" d="M357.21 135.3c.46.263.892.573 1.286.926.785.643 1.93 1.568 3.31 2.76l4.845 4.155 1.38 1.208c.423.423 1.145.784 1.27 1.788.009.504-.29.962-.753 1.16-.372.154-.774.218-1.176.188-.715-.054-1.42-.197-2.101-.423-2.417-1.016-4.76-2.2-7.01-3.544-.985-.505-2.043-.854-3.136-1.035-1.02-.157-2.023-.126-2.933-.188-1.522.043-2.985-.588-3.998-1.725-.643-.894-.518-1.569-.486-1.569.17.477.42.923.737 1.318 1.006.963 2.374 1.453 3.763 1.348 1.005-.02 2.01.012 3.011.094 1.164.168 2.295.512 3.356 1.02 2.238 1.295 4.552 2.452 6.931 3.465.618.192 1.254.318 1.898.377.611 0 1.129-.173 1.066-.486-.063-.314-.502-.816-.972-1.224l-1.38-1.223-4.705-4.296-3.136-2.949c-.737-.69-1.113-1.097-1.066-1.144zM370.634 144.882c.907-.218 1.853-.218 2.76 0 .947.252 1.789.801 2.4 1.568.747.993 1.33 2.1 1.724 3.278.406 1.21.931 2.375 1.568 3.481.555.926 1.345 1.689 2.29 2.211.674.346 1.474.346 2.148 0 .455-.235.628-.47.612-.486-.016-.016-.251.125-.69.298-.63.21-1.32.141-1.898-.188-.844-.533-1.544-1.266-2.038-2.133-.63-1.093-1.155-2.243-1.568-3.434-.423-1.225-1.048-2.37-1.85-3.387-.68-.852-1.624-1.453-2.682-1.71-.706-.174-1.443-.174-2.149 0-.407.314-.643.47-.627.502zM386.378 132.823c-.878.204-1.734.493-2.556.862l-6.084 2.243-6.085 2.148c-.867.232-1.707.553-2.509.957.897-.103 1.78-.303 2.635-.596 1.568-.455 3.795-1.145 6.178-2.007 2.384-.863 4.532-1.71 6.053-2.384.833-.317 1.628-.727 2.368-1.223zM368.784 148.787s.188.25.548.643c.536.495.829 1.2.8 1.929-.073.468-.39.862-.83 1.035-.545.222-1.114.38-1.695.47-.734.089-1.41.446-1.897 1.004-.461.676-.577 1.53-.314 2.305.268.756.835 1.369 1.569 1.693.651.318 1.385.428 2.1.314 1.136-.242 2.23-.65 3.247-1.207.702-.356 1.338-.827 1.882-1.396.204-.206.354-.46.439-.737 0 0-.204.235-.596.58-.571.492-1.21.898-1.898 1.208-.992.494-2.047.853-3.136 1.066-1.307.228-2.6-.464-3.136-1.678-.217-.612-.136-1.29.22-1.835.404-.457.961-.753 1.568-.83.616-.115 1.217-.305 1.787-.565.549-.258.927-.779 1.004-1.38.009-.83-.368-1.618-1.02-2.133-.36-.298-.627-.518-.642-.486z" transform="translate(-710 -110) translate(710 110) translate(34.925 19.403) matrix(-1 0 0 1 479.759 14.588)"/>
                        <path fill="#EB996E" d="M367.278 157.521s-.298 0-.69.33c-.552.49-.842 1.209-.784 1.944.136 1.103.846 2.052 1.866 2.494 1.218.488 2.577.488 3.795 0 1.227-.43 2.287-1.236 3.027-2.306.593-.864.945-1.87 1.019-2.916.057-.7-.023-1.402-.235-2.07-.051-.251-.159-.487-.314-.69.17.893.229 1.805.173 2.713-.292 2.166-1.778 3.985-3.842 4.704-1.1.429-2.32.429-3.419 0-.885-.35-1.526-1.133-1.694-2.07-.078-.637.122-1.277.55-1.756.313-.235.58-.33.548-.377zM355.627 151.766s0-.502-.455-1.223c-.6-.957-1.498-1.69-2.556-2.086v.47c.543-.254 1.067-.547 1.568-.877 1.855-1.076 3.375-2.645 4.39-4.532-1.42 1.52-2.997 2.886-4.704 4.077-.533.33-1.05.627-1.568.878l-.533.282.565.189c.976.345 1.83.966 2.462 1.787.58.612.752 1.051.83 1.035zM377.44 144.27c-.094-.094-.831.722-.925 2.023-.094 1.302.533 2.196.658 2.117.126-.078-.204-.956-.11-2.085.095-1.13.518-1.96.377-2.055z" transform="translate(-710 -110) translate(710 110) translate(34.925 19.403) matrix(-1 0 0 1 479.759 14.588)"/>
                        <path fill="#FFBE9D" d="M50.463 168.655S40.24 152.08 38.42 150.67c-1.82-1.412-18.018-7.34-19.398-6.9-1.38.439-21.014 3.779-18.818 6.115 2.195 2.337 15.948-.203 15.948-.203l1.85.925s-11.84 1.882-14.333 3.324c-2.493 1.443-1.568 4.125.675 3.905 2.242-.22 12.435-2.211 13.047-1.788.611.424-11.181 2.776-12.451 3.513-1.71 1.02-1.882 4.046.282 3.905 1.27-.094 12.388-2.964 12.388-2.964-3.283 1.214-6.497 2.606-9.628 4.171-1.333 1.27-.282 3.137 1.568 2.76 1.317-.282 7.543-3.262 9.3-3.638 0 0 1.567.44 3.136 3.764.69 1.568 3.857 11.212 9.644 11.086 5.128-.11 10.161 4.11 10.161 4.11l8.672-14.099z" transform="translate(-710 -110) translate(710 110) translate(34.925 19.403) matrix(-1 0 0 1 479.759 14.588)"/>
                        <path fill="#EB996E" d="M.298 149.932c1.11.574 2.328.91 3.575.987 1.34.192 2.695.25 4.046.173 1.568-.173 3.137-.392 4.861-.643l3.67-.533h-.22c2.741 1.126 5.574 2.013 8.468 2.65-2.622-1.383-5.355-2.548-8.17-3.481h-.219l-3.638.486-4.815.706c-1.304.1-2.615.1-3.92 0-2.227-.157-3.607-.487-3.638-.345z" transform="translate(-710 -110) translate(710 110) translate(34.925 19.403) matrix(-1 0 0 1 479.759 14.588)"/>
                        <path fill="#FFBE9D" d="M42.795 166.695c-1.366.972-3.197.972-4.563 0-1.396-.847-2.478-2.133-3.81-3.136-3.984-2.823-9.74-2.149-13.597-5.16-.533-.407-1.066-1.097-.768-1.709.298-.611 1.035-.627 1.678-.611l16.167.376" transform="translate(-710 -110) translate(710 110) translate(34.925 19.403) matrix(-1 0 0 1 479.759 14.588)"/>
                        <path fill="#EB996E" d="M37.902 156.518c-.57-.142-1.153-.216-1.74-.22-1.13 0-2.76-.172-4.705-.25l-7.072-.283H22.33c-.825-.156-1.678.025-2.368.502-.412.414-.519 1.042-.267 1.568.182.411.462.772.815 1.05.627.487 1.306.902 2.023 1.24 2.737.994 5.54 1.796 8.39 2.399 1.175.355 2.29.884 3.309 1.568.94.643 1.725 1.427 2.525 2.07 1.212 1.165 2.875 1.739 4.547 1.568 1.208-.22 1.568-.878 1.568-.878-.49.263-1.02.443-1.568.533-1.542 0-3.017-.635-4.077-1.756-.737-.643-1.568-1.459-2.509-2.196-1.07-.742-2.25-1.314-3.497-1.693-2.79-.639-5.54-1.445-8.233-2.415-.654-.306-1.274-.679-1.85-1.114-.518-.423-.769-1.003-.486-1.223.282-.22 1.019-.266 1.709-.25h13.831c.577.001 1.152-.073 1.71-.22z" transform="translate(-710 -110) translate(710 110) translate(34.925 19.403) matrix(-1 0 0 1 479.759 14.588)"/>
                        <path fill="#ED2012" d="M130.157 535.965l-3.716 41.117-12.342 31.692c-.422 1.092-.373 2.31.135 3.365.508 1.055 1.43 1.852 2.547 2.202 1.307.413 2.732.168 3.826-.658 6.947-5.285 32.398-24.887 32.508-27.913.125-3.497 6.837-43.188 6.837-43.188l-29.795-6.617z" transform="translate(-710 -110) translate(710 110) translate(34.925 19.403) matrix(-1 0 0 1 479.759 14.588)"/>
                        <g fill="#FFF" opacity=".6">
                            <path d="M.737 31.739L37.385.376l-.188 1.74c-.175 1.504-.875 2.898-1.976 3.937-2.948 2.76-11.275 10.224-30.532 25.09-1.125.866-2.61 1.107-3.952.643v-.047z" transform="translate(-710 -110) translate(710 110) translate(34.925 19.403) matrix(-1 0 0 1 479.759 14.588) translate(116.044 582.618)"/>
                        </g>
                        <g fill="#FFF" opacity=".6">
                            <path d="M1.41.313C.285.968-.173 2.363.345 3.559c.604 1.123 1.97 1.594 3.137 1.082 1.201-.686 1.689-2.17 1.129-3.434C3.85.06 2.318-.28 1.144.439" transform="translate(-710 -110) translate(710 110) translate(34.925 19.403) matrix(-1 0 0 1 479.759 14.588) translate(145.102 568.505)"/>
                        </g>
                        <path fill="#000" d="M168.012 560.099l30.783-243.77-9.848-56.673-58.022 3.136-7.26 292.806c-.07 2.184 1.46 4.093 3.607 4.5l33.81 5.223c1.614.245 3.26-.17 4.563-1.153 1.305-.983 2.158-2.45 2.367-4.07z" transform="translate(-710 -110) translate(710 110) translate(34.925 19.403) matrix(-1 0 0 1 479.759 14.588)"/>
                        <path fill="#000" d="M197.901 324.499l56 55.418-80.557 19.587 5.724 40.646 109.05-14.834c9.317-1.277 17.705-6.315 23.208-13.941 8.45-11.71 8.663-27.458.533-39.392l-84.962-124.7-37.95 12.373 8.954 64.843z" transform="translate(-710 -110) translate(710 110) translate(34.925 19.403) matrix(-1 0 0 1 479.759 14.588)"/>
                        <path fill="#455A64" d="M194.812 310.401c.912 2.239 1.565 4.575 1.945 6.963.662 2.324 1.047 4.72 1.144 7.135-.9-2.243-1.552-4.578-1.944-6.963-.644-2.329-1.028-4.722-1.145-7.135z" transform="translate(-710 -110) translate(710 110) translate(34.925 19.403) matrix(-1 0 0 1 479.759 14.588)"/>
                        <path fill="#455A64" d="M168.53 555.504c-.22 0 6.178-51.75 14.286-115.557 8.107-63.809 14.866-115.48 15.085-115.448.22.031-6.162 51.749-14.27 115.557-8.107 63.809-14.866 115.464-15.101 115.448zM188.822 284.605c.561 1.21.992 2.477 1.286 3.78.69 2.351 1.568 5.66 2.352 9.33.784 3.67 1.396 7.025 1.756 9.409.276 1.304.408 2.634.392 3.967-.445-1.256-.765-2.554-.956-3.873-.58-2.682-1.255-5.865-1.992-9.41-.737-3.543-1.568-6.68-2.101-9.408-.375-1.236-.622-2.508-.737-3.795zM192.413 279.822s.784-.768 2.274-.25c.88.322 1.523 1.085 1.693 2.006.222 1.16-.28 2.337-1.27 2.98-1.014.543-2.257.413-3.136-.33-.724-.62-1.008-1.614-.722-2.524.157-.584.534-1.084 1.051-1.396.36-.204.596-.204.612-.157-.54.424-.926 1.014-1.098 1.678-.155.68.095 1.388.643 1.82.665.521 1.575.601 2.32.203.697-.48 1.061-1.312.942-2.148-.115-.687-.561-1.274-1.192-1.568-.667-.287-1.396-.395-2.117-.314zM270.397 389.405c-.172.172-3.324-2.729-7.84-5.332-4.517-2.603-8.594-3.952-8.515-4.187 3.18.557 6.218 1.74 8.938 3.481 2.842 1.51 5.362 3.561 7.417 6.038z" transform="translate(-710 -110) translate(710 110) translate(34.925 19.403) matrix(-1 0 0 1 479.759 14.588)"/>
                        <path fill="#9F0A00" d="M149.367 93.478l-32.147 15.525 13.862 96.724-5.441 43.406c-.708 5.594 1.414 11.173 5.66 14.882l51.923-1.02 36.318-19.93 16.7-2.823-6.836-33.041 3.136-46.873 37.997 20.277c2.926 1.567 6.335 1.976 9.55 1.144l69.61-18.08-3.622-26.847-63.072 7.135-48.032-42.434-35.754-8.045-6.336-10.522h-36.585l-2.619 1.913c-1.222.919-2.144 2.18-2.65 3.622l-1.662 4.987z" transform="translate(-710 -110) translate(710 110) translate(34.925 19.403) matrix(-1 0 0 1 479.759 14.588)"/>
                        <path fill="#9F0A00" d="M117.22 109.003c-6.682 4.596-11.747 11.18-14.474 18.818-3.67 11.416-11.965 57.567-11.965 57.567l-36.523-22.613L33.214 184.9l48.612 42.937c7.464 6.585 18.144 8.06 27.114 3.747 7.482-3.609 12.658-10.728 13.784-18.959l5.975-43.767-11.48-59.856z" transform="translate(-710 -110) translate(710 110) translate(34.925 19.403) matrix(-1 0 0 1 479.759 14.588)"/>
                        <path fill="#FFBE9D" d="M226.897 247.283L224.639 243.958 200.599 248.396 196.176 258.636z" transform="translate(-710 -110) translate(710 110) translate(34.925 19.403) matrix(-1 0 0 1 479.759 14.588)"/>
                        <path fill="#9F0A00" d="M131.302 264.015c21.484 8.64 44.426 5.457 64.874-5.379 6.179-3.277 11.903-7.339 18.113-10.57 6.21-3.23 13.078-5.598 20.056-5.111 6.979.486 14.004 4.328 16.795 10.742 2.792 6.413 0 15.132-6.57 17.532l2.32 2.07c9.645-4.485 14.224-17.47 9.52-27.02-3.607-7.307-11.197-11.683-16.749-17.657-8.17-8.782-9.016-25.78-9.08-39.016M180.338 112.186c2.65-1.145 6.57.533 8.468 2.697 1.255 1.443 1.96 3.419 3.607 4.36 1.646.94 6.884 1.678 8.405.517 0 0 .925-4.47 1.427-6.272 1.746-7.047 2.936-14.22 3.56-21.453-5.05-2.462-3.654-5.692-12.765-5.065 1.315 4.16 1.43 8.606.33 12.828" transform="translate(-710 -110) translate(710 110) translate(34.925 19.403) matrix(-1 0 0 1 479.759 14.588)"/>
                        <g fill="#000" opacity=".3">
                            <path d="M1.835 21.577c-1.568.643-1.365 3.027-.11 4.062 1.39.904 3.066 1.262 4.704 1.003C25.118 25.592 42.27 15.96 52.894.548 38.78 12.168 20.119 16.575 2.227 20.621" transform="translate(-710 -110) translate(710 110) translate(34.925 19.403) matrix(-1 0 0 1 479.759 14.588) translate(166.225 223.51)"/>
                        </g>
                        <g fill="#000" opacity=".3">
                            <path d="M5.44.376c1.582 17.165.364 34.473-3.606 51.248C.798 55.137.213 58.768.094 62.428c.26 3.956 2.145 7.628 5.206 10.146 2.603-6.006 2.65-11.792 3.748-18.253.988-5.818 2.65-19.414 2.65-19.618.235-11.886-2.572-22.08-7.15-32.79" transform="translate(-710 -110) translate(710 110) translate(34.925 19.403) matrix(-1 0 0 1 479.759 14.588) translate(115.307 147.407)"/>
                        </g>
                        <g fill="#000" opacity=".401">
                            <path d="M1.317.643C3.667 13.307 9.866 24.939 19.07 33.95c3.465 3.371 7.84 6.492 12.623 6.272-2.781-5.734-3.634-12.214-2.43-18.473 4.071 2.752 8.398 5.105 12.921 7.026 4.558 1.9 9.568 2.445 14.427 1.568l2.98-25.922c.214-.976.121-1.995-.267-2.917-.222-.44-.627-.762-1.108-.876-.48-.115-.987-.012-1.385.28-.256.335-.423.729-.486 1.145-1.756 7.606-2.744 14.427-4.516 22.049-1.27 1.254-5.175.737-7.747-.22-2.243-.831-3.136-2.682-4.58-4.548-1.442-1.866-1.222-1.568-3.418-2.477-4.046-1.71-11.808-.345-13.502 3.277-1.693 3.623-.407 8.405.722 11.98C12 24.746 3.844 13.43.423.377" transform="translate(-710 -110) translate(710 110) translate(34.925 19.403) matrix(-1 0 0 1 479.759 14.588) translate(148.975 95.658)"/>
                        </g>
                        <g fill="#000" opacity=".3">
                            <path d="M3.717.533c-.314.627 9.77 34.625 9.77 34.625L.422 27.708 3.717.534z" transform="translate(-710 -110) translate(710 110) translate(34.925 19.403) matrix(-1 0 0 1 479.759 14.588) translate(232.087 132.557)"/>
                        </g>
                        <path fill="url(#k78pikm77b)" d="M154.636 34.5v54.117c.012 3.1 1.123 6.095 3.136 8.452 3.055 3.632 6.742 6.682 10.883 9.001l10.977 6.163 9.033-8.076c2.651-2.37 4.23-5.714 4.375-9.268.157-3.952.141-7.84.141-7.84s15.306-1.098 16.748-16.184c.675-7.12.894-21.672.925-35.08.13-15.42-11.693-28.31-27.066-29.512h-.423c-7.587-.183-14.924 2.716-20.337 8.034-5.413 5.32-8.44 12.604-8.392 20.192z" transform="translate(-710 -110) translate(710 110) translate(34.925 19.403) matrix(-1 0 0 1 479.759 14.588)"/>
                        <path fill="#EB996E" d="M193.056 86.923c-6.974-.599-13.63-3.184-19.179-7.449 0 0 3.952 11.448 19.147 11.338l.032-3.889z" transform="translate(-710 -110) translate(710 110) translate(34.925 19.403) matrix(-1 0 0 1 479.759 14.588)"/>
                        <path fill="#263238" d="M206.26 45.367c-.084 1.17-1.086 2.061-2.258 2.007-.558-.004-1.09-.232-1.477-.634-.386-.401-.595-.942-.578-1.499.084-1.17 1.086-2.06 2.258-2.007.56 0 1.094.227 1.481.63.388.402.595.945.574 1.503zM206.871 41.76c-.282.25-1.819-1.098-4.14-1.286-2.32-.188-4.124.847-4.343.533-.22-.313.188-.611.988-1.097 1.059-.61 2.28-.878 3.497-.769 1.21.093 2.358.571 3.277 1.365.674.611.847 1.129.721 1.254zM184.368 44.27c-.084 1.17-1.085 2.06-2.258 2.006-.559-.004-1.092-.232-1.481-.633-.39-.4-.601-.94-.589-1.5.092-1.166 1.089-2.052 2.258-2.007.56 0 1.097.227 1.487.629.39.402.6.944.583 1.504zM184.023 40.302c-.298.25-1.834-1.082-4.155-1.27-2.321-.189-4.109.83-4.344.517-.235-.314.204-.612.988-1.098 1.06-.623 2.286-.908 3.512-.815 1.21.099 2.356.576 3.278 1.364.659.659.862 1.176.721 1.302zM191.017 58.21c1.254-.289 2.54-.415 3.827-.376.595 0 1.176 0 1.301-.47.102-.608.015-1.233-.25-1.789-.44-1.568-.895-3.042-1.38-4.704-1.898-6.633-3.137-12.06-2.949-12.138.188-.078 2.023 5.238 3.92 11.871.455 1.569.894 3.137 1.302 4.705.32.744.364 1.578.126 2.352-.22.402-.603.689-1.051.784-.338.044-.681.044-1.02 0-1.28.074-2.564-.005-3.826-.235zM184.055 59.245c.376 0 .172 2.54 2.18 4.5 2.007 1.96 4.704 1.914 4.704 2.259s-.627.455-1.772.392c-1.478-.102-2.873-.725-3.936-1.757-1.023-.99-1.619-2.34-1.662-3.763-.016-1.05.313-1.662.486-1.631zM185.372 31.253c-.282.612-2.572.126-5.316.22-2.744.094-5.018.659-5.332 0-.141-.282.282-.847 1.223-1.38 2.529-1.324 5.527-1.405 8.123-.22.973.55 1.427 1.082 1.302 1.38zM206.573 34.97c-.454.486-2.007-.188-3.92-.376-1.913-.189-3.575 0-3.905-.518-.157-.282.157-.8.91-1.239 2.045-1.043 4.517-.759 6.272.722.675.595.847 1.16.643 1.41z" transform="translate(-710 -110) translate(710 110) translate(34.925 19.403) matrix(-1 0 0 1 479.759 14.588)"/>
                        <path fill="#000" d="M172.403 19.241h-.094c-2.585 1.72-4.397 4.382-5.05 7.418v.313c-.956 4.25-1.207 8.64-2.195 12.89-.988 4.25-.8 7.496-5.065 8.453-2.282.504-4.639-.45-5.928-2.4-.308-.621-.444-1.314-.392-2.007 0-10.475-2.038-14.536-1.129-25.404.239-2.956 1.884-5.617 4.423-7.15 2.415-1.443 5.331-2.917 7.84-1.569 2.51 1.349 5.332 6.414 7.12 8.594" transform="translate(-710 -110) translate(710 110) translate(34.925 19.403) matrix(-1 0 0 1 479.759 14.588)"/>
                        <path fill="#FFBE9D" d="M159.152 41.697c-.235-.125-10.114-3.92-10.647 6.43-.534 10.35 9.989 8.75 10.02 8.452.031-.298.627-14.882.627-14.882z" transform="translate(-710 -110) translate(710 110) translate(34.925 19.403) matrix(-1 0 0 1 479.759 14.588)"/>
                        <path fill="#EB996E" d="M155.561 52.486s-.188.126-.502.251c-.431.18-.917.18-1.348 0-1.327-.932-2.041-2.512-1.866-4.124.015-.89.235-1.765.643-2.556.23-.647.763-1.14 1.427-1.317.431-.087.864.143 1.035.548.125.298 0 .502.094.518.094.016.235-.157.172-.58-.04-.263-.173-.503-.376-.675-.267-.234-.619-.347-.972-.313-.892.132-1.645.73-1.976 1.568-.48.876-.744 1.855-.769 2.854-.198 1.88.746 3.695 2.4 4.61.554.187 1.163.118 1.662-.188.345-.345.408-.564.376-.596z" transform="translate(-710 -110) translate(710 110) translate(34.925 19.403) matrix(-1 0 0 1 479.759 14.588)"/>
                        <path fill="#000" d="M164.217 11.353c-2.21-4.343 5.254-9.69 10.476-10.883 5.222-1.191 11.745 1.867 16.685 3.968 3.136 1.317 6.178 3.136 9.55 3.136 2.27-.04 4.52-.416 6.68-1.113 2.169-.705 4.456-.967 6.728-.769 2.342.24 4.353 1.773 5.206 3.968.348 1.09.201 2.277-.402 3.249-.604.971-1.603 1.63-2.734 1.8 2.07-.925 4.501-.372 5.967 1.357 1.466 1.73 1.614 4.219.362 6.11-1.25 1.89-3.6 2.726-5.765 2.052 1.568-1.004 3.67 1.02 3.325 2.838-.554 1.8-2.013 3.176-3.842 3.623-4.47 1.568-9.41.517-13.769-1.349-4.36-1.866-8.28-4.547-12.545-6.523-4.265-1.976-11.447-5.489-16.01-4.281-3.372.878-5.96 4.626-7.732 3.59-1.677-1.077-2.742-2.887-2.87-4.876-.09-1.98.143-3.96.69-5.865" transform="translate(-710 -110) translate(710 110) translate(34.925 19.403) matrix(-1 0 0 1 479.759 14.588)"/>
                        <path fill="#455A64" d="M217.707 14.537c-.078 0-.596.705-1.803 1.819-1.724 1.555-3.802 2.664-6.053 3.23-3.306.892-6.83.453-9.817-1.223-3.371-1.85-6.116-5.253-9.33-8.515-2.962-3.264-6.854-5.54-11.15-6.524-3.617-.755-7.38.206-10.193 2.604-1.81 1.67-2.854 4.013-2.885 6.476-.002.653.093 1.303.282 1.929.058.223.154.435.282.627-.127-.84-.184-1.69-.172-2.54.178-2.299 1.247-4.437 2.98-5.96 2.67-2.133 6.163-2.946 9.502-2.21 4.084.978 7.778 3.164 10.6 6.272 3.137 3.137 5.976 6.665 9.598 8.61 5.488 2.89 12.22 1.86 16.591-2.54.454-.486.863-1.01 1.223-1.57.267-.266.377-.47.345-.485zM156.565 41.039s.47-.251.925-1.035c.613-1.134.901-2.414.831-3.701 0-3.356-2.603-7.167-2.603-11.793-.08-2.145.5-4.264 1.662-6.068 1.007-1.433 2.464-2.488 4.14-2.996 1.125-.364 2.324-.428 3.482-.188.83.204 1.254.44 1.301.36.047-.078-.345-.407-1.176-.736-1.222-.427-2.545-.476-3.795-.141-1.884.468-3.547 1.577-4.704 3.136-1.335 1.948-2.006 4.274-1.914 6.633.08 2.292.574 4.55 1.459 6.665.706 1.643 1.192 3.373 1.443 5.144.14 1.643-.226 3.29-1.051 4.72z" transform="translate(-710 -110) translate(710 110) translate(34.925 19.403) matrix(-1 0 0 1 479.759 14.588)"/>
                    </g>
                    <g fill="#EA0028" transform="translate(-710 -110) translate(710 110) translate(34.925 19.403) matrix(-1 0 0 1 505.89 168.267)">
                        <path d="M10.45 204.44c-.009 2.761-2.252 4.993-5.013 4.987-2.76-.005-4.995-2.246-4.992-5.007.003-2.76 2.242-4.997 5.002-4.997 1.33 0 2.604.529 3.543 1.47.939.942 1.464 2.218 1.46 3.548z"/>
                        <circle cx="458.19" cy="207.828" r="5.002"/>
                        <path d="M259.003 392.306c.006 2.032-1.214 3.868-3.09 4.649-1.877.78-4.04.352-5.477-1.085-1.437-1.437-1.865-3.6-1.085-5.476.781-1.877 2.617-3.097 4.65-3.09 2.762 0 5.002 2.24 5.002 5.002zM106.97 263.654c0 1.015-.612 1.93-1.55 2.318-.937.389-2.016.174-2.733-.544-.718-.717-.933-1.796-.544-2.734.388-.937 1.303-1.549 2.318-1.549 1.385 0 2.509 1.124 2.509 2.51zM418.265 324.31c0 1.017-.613 1.933-1.553 2.32-.94.388-2.02.17-2.736-.55-.716-.722-.927-1.803-.534-2.74.393-.938 1.313-1.545 2.33-1.538 1.379.008 2.493 1.129 2.493 2.509z"/>
                        <circle cx="89.987" cy="1.835" r="1.255"/>
                    </g>
                    <g transform="translate(-710 -110) translate(710 110) translate(34.925 19.403) matrix(-1 0 0 1 558.903 145.577)">
                        <path fill="#FFF" d="M368.705 217.142c-60.798 16.09-119.4 14.866-183.271 0l-7.496-116.796c66.004 12.843 132.259 11.212 190.735-2.76l.032 119.556z"/>
                        <g fill="#FFF" opacity=".8">
                            <path d="M190.766 119.916c-60.797 16.09-119.4 14.867-183.27 0L0 3.12C66.004 15.963 132.258 14.332 190.735.36l.031 119.556z" transform="translate(177.938 97.226)"/>
                        </g>
                        <path fill="#EA0028" d="M359.28 199.344c-.121.08-.253.144-.392.188l-1.145.486c-1.02.408-2.493 1.066-4.453 1.772-5.513 2.05-11.13 3.808-16.827 5.269-18.85 4.734-38.244 6.948-57.677 6.586-19.409-.39-38.748-2.457-57.802-6.178-7.323-1.396-13.204-2.682-17.25-3.623-2.022-.455-3.59-.847-4.704-1.113l-1.208-.314c-.266-.078-.407-.125-.393-.141h.425l1.223.235 4.704.957c4.062.847 9.974 2.054 17.25 3.356 19.042 3.552 38.342 5.54 57.708 5.943 19.368.368 38.703-1.74 57.536-6.273 7.198-1.819 12.937-3.638 16.858-5.033 1.976-.643 3.465-1.255 4.5-1.569l1.177-.407c.145-.08.305-.128.47-.141z"/>
                        <path fill="#ED2012" d="M269.942 204.095c-7.701 2.09-15.853 1.816-23.397-.784v-41.556c7.72-1.568 15.677-1.568 23.397 0v42.34z"/>
                        <path fill="#EA0028" d="M307.735 201.633c-.011-.11-.011-.22 0-.33v-.893c0-.847 0-2.007-.11-3.481 0-3.058-.141-7.433-.251-12.906-.157-10.977-.392-26.455-.659-44.348l.314.377c-8-1.562-16.228-1.562-24.228 0l.33-.392v.815c.25 24.557.485 46.747.642 62.585l-.235-.282c3.357.73 6.775 1.15 10.209 1.254 2.581.046 5.16-.17 7.7-.643 1.594-.306 3.165-.72 4.704-1.238l1.176-.408c.14-.062.288-.104.439-.126l-.376.173-1.192.517c-1.532.581-3.104 1.048-4.705 1.396-2.553.53-5.155.788-7.762.768-3.468-.041-6.924-.42-10.318-1.129h-.22v-.313c-.235-15.839-.549-38.012-.894-62.57v-1.176h.345c8.097-1.601 16.43-1.601 24.526 0l.314.079v.313c.14 17.971.25 33.48.345 44.552v17.124c0 .235-.079.282-.094.282z"/>
                        <path fill="#ED2012" d="M343.708 196.756c-6.272 3.387-14.505 3.842-23.412 3.325v-68.654c7.694-1.851 15.718-1.851 23.412 0v65.33z"/>
                        <path fill="#EA0028" d="M232.824 200.708s0-.643-.079-1.772c-.078-1.13 0-2.807-.094-4.799 0-4.171-.11-9.957-.172-16.842l.22.33c-7.144-2.894-14.84-4.174-22.535-3.748l.376-.408v23.413l-.204-.314c2.91 1.179 5.939 2.041 9.033 2.572 2.776.502 5.206.784 7.23.988l4.704.392c.557.03 1.112.094 1.662.188-.554.037-1.109.037-1.662 0-1.098 0-2.682 0-4.705-.204s-4.485-.376-7.276-.831c-3.159-.478-6.252-1.314-9.22-2.493l-.205-.095v-.235V173.061h.408c7.818-.438 15.634.897 22.864 3.905l.235.078v.251c0 6.979-.141 12.844-.188 17.078 0 1.96 0 3.528-.094 4.704-.051.551-.151 1.097-.298 1.63zM243.8 139.973c-1.513.243-3.046.338-4.578.282-2.839 0-6.759 0-11.071-.266-4.313-.267-8.202-.659-10.977-1.035-1.53-.122-3.042-.395-4.517-.816 1.526-.037 3.052.047 4.564.251 2.822.22 6.711.533 10.977.784 4.265.251 8.201.408 10.977.502 1.547-.018 3.094.082 4.626.298zM240.304 145.085c-1.335.134-2.68.134-4.015 0-2.477-.125-5.896-.345-9.675-.627-3.78-.282-7.198-.596-9.66-.862-1.34-.065-2.668-.264-3.967-.596 1.334-.134 2.68-.134 4.014 0 2.493.125 5.896.345 9.676.627 3.779.282 7.182.596 9.644.862 1.344.068 2.678.267 3.983.596z"/>
                        <path fill="#EA0028" d="M248.866 151.781v-1.458c0-.925.078-2.352.157-4.046.157-3.544.392-8.53.69-14.662l.298.33c-14.48.131-28.953-.676-43.328-2.416l.454-.376v1.286l-.078 1.317c0 .878-.094 1.756-.157 2.619-.094 1.74-.188 3.45-.298 5.128-.204 3.371-.392 6.633-.58 9.754l-.33-.408c12.546 1.568 23.35 2.195 31.019 2.493l8.985.267 2.353.078h.862c-.26.023-.523.023-.784 0-.533 0-1.38 0-2.43.079h-9.002c-7.684-.157-18.536-.722-31.096-2.211h-.361v-.377c.172-3.136.36-6.382.549-9.754.094-1.678.188-3.387.298-5.128l.14-2.618v-2.604l.456-.376c14.399 1.733 28.887 2.618 43.39 2.65h.314v.314c-.423 6.178-.768 11.228-1.02 14.803-.125 1.663-.234 2.996-.313 3.968-.018.454-.081.906-.188 1.348zM254.213 160.579c-1.199-1.248-2.218-2.657-3.026-4.187-1.034-1.391-1.82-2.951-2.321-4.61 1.2 1.247 2.218 2.656 3.027 4.186 1.034 1.392 1.819 2.951 2.32 4.61z"/>
                        <path fill="#FFF" d="M.172 8.577L20.04 128.824s30.344 56.798 110.948 69.594l-13-107.324S43.438 68.01.172 8.577z"/>
                        <g fill="#FFF" opacity=".8">
                            <path d="M.172 0L20.04 120.246s30.344 56.799 110.948 69.595l-13-107.325S43.438 59.433.172 0z" transform="translate(0 8.577)"/>
                        </g>
                        <path fill="#EA0028" d="M120.59 189.825l-.501-.126-1.568-.423-5.677-1.74c-2.462-.785-5.52-1.569-8.923-2.98l-5.473-2.086c-1.96-.737-4.014-1.568-6.1-2.509-4.187-1.913-8.844-3.889-13.58-6.555-4.736-2.666-9.785-5.535-14.929-8.813-11.092-7.283-21.164-16.01-29.952-25.953-4.117-4.632-7.738-9.683-10.804-15.07l-9.096-58.806c-1.097-7.339-1.991-13.22-2.603-17.344l-.658-4.704-.157-1.207c-.018-.141-.018-.283 0-.424.05.131.08.268.094.408l.235 1.207.8 4.705c.674 4.108 1.568 9.989 2.838 17.25 2.352 14.772 5.646 35.346 9.41 58.758v-.11c3.046 5.318 6.63 10.31 10.694 14.898 8.754 9.89 18.772 18.584 29.795 25.859 5.112 3.293 9.99 6.382 14.82 8.844 4.829 2.462 9.33 4.705 13.5 6.618 2.07 1.02 4.125 1.82 6.054 2.556l5.426 2.133c3.371 1.427 6.414 2.274 8.844 3.136l5.63 1.882 1.458.502c.144.017.286.048.424.094z"/>
                        <path fill="#EA0028" d="M113.503 154.918s0 .094-.267.25l-.862.69-3.34 2.604-12.64 9.707-.188.156-.157-.22c-4.265-5.88-9.519-13.156-15.478-21.42l.47.078-11.87 8.468-.392.283-.173-.47c-4.704-12.546-9.832-26.66-15.305-41.51l-2.195-5.975h.737l-9.66 19.195-.424.83-.297-.877c-8.422-24.244-15.557-44.85-20.198-58.226h.423c-1.27 5.363-2.274 9.581-2.964 12.545-.345 1.411-.627 2.51-.815 3.293l-.22.847c-.021.1-.058.195-.11.282v-.298c0-.22.095-.501.157-.846l.706-3.325c.643-2.964 1.568-7.198 2.76-12.545l.172-.753.267.737c4.704 13.345 11.965 33.904 20.511 58.1h-.72l9.643-19.194.424-.847.329.878 2.195 5.975c5.442 14.866 10.617 28.964 15.227 41.54l-.564-.172 11.918-8.405.266-.188.204.266 15.321 21.453h-.36l12.811-9.52 3.419-2.508.894-.627.345-.251zM110.727 97.257c-.577-.059-1.146-.185-1.694-.377-1.066-.298-2.618-.768-4.5-1.395-4.9-1.639-9.71-3.534-14.412-5.677-4.732-2.133-9.354-4.504-13.846-7.104-1.71-1.004-3.137-1.85-4.015-2.462-.505-.282-.974-.624-1.396-1.02.551.188 1.078.44 1.569.753l4.14 2.227c3.497 1.866 8.374 4.375 13.893 6.869 5.52 2.493 10.617 4.485 14.333 5.88 1.741.628 3.137 1.176 4.407 1.569.538.175 1.05.423 1.521.737zM113.926 102.243c-1.32-.07-2.626-.302-3.889-.69-3.094-.747-6.145-1.658-9.142-2.728-2.995-1.074-5.932-2.305-8.798-3.685-1.216-.507-2.369-1.154-3.434-1.93 1.27.357 2.503.83 3.685 1.412 2.243.925 5.348 2.18 8.829 3.434 3.481 1.255 6.68 2.243 9.017 2.948 1.28.298 2.529.713 3.732 1.24z"/>
                        <path fill="#EA0028" d="M82.17 146.716c0 1.004-.61 1.804-1.363 1.804s-1.349-.8-1.349-1.804c0-1.003.612-1.803 1.349-1.803s1.364.815 1.364 1.803z"/>
                        <ellipse cx="51.325" cy="108.704" fill="#EA0028" rx="1.349" ry="1.803"/>
                        <path fill="#EA0028" d="M22.895 69.045c0 .988-.612 1.804-1.35 1.804-.736 0-1.348-.816-1.348-1.804 0-.988.596-1.803 1.349-1.803s1.349.815 1.349 1.803z"/>
                        <path fill="#ED2012" d="M524.501 23.6c-2.603-8.452-8.938-20.511-23.993-23.02L482.757 164.89s33.417-6.664 34.311-24.98c.078-1.569 6.759-83.254 8.437-103.499.505-4.295.164-8.648-1.004-12.812z"/>
                        <path fill="#FFF" d="M526.07 29.967l-9.959 122.16s-29.12 52.235-109.222 54.226l9.895-122.99s69.893-2.839 109.285-53.396z"/>
                        <g fill="#FFF" opacity=".8">
                            <path d="M119.18.172l-9.958 122.16S80.102 174.566 0 176.557l9.895-122.99S79.788 50.729 119.18.172z" transform="translate(406.89 29.795)"/>
                        </g>
                        <path fill="#ED2012" d="M523.639 61.11c-8.017 11.64-12.449 25.373-12.75 39.502-.078 4.062.157 8.249-1.395 11.997-1.553 3.748-5.567 6.884-9.41 5.818-3.841-1.067-5.911-5.96-9.487-8.217-3.357-1.88-7.47-1.79-10.741.235-3.194 2.048-5.663 5.049-7.057 8.578-2.901 6.696-3.136 14.254-5.238 21.232-2.101 6.979-7.401 14.02-14.71 14.333-2.665.11-5.3-.69-7.965-.611-5.63.172-10.523 4.36-13.141 9.409-2.62 5.05-3.42 10.71-4.172 16.293 0 0 42.685 4.077 90.593-52.502l5.473-66.066z"/>
                        <path fill="#EA0028" d="M455.784 135.206c0 1.568-.752 2.744-1.678 2.744-.925 0-1.662-1.223-1.662-2.744 0-1.521.737-2.744 1.662-2.744.926 0 1.678 1.239 1.678 2.744zM475.888 84.429c0 1.568-.753 2.744-1.678 2.744-.925 0-1.662-1.239-1.662-2.744 0-1.505.737-2.744 1.662-2.744.925 0 1.678 1.223 1.678 2.744z"/>
                        <path fill="#EA0028" d="M522.682 67.007c-.066.238-.155.47-.267.69l-.91 1.991c-.846 1.772-2.022 4.281-3.512 7.45l-12.733 26.517-.173.36-.345-.22-30.187-19.1.596-.188c-.392.973-.831 2.023-1.254 3.137l-19.493 47.687-.14.33-.299-.173c-7.527-4.234-13.674-7.637-17.94-9.958-2.148-1.16-3.81-2.054-4.955-2.634l-1.301-.627-.455-.204c2.392.804 4.694 1.855 6.868 3.136 4.329 2.227 10.507 5.551 18.081 9.723l-.439.156 19.32-47.813c.423-1.05.862-2.101 1.254-3.136l.189-.455.407.267 30.14 19.194-.517.141c5.347-10.867 9.832-19.947 13-26.376l3.748-7.323 1.003-1.93c.087-.222.192-.437.314-.642z"/>
                    </g>
                </g>
            </g>
        </g>
    </g>
</svg>
