<svg xmlns="http://www.w3.org/2000/svg" width="400" height="115" viewBox="0 0 400 115">
    <defs>
        <linearGradient id="1qbd62yvya" x1="71.713%" x2="0%" y1="47.599%" y2="54.061%">
            <stop offset="0%" stop-color="#F9250B"/>
            <stop offset="100%" stop-color="#AB0000"/>
        </linearGradient>
    </defs>
    <g fill="none" fill-rule="evenodd">
        <g>
            <g>
                <path fill="url(#1qbd62yvya)" d="M400.002 0v114h-400L0 85.5h49.72l12-21.1 12.4 21.1h20.5l-22.5-33.7 21.1-32.3h-18.7l-11.4 20.2-11.3-20.2h-20.3l.551.858-.02-.008c-3.167-1.233-6.917-1.85-11.25-1.85-4.933 0-9.333.85-13.2 2.55C4.564 22.386 2.03 24.226 0 26.57L.002 0h400zM45.639 41.445L52.622 52.3 39.06 72.4h-8.566c-1.203.004-2.534.02-3.992.05-1.667.033-3.267.083-4.8.15-1.363.06-2.568.119-3.615.178l-.385.022v-.1l.842-.495c5.57-3.3 10.34-6.585 14.308-9.855 4.167-3.433 7.35-7 9.55-10.7 1.897-3.191 2.976-6.593 3.237-10.205zM19.702 32c2.933 0 5.15.85 6.65 2.55 1.5 1.7 2.25 3.817 2.25 6.35 0 2.333-.6 4.733-1.8 7.2-1.2 2.467-3.05 5.067-5.55 7.8-2.5 2.733-5.75 5.633-9.75 8.7-3.275 2.51-7.108 5.177-11.5 8L.002 42.562l9.6 2.939.019-.485c.185-4.162 1.113-7.35 2.782-9.565 1.733-2.3 4.167-3.45 7.3-3.45z" transform="translate(-520 -2146) translate(519.998 2146.5)"/>
                <text fill="#FFF" font-family="WorkSans-Regular_Medium, Work Sans" font-size="24" font-weight="400" letter-spacing="-.6" transform="translate(-520 -2146) translate(519.998 2146.5)">
                    <tspan x="144.502" y="47">Improvement </tspan> <tspan x="144.502" y="75">in fitment</tspan>
                </text>
            </g>
        </g>
    </g>
</svg>
