<svg xmlns="http://www.w3.org/2000/svg" width="290" height="241" viewBox="0 0 290 241">
    <g fill="none" fill-rule="evenodd">
        <g>
            <path fill="#FFF" d="M0 0H1440V6049H0z" transform="translate(-960 -1077)"/>
            <g fill-rule="nonzero">
                <g fill="#E0E0E0">
                    <path d="M52.162.094l-.119.271-.372.796-1.45 3.034c-1.264 2.64-3.114 6.442-5.427 11.13-4.614 9.381-11.096 22.288-18.3 36.52-7.203 14.232-13.718 27.122-18.378 36.48L2.606 99.41l-1.501 3.013-.395.778c-.044.091-.093.18-.147.265l.119-.276.372-.79 1.45-3.04c1.263-2.635 3.113-6.437 5.426-11.13 4.615-9.381 11.096-22.288 18.305-36.52 7.21-14.233 13.714-27.117 18.373-36.475L50.103 4.15l1.5-3.018.395-.778c.107-.175.164-.26.164-.26z" transform="translate(-960 -1077) translate(961 1086) translate(258.59 70.667)"/>
                    <path d="M29.547 20.097c.106.197.19.405.248.62.14.418.321 1.028.536 1.784.428 1.511.964 3.615 1.517 5.95l1.394 5.975c.169.716.315 1.32.434 1.805.07.218.113.443.13.671-.102-.204-.183-.417-.243-.637-.135-.418-.316-1.033-.525-1.789-.411-1.517-.925-3.627-1.477-5.957-.553-2.33-1.05-4.371-1.433-5.962l-.44-1.805c-.07-.213-.116-.432-.141-.655zM22.614 58.445c.23-.036.462-.047.694-.034h1.9c1.603 0 3.814 0 6.257-.101 2.442-.102 4.648-.243 6.244-.373l1.896-.146c.232-.027.467-.027.7 0-.224.071-.455.117-.69.135-.445.068-1.088.152-1.883.243-1.597.18-3.808.372-6.256.457-2.448.084-4.665.067-6.273 0-.8-.029-1.45-.062-1.895-.096-.234 0-.467-.029-.694-.085zM14.598 44.094c.15.158.275.337.372.53l.914 1.495c.762 1.27 1.8 3.035 2.928 4.998 1.128 1.964 2.132 3.74 2.849 5.038l.829 1.546c.112.177.205.366.276.564-.148-.16-.273-.338-.372-.53l-.914-1.479c-.762-1.269-1.8-3.034-2.928-4.992-1.128-1.957-2.132-3.746-2.848-5.043l-.83-1.54c-.112-.185-.205-.382-.276-.587zM1.59 61.593c.173.215.33.443.468.682.305.502.7 1.129 1.179 1.918.981 1.62 2.33 3.876 3.796 6.375 1.467 2.499 2.781 4.766 3.723 6.414.446.795.813 1.455 1.1 1.963.145.234.268.481.367.739-.176-.213-.333-.442-.468-.683l-1.18-1.912c-.98-1.625-2.329-3.876-3.796-6.375-1.466-2.499-2.78-4.766-3.723-6.42l-1.1-1.957c-.145-.235-.268-.485-.366-.744zM12.07 79.182c.292-.047.586-.068.88-.063l2.41-.078c2.03-.068 4.834-.175 7.93-.378 3.098-.204 5.896-.452 7.898-.65l2.398-.236c.293-.044.59-.06.885-.05-.284.08-.574.135-.868.163-.565.09-1.382.203-2.392.327-2.02.254-4.818.564-7.898.739-3.08.175-5.911.276-7.942.293h-2.415c-.296.007-.593-.016-.885-.067z" transform="translate(-960 -1077) translate(961 1086) translate(258.59 70.667)"/>
                </g>
                <g transform="translate(-960 -1077) translate(961 1086) translate(.128)">
                    <path fill="#263238" d="M256.165.468H8.157c-4.274 0-7.74 3.465-7.74 7.74v175.176c0 4.275 3.466 7.74 7.74 7.74h95.187s6.052 18.722-12.715 28.408h88.998s-21.188-7.26-15.744-28.408h92.282c4.274 0 7.74-3.465 7.74-7.74V8.208c0-4.275-3.466-7.74-7.74-7.74z"/>
                    <path fill="#455A64" d="M135.47 172.7c3.384 4.823-1.907 10.103-6.73 6.73-.161-.114-.3-.256-.412-.418-3.385-4.817 1.906-10.091 6.73-6.724.16.111.3.25.411.412z"/>
                    <rect width="251.782" height="149.346" x="6.013" y="10.972" fill="#E0E0E0" rx="3.27"/>
                    <path fill="#FFF" d="M6.013 21.91H257.795V160.313H6.013z"/>
                    <path fill="#455A64" d="M26.66 16.737c.002.815-.488 1.552-1.241 1.865-.753.313-1.62.141-2.197-.435-.577-.577-.749-1.445-.436-2.198.313-.753 1.05-1.243 1.865-1.24 1.11 0 2.008.899 2.008 2.008zM14.475 16.737c.002.815-.487 1.551-1.24 1.864-.752.314-1.619.143-2.196-.432-.577-.576-.75-1.443-.44-2.196.312-.753 1.047-1.244 1.862-1.244.534-.002 1.046.21 1.424.586.378.377.59.888.59 1.422zM20.308 16.737c.002.815-.487 1.551-1.24 1.864-.752.314-1.619.143-2.196-.432-.577-.576-.75-1.443-.44-2.196.312-.753 1.047-1.244 1.862-1.244.533-.002 1.046.21 1.424.586.377.377.59.888.59 1.422z"/>
                </g>
                <g>
                    <path fill="#F5F5F5" d="M0.327 0.355H66.632V111.13300000000001H0.327z" transform="translate(-960 -1077) translate(961 1086) translate(183.462 29.897)"/>
                    <path fill="#EA0028" d="M17.916 65.588L18.627 67.027 20.217 67.264 19.067 68.381 19.337 69.966 17.916 69.215 16.494 69.966 16.771 68.381 15.62 67.264 17.205 67.027zM25.813 65.588L26.524 67.027 28.115 67.264 26.964 68.381 27.235 69.966 25.813 69.215 24.392 69.966 24.663 68.381 23.512 67.264 25.103 67.027zM33.705 65.588L34.416 67.027 36.007 67.264 34.856 68.381 35.127 69.966 33.705 69.215 32.289 69.966 32.56 68.381 31.409 67.264 32.994 67.027zM41.603 65.588L42.313 67.027 43.904 67.264 42.753 68.381 43.024 69.966 41.603 69.215 40.181 69.966 40.452 68.381 39.301 67.264 40.892 67.027zM49.494 65.588L50.205 67.027 51.796 67.264 50.645 68.381 50.916 69.966 49.494 69.215 48.078 69.966 48.349 68.381 47.198 67.264 48.789 67.027zM30.772 78.574c0 .084-5.032.147-11.243.147-6.21 0-11.242-.063-11.242-.147 0-.085 5.031-.147 11.242-.147 6.211 0 11.243.068 11.243.147z" transform="translate(-960 -1077) translate(961 1086) translate(183.462 29.897)"/>
                    <path fill="#263238" d="M59.028 83.487c0 .08-11.226.147-25.075.147-13.848 0-25.074-.068-25.074-.147 0-.079 11.226-.146 25.074-.146 13.85 0 25.075.033 25.075.146zM59.028 87.65c0 .08-11.226.147-25.075.147-13.848 0-25.074-.068-25.074-.147 0-.079 11.226-.146 25.074-.146 13.85 0 25.075.067 25.075.146zM59.028 91.847c0 .08-11.226.147-25.075.147-13.848 0-25.074-.068-25.074-.147 0-.079 11.226-.146 25.074-.146 13.85 0 25.075.062 25.075.146zM59.028 96.038c0 .085-11.226.147-25.075.147-13.848 0-25.074-.062-25.074-.147 0-.084 11.226-.146 25.074-.146 13.85 0 25.075.067 25.075.146zM59.028 100.235c0 .08-11.226.147-25.075.147-13.848 0-25.074-.068-25.074-.147 0-.079 11.226-.146 25.074-.146 13.85 0 25.075.062 25.075.146z" transform="translate(-960 -1077) translate(961 1086) translate(183.462 29.897)"/>
                    <path fill="#E0E0E0" d="M4.688 5.979H61.803000000000004V60.81H4.688z" transform="translate(-960 -1077) translate(961 1086) translate(183.462 29.897)"/>
                    <path fill="#FFBE9D" d="M53.319 51.254L57.031 60.816 48.039 60.816 46.014 55.609z" transform="translate(-960 -1077) translate(961 1086) translate(183.462 29.897)"/>
                    <path fill="#EA0028" d="M19.084 60.816h24.352c.378-3.6.615-7 .615-7l1.252 3.384 10.227-5.116s-3.717-9.912-6.831-13.268c-3.949-4.248-11.006-3.825-11.006-3.825l-9.183.153c-2.35.278-4.638.945-6.77 1.974l-.225.068v.045c-1.986 1.692-7.954 9.691-7.954 9.691l2.2 2.138 4.513 4.203c-.012.027-.012.057 0 .084.034.457-1.19 7.469-1.19 7.469z" transform="translate(-960 -1077) translate(961 1086) translate(183.462 29.897)"/>
                    <path fill="#263238" d="M37.953 34.664s.028.057.05.164c.034.16.055.322.063.485.029.604-.056 1.209-.249 1.782-.29.86-.807 1.625-1.494 2.217-1.778 1.463-4.32 1.535-6.177.175-.717-.555-1.274-1.291-1.614-2.132-.224-.562-.34-1.16-.344-1.766-.004-.164.008-.328.034-.49 0-.108.028-.164.04-.164.007.802.164 1.596.462 2.34.35.788.896 1.474 1.585 1.992 1.766 1.257 4.152 1.19 5.844-.163.66-.555 1.165-1.27 1.467-2.076.26-.76.372-1.562.333-2.364zM46.651 36.842c0 .028-.248 0-.648.169-.567.214-1.06.586-1.422 1.072-.518.734-.835 1.592-.92 2.487-.135 1.01-.163 2.15-.208 3.334-.062 2.38.028 4.513.14 6.092.052.728.102 1.343.136 1.84.038.225.048.454.028.682-.068-.217-.115-.44-.14-.666-.063-.434-.153-1.06-.232-1.839-.204-2.031-.28-4.074-.226-6.115.02-1.131.099-2.26.237-3.384.1-.937.455-1.829 1.027-2.578.394-.502.934-.869 1.546-1.05.163-.049.332-.075.502-.078.118.017.18.022.18.034zM24.82 35.815c-.035.234-.091.464-.169.688-.152.496-.338 1.128-.564 1.856-.468 1.563-1.094 3.729-1.726 6.143-.632 2.414-1.128 4.609-1.478 6.205-.17.75-.31 1.382-.423 1.89-.037.235-.1.466-.186.688.003-.238.028-.476.073-.71.068-.452.18-1.129.327-1.907.305-1.614.779-3.825 1.405-6.24.626-2.414 1.292-4.58 1.81-6.131.26-.779.48-1.4.644-1.828.073-.227.17-.446.288-.654z" transform="translate(-960 -1077) translate(961 1086) translate(183.462 29.897)"/>
                    <path fill="#000" d="M43.29 44.564l3.384 11.993-1.348.677-1.253-3.385s-1.24-7.141-.784-9.285z" opacity=".2" transform="translate(-960 -1077) translate(961 1086) translate(183.462 29.897)"/>
                    <g fill="#000" opacity=".2">
                        <path d="M.959.852c-1.957.993 2.849 3.565 5.043 3.542L4.512.13S1.614.519.96.852z" transform="translate(-960 -1077) translate(961 1086) translate(183.462 29.897) translate(24.256 34.974)"/>
                    </g>
                    <path fill="#FFBE9D" d="M33.48 40.187c-1.375.094-2.725-.401-3.714-1.36-.989-.96-1.523-2.295-1.47-3.672.056-1.563.107-2.82.107-2.82s-3.876-.34-4.18-4.17c-.305-3.83-.237-12.68-.237-12.68 4.31-2.206 9.478-1.906 13.504.784l.598.395-.073 18.717c-.024 2.54-2 4.635-4.536 4.806z" transform="translate(-960 -1077) translate(961 1086) translate(183.462 29.897)"/>
                    <path fill="#263238" d="M26.067 22.231c.165-.16.217-.404.131-.617-.086-.213-.293-.352-.523-.352-.23 0-.437.14-.523.352-.086.213-.034.457.131.617.219.212.566.212.784 0zM24.37 21.092c.061.062.417-.248.947-.288.53-.04.93.209.981.135.051-.073-.039-.146-.214-.265-.238-.145-.517-.212-.795-.191-.278.022-.54.133-.75.315-.153.141-.204.266-.17.294zM30.885 21.39c-.188.132-.278.364-.228.588.05.223.232.394.458.432.226.037.452-.066.573-.26.12-.196.11-.444-.025-.63-.18-.247-.527-.305-.778-.13zM29.954 21.109c.068.062.423-.254.953-.294.53-.04.925.21.982.136.056-.074-.04-.147-.22-.26-.235-.15-.513-.218-.79-.192-.277.019-.541.128-.75.31-.158.147-.203.272-.175.3zM28.273 25.757c-.281-.088-.575-.128-.869-.119-.14 0-.248-.033-.265-.107-.013-.137.012-.276.073-.4l.344-1.128c.334-.935.574-1.9.717-2.883-.431.893-.768 1.83-1.004 2.792-.113.384-.22.75-.322 1.129-.074.178-.088.376-.04.564.048.105.142.183.255.208.078.014.158.014.236 0 .293.033.589.014.875-.056z" transform="translate(-960 -1077) translate(961 1086) translate(183.462 29.897)"/>
                    <path fill="#EB996E" d="M28.397 32.261c1.773-.086 3.48-.699 4.902-1.76 0 0-.998 2.82-4.846 2.753l-.056-.993z" transform="translate(-960 -1077) translate(961 1086) translate(183.462 29.897)"/>
                    <path fill="#FFBE9D" d="M37.919 20.725c.073-.028 3.136-.36 2.651 2.6-.417 2.556-3.17 1.778-3.164 1.693.005-.085.513-4.293.513-4.293z" transform="translate(-960 -1077) translate(961 1086) translate(183.462 29.897)"/>
                    <path fill="#EB996E" d="M38.477 23.89s.04.034.113.073c.103.054.222.066.333.034.34-.196.554-.555.564-.948.026-.217 0-.437-.073-.643-.038-.165-.154-.302-.31-.367-.105-.032-.218.012-.271.108-.04.067 0 .118-.04.118s-.05-.045 0-.147c.02-.061.06-.114.113-.152.074-.047.163-.063.248-.045.21.056.376.219.435.429.09.227.124.473.101.716-.01.464-.296.877-.727 1.05-.142.03-.289-.005-.4-.097-.086-.067-.097-.124-.086-.13z" transform="translate(-960 -1077) translate(961 1086) translate(183.462 29.897)"/>
                    <path fill="#263238" d="M37.276 23.388c-.592.355-1.4-.09-1.692-.711-.24-.65-.341-1.344-.3-2.036-.033-.943-.197-1.877-.485-2.776-.075-.668-.49-1.25-1.097-1.54-.607-.29-1.32-.244-1.887.119-.619.31-1.299.479-1.99.496-.91-.079-1.66-.795-2.568-.92-.908-.124-1.641.288-2.46.52-.812.27-1.693.25-2.492-.057-.806-.326-1.332-1.11-1.326-1.98.032-.422.24-.812.574-1.073.334-.26.763-.369 1.18-.298-.295-.2-.487-.52-.527-.874-.04-.355.076-.709.319-.97.537-.503 1.313-.658 2.002-.4.67.258 1.278.656 1.783 1.167.142-.645.705-1.11 1.365-1.128.652.003 1.286.218 1.805.615.564.36 1.021.8 1.59 1.128 1.129.626 2.472.694 3.74.925 1.27.231 2.63.744 3.244 1.884.564.998.18 2.2.136 3.34-.045 1.139-.051 1.45-.107 2.56-.012-.039.062 1.507-.807 2.009z" transform="translate(-960 -1077) translate(961 1086) translate(183.462 29.897)"/>
                    <path fill="#FFF" d="M27.793 27.308c0 .034.141.096.4.09.694-.021 1.3-.471 1.524-1.128.079-.248.056-.406 0-.412-.056-.005-.209.565-.767 1.005-.36.208-.75.358-1.157.445z" transform="translate(-960 -1077) translate(961 1086) translate(183.462 29.897)"/>
                    <path fill="#455A64" d="M23.388 13.916c-.181.127-.271.347-.232.565.025.24.137.463.316.626.253.2.581.279.897.214.374-.072.73-.215 1.05-.423.347-.24.727-.43 1.128-.564.457-.097.934-.025 1.342.203.435.214.84.525 1.292.8.425.305.933.468 1.455.47.484-.064.936-.277 1.292-.61.319-.28.688-.497 1.089-.638.355-.086.729-.064 1.072.063.508.182.926.554 1.167 1.037.074.182.13.371.164.565 0-.195-.042-.388-.124-.565-.232-.507-.656-.9-1.18-1.094-.359-.14-.752-.167-1.127-.079-.417.136-.802.357-1.128.649-.35.306-.781.503-1.242.564-.5-.004-.987-.164-1.393-.457-.44-.27-.852-.564-1.303-.801-.43-.237-.93-.31-1.41-.209-.4.136-.78.326-1.128.564-.308.206-.653.35-1.016.423-.295.069-.606 0-.846-.186-.168-.145-.28-.345-.316-.564-.035-.203.033-.41.18-.553z" transform="translate(-960 -1077) translate(961 1086) translate(183.462 29.897)"/>
                    <path fill="#455A64" d="M25.086 11.897c-.029-.042-.068-.075-.113-.096-.134-.065-.29-.065-.423 0-.223.093-.356.325-.322.564.044.315.263.577.564.677.355.104.734.086 1.078-.05.378-.153.768-.27 1.167-.35.445-.033.88.137 1.185.462.326.367.707.68 1.128.93.479.17 1.005.139 1.461-.084.408-.19.838-.326 1.28-.406 1.295-.176 2.565.46 3.2 1.602.18.322.236.52.247.513-.046-.185-.116-.363-.208-.53-.243-.467-.597-.866-1.033-1.162-.651-.44-1.442-.627-2.222-.524-.45.08-.888.216-1.303.406-.429.213-.925.243-1.377.084-.418-.245-.799-.551-1.128-.908-.325-.346-.79-.525-1.263-.485-.407.082-.804.204-1.185.367-.317.128-.667.152-.998.067-.278-.085-.482-.322-.525-.609-.039-.217.078-.433.282-.519.125-.059.27-.059.395 0 .079 0 .107.057.113.05z" transform="translate(-960 -1077) translate(961 1086) translate(183.462 29.897)"/>
                    <path fill="#263238" d="M36.413 14.898c.073.028.282-.434.778-.739.497-.305.993-.299.999-.378.005-.079-.119-.09-.339-.096-.582.014-1.11.345-1.376.863-.09.203-.096.339-.062.35z" transform="translate(-960 -1077) translate(961 1086) translate(183.462 29.897)"/>
                    <path fill="#263238" d="M36.864 12.06c-.079 0 .034.598-.062 1.304-.096.705-.333 1.235-.265 1.274.603-.721.73-1.728.327-2.577z" transform="translate(-960 -1077) translate(961 1086) translate(183.462 29.897)"/>
                    <path fill="#455A64" d="M37.761 22.344c.211-.323.271-.723.164-1.094-.115-.395-.327-.756-.615-1.05-.149-.174-.25-.384-.294-.609-.02-.248.012-.497.09-.733.156-.481.185-.994.085-1.49-.09-.41-.334-.77-.682-1.003-.234-.154-.51-.23-.79-.22-.102.004-.202.029-.293.073 0 0 .107 0 .293-.028.267.004.526.088.745.242.325.226.55.57.626.96.092.479.06.974-.09 1.438-.084.25-.115.515-.09.778.048.242.159.468.32.655.284.28.495.624.616 1.004.059.261.059.533 0 .795-.02.097-.048.191-.085.282z" transform="translate(-960 -1077) translate(961 1086) translate(183.462 29.897)"/>
                    <path fill="#263238" d="M34.974 49.641c.007.122.007.245 0 .367 0 .265 0 .564.029.97 0 .835.05 2.008.062 3.424l-.034-.09 1.737 1.619h-.146l2.99-1.213-.085.113c.012-.095.029-.19.05-.282.328-1.777.632-3.453.903-4.908l.13.152c-1.664 0-3.063-.04-4.062-.062l-1.167-.034c-.137-.007-.273-.026-.407-.056.127-.02.256-.029.384-.028l1.128-.034c.987 0 2.42-.056 4.14-.068h.153v.153c-.26 1.46-.564 3.136-.869 4.913l-.05.282v.079l-.074.034-2.995 1.19-.085.034-.062-.062-1.692-1.642-.04-.04v-.05c0-1.467.04-2.674.062-3.497 0-.378 0-.689.034-.948-.024-.104-.036-.21-.034-.316z" transform="translate(-960 -1077) translate(961 1086) translate(183.462 29.897)"/>
                    <path fill="#263238" d="M40.283 51.113c-.874.194-1.77.268-2.663.22-.894.05-1.792-.018-2.668-.203.885-.107 1.778-.137 2.668-.09.888-.05 1.779-.026 2.663.073z" transform="translate(-960 -1077) translate(961 1086) translate(183.462 29.897)"/>
                    <path fill="#FFBE9D" d="M14.819 48.169c.118.118-9.026 12.647-9.026 12.647h8.964l5.5-7.537-5.438-5.11z" transform="translate(-960 -1077) translate(961 1086) translate(183.462 29.897)"/>
                </g>
                <g>
                    <path fill="#F5F5F5" d="M0.305 0.062H94.81500000000001V157.96H0.305z" transform="translate(-960 -1077) translate(961 1086) translate(85.308 9.59)"/>
                    <path fill="#EA0028" d="M25.379 93.043L26.389 95.091 28.656 95.424 27.015 97.02 27.404 99.276 25.379 98.21 23.348 99.276 23.737 97.02 22.102 95.424 24.364 95.091zM36.627 93.043L37.643 95.091 39.905 95.424 38.269 97.02 38.652 99.276 36.627 98.21 34.602 99.276 34.991 97.02 33.35 95.424 35.617 95.091zM47.881 93.043L48.896 95.091 51.158 95.424 49.523 97.02 49.906 99.276 47.881 98.21 45.856 99.276 46.245 97.02 44.604 95.424 46.871 95.091zM59.135 93.043L60.15 95.091 62.412 95.424 60.776 97.02 61.16 99.276 59.135 98.21 57.11 99.276 57.499 97.02 55.857 95.424 58.119 95.091zM70.389 93.043L71.398 95.091 73.666 95.424 72.025 97.02 72.414 99.276 70.389 98.21 68.364 99.276 68.747 97.02 67.111 95.424 69.373 95.091zM43.701 111.551c0 .08-7.175.147-16.026.147-8.85 0-16.026-.068-16.026-.147 0-.079 7.175-.146 16.026-.146 8.85 0 16.026.062 16.026.146z" transform="translate(-960 -1077) translate(961 1086) translate(85.308 9.59)"/>
                    <path fill="#263238" d="M83.972 118.507c0 .084-16.003.146-35.736.146-19.732 0-35.741-.062-35.741-.146 0-.085 15.998-.147 35.741-.147 19.744 0 35.736.068 35.736.147zM83.972 124.486c0 .08-16.003.147-35.736.147-19.732 0-35.741-.068-35.741-.147 0-.079 15.998-.147 35.741-.147 19.744 0 35.736.068 35.736.147zM83.972 130.466c0 .079-16.003.146-35.736.146-19.732 0-35.741-.067-35.741-.146 0-.08 15.998-.147 35.741-.147 19.744 0 35.736.062 35.736.147zM83.972 136.445c0 .08-16.003.147-35.736.147-19.732 0-35.741-.068-35.741-.147 0-.079 15.998-.147 35.741-.147 19.744 0 35.736.063 35.736.147zM83.972 142.419c0 .085-16.003.147-35.736.147-19.732 0-35.741-.062-35.741-.147 0-.085 15.998-.147 35.741-.147 19.744 0 35.736.068 35.736.147z" transform="translate(-960 -1077) translate(961 1086) translate(85.308 9.59)"/>
                    <path fill="#E0E0E0" d="M6.521 8.078H87.932V86.23400000000001H6.521z" transform="translate(-960 -1077) translate(961 1086) translate(85.308 9.59)"/>
                    <path fill="#263238" d="M42.562 21.03c.851-2.86 3.469-4.998 6.368-5.692 2.9-.694 6.499-1.642 9.156-.288 1.658.846 3.249 2.076 3.903 3.82.773 2.07-.417 5.928-1.01 8.055-.592 2.126-1.037 4.558.13 6.43 1.168 1.873 3.464 2.528 4.908 4.118 1.994 2.38 1.736 5.912-.581 7.977 2.567-.153 4.733 2.465 4.642 5.032-.09 2.566-1.968 4.823-4.259 5.985-2.29 1.162-4.935 1.404-7.502 1.41-3.187.005-6.365-.326-9.483-.987-2.566-.564-5.246-1.405-6.916-3.43-1.54-1.862-1.963-4.4-1.968-6.814 0-8.535 4.467-16.997 2.521-25.312" transform="translate(-960 -1077) translate(961 1086) translate(85.308 9.59)"/>
                    <path fill="#263238" d="M44.643 19.067c-2.744-1.878-6.333-1.975-9.174-.248-2.84 1.727-4.407 4.958-4.003 8.258.208 1.692.913 3.385.485 4.992-.807 3.063-5.122 4.254-5.686 7.367-.226 1.23.208 2.466.536 3.667.327 1.202.564 2.561-.08 3.644-.462.801-1.297 1.303-1.951 1.952-2.099 2.098-2.06 5.782-.3 8.18 1.76 2.397 4.875 3.542 7.842 3.446 2.967-.096 5.81-1.297 8.343-2.849" transform="translate(-960 -1077) translate(961 1086) translate(85.308 9.59)"/>
                    <path fill="#B78876" d="M38.41 22.496l.04 2.026.405 30.388c.046 3.531 3.12 6.3 6.894 6.205 3.819-.085 6.916-3.035 6.927-6.6 0-3.74.09-7.678.09-7.678s4.823-.8 5.822-7.09c.496-3.125.338-8.253.073-12.444-.108-1.812-.954-3.5-2.339-4.672-1.385-1.172-3.19-1.726-4.994-1.534l-12.918 1.4z" transform="translate(-960 -1077) translate(961 1086) translate(85.308 9.59)"/>
                    <path fill="#263238" d="M56.241 30.89c.003.437-.342.797-.778.813-.208.017-.413-.051-.57-.188-.156-.138-.25-.332-.26-.54-.006-.436.337-.797.773-.812.208-.017.414.05.571.187.157.137.253.332.264.54zM57.538 29.988c-.101.101-.71-.35-1.579-.35s-1.506.44-1.596.333c-.09-.107.05-.237.332-.44.376-.257.82-.395 1.275-.395.452 0 .892.142 1.258.406.277.203.367.395.31.446zM47.881 30.89c.003.437-.342.797-.778.813-.207.013-.41-.055-.566-.192-.156-.137-.25-.33-.264-.536-.006-.438.34-.8.779-.812.207-.017.412.05.569.188.156.137.25.332.26.54z" transform="translate(-960 -1077) translate(961 1086) translate(85.308 9.59)"/>
                    <path fill="#263238" d="M49.02 30.146c-.101.107-.716-.344-1.579-.344s-1.506.44-1.602.332c-.096-.107.056-.237.333-.44.377-.258.823-.396 1.28-.395.452 0 .892.142 1.258.407.265.191.367.395.31.44zM52.168 36.582c.458-.143.932-.229 1.41-.254.22 0 .43-.067.469-.22.018-.228-.033-.456-.147-.654l-.66-1.692c-.908-2.404-1.568-4.378-1.467-4.417.102-.04.909 1.884 1.822 4.287.22.592.43 1.156.627 1.692.141.266.181.575.112.869-.064.158-.197.278-.36.327-.124.032-.251.049-.379.05-.473.065-.953.07-1.427.012z" transform="translate(-960 -1077) translate(961 1086) translate(85.308 9.59)"/>
                    <path fill="#AA6550" d="M52.766 46.854c-2.962.042-5.877-.739-8.422-2.256 0 0 2.042 4.321 8.338 3.734l.084-1.478zM51.802 38.675c-.342-.416-.871-.628-1.405-.564-.386.033-.742.225-.982.53-.24.294-.27.707-.073 1.032.284.314.729.427 1.128.288.416-.144.8-.368 1.128-.66.096-.074.18-.161.249-.26.065-.097.065-.224 0-.321" transform="translate(-960 -1077) translate(961 1086) translate(85.308 9.59)"/>
                    <path fill="#263238" d="M49.641 37.186c.141 0 .141.93.948 1.602.806.671 1.81.564 1.816.694.006.13-.22.186-.643.197-.552.005-1.089-.183-1.517-.53-.41-.337-.674-.817-.74-1.343-.061-.395.046-.626.136-.62zM43.526 19.552c0-.08.102-.119.152-.096.051.022.074.101.04.18-.022.067-.09.106-.158.09-.056-.04-.07-.116-.034-.174z" transform="translate(-960 -1077) translate(961 1086) translate(85.308 9.59)"/>
                    <path fill="#263238" d="M38.077 52.247c1.866-.704 3.333-2.187 4.016-4.061.662-1.87.71-3.901.136-5.8-.248-.874-.598-1.833-.215-2.656.358-.556.824-1.034 1.371-1.405 1.077-1.04 1.715-2.453 1.783-3.949.057-1.49-.214-2.975-.796-4.349-.299-.761-.66-1.596-.383-2.363.253-.524.628-.978 1.094-1.326.895-.84 1.634-1.83 2.183-2.928.384-.773.671-1.692.3-2.487-.458-.948-1.642-1.241-2.686-1.32-2.493-.192-5.246.36-6.831 2.29-1.416 1.726-1.58 4.135-1.693 6.374-.315 7.04-.631 14.154.565 21.098" transform="translate(-960 -1077) translate(961 1086) translate(85.308 9.59)"/>
                    <path fill="#263238" d="M61.047 21.797c-.347.21-.707.398-1.077.564-.326.236-.63.5-.908.79-.164.158-.339.333-.497.513l-.113.135-.18.181-.435.412c-.419.39-.87.745-1.348 1.06-.707.493-1.499.852-2.335 1.06-1.609.36-3.292.161-4.772-.563-1.021-.492-1.916-1.21-2.618-2.099-1.072-1.427-1.235-2.583-.745-3.21.491-.626 1.738-.564 3.126-.197.675.176 1.361.312 2.053.406.544.078 1.097.063 1.636-.045.264-.06.52-.15.761-.27.356-.159.796-.39 1.303-.632.254-.119.52-.237.807-.35.141-.057.293-.107.44-.158.147-.05.333-.113.497-.152.614-.16 1.252-.211 1.884-.153 1.015.039 1.96.532 2.572 1.343.327.403.305.987-.05 1.365z" transform="translate(-960 -1077) translate(961 1086) translate(85.308 9.59)"/>
                    <path fill="#455A64" d="M29.266 56.58c-.032-.029-.062-.059-.09-.09-.086-.093-.165-.191-.238-.294-.285-.39-.5-.828-.637-1.292-.21-.733-.25-1.506-.113-2.256.2-1.012.737-1.927 1.523-2.595.84-.767 1.94-1.343 2.95-2.144.526-.405.977-.9 1.332-1.46.368-.589.518-1.288.423-1.975-.192-1.422-1.365-2.668-1.467-4.372-.084-1.753.865-3.394 2.426-4.197.76-.327 1.48-.737 2.15-1.224.588-.522.906-1.284.862-2.07-.038-.768-.23-1.52-.564-2.212-.327-.682-.722-1.33-1.06-1.99-.35-.645-.59-1.343-.711-2.065-.092-.697-.005-1.406.254-2.06.479-1.15 1.315-2.118 2.386-2.758.879-.516 1.85-.856 2.86-.998.747-.11 1.501-.16 2.256-.147.626 0 1.128.045 1.433.073l.372.04h.124c-.165.011-.33.011-.496 0h-1.433c-.756.003-1.51.068-2.256.192-.98.155-1.92.498-2.77 1.01-1.018.627-1.809 1.564-2.256 2.673-.237.614-.315 1.278-.226 1.93.123.693.359 1.362.7 1.98.332.648.733 1.291 1.071 1.996.363.724.573 1.516.615 2.324.053.87-.299 1.716-.953 2.29-.684.508-1.424.934-2.206 1.27-1.462.76-2.344 2.304-2.256 3.949.073 1.568 1.23 2.82 1.444 4.343.102.75-.064 1.51-.468 2.15-.374.583-.848 1.097-1.4 1.517-1.049.818-2.143 1.37-2.96 2.104-.766.63-1.295 1.501-1.501 2.47-.151.735-.13 1.493.062 2.218.175.599.452 1.164.818 1.67zM64.353 55.367c.273-.141.477-.388.564-.683.089-.339.063-.698-.073-1.02-.21-.416-.533-.764-.931-1.005-.435-.299-.97-.536-1.506-.903-.61-.367-1.025-.987-1.129-1.692-.016-.78.237-1.54.717-2.155.451-.648 1.038-1.201 1.49-1.856.461-.612.664-1.382.563-2.143-.13-.708-.426-1.374-.863-1.946-.812-1.129-1.822-1.952-2.46-2.82-.557-.66-.93-1.457-1.077-2.308-.032-.23-.032-.464 0-.694 0-.158.045-.243.057-.237-.006.306.01.611.05.914.185.815.573 1.57 1.129 2.194.643.84 1.658 1.636 2.515 2.82.468.606.785 1.314.926 2.065.062.409.038.826-.068 1.225-.121.406-.312.787-.564 1.128-.474.694-1.066 1.246-1.5 1.856-.443.56-.682 1.254-.678 1.968.09.636.461 1.197 1.01 1.53.502.354 1.038.608 1.478.924.426.275.763.667.97 1.128.144.361.154.761.029 1.129-.07.232-.22.432-.424.564-.072.024-.15.03-.225.017zM61.487 19.225v.197c-.001.19-.022.379-.062.564-.14.69-.479 1.324-.976 1.822-.749.758-1.8 1.137-2.86 1.033-.625-.047-1.228-.255-1.748-.604-.525-.396-.995-.858-1.4-1.376-.392-.494-.85-.932-1.359-1.304-.48-.335-1.01-.596-1.568-.772-.953-.297-1.967-.334-2.94-.108-.657.157-1.284.422-1.855.785-.406.259-.61.434-.62.417.156-.203.347-.376.564-.513.56-.411 1.194-.712 1.867-.886 1.007-.269 2.07-.253 3.068.045.589.18 1.146.447 1.653.796.534.381 1.012.835 1.422 1.348.387.498.837.946 1.337 1.331.48.319 1.033.513 1.607.564.99.107 1.976-.228 2.697-.914.482-.463.831-1.047 1.01-1.692.118-.463.118-.733.163-.733z" transform="translate(-960 -1077) translate(961 1086) translate(85.308 9.59)"/>
                    <path fill="#263238" d="M49.24 26.744c-.084.237-.953.124-1.968.248-1.016.124-1.84.4-1.975.192-.062-.101.08-.327.412-.564.898-.567 2.007-.69 3.007-.333.36.164.564.35.525.457zM57.228 27.472c-.152.197-.75 0-1.466 0-.717 0-1.332.135-1.473-.074-.056-.101.04-.299.305-.485.355-.23.773-.342 1.196-.321.42.01.827.147 1.167.395.254.186.339.389.271.485z" transform="translate(-960 -1077) translate(961 1086) translate(85.308 9.59)"/>
                    <path fill="#EA0028" d="M32.662 86.488c.304.525-1.924-6.983-1.924-6.983l-1.867 6.86-13.849.1s7.824-25.576 11.542-29.147c4.85-4.659 13.944-4.913 13.944-4.913l5.444 4.643 8.597-4.417.316.034c5.724.704 10.716 4.228 13.296 9.386l9.324 24.16H65.176l-2.628-7.13.88 7.13" transform="translate(-960 -1077) translate(961 1086) translate(85.308 9.59)"/>
                    <path fill="#FAFAFA" d="M36.103 52.958L48.58 81.344l6.306-28.68s-1.749-.1-4.248-.197c-1.382-.05-2.995 5.416-4.665 5.387-1.071 0-2.16-5.545-3.238-5.54-1.36 0-2.685 0-3.892.091-1.05.057-1.969.48-2.741.553z" transform="translate(-960 -1077) translate(961 1086) translate(85.308 9.59)"/>
                    <path fill="#FAFAFA" d="M38.45 53.223v-2.606s7.434.101 7.564 6.053c0 0 1.055-5.867 7.057-6.053l.383 1.997-1.692 6.842-4.332 2.883H41.59l-2.414-3.176-.728-5.94z" transform="translate(-960 -1077) translate(961 1086) translate(85.308 9.59)"/>
                    <path fill="#263238" d="M48.473 82.1c.011-.109.036-.215.074-.316.094-.3.215-.59.36-.87.241-.436.537-.84.88-1.2.396-.43.87-.88 1.349-1.417 1.194-1.199 2.236-2.54 3.102-3.993.472-.87.744-1.833.796-2.82.076-1.058-.23-2.107-.863-2.957l-.198-.254h.328c.125.014.252.014.377 0 .52-.107.983-.4 1.304-.823.319-.416.523-.908.592-1.427.077-1.014-.001-2.034-.231-3.024-.322-1.94-.615-3.69-.858-5.173-.242-1.483-.417-2.623-.564-3.486-.05-.39-.096-.7-.135-.953-.02-.11-.03-.222-.029-.333.042.105.073.215.09.327.046.243.114.564.187.936.163.864.383 2.037.649 3.475l.92 5.156c.247 1.02.33 2.073.247 3.12-.071.57-.295 1.11-.648 1.562-.363.484-.891.815-1.484.931-.148.017-.298.017-.446 0l.124-.237c.678.903 1.004 2.022.92 3.148-.056 1.03-.346 2.036-.846 2.939-.888 1.467-1.959 2.815-3.187 4.01-.497.53-.982.976-1.382 1.388-.345.339-.648.718-.903 1.128-.39.728-.485 1.174-.525 1.163zM48.473 81.857c-.088-.076-.165-.163-.23-.26l-.638-.761c-.564-.66-1.371-1.597-2.403-2.736-1.033-1.14-2.257-2.499-3.515-4.124-.679-.835-1.264-1.743-1.743-2.707-.524-1.076-.599-2.316-.209-3.447.062-.152.136-.3.22-.44l.074.214c-1.085-.392-2.049-1.058-2.798-1.934-.691-.8-1.234-1.717-1.602-2.708-.593-1.674-.83-3.453-.694-5.224.074-1.18.216-2.355.423-3.52.073-.383.13-.694.18-.942.012-.112.039-.222.08-.327.012.112.012.226 0 .338-.034.249-.074.565-.125.948-.101.83-.276 2.025-.327 3.515-.108 1.737.142 3.479.733 5.116.366.958.896 1.844 1.569 2.617.715.832 1.632 1.467 2.662 1.845l.164.056-.09.158c-.073.129-.139.26-.198.395-.359 1.059-.286 2.216.203 3.221.463.948 1.03 1.841 1.693 2.663 1.218 1.619 2.442 2.984 3.452 4.146 1.01 1.162 1.81 2.121 2.335 2.82.265.345.463.61.593.802.074.084.138.177.191.276z" transform="translate(-960 -1077) translate(961 1086) translate(85.308 9.59)"/>
                    <path fill="#263238" d="M48.338 86.426c-.127-.842-.155-1.696-.085-2.544-.022-.85.05-1.699.215-2.533.148 1.692.105 3.395-.13 5.077zM30.377 81.197c.06-.33.141-.656.242-.976.164-.626.401-1.534.627-2.668.587-2.952.814-5.963.677-8.97-.05-1.65-.273-3.292-.666-4.896-.319-1.307-.917-2.529-1.754-3.582-.566-.707-1.263-1.297-2.054-1.737-.564-.305-.92-.4-.908-.429.086.01.172.029.254.056.242.07.478.16.705.271.833.406 1.57.983 2.166 1.692.877 1.065 1.51 2.31 1.856 3.645.41 1.622.643 3.285.694 4.958.142 3.03-.115 6.064-.767 9.026-.254 1.128-.52 2.036-.717 2.657-.101.304-.191.564-.248.705-.056.14-.096.282-.107.248zM62.655 76.6c-.037-.313-.05-.628-.04-.943 0-.609 0-1.483-.056-2.566-.097-2.819-.344-5.63-.739-8.422-.55-3.706-1.342-7.371-2.375-10.972l-.04-.147.113.09c.203.142.392.303.565.48-.217-.115-.423-.249-.615-.4l.079-.051c1.188 3.567 2.047 7.236 2.566 10.96.403 2.803.624 5.63.66 8.462 0 1.088 0 1.968-.04 2.572.001.314-.025.627-.078.936zM44.632 53.296c0 .029-.141 0-.333.153-.25.214-.445.487-.564.795-.537 1.025-.872 2.143-.987 3.294l-.04.367-.225-.299-.407-.564c-.942-1.224-1.867-2.256-2.55-3.024-.393-.381-.757-.793-1.088-1.23.452.317.868.682 1.241 1.09.942.934 1.82 1.93 2.629 2.984l.411.564-.265.067c.132-1.184.517-2.327 1.129-3.35.157-.328.403-.606.71-.801.186-.108.344-.057.339-.046zM53.358 52.738c-.29.49-.624.952-.998 1.382-.643.835-1.551 1.974-2.567 3.221l-.536.654-.248.305v-.395c.006-.648-.042-1.295-.14-1.935-.084-.505-.264-.99-.531-1.427-.26-.39-.588-.728-.97-.998.13.022.254.074.36.152.312.187.58.44.785.739.306.449.517.956.62 1.49.121.65.181 1.311.18 1.973l-.259-.084.536-.66c1.016-1.247 1.946-2.364 2.635-3.165.34-.45.72-.868 1.133-1.252zM48.225 80.667c-.068-.31-.114-.625-.135-.942-.074-.66-.164-1.523-.277-2.573-.22-2.177-.496-5.184-.79-8.506-.293-3.323-.564-6.33-.71-8.513-.074-1.049-.13-1.918-.18-2.578-.028-.317-.028-.636 0-.953.068.31.116.625.14.942.068.66.158 1.523.271 2.572.22 2.178.502 5.185.795 8.507.294 3.323.565 6.33.706 8.507l.18 2.583c.027.318.027.636 0 .954zM48.242 61.786c0-.028.209-.17.513.034.178.122.287.32.294.536-.026.273-.212.504-.473.589-.261.085-.548.006-.729-.2-.122-.177-.151-.401-.079-.603.13-.345.4-.367.395-.333-.006.034-.152.13-.192.383-.027.135.006.275.09.384.11.113.276.151.424.096.154-.041.27-.17.293-.327.002-.137-.053-.268-.152-.361-.187-.187-.378-.153-.384-.198zM49.325 68.82c0-.033.248-.124.502.147.153.159.216.383.17.598-.083.274-.335.462-.621.463-.285.026-.552-.14-.654-.406-.068-.211-.026-.442.112-.615.232-.288.508-.22.485-.186-.022.033-.191.067-.31.304-.07.122-.082.269-.034.4.073.145.229.229.39.21.162.004.31-.092.372-.243.033-.136.009-.279-.068-.395-.146-.248-.344-.276-.344-.276z" transform="translate(-960 -1077) translate(961 1086) translate(85.308 9.59)"/>
                    <g fill="#000" opacity=".3">
                        <path d="M1.523.27c-1.055 3.752-2.053 8-.09 11.367.564 1.016 1.421 1.879 1.974 2.917.954 1.777 1.016 3.887 1.608 5.81 1.19 3.898 5.443 7.689 9.477 8.281-2.082-2.533-5.303-5.833-7.22-8.704-.61-.749-1.06-1.614-1.32-2.544-.238-1.044-.413-2.15.281-2.967-2.696-.418-4.23-3.204-4.716-5.89-.448-2.7-.335-5.463.333-8.117" transform="translate(-960 -1077) translate(961 1086) translate(85.308 9.59) translate(33.846 53.026)"/>
                    </g>
                    <g fill="#000" opacity=".3">
                        <path d="M.716 1.608c-.67 4.027-.22 9.307 2.257 12.557C3.88 9.742 3.43 3.96.716.333" transform="translate(-960 -1077) translate(961 1086) translate(85.308 9.59) translate(62.051 71.641)"/>
                    </g>
                </g>
                <g>
                    <path fill="#F5F5F5" d="M0.491 0.169H66.796V110.947H0.491z" transform="translate(-960 -1077) translate(961 1086) translate(15.359 33.282)"/>
                    <path fill="#EA0028" d="M18.079 65.402L18.79 66.841 20.381 67.072 19.23 68.189 19.501 69.774 18.079 69.029 16.658 69.774 16.934 68.189 15.784 67.072 17.369 66.841zM25.977 65.402L26.688 66.841 28.278 67.072 27.128 68.189 27.398 69.774 25.977 69.029 24.555 69.774 24.826 68.189 23.675 67.072 25.266 66.841zM33.869 65.402L34.579 66.841 36.17 67.072 35.019 68.189 35.29 69.774 33.869 69.029 32.453 69.774 32.724 68.189 31.573 67.072 33.158 66.841zM41.766 65.402L42.477 66.841 44.068 67.072 42.917 68.189 43.188 69.774 41.766 69.029 40.345 69.774 40.615 68.189 39.465 67.072 41.055 66.841zM49.658 65.402L50.369 66.841 51.959 67.072 50.809 68.189 51.079 69.774 49.658 69.029 48.236 69.774 48.513 68.189 47.362 67.072 48.953 66.841zM30.935 78.41c0 .08-5.031.147-11.242.147-6.21 0-11.231-.09-11.231-.147 0-.056 5.037-.146 11.242-.146 6.205 0 11.231.04 11.231.146z" transform="translate(-960 -1077) translate(961 1086) translate(15.359 33.282)"/>
                    <path fill="#263238" d="M59.191 83.267c0 .08-11.225.147-25.074.147-13.849 0-25.074-.068-25.074-.147 0-.079 11.225-.146 25.074-.146 13.849 0 25.074.067 25.074.146zM59.191 87.464c0 .08-11.225.147-25.074.147-13.849 0-25.074-.068-25.074-.147 0-.079 11.225-.152 25.074-.152 13.849 0 25.074.067 25.074.152zM59.191 91.655c0 .08-11.225.147-25.074.147-13.849 0-25.074-.068-25.074-.147 0-.079 11.225-.146 25.074-.146 13.849 0 25.074.067 25.074.146zM59.191 95.852c0 .08-11.225.147-25.074.147-13.849 0-25.074-.068-25.074-.147 0-.079 11.225-.146 25.074-.146 13.849 0 25.074.062 25.074.146zM59.191 100.044c0 .084-11.225.146-25.074.146-13.849 0-25.091-.062-25.091-.146 0-.085 11.225-.147 25.074-.147 13.849 0 25.091.068 25.091.147z" transform="translate(-960 -1077) translate(961 1086) translate(15.359 33.282)"/>
                    <path fill="#E0E0E0" d="M4.75 5.793H61.865V60.624H4.75z" transform="translate(-960 -1077) translate(961 1086) translate(15.359 33.282)"/>
                    <path fill="#263238" d="M36.813 32.966c0 1.427.13 2.257.141 3.695-.043.358.07.718.31.987.254.173.584.189.852.04.261-.151.488-.355.666-.598 1.583-1.95 2.537-4.334 2.736-6.837.044-.213.001-.434-.119-.615-.225-.26-.643-.164-.953 0-1.544.693-2.82 1.872-3.633 3.356" transform="translate(-960 -1077) translate(961 1086) translate(15.359 33.282)"/>
                    <path fill="#FFBE9D" d="M27.224 15.908l.028 1.421.287 21.323c.056 1.222.598 2.371 1.507 3.19.908.82 2.107 1.241 3.328 1.17 2.68-.056 4.851-2.126 4.862-4.63 0-2.624.062-5.388.062-5.388s3.385-.564 4.085-4.97c.344-2.194.236-5.793.05-8.732-.079-1.268-.672-2.448-1.642-3.268-.97-.82-2.233-1.208-3.497-1.075l-9.07.959z" transform="translate(-960 -1077) translate(961 1086) translate(15.359 33.282)"/>
                    <path fill="#263238" d="M39.735 21.797c0 .311-.252.564-.564.564-.29.001-.535-.218-.564-.508 0-.311.253-.564.564-.564.291-.001.535.219.564.508zM40.655 21.16c-.073.078-.502-.243-1.128-.237-.626.005-1.055.304-1.129.23-.073-.072.034-.168.232-.31.263-.181.576-.277.897-.276.316-.002.624.097.88.282.208.147.282.282.248.31zM33.846 21.797c0 .311-.252.564-.564.564-.29.001-.535-.218-.564-.508 0-.311.253-.564.564-.564.29-.001.535.219.564.508z" transform="translate(-960 -1077) translate(961 1086) translate(15.359 33.282)"/>
                    <path fill="#263238" d="M34.67 21.278c-.074.073-.502-.248-1.128-.243-.627.006-1.055.305-1.129.232-.073-.074.034-.17.232-.31.263-.182.576-.279.897-.277.316 0 .625.1.88.288.214.14.282.276.248.31zM36.875 25.79c.323-.1.656-.16.993-.18.153 0 .3-.045.327-.152.012-.159-.023-.318-.101-.457-.147-.378-.3-.773-.463-1.185-.425-1.003-.77-2.039-1.032-3.097.508.966.936 1.972 1.28 3.007l.44 1.19c.096.188.124.404.08.61-.042.112-.137.197-.254.225-.087.026-.176.039-.266.04-.333.042-.67.042-1.004 0z" transform="translate(-960 -1077) translate(961 1086) translate(15.359 33.282)"/>
                    <path fill="#EB996E" d="M37.298 32.994c-2.076.032-4.12-.512-5.906-1.573 0 0 1.433 3.029 5.844 2.617l.062-1.044zM36.622 27.257c-.24-.292-.611-.444-.988-.406-.27.026-.518.16-.688.373-.17.204-.19.495-.05.722.2.226.517.306.8.203.288-.102.552-.26.779-.463.066-.051.125-.112.175-.18.045-.069.045-.158 0-.226" transform="translate(-960 -1077) translate(961 1086) translate(15.359 33.282)"/>
                    <path fill="#263238" d="M35.087 26.214c.096 0 .102.654.666 1.128.564.474 1.27.395 1.275.49.005.097-.158.125-.457.136-.387.006-.763-.126-1.06-.372-.29-.234-.477-.572-.52-.942-.017-.282.051-.446.096-.44zM33.846 15.541c.468.137.869.44 1.128.852.253.406.536.793.847 1.156.785.776 1.98.958 2.961.452.355.344.824.71 1.297.564.274-.11.47-.353.52-.643.043-.289 0-.583-.125-.847-.462-1.077-1.652-1.652-2.82-1.878-1.405-.271-2.857-.158-4.203.327M23.196 60.805c.209.366-1.354-4.902-1.354-4.902l-1.309 4.811-9.714.074s5.49-17.944 8.095-20.449c3.385-3.272 9.782-3.447 9.782-3.447l9.855.158h.22c4.02.497 7.523 2.976 9.33 6.6l6.538 16.952h-8.636l-1.84-5.004.615 5.004" transform="translate(-960 -1077) translate(961 1086) translate(15.359 33.282)"/>
                    <path fill="#EA0028" d="M43.002 36.47c-.3-.712-1.383-.683-1.856-1.287-.474-.604-.062-1.602.327-2.352 1.867-3.6 1.692-7.898 1.337-11.925-.147-1.732-.322-3.498-1.072-5.077-1.495-3.125-5.11-5.596-9.59-5.393-3.66.14-6.447 3.44-8.427 6.527-1.98 3.085-3.035 7.897-2.387 11.524.328 1.805 2.257 3.199 1.918 4.998-.225 1.128-1.41 2.493-1.179 3.627.316 1.546 2.561 2.082 3.876 2.962 1.308.963 2.532 2.035 3.66 3.204 1.138 1.168 2.508 2.083 4.023 2.685 1.54.52 3.384.423 4.625-.61 2.048-1.691 1.85-5.037 3.712-6.92.542-.56 1.343-1.202 1.033-1.964zm-2.889-19.507c.75 1.128.813 2.589.988 3.948.364 2.272.39 4.586.078 6.865-.32 2.293-1.37 4.421-2.995 6.07-1.662 1.648-4.032 2.366-6.33 1.918-2.51-.564-3.316-2.82-4.027-5.274-.71-2.454.875-4.739 1.58-7.215.564-1.912.75-4.609 1.985-6.166 1.236-1.557 3.283-1.664 3.887-1.636 0-.005 3.328-.778 4.834 1.49z" transform="translate(-960 -1077) translate(961 1086) translate(15.359 33.282)"/>
                    <g fill="#000" opacity=".3">
                        <path d="M.299 2.584c1.49.806 2.657 2.087 3.87 3.271C5.382 7.04 6.729 8.191 8.37 8.614c1.642.423 3.639-.08 4.457-1.563C7.99 7.754 3.31 5.021 1.546.463" transform="translate(-960 -1077) translate(961 1086) translate(15.359 33.282) translate(22 32.718)"/>
                    </g>
                    <g fill="#000" opacity=".3">
                        <path d="M3.672.4c-.314 1.187-1.115 2.185-2.205 2.748-.256.104-.495.245-.711.417-.218.18-.306.475-.22.745.164.275.498.397.8.293.29-.113.55-.293.757-.525.812-.784 1.658-1.635 1.89-2.741" transform="translate(-960 -1077) translate(961 1086) translate(15.359 33.282) translate(37.23 33.846)"/>
                    </g>
                </g>
                <g transform="translate(-960 -1077) translate(961 1086) translate(1.256 82.359)">
                    <circle cx="253.429" cy="9.953" r="8.264" fill="#E0E0E0" transform="rotate(-76.63 253.429 9.953)"/>
                    <path fill="#263238" d="M252.154 13.465c.35-.396.736-.757 1.156-1.077.745-.632 1.783-1.495 2.945-2.437v.225l-.057-.05c-1.128-.993-2.166-1.901-2.899-2.573-.41-.34-.788-.718-1.128-1.128.452.286.879.61 1.275.97.767.632 1.81 1.518 2.956 2.51l.056.046.135.118-.14.107c-1.157.942-2.218 1.783-2.99 2.375-.41.341-.848.647-1.31.914z"/>
                    <circle cx="10.173" cy="10.271" r="8.238" fill="#E0E0E0" transform="rotate(-76.661 10.173 10.27)"/>
                    <path fill="#263238" d="M11.846 6.425c-.355.39-.744.75-1.162 1.072-.745.637-1.777 1.5-2.939 2.442v-.225l.062.05c1.128.993 2.166 1.902 2.894 2.573.41.34.789.717 1.128 1.128-.455-.286-.884-.612-1.28-.976-.767-.626-1.811-1.512-2.95-2.504l-.063-.051-.13-.113.136-.113c1.162-.936 2.223-1.777 2.995-2.369.406-.347.844-.653 1.31-.914z"/>
                </g>
                <g fill="#455A64">
                    <path d="M34.156 7.474C11.51 19.507-1.66 43.995.786 69.524c2.448 25.527 20.03 47.068 44.55 54.579 19.788 6.052 41.283 2.061 57.579-10.69l53.437 66.846 8.174-6.515-53.889-67.41c6.388-6.946 11.138-15.234 13.9-24.257.672-2.191 1.225-4.417 1.658-6.668 4.594-23.975-4.982-48.458-24.623-62.955C81.932-2.043 55.714-3.98 34.156 7.474zm45.247 5.376c24.156 7.394 39.726 30.822 37.186 55.957-2.54 25.134-22.48 44.975-47.627 47.387-25.147 2.413-48.497-13.275-55.768-37.468-7.272-24.194 3.56-50.155 25.87-62.006 12.39-6.625 26.916-8.019 40.34-3.87z" transform="translate(-960 -1077) translate(961 1086) translate(67.82 3.949)"/>
                </g>
            </g>
        </g>
    </g>
</svg>
