<svg xmlns="http://www.w3.org/2000/svg" width="290" height="241" viewBox="0 0 290 241">
    <g fill="none" fill-rule="evenodd">
        <g>
            <path fill="#FFF" d="M0 0H1440V6049H0z" transform="translate(-520 -1077)"/>
            <g fill-rule="nonzero">
                <g fill="#E0E0E0">
                    <path d="M0.118 -0.002H2.7319999999999998V0.998H0.118z" transform="translate(-520 -1077) translate(520 1092) translate(113.99 2.14)"/>
                </g>
                <g>
                    <path fill="#FFBE9D" d="M58.917 65.121l-2.788-.578c-2.489-.746-3.897-1.067-4.475-1.883-.767-1.094.697-1.721.697-1.721s-1.715-.997-1.318-2.092c.2-.445.665-.71 1.15-.655 0 0-1.491-.955-1.68-1.694-.258-1.004.983-1.268.983-1.268-1.938-1.799-1.47-3.11-.934-3.137.537-.028 2.091 1.094 2.091 1.094 1.395.697 5.103 2.698 4.064.216-1.038-2.481-.906-4.775-.439-5.374.253-.262.646-.332.974-.174.328.159.517.51.47.87.061.907.246 1.8.55 2.657.22.695.557 1.348.997 1.93.516.698.976 1.234 1.394 1.695l2.014 2.885-3.75 7.23z" transform="translate(-520 -1077) translate(520 1092) translate(133.16 .674)"/>
                    <path fill="#EA0028" d="M48.182 209.633l2.398-5.061 9.508 4.433-3.43 7.438-.606-.237c-2.69-1.08-13.607-5.667-15.113-7.02-1.68-1.505 7.243.447 7.243.447z" transform="translate(-520 -1077) translate(520 1092) translate(133.16 .674)"/>
                    <g fill="#FFF" opacity=".3">
                        <path d="M.265 2.147C.78 1.412 1.55.893 2.425.69c.862-.214 1.771-.092 2.545.342L3.73 3.688.264 2.147z" transform="translate(-520 -1077) translate(520 1092) translate(133.16 .674) translate(52.978 212.61)"/>
                    </g>
                    <g fill="#FFF" opacity=".3">
                        <path d="M3.325.39S.12-.112.251.523c.132.634 10.993 5.681 15.977 7.493l.084-.223L3.597 2.008S3.869.698 3.325.39z" transform="translate(-520 -1077) translate(520 1092) translate(133.16 .674) translate(40.43 208.427)"/>
                    </g>
                    <path fill="#263238" d="M56.889 216.283l-.168-.056-.48-.188-1.764-.732c-1.485-.627-3.527-1.52-5.751-2.558-2.224-1.039-4.231-2.015-5.667-2.747l-1.694-.878-.453-.244-.16-.09c.058.014.115.038.167.069l.467.223 1.714.843c1.443.698 3.451 1.673 5.675 2.712 2.223 1.039 4.259 1.938 5.737 2.586l1.742.767.474.21.16.083z" transform="translate(-520 -1077) translate(520 1092) translate(133.16 .674)"/>
                    <path fill="#263238" d="M43.965 210.58c.053-.32.072-.644.056-.968-.058-.323-.151-.639-.28-.941.457.532.545 1.287.224 1.91zM47.401 210.47c-.08-.159-.126-.332-.132-.51-.042-.17-.042-.346 0-.515 0 0 .09.216.125.501.046.171.048.351.007.523zM48.391 210.42c-.035 0-.14-.16-.237-.383-.097-.223-.146-.411-.111-.425.035-.014.14.153.23.376.076.132.117.28.118.432zM49.29 209.744c0 .035-.243-.042-.522-.167-.176-.059-.338-.154-.474-.279 0-.035.25.042.522.167.176.059.338.154.474.28zM49.758 209.194c-.217.032-.438-.002-.635-.098-.207-.058-.392-.177-.53-.342.2.056.394.13.579.223.201.056.397.128.586.217z" transform="translate(-520 -1077) translate(520 1092) translate(133.16 .674)"/>
                    <path fill="#263238" d="M47.492 209.486c-.217-.06-.422-.157-.606-.285-.21-.13-.406-.279-.586-.447-.11-.098-.208-.207-.293-.327-.053-.075-.075-.167-.062-.258.018-.103.099-.184.202-.202.372-.004.727.159.968.443.241.284.344.66.28 1.028-.009.061-.03.12-.063.174.023-.22.01-.44-.035-.655-.065-.223-.19-.423-.363-.579-.201-.195-.472-.3-.752-.293-.133 0-.147.16-.07.279.081.112.175.215.279.307.172.164.356.316.55.453.328.237.558.341.551.362z" transform="translate(-520 -1077) translate(520 1092) translate(133.16 .674)"/>
                    <path fill="#263238" d="M47.318 209.445c-.012-.165.035-.328.132-.46.094-.15.22-.276.37-.37.193-.132.439-.158.655-.07.114.09.138.251.056.37-.059.09-.137.167-.23.223-.142.1-.297.179-.46.237-.147.065-.307.094-.467.083 0 0 .174-.055.432-.167.151-.065.294-.15.425-.25.146-.091.314-.294.174-.391-.14-.098-.376 0-.523.07-.14.078-.264.185-.362.313-.075.133-.143.27-.202.412zM57.906 213.592s-.258-.153-.697-.3c-.59-.194-1.221-.223-1.826-.083-.601.155-1.15.468-1.59.906-.334.342-.473.606-.494.6.017-.071.047-.137.09-.196.096-.168.21-.325.342-.467.433-.476.999-.814 1.624-.969.626-.147 1.282-.103 1.882.126.18.065.353.15.516.25.105.077.16.126.153.133zM58.764 209.18c-.232.678-.507 1.342-.823 1.986-.278.666-.595 1.316-.948 1.945.24-.68.517-1.345.83-1.994.277-.663.59-1.31.94-1.937zM52.476 213.306c-.502-.111-.988-.282-1.45-.509-.475-.197-.925-.453-1.338-.76 0-.034.62.293 1.394.642.774.348 1.408.565 1.394.627z" transform="translate(-520 -1077) translate(520 1092) translate(133.16 .674)"/>
                    <path fill="#263238" d="M54.372 214.143s-.111.104-.244.216c-.132.111-.223.223-.25.209-.029-.014 0-.174.167-.307.167-.132.327-.153.327-.118zM55.453 213.592s-.098.105-.237.16c-.14.056-.272.07-.286.035-.014-.035.097-.104.237-.153.14-.049.272-.077.286-.042zM56.645 213.662s-.147-.035-.314-.049c-.167-.014-.293 0-.307 0-.014 0 .126-.125.32-.105.196.021.322.126.3.154zM57.446 213.808s-.076.056-.174.049c-.098-.007-.167-.042-.16-.077.007-.035.076-.055.174-.048.098.007.16.041.16.076z" transform="translate(-520 -1077) translate(520 1092) translate(133.16 .674)"/>
                    <path fill="#EA0028" d="M128.381 212.4l-2.37-5.075 9.473-4.475 3.549 7.382-.572.32c-2.544 1.395-13.035 6.867-15.036 7.167-2.23.314 4.956-5.319 4.956-5.319z" transform="translate(-520 -1077) translate(520 1092) translate(133.16 .674)"/>
                    <g fill="#FFF" opacity=".3">
                        <path d="M.328 4.733c-.244-.865-.154-1.79.25-2.593C.967 1.346 1.639.727 2.462.404l1.261 2.642L.328 4.733z" transform="translate(-520 -1077) translate(520 1092) translate(133.16 .674) translate(135.233 207.033)"/>
                    </g>
                    <g fill="#FFF" opacity=".3">
                        <path d="M2.252 5.472S-.181 7.626.39 7.926c.572.3 11.384-4.88 15.957-7.536l-.119-.202L3.681 6.295s-.893-1.06-1.43-.823z" transform="translate(-520 -1077) translate(520 1092) translate(133.16 .674) translate(122.686 209.82)"/>
                    </g>
                    <path fill="#263238" d="M139.06 209.932l-.153.091-.453.251-1.687.892c-1.429.746-3.416 1.75-5.64 2.789-2.223 1.038-4.245 1.965-5.722 2.607l-1.757.753-.481.195-.167.055.16-.083.467-.216 1.743-.781c1.464-.662 3.485-1.59 5.709-2.649 2.224-1.06 4.182-2.042 5.646-2.788l1.701-.858.467-.23c.055-.015.11-.025.167-.028z" transform="translate(-520 -1077) translate(520 1092) translate(133.16 .674)"/>
                    <path fill="#263238" d="M126.43 216.262c-.207-.257-.44-.491-.698-.697-.285-.16-.586-.289-.899-.384.703-.01 1.342.406 1.617 1.053l-.02.028zM128.548 213.515s-.23-.07-.474-.223c-.244-.153-.425-.3-.404-.327.021-.028.23.07.474.223.244.153.418.3.404.327zM129.12 212.742c0 .035-.21 0-.44-.063s-.41-.153-.403-.188c.15-.013.3.01.439.07.244.048.411.146.404.18zM129.183 211.62c0 .034-.195.167-.467.3-.272.132-.502.215-.523.18.133-.132.292-.234.467-.3.3-.132.502-.215.523-.18zM129.043 210.908s-.16.251-.474.426c-.18.12-.39.188-.606.195.363-.202.723-.408 1.08-.62z" transform="translate(-520 -1077) translate(520 1092) translate(133.16 .674)"/>
                    <path fill="#263238" d="M127.83 212.84c-.182.131-.388.228-.606.285-.226.079-.46.135-.697.167-.148.018-.298.018-.446 0-.092-.005-.178-.048-.237-.118-.056-.087-.056-.199 0-.286.37-.463 1.014-.6 1.54-.328.15.078.282.185.39.314.042.044.073.096.091.153-.15-.156-.328-.286-.523-.383-.217-.1-.46-.132-.697-.09-.275.03-.526.171-.697.39-.062.118 0 .216.168.23.136.014.274.014.41 0 .237-.025.47-.069.698-.133.342-.111.6-.216.606-.202z" transform="translate(-520 -1077) translate(520 1092) translate(133.16 .674)"/>
                    <path fill="#263238" d="M127.691 212.944s-.174-.098-.272-.39c-.057-.169-.074-.348-.049-.523.021-.233.157-.44.363-.551.142-.031.283.055.32.195.024.106.024.215 0 .32-.016.173-.056.342-.118.503-.098.279-.216.425-.23.411-.014-.014.07-.167.146-.44.046-.156.074-.317.084-.48 0-.174-.035-.432-.195-.384-.16.05-.244.286-.279.447-.036.158-.036.322 0 .48.06.146.137.285.23.412zM137.631 207.43s-.278.105-.697.362c-.52.322-.941.783-1.213 1.332-.267.56-.376 1.181-.313 1.798.048.481.16.76.14.767-.041-.06-.072-.126-.092-.195-.067-.18-.114-.367-.139-.558-.091-.637.008-1.287.286-1.868.28-.586.733-1.072 1.296-1.394.168-.099.345-.178.53-.237.067-.013.135-.016.202-.007z" transform="translate(-520 -1077) translate(520 1092) translate(133.16 .674)"/>
                    <path fill="#263238" d="M134.78 203.958c.37.616.705 1.251 1.004 1.904.336.637.634 1.293.892 1.965-.37-.617-.705-1.255-1.003-1.91-.34-.633-.638-1.287-.893-1.959zM133.93 211.41c-.403.321-.846.588-1.318.795-.452.246-.935.431-1.436.55 0 0 .62-.292 1.395-.662.773-.369 1.338-.71 1.359-.683zM135.784 210.518v.328c0 .167.035.313 0 .327-.035.014-.125-.125-.125-.32 0-.196.09-.335.125-.335zM136.07 209.326c.035 0 0 .14-.035.286-.035.146-.118.25-.146.244-.028-.007 0-.14 0-.286 0-.146.146-.258.18-.244zM136.879 208.427c0 .035-.119.097-.23.209-.112.111-.182.237-.217.23-.034-.007 0-.181.126-.32.125-.14.32-.12.32-.12zM137.506 207.925s0 .097-.07.167-.14.098-.167.077c-.028-.021 0-.098.07-.167.07-.07.139-.105.167-.077z" transform="translate(-520 -1077) translate(520 1092) translate(133.16 .674)"/>
                    <path fill="#263238" d="M139.458 205.346l-15.336 7.13-27.576-49.095c-3.59-12.951-7.055-58.554-7.055-58.554l19.95 1.52s3.075 32.762 7.891 49.604l22.126 49.395z" transform="translate(-520 -1077) translate(520 1092) translate(133.16 .674)"/>
                    <path fill="#455A64" d="M121.668 207.674s.195-.146.579-.349c.383-.202.948-.488 1.645-.83 1.394-.696 3.339-1.61 5.493-2.613 2.154-1.004 4.106-1.89 5.528-2.51.697-.313 1.296-.564 1.694-.697.202-.103.418-.178.641-.223-.175.143-.37.26-.579.349-.39.202-.948.488-1.645.83-1.394.696-3.339 1.61-5.486 2.613-2.147 1.004-4.106 1.882-5.535 2.51-.697.313-1.29.564-1.693.697-.203.104-.419.18-.642.223z" transform="translate(-520 -1077) translate(520 1092) translate(133.16 .674)"/>
                    <path fill="#263238" d="M118.504 86.473c.376 0 4.454 12.08.53 20.09-.398.801-3.486 5.214-3.486 5.214-10.86 12.812-21.86 37.642-24.928 44.188-6.273 13.39-29.528 57.439-29.528 57.439l-14.917-8.54 21.811-56.08 19.797-50.607 30.72-11.704z" transform="translate(-520 -1077) translate(520 1092) translate(133.16 .674)"/>
                    <path fill="#455A64" d="M91.61 138.287s-1.052 5.095-1.596 4.803c-1.555-.844-12.24-4.824-12.24-4.824l2.885-3.2 10.951 3.22z" transform="translate(-520 -1077) translate(520 1092) translate(133.16 .674)"/>
                    <path fill="#455A64" d="M88.46 142.246s-2.001 8.219-4.573 7.772c-2.573-.446-7.947-3.15-7.947-3.15l3.241-8.107 9.278 3.485z" transform="translate(-520 -1077) translate(520 1092) translate(133.16 .674)"/>
                    <path fill="#263238" d="M90.014 143.09L78.087 138.321 78.658 140.071 88.104 143.529z" transform="translate(-520 -1077) translate(520 1092) translate(133.16 .674)"/>
                    <path fill="#455A64" d="M110.717 118.225c-.05.11-.116.214-.195.306l-.613.83c-.53.697-1.283 1.784-2.154 3.13-1.75 2.69-3.953 6.538-6.204 10.888-2.252 4.35-4.183 8.365-5.542 11.251l-1.638 3.437-.453.927c-.048.111-.11.216-.182.313.023-.118.06-.233.112-.341l.397-.955c.349-.83.871-2.022 1.527-3.486 1.324-2.927 3.192-6.97 5.458-11.313 1.887-3.735 3.981-7.36 6.274-10.86.906-1.332 1.687-2.378 2.258-3.075.265-.32.488-.578.697-.787.075-.1.161-.188.258-.265zM47.31 202.25c.043-.083 3.563 1.59 7.864 3.744 4.3 2.154 7.744 3.98 7.668 4.07-.077.092-3.562-1.588-7.863-3.742s-7.71-3.98-7.668-4.071z" transform="translate(-520 -1077) translate(520 1092) translate(133.16 .674)"/>
                    <path fill="#263238" d="M65.038 57.6c-.81 1.826-1.727 3.602-2.747 5.318-.914 1.777-1.938 3.496-3.067 5.145.81-1.828 1.727-3.606 2.746-5.326.92-1.772 1.944-3.487 3.068-5.137z" transform="translate(-520 -1077) translate(520 1092) translate(133.16 .674)"/>
                    <path fill="#455A64" d="M93.22 36.388c.816 0 1.785 5.925 2.608 16.57.934 12.073.85 24.257-2.49 31.918-.622 1.652-1.876 2.99-3.484 3.716-8.644 3.569-32.491-22-32.491-22l5.87-10.296 16.792 13.558s1.673-13.718 1.352-20.04c-.258-4.797 4.531-13.37 11.843-13.426z" transform="translate(-520 -1077) translate(520 1092) translate(133.16 .674)"/>
                    <path fill="#455A64" d="M100.651 36.506s14.583 2.133 18.354 7.863c3.772 5.73 1.862 56.268 1.862 56.268l-37.49 2.217s3.026-64.326 4.88-65.058c4.657-1.827 11.837-1.471 12.394-1.29z" transform="translate(-520 -1077) translate(520 1092) translate(133.16 .674)"/>
                    <path fill="#EA0028" d="M40.633 23.199c-.11-1.534.176-3.07.83-4.462.289-.595.44-1.248.445-1.91v-1.693H20.055c-1.852 0-3.353 1.5-3.353 3.353v21.762h-1.478c-.683-.006-1.355-.168-1.966-.474-3.774-1.817-8.303-.81-10.952 2.435-2.649 3.246-2.727 7.885-.19 11.219 2.538 3.333 7.03 4.493 10.864 2.804.576-.262 1.2-.4 1.833-.404h1.917v21.22c-.002.89.35 1.744.98 2.375.628.63 1.482.984 2.373.984h59.036c1.509 0 2.732-1.223 2.732-2.732v-59.81c.002-.725-.285-1.421-.798-1.934-.513-.513-1.21-.8-1.934-.798H57.788v2.418c-.002.56.107 1.115.32 1.632 1.365 3.323.637 7.138-1.854 9.726-2.491 2.588-6.276 3.46-9.649 2.223-3.372-1.237-5.696-4.35-5.923-7.934h-.05z" transform="translate(-520 -1077) translate(520 1092) translate(133.16 .674)"/>
                    <path fill="#263238" d="M85.922 47.255c.022.138.033.278.035.418v1.206c0 1.095 0 2.6.056 4.434 0 3.743.062 8.915-.056 14.638-.119 5.723-.432 10.889-.816 14.639-.195 1.868-.383 3.367-.536 4.406-.077.487-.14.878-.196 1.192-.01.14-.04.279-.09.41-.01-.138-.01-.278 0-.417.035-.314.07-.698.125-1.2.105-1.045.258-2.55.418-4.412.321-3.73.607-8.888.698-14.597.09-5.709.111-10.874.16-14.638 0-1.834.049-3.34.063-4.434 0-.488 0-.892.034-1.206.015-.15.05-.298.105-.439zM108.222 12.68c-.6 3.806-.565 7.145 1.296 9.627.404.477.777.98 1.115 1.505.34.535.443 1.185.286 1.799-.175.548-.634.958-1.198 1.072-.564.114-1.145-.085-1.52-.522.123.881-.298 1.749-1.067 2.196-.39.18-.84.17-1.22-.027-.381-.196-.65-.556-.732-.977 0 0 .495 1.931-1.721 1.632l1.561-13.245 3.2-3.06z" transform="translate(-520 -1077) translate(520 1092) translate(133.16 .674)"/>
                    <path fill="#FFBE9D" d="M98.288 41.957c-1.749 0-3.415-.742-4.585-2.043-1.17-1.3-1.733-3.035-1.55-4.774.203-1.98.384-3.59.384-3.59s-4.88-.76-4.942-5.64c-.063-4.88.788-16.081.788-16.081 5.648-2.425 12.166-1.603 17.036 2.147l.697.55-1.693 23.701c-.23 3.221-2.905 5.72-6.135 5.73z" transform="translate(-520 -1077) translate(520 1092) translate(133.16 .674)"/>
                    <path fill="#263238" d="M89.637 18.64c.28-.26.299-.699.04-.981-.258-.282-.696-.304-.98-.048-.285.256-.31.693-.056.98.124.14.3.225.488.235.187.009.37-.058.508-.186zM88.285 17.1c.077.083.558-.286 1.227-.286.67 0 1.164.341 1.234.257.07-.083-.035-.188-.251-.355-.286-.207-.63-.314-.983-.307-.353 0-.698.112-.983.32-.209.182-.279.336-.244.37zM96.03 18.124c-.162.096-.278.252-.323.435-.045.182-.014.375.086.534.095.164.253.281.437.326.184.045.379.013.539-.089.162-.097.278-.255.322-.44.043-.183.01-.377-.092-.536-.097-.16-.254-.275-.437-.319-.182-.043-.374-.01-.532.09zM95.584 17.692c.076.084.557-.286 1.226-.286.67 0 1.165.342 1.234.258.07-.084-.042-.188-.25-.356-.288-.207-.636-.315-.99-.306-.354 0-.697.118-.976.334-.21.168-.28.321-.244.356zM92.893 23.234c-.348-.133-.715-.21-1.088-.23-.174 0-.313-.056-.327-.154-.008-.176.036-.35.125-.502l.53-1.394c.506-1.154.892-2.357 1.15-3.59-.617 1.109-1.122 2.276-1.506 3.486-.174.474-.341.927-.501 1.394-.117.225-.152.484-.098.732.05.135.161.239.3.279.098.025.198.039.3.041.372.044.75.022 1.115-.062z" transform="translate(-520 -1077) translate(520 1092) translate(133.16 .674)"/>
                    <path fill="#FFF" d="M95.075 23.98c.697-.419-1.931 1.024-3.298.955.469.726 1.377 1.032 2.19.738 1.463-.536 1.108-1.693 1.108-1.693z" transform="translate(-520 -1077) translate(520 1092) translate(133.16 .674)"/>
                    <path fill="#EB996E" d="M92.495 31.48c2.253.042 4.466-.59 6.358-1.812 0 0-1.506 3.485-6.371 3.074l.013-1.262z" transform="translate(-520 -1077) translate(520 1092) translate(133.16 .674)"/>
                    <path fill="#FFBE9D" d="M106.116 17.253c.105-.035 3.64-.28 3.054 3.834-.586 4.112-4.545 2.16-4.538 2.042.007-.118 1.484-5.876 1.484-5.876z" transform="translate(-520 -1077) translate(520 1092) translate(133.16 .674)"/>
                    <path fill="#EB996E" d="M106.095 21.867s.063.063.182.133c.157.1.348.132.53.09.59-.267.99-.832 1.045-1.477.066-.35.049-.71-.049-1.053-.042-.272-.213-.506-.46-.627-.164-.073-.357-.013-.453.14-.07.104-.056.187-.083.194-.028.007-.077-.083 0-.244.035-.101.107-.186.202-.237.124-.073.273-.09.41-.049.333.132.572.428.628.781.127.38.156.785.084 1.178-.063.756-.574 1.4-1.297 1.631-.233.032-.468-.042-.64-.202-.105-.16-.112-.25-.099-.258z" transform="translate(-520 -1077) translate(520 1092) translate(133.16 .674)"/>
                    <path fill="#263238" d="M87.072 9.362c.15-.862.962-1.445 1.827-1.31-.77-.067-1.415-.607-1.615-1.353-.2-.745.089-1.536.722-1.978.633-.441 1.475-.44 2.105.005-.55-.516-.986-1.14-1.282-1.833-.307-.727-.116-1.568.474-2.091.647-.374 1.444-.374 2.091 0 1.004.509 1.764 1.429 2.788 1.86 1.025.433 2.231.328 3.367.447 1.263.103 2.462.603 3.423 1.429.972.835 1.49 2.082 1.394 3.36 1.54-.09 3.228 0 4.42.955-.184-1.264.327-2.53 1.338-3.311 1.287-.896 2.947-1.06 4.385-.432.678.23 1.227.737 1.512 1.394.314.94-.279 1.952-1.024 2.607-1.416 1.2-3.317 1.659-5.124 1.234.283.727.402 1.508.349 2.286-.077 1.345-1.158 2.74-1.632 4.001l-.104.83-.809 3.45-2.16-.174.592-7.25s.404-3.046-2.245-2.941c-2.649.104-6.406 2.858-11.48 1.791-.833-.099-1.633-.382-2.343-.83-.68-.492-1.05-1.31-.969-2.146z" transform="translate(-520 -1077) translate(520 1092) translate(133.16 .674)"/>
                    <path fill="#263238" d="M115.492 12.547c-.408.313-.887.519-1.394.6-2.54.577-5.136-.698-6.232-3.06-.25-.453-.381-.961-.383-1.478.062 0 .174.565.613 1.394 1.153 2.15 3.548 3.324 5.953 2.92.892-.18 1.415-.445 1.443-.376z" transform="translate(-520 -1077) translate(520 1092) translate(133.16 .674)"/>
                    <path fill="#263238" d="M110.313 16.563c-.056 0 0-.433-.126-1.074-.198-.838-.54-1.635-1.01-2.356-.493-.736-.935-1.505-1.325-2.3-.181-.33-.277-.698-.279-1.074.195.307.365.628.51.962.313.586.85 1.338 1.393 2.224.5.754.828 1.608.962 2.502.082.376.037.768-.125 1.116z" transform="translate(-520 -1077) translate(520 1092) translate(133.16 .674)"/>
                    <path fill="#FFBE9D" d="M74.197 56.882c-2.426-1.476-4.77-3.084-7.02-4.817-2.697-2.28-2.502-2.53-2.188-2.788.836-.746 4.88 3.833 4.58 2.328-.3-1.506-5.577-5.005-4.685-5.744 1.185-.97 5.34 3.904 5.723 4.287.384.383.941-.167.579-.495-.523-.474-5.877-5.577-4.726-6.539.64-.536 1.463.732 1.463.732s4.67 5.166 5.2 4.692c.53-.474-2.09-3.604-3.067-4.594-.975-.99-.885-1.833-.111-1.91.523-.049 3.541 2.907 4.475 3.904.934.996 3.43 3.792 3.29 1.394-.139-2.398.628-4.308 1.185-4.678.558-.37 1.262.3.997.997-.212.786-.316 1.598-.306 2.412-.02.654.069 1.307.264 1.93.168.538.335 1.012.495 1.43l1.639 4.51-4.113 5.207-3.674-2.258z" transform="translate(-520 -1077) translate(520 1092) translate(133.16 .674)"/>
                    <path fill="#455A64" d="M114.774 41.379c.865.216 6.009 2.879 6.093 14.54.062 9.272-.649 29.85-6.971 32.91-2.865 1.394-7.215 1.394-10.993-1.08-10.652-6.88-29.514-29.062-29.514-29.062l8.441-8.992S103.746 72 104.68 71.179c1.395-1.241-.745-11.892.454-22.418.822-7.487 4.307-8.714 9.64-7.382z" transform="translate(-520 -1077) translate(520 1092) translate(133.16 .674)"/>
                    <path fill="#263238" d="M81.816 50.015c-.042.058-.091.11-.146.154l-.453.446c-.398.383-.983.955-1.722 1.722-2.104 2.172-4.038 4.503-5.786 6.97v-.16c5.953 6.072 14.639 14.904 24.28 24.726 2.277 2.165 5.055 3.734 8.086 4.565 1.427.398 2.927.464 4.384.196 1.386-.307 2.673-.956 3.744-1.89 1.953-1.788 3.382-4.075 4.133-6.615.667-2.214 1.115-4.488 1.339-6.79.564-4.182.864-7.667.996-10.016.07-1.185.105-2.092.133-2.733v-.697c-.01-.079-.01-.158 0-.237.01.081.01.163 0 .244v.697c0 .627 0 1.548-.063 2.74-.09 2.377-.348 5.82-.885 10.045-.208 2.32-.645 4.616-1.304 6.852-.753 2.596-2.199 4.938-4.182 6.775-1.11.975-2.448 1.653-3.89 1.973-1.508.28-3.06.213-4.538-.195-3.093-.839-5.93-2.434-8.253-4.643-9.676-9.835-18.292-18.73-24.203-24.816l-.077-.076.063-.084c1.773-2.461 3.74-4.776 5.884-6.922.76-.746 1.394-1.303 1.777-1.68l.474-.411.21-.14z" transform="translate(-520 -1077) translate(520 1092) translate(133.16 .674)"/>
                    <path fill="#263238" d="M81.823 49.695s.049 0 .119.097l.327.328 1.248 1.262c1.08 1.101 2.663 2.677 4.65 4.607 1.986 1.931 4.384 4.232 7.089 6.755l4.266 3.953c1.499 1.352 3.046 2.788 4.705 4.14l-.285.14c.048-.823.097-1.694.146-2.573.279-4.607.537-8.999.774-12.993.146-1.994.18-3.897.397-5.674.16-1.662.619-3.282 1.352-4.782.608-1.247 1.531-2.314 2.677-3.095.876-.574 1.884-.917 2.928-.997.655-.055 1.315.026 1.938.237.218.064.427.158.62.279 0 0-.216-.091-.641-.21-.62-.176-1.269-.233-1.91-.167-1.011.105-1.98.457-2.823 1.025-1.097.784-1.98 1.832-2.566 3.046-.698 1.48-1.132 3.07-1.282 4.698-.195 1.757-.216 3.66-.356 5.654l-.746 12.993c-.048.879-.104 1.757-.146 2.573v.355l-.272-.216c-1.7-1.394-3.22-2.788-4.72-4.182-1.498-1.395-2.906-2.705-4.258-3.974-2.691-2.544-5.075-4.88-7.04-6.81-1.967-1.931-3.521-3.57-4.574-4.699-.536-.557-.927-1.003-1.199-1.31l-.3-.342c-.09-.076-.125-.118-.118-.118z" transform="translate(-520 -1077) translate(520 1092) translate(133.16 .674)"/>
                    <path fill="#263238" d="M77.11 62.41c.301-.535.66-1.035 1.067-1.492.698-.886 1.687-2.091 2.824-3.395 1.136-1.304 2.188-2.454 2.97-3.27.398-.465.845-.887 1.33-1.261-.333.514-.716.995-1.143 1.436l-2.886 3.332-2.9 3.325c-.377.48-.8.924-1.261 1.325zM106.13 76.212c-.43-.853-.785-1.741-1.06-2.656-.393-.87-.71-1.773-.947-2.698 1.033 1.626 1.717 3.45 2.007 5.354z" transform="translate(-520 -1077) translate(520 1092) translate(133.16 .674)"/>
                    <path fill="#263238" d="M108.047 74.727c-.82-.506-1.574-1.112-2.244-1.806-.75-.613-1.421-1.315-2-2.09 1.574 1.112 3 2.422 4.244 3.896z" transform="translate(-520 -1077) translate(520 1092) translate(133.16 .674)"/>
                </g>
                <g>
                    <path fill="#FFBE9D" d="M31.703 178.571L9.313 198.779 3.179 190.93 22.801 166.623z" transform="translate(-520 -1077) translate(520 1092) translate(.714 .674)"/>
                    <path fill="#EA0028" d="M9.829 199.539l.767-.697-7.069-8.679-3.185 2.789.425.543c1.903 2.42 9.856 12.164 11.683 13.294 2.035 1.254-2.621-7.25-2.621-7.25z" transform="translate(-520 -1077) translate(520 1092) translate(.714 .674)"/>
                    <g fill="#FFF" opacity=".5">
                        <path d="M3.081 5.618c.597-.743.895-1.683.837-2.634-.043-.942-.441-1.831-1.116-2.49L.467 2.587l2.614 3.032z" transform="translate(-520 -1077) translate(520 1092) translate(.714 .674) translate(0 190.303)"/>
                    </g>
                    <path fill="#FFF" d="M11.983 203.805s1.478 3.123.787 3.172c-.69.049-9.062-9.494-12.428-14.025l.202-.154 9.71 11.216s1.276-.676 1.729-.209z" opacity=".5" transform="translate(-520 -1077) translate(520 1092) translate(.714 .674)"/>
                    <path fill="#263238" d="M.432 192.666c.032.055.07.106.112.153l.334.44 1.276 1.575c1.08 1.324 2.607 3.13 4.329 5.088 1.722 1.96 3.325 3.702 4.503 4.95l1.394 1.464.384.39c.043.05.093.094.146.132l-.126-.153-.369-.404c-.37-.412-.83-.907-1.394-1.492-1.157-1.262-2.747-3.011-4.468-4.97-1.722-1.959-3.256-3.758-4.364-5.068l-1.304-1.548-.355-.418c-.028-.05-.06-.096-.098-.14z" transform="translate(-520 -1077) translate(520 1092) translate(.714 .674)"/>
                    <path fill="#263238" d="M10.122 204.126c.31-.158.637-.277.976-.356.345-.04.693-.04 1.038 0-.323-.177-.701-.226-1.06-.14-.368.043-.708.219-.954.496zM9.201 200.557c.181.043.37.043.551 0 .3-.042.537-.112.53-.154-.37-.03-.74.03-1.08.175v-.021zM8.964 199.567s.196.09.454.118c.257.028.467 0 .474 0 .007 0-.203-.09-.46-.118-.258-.028-.468-.042-.468 0zM9.376 198.445s.118.237.327.48c.21.245.405.426.433.398.027-.028-.119-.237-.335-.481-.216-.244-.397-.425-.425-.397zM9.8 197.803c.029.23.13.445.287.614.23.3.488.474.509.446.02-.028-.189-.237-.398-.53-.118-.187-.25-.364-.397-.53z" transform="translate(-520 -1077) translate(520 1092) translate(.714 .674)"/>
                    <path fill="#263238" d="M10.177 200.201c.128.204.291.383.481.53.193.175.403.329.628.46.13.09.274.16.425.21.09.034.189.034.279 0 .099-.054.157-.16.146-.273-.11-.38-.382-.692-.744-.85-.363-.16-.777-.15-1.131.028-.06.028-.115.068-.16.118.22-.097.456-.152.697-.16.246-.003.488.065.697.195.26.152.447.404.516.697 0 .14-.112.195-.251.154-.138-.052-.27-.115-.398-.189-.221-.126-.433-.268-.634-.425-.355-.307-.53-.516-.55-.495z" transform="translate(-520 -1077) translate(520 1092) translate(.714 .674)"/>
                    <path fill="#263238" d="M10.275 200.362c.17-.033.321-.127.425-.265.128-.141.219-.311.265-.495.09-.237.045-.504-.118-.697-.127-.09-.3-.065-.398.055-.073.088-.128.19-.16.3-.056.176-.089.36-.098.544-.026.166-.01.337.05.495.025-.162.039-.325.04-.488.028-.173.07-.343.126-.509.05-.174.21-.404.356-.293.105.166.135.369.084.558-.038.167-.112.324-.217.46-.108.121-.227.233-.355.335zM2.865 190.819s.237.216.523.634c.377.543.597 1.18.634 1.84.025.659-.13 1.311-.446 1.89-.25.438-.481.696-.46.696.02 0 .07-.041.167-.146.141-.148.265-.312.37-.488.36-.583.534-1.26.502-1.945-.04-.685-.282-1.343-.697-1.889-.122-.164-.263-.314-.419-.446-.097-.112-.167-.153-.174-.146zM4.81 196.263c.265.479.59.922.969 1.317.346.427.747.807 1.192 1.13 0 0-.488-.544-1.08-1.22-.593-.677-1.011-1.248-1.081-1.227z" transform="translate(-520 -1077) translate(520 1092) translate(.714 .674)"/>
                    <path fill="#263238" d="M3.38 194.618c-.041 0-.076.146-.153.306-.076.16-.16.3-.132.328.028.028.167-.077.258-.272.09-.195.063-.362.028-.362zM3.604 193.321c-.035 0-.077.126-.09.293-.015.167 0 .3.048.3.049 0 .077-.126.09-.293.015-.168-.013-.3-.048-.3zM3.179 192.129s.076.14.14.3c.062.16.076.307.118.313.041.007.09-.167 0-.362-.091-.195-.244-.286-.258-.251zM2.788 191.355v.189c0 .09.09.16.126.146.035-.014 0-.098 0-.195 0-.098-.09-.154-.126-.14z" transform="translate(-520 -1077) translate(520 1092) translate(.714 .674)"/>
                    <path fill="#FFBE9D" d="M71.527 178.362L74.225 208.887 62.688 208.887 57.6 178.362z" transform="translate(-520 -1077) translate(520 1092) translate(.714 .674)"/>
                    <path fill="#EA0028" d="M73.89 209.173v-1.025l-11.202-.049.133 4.231h.697c3.081.056 15.656.084 17.685-.613 2.189-.753-7.313-2.544-7.313-2.544z" transform="translate(-520 -1077) translate(520 1092) translate(.714 .674)"/>
                    <g fill="#FFF" opacity=".5">
                        <path d="M4.74 3.667c-.197-.934-.733-1.761-1.506-2.322C2.476.794 1.54.545.606.648l.112 3.116 4.022-.097z" transform="translate(-520 -1077) translate(520 1092) translate(.714 .674) translate(62.04 208.427)"/>
                    </g>
                    <path fill="#FFF" d="M78.526 210.211s3.346.837 2.956 1.394c-.39.558-13.105 1.011-18.73.698v-.251l14.833-.398s.293-1.387.941-1.443z" opacity=".5" transform="translate(-520 -1077) translate(520 1092) translate(.714 .674)"/>
                    <path fill="#263238" d="M62.584 212.08h2.767c1.715 0 4.078 0 6.685-.119 2.607-.119 4.97-.223 6.678-.342l2.022-.153.55-.056h.189H80.736l-2.029.112c-1.708.097-4.064.216-6.67.307-2.608.09-4.971.132-6.686.153H62.78l-.195.097z" transform="translate(-520 -1077) translate(520 1092) translate(.714 .674)"/>
                    <path fill="#263238" d="M77.592 211.856c.077-.339.191-.669.341-.982.201-.291.435-.558.698-.795-.345.135-.624.397-.781.732-.212.305-.304.677-.258 1.045zM74.246 210.302c.035 0 .188-.174.342-.44.153-.264.25-.487.216-.508-.142.123-.257.275-.335.446-.11.15-.186.32-.223.502zM73.333 209.863s.195-.098.383-.28c.188-.18.314-.348.286-.369-.028-.02-.195.091-.383.272-.189.182-.314.335-.286.377zM72.726 208.831c.187.061.385.078.579.049.198.016.398-.01.585-.077-.188-.064-.388-.083-.585-.056-.32.007-.579.042-.579.084zM72.496 208.092c.196.122.425.18.656.167.238.04.482 0 .697-.111-.218-.023-.438-.023-.656 0-.23-.039-.463-.057-.697-.056z" transform="translate(-520 -1077) translate(520 1092) translate(.714 .674)"/>
                    <path fill="#263238" d="M74.588 209.319c.23.04.466.04.697 0 .258-.042.513-.107.76-.195.148-.05.29-.115.425-.195.084-.053.146-.135.174-.23.017-.108-.029-.217-.119-.28-.572-.26-1.25-.076-1.61.44-.107.145-.18.311-.216.488-.017.062-.017.126 0 .188.07-.22.174-.43.307-.62.154-.192.36-.337.592-.419.275-.115.583-.115.858 0 .118.084.076.217-.05.3-.124.072-.254.132-.39.181-.237.093-.482.165-.731.217-.419.09-.697.104-.697.125z" transform="translate(-520 -1077) translate(520 1092) translate(.714 .674)"/>
                    <path fill="#263238" d="M74.783 209.347c.077-.153.1-.328.062-.495-.027-.187-.101-.365-.216-.516-.125-.216-.356-.35-.606-.348-.149.04-.24.19-.21.341.018.114.064.222.133.314.099.155.218.296.356.418.113.127.257.224.418.279 0 0-.146-.126-.356-.342-.115-.13-.22-.27-.313-.418-.105-.153-.181-.418 0-.46.181-.042.37.153.48.286.106.135.18.292.217.46.024.16.036.32.035.48zM62.737 209.026s.32-.042.823 0c.66.057 1.29.299 1.82.697.526.396.934.929 1.177 1.54.188.475.216.796.244.789.01-.074.01-.15 0-.223-.03-.202-.079-.4-.146-.593-.222-.649-.635-1.215-1.185-1.624-.554-.402-1.213-.633-1.896-.662-.204-.018-.41-.018-.614 0-.078.012-.153.038-.223.076zM68.146 210.971c.538.103 1.086.133 1.632.09.547.005 1.093-.06 1.624-.194 0-.042-.732.034-1.631.062-.9.028-1.625.007-1.625.042z" transform="translate(-520 -1077) translate(520 1092) translate(.714 .674)"/>
                    <path fill="#263238" d="M65.965 211.034s.062.153.146.314c.084.16.125.313.16.313s.056-.181-.041-.37c-.098-.187-.244-.285-.265-.257zM65.107 210.044s.049.14.168.25c.118.112.237.182.264.154.028-.028-.048-.14-.174-.25-.125-.112-.237-.182-.258-.154zM63.915 209.612c0 .042.154.035.32.083.168.05.287.14.315.112.027-.028-.07-.181-.28-.237-.208-.056-.369.014-.355.042zM63.065 209.424c0 .034.056.09.146.125s.181 0 .195 0c.014 0-.055-.09-.146-.125-.09-.035-.181-.035-.195 0zM51.25 88.773s9.026 59.949 7.716 62.87c-1.31 2.92-30.553 32.832-30.553 32.832l-10.986-18.793s19.35-21.435 19.072-22.544C36.22 142.03 22.557 83.95 22.557 83.95l28.692 4.824z" transform="translate(-520 -1077) translate(520 1092) translate(.714 .674)"/>
                    <path fill="#263238" d="M54.463 110.912c-.09-.641-7.375-17.015-7.375-17.015l3.534-4.991.627-.133 3.214 22.14z" transform="translate(-520 -1077) translate(520 1092) translate(.714 .674)"/>
                    <path fill="#263238" d="M17.427 83.127l-.55 2.223c-1.595 6.562-.597 13.487 2.788 19.33l24.453 42.404c1.738 3.004 3.002 6.258 3.75 9.647l6.1 27.437h20.076s-2.482-18.82-4.692-32.546C67.68 141.256 53.808 109.1 47.088 93.876l4.182-5.124-7.229-1.206-26.614-4.42z" transform="translate(-520 -1077) translate(520 1092) translate(.714 .674)"/>
                    <path fill="#455A64" d="M47.617 93.778c.28.917.623 1.814 1.025 2.684.697 1.638 1.59 3.904 2.565 6.42.976 2.516 1.834 4.817 2.447 6.476.295.912.649 1.804 1.06 2.67-.026-.26-.084-.515-.175-.76-.132-.474-.341-1.164-.613-2.008-.55-1.687-1.394-3.994-2.342-6.524-.948-2.53-1.945-4.775-2.684-6.386-.37-.808-.697-1.457-.9-1.896-.096-.241-.225-.469-.383-.676zM49.813 165.061c.016-.157.016-.316 0-.474-.042-.355-.09-.801-.153-1.359-.07-.718-.176-1.433-.32-2.14-.161-.822-.314-1.777-.586-2.788-.126-.516-.258-1.06-.398-1.617-.139-.558-.334-1.137-.515-1.736-.335-1.206-.809-2.454-1.27-3.778-1.092-2.853-2.337-5.646-3.728-8.365-2.578-4.892-5.43-9.633-8.547-14.2-1.178-1.756-2.154-3.172-2.837-4.14l-.788-1.08c-.088-.133-.188-.257-.3-.37.06.148.138.288.23.418l.733 1.15c.697 1.039 1.603 2.46 2.732 4.183 2.294 3.555 5.458 8.49 8.428 14.22 1.371 2.697 2.607 5.46 3.701 8.281.468 1.31.955 2.552 1.304 3.744.181.592.37 1.164.53 1.721.16.558.286 1.088.418 1.604.293 1.017.46 1.958.641 2.788.182.83.307 1.534.39 2.091.084.558.168.997.23 1.346.016.17.051.339.105.501z" transform="translate(-520 -1077) translate(520 1092) translate(.714 .674)"/>
                    <path fill="#FAFAFA" d="M20.724 102.68s-.056-.063-.153-.21l-.425-.696c.677-1.064 1.76-1.805 2.997-2.05.916-.206 1.862-.234 2.788-.083 1.088.19 2.156.477 3.193.857 1.197.37 2.363.836 3.485 1.394 1.281.638 2.289 1.718 2.837 3.04.274.721.32 1.51.133 2.258-.229.725-.53 1.426-.9 2.091-.376.649-.58 1.383-.592 2.133.061.757.407 1.462.97 1.973 1.338 1.331 3.317 1.575 4.955 2.405 1.6.809 2.902 2.102 3.723 3.694.77 1.417 1.132 3.019 1.045 4.629-.082 1.403-.534 2.76-1.31 3.932-1.108 1.701-2.763 2.975-4.691 3.61-.52.164-1.055.274-1.597.328-.188.014-.376.014-.564 0 .71-.104 1.409-.267 2.09-.488 1.865-.67 3.454-1.94 4.518-3.61.735-1.14 1.158-2.453 1.227-3.807.065-1.554-.294-3.096-1.039-4.461-.8-1.523-2.054-2.759-3.59-3.534-.788-.39-1.673-.656-2.558-.99-.928-.306-1.779-.807-2.496-1.471-.626-.576-1.01-1.368-1.073-2.217.012-.81.23-1.604.634-2.307.362-.648.659-1.33.885-2.036.173-.681.129-1.4-.125-2.056-.51-1.25-1.456-2.273-2.663-2.879-1.103-.567-2.25-1.045-3.43-1.429-1.013-.39-2.06-.684-3.13-.878-.892-.164-1.809-.153-2.697.035-1.2.221-2.264.91-2.956 1.917l.384.697c.05.064.091.135.125.209zM71.409 165.138c-.493-.433-1.05-.785-1.652-1.045-.718-.282-1.467-.479-2.23-.586-.886-.146-1.918-.237-3.047-.418-1.252-.18-2.46-.589-3.562-1.206-4.368-2.443-6.25-7.744-4.399-12.394.662-1.638 1.66-3.06 1.938-4.643.177-1.548-.049-3.116-.655-4.552-.53-1.332-.982-2.693-1.353-4.078-.3-1.234-.3-2.523 0-3.757.437-1.787 1.446-3.383 2.872-4.545.51-.432 1.09-.774 1.715-1.01-.569.33-1.112.702-1.624 1.115-1.354 1.176-2.303 2.75-2.712 4.496-.289 1.196-.289 2.443 0 3.639.388 1.368.854 2.713 1.395 4.029.637 1.486.877 3.112.697 4.719-.293 1.694-1.318 3.137-1.945 4.726-1.787 4.48-.004 9.593 4.182 11.99 1.078.616 2.26 1.03 3.486 1.22 1.115.195 2.147.3 3.039.467.777.137 1.533.372 2.252.697.452.203.872.47 1.247.795.244.202.37.327.356.341zM62.04 185.137c-.07 0-.09-.906-.453-2.307-.213-.819-.505-1.615-.871-2.377-.459-.929-1.012-1.807-1.652-2.621-.656-.803-1.394-1.534-2.203-2.182-.665-.532-1.38-.999-2.133-1.394-1.29-.655-2.175-.871-2.154-.941.214.002.427.042.627.118.238.054.47.126.697.216.315.106.622.231.92.377.79.362 1.537.809 2.231 1.331 1.702 1.289 3.058 2.98 3.945 4.922.362.788.638 1.613.823 2.46.078.324.134.652.167.983.04.247.059.496.056.746.039.222.039.448 0 .67zM51.737 106.284s-.09 0-.272.055c-.265.038-.533.061-.801.07-.986.033-1.972-.073-2.928-.314-1.428-.344-2.78-.949-3.987-1.784-3.056-2.042-4.91-5.457-4.957-9.132-.032-1.469.204-2.931.698-4.315.323-.933.773-1.817 1.338-2.628.149-.22.312-.429.488-.627.118-.14.188-.21.195-.202-.742 1.099-1.34 2.289-1.777 3.541-.442 1.363-.64 2.793-.586 4.224.076 3.55 1.849 6.847 4.768 8.867 1.17.825 2.474 1.438 3.855 1.813 1.297.317 2.63.463 3.966.432zM33.864 145.397c.135.047.266.105.39.174.258.119.62.32 1.081.593 1.302.79 2.456 1.801 3.409 2.99.658.834 1.163 1.778 1.491 2.788.365 1.17.447 2.41.237 3.618-.208 1.354-.855 2.603-1.84 3.555-1.032 1.004-2.544 1.339-3.423 2.44-.878 1.102-1.073 2.544-1.205 3.89-.043 1.337-.278 2.661-.698 3.931-.472 1.148-1.333 2.093-2.432 2.67-.935.51-1.965.819-3.026.906-1.52.084-3.043-.066-4.517-.446-.523-.125-.92-.23-1.192-.306-.14-.027-.275-.072-.404-.133.143.007.286.028.425.063l1.2.237c1.463.323 2.965.434 4.46.327 1.02-.098 2.007-.406 2.9-.906 1.03-.556 1.836-1.453 2.28-2.537.392-1.244.61-2.537.648-3.841.051-.704.158-1.404.32-2.091.164-.73.494-1.412.963-1.994 1.003-1.206 2.523-1.533 3.485-2.468.932-.895 1.546-2.07 1.75-3.346.207-1.16.14-2.354-.195-3.485-.307-.977-.779-1.894-1.395-2.712-.92-1.182-2.03-2.204-3.283-3.025-.439-.293-.795-.509-1.039-.648-.14-.065-.27-.147-.39-.244z" transform="translate(-520 -1077) translate(520 1092) translate(.714 .674)"/>
                    <path fill="#263238" d="M36.004 1.157C32.135.195 27.974 2.614 26.05 6.1c-1.924 3.486-1.945 7.759-1.039 11.635.384 1.624.92 3.304.544 4.935-.404 1.75-1.799 3.109-2.468 4.782-1.275 3.227.349 6.803 1.938 9.885.697 1.394 1.652 2.962 3.2 3.269 1.735.341 3.262-1.046 4.726-2.043 2.584-1.743 5.729-2.452 8.811-1.986 3.485.537 6.636 2.537 10.136 2.6 3.22.023 6.232-1.592 7.995-4.287 1.039-1.624 1.394-4.071-.104-5.27-.99-.788-2.503-.76-3.374-1.68-1.06-1.122-.6-2.928-.056-4.364.544-1.436 1.087-3.192.118-4.391-1.08-1.353-3.422-1.095-4.454-2.482-1.032-1.387.056-3.485 0-5.326-.139-1.641-1.02-3.13-2.39-4.043-1.311-.955-1.493-1.261-3.298-4.545" transform="translate(-520 -1077) translate(520 1092) translate(.714 .674)"/>
                    <path fill="#EA0028" d="M30.609 33.035l13.941 1.192s10.157-1.485 14.047 24.272l15.433-.634.697 10.26L53.5 69.172l-2.503-1.499.251 21.101-35.112-2.586c.795-4.789 4.538-11.09 5.793-15.134-1.276-3.192-8.33-16.207-8.679-22.892-.948-18.305 17.358-15.126 17.358-15.126" transform="translate(-520 -1077) translate(520 1092) translate(.714 .674)"/>
                    <path fill="#000" d="M52.567 51.918s2.467 2.789 2.51 5.138c.062 3.764-.886 5.695.292 9.808l-3.36.808s-.516-1.003-.077-3.15c.44-2.147 1.29-4.761 1.666-7.097.335-1.9-.032-3.856-1.031-5.507z" opacity=".3" transform="translate(-520 -1077) translate(520 1092) translate(.714 .674)"/>
                    <path fill="#263238" d="M52.01 67.672c-.104-.264-.174-.54-.21-.822-.099-.768-.099-1.546 0-2.314.149-1.13.382-2.245.697-3.34.396-1.32.704-2.666.92-4.029.207-1.348.06-2.726-.425-4-.445-1.021-1.053-1.963-1.798-2.79-1.27-1.442-2.168-2.244-2.092-2.292.238.151.46.326.663.522.58.503 1.132 1.038 1.652 1.604.797.833 1.446 1.797 1.917 2.85.528 1.328.69 2.772.467 4.183-.213 1.38-.532 2.741-.955 4.071-.33 1.077-.593 2.174-.788 3.283-.117.75-.157 1.509-.119 2.266.052.266.075.537.07.808z" transform="translate(-520 -1077) translate(520 1092) translate(.714 .674)"/>
                    <g fill="#000" opacity=".2">
                        <path d="M20.404 12.338l-10.4.237c-.825.078-1.657-.02-2.44-.285-1.095-.46-1.8-1.527-2.413-2.545C3.325 6.734 1.652 3.64.132.46c0 0 2.747 8.734 4.469 12.548.347.999 1.417 1.55 2.433 1.254 4.526.009 9.03-.64 13.37-1.924z" transform="translate(-520 -1077) translate(520 1092) translate(.714 .674) translate(32.066 55.07)"/>
                    </g>
                    <path fill="#EA0028" d="M120.462 44.404c1.534-.11 3.07.176 4.462.83.593.289 1.243.441 1.903.446h1.7V23.826c0-.89-.354-1.744-.984-2.373-.63-.63-1.485-.982-2.375-.98h-21.763v-1.478c.007-.685.169-1.359.474-1.972.829-1.7 1.097-3.618.767-5.48-.802-4.639-5.023-7.891-9.714-7.484-4.69.407-8.287 4.338-8.278 9.046 0 1.256.263 2.498.774 3.646.258.575.395 1.196.404 1.826v1.896H66.606c-1.852 0-3.353 1.501-3.353 3.353v59.036c0 .725.288 1.42.8 1.932.513.512 1.208.8 1.933.8h59.809c1.508-.003 2.729-1.225 2.733-2.732V61.524h-2.42c-.559 0-1.113.11-1.63.32-1.072.438-2.217.663-3.374.663-5.005.177-9.206-3.736-9.383-8.741-.177-5.005 3.736-9.206 8.741-9.383v.021z" transform="translate(-520 -1077) translate(520 1092) translate(.714 .674)"/>
                    <path fill="#FFF" d="M120.462 44.404c1.534-.11 3.07.176 4.462.83.593.289 1.243.441 1.903.446h1.7V23.826c0-.89-.354-1.744-.984-2.373-.63-.63-1.485-.982-2.375-.98h-21.763v-1.478c.007-.685.169-1.359.474-1.972.829-1.7 1.097-3.618.767-5.48-.802-4.639-5.023-7.891-9.714-7.484-4.69.407-8.287 4.338-8.278 9.046 0 1.256.263 2.498.774 3.646.258.575.395 1.196.404 1.826v1.896H66.606c-1.852 0-3.353 1.501-3.353 3.353v59.036c0 .725.288 1.42.8 1.932.513.512 1.208.8 1.933.8h59.809c1.508-.003 2.729-1.225 2.733-2.732V61.524h-2.42c-.559 0-1.113.11-1.63.32-1.072.438-2.217.663-3.374.663-5.005.177-9.206-3.736-9.383-8.741-.177-5.005 3.736-9.206 8.741-9.383v.021z" opacity=".2" transform="translate(-520 -1077) translate(520 1092) translate(.714 .674)"/>
                    <path fill="#FFBE9D" d="M30.42 33.523L29.34 8.916l9.76-7.403 8.88 4.342s.3 11.154 0 15.991c-.3 4.838-5.172 5.354-5.172 5.354s.118 2.83.23 5.807c.065 1.727-.58 3.405-1.785 4.645-1.205 1.239-2.865 1.93-4.594 1.915-3.353-.042-6.09-2.694-6.238-6.044z" transform="translate(-520 -1077) translate(520 1092) translate(.714 .674)"/>
                    <path fill="#263238" d="M47.032 13.983c0 .343-.278.62-.62.62-.343 0-.62-.277-.62-.62 0-.342.277-.62.62-.62.342 0 .62.278.62.62zM47.631 13.307c-.083.084-.536-.306-1.206-.341-.669-.035-1.164.285-1.233.195-.07-.09.048-.188.265-.335.602-.397 1.394-.348 1.944.119.203.174.265.3.23.362zM39.859 13.983c0 .343-.278.62-.62.62-.343 0-.62-.277-.62-.62 0-.342.277-.62.62-.62.342 0 .62.278.62.62zM40.242 13.307c-.083.084-.536-.306-1.206-.341-.669-.035-1.164.285-1.233.195-.07-.09.048-.188.265-.335.285-.193.624-.29.968-.279.351.023.686.158.955.384.224.188.286.314.251.376z" transform="translate(-520 -1077) translate(520 1092) translate(.714 .674)"/>
                    <path fill="#EB996E" d="M42.829 27.186c-2.299-.097-4.521-.85-6.407-2.168 0 0 1.604 3.618 6.455 3.423l-.048-1.255z" transform="translate(-520 -1077) translate(520 1092) translate(.714 .674)"/>
                    <path fill="#263238" d="M42.647 18.94c.356-.088.721-.134 1.088-.14.167 0 .334 0 .376-.153.02-.187-.014-.375-.097-.544-.144-.432-.298-.897-.46-1.394-.314-.983-.586-1.875-.774-2.523-.124-.347-.205-.708-.244-1.074.183.318.326.658.425 1.01.23.642.537 1.52.85 2.503l.44 1.395c.1.218.122.464.062.697-.05.12-.153.21-.278.244-.098.009-.196.009-.293 0-.365.036-.732.03-1.095-.021z" transform="translate(-520 -1077) translate(520 1092) translate(.714 .674)"/>
                    <path fill="#EB996E" d="M42.152 19.518c-.261.07-.501.203-.697.39-.249.21-.303.573-.126.847s.53.374.823.234c.259-.056.48-.221.607-.453.12-.244.087-.535-.084-.746-.18-.193-.469-.237-.697-.104" transform="translate(-520 -1077) translate(520 1092) translate(.714 .674)"/>
                    <path fill="#263238" d="M43.017 20.48c0 .098-.55.251-1.143-.09-.593-.342-.753-.907-.656-.928.098-.02.349.349.837.614s.948.3.962.404zM39.643.55c-2.074-.071-4.072.785-5.451 2.336-1.353 1.565-2.04 3.596-1.917 5.66-.014.776.231 1.534.697 2.154.697.802 1.875.962 2.942 1.067 1.083.2 2.198.143 3.255-.168 1.032-.397 1.889-1.463 1.659-2.537-.509.697-.084 1.729.641 2.168.767.376 1.625.53 2.475.446h3.653c.416.041.836-.049 1.199-.258.394-.4.61-.943.6-1.506.194-1.944.375-4.015-.517-5.75-.886-1.538-2.332-2.675-4.036-3.172-1.666-.55-3.485-.3-5.221-.411" transform="translate(-520 -1077) translate(520 1092) translate(.714 .674)"/>
                    <path fill="#263238" d="M29.34 32.825c1.331.698 3.855-2.049 4.677-3.31.733-1.33.98-2.873.698-4.364-.175-1.5-.572-2.97-.607-4.476-.049-2.44.871-4.775 1.304-7.18.463-2.616.351-5.301-.328-7.87-.265-.996-.697-2.09-1.673-2.467-.83-.277-1.745-.088-2.398.495-.631.582-1.126 1.296-1.45 2.09l-.774 5.87.579 8.219-.028 12.993z" transform="translate(-520 -1077) translate(520 1092) translate(.714 .674)"/>
                    <path fill="#EA0028" d="M64.431 63.776l3.555 12.129s-18.605 6.769-28.678 6.643c-9.445-.111-12.15-1.185-15.468-8.81-3.318-7.627-7.11-16.382-7.884-21.422 0 0-7.591-21.066 12.736-18.989L31.48 49.36s2.252 7.438 2.412 7.87c1.52 4.015 3.485 9.899 5.388 10.61 1.903.71 25.151-4.064 25.151-4.064z" transform="translate(-520 -1077) translate(520 1092) translate(.714 .674)"/>
                    <path fill="#263238" d="M64.431 63.776c-.158.06-.321.101-.488.125l-1.394.3c-1.24.258-3.04.641-5.27 1.157-2.23.516-4.88 1.15-7.919 1.708-3.3.655-6.66.965-10.024.927h-.118l-.042-.111c-.384-.997-.788-2.05-1.171-3.123-2.677-7.522-4.712-14.437-6.358-19.386-.815-2.482-1.498-4.482-1.986-5.856-.23-.697-.419-1.192-.558-1.582-.076-.182-.134-.371-.174-.565 0 0 .09.182.244.537.153.356.362.879.62 1.562.53 1.359 1.248 3.346 2.091 5.82 1.715 4.936 3.793 11.85 6.462 19.344.384 1.074.781 2.091 1.164 3.116l-.167-.111c3.342.041 6.679-.253 9.961-.879 3.012-.543 5.682-1.164 7.926-1.63 2.245-.468 4.043-.83 5.298-1.053l1.436-.23c.154-.032.31-.055.467-.07zM67.986 75.905c-.173.1-.355.184-.544.25-.362.154-.899.363-1.596.621-1.394.516-3.443 1.2-6.002 1.945-2.558.746-5.618 1.562-9.027 2.426-3.687 1.029-7.468 1.69-11.286 1.973-1.009.048-2.02.022-3.025-.077-.984-.09-1.955-.294-2.893-.606-1.756-.636-3.366-1.62-4.733-2.893-2.262-2.182-4.146-4.724-5.577-7.522-1.254-2.349-2.09-4.329-2.69-5.702-.286-.697-.502-1.22-.642-1.59-.084-.179-.152-.365-.202-.557.107.167.195.345.265.53.174.39.411.906.697 1.561.62 1.353 1.506 3.312 2.788 5.64 1.446 2.749 3.33 5.245 5.577 7.389 1.34 1.226 2.912 2.174 4.622 2.788.904.299 1.84.493 2.788.579.989.099 1.984.124 2.977.076 3.792-.28 7.549-.928 11.216-1.938 3.415-.843 6.482-1.624 9.062-2.342 2.579-.718 4.614-1.394 6.022-1.833l1.618-.558c.19-.068.386-.122.585-.16z" transform="translate(-520 -1077) translate(520 1092) translate(.714 .674)"/>
                    <path fill="#000" d="M23.143 71.897S26.628 85.28 35.69 85.009c9.063-.272 17.574-4.148 17.574-4.148l-.404-.418s-15.336 3.304-19.595 1.227c-8.093-3.932-10.122-9.773-10.122-9.773z" opacity=".2" transform="translate(-520 -1077) translate(520 1092) translate(.714 .674)"/>
                    <path fill="#FFBE9D" d="M66.724 74.51h2.852c2.586-.25 4.029-.292 4.754-.975.969-.927-.363-1.826-.363-1.826s1.868-.649 1.694-1.785c-.118-.78-1.004-.864-1.004-.864s1.652-.649 1.98-1.339c.44-.934-.697-1.436-.697-1.436 2.251-1.394 2.05-2.788 1.526-2.9-.522-.111-2.272.698-2.272.698-1.485.425-5.535 1.659-4.036-.572 1.499-2.23 1.812-4.51 1.47-5.186-.195-.302-.56-.446-.91-.36-.349.087-.604.385-.637.743-.231.877-.585 1.718-1.052 2.496-.353.64-.81 1.217-1.353 1.707-.634.565-1.199 1.018-1.68 1.395l-2.537 2.44 2.265 7.765z" transform="translate(-520 -1077) translate(520 1092) translate(.714 .674)"/>
                </g>
            </g>
        </g>
    </g>
</svg>
