<svg xmlns="http://www.w3.org/2000/svg" width="402" height="115" viewBox="0 0 402 115">
    <defs>
        <linearGradient id="zx9fz75raa" x1="71.713%" x2="0%" y1="47.607%" y2="54.048%">
            <stop offset="0%" stop-color="#F9250B"/>
            <stop offset="100%" stop-color="#AB0000"/>
        </linearGradient>
    </defs>
    <g fill="none" fill-rule="evenodd">
        <g>
            <g>
                <path fill="url(#zx9fz75raa)" d="M400.656 0v114h-400V85.5h48V72.4H32.648c-1.203.004-2.533.02-3.992.05-1.666.033-3.266.083-4.8.15-1.363.06-2.568.119-3.615.178l-.385.022v-.1l.842-.495c5.57-3.3 10.34-6.585 14.308-9.855 3.363-2.771 6.086-5.63 8.167-8.574 2.756 1.55 5.99 2.324 9.703 2.324 3.8 0 7.084-.783 9.85-2.35 2.767-1.567 4.917-3.75 6.45-6.55 1.534-2.8 2.3-6.1 2.3-9.9 0-3.8-.766-7.1-2.3-9.9-1.533-2.8-3.683-4.983-6.45-6.55-2.766-1.567-6.05-2.35-9.85-2.35-3.733 0-6.983.783-9.75 2.35-1.247.706-2.372 1.538-3.374 2.493-1.59-1.175-3.439-2.172-5.546-2.993-3.166-1.233-6.916-1.85-11.25-1.85-4.933 0-9.333.85-13.2 2.55-3.866 1.7-6.916 4.217-9.15 7.55l.05-.074V0h400zm-297.28 48.9c-3.733 0-7 .783-9.8 2.35-2.8 1.567-4.966 3.75-6.5 6.55-1.533 2.8-2.3 6.1-2.3 9.9 0 3.8.767 7.1 2.3 9.9 1.534 2.8 3.7 4.983 6.5 6.55 2.8 1.567 6.067 2.35 9.8 2.35 3.734 0 7-.783 9.8-2.35 2.8-1.567 4.967-3.75 6.5-6.55 1.534-2.8 2.3-6.1 2.3-9.9 0-3.8-.766-7.1-2.3-9.9-1.533-2.8-3.7-4.983-6.5-6.55-2.8-1.567-6.066-2.35-9.8-2.35zm4.3-29.5h-13l-45.9 66.1h13l45.9-66.1zm-4.3 40.9c1.334 0 2.434.283 3.3.85.867.567 1.534 1.4 2 2.5.467 1.1.7 2.45.7 4.05 0 1.533-.233 2.867-.7 4-.466 1.133-1.133 1.983-2 2.55-.866.567-1.966.85-3.3.85-1.266 0-2.35-.283-3.25-.85-.9-.567-1.583-1.417-2.05-2.55-.466-1.133-.7-2.467-.7-4 0-1.6.234-2.95.7-4.05.467-1.1 1.15-1.933 2.05-2.5.9-.567 1.984-.85 3.25-.85zM21.856 32c2.934 0 5.15.85 6.65 2.55 1.5 1.7 2.25 3.817 2.25 6.35 0 2.333-.6 4.733-1.8 7.2-1.2 2.467-3.05 5.067-5.55 7.8-2.5 2.733-5.75 5.633-9.75 8.7-3.8 2.913-8.352 6.037-13.656 9.372l.656-.415V42.102l11.1 3.398.018-.485c.186-4.162 1.113-7.35 2.782-9.565 1.734-2.3 4.167-3.45 7.3-3.45zm31.02-2.1c1.334 0 2.434.283 3.3.85.867.567 1.534 1.4 2 2.5.467 1.1.7 2.45.7 4.05 0 1.533-.233 2.867-.7 4-.466 1.133-1.133 1.983-2 2.55-.866.567-1.966.85-3.3.85-1.266 0-2.333-.283-3.2-.85-.866-.567-1.533-1.417-2-2.55l.11.25c.047-.61.07-1.227.07-1.85 0-1.7-.206-3.378-.622-5.037.111-.51.259-.98.442-1.413.467-1.1 1.134-1.933 2-2.5.867-.567 1.934-.85 3.2-.85z" transform="translate(-959 -2146) translate(959.344 2146.5)"/>
                <text fill="#FFF" font-family="WorkSans-Regular_Medium, Work Sans" font-size="24" font-weight="400" letter-spacing="-.6" transform="translate(-959 -2146) translate(959.344 2146.5)">
                    <tspan x="149.656" y="47">Improvement in </tspan> <tspan x="149.656" y="75">employee utilization</tspan>
                </text>
            </g>
        </g>
    </g>
</svg>
