<svg xmlns="http://www.w3.org/2000/svg" width="400" height="115" viewBox="0 0 400 115">
    <defs>
        <linearGradient id="0k3yl78zla" x1="71.713%" x2="0%" y1="47.599%" y2="54.061%">
            <stop offset="0%" stop-color="#F9250B"/>
            <stop offset="100%" stop-color="#AB0000"/>
        </linearGradient>
    </defs>
    <g fill="none" fill-rule="evenodd">
        <g>
            <g>
                <path fill="url(#0k3yl78zla)" d="M26.5 71v14.5h15.2V72.777c.901 1.9 1.964 3.607 3.19 5.123 4.633 5.733 11.45 8.6 20.45 8.6s15.817-2.867 20.45-8.6c4.198-5.195 6.494-12.633 6.888-22.314 1.535.343 3.175.514 4.922.514 3.8 0 7.083-.783 9.85-2.35 2.766-1.567 4.916-3.75 6.45-6.55 1.533-2.8 2.3-6.1 2.3-9.9 0-3.8-.767-7.1-2.3-9.9-1.534-2.8-3.684-4.983-6.45-6.55-2.767-1.567-6.05-2.35-9.85-2.35-3.734 0-6.984.783-9.75 2.35-1.736.983-3.235 2.208-4.497 3.677C78.879 20.51 72.874 18.5 65.34 18.5c-9 0-15.817 2.867-20.45 8.6-1.226 1.516-2.289 3.224-3.19 5.123V19.5H21.6L.1 51l-.1.149V0h400v114H0V71h26.5zm121.6-22.1c-3.734 0-7 .783-9.8 2.35-2.8 1.567-4.967 3.75-6.5 6.55-1.534 2.8-2.3 6.1-2.3 9.9 0 3.8.766 7.1 2.3 9.9 1.533 2.8 3.7 4.983 6.5 6.55 2.8 1.567 6.066 2.35 9.8 2.35 3.733 0 7-.783 9.8-2.35 2.8-1.567 4.966-3.75 6.5-6.55 1.533-2.8 2.3-6.1 2.3-9.9 0-3.8-.767-7.1-2.3-9.9-1.534-2.8-3.7-4.983-6.5-6.55-2.8-1.567-6.067-2.35-9.8-2.35zm4.3-29.5h-13L93.5 85.5h13l45.9-66.1zm-4.3 40.9c1.333 0 2.433.283 3.3.85.866.567 1.533 1.4 2 2.5.466 1.1.7 2.45.7 4.05 0 1.533-.234 2.867-.7 4-.467 1.133-1.134 1.983-2 2.55-.867.567-1.967.85-3.3.85-1.267 0-2.35-.283-3.25-.85-.9-.567-1.584-1.417-2.05-2.55-.467-1.133-.7-2.467-.7-4 0-1.6.233-2.95.7-4.05.466-1.1 1.15-1.933 2.05-2.5.9-.567 1.983-.85 3.25-.85zM65.34 31.9c2.467 0 4.467.683 6 2.05 1.533 1.367 2.65 3.567 3.35 6.6.7 3.033 1.05 7.017 1.05 11.95 0 4.933-.35 8.917-1.05 11.95-.7 3.033-1.817 5.233-3.35 6.6-1.533 1.367-3.533 2.05-6 2.05-2.4 0-4.383-.683-5.95-2.05-1.567-1.367-2.7-3.567-3.4-6.6-.7-3.033-1.05-7.017-1.05-11.95 0-4.933.35-8.917 1.05-11.95.7-3.033 1.833-5.233 3.4-6.6s3.55-2.05 5.95-2.05zM27 30.7c-.067 1.467-.133 2.917-.2 4.35-.053 1.147-.085 2.261-.096 3.344l-.004.806v20H8.1l.294-.394c.287-.387.556-.756.806-1.106.25-.35.5-.719.75-1.106l.25-.394 11.7-17.1.302-.457c.711-1.083 1.46-2.28 2.248-3.593.771-1.286 1.457-2.535 2.057-3.747l.293-.603zm70.6-.8c1.333 0 2.433.283 3.3.85.866.567 1.533 1.4 2 2.5.466 1.1.7 2.45.7 4.05 0 1.533-.234 2.867-.7 4-.467 1.133-1.134 1.983-2 2.55-.867.567-1.967.85-3.3.85-1.267 0-2.334-.283-3.2-.85-.867-.567-1.534-1.417-2-2.55-.467-1.133-.7-2.467-.7-4 0-1.6.233-2.95.7-4.05.466-1.1 1.133-1.933 2-2.5.866-.567 1.933-.85 3.2-.85z" transform="translate(-80 -2146) translate(80 2146.5)"/>
                <text fill="#FFF" font-family="WorkSans-Regular_Medium, Work Sans" font-size="24" font-weight="400" letter-spacing="-.6" transform="translate(-80 -2146) translate(80 2146.5)">
                    <tspan x="187" y="47">Reduction in </tspan> <tspan x="187" y="75">time to fulfil.</tspan>
                </text>
            </g>
        </g>
    </g>
</svg>
