<svg xmlns="http://www.w3.org/2000/svg" width="290" height="241" viewBox="0 0 290 241">
    <g fill="none" fill-rule="evenodd">
        <g>
            <path fill="#FFF" d="M0 0H1440V6049H0z" transform="translate(-80 -1077)"/>
            <g fill-rule="nonzero">
                <g>
                    <g fill="#E0E0E0" transform="translate(-80 -1077) matrix(-1 0 0 1 339.149 1084) translate(.815 .789)">
                        <path d="M5.534 135.82c-.144-1.725-.192-3.457-.145-5.188-.047-1.733.001-3.467.145-5.194.147 1.727.195 3.461.145 5.194.05 1.73.002 3.463-.145 5.188z"/>
                        <path d="M10.9 130.61c-1.784.143-3.576.191-5.366.144-1.788.047-3.578-.001-5.361-.145 1.783-.146 3.573-.195 5.36-.144 1.791-.05 3.583-.002 5.368.144zM212.563 189.176c-.146-1.726-.195-3.458-.145-5.189-.05-1.733-.002-3.467.145-5.194.144 1.727.192 3.461.145 5.194.047 1.73-.001 3.463-.145 5.189z"/>
                        <path d="M217.93 183.982c-1.785.15-3.576.2-5.367.15-1.79.05-3.582 0-5.366-.15 1.785-.144 3.576-.192 5.366-.145 1.79-.047 3.582.001 5.367.145zM181.07 11.042c-.146-1.727-.195-3.461-.144-5.194-.05-1.73-.002-3.463.145-5.189.143 1.726.191 3.458.144 5.189.048 1.733 0 3.467-.144 5.194z"/>
                        <path d="M186.437 5.848c-1.785.147-3.576.195-5.366.145-1.79.05-3.582.002-5.367-.145 1.785-.144 3.576-.192 5.367-.145 1.79-.047 3.581.001 5.366.145z"/>
                        <circle cx="11.508" cy="87.057" r="3.171"/>
                        <path d="M167.59 162.197c.003 1.75-1.412 3.171-3.162 3.176-1.75.006-3.173-1.408-3.18-3.158-.008-1.75 1.404-3.174 3.154-3.184.843-.004 1.653.327 2.251.921.598.594.935 1.402.937 2.245zM73.346 4.248c0 1.752-1.42 3.171-3.171 3.171-1.752 0-3.171-1.42-3.171-3.17 0-1.752 1.42-3.172 3.17-3.172 1.752 0 3.172 1.42 3.172 3.171z"/>
                        <circle cx="86.787" cy="191.895" r="1.588"/>
                        <path d="M50.106 183.982c.003.642-.383 1.223-.976 1.47-.594.248-1.278.114-1.733-.34-.455-.454-.592-1.137-.347-1.731.246-.595.825-.982 1.468-.982.42-.002.825.164 1.123.461.298.297.465.7.465 1.122zM89.206 7.447c0 .878-.71 1.589-1.588 1.589-.877 0-1.588-.711-1.588-1.589 0-.877.71-1.588 1.588-1.588.876.003 1.585.712 1.588 1.588zM159.069 93.237c0 .877-.711 1.589-1.589 1.589-.877 0-1.588-.712-1.588-1.589s.711-1.588 1.588-1.588c.878 0 1.589.711 1.589 1.588zM47.147 62.58c-3.711-5.377-10.143-15.046-15.716-23.333-5.573-8.287-10.588-15.76-14.294-21.178l-4.37-6.375c-.512-.747-.908-1.332-1.186-1.733-.129-.2-.234-.351-.307-.457-.072-.106-.095-.162-.095-.162l.112.15.323.446 1.204 1.717c1.053 1.493 2.558 3.667 4.414 6.359 3.722 5.378 8.788 12.84 14.355 21.132 5.568 8.293 11.988 17.962 15.672 23.362"/>
                        <path d="M15.192 27.789c.143.006.285.028.423.066.268.05.658.14 1.115.257.953.223 2.268.557 3.706.98l3.69 1.065 1.114.318c.141.024.278.07.407.133-.143-.006-.285-.029-.424-.066-.267-.05-.657-.14-1.114-.257-.953-.24-2.263-.602-3.706-1.014l-3.684-1.037-1.115-.312c-.142-.03-.28-.074-.412-.133zM26.026 30.185c-.045 0 .557-2.748 1.337-6.13.78-3.383 1.471-6.086 1.516-6.075.045.011-.557 2.753-1.337 6.13-.78 3.378-1.466 6.086-1.516 6.075zM33.995 43.281c.048-.138.113-.269.195-.39l.557-1.036c.49-.875 1.165-2.085 1.862-3.444.696-1.36 1.281-2.614 1.672-3.522l.496-1.082c.052-.135.12-.264.2-.384-.028.142-.072.28-.134.412-.1.268-.25.641-.445 1.115-.385.925-.959 2.19-1.672 3.555-.714 1.366-1.388 2.57-1.906 3.428-.262.429-.48.769-.636 1.003-.052.12-.116.236-.189.345zM23.73 43.27c.131-.03.266-.043.4-.039l1.115-.044c.931 0 2.23-.05 3.623-.067 1.393-.017 2.692 0 3.617 0h1.114c.134-.016.268-.016.402 0-.132.029-.267.042-.402.039l-1.114.044c-.931.028-2.23.056-3.623.073-1.393.017-2.691 0-3.617 0h-1.114c-.134.012-.268.01-.401-.006zM29.303 55.726c.169-.03.34-.046.512-.045l1.405-.061c1.187-.045 2.825-.09 4.636-.128 1.812-.04 3.45-.062 4.637-.073h1.41c.17-.013.342-.013.513 0-.168.039-.34.055-.513.05l-1.404.056c-1.187.045-2.826.09-4.637.128-1.811.04-3.45.067-4.642.073h-1.405c-.17.015-.342.015-.512 0zM42.104 55.375c.063-.174.141-.342.234-.502l.69-1.337c.586-1.115 1.383-2.692 2.23-4.459.847-1.766 1.55-3.344 2.056-4.514l.608-1.382c.066-.171.146-.337.24-.496-.043.18-.101.355-.173.524-.129.334-.312.814-.558 1.404-.479 1.176-1.176 2.787-2.017 4.548-.842 1.76-1.672 3.31-2.263 4.425-.312.557-.557 1.003-.746 1.31-.086.168-.187.328-.301.479zM200.699 104.121c1.782-4.174 3.805-8.242 6.057-12.182l1.75-3.11c.558-1.02 1.148-2.028 1.767-2.987 1.203-1.831 2.505-3.595 3.9-5.283 1.316-1.616 2.62-3.11 3.852-4.492 1.231-1.382 2.413-2.647 3.533-3.756 1.76-1.759 3.655-3.376 5.668-4.837.713-.513 1.282-.898 1.672-1.149l.44-.29.156-.088c-.042.042-.089.08-.14.111l-.429.307c-.378.267-.936.663-1.638 1.187-1.987 1.486-3.86 3.118-5.606 4.881-1.115 1.115-2.274 2.386-3.5 3.768-1.226 1.382-2.525 2.881-3.829 4.503-1.38 1.685-2.665 3.445-3.85 5.272-.614.947-1.182 1.95-1.756 2.976l-1.75 3.11c-2.24 3.934-4.258 7.99-6.047 12.148"/>
                        <path d="M210.329 85.842c-.042-.183-.064-.37-.067-.557-.034-.374-.056-.909-.078-1.577-.045-1.327-.045-3.166-.04-5.189.006-2.023 0-3.862-.077-5.188-.034-.663-.062-1.198-.09-1.566-.019-.186-.019-.372 0-.558.057.182.092.369.106.558.056.368.112.903.162 1.566.111 1.326.167 3.165.156 5.2-.011 2.033 0 3.806-.033 5.188v1.571c.004.185-.01.37-.04.552zM227.571 84.504c-.226.02-.453.02-.68 0h-1.855c-1.566 0-3.729.078-6.13.268-2.403.19-4.537.457-6.086.697-.775.111-1.4.222-1.834.295-.221.05-.447.08-.674.09.212-.085.432-.147.657-.185.43-.1 1.054-.24 1.828-.373 1.544-.284 3.7-.557 6.092-.77 2.038-.17 4.084-.234 6.13-.194.786 0 1.421.055 1.861.094.233.002.464.028.691.078zM200.938 103.86c-.04-.07-.072-.142-.095-.218-.055-.173-.133-.385-.223-.64-.189-.558-.445-1.377-.746-2.392-.608-2.023-1.36-4.843-2.146-7.969-.786-3.126-1.51-5.958-2.073-7.992-.273-.986-.502-1.8-.674-2.407-.073-.262-.129-.48-.179-.658-.025-.076-.042-.154-.05-.234.044.069.076.144.095.223l.223.641c.195.557.451 1.376.752 2.385.608 2.029 1.354 4.849 2.14 7.975.786 3.126 1.51 5.952 2.073 7.992.279.986.507 1.8.675 2.407l.184.652c.028.075.043.154.044.234zM224.183 99.016c-.076.03-.154.052-.234.067l-.674.145-2.492.524c-2.1.44-5.015 1.081-8.197 1.789-3.183.708-6.103 1.332-8.215 1.728-1.059.195-1.911.35-2.508.44l-.685.106c-.08.015-.16.015-.24 0l.234-.067.675-.145 2.49-.524c2.102-.44 5.016-1.081 8.198-1.794 3.183-.714 6.103-1.327 8.215-1.722 1.059-.201 1.911-.352 2.508-.44l.685-.107c.08-.014.16-.014.24 0z"/>
                    </g>
                    <g>
                        <path fill="#EA0028" d="M60.026 1.282C39.367 2.78 16.808 5.517.268 11.87l5.227 35.35S37.55 35.745 63.637 36.542l-3.61-35.26z" transform="translate(-80 -1077) matrix(-1 0 0 1 339.149 1084) translate(.815 .789) translate(33.995 20.265)"/>
                        <g fill="#FFF" opacity=".8">
                            <path d="M60.026.167C39.367 1.667 16.808 4.403.268 10.756l5.227 35.349S37.55 34.63 63.637 35.427L60.027.167z" transform="translate(-80 -1077) matrix(-1 0 0 1 339.149 1084) translate(.815 .789) translate(33.995 20.265) translate(0 1.115)"/>
                        </g>
                        <path fill="#EA0028" d="M58.516 31.877l-.2.034-.586.083-2.229.279c-.98.117-2.179.262-3.567.462-1.387.201-2.97.402-4.709.692-6.972 1.075-16.568 2.853-26.99 5.572-3.622.937-7.116 1.9-10.31 2.904l-.161.045v-.162c-1.115-8.103-2.196-15.092-3.026-20.063-.424-2.463-.764-4.458-.998-5.801-.117-.663-.206-1.182-.273-1.55 0-.167-.045-.3-.061-.4-.008-.047-.008-.094 0-.14.018.043.031.088.039.134 0 .1.05.234.089.395.072.368.178.881.318 1.544.267 1.343.64 3.31 1.075 5.785.88 4.949 1.995 11.937 3.132 20.063l-.184-.112c3.205-1.014 6.688-1.984 10.327-2.92 8.908-2.295 17.93-4.122 27.029-5.473 1.744-.273 3.343-.457 4.72-.64 1.377-.185 2.591-.318 3.572-.419l2.263-.228.59-.05c.046-.016.093-.027.14-.034z" transform="translate(-80 -1077) matrix(-1 0 0 1 339.149 1084) translate(.815 .789) translate(33.995 20.265)"/>
                        <path fill="#EA0028" d="M59.24 23.284s-.078-.245-.24-.708c-.265-.655-.624-1.269-1.064-1.822-.695-.88-1.545-1.626-2.507-2.202-.268-.178-.586-.312-.892-.473-.328-.144-.665-.265-1.009-.363-.743-.236-1.527-.312-2.301-.223-.849.093-1.657.41-2.341.92-.739.563-1.372 1.252-1.873 2.034-1.114 1.61-1.789 3.572-2.624 5.607-.409 1.075-1.077 2.032-1.945 2.786-.465.388-1.018.654-1.611.775-.613.103-1.244.03-1.817-.212-2.352-.93-3.4-3.645-5.779-4.458-1.168-.371-2.435-.267-3.528.29-.533.264-1.008.631-1.398 1.08-.37.459-.683.96-.931 1.494-.53 1.048-.93 2.23-1.828 3.037-.44.411-1.005.664-1.605.72-.58.034-1.157-.09-1.672-.358-.96-.532-1.758-1.316-2.307-2.268-.477-.896-.885-1.828-1.22-2.786-.313-.879-.719-1.721-1.21-2.514-.459-.72-1.094-1.31-1.845-1.716-1.316-.697-2.88-.742-4.235-.123-1.037.427-1.959 1.092-2.692 1.94-.458.54-.8 1.167-1.008 1.844-.145.463-.162.725-.184.72.013-.25.056-.497.128-.736.185-.696.517-1.345.975-1.9.733-.878 1.663-1.57 2.714-2.018 1.4-.657 3.027-.622 4.397.095.788.415 1.455 1.025 1.94 1.772.504.804.92 1.66 1.242 2.552.339.941.747 1.856 1.22 2.737.532.91 1.303 1.659 2.23 2.162.472.246 1.001.36 1.533.329.54-.056 1.047-.287 1.443-.658.825-.752 1.226-1.89 1.755-2.954.258-.558.584-1.082.97-1.56.415-.477.921-.868 1.488-1.148 1.161-.593 2.509-.703 3.75-.307 1.266.418 2.174 1.394 3.016 2.274.759.934 1.709 1.694 2.786 2.23.527.223 1.107.29 1.672.194.547-.112 1.058-.357 1.488-.713.832-.726 1.475-1.644 1.872-2.675.83-2.012 1.56-4.001 2.675-5.634.515-.807 1.172-1.513 1.94-2.084.718-.524 1.562-.849 2.446-.942.8-.084 1.61.001 2.374.25.352.105.697.233 1.031.385 1.34.652 2.51 1.605 3.417 2.787.436.57.783 1.203 1.03 1.878.06.183.108.369.146.557-.003.035-.006.07-.012.106zM4.486 18.642c0 .078-.256.195-.602.261-.345.067-.64.056-.652 0-.01-.055.251-.195.597-.261.345-.067.63-.079.657 0zM5.4 25.078c.034.078-.167.24-.451.374-.284.133-.558.178-.558.106 0-.073.173-.235.457-.368.285-.134.519-.167.552-.112zM6.543 32.15c0 .078-.184.218-.468.318-.285.1-.558.117-.558.045 0-.073.184-.218.468-.318.285-.1.53-.117.558-.045zM7.914 39.083c0 .078-.218.223-.558.318-.34.094-.59.122-.613.044-.022-.078.212-.217.524-.317.312-.1.619-.117.647-.045zM46.874 5.774c.218-.08.444-.132.674-.156.446-.073 1.115-.173 1.923-.29 1.672-.234 4.018-.558 6.832-.886h.134v.133c.218 2.374.474 5.105.741 8.003v.263h-.139l-9.234 1.114h-.128v-.123c-.257-2.424-.474-4.458-.63-5.902-.067-.68-.117-1.22-.162-1.633-.022-.185-.033-.37-.033-.557.045.195.078.392.1.59.061.413.134.965.229 1.673.183 1.438.434 3.433.74 5.83l-.139-.112 9.235-1.176-.128.156v-.117c-.257-2.898-.496-5.635-.708-8.009l.145.117-9.452 1.082z" transform="translate(-80 -1077) matrix(-1 0 0 1 339.149 1084) translate(.815 .789) translate(33.995 20.265)"/>
                        <path fill="#EA0028" d="M55.456 7.178c0 .09-1.588.084-3.527.295-1.94.212-3.495.558-3.517.452 2.27-.737 4.67-.991 7.044-.747zM55.557 9.251c0 .084-1.483.14-3.294.318s-3.282.401-3.3.317c1.06-.342 2.16-.546 3.272-.607 1.101-.155 2.218-.164 3.322-.028zM53.344 11.057c-.603.227-1.24.357-1.883.384-.63.128-1.273.162-1.912.1.603-.223 1.236-.353 1.878-.384.63-.127 1.277-.161 1.917-.1zM160.74 11.703C140.51 5.54 123.44.273 100.553.418l-3.5 36.018c23.802 2.106 31.766 3.667 53.734 11.62l9.953-36.353z" transform="translate(-80 -1077) matrix(-1 0 0 1 339.149 1084) translate(.815 .789) translate(33.995 20.265)"/>
                        <g fill="#FFF" opacity=".8">
                            <path d="M63.771 11.703C43.541 5.54 26.471.273 3.583.418l-3.5 36.018c23.803 2.106 31.766 3.667 53.735 11.62l9.953-36.353z" transform="translate(-80 -1077) matrix(-1 0 0 1 339.149 1084) translate(.815 .789) translate(33.995 20.265) translate(96.97)"/>
                        </g>
                        <path fill="#EA0028" d="M114.942 17.872l.892-7.64c-2.222-.223-4.446.394-6.236 1.728-2.406 1.762-3.83 4.563-3.835 7.545-.01.372 0 .744.028 1.115l8.917-1.003.234-1.745zM124.165 16.624c-.866-3.017-3.3-5.327-6.358-6.035l-.268-.056-.173-.04-.524-.077h-.044l-.88 7.607-.212 1.794 8.426 3.077c.212-.636.358-1.291.434-1.956.168-1.45.03-2.92-.4-4.314z" transform="translate(-80 -1077) matrix(-1 0 0 1 339.149 1084) translate(.815 .789) translate(33.995 20.265)"/>
                        <g fill="#000" opacity=".3">
                            <path d="M8.805 6.593C7.94 3.576 5.505 1.265 2.447.557L2.179.502l-.173-.04-.524-.077h-.044l-.88 7.607-.212 1.794 8.426 3.076c.212-.635.358-1.29.435-1.956.167-1.45.03-2.919-.402-4.313z" transform="translate(-80 -1077) matrix(-1 0 0 1 339.149 1084) translate(.815 .789) translate(33.995 20.265) translate(115.36 10.031)"/>
                        </g>
                        <path fill="#EA0028" d="M115.07 20.676l-8.917 1.003c.374 4.324 3.528 7.908 7.764 8.432 4.235.523 8.209-2.23 9.602-6.354l-8.427-3.076M152.922 18.547c-.271-.083-.534-.19-.786-.318-.496-.228-1.22-.557-2.123-.92-2.342-.979-4.739-1.82-7.178-2.518-2.444-.701-4.926-1.26-7.435-1.672-.958-.156-1.744-.268-2.285-.34-.282-.021-.562-.07-.836-.145.285-.011.57 0 .853.033.557.04 1.332.123 2.302.251 5.061.688 9.999 2.096 14.662 4.18.892.401 1.605.747 2.09 1.003.258.127.504.276.736.446zM152.309 22.292c-.27-.087-.533-.195-.786-.323-.496-.223-1.22-.558-2.123-.914-4.686-1.973-9.592-3.372-14.613-4.169-.958-.156-1.744-.267-2.285-.34-.281-.028-.56-.076-.836-.145.285-.018.57-.007.853.034.557.033 1.332.117 2.302.245 2.527.346 5.026.871 7.479 1.571 2.452.703 4.852 1.577 7.183 2.614.892.401 1.605.747 2.09 1.003.26.116.506.258.736.424zM151.696 26.065c-.271-.083-.534-.19-.786-.318-.496-.223-1.22-.557-2.123-.92-2.342-.982-4.739-1.829-7.178-2.535-2.445-.699-4.927-1.257-7.435-1.672-.958-.15-1.739-.268-2.285-.34-.282-.02-.562-.07-.836-.145.285-.011.57 0 .853.033.557.04 1.332.123 2.302.251 2.527.346 5.026.872 7.479 1.572 2.454.698 4.854 1.571 7.183 2.614.892.4 1.605.746 2.09 1.003.26.128.506.28.736.457zM150.47 29.826c-.263-.086-.518-.192-.764-.317-.48-.229-1.181-.558-2.05-.914-4.537-1.97-9.299-3.371-14.178-4.174-.937-.156-1.672-.268-2.23-.34-.275-.021-.547-.07-.813-.145.277-.015.555-.004.83.033.53.034 1.293.117 2.23.251 2.459.346 4.89.871 7.272 1.572 2.384.708 4.714 1.588 6.972 2.63.864.401 1.555.747 2.017 1.003.25.111.489.246.714.401zM147.806 32.825c-.236-.071-.466-.163-.686-.273l-1.844-.82c-4.037-1.83-8.323-3.053-12.718-3.628l-2-.278c-.247-.023-.491-.066-.73-.128.246-.03.494-.03.74 0 .48 0 1.165.089 2.012.183 4.438.47 8.761 1.703 12.78 3.645.774.368 1.387.68 1.81.909.225.107.438.237.636.39zM138.817 33.248c-.487-.06-.967-.16-1.438-.295-.88-.206-2.101-.474-3.461-.702-1.36-.229-2.603-.407-3.5-.558-.49-.042-.974-.126-1.449-.25.49-.039.984-.024 1.471.044.909.078 2.157.212 3.528.452 1.168.198 2.323.462 3.46.79.482.12.947.294 1.389.52z" transform="translate(-80 -1077) matrix(-1 0 0 1 339.149 1084) translate(.815 .789) translate(33.995 20.265)"/>
                        <path fill="#EA0028" d="M104.036 4.665l.468-.028 1.393-.045c1.226 0 3.01 0 5.283.117 6.292.419 12.516 1.54 18.558 3.344l.1.033v.106c-1.393 7.986-3.053 17.477-4.826 27.63-.072.413-.145.826-.217 1.227v.156l-.156-.039c-4.082-1.069-8.217-1.923-12.389-2.558-3.996-.613-7.802-1.048-11.357-1.27h-.14v-.134c.976-8.521 1.795-15.655 2.369-20.676.29-2.486.524-4.458.68-5.796.078-.657.145-1.165.184-1.521 0-.162.039-.29.05-.39.01-.1 0-.129 0-.123.005.046.005.093 0 .14 0 .1 0 .233-.04.4-.033.363-.088.881-.155 1.55-.14 1.36-.351 3.344-.613 5.83-.558 5.015-1.316 12.12-2.23 20.62l-.122-.14c3.561.212 7.384.64 11.385 1.248 4.183.633 8.33 1.485 12.423 2.552l-.179.118c.073-.402.145-.814.218-1.227l4.865-27.62.083.14c-6.02-1.81-12.22-2.955-18.49-3.416-2.263-.15-4.058-.19-5.262-.184h-1.872l-.011-.044z" transform="translate(-80 -1077) matrix(-1 0 0 1 339.149 1084) translate(.815 .789) translate(33.995 20.265)"/>
                    </g>
                    <g>
                        <path fill="#EA0028" d="M68.012 92.756L87.74 97.125 90.755 92.756 90.271 87.133 87.272 84.391 76.94 84.391 67.288 93.085" transform="translate(-80 -1077) matrix(-1 0 0 1 339.149 1084) translate(.815 .789) translate(47.927 5.775)"/>
                        <g fill="#000" opacity=".3">
                            <path d="M1.137 8.605L20.865 12.974 23.88 8.605 23.395 2.982 20.397 0.24 10.065 0.24 0.412 8.933" transform="translate(-80 -1077) matrix(-1 0 0 1 339.149 1084) translate(.815 .789) translate(47.927 5.775) translate(66.875 84.151)"/>
                        </g>
                        <path fill="#FFBE9D" d="M98.084 52.13l24.905-3.344 3.901-1.115s8.978-1.973 9.814-2.274c.97-.345 1.371.04 1.472.401.161.558-.385 1.21-1.21 1.533-.278.111-4.831 1.672-4.831 1.672.522.111 1.036.26 1.538.446 1.086.368 2.129 1.772 2.652 3.41.524 1.639.53 2.14-.1 2.374-.244.074-.51.038-.724-.1-.353-.213-.618-.545-.747-.936-.875-2.614-2.508-2.82-2.508-2.82l-.513.145s1.672 1.176 1.672 2.602c-.004.21-.05.416-.134.608.252.721.104 1.522-.39 2.105-.493.583-1.259.861-2.012.732-.356-.067-.746-.28-.796-.636-.01-.193.03-.385.117-.557.035-.097.065-.195.089-.295l-1.494.206s-3.383.278-4.837.557l-23.317 7.022c-1.549.47-3.221.3-4.643-.473-1.421-.773-2.473-2.085-2.92-3.64-.476-1.685-.196-3.494.766-4.958.963-1.463 2.514-2.436 4.25-2.666z" transform="translate(-80 -1077) matrix(-1 0 0 1 339.149 1084) translate(.815 .789) translate(47.927 5.775)"/>
                        <path fill="#FFBE9D" d="M123.575 49.41c.108.527.54.926 1.075.992.513.106 1.048.039 1.566.106 1.55.211 2.759 1.621 4.314 1.755.217 0 .496 0 .557-.234.061-.234-.106-.373-.257-.507l-3.9-3.439" transform="translate(-80 -1077) matrix(-1 0 0 1 339.149 1084) translate(.815 .789) translate(47.927 5.775)"/>
                        <path fill="#EB996E" d="M126.946 48.083c.164.094.317.204.457.33.279.228.686.556 1.176.98l1.722 1.477.49.429c.15.15.407.279.452.635.003.18-.103.342-.268.413-.132.054-.275.077-.418.067-.254-.02-.505-.07-.746-.15-.86-.362-1.692-.783-2.491-1.26-.35-.18-.727-.304-1.115-.368-.362-.056-.719-.045-1.042-.067-.541.015-1.061-.21-1.421-.613-.229-.318-.184-.557-.173-.557.06.17.15.327.262.468.357.342.844.516 1.337.479.357-.007.715.004 1.07.033.414.06.816.182 1.193.363.795.46 1.618.871 2.463 1.231.22.068.446.113.675.134.217 0 .4-.061.379-.173-.023-.111-.179-.29-.346-.434l-.49-.435-1.672-1.527-1.115-1.048c-.262-.245-.396-.39-.379-.407zM131.717 51.488c.322-.077.658-.077.98 0 .337.09.636.285.853.558.266.353.473.746.613 1.164.144.43.331.845.557 1.238.198.329.478.6.814.785.24.123.524.123.764 0 .161-.083.222-.167.217-.172-.006-.006-.09.044-.245.106-.224.074-.47.05-.675-.067-.3-.19-.548-.45-.724-.758-.224-.389-.41-.797-.557-1.22-.15-.436-.373-.843-.658-1.204-.241-.303-.577-.517-.953-.608-.25-.062-.513-.062-.763 0-.145.112-.229.167-.223.178zM137.312 47.203c-.312.072-.616.175-.909.306l-2.162.797-2.162.764c-.308.082-.607.196-.892.34.319-.037.633-.108.936-.212.558-.162 1.35-.407 2.196-.713.847-.307 1.61-.608 2.151-.847.296-.113.579-.259.842-.435zM131.059 52.876s.067.09.195.229c.19.176.294.426.284.685-.026.166-.138.307-.295.368-.194.079-.396.135-.602.167-.261.032-.501.159-.674.357-.164.24-.206.544-.112.819.095.269.297.486.558.602.231.113.492.152.746.111.404-.086.792-.23 1.154-.429.25-.126.475-.294.669-.496.072-.073.126-.163.156-.262 0 0-.073.084-.212.206-.203.175-.43.32-.674.43-.353.175-.728.303-1.115.379-.464.08-.924-.165-1.115-.597-.077-.217-.048-.458.078-.652.144-.162.342-.267.558-.295.219-.04.432-.108.635-.2.195-.092.33-.277.357-.491.003-.295-.13-.575-.363-.758-.128-.106-.222-.184-.228-.173z" transform="translate(-80 -1077) matrix(-1 0 0 1 339.149 1084) translate(.815 .789) translate(47.927 5.775)"/>
                        <path fill="#EB996E" d="M130.524 55.98s-.106 0-.245.117c-.196.174-.3.43-.279.691.049.392.3.73.663.886.433.174.916.174 1.349 0 .436-.152.813-.439 1.076-.819.21-.307.335-.665.362-1.036.02-.249-.008-.499-.084-.736-.018-.09-.056-.173-.111-.245.06.317.081.641.061.964-.104.77-.632 1.416-1.365 1.672-.391.152-.825.152-1.215 0-.315-.124-.543-.403-.602-.736-.028-.226.043-.454.195-.624.111-.084.206-.117.195-.134zM126.383 53.935s0-.178-.161-.435c-.214-.34-.533-.6-.909-.74v.166c.193-.09.38-.195.558-.312.659-.382 1.199-.94 1.56-1.61-.505.54-1.066 1.025-1.672 1.449-.19.117-.373.222-.557.312l-.19.1.201.067c.347.123.65.343.875.635.206.218.267.374.295.368zM134.135 51.271c-.033-.033-.295.256-.329.719-.033.463.19.78.235.752.044-.028-.073-.34-.04-.74.034-.402.184-.697.134-.73z" transform="translate(-80 -1077) matrix(-1 0 0 1 339.149 1084) translate(.815 .789) translate(47.927 5.775)"/>
                        <path fill="#FFBE9D" d="M17.934 59.937s-3.634-5.89-4.28-6.392c-.647-.502-6.404-2.608-6.894-2.452-.49.156-7.468 1.343-6.688 2.173.78.83 5.668-.072 5.668-.072l.658.329s-4.208.668-5.094 1.181c-.886.513-.557 1.466.24 1.388.797-.078 4.42-.786 4.636-.636.218.15-3.973.987-4.425 1.249-.607.362-.668 1.438.1 1.387.452-.033 4.403-1.053 4.403-1.053-1.166.431-2.309.926-3.421 1.483-.474.45-.1 1.114.557.98.468-.1 2.68-1.159 3.305-1.293 0 0 .557.156 1.114 1.338.245.557 1.371 3.985 3.428 3.94 1.822-.039 3.61 1.46 3.61 1.46l3.083-5.01z" transform="translate(-80 -1077) matrix(-1 0 0 1 339.149 1084) translate(.815 .789) translate(47.927 5.775)"/>
                        <path fill="#EB996E" d="M.106 53.283c.394.204.827.324 1.27.351.477.068.958.089 1.438.061.558-.061 1.115-.139 1.728-.228l1.304-.19h-.078c.974.4 1.98.716 3.01.942-.933-.491-1.904-.905-2.904-1.237h-.078l-1.293.173-1.711.25c-.464.036-.93.036-1.393 0-.792-.055-1.282-.172-1.293-.122z" transform="translate(-80 -1077) matrix(-1 0 0 1 339.149 1084) translate(.815 .789) translate(47.927 5.775)"/>
                        <path fill="#FFBE9D" d="M15.209 59.24c-.486.346-1.137.346-1.622 0-.496-.3-.88-.758-1.354-1.114-1.416-1.003-3.461-.764-4.832-1.834-.19-.145-.38-.39-.273-.607.106-.217.368-.223.596-.217l5.746.133" transform="translate(-80 -1077) matrix(-1 0 0 1 339.149 1084) translate(.815 .789) translate(47.927 5.775)"/>
                        <path fill="#EB996E" d="M13.47 55.624c-.203-.05-.41-.077-.619-.078-.401 0-.98-.062-1.672-.09l-2.513-.1h-.73c-.293-.055-.596.009-.842.178-.146.147-.184.37-.094.558.064.146.164.274.29.373.222.173.463.32.718.44.973.354 1.97.639 2.982.853.417.126.814.314 1.176.557.334.229.613.507.897.736.43.414 1.022.618 1.616.557.43-.078.557-.312.557-.312-.174.094-.362.158-.557.19-.548 0-1.072-.226-1.449-.625-.262-.228-.557-.518-.891-.78-.381-.264-.8-.467-1.243-.602-.992-.227-1.969-.513-2.926-.858-.232-.108-.453-.241-.658-.396-.184-.15-.273-.356-.172-.434.1-.078.362-.095.607-.09h4.915c.205.001.41-.025.608-.077z" transform="translate(-80 -1077) matrix(-1 0 0 1 339.149 1084) translate(.815 .789) translate(47.927 5.775)"/>
                        <path fill="#EA0028" d="M46.255 190.472l-1.32 14.612-4.386 11.263c-.15.388-.133.821.048 1.196.18.375.508.658.905.783.464.146.97.06 1.36-.234 2.468-1.878 11.513-8.845 11.552-9.92.045-1.243 2.43-15.348 2.43-15.348l-10.589-2.352z" transform="translate(-80 -1077) matrix(-1 0 0 1 339.149 1084) translate(.815 .789) translate(47.927 5.775)"/>
                        <g fill="#FFF" opacity=".6">
                            <path d="M.262 11.575L13.286.429l-.067.619c-.062.534-.31 1.03-.702 1.399-1.048.98-4.007 3.633-10.85 8.916-.4.308-.928.394-1.405.229v-.017z" transform="translate(-80 -1077) matrix(-1 0 0 1 339.149 1084) translate(.815 .789) translate(47.927 5.775) translate(41.24 206.756)"/>
                        </g>
                        <g fill="#FFF" opacity=".6">
                            <path d="M.797.407C.397.64.234 1.135.418 1.56c.215.4.7.567 1.115.385.426-.244.6-.771.4-1.22C1.664.316 1.12.195.704.45" transform="translate(-80 -1077) matrix(-1 0 0 1 339.149 1084) translate(.815 .789) translate(47.927 5.775) translate(51.271 201.74)"/>
                        </g>
                        <path fill="#263238" d="M45.564 212.33c-.089.033-.328-.77-1.153-1.283-.51-.271-1.065-.445-1.639-.512 0-.034.19-.128.558-.14.455.001.9.135 1.281.385.385.24.69.59.875 1.003.117.334.112.546.078.546zM44.3 214.174c-.073.056-.491-.474-1.221-.775-.46-.141-.926-.257-1.399-.345.487-.23 1.056-.212 1.527.05.82.34 1.176 1.042 1.092 1.07zM47.782 210.055c-.568-.484-1.171-.926-1.805-1.32-1.081-.585-2.112-.652-2.101-.753.784-.116 1.584.05 2.257.468.722.323 1.307.892 1.65 1.605zM48.557 205.642c-.05.083-.814-.346-1.861-.502-1.048-.156-1.9 0-1.923-.095 1.275-.51 2.728-.28 3.784.597zM49.042 201.367c-.612-.274-1.26-.461-1.923-.557-.672-.002-1.34.086-1.99.262 0-.034.157-.195.519-.351.472-.198.984-.278 1.494-.234.51.04 1.004.199 1.443.462.345.195.496.385.457.418zM47.253 199.98c-.028-.187-.013-.378.045-.558.107-.499.312-.972.601-1.393.188-.325.475-.58.82-.73.243-.074.507.01.663.212.135.201.19.445.156.685-.184 1.003-1.054 1.735-2.073 1.745-1-.013-1.893-.627-2.263-1.555-.09-.233-.075-.492.04-.714.143-.21.405-.307.651-.24.35.118.662.328.903.608.363.36.657.783.87 1.249.09.163.147.343.167.529-.317-.594-.719-1.138-1.193-1.616-.221-.233-.497-.408-.803-.507-.134-.04-.279.011-.356.128-.065.15-.065.319 0 .468.34.792 1.111 1.31 1.973 1.326.86-.009 1.6-.613 1.783-1.454.028-.165-.004-.335-.09-.48-.08-.115-.227-.165-.361-.122-.294.122-.541.332-.708.602-.38.552-.66 1.167-.825 1.817z" transform="translate(-80 -1077) matrix(-1 0 0 1 339.149 1084) translate(.815 .789) translate(47.927 5.775)"/>
                        <path fill="#263238" d="M59.709 199.049l10.94-86.632-3.5-20.14-20.62 1.114-2.58 104.058c-.025.776.518 1.455 1.281 1.6l12.015 1.856c.574.087 1.159-.06 1.622-.41.464-.35.767-.87.842-1.446z" transform="translate(-80 -1077) matrix(-1 0 0 1 339.149 1084) translate(.815 .789) translate(47.927 5.775)"/>
                        <path fill="#263238" d="M70.33 115.321l19.902 19.695-28.629 6.96 2.034 14.445 38.755-5.272c3.311-.453 6.292-2.244 8.248-4.954 3.002-4.162 3.078-9.758.19-14L80.634 87.88l-13.487 4.397 3.183 23.044z" transform="translate(-80 -1077) matrix(-1 0 0 1 339.149 1084) translate(.815 .789) translate(47.927 5.775)"/>
                        <path fill="#455A64" d="M69.233 110.31c.324.797.556 1.627.69 2.475.236.826.373 1.678.408 2.536-.32-.797-.552-1.627-.691-2.474-.23-.828-.366-1.678-.407-2.536z" transform="translate(-80 -1077) matrix(-1 0 0 1 339.149 1084) translate(.815 .789) translate(47.927 5.775)"/>
                        <path fill="#455A64" d="M66.318 143.782l.474-.156 1.393-.435 5.339-1.621 19.427-5.84-.05.183-23.886-25.44.251-.079c-.474 3.996-.97 8.17-1.471 12.428-2.463 20.62-4.782 39.3-6.57 52.798-.892 6.75-1.672 12.205-2.23 15.972-.317 1.873-.557 3.344-.747 4.32-.1.484-.183.852-.24 1.114-.055.262-.088.379-.088.379s0-.134.06-.385c.062-.25.124-.635.213-1.114.2-.981.39-2.447.69-4.325.558-3.773 1.294-9.229 2.152-15.983 1.744-13.498 4.024-32.173 6.487-52.804.507-4.257 1.003-8.432 1.477-12.427l.033-.307.212.223 23.824 25.485.123.134-.173.05-19.455 5.751-5.361 1.566-1.4.402c-.3.111-.484.111-.484.111z" transform="translate(-80 -1077) matrix(-1 0 0 1 339.149 1084) translate(.815 .789) translate(47.927 5.775)"/>
                        <path fill="#455A64" d="M59.892 197.416c-.078 0 2.196-18.39 5.077-41.067 2.882-22.676 5.284-41.04 5.362-41.028.078.011-2.19 18.39-5.072 41.067-2.881 22.676-5.283 41.034-5.367 41.028zM67.104 101.143c.2.43.353.88.457 1.343.245.836.557 2.012.836 3.316.278 1.304.496 2.497.624 3.344.098.464.145.936.14 1.41-.159-.446-.273-.908-.34-1.376-.207-.953-.447-2.085-.708-3.344-.262-1.26-.558-2.374-.747-3.344-.134-.44-.221-.891-.262-1.349zM68.38 99.444s.279-.273.808-.09c.313.115.542.386.602.714.079.412-.1.83-.451 1.059-.36.193-.803.146-1.115-.117-.257-.221-.358-.574-.256-.898.055-.207.19-.385.373-.496.128-.072.212-.072.217-.055-.191.15-.328.36-.39.596-.055.242.034.493.229.646.236.186.56.214.825.073.247-.17.376-.466.334-.764-.041-.244-.2-.452-.424-.557-.236-.102-.496-.14-.752-.111zM96.094 138.387c-.061.062-1.181-.97-2.786-1.894-1.605-.926-3.054-1.405-3.026-1.488 1.13.198 2.21.618 3.176 1.237 1.01.536 1.906 1.265 2.636 2.145z" transform="translate(-80 -1077) matrix(-1 0 0 1 339.149 1084) translate(.815 .789) translate(47.927 5.775)"/>
                        <path fill="#EA0028" d="M53.082 33.22l-11.424 5.518 4.926 34.373-1.934 15.426c-.251 1.988.503 3.971 2.012 5.29l18.452-.363 12.907-7.083 5.935-1.003-2.43-11.743 1.115-16.657 13.503 7.206c1.04.557 2.252.702 3.394.406l24.739-6.425-1.288-9.541-22.414 2.536-17.07-15.08-12.706-2.86-2.252-3.74H55.546l-.931.68c-.434.327-.762.775-.942 1.288l-.59 1.772z" transform="translate(-80 -1077) matrix(-1 0 0 1 339.149 1084) translate(.815 .789) translate(47.927 5.775)"/>
                        <path fill="#EA0028" d="M41.658 38.738c-2.375 1.633-4.175 3.973-5.144 6.687-1.304 4.057-4.252 20.458-4.252 20.458l-12.98-8.036-7.478 7.864L29.08 80.969c2.652 2.34 6.448 2.865 9.635 1.332 2.66-1.282 4.499-3.812 4.899-6.737l2.123-15.555-4.08-21.271z" transform="translate(-80 -1077) matrix(-1 0 0 1 339.149 1084) translate(.815 .789) translate(47.927 5.775)"/>
                        <path fill="#FFBE9D" d="M80.635 87.88L79.832 86.698 71.289 88.275 69.718 91.915z" transform="translate(-80 -1077) matrix(-1 0 0 1 339.149 1084) translate(.815 .789) translate(47.927 5.775)"/>
                        <path fill="#EA0028" d="M46.662 93.826c7.635 3.07 15.788 1.94 23.056-1.911 2.195-1.165 4.23-2.609 6.436-3.757 2.207-1.148 4.648-1.99 7.128-1.816 2.48.172 4.977 1.538 5.969 3.817.992 2.28 0 5.378-2.335 6.23l.824.736c3.428-1.594 5.055-6.208 3.383-9.602-1.282-2.597-3.979-4.152-5.952-6.275-2.903-3.12-3.204-9.162-3.226-13.866" transform="translate(-80 -1077) matrix(-1 0 0 1 339.149 1084) translate(.815 .789) translate(47.927 5.775)"/>
                        <path fill="#263238" d="M63.409 39.869c-.185.015-.372.015-.557 0-.511.04-.991.262-1.355.624-.485.618-.726 1.394-.674 2.18.005 1.006.215 2.002.619 2.925l.217.48-.418-.313c-1.031-.765-1.995-1.617-2.881-2.547-1.896-1.954-3.398-4.255-4.425-6.777-.302-.763-.542-1.55-.719-2.351-.065-.296-.108-.596-.128-.898.278 1.078.625 2.137 1.036 3.171 1.074 2.469 2.584 4.723 4.459 6.655.874.916 1.821 1.76 2.83 2.524l-.205.173c-.222-.5-.382-1.027-.474-1.566-.096-.486-.139-.981-.128-1.477-.04-.837.24-1.659.786-2.296.394-.378.919-.592 1.465-.596.187.008.372.038.552.089z" transform="translate(-80 -1077) matrix(-1 0 0 1 339.149 1084) translate(.815 .789) translate(47.927 5.775)"/>
                        <path fill="#EA0028" d="M64.089 39.869c.942-.407 2.335.19 3.01.958.445.513.696 1.215 1.281 1.55.585.334 2.447.596 2.987.184 0 0 .329-1.589.507-2.23.62-2.504 1.044-5.053 1.265-7.623-1.794-.875-1.298-2.023-4.536-1.8.467 1.478.508 3.058.117 4.558" transform="translate(-80 -1077) matrix(-1 0 0 1 339.149 1084) translate(.815 .789) translate(47.927 5.775)"/>
                        <path fill="#263238" d="M68.726 35.45c-.034 0 .117-.43.183-1.221.075-1.117-.062-2.238-.4-3.305l-.04-.133h.134c.801-.105 1.615-.033 2.385.211.419.193.797.463 1.115.797.329.313.705.573 1.114.77l.09.044v.095c-.145 1.354-.307 2.83-.558 4.358-.167.997-.368 1.961-.602 2.88-.234.92-.418 1.807-.613 2.642v.056l-.033.028c-.292.165-.624.245-.959.229-.298.004-.596-.015-.891-.056-.283-.04-.563-.102-.836-.184-.271-.073-.521-.209-.73-.396-.325-.364-.612-.76-.859-1.181-.237-.322-.537-.592-.88-.797-.48-.31-1.034-.483-1.605-.502-.203.01-.405.04-.602.09.183-.108.39-.168.602-.173.589-.016 1.17.139 1.672.446.37.206.695.487.953.824.248.398.533.772.852 1.115.426.302.928.476 1.45.501.282.038.567.053.852.045.279.01.556-.054.803-.184l-.05.078c.189-.841.367-1.744.596-2.658.228-.914.429-1.873.59-2.865.257-1.515.424-2.987.558-4.335l.078.139c-.441-.21-.847-.486-1.204-.82-.287-.316-.634-.573-1.02-.757-.733-.237-1.508-.317-2.274-.234l.095-.14c.328 1.096.436 2.246.318 3.383-.04.307-.104.61-.19.909-.019.103-.05.204-.094.3zM87.763 88.053v-.636c-.05-.61-.24-1.199-.558-1.722-.508-.82-1.213-1.5-2.05-1.978-1.13-.6-2.378-.943-3.656-1.003-1.416-.129-2.987-.05-4.676-.168-1.804-.099-3.582-.475-5.272-1.114-1.884-.722-3.53-1.953-4.754-3.556-.635-.856-1.098-1.827-1.365-2.859-.266-1.06-.371-2.156-.312-3.249.083-2.229.59-4.296.897-6.325.306-1.948.492-3.914.557-5.885.164-5.61-.641-11.205-2.38-16.54-.233-.764-.45-1.344-.59-1.74-.067-.189-.117-.34-.156-.456-.021-.05-.036-.103-.045-.156 0 0 .028.044.073.145.044.1.106.262.184.446.156.39.39.964.646 1.727.74 2.14 1.32 4.33 1.739 6.554.613 3.307.88 6.669.797 10.031-.062 1.985-.248 3.963-.557 5.924-.301 2.04-.803 4.124-.886 6.292-.17 2.105.402 4.202 1.616 5.93 1.19 1.564 2.791 2.766 4.625 3.472 1.662.635 3.412 1.01 5.189 1.114 1.672.123 3.243.062 4.68.206 1.319.075 2.603.446 3.757 1.087.852.5 1.562 1.21 2.062 2.062.313.54.49 1.149.513 1.772.008.163-.002.325-.028.485-.034.106-.045.14-.05.14z" transform="translate(-80 -1077) matrix(-1 0 0 1 339.149 1084) translate(.815 .789) translate(47.927 5.775)"/>
                        <path fill="#263238" d="M79.426 77.904c-.193.243-.407.467-.641.669-.212.206-.48.457-.803.73-.323.273-.68.602-1.114.92-.983.774-2.012 1.486-3.082 2.134-2.629 1.585-5.475 2.777-8.449 3.539-1.212.309-2.442.541-3.683.696-.53.084-1.01.112-1.433.145-.423.034-.786.056-1.086.062-.308.026-.618.026-.926 0 .304-.058.611-.093.92-.106.295 0 .658-.05 1.076-.106.418-.056.897-.09 1.42-.184 1.228-.187 2.445-.44 3.645-.758 1.466-.398 2.904-.887 4.308-1.466 1.399-.594 2.758-1.277 4.068-2.045 1.07-.631 2.104-1.32 3.099-2.062.43-.306.797-.619 1.115-.88.317-.262.607-.496.83-.691.23-.217.477-.416.736-.597zM75.837 59.63c-.002.105-.019.208-.05.307l-.196.87c-.096.46-.219.913-.367 1.36-.168.523-.33 1.114-.591 1.771-.128.324-.256.664-.39 1.015-.134.35-.318.702-.48 1.075-.323.753-.746 1.51-1.175 2.319-1.956 3.476-4.541 6.558-7.624 9.09-.725.556-1.399 1.114-2.084 1.56-.335.228-.652.462-.976.663l-.93.557c-.558.373-1.154.64-1.644.897-.413.221-.837.42-1.271.597l-.825.345c-.095.042-.194.076-.295.1.085-.062.176-.114.273-.156l.797-.39c.35-.161.774-.368 1.248-.64.474-.274 1.037-.558 1.61-.926l.915-.557c.317-.2.63-.44.964-.669.669-.451 1.332-1.003 2.045-1.571 1.506-1.274 2.906-2.668 4.185-4.169 1.253-1.522 2.383-3.141 3.378-4.843.434-.802.863-1.55 1.187-2.29.172-.368.35-.72.496-1.065l.4-1.003c.28-.63.452-1.226.63-1.744.179-.519.318-.97.419-1.343l.245-.853c.02-.107.056-.21.106-.306zM52.336 96.624c-.386-.185-.732-.443-1.02-.758-1.49-1.455-2.33-3.451-2.324-5.534-.021-.425.035-.85.167-1.254.05 0 0 .485.039 1.248.112 2.008.913 3.915 2.268 5.4.518.563.92.859.87.898zM51.929 92.282c.083 0-.073.742 0 1.617.072.875.345 1.56.267 1.599-.636-.954-.74-2.168-.273-3.216h.006zM46.428 72.331c-.035-.083-.058-.171-.067-.262-.039-.206-.083-.457-.139-.758-.117-.702-.279-1.671-.468-2.786-.39-2.357-.948-5.612-1.616-9.195-.669-3.584-1.321-6.827-1.784-9.173-.234-1.115-.429-2.074-.557-2.787-.061-.3-.106-.557-.145-.752-.026-.089-.037-.181-.033-.273.04.08.07.167.089.256.056.206.117.451.195.747.167.646.396 1.588.663 2.753.557 2.33 1.22 5.573 1.895 9.15.674 3.578 1.187 6.855 1.527 9.218.173 1.187.3 2.146.379 2.787l.084.769c.01.102.002.206-.023.306zM82.095 72.331c-.017-.09-.027-.181-.028-.273v-.791-2.915c0-2.457.134-5.851.418-9.59.284-3.74.658-7.118.948-9.558.15-1.187.273-2.163.367-2.887.045-.312.084-.574.117-.786.01-.09.028-.18.056-.268.015.093.015.187 0 .28 0 .21-.039.473-.061.785-.067.73-.162 1.705-.273 2.898-.24 2.44-.558 5.818-.864 9.557-.307 3.74-.424 7.123-.502 9.575-.033 1.192-.06 2.173-.083 2.909l-.028.791c-.008.094-.03.186-.067.273zM37.534 73.77c-.095.038-.83-1.99-2.23-4.197-1.398-2.207-3.092-3.595-3.02-3.667.411.242.786.54 1.115.886.82.79 1.548 1.668 2.173 2.619.614.956 1.136 1.967 1.56 3.02.19.428.324.877.402 1.338z" transform="translate(-80 -1077) matrix(-1 0 0 1 339.149 1084) translate(.815 .789) translate(47.927 5.775)"/>
                        <path fill="#263238" d="M38.492 71.334c-.23-.359-.438-.731-.624-1.115-.51-.848-1.162-1.602-1.928-2.23-.782-.62-1.638-1.142-2.547-1.554-.387-.154-.76-.34-1.114-.557.418.06.825.18 1.209.356.959.365 1.854.878 2.653 1.522.797.652 1.452 1.462 1.922 2.38.213.37.358.776.43 1.198z" transform="translate(-80 -1077) matrix(-1 0 0 1 339.149 1084) translate(.815 .789) translate(47.927 5.775)"/>
                        <path fill="#FAFAFA" d="M44.232 57.959s-.027.089-.117.245c-.135.225-.306.427-.507.596-.759.632-1.756.901-2.73.736-1.43-.3-2.673-1.177-3.433-2.424-.45-.702-.823-1.45-1.115-2.23-.156-.406-.312-.819-.446-1.254-.148-.452-.2-.93-.156-1.404.056-.493.3-.946.68-1.265.398-.287.904-.377 1.377-.245.86.241 1.546.892 1.833 1.739.279.754.194 1.595-.228 2.279-.365.586-.929 1.02-1.589 1.22-.55.165-1.14.138-1.672-.078-.392-.153-.744-.393-1.03-.702-.184-.189-.331-.41-.435-.652-.073-.167-.095-.256-.084-.262.157.306.358.588.596.836.288.28.632.494 1.01.63.493.177 1.03.189 1.532.033.603-.196 1.116-.604 1.443-1.148.374-.622.442-1.383.184-2.062-.264-.764-.89-1.347-1.672-1.555-.383-.103-.792-.029-1.114.201-.316.272-.516.655-.558 1.07-.1.864.29 1.711.558 2.513.287.783.66 1.53 1.114 2.23.715 1.198 1.885 2.055 3.244 2.374.923.17 1.876-.057 2.624-.624.263-.236.495-.504.691-.797zM66.145 66.502l-.156.128c-.111.095-.267.212-.462.362-.601.46-1.243.863-1.917 1.204-.495.248-1.022.424-1.566.524-.653.116-1.324.072-1.956-.128-1.504-.592-2.753-1.692-3.528-3.11-2.189-3.654-2.15-8.226.1-11.842.61-1.062 1.525-1.916 2.625-2.452.591-.255 1.242-.338 1.878-.24.66.089 1.26.43 1.672.953.405.546.592 1.224.524 1.9-.05.67-.255 1.32-.602 1.895-.727 1.157-1.817 2.04-3.099 2.513-1.27.474-2.639.616-3.979.413-1.296-.201-2.526-.711-3.583-1.488-1.969-1.5-3.44-3.559-4.219-5.907-.44-1.07-.617-2.23-.513-3.383.086-.56.31-1.088.653-1.538.333-.448.815-.763 1.36-.886 1.034-.193 2.094.176 2.786.97.618.74.866 1.723.674 2.669-.147.841-.545 1.618-1.142 2.229-.535.538-1.177.957-1.884 1.231-1.127.436-2.333.626-3.539.558-.747-.036-1.49-.112-2.229-.229l-.585-.094-.195-.04h.2l.586.067c.512.05 1.27.15 2.229.173 1.185.056 2.369-.134 3.477-.557.682-.271 1.3-.684 1.811-1.21.57-.593.945-1.345 1.076-2.156.173-.885-.062-1.8-.64-2.491-.65-.725-1.63-1.059-2.587-.88-1.002.302-1.72 1.185-1.81 2.228-.1 1.11.076 2.229.512 3.255.764 2.293 2.201 4.303 4.124 5.768 1.025.745 2.214 1.234 3.466 1.427 1.29.197 2.607.06 3.829-.396 1.222-.446 2.26-1.285 2.953-2.385.32-.54.511-1.147.558-1.772.065-.605-.1-1.212-.463-1.7-.372-.468-.912-.774-1.505-.853-.584-.09-1.183-.015-1.727.217-1.048.514-1.92 1.33-2.502 2.341-1.174 1.845-1.767 4-1.7 6.186.04 1.905.572 3.767 1.544 5.406.743 1.386 1.948 2.468 3.405 3.06 1.141.332 2.368.21 3.421-.34.676-.331 1.323-.717 1.934-1.154l.48-.335c.065-.046.136-.083.211-.111zM50.77 35.232c-.036.173-.096.34-.179.496-.2.44-.44.86-.719 1.254-1.851 2.694-5 4.196-8.259 3.94-.48-.03-.955-.107-1.42-.228-.177-.033-.346-.093-.502-.179 0-.05.735.162 1.933.207 3.167.13 6.194-1.314 8.087-3.857.719-.959 1.003-1.66 1.059-1.633zM59 37.6c-.564.167-1.095.43-1.57.775-.421.413-.766.896-1.02 1.427-.034 0-.045-.223.066-.557.315-.868 1.066-1.504 1.973-1.672.34-.05.552-.006.552.028zM70.776 40.878c-.172-.037-.333-.111-.473-.218-.406-.253-.762-.58-1.048-.964-.44-.57-.708-1.255-.775-1.973-.037-.445.085-.89.346-1.254.281-.423.786-.642 1.287-.557.487.123.872.494 1.015.975.144.443.047.929-.257 1.282-.484.598-1.295.822-2.017.557-.46-.177-.85-.497-1.115-.914-.106-.14-.176-.305-.206-.479 0 0 .1.162.3.413.275.36.649.634 1.076.785.63.21 1.325.008 1.745-.507.238-.287.312-.676.195-1.03-.12-.38-.424-.672-.808-.775-.39-.065-.783.105-1.003.434-.219.31-.325.686-.301 1.065.05.674.283 1.32.674 1.872.382.5.843.936 1.365 1.288zM73.006 34.374c-.543-.525-1.165-.96-1.845-1.287-.719-.243-1.47-.37-2.23-.38 0-.033.24-.133.67-.161.57-.041 1.143.052 1.671.273.524.215.992.545 1.371.964.29.323.396.574.363.59zM88.331 40.86s-.033.029-.106.068l-.334.178c-.301.145-.747.346-1.343.557-1.683.617-3.457.95-5.25.987-.599.012-1.198-.046-1.783-.173-.649-.133-1.253-.428-1.756-.858-.541-.487-.854-1.178-.863-1.906-.008-.764.254-1.506.74-2.096 1.148-1.199 2.882-1.633 4.46-1.114 1.691.471 3.03 1.767 3.555 3.444.504 1.686.102 3.514-1.065 4.832-1.113 1.148-2.553 1.926-4.124 2.229-1.394.267-2.81.41-4.23.429-1.224.022-2.445.141-3.65.357-1.754.286-3.346 1.194-4.486 2.558-.39.52-.68 1.108-.858 1.733-.008-.043-.008-.086 0-.128 0-.084.039-.212.089-.368.15-.467.372-.907.657-1.304 1.132-1.425 2.75-2.383 4.542-2.692 1.213-.234 2.444-.366 3.678-.396 1.404-.025 2.803-.174 4.18-.446 1.513-.296 2.899-1.046 3.974-2.15 1.098-1.246 1.475-2.97.997-4.56-.493-1.58-1.75-2.804-3.344-3.254-1.47-.474-3.081-.072-4.157 1.037-.45.538-.696 1.22-.691 1.922.002.66.28 1.29.77 1.733.478.41 1.053.693 1.671.82.567.128 1.147.19 1.728.184 1.774-.02 3.534-.319 5.216-.887.59-.206 1.042-.39 1.349-.518.139-.083.284-.156.434-.217zM74.432 62.746c-.05 0-.24-.468-.752-1.115-1.33-1.746-3.539-2.579-5.69-2.145-.808.156-1.276.39-1.299.345.37-.28.8-.47 1.254-.557 2.242-.574 4.604.317 5.908 2.229.286.364.484.79.58 1.243zM80.941 66.959c-.156.43-.419.813-.763 1.115-1.635 1.671-4.253 1.878-6.13.484-.388-.248-.707-.59-.93-.992.038-.039.356.38 1.047.82.89.578 1.944.852 3.004.78 1.058-.098 2.056-.534 2.847-1.243.63-.535.88-.997.925-.964zM82.636 55.869c0 .044-.363-.162-.953-.318-1.568-.434-3.244.102-4.27 1.366-.39.473-.556.83-.59.813.058-.344.206-.668.43-.936 1.004-1.433 2.84-2.02 4.491-1.438.337.09.645.266.892.513zM103.4 50.742c.044.135.077.272.1.412.038.169.06.34.068.513.02.235.02.472 0 .708-.07 1.52-.63 2.977-1.6 4.151-.642.826-1.453 1.504-2.38 1.99-1.076.545-2.27.819-3.477.797-2.796-.051-5.422-1.35-7.161-3.539-.46-.573-.802-1.23-1.009-1.934-.198-.695-.186-1.434.034-2.123.21-.68.678-1.253 1.304-1.594.608-.297 1.3-.378 1.961-.228.631.12 1.213.425 1.672.875.416.427.729.943.914 1.51.316 1.014.306 2.101-.028 3.11-.267.831-.716 1.593-1.315 2.229-.445.472-.962.871-1.533 1.181-.354.19-.728.343-1.114.457-.14.037-.28.063-.424.078.521-.16 1.025-.37 1.505-.63 1.284-.742 2.249-1.933 2.708-3.343.307-.967.307-2.004 0-2.97-.174-.53-.47-1.011-.863-1.405-.422-.408-.952-.684-1.527-.797-.602-.131-1.23-.057-1.784.212-.56.309-.976.825-1.159 1.438-.204.634-.214 1.315-.028 1.956.195.668.521 1.291.959 1.833 1.686 2.12 4.225 3.383 6.933 3.45 2.215.062 4.333-.915 5.723-2.642.955-1.139 1.53-2.547 1.644-4.029 0-.558-.04-1.115-.123-1.666zM107.697 62.283c-.133-.109-.248-.238-.34-.384-.275-.381-.48-.808-.607-1.26-.169-.678-.197-1.383-.084-2.073.131-.832.317-1.655.557-2.463.485-1.452 1.155-2.834 1.996-4.113.312-.49.557-.886.769-1.148.088-.147.195-.282.317-.401-.262.578-.566 1.137-.908 1.672-.78 1.29-1.415 2.661-1.895 4.09-.23.796-.415 1.603-.557 2.419-.127.655-.127 1.329 0 1.984.18.588.433 1.151.752 1.677zM118.252 49.46c.077.124.134.26.168.401.124.372.218.755.278 1.143.429 2.605-.168 5.276-1.666 7.45-.219.328-.465.635-.736.92-.195.2-.306.307-.323.296-.017-.012.373-.496.886-1.327.666-1.086 1.15-2.274 1.432-3.516.271-1.245.333-2.525.184-3.79-.094-.975-.273-1.56-.223-1.577zM81.783 75.525c-.084-.034-.165-.077-.24-.129-.22-.134-.446-.257-.68-.367-.854-.413-1.775-.671-2.72-.764-1.396-.132-2.804.094-4.09.658-.756.328-1.448.786-2.045 1.354-.317.288-.587.622-.802.992-.223.368-.321.798-.28 1.226.038.418.253.8.592 1.048.34.2.757.219 1.114.05.709-.383 1.118-1.155 1.037-1.956-.049-1.402-.835-2.674-2.068-3.344-.84-.434-1.807-.56-2.73-.357-.337.088-.668.194-.993.318.07-.061.15-.112.235-.15.233-.118.478-.211.73-.28.954-.253 1.969-.15 2.853.29 1.322.691 2.173 2.038 2.23 3.528.012.433-.07.863-.24 1.26-.186.428-.523.771-.948.964-.452.217-.983.19-1.41-.073-.412-.293-.676-.75-.724-1.253-.051-.489.06-.98.317-1.4.229-.395.518-.753.859-1.058.623-.587 1.346-1.059 2.134-1.393 1.33-.568 2.783-.78 4.219-.619.963.11 1.896.405 2.747.87.232.12.454.26.663.417.173.095.251.156.24.168zM83.8 80.133c-.137.467-.366.9-.674 1.277-.44.663-.847 1.164-.914 1.114.137-.466.366-.9.674-1.276.44-.658.848-1.16.914-1.115zM90.878 88.108c-.045 0-.123-.195-.318-.485-.513-.755-1.355-1.223-2.268-1.259-.345 0-.557.028-.557 0s.195-.15.557-.19c1.018-.08 1.984.459 2.452 1.366.156.323.167.563.134.568zM67.856 85.266c0 .04-.669.379-1.744.998-1.411.767-2.69 1.755-3.79 2.925-1.078 1.189-1.778 2.67-2.012 4.258-.054.663-.043 1.33.034 1.99-.08-.165-.133-.342-.156-.524-.1-.488-.125-.987-.078-1.483.176-1.651.875-3.203 1.995-4.43 1.115-1.2 2.436-2.188 3.901-2.92.557-.284 1.014-.496 1.332-.636.162-.086.337-.146.518-.178zM76.043 87.991s-.312-.184-.608-.669c-.744-1.329-.605-2.977.351-4.162.18-.249.425-.442.708-.558.034.045-.24.251-.557.686-.796 1.163-.921 2.66-.329 3.94.24.473.474.73.435.763zM63.247 77.893s-.1-.123-.323-.323c-.33-.276-.732-.454-1.159-.513-.675-.1-1.364.043-1.945.401-.756.501-1.386 1.169-1.845 1.95-.557.848-1.014 1.868-1.722 2.86-.75 1.076-1.826 1.881-3.07 2.296-1.386.462-2.896.374-4.22-.245-1.425-.658-2.538-1.846-3.103-3.31-.293-.75-.326-1.576-.095-2.347.254-.746.768-1.375 1.449-1.772.64-.404 1.399-.579 2.151-.496.715.102 1.381.42 1.912.908.979.9 1.528 2.176 1.51 3.506-.024 1.14-.385 2.247-1.037 3.182-.528.77-1.216 1.416-2.017 1.895-.599.36-1.241.64-1.912.836-.422.12-.852.21-1.287.267l-.34.04h-.122c.148-.043.298-.075.451-.096.428-.08.851-.187 1.265-.323.654-.208 1.28-.498 1.861-.864.769-.477 1.426-1.114 1.929-1.867.616-.906.953-1.974.97-3.07.004-1.257-.523-2.457-1.45-3.305-.49-.45-1.107-.74-1.766-.83-.69-.074-1.386.087-1.973.457-.618.367-1.086.942-1.32 1.621-.21.712-.177 1.472.094 2.163.542 1.39 1.6 2.519 2.954 3.148 1.256.594 2.693.682 4.012.246 1.196-.39 2.234-1.157 2.96-2.185.696-.953 1.175-1.973 1.744-2.826.484-.8 1.148-1.477 1.939-1.978.613-.364 1.337-.497 2.04-.373.44.066.85.26 1.181.557.117.113.213.245.284.39zM63.431 86.576c-.348-.166-.655-.407-.897-.708-1.287-1.392-1.856-3.302-1.544-5.172.037-.394.16-.774.363-1.114.05 0-.084.429-.156 1.114-.193 1.804.342 3.61 1.488 5.016.44.552.78.825.746.864zM65.482 73.73s-.39-.19-1.114-.474c-2.55-1.02-5.352-1.23-8.026-.601-.931.215-1.83.553-2.675 1.003-.424.22-.743.602-.886 1.058-.09.456.139.915.558 1.115.204.043.416-.025.557-.178.163-.174.278-.387.334-.619.115-.485.158-.985.129-1.482-.039-.953-.282-1.886-.714-2.737-.382-.773-.917-1.461-1.571-2.023-.577-.485-1.236-.862-1.945-1.114-1.034-.366-2.141-.477-3.227-.323-.77.122-1.176.295-1.182.267.088-.058.184-.103.285-.134 1.356-.488 2.84-.488 4.196 0 .737.248 1.424.626 2.029 1.115.691.575 1.26 1.284 1.672 2.084.455.884.714 1.855.757 2.848.033.528-.012 1.057-.133 1.572-.073.278-.213.534-.407.746-.223.236-.556.332-.87.251-.294-.098-.534-.314-.663-.596-.126-.267-.169-.566-.122-.858.158-.538.528-.989 1.025-1.249.869-.462 1.797-.804 2.759-1.014 1.62-.371 3.295-.434 4.937-.184 1.102.167 2.176.482 3.194.936.283.125.558.267.824.424.194.1.287.156.28.167zM22.052 75.33s.346-.268.897-.825c.777-.793 1.373-1.743 1.75-2.787.593-1.525.543-3.226-.139-4.714-.408-.864-1.018-1.617-1.778-2.196-.8-.625-1.772-.993-2.786-1.053-.508-.016-1.012.09-1.472.306-.442.194-.794.551-.98.998-.146.438-.071.919.2 1.292.258.368.627.644 1.054.786.825.227 1.709.076 2.413-.412.634-.41 1.142-.99 1.465-1.672.439-1.01.676-2.097.697-3.199 0-.368 0-.669.039-.908-.006-.105.003-.21.028-.312.015.103.015.208 0 .312v.908c.043 1.146-.159 2.288-.59 3.35-.331.72-.856 1.334-1.517 1.772-.762.539-1.725.708-2.625.462-.487-.153-.91-.463-1.203-.88-.326-.446-.415-1.021-.24-1.544.204-.518.605-.935 1.115-1.16.502-.238 1.054-.354 1.61-.34 1.081.059 2.118.448 2.97 1.115.795.611 1.43 1.405 1.85 2.313.386.817.576 1.711.558 2.614-.018.782-.173 1.556-.457 2.285-.407 1.056-1.045 2.008-1.867 2.786-.216.207-.451.394-.702.558-.19.1-.284.156-.29.145zM33.605 83.622c-.168-.13-.315-.287-.435-.462-.365-.451-.686-.937-.958-1.45-1.873-3.472-1.593-7.71.719-10.906.33-.47.702-.909 1.114-1.31.15-.152.321-.283.507-.39.04.045-.657.636-1.46 1.834-2.156 3.173-2.427 7.265-.708 10.695.372.684.779 1.348 1.22 1.99zM44.494 71.5c-.05 0-.284-.835-.975-2.067-1.813-3.258-5.097-5.43-8.805-5.823-1.404-.156-2.285-.034-2.285-.09.199-.062.405-.097.613-.105.556-.046 1.116-.046 1.672 0 3.819.285 7.215 2.532 8.972 5.935.264.5.482 1.022.652 1.56.08.189.132.388.156.59z" transform="translate(-80 -1077) matrix(-1 0 0 1 339.149 1084) translate(.815 .789) translate(47.927 5.775)"/>
                        <g fill="#000" opacity=".3">
                            <path d="M.652 7.964C.095 8.192.167 9.039.613 9.407c.494.322 1.09.449 1.672.357C8.926 9.39 15.022 5.967 18.798.49 13.782 4.62 7.15 6.186.79 7.624" transform="translate(-80 -1077) matrix(-1 0 0 1 339.149 1084) translate(.815 .789) translate(47.927 5.775) translate(59.073 79.136)"/>
                        </g>
                        <g fill="#000" opacity=".3">
                            <path d="M.77 17.884c-.558-.842-.18-2.023.556-2.737.77-.646 1.64-1.163 2.575-1.532 3.306-1.642 5.956-4.36 7.512-7.708 1.015-2.195 1.778-4.887 4.024-5.79C14.162 8.012 8.661 14.573 1.11 17.204" transform="translate(-80 -1077) matrix(-1 0 0 1 339.149 1084) translate(.815 .789) translate(47.927 5.775) translate(57.959 63.532)"/>
                        </g>
                        <g fill="#000" opacity=".3">
                            <path d="M2.23.134c.561 6.1.128 12.25-1.283 18.212-.368 1.249-.576 2.539-.618 3.84.093 1.406.762 2.71 1.85 3.606.925-2.135.942-4.191 1.332-6.487.351-2.068.942-6.9.942-6.972C4.536 8.109 3.539 4.486 1.912.68" transform="translate(-80 -1077) matrix(-1 0 0 1 339.149 1084) translate(.815 .789) translate(47.927 5.775) translate(40.683 52.386)"/>
                        </g>
                        <g fill="#000" opacity=".3">
                            <path d="M.468.228c.835 4.501 3.038 8.635 6.309 11.837 1.231 1.199 2.786 2.308 4.486 2.23-.989-2.038-1.292-4.341-.864-6.565 1.447.978 2.985 1.814 4.592 2.496 1.62.676 3.4.87 5.127.558l1.06-9.212c.075-.347.042-.71-.096-1.037-.079-.157-.223-.27-.393-.312-.171-.04-.351-.004-.493.1-.09.12-.15.259-.172.407-.625 2.703-.976 5.127-1.605 7.836-.452.445-1.84.262-2.753-.078-.797-.296-1.115-.953-1.628-1.617-.512-.663-.434-.557-1.215-.88-1.437-.608-4.196-.123-4.798 1.165-.602 1.287-.145 2.987.256 4.257C4.264 8.793 1.366 4.773.151.133" transform="translate(-80 -1077) matrix(-1 0 0 1 339.149 1084) translate(.815 .789) translate(47.927 5.775) translate(52.943 33.995)"/>
                        </g>
                        <g fill="#000" opacity=".3">
                            <path d="M1.32.485C1.21.708 4.794 12.79 4.794 12.79L.15 10.143 1.32.485z" transform="translate(-80 -1077) matrix(-1 0 0 1 339.149 1084) translate(.815 .789) translate(47.927 5.775) translate(82.48 46.813)"/>
                        </g>
                        <path fill="#FFBE9D" d="M54.955 12.26v19.233c.004 1.101.399 2.166 1.114 3.004 1.086 1.29 2.396 2.374 3.868 3.198l3.901 2.19 3.21-2.87c.942-.842 1.503-2.03 1.555-3.293.056-1.404.05-2.787.05-2.787s5.44-.39 5.952-5.75c.24-2.531.318-7.703.329-12.468.046-5.48-4.156-10.06-9.62-10.488h-.15c-2.696-.065-5.303.965-7.227 2.856-1.924 1.89-3 4.479-2.982 7.175z" transform="translate(-80 -1077) matrix(-1 0 0 1 339.149 1084) translate(.815 .789) translate(47.927 5.775)"/>
                        <path fill="#EB996E" d="M68.609 30.89c-2.479-.212-4.844-1.13-6.816-2.646 0 0 1.404 4.068 6.804 4.029l.012-1.382z" transform="translate(-80 -1077) matrix(-1 0 0 1 339.149 1084) translate(.815 .789) translate(47.927 5.775)"/>
                        <path fill="#263238" d="M73.301 16.123c-.03.416-.386.732-.803.713-.198-.002-.387-.083-.524-.225-.138-.143-.212-.335-.206-.533.03-.416.386-.733.803-.713.198 0 .389.08.526.223.138.143.212.336.204.535zM73.518 14.84c-.1.09-.646-.39-1.47-.456-.826-.067-1.467.3-1.545.19-.078-.112.067-.218.351-.39.377-.217.81-.313 1.243-.274.43.033.839.203 1.165.485.24.217.3.401.256.446zM65.521 15.732c-.03.416-.386.733-.802.714-.199-.002-.389-.083-.527-.225-.138-.143-.213-.335-.209-.533.033-.415.387-.73.803-.713.199 0 .39.08.528.223.138.143.213.335.207.534zM65.399 14.322c-.106.09-.653-.384-1.477-.45-.825-.068-1.46.294-1.544.183-.084-.111.072-.217.351-.39.377-.222.813-.323 1.248-.29.43.035.838.205 1.165.485.234.234.307.418.257.462zM67.884 20.687c.446-.103.903-.148 1.36-.134.212 0 .418 0 .462-.167.037-.216.006-.438-.089-.635-.156-.558-.317-1.082-.49-1.672-.674-2.358-1.115-4.286-1.048-4.314.067-.028.719 1.862 1.393 4.219.162.557.318 1.114.463 1.672.113.264.13.56.044.836-.077.143-.214.244-.373.278-.12.016-.242.016-.362 0-.455.026-.912-.002-1.36-.083zM65.41 21.055c.133 0 .061.902.774 1.599.714.697 1.672.68 1.672.803 0 .122-.223.161-.63.139-.525-.036-1.02-.258-1.398-.624-.364-.352-.576-.832-.591-1.338-.006-.373.111-.59.173-.58zM65.878 11.107c-.1.217-.914.044-1.89.078-.975.033-1.783.234-1.894 0-.05-.1.1-.301.434-.49.899-.471 1.965-.5 2.887-.079.346.196.507.385.463.49zM73.412 12.428c-.161.172-.713-.067-1.393-.134s-1.27 0-1.387-.184c-.056-.1.055-.284.323-.44.727-.371 1.605-.27 2.229.256.24.212.3.413.228.502zM61.269 6.838h-.033c-.92.611-1.563 1.557-1.795 2.636v.111c-.34 1.51-.43 3.071-.78 4.581-.351 1.51-.284 2.664-1.8 3.004-.811.18-1.649-.16-2.107-.852-.11-.221-.158-.468-.14-.714 0-3.722-.724-5.166-.4-9.028.084-1.05.67-1.996 1.571-2.541.858-.513 1.895-1.037 2.787-.557.891.479 1.894 2.279 2.53 3.053" transform="translate(-80 -1077) matrix(-1 0 0 1 339.149 1084) translate(.815 .789) translate(47.927 5.775)"/>
                        <path fill="#FFBE9D" d="M56.56 14.818c-.084-.044-3.595-1.393-3.784 2.285-.19 3.679 3.55 3.11 3.56 3.004.012-.106.224-5.289.224-5.289z" transform="translate(-80 -1077) matrix(-1 0 0 1 339.149 1084) translate(.815 .789) translate(47.927 5.775)"/>
                        <path fill="#EB996E" d="M55.284 18.653s-.067.044-.179.089c-.153.064-.326.064-.479 0-.471-.332-.725-.893-.663-1.466.005-.316.083-.627.228-.908.082-.23.272-.405.507-.468.154-.031.308.05.368.195.045.106 0 .178.034.184.033.005.083-.056.061-.207-.014-.093-.062-.178-.134-.24-.095-.083-.22-.123-.345-.11-.317.046-.585.259-.702.557-.171.311-.265.659-.274 1.014-.07.668.266 1.313.853 1.638.197.067.414.042.59-.067.123-.122.146-.2.135-.211z" transform="translate(-80 -1077) matrix(-1 0 0 1 339.149 1084) translate(.815 .789) translate(47.927 5.775)"/>
                        <path fill="#263238" d="M58.36 4.035C57.574 2.49 60.227.59 62.083.167c1.855-.423 4.174.663 5.93 1.41 1.114.468 2.195 1.115 3.393 1.115.807-.015 1.607-.148 2.374-.396.77-.25 1.584-.343 2.391-.273.833.085 1.547.63 1.85 1.41.124.387.072.81-.143 1.154-.214.346-.57.58-.971.64.735-.328 1.6-.132 2.12.483.521.614.574 1.499.13 2.17-.446.672-1.28.97-2.05.73.558-.356 1.304.362 1.182 1.009-.197.64-.716 1.128-1.366 1.287-1.588.558-3.343.184-4.893-.479-1.549-.663-2.942-1.616-4.458-2.318-1.516-.703-4.068-1.95-5.69-1.522-1.198.312-2.118 1.644-2.747 1.276-.596-.382-.975-1.026-1.02-1.733-.032-.703.05-1.407.245-2.084" transform="translate(-80 -1077) matrix(-1 0 0 1 339.149 1084) translate(.815 .789) translate(47.927 5.775)"/>
                        <path fill="#455A64" d="M77.37 5.166c-.029 0-.213.25-.642.647-.612.552-1.35.946-2.15 1.148-1.176.316-2.428.16-3.49-.435-1.198-.658-2.173-1.867-3.315-3.026-1.053-1.16-2.436-1.97-3.963-2.319-1.285-.268-2.623.074-3.622.926-.644.593-1.014 1.426-1.026 2.301 0 .232.034.463.1.686.021.08.055.154.101.223-.045-.3-.066-.601-.061-.903.063-.817.443-1.577 1.059-2.118.949-.758 2.19-1.047 3.377-.786 1.451.348 2.764 1.125 3.767 2.23 1.115 1.114 2.123 2.368 3.41 3.059 1.951 1.027 4.343.661 5.897-.903.161-.172.307-.359.435-.557.094-.095.133-.167.122-.173zM55.64 14.584s.167-.089.33-.367c.217-.403.32-.858.294-1.316 0-1.192-.925-2.546-.925-4.19-.028-.763.178-1.516.591-2.157.358-.51.876-.884 1.471-1.065.4-.129.826-.152 1.238-.067.295.073.445.157.462.129.017-.028-.123-.145-.418-.262-.434-.152-.904-.17-1.349-.05-.67.166-1.26.56-1.671 1.114-.475.692-.713 1.52-.68 2.358.028.814.204 1.616.518 2.368.251.584.424 1.199.513 1.828.05.584-.08 1.17-.374 1.677z" transform="translate(-80 -1077) matrix(-1 0 0 1 339.149 1084) translate(.815 .789) translate(47.927 5.775)"/>
                    </g>
                    <g fill="#EA0028" transform="translate(-80 -1077) matrix(-1 0 0 1 339.149 1084) translate(.815 .789) translate(25.636 60.39)">
                        <path d="M93.068 66.251h-.83l-2.43.034c-2.14.033-5.294.117-9.351.312-4.057.195-9.017.557-14.752 1.226-2.859.345-5.924.735-9.15 1.27-3.227.535-6.627 1.16-10.166 1.968-3.539.808-7.245 1.766-10.99 2.998-3.924 1.243-7.736 2.815-11.396 4.698-1.92 1.002-3.748 2.17-5.462 3.494-1.785 1.33-3.299 2.992-4.458 4.893-.14.245-.284.485-.413.736l-.312.786-.161.395c-.045.134-.067.273-.106.413l-.195.824c-.182 1.135-.125 2.294.167 3.406.557 2.257 2.034 4.202 3.745 5.84 3.489 3.282 7.941 5.573 12.561 7.479 4.76 1.904 9.653 3.452 14.64 4.631 10.5 2.459 21.188 4.032 31.95 4.704 10.761.726 21.557.77 32.323.128 10.032-.563 20.01-1.867 29.849-3.901 4.575-.965 9.092-2.184 13.531-3.65 4.196-1.357 8.249-3.123 12.099-5.273 1.81-1.047 3.516-2.262 5.1-3.628 1.538-1.299 2.793-2.9 3.689-4.703l.278-.68c.1-.223.178-.454.234-.691l.167-.702c.028-.117.067-.234.084-.351v-.363c.117-.933.045-1.881-.212-2.786-.271-.89-.667-1.735-1.176-2.514-.51-.758-1.089-1.468-1.727-2.123-1.243-1.25-2.61-2.37-4.08-3.344-1.388-.943-2.833-1.803-4.324-2.574-2.729-1.426-5.543-2.68-8.427-3.756-4.623-1.723-9.342-3.179-14.133-4.358-3.94-.981-7.033-1.606-9.134-2.007-1.047-.206-1.855-.34-2.39-.446l-.82-.156s1.115.162 3.222.558c2.106.395 5.2.986 9.15 1.956 4.802 1.157 9.53 2.598 14.161 4.313 2.895 1.07 5.72 2.32 8.46 3.74 1.498.774 2.95 1.635 4.347 2.58 1.484.985 2.864 2.118 4.118 3.383.646.662 1.232 1.38 1.75 2.145.527.794.938 1.66 1.22 2.57.27.94.346 1.926.224 2.897l-.028.368c0 .123-.056.24-.084.362l-.173.72c-.057.242-.137.48-.24.707l-.278.697c-.908 1.832-2.18 3.459-3.74 4.781-1.593 1.382-3.313 2.61-5.138 3.667-3.858 2.163-7.92 3.94-12.126 5.306-4.448 1.476-8.975 2.702-13.56 3.672-9.852 2.037-19.842 3.341-29.887 3.901-10.78.647-21.588.606-32.362-.122-10.78-.674-21.485-2.253-32-4.72-5.002-1.181-9.91-2.735-14.68-4.648-4.63-1.929-9.105-4.22-12.639-7.54-1.733-1.672-3.254-3.645-3.817-5.975-.297-1.144-.354-2.338-.167-3.505l.206-.853c.033-.145.061-.284.106-.423l.161-.407.33-.803c.127-.256.278-.507.417-.758 1.183-1.928 2.725-3.612 4.542-4.96 1.73-1.328 3.572-2.503 5.506-3.51 3.673-1.886 7.498-3.458 11.436-4.698 3.778-1.226 7.468-2.185 11.012-2.988 3.544-.802 6.955-1.437 10.187-1.945 3.233-.507 6.298-.919 9.162-1.253 5.74-.641 10.706-.981 14.763-1.176 4.057-.195 7.217-.246 9.357-.262h3.26v-.006z"/>
                        <path d="M47.526 24.025s-.318.072-.936.195c-.619.123-1.544.301-2.753.557-2.419.502-5.98 1.277-10.5 2.514-5.495 1.469-10.866 3.372-16.06 5.69-1.511.69-3.06 1.454-4.604 2.33-1.6.89-3.143 1.88-4.62 2.964C6.49 39.412 5.06 40.72 3.79 42.176c-1.354 1.526-2.343 3.34-2.893 5.306-.537 2.072-.374 4.265.463 6.236.895 2.049 2.208 3.888 3.856 5.4 3.3 3.16 7.485 5.573 11.938 7.618 8.978 4.08 19.226 6.816 30.093 8.855 11.416 2.066 22.961 3.34 34.553 3.812 12.448.56 24.918.339 37.338-.663 12.74-1.064 25.14-2.937 36.81-6.002 5.733-1.464 11.339-3.387 16.763-5.751 2.601-1.151 5.114-2.492 7.518-4.013 2.376-1.476 4.526-3.29 6.381-5.383 1.778-2.079 3.088-4.626 3.166-7.312.01-.333 0-.666-.034-.997-.013-.331-.048-.66-.106-.987l-.217-.97c-.084-.319-.19-.631-.318-.936-.476-1.221-1.12-2.371-1.911-3.416-1.62-2.009-3.525-3.768-5.657-5.222-2.062-1.416-4.225-2.68-6.47-3.784-4.276-2.074-8.707-3.812-13.253-5.2-4.369-1.365-8.626-2.452-12.717-3.343-12.96-2.733-26.12-4.41-39.35-5.016-4.682-.24-8.327-.25-10.795-.312l-2.787-.061-.953-.034h.953l2.787.034c2.468.044 6.13.033 10.8.262 13.243.563 26.417 2.213 39.39 4.932 4.096.903 8.359 1.978 12.74 3.343 4.56 1.386 9.003 3.126 13.29 5.206 2.26 1.091 4.435 2.346 6.51 3.756 2.152 1.466 4.076 3.24 5.712 5.266.81 1.065 1.466 2.237 1.95 3.483.133.31.242.631.324.959l.229.992c.06.335.096.674.105 1.014.038.339.052.68.04 1.02-.055 1.381-.385 2.738-.97 3.99-.576 1.262-1.327 2.436-2.23 3.489-1.87 2.117-4.04 3.95-6.442 5.44-2.43 1.544-4.973 2.904-7.607 4.067-5.437 2.373-11.056 4.306-16.802 5.78-11.703 3.07-24.103 4.948-36.86 6.013-12.42 1-24.89 1.22-37.338.657-11.592-.48-23.137-1.759-34.553-3.828-10.895-2.057-21.177-4.804-30.16-8.917-4.459-2.079-8.666-4.486-11.993-7.685C3.416 57.74 2.087 55.877 1.18 53.8c-.85-2.017-1.01-4.258-.457-6.375.558-1.991 1.562-3.829 2.937-5.373 1.282-1.474 2.727-2.797 4.308-3.945 1.484-1.085 3.034-2.076 4.643-2.965 1.549-.875 3.104-1.638 4.62-2.33 5.215-2.307 10.606-4.195 16.122-5.645 4.53-1.22 8.098-1.978 10.522-2.463 2.424-.485 3.65-.68 3.65-.68zM67.065 108.115l-2.787.44c-1.822.29-4.503.753-7.93 1.5-4.155.896-8.25 2.052-12.26 3.46-2.504.89-4.943 1.952-7.301 3.177-1.284.667-2.52 1.423-3.7 2.263-1.252.87-2.395 1.889-3.405 3.031-.518.597-.97 1.247-1.35 1.94-.389.696-.67 1.447-.83 2.229-.027.2-.078.401-.094.607l-.04.613c0 .407.056.82.09 1.232.086.408.194.812.323 1.21l.234.584.117.296.156.273c.856 1.513 1.99 2.85 3.344 3.94 1.395 1.15 2.9 2.16 4.492 3.015 3.354 1.793 6.871 3.262 10.505 4.386 3.842 1.215 7.75 2.214 11.703 2.992 8.505 1.67 17.122 2.7 25.78 3.082 9.29.458 18.598.296 27.865-.485 9.519-.824 18.781-2.279 27.458-4.731 4.265-1.172 8.408-2.751 12.372-4.715 1.907-.97 3.71-2.133 5.378-3.472.423-.317.786-.707 1.176-1.059.39-.35.708-.769 1.064-1.148.66-.796 1.194-1.689 1.583-2.647.773-1.903.683-4.047-.245-5.88-.951-1.738-2.258-3.257-3.834-4.458-3.071-2.44-6.56-4.084-9.965-5.45-3.307-1.296-6.693-2.38-10.137-3.249-3.31-.853-6.526-1.527-9.608-2.067-9.76-1.667-19.636-2.571-29.536-2.703l-10.884-.056s3.873-.05 10.884 0c9.9.106 19.775.991 29.536 2.647 3.093.557 6.309 1.21 9.625 2.062 3.462.872 6.864 1.965 10.187 3.271 3.41 1.366 6.91 3.01 10.003 5.467 1.604 1.216 2.934 2.756 3.902 4.52.948 1.87 1.04 4.06.25 6.002-.396.973-.937 1.88-1.605 2.692-.362.384-.69.802-1.08 1.165-.39.362-.753.746-1.182 1.064-1.678 1.35-3.492 2.524-5.412 3.5-3.972 1.97-8.124 3.554-12.4 4.731-8.993 2.437-18.195 4.023-27.485 4.737-9.279.781-18.599.943-27.898.485-8.664-.39-17.287-1.423-25.798-3.093-3.953-.786-7.86-1.791-11.703-3.01-3.644-1.124-7.172-2.598-10.533-4.402-1.598-.863-3.108-1.88-4.508-3.037-1.37-1.1-2.516-2.453-3.377-3.985l-.162-.278-.117-.301-.24-.591c-.15-.401-.211-.825-.323-1.232-.111-.406-.089-.841-.089-1.26l.039-.623c0-.207.067-.407.1-.613.159-.803.443-1.576.842-2.29.384-.7.842-1.355 1.365-1.957 1.016-1.15 2.167-2.173 3.428-3.048 1.187-.84 2.431-1.598 3.722-2.269 2.342-1.227 4.767-2.29 7.256-3.182 4.023-1.405 8.131-2.554 12.3-3.438 3.427-.736 6.13-1.187 7.936-1.466 1.805-.279 2.803-.418 2.803-.418zM16.719 72.655c-.003.98-.8 1.774-1.782 1.772-.98-.002-1.775-.799-1.774-1.78.001-.981.797-1.776 1.778-1.776.473 0 .926.188 1.26.523.333.334.52.788.518 1.26z"/>
                        <circle cx="175.838" cy="73.858" r="1.778"/>
                        <path d="M105.05 139.418c.002.723-.431 1.375-1.098 1.652-.667.278-1.436.126-1.946-.385-.511-.51-.663-1.28-.386-1.946.278-.667.93-1.1 1.652-1.098.982 0 1.778.796 1.778 1.777zM51.02 93.698c0 .36-.217.686-.55.824-.333.138-.717.061-.972-.194s-.331-.638-.193-.971c.138-.333.463-.55.824-.55.492 0 .891.398.891.89zM161.649 115.254c0 .361-.218.687-.552.824-.334.138-.718.06-.972-.195-.255-.257-.33-.641-.19-.974.14-.333.467-.549.828-.547.49.003.886.402.886.892z"/>
                        <circle cx="44.985" cy=".652" r="1"/>
                    </g>
                    <g transform="translate(-80 -1077) matrix(-1 0 0 1 339.149 1084) translate(.815 .789) translate(19.505 52.03)">
                        <path fill="#EA0028" d="M131.326 77.464c-21.606 5.718-42.432 5.283-65.13 0l-2.664-41.507c23.456 4.564 47.002 3.984 67.783-.981l.011 42.488z"/>
                        <g fill="#FFF" opacity=".8">
                            <path d="M67.795 42.912c-21.606 5.718-42.433 5.283-65.131 0L0 1.404C23.457 5.97 47.002 5.39 67.784.424l.01 42.488z" transform="translate(63.532 34.552)"/>
                        </g>
                        <path fill="#EA0028" d="M127.977 71.139c-.043.028-.09.05-.14.067l-.406.172c-.362.145-.886.38-1.583.63-1.959.728-3.955 1.353-5.98 1.873-6.699 1.682-13.591 2.469-20.497 2.34-6.898-.138-13.77-.873-20.542-2.196-2.602-.496-4.692-.953-6.13-1.287-.719-.162-1.276-.3-1.672-.396l-.429-.111c-.095-.028-.145-.045-.14-.05h.151l.435.083 1.672.34c1.443.301 3.544.73 6.13 1.193 6.767 1.263 13.626 1.969 20.508 2.112 6.883.131 13.755-.618 20.448-2.23 2.558-.646 4.597-1.292 5.99-1.788.703-.228 1.232-.446 1.6-.557l.418-.145c.052-.028.109-.046.167-.05z"/>
                        <path fill="#EA0028" d="M96.228 72.827c-2.737.743-5.634.646-8.315-.278V57.78c2.744-.557 5.571-.557 8.315 0v15.047zM109.659 71.952c-.004-.039-.004-.078 0-.117v-.317c0-.301 0-.714-.04-1.238 0-1.086-.05-2.641-.088-4.586-.056-3.901-.14-9.402-.234-15.76l.111.133c-2.843-.555-5.767-.555-8.61 0l.117-.139v.29c.09 8.727.173 16.613.228 22.241l-.083-.1c1.193.26 2.407.409 3.628.446.917.016 1.834-.06 2.736-.229.567-.108 1.125-.256 1.672-.44l.418-.145c.05-.022.102-.037.156-.044l-.134.061-.423.184c-.545.206-1.103.372-1.672.496-.907.188-1.832.28-2.759.273-1.232-.015-2.46-.15-3.667-.401h-.078v-.112c-.083-5.628-.195-13.509-.317-22.236v-.418h.122c2.878-.569 5.839-.569 8.716 0l.112.028v.112c.05 6.386.089 11.898.122 15.832V71.852c0 .084-.028.1-.033.1zM122.443 70.22c-2.229 1.203-5.155 1.364-8.32 1.18V47.003c2.734-.658 5.586-.658 8.32 0V70.22zM83.037 71.624s0-.229-.028-.63 0-.998-.033-1.706c0-1.482-.04-3.538-.062-5.985l.078.117c-2.538-1.028-5.273-1.483-8.008-1.332l.134-.145v8.32l-.073-.11c1.034.418 2.11.725 3.21.913.987.179 1.85.279 2.57.351l1.671.14c.198.01.396.033.591.067-.197.013-.394.013-.59 0-.39 0-.954 0-1.673-.073-.718-.072-1.593-.134-2.585-.295-1.123-.17-2.222-.467-3.277-.886l-.073-.034v-.083-8.455h.145c2.779-.155 5.556.32 8.126 1.388l.083.028v.09c0 2.48-.05 4.563-.067 6.068 0 .697 0 1.254-.033 1.672-.018.196-.054.39-.106.58zM86.938 50.04c-.538.086-1.083.12-1.627.1-1.009 0-2.402 0-3.935-.095-1.532-.095-2.914-.234-3.9-.368-.544-.043-1.082-.14-1.606-.29.542-.013 1.084.017 1.622.09 1.003.078 2.385.19 3.9.278 1.517.09 2.916.145 3.902.179.55-.007 1.1.029 1.644.105zM85.695 51.856c-.474.048-.952.048-1.426 0-.881-.044-2.096-.122-3.439-.223-1.343-.1-2.558-.211-3.433-.306-.476-.023-.948-.094-1.41-.212.474-.047.952-.047 1.427 0 .886.045 2.095.123 3.438.223s2.553.212 3.428.306c.477.024.951.095 1.415.212z"/>
                        <path fill="#EA0028" d="M88.738 54.236v-.518c0-.33.028-.836.056-1.438.055-1.26.14-3.032.245-5.21l.106.116c-5.146.047-10.29-.24-15.398-.858l.161-.134v.457l-.027.468c0 .312-.034.624-.056.93-.034.62-.067 1.227-.106 1.823-.073 1.198-.14 2.358-.206 3.467l-.117-.145c4.458.557 8.298.78 11.023.886l3.193.095.836.027h.307c-.093.008-.186.008-.279 0-.19 0-.49 0-.864.028h-3.199c-2.73-.055-6.587-.256-11.05-.785h-.129v-.134c.061-1.115.128-2.268.195-3.467.034-.596.067-1.203.106-1.822l.05-.93V46.165l.162-.133c5.117.615 10.266.93 15.42.941h.112v.112c-.15 2.196-.273 3.99-.363 5.26-.044.591-.083 1.065-.111 1.41-.007.162-.03.323-.067.48zM90.638 57.362c-.426-.443-.788-.944-1.075-1.488-.368-.494-.647-1.048-.825-1.638.426.443.788.944 1.076 1.488.367.494.646 1.049.824 1.638zM.357 3.344l7.06 42.733s10.784 20.185 39.43 24.733l-4.62-38.141S15.731 24.465.356 3.344z"/>
                        <g fill="#FFF" opacity=".8">
                            <path d="M.357 0l7.06 42.733s10.784 20.186 39.43 24.733l-4.62-38.141S15.731 21.12.356 0z" transform="translate(0 3.344)"/>
                        </g>
                        <path fill="#EA0028" d="M43.151 67.756l-.178-.045-.557-.15-2.018-.619c-.875-.278-1.961-.557-3.17-1.059l-1.946-.74c-.696-.263-1.426-.558-2.168-.893-1.488-.68-3.143-1.382-4.826-2.329-1.683-.947-3.477-1.967-5.305-3.132-3.942-2.588-7.522-5.69-10.644-9.223-1.464-1.647-2.75-3.442-3.84-5.356L5.266 23.312c-.39-2.609-.707-4.698-.925-6.164l-.234-1.672-.055-.429c-.007-.05-.007-.1 0-.15.017.046.028.095.033.144l.084.43.284 1.671c.24 1.46.557 3.55 1.008 6.13.836 5.25 2.007 12.562 3.344 20.882v-.039c1.083 1.89 2.357 3.664 3.801 5.295 3.111 3.514 6.671 6.604 10.589 9.19 1.816 1.17 3.55 2.268 5.266 3.143 1.717.875 3.316 1.672 4.798 2.351.736.363 1.466.647 2.152.909l1.928.758c1.198.507 2.28.808 3.143 1.114l2 .67.519.177c.051.006.101.018.15.034z"/>
                        <path fill="#EA0028" d="M40.632 55.35s0 .034-.094.09l-.307.245-1.187.925-4.492 3.45-.067.055-.055-.078c-1.516-2.09-3.383-4.675-5.5-7.612l.166.028-4.218 3.009-.14.1-.061-.167c-1.672-4.458-3.494-9.474-5.44-14.752l-.78-2.123h.263l-3.433 6.821-.15.296-.107-.312c-2.992-8.616-5.528-15.939-7.178-20.693h.15c-.45 1.906-.807 3.405-1.053 4.459-.122.501-.222.891-.29 1.17l-.077.301c-.008.035-.021.07-.04.1v-.106c0-.078.034-.178.056-.3l.251-1.182c.229-1.053.557-2.558.981-4.458l.061-.268.095.262c1.672 4.743 4.252 12.049 7.29 20.648h-.257l3.427-6.821.15-.301.118.312.78 2.123c1.934 5.283 3.773 10.293 5.411 14.763l-.2-.062 4.235-2.987.095-.066.072.094 5.445 7.624h-.128l4.553-3.383 1.215-.891.318-.223.122-.09zM39.646 34.859c-.205-.02-.407-.066-.602-.134-.379-.106-.93-.273-1.6-.496-1.74-.582-3.45-1.256-5.12-2.017-1.683-.758-3.325-1.6-4.922-2.525-.607-.357-1.114-.658-1.426-.875-.18-.1-.347-.222-.496-.362.195.066.382.156.557.267l1.471.792c1.243.663 2.976 1.555 4.938 2.44 1.961.887 3.773 1.595 5.093 2.09.619.223 1.115.419 1.566.558.192.062.373.15.54.262zM40.783 36.631c-.47-.025-.933-.108-1.382-.245-1.1-.266-2.184-.59-3.25-.97-1.064-.382-2.107-.819-3.126-1.31-.432-.18-.842-.41-1.22-.685.45.127.89.294 1.31.502.796.328 1.9.774 3.137 1.22 1.237.446 2.374.797 3.204 1.048.455.105.9.253 1.327.44z"/>
                        <path fill="#EA0028" d="M29.498 52.436c0 .357-.218.64-.485.64-.268 0-.48-.283-.48-.64 0-.357.218-.641.48-.641s.485.29.485.64z"/>
                        <circle cx="18.536" cy="38.927" r="1" fill="#EA0028"/>
                        <path fill="#EA0028" d="M8.432 24.833c0 .351-.217.64-.48.64-.261 0-.479-.289-.479-.64 0-.351.212-.64.48-.64.267 0 .479.289.479.64zM187.251 10.945l-3.539 43.414s-10.349 18.563-38.815 19.27l3.516-43.708s24.839-1.009 38.838-18.976z"/>
                        <path fill="#EA0028" d="M186.694 8.683c-.925-3.004-3.177-7.29-8.527-8.181l-6.308 58.393s11.875-2.369 12.193-8.878c.028-.557 2.402-29.587 2.998-36.781.18-1.527.059-3.074-.356-4.553z"/>
                        <g fill="#FFF" opacity=".8">
                            <path d="M42.354.357L38.816 43.77S28.466 62.333 0 63.04l3.517-43.708S28.355 18.323 42.354.357z" transform="translate(144.897 10.589)"/>
                        </g>
                        <path fill="#EA0028" d="M186.387 22.013c-2.849 4.137-4.424 9.017-4.53 14.038-.028 1.444.055 2.932-.497 4.264-.551 1.332-1.978 2.446-3.343 2.067-1.366-.379-2.101-2.117-3.372-2.92-1.193-.668-2.655-.636-3.817.084-1.136.727-2.013 1.794-2.508 3.048-1.031 2.38-1.115 5.066-1.862 7.546-.746 2.48-2.63 4.982-5.227 5.093-.947.04-1.884-.245-2.831-.217-2 .061-3.74 1.55-4.67 3.344-.931 1.794-1.215 3.806-1.483 5.79 0 0 15.17 1.45 32.195-18.658l1.945-23.479z"/>
                        <path fill="#EA0028" d="M162.273 48.345c0 .558-.267.976-.596.976-.33 0-.591-.435-.591-.976 0-.54.262-.975.59-.975.33 0 .597.44.597.975zM169.418 30.3c0 .557-.268.975-.597.975-.329 0-.59-.44-.59-.975 0-.535.261-.975.59-.975.33 0 .597.435.597.975z"/>
                        <path fill="#EA0028" d="M186.047 24.109c-.023.084-.055.166-.094.245l-.324.708c-.3.63-.719 1.521-1.248 2.647l-4.525 9.424-.062.128-.122-.078-10.728-6.788.212-.067c-.14.345-.296.719-.446 1.115l-6.927 16.947-.05.117-.106-.061c-2.675-1.505-4.86-2.714-6.376-3.54-.763-.412-1.354-.73-1.76-.935l-.463-.223-.162-.073c.85.286 1.668.66 2.44 1.115 1.539.791 3.735 1.973 6.426 3.455l-.156.056 6.866-16.992c.15-.374.307-.747.446-1.115l.067-.161.145.094 10.711 6.822-.184.05c1.9-3.862 3.494-7.089 4.62-9.374l1.332-2.602.357-.686c.03-.079.068-.155.111-.228z"/>
                    </g>
                </g>
            </g>
        </g>
    </g>
</svg>
