<?xml version="1.0" encoding="UTF-8"?>
<svg width="759px" height="482px" viewBox="0 0 759 482" version="1.1" xmlns="http://www.w3.org/2000/svg" xmlns:xlink="http://www.w3.org/1999/xlink">
    <title>96F3BB21-93EA-4EAB-BC91-F405A614785A</title>
    <g id="Webpages" stroke="none" stroke-width="1" fill="none" fill-rule="evenodd">
        <g id="05-Contact" transform="translate(-582.000000, -119.000000)" fill-rule="nonzero">
            <g id="Newsletter-pana" transform="translate(582.000000, 119.000000)">
                <g id="freepik--Floor--inject-86" transform="translate(0.000000, 479.205224)" fill="#263238">
                    <path d="M758.152051,1.02750933 C758.152051,1.21596082 588.451732,1.37749067 379.169932,1.37749067 C169.888131,1.37749067 0.140859364,1.21596082 0.140859364,1.02750933 C0.140859364,0.839057836 169.805964,0.677527985 379.169932,0.677527985 C588.5339,0.677527985 758.152051,0.825597015 758.152051,1.02750933 Z" id="Path"></path>
                </g>
                <g id="freepik--Device--inject-86" transform="translate(97.815299, 131.916045)">
                    <rect id="Rectangle" fill="#263238" x="22.0140508" y="0.0304148302" width="519.637267" height="343.733354" rx="14.57"></rect>
                    <path d="M0.293520678,318.337272 L563.266181,318.337272 L563.266181,327.509602 C563.266181,339.055074 553.909527,348.414528 542.367509,348.414528 L21.1334888,348.414528 C9.59147082,348.414528 0.234816542,339.055074 0.234816542,327.509602 L0.234816542,318.337272 L0.293520678,318.337272 Z" id="Path" fill="#263238"></path>
                    <rect id="Rectangle" fill="#455A64" x="35.9621535" y="13.6773384" width="490.285199" height="290.273117"></rect>
                    <polygon id="Path" fill="#455A64" points="230.613326 318.337272 237.599118 329.447418 335.905064 329.447418 342.386 318.337272"></polygon>
                    <rect id="Rectangle" fill="#EBEBEB" x="46.0592648" y="23.5073512" width="471.100688" height="279.515301" rx="3.27"></rect>
                    <rect id="Rectangle" fill="#EBEBEB" x="46.0592648" y="43.9894809" width="471.100688" height="259.044916"></rect>
                    <path d="M84.6983452,34.3356331 C84.7030748,35.8625558 83.7865796,37.2415514 82.3772124,37.8280755 C80.9678451,38.4145995 79.3439713,38.0928072 78.2645916,37.0131046 C77.185212,35.9334019 76.8635159,34.3090422 77.4498645,32.8992532 C78.0362131,31.4894642 79.4147962,30.5726947 80.9412621,30.5774258 C83.0135559,30.5838918 84.6918811,32.2627192 84.6983452,34.3356331 L84.6983452,34.3356331 Z" id="Path" fill="#455A64"></path>
                    <path d="M61.8976589,34.3356331 C61.9023885,35.8625558 60.9858934,37.2415514 59.5765261,37.8280755 C58.1671588,38.4145995 56.543285,38.0928072 55.4639053,37.0131046 C54.3845257,35.9334019 54.0628296,34.3090422 54.6491782,32.8992532 C55.2355269,31.4894642 56.6141099,30.5726947 58.1405759,30.5774258 C60.2128696,30.5838918 61.8911948,32.2627192 61.8976589,34.3356331 Z" id="Path" fill="#455A64"></path>
                    <path d="M72.7931465,34.3356331 C72.7978761,35.8625558 71.8813809,37.2415514 70.4720137,37.8280755 C69.0626464,38.4145995 67.4387726,38.0928072 66.3593929,37.0131046 C65.2800133,35.9334019 64.9583172,34.3090422 65.5446658,32.8992532 C66.1310144,31.4894642 67.5095975,30.5726947 69.0360634,30.5774258 C71.1083572,30.5838918 72.7866824,32.2627192 72.7931465,34.3356331 L72.7931465,34.3356331 Z" id="Path" fill="#455A64"></path>
                    <path d="M537.189804,318.337272 C537.189804,318.525182 421.847918,318.666114 279.619539,318.666114 C137.391159,318.666114 22.0140508,318.525182 22.0140508,318.337272 C22.0140508,318.149363 137.332455,317.996686 279.619539,317.996686 C421.906622,317.996686 537.189804,318.149363 537.189804,318.337272 Z" id="Path" fill="#455A64"></path>
                </g>
                <g id="freepik--paper-plane--inject-86" transform="translate(77.175373, 35.895522)">
                    <path d="M41.8843624,418.182836 C41.7444217,418.116798 41.6107593,418.038217 41.4850163,417.948057 L40.3104688,417.185026 L38.4311929,415.905481 C37.691228,415.388968 36.8103174,414.825498 35.8941704,414.062467 L32.7581287,411.597289 C31.5835812,410.669913 30.4090338,409.542975 29.1640134,408.392558 C26.220425,405.653944 23.4730464,402.711961 20.9421812,399.588352 C14.0801919,390.951027 8.83942144,381.143471 5.47339117,370.640121 C1.09548496,356.697333 -0.559342639,342.043317 0.599019205,327.476032 C1.20351277,319.017863 2.67149641,310.643604 4.98008123,302.483825 C7.43033336,293.60122 11.0816055,285.094222 15.8328998,277.198144 C17.0661746,275.155568 18.4521406,273.183426 19.896834,271.223023 L24.50106,265.517897 C26.133681,263.686622 27.8367748,261.878825 29.5281232,260.035811 C31.2194715,258.192797 33.1222384,256.514129 34.9310415,254.753287 C42.6403535,247.722249 50.9440672,241.371261 59.7492293,235.771418 C77.7432964,224.138127 98.0747129,214.512195 119.005149,204.487138 C139.876857,194.274259 161.876131,184.472243 184.427442,174.564576 C274.738396,135.02782 357.391301,101.360534 417.598604,77.9765622 C447.69051,66.2376204 472.250297,57.2808077 489.245999,51.1413411 C497.749723,48.1126941 504.397661,45.8588173 508.884433,44.309277 L514.00546,42.5601747 L515.320953,42.1375727 C515.465761,42.0818534 515.615084,42.0386523 515.767281,42.0084444 L515.344444,42.1962675 L514.052442,42.689303 L508.966651,44.5440558 L489.410436,51.5874209 C472.473461,57.8677548 447.972401,66.9302179 417.927477,78.7748102 C357.86112,102.4053 275.266943,136.213453 184.967734,175.726731 C162.416423,185.646137 140.464131,195.412936 119.592422,205.614077 C98.6384957,215.627394 78.3423156,225.21811 60.4187214,236.769229 C51.6707762,242.308018 43.4182291,248.592176 35.7532247,255.551535 C33.9561671,257.312377 32.1003821,258.991045 30.3855428,260.775365 C28.6707035,262.559684 27.0145916,264.390959 25.3819706,266.210495 L20.812981,271.856926 C19.3800331,273.782112 18.0058126,275.719038 16.7960287,277.726397 C12.0707267,285.534062 8.43514677,293.950488 5.99019205,302.742082 C3.66631922,310.836913 2.17861747,319.148462 1.55040265,327.546466 C0.371664066,342.01302 1.96625331,356.571491 6.24859249,370.440559 C9.5186765,380.917778 14.6381608,390.725659 21.3650183,399.400529 C23.8533278,402.520858 26.5491455,405.470097 29.4341594,408.228213 C30.7144161,409.402107 31.8537271,410.576002 32.9578017,411.468161 L36.0351161,413.980295 C36.9395176,414.755065 37.8086828,415.330273 38.5486477,415.858525 L40.3809417,417.185026 L41.4967618,417.995013 C41.6318373,418.044706 41.7616685,418.10762 41.8843624,418.182836 Z" id="Path" fill="#263238"></path>
                    <polygon id="Path" fill="#EA5E54" points="496.07012 3.39906466 517.822739 21.4183404 515.814263 42.0554002 533.632148 32.1594722 552.612835 45.6357774 623.344083 0.229550357"></polygon>
                    <g id="Group" opacity="0.5" transform="translate(515.626335, 0.276506)" fill="#000000">
                        <polygon id="Path" points="2.19640375 21.1418343 105.803235 0 12.7438399 28.1499825 0.187927594 41.778894 0.187927594 41.778894"></polygon>
                    </g>
                    <g id="Group" opacity="0.8" transform="translate(515.626335, 28.173460)" fill="#000000">
                        <polygon id="Path" points="12.7438399 0.253028241 18.0058126 3.98601175 0.187927594 13.8819397"></polygon>
                    </g>
                </g>
                <g id="freepik--Letters--inject-86" transform="translate(166.016791, 200.117537)">
                    <polygon id="Rectangle" fill="#FFFFFF" transform="translate(60.621928, 153.547975) rotate(-5.420000) translate(-60.621928, -153.547975) " points="3.90063155 115.375942 117.330992 115.394091 117.343224 191.720007 3.91286422 191.701858"></polygon>
                    <path d="M120.693164,186.205489 C120.693164,186.205489 120.610993,185.713298 120.517082,184.799229 C120.423172,183.88516 120.270567,182.455462 120.082746,180.76795 C119.718843,177.252301 119.190597,172.049139 118.521485,165.463155 C117.206739,152.244313 115.340269,133.30668 113.051201,110.255736 L113.509015,110.630739 L0.605179104,121.435502 C0.487791045,121.552691 1.48558955,120.345651 1.07473134,120.872998 L1.07473134,120.872998 L1.07473134,121.15425 L1.07473134,121.470659 L1.13342537,122.103476 L1.25081343,123.36911 L1.48558955,125.900378 C1.64993284,127.587889 1.81427612,129.263682 1.9668806,130.927757 C2.27991542,134.279343 2.59295025,137.599678 2.90598507,140.888764 C3.52422886,147.474748 4.1385597,153.951356 4.74897761,160.318588 C5.92285821,173.033521 7.09673881,185.256263 8.18844776,196.834469 L7.66020149,196.400873 L89.0101269,188.947695 L112.299918,186.873462 L118.509746,186.334396 L120.129701,186.217207 C120.317292,186.204072 120.505574,186.204072 120.693164,186.217207 C120.526346,186.249984 120.357829,186.273458 120.188396,186.28752 L118.627134,186.463303 L112.522955,187.107839 L89.3740299,189.451605 L7.81280597,197.408692 L7.33151493,197.408692 L7.33151493,196.92822 C6.21632836,185.350014 5.05418657,173.127272 3.80987313,160.412339 C3.19945522,154.045106 2.58121144,147.568498 1.95514179,140.982515 C1.63428109,137.693429 1.31733333,134.377 1.00429851,131.033226 C0.839955224,129.357433 0.687350746,127.68164 0.523007463,126.005847 L0.288231343,123.474579 L0.159104478,122.208945 L0.159104478,121.576128 L0.159104478,121.25972 L0.159104478,121.095656 L0.159104478,120.978468 L0.640395522,120.392526 L113.567709,109.845577 L113.990306,109.845577 L113.990306,110.267455 C116.091552,133.447306 117.828896,152.455252 119.037993,165.779564 C119.613194,172.330391 120.071007,177.498396 120.376216,181.014046 C120.517082,182.713277 120.63447,184.025786 120.704903,184.975011 C120.775336,185.924237 120.693164,186.205489 120.693164,186.205489 Z" id="Path" fill="#455A64"></path>
                    <path d="M113.473799,110.208861 C113.215922,110.624918 112.921278,111.017109 112.593388,111.380744 L109.940418,114.474516 L99.9741716,125.77147 L66.5655299,163.060795 L66.2720597,163.400641 L65.8964179,163.154545 L62.8912836,161.244376 L18.6829403,132.943396 L5.35939552,124.259741 C3.85682836,123.26364 2.67120896,122.455041 1.75558209,121.85738 C1.33589446,121.595323 0.942748131,121.293115 0.581701493,120.95503 C1.04300584,121.156075 1.48670608,121.395187 1.90818657,121.669879 L5.60591045,123.908176 L19.0585821,132.263703 L63.4312687,160.306869 L66.436403,162.228758 L65.767291,162.322508 L99.410709,125.232404 L109.611731,114.169826 L112.417306,111.204962 C112.737971,110.841138 113.09164,110.507686 113.473799,110.208861 Z" id="Path" fill="#455A64"></path>
                    <polygon id="Rectangle" fill="#FFFFFF" transform="translate(384.611187, 38.684370) rotate(-74.220000) translate(-384.611187, -38.684370) " points="356.586975 -2.94281958 412.598334 -2.91783965 412.635399 80.3115592 356.62404 80.2865793"></polygon>
                    <path d="M417.004104,76.950815 C417.004104,76.950815 417.086276,76.5875312 417.262358,75.9429954 C417.43844,75.2984596 417.696694,74.3023589 418.037119,73.0718815 C418.729709,70.5288949 419.739246,66.8609004 421.030515,62.1850863 L431.971082,22.9738734 L432.182381,23.348876 L352.06503,0.82528029 L352.534582,0.567465979 L352.534582,0.567465979 L352.534582,0.649497805 L352.534582,0.766686128 L352.475888,0.989343942 L352.346761,1.43465957 L352.088507,2.33700966 L351.583739,4.129991 L350.574201,7.64564069 L348.578604,14.6769401 C347.252119,19.364473 345.949112,23.9465364 344.669582,28.4582869 C342.098784,37.4700689 339.645373,46.1420048 337.309351,54.3569063 L337.062836,53.9115906 L394.665157,70.3179559 L411.099485,75.064083 L415.501537,76.3414357 L416.675418,76.6930007 L417.062799,76.8219078 L416.698896,76.739876 L415.525015,76.4469052 L411.181657,75.2750219 L394.747328,70.728115 L336.839799,54.5678453 L336.499373,54.4740946 L336.593284,54.1342485 C338.941045,45.9310658 341.359239,37.2474111 343.90656,28.2239102 C345.174351,23.7160661 346.473445,19.1222838 347.803843,14.4425634 L349.79944,7.41126405 C350.128127,6.23938082 350.468552,5.06749759 350.808978,3.89561435 L351.313746,2.10263301 L351.572,1.21200176 L351.689388,0.754967296 L351.759821,0.532309482 L351.759821,0.415121159 L351.759821,0.333089333 L351.759821,0.333089333 L352.241112,0.0635561896 L432.311507,22.7277779 L432.616716,22.8215285 L432.522806,23.1144993 C427.827284,39.5208646 423.93,53.0092406 421.230075,62.4311817 L418.177985,73.2242263 C417.825821,74.3961095 417.54409,75.3570538 417.356269,76.0250272 C417.168448,76.6930007 417.004104,76.950815 417.004104,76.950815 Z" id="Path" fill="#455A64"></path>
                    <path d="M432.264552,23.0559052 C431.983085,23.260623 431.684617,23.4409672 431.372403,23.5949715 L428.74291,25.0012313 L418.929269,30.0872046 L386.154522,46.7513841 L385.861052,46.9037289 L385.673231,46.6341958 L384.135448,44.5365248 L361.420858,13.4581815 L354.600612,3.98936501 L352.792836,1.4463784 C352.562623,1.15681574 352.36574,0.84233963 352.205896,0.508871817 C352.468659,0.768846421 352.708253,1.05116422 352.921963,1.35262774 L354.858866,3.87217669 L361.902149,13.1886484 L384.80456,44.1380845 L386.354082,46.2357555 L385.861052,46.1185672 L418.729709,29.7122019 L428.649,24.8488865 L431.360664,23.559815 C431.646108,23.3649543 431.948639,23.1962958 432.264552,23.0559052 Z" id="Path" fill="#455A64"></path>
                </g>
                <g id="freepik--Plant--inject-86" transform="translate(174.093284, 186.656716)">
                    <path d="M2.53519732,1.38703332 C2.53519732,1.38703332 8.06333592,-3.09143867 16.6196269,10.3439773 C21.1100932,17.1751725 25.1409145,24.2985276 28.6852882,31.666676 C28.6852882,31.666676 30.8801118,34.4407426 32.7228246,32.3131745 C34.5655375,30.1856065 36.8190462,24.4141373 40.3636277,25.0723904 C43.9082091,25.7306435 45.6100777,29.6331441 45.4927074,35.580931 C45.3753372,41.5287179 45.6100777,54.5644802 45.6335517,55.7399322 C45.6570258,56.9153842 46.4786175,58.5257534 47.9809567,57.2797743 C49.4832958,56.0337952 57.6522649,44.9022651 62.6874485,49.1103831 C67.7226321,53.3185012 64.6827427,69.8336013 64.3893171,71.6437973 C64.0958915,73.4539933 64.5066873,74.171019 65.3869642,74.5354091 C66.267241,74.8997992 68.6733311,70.891508 71.1263692,67.8235784 C73.5794074,64.7556488 76.9948815,61.6289466 79.6709231,64.2972225 C82.3469648,66.9654985 84.365733,78.9551085 74.7531098,99.6430631 L69.6944522,108.940888 L59.13113,109.38756 C36.3613023,108.929134 26.4552535,101.935194 25.24634,98.3383114 C24.0374264,94.7414284 28.3214404,93.0487776 32.1477104,92.1789431 C35.9739805,91.3091087 40.6101052,90.909455 40.6805273,89.9573389 C40.7509495,89.0052228 40.2814685,88.3117062 38.5209148,87.7945073 C36.7603611,87.2773084 20.6102152,82.7635729 19.049191,76.3926232 C17.4881667,70.0216736 31.0444301,67.5179609 32.8167208,66.7186536 C34.5890116,65.9193462 33.4857312,64.4735403 32.4646101,63.9445869 C31.443489,63.4156335 19.8120976,57.4913556 14.4248033,54.9993975 C9.03750896,52.5074393 6.20888603,49.3807371 7.23000717,45.7720995 C8.25112831,42.163462 14.3543811,42.7864515 17.0773708,42.0576713 C19.8003605,41.3288911 18.2510733,38.1434163 18.2510733,38.1434163 C13.19017,31.7287197 8.56328331,24.9822452 4.40138423,17.9491515 C-3.9084292,4.34917227 2.69951566,1.30475168 2.69951566,1.30475168" id="Path" fill="#EA5E54"></path>
                    <path d="M10.2229484,13.4001524 C10.2715151,13.5014601 10.3263962,13.5996082 10.3872668,13.6940154 L10.8802218,14.5403408 L12.8168309,17.7728337 C14.5069624,20.5704094 16.9717376,24.6139642 20.0468381,29.5273534 C26.1853019,39.495186 34.788541,53.1774469 44.342479,68.2467411 C53.8964171,83.3160353 62.5231302,96.9982962 68.7202792,106.919111 C71.8071166,111.879518 74.3071029,115.887809 76.0559196,118.67363 L78.0512137,121.87086 C78.2742172,122.223495 78.4502726,122.505604 78.5793798,122.693676 L78.7671722,122.975785 C78.7186056,122.874477 78.6637245,122.776329 78.6028539,122.681922 L78.1098989,121.835596 L76.1732898,118.720649 C74.4831583,115.923073 72.0066461,111.879518 68.9432826,106.907356 C62.7930817,96.9512781 54.2015797,83.2572627 44.6476417,68.176214 C35.0937036,53.0951653 26.4552535,39.4364134 20.2581045,29.5155989 L12.9342011,17.7610792 C12.0773983,16.3858004 11.4083879,15.3043846 10.9389069,14.5638499 L10.4107408,13.7410335 C10.2933706,13.4941886 10.2229484,13.4001524 10.2229484,13.4001524 Z" id="Path" fill="#263238"></path>
                    <path d="M37.5584788,33.2535361 C37.4634793,33.4917833 37.3965181,33.7403034 37.3589494,33.9940708 C37.2533162,34.4760061 37.1124719,35.1695228 36.9598905,36.0393573 C36.6429909,37.7672717 36.2674061,40.1651937 35.9035583,42.8334696 C35.5397106,45.5017456 35.2462849,47.8056314 34.9998074,49.6393365 C34.8941742,50.4503984 34.788541,51.1321605 34.7181188,51.6963774 C34.6631749,51.9471604 34.6395201,52.203803 34.6476967,52.4604212 C34.7463112,52.2225311 34.8172017,51.9740445 34.8589631,51.7198865 C34.9645964,51.2379512 35.0937036,50.5444345 35.2462849,49.6746001 C35.5514476,47.9466857 35.8918213,45.5370091 36.2556691,42.8804877 C36.6195168,40.2239663 36.9481535,37.9083259 37.2063681,36.0746208 C37.3237383,35.2753135 37.4176345,34.5817968 37.4997937,34.0175799 C37.548268,33.7659575 37.5679567,33.509623 37.5584788,33.2535361 L37.5584788,33.2535361 Z" id="Path" fill="#263238"></path>
                    <path d="M33.6735236,52.7425297 C33.6735236,52.6484935 28.7791844,51.6493594 22.7111426,50.5209255 C16.6431009,49.3924916 11.6900765,48.5579207 11.6783185,48.6519569 C11.6666025,48.745993 16.5726788,49.7451272 22.6407205,50.8735611 C28.7087622,52.001995 33.6617866,52.8953384 33.6735236,52.7425297 Z" id="Path" fill="#263238"></path>
                    <path d="M49.3893996,75.2289258 C49.1281909,75.1978513 48.8642276,75.1978513 48.603019,75.2289258 L46.4903545,75.4405071 C44.7063268,75.6050704 42.2415516,75.8401608 39.5185619,75.9929696 C36.7955722,76.1457783 34.31906,76.22806 32.5350323,76.2633235 L30.4106308,76.2633235 C30.1472798,76.2594367 29.8841081,76.2791057 29.6242501,76.3220961 C29.8817714,76.3831695 30.1460658,76.4108235 30.4106308,76.4043778 C30.9035858,76.4043778 31.5843333,76.4631504 32.5350323,76.4749049 C34.31906,76.4749049 36.8073092,76.4749049 39.577247,76.3220961 C42.3471848,76.1692874 44.7767489,75.8871789 46.5607767,75.6520885 C47.4410535,75.5345433 48.1687491,75.4169981 48.6617041,75.3347165 C48.9071405,75.3233752 49.1508735,75.2879419 49.3893996,75.2289258 L49.3893996,75.2289258 Z" id="Path" fill="#263238"></path>
                    <path d="M56.7485141,58.3846991 C56.6116945,58.5807172 56.4937938,58.789319 56.3964033,59.0076887 L55.5278635,60.7826211 C54.823642,62.2754451 53.861206,64.308977 52.8166108,66.659881 C51.7720156,69.0107849 50.8447907,71.0560713 50.1875173,72.5371408 C49.8588806,73.3011846 49.6006661,73.9124196 49.4363477,74.3473368 C49.3289368,74.5634453 49.250029,74.7926191 49.2016072,75.029099 C49.3491494,74.8400542 49.4678162,74.6300971 49.553718,74.4061094 C49.7649844,73.9947012 50.05841,73.3952207 50.4222578,72.6429315 C51.1382163,71.138353 52.1006523,69.1165756 53.1452475,66.7656716 C54.1898427,64.4147677 55.1053306,62.3694813 55.762604,60.8884118 C56.0912407,60.1361226 56.3494552,59.513133 56.5255106,59.0782158 C56.6312965,58.858398 56.7063366,58.6250315 56.7485141,58.3846991 L56.7485141,58.3846991 Z" id="Path" fill="#263238"></path>
                    <path d="M73.1451374,76.4866594 C72.9621178,76.7344135 72.8085036,77.0026528 72.6873935,77.2859667 C72.3939679,77.8854472 72.0183831,78.649491 71.5841132,79.554589 C70.6568882,81.4588212 69.4010266,84.1153427 68.0630058,87.0539726 C66.724985,89.9926025 65.4808604,92.672633 64.6123205,94.6121287 C64.2132617,95.5407358 63.872888,96.3165341 63.6029364,96.9630326 C63.4696761,97.2434261 63.3597572,97.5343591 63.2742997,97.8328671 C63.4586723,97.5817887 63.6123485,97.3094949 63.7320437,97.0218052 L64.847061,94.7649375 C65.762549,92.8489508 67.0184106,90.2041838 68.3681684,87.2537994 C69.7179263,84.303415 70.9503138,81.6468935 71.8188537,79.7073978 C72.2296495,78.7787907 72.5582862,78.0029924 72.8282378,77.3564939 C72.9656746,77.0791819 73.0719583,76.7874517 73.1451374,76.4866594 Z" id="Path" fill="#263238"></path>
                    <path d="M63.379933,97.2098775 C63.0519096,97.1814399 62.7220462,97.1814399 62.3940229,97.2098775 L59.7062443,97.3744408 C57.4409985,97.5154951 54.3072129,97.7035674 50.8447907,97.8093581 C47.3823684,97.9151487 44.2368458,97.9386578 41.959863,97.9386578 L39.2720844,97.9386578 C38.944009,97.9114536 38.6142497,97.9114536 38.2861743,97.9386578 C38.6110951,98.001207 38.9412154,98.0326939 39.2720844,98.0326939 C39.9058837,98.0326939 40.8213716,98.1149756 41.959863,98.1502391 C44.2368458,98.2090117 47.3823684,98.2325208 50.8565277,98.1502391 C54.330687,98.0679575 57.4644726,97.8211126 59.7297183,97.6212857 C60.9034208,97.5154951 61.7719606,97.4214589 62.4057599,97.3391773 C62.7339359,97.3282176 63.0602358,97.2849085 63.379933,97.2098775 L63.379933,97.2098775 Z" id="Path" fill="#263238"></path>
                    <path d="M412.990685,107.412801 C408.932813,105.714698 404.358721,105.748662 400.326436,107.506837 C396.341375,109.270428 392.812297,111.924198 390.009591,115.26482 C384.422767,121.553488 381.312456,130.722013 379.751432,138.997195 C389.011944,140.172647 398.06119,134.189596 402.462574,130.886576 C409.42263,125.655815 418.823987,111.985309 413.025896,107.377537" id="Path" fill="#EA5E54"></path>
                    <path d="M363.002698,142.229688 C367.441445,140.025074 370.358208,135.605267 370.643501,130.651486 C370.845769,125.73748 369.069775,120.947853 365.71395,117.357124 C364.211611,115.687982 362.192843,114.183404 359.974545,114.289195 C357.84622,114.525525 356.015385,115.904076 355.197576,117.886078 C354.408241,119.844919 354.149125,121.977705 354.446407,124.068955 C355.150628,131.239212 357.145922,138.045079 363.002698,142.229688" id="Path" fill="#EA5E54"></path>
                    <path d="M350.831403,165.632936 C350.831403,165.632936 351.300884,165.198019 352.005105,164.304676 C352.709327,163.411332 353.695237,162.106581 354.868939,160.449193 C358.014817,156.163511 360.572798,151.474796 362.474531,146.508333 C364.349291,141.463329 364.823855,136.003809 363.847763,130.710259 C363.526336,129.120647 363.009902,127.576932 362.310213,126.114241 C362.122022,125.569089 361.848674,125.057285 361.500358,124.597908 C362.262923,126.627591 362.863397,128.714696 363.296123,130.839558 C364.042399,136.013728 363.477341,141.292772 361.65294,146.190961 C359.757771,151.078344 357.316596,155.735319 354.375984,160.073049 C353.085211,161.854173 351.901585,163.71076 350.831403,165.632936 Z" id="Path" fill="#263238"></path>
                    <path d="M404.645661,117.016243 C403.813653,117.521475 403.028098,118.099718 402.298256,118.744158 C400.831128,119.91961 398.777149,121.624015 396.148055,123.763337 C391.007238,128.053737 383.988498,134.09556 376.418117,140.948445 C368.847736,147.80133 362.122421,154.195789 357.345452,158.885842 C354.998047,161.236746 353.049701,163.152733 351.746891,164.504503 C351.036046,165.167499 350.38414,165.891171 349.798545,166.667334 C350.584858,166.094133 351.322857,165.45725 352.005105,164.763102 L357.814933,159.367777 C362.697535,154.795269 369.469798,148.506601 377.051916,141.653716 C384.634034,134.800831 391.558878,128.723745 396.582325,124.268782 L402.532996,119.026266 C403.288997,118.41305 403.995419,117.74095 404.645661,117.016243 Z" id="Path" fill="#263238"></path>
                    <path d="M368.331307,154.912815 C377.011823,149.144811 387.937228,147.923718 397.673868,151.633304 C400.091695,152.58542 402.732526,154.325089 402.767737,156.934592 C402.802948,159.544095 400.220803,161.3778 397.802976,162.341671 C387.393371,166.309861 375.622148,163.615418 367.967459,155.512295" id="Path" fill="#EA5E54"></path>
                    <path d="M391.347612,156.335111 C390.887819,156.002408 390.376214,155.74821 389.833536,155.582822 C389.233365,155.306031 388.613513,155.074222 387.979086,154.889305 C387.142421,154.614958 386.292341,154.383486 385.432152,154.195789 C383.202588,153.67541 380.925177,153.387848 378.636414,153.337709 C373.001715,153.206764 367.413399,154.38564 362.310213,156.781783 C360.241756,157.75875 358.275839,158.940059 356.441701,160.308139 C355.731989,160.823151 355.053924,161.380542 354.411196,161.977281 C353.901486,162.400623 353.422938,162.860243 352.979279,163.35256 C352.239846,164.151867 351.805576,164.610293 351.899472,164.657311 C351.993368,164.704329 353.671763,163.035188 356.829023,160.848847 C358.683578,159.58252 360.647584,158.484971 362.697535,157.569336 C365.210396,156.467365 367.82444,155.613089 370.502656,155.018605 C373.207269,154.47212 375.959464,154.196491 378.718573,154.195789 C380.959182,154.206689 383.194285,154.419124 385.396941,154.830533 C389.070629,155.606331 391.288927,156.546693 391.347612,156.335111 Z" id="Path" fill="#263238"></path>
                </g>
                <g id="freepik--Newletter--inject-86" transform="translate(236.910448, 84.354478)">
                    <rect id="Rectangle" fill="#FAFAFA" x="0.504374486" y="1.23270242" width="296.454901" height="325.351257"></rect>
                    <path d="M296.959276,326.58396 C296.959276,324.235955 296.853709,195.659223 296.689494,1.23270242 L296.959276,1.50272294 L0.539563403,1.50272294 L0.539563403,1.50272294 L0.844534023,1.19748235 C0.844534023,120.945717 0.844534023,232.722476 0.844534023,326.54874 L0.58648196,326.290459 L297.041383,326.54874 L0.58648196,326.80702 L0.328429898,326.80702 L0.328429898,326.54874 C0.328429898,232.722476 0.328429898,120.922237 0.328429898,1.19748235 L0.328429898,0.892241748 L0.668589435,0.892241748 L297.088302,0.892241748 L297.358083,0.892241748 L297.358083,1.15052225 C297.064843,195.670963 296.959276,324.271175 296.959276,326.58396 Z" id="Path" fill="#263238"></path>
                    <path d="M235.003321,234.272159 C235.003321,234.436519 197.304261,234.5774 150.807971,234.5774 C104.311681,234.5774 66.6008914,234.436519 66.6008914,234.272159 C66.6008914,234.107799 104.288222,233.966918 150.807971,233.966918 C197.32772,233.966918 235.003321,234.096059 235.003321,234.272159 Z" id="Path" fill="#263238"></path>
                    <path d="M261.348091,264.462499 C261.348091,264.626859 211.849014,264.76774 150.807971,264.76774 C89.7669288,264.76774 40.2561218,264.626859 40.2561218,264.462499 C40.2561218,264.298139 89.7434696,264.157258 150.807971,264.157258 C211.872473,264.157258 261.348091,264.298139 261.348091,264.462499 Z" id="Path" fill="#263238"></path>
                    <path d="M261.348091,294.462499 C261.348091,294.626859 211.849014,294.76774 150.807971,294.76774 C89.7669288,294.76774 40.2561218,294.626859 40.2561218,294.462499 C40.2561218,294.298139 89.7434696,294.157258 150.807971,294.157258 C211.872473,294.157258 261.348091,294.298139 261.348091,294.462499 Z" id="Path" fill="#263238"></path>
                    <path d="M14.4392136,13.8884472 C14.4392136,15.275988 13.3153567,16.4008121 11.9290431,16.4008121 C10.5427295,16.4008121 9.41890028,15.275988 9.41890028,13.8884472 C9.41890028,12.5009064 10.5427295,11.3760546 11.9290431,11.3760546 C12.5957312,11.3729421 13.2360203,11.6366284 13.7074453,12.1084707 C14.1788702,12.5803129 14.4423233,13.2211689 14.4392136,13.8884472 L14.4392136,13.8884472 Z" id="Path" fill="#E0E0E0"></path>
                    <ellipse id="Oval" fill="#E0E0E0" cx="20.3040055" cy="13.8884472" rx="2.51014279" ry="2.51236492"></ellipse>
                    <path d="M31.177381,13.8884472 C31.177381,15.275988 30.0535518,16.4008121 28.6672382,16.4008121 C27.2809246,16.4008121 26.1570954,15.275988 26.1570954,13.8884472 C26.1570954,12.5009064 27.2809246,11.3760823 28.6672382,11.3760823 C30.0535518,11.3760823 31.177381,12.5009064 31.177381,13.8884472 Z" id="Path" fill="#E0E0E0"></path>
                </g>
                <g id="freepik--Character--inject-86" transform="translate(192.938433, 0.000000)">
                    <path d="M318.853878,150.865591 L323.737728,133.275355 C323.737728,133.275355 325.486991,126.133719 325.909632,124.46851 C326.461413,122.263868 324.91173,121.571985 324.007749,123.073018 C323.655548,123.635906 319.79308,130.906537 319.79308,130.906537 C319.79308,130.906537 322.868966,119.00381 322.986367,118.569918 C323.984269,114.688339 321.565824,115.051871 320.861422,116.482543 C320.157021,117.913216 315.777992,129.628313 315.777992,129.628313 C319.87526,114.324808 318.595598,112.976223 317.433336,112.72996 C316.271073,112.483696 312.737326,126.485524 312.737326,126.485524 C311.807492,124.892249 310.546443,123.516652 309.039219,122.451497 C305.341112,119.906776 299.16586,122.451497 298.872359,124.187067 C298.578859,125.922637 300.774243,126.415163 300.774243,126.415163 C305.411552,123.424823 310.166261,127.048412 309.68492,131.457698 C309.20358,135.866983 303.591849,135.268915 302.899187,132.126127 C301.361244,125.219027 298.98976,127.435397 298.98976,127.435397 L301.337764,142.680268 L298.813659,150.326157" id="Path" fill="#FFBE9D"></path>
                    <polygon id="Path" fill="#455A64" points="143.105734 222.504759 248.589841 221.80115 251.489626 293.440318 142.272192 292.36145"></polygon>
                    <polyline id="Path" fill="#263238" points="143.105734 222.504759 196.687199 179.256232 248.589841 221.80115"></polyline>
                    <path d="M142.330893,292.36145 C142.190012,292.244182 150.642829,283.038625 161.19711,271.804328 C171.75139,260.57003 180.415527,251.575556 180.544667,251.692825 C180.673808,251.810093 172.232731,261.01565 161.67845,272.249947 C151.12417,283.484245 142.401333,292.490445 142.330893,292.36145 Z" id="Path" fill="#263238"></path>
                    <path d="M251.513107,293.440318 C251.383966,293.557586 243.16595,284.527932 233.163451,273.270181 C223.160951,262.01243 215.119035,252.795146 215.271655,252.677878 C215.424276,252.56061 223.618812,261.590264 233.621311,272.848015 C243.623811,284.105766 251.630507,293.32305 251.513107,293.440318 Z" id="Path" fill="#263238"></path>
                    <polyline id="Path" fill="#263238" points="248.589841 221.80115 195.595377 264.04117 143.105734 222.504759"></polyline>
                    <path d="M72.618636,141.777303 L72.9708367,141.777303 L71.5620339,137.086573 L67.0421251,119.074171 C66.6248604,117.412573 67.5470071,115.707756 69.1670692,115.145685 L72.4190556,115.028417 L83.5485974,109.833434 C84.5282402,109.46951 85.6190982,109.559006 86.5261652,110.077718 C87.4332322,110.59643 88.0627982,111.49077 88.2446066,112.518877 C88.6555074,115.837568 90.9095918,124.726501 93.3045565,121.607165 L93.4806569,121.407809 C96.8500435,116.775714 101.052972,114.266174 102.778755,114.371715 C103.539207,114.43501 104.191603,114.938359 104.445043,115.657321 C104.698484,116.376282 104.50574,117.176881 103.952757,117.702133 C103.780986,117.926843 103.565304,118.114355 103.318796,118.253294 C103.192155,118.327237 103.070573,118.409506 102.954855,118.499557 C101.464099,119.814658 100.118113,121.284929 98.9397676,122.885389 C97.8581659,124.296549 97.02813,125.883348 96.4861028,127.576119 C95.8873616,129.452411 95.4529807,131.094166 95.1125201,132.477931 L95.9812818,141.671761" id="Path" fill="#FFBE9D"></path>
                    <path d="M102.344374,60.1703342 C102.344374,60.1703342 89.3246887,57.6842475 70.6463121,40.7155331 C51.9679355,23.7468187 42.7167974,0.762243563 40.486193,0.938145924 C38.2555887,1.11404828 28.4526694,-3.1193352 11.0422153,37.6079247 C-6.36823878,78.3351846 1.23929613,87.4703806 4.91392333,87.2944782 C8.58855053,87.1185758 33.3952191,79.4492329 49.0681498,80.774364 C64.7410806,82.0994952 85.0395803,89.6632967 85.0395803,89.6632967 L102.344374,60.1703342 Z" id="Path" fill="#455A64"></path>
                    <path d="M130.449989,81.3137979 L126.270541,89.8157454 L124.403877,93.6269632 C121.83893,98.8253946 115.663782,101.128192 110.31585,98.8805804 L82.304155,90.0151014 L97.3666045,52.7707082 L125.48396,66.7256288 C130.862624,69.4066514 133.07763,75.9134347 130.449989,81.3137979 Z" id="Path" fill="#263238"></path>
                    <path d="M114.835759,95.1866308 L106.500342,112.776867 L102.039134,111.674545 L73.8630784,135.937344 L65.3515617,120.399302 C65.3515617,120.399302 82.1984948,112.577511 85.1804606,106.420928 C88.1624264,100.264346 84.4760592,98.974395 84.4760592,98.974395 L92.2479544,89.5929357 L114.835759,95.1866308 Z" id="Path" fill="#263238"></path>
                    <path d="M12.5566783,38.2998073 C3.32902022,60.3579634 -0.216466726,79.8831254 4.63216277,81.911866 C9.48079228,83.9406065 20.9038347,67.6989552 30.1314927,45.6407992 C39.3591508,23.5826432 42.9046378,4.05748112 38.0560083,2.02874056 C33.2073788,7.2475359e-13 21.7843364,16.2416513 12.5566783,38.2998073 Z" id="Path" fill="#263238"></path>
                    <polygon id="Path" fill="#455A64" points="133.173675 93.3572462 125.58962 91.2112374 129.992128 82.240217 135.72126 85.5823619"></polygon>
                    <polygon id="Path" fill="#455A64" points="89.5712292 92.7943587 110.128009 105.08407 112.511234 100.088443"></polygon>
                    <polygon id="Path" fill="#455A64" points="129.992128 82.240217 125.58962 91.2112374 127.139303 91.6451299 130.67305 82.6389291"></polygon>
                    <path d="M124.861738,84.4331331 C124.767818,84.6793964 120.975791,83.2604507 116.397182,81.4076125 C111.818573,79.5547743 108.179166,77.7488434 108.296566,77.5025801 C108.413966,77.2563168 112.194254,78.6752625 116.772863,80.5281007 C121.351471,82.3809389 124.967399,84.1868698 124.861738,84.4331331 Z" id="Path" fill="#455A64"></path>
                    <path d="M127.068863,79.0974282 C126.951462,79.3436915 123.546856,78.0068336 119.390888,76.1305417 C115.234919,74.2542499 112.006413,72.5186799 112.123813,72.2724166 C112.241214,72.0261533 115.64582,73.3630112 119.790048,75.2510299 C123.934277,77.1390486 127.139303,78.8628917 127.068863,79.0974282 Z" id="Path" fill="#455A64"></path>
                    <path d="M122.102833,90.0268282 C122.102833,90.1558233 121.175371,90.0268282 119.754828,89.5812089 C119.026947,89.3818529 118.181665,89.1238628 117.242463,88.8306922 C116.303262,88.5375216 115.32884,88.0567218 114.283978,87.6580098 C110.116269,85.8638057 106.922983,84.1399625 107.016903,83.8702456 C107.110824,83.6005286 110.53891,85.042928 114.659658,86.7667711 C115.69278,87.2006636 116.655462,87.6814634 117.559444,88.0332681 L119.966149,88.9596872 C121.316251,89.4873943 122.138053,89.8978331 122.102833,90.0268282 Z" id="Path" fill="#455A64"></path>
                    <path d="M32.5029774,32.8937415 C32.5029774,32.8937415 21.056455,26.2446322 15.3390638,41.5950449 C9.62167255,56.9454576 21.5143159,59.1031932 21.5143159,59.1031932 C26.3918354,50.9258204 30.0911096,42.1025484 32.5029774,32.8937415 L32.5029774,32.8937415 Z" id="Path" fill="#455A64"></path>
                    <path d="M43.9377598,14.4709009 C43.910129,15.4490731 43.7922293,16.4226146 43.5855591,17.3791532 C43.2803185,19.2437183 42.8576777,21.9526146 42.2237164,25.2713058 C41.8010756,26.9130612 41.3314747,28.7072653 40.8266537,30.6304644 C40.5683732,31.592064 40.3100927,32.588844 40.0400722,33.6090777 L39.6174313,35.1804721 C39.464811,35.7081792 39.2652306,36.2124327 39.0891303,36.7518666 L36.7411257,43.3657953 C36.5415453,43.9404097 36.3302249,44.5384777 36.1189045,45.1013653 C35.9075841,45.6642528 35.6258235,46.2740477 35.379283,46.8252084 L33.8061199,50.3432556 C33.2778189,51.515938 32.7495179,52.6886204 32.2212168,53.8613028 C31.9511963,54.4241904 31.7281359,55.0339853 31.4228953,55.5499655 C31.1176547,56.0659458 30.8358941,56.6288333 30.5306535,57.1682672 C29.3566512,59.2908224 28.1826489,61.3547434 27.1260468,63.313123 C26.8442863,63.7939228 26.5977458,64.2864494 26.3042452,64.7437956 L25.4120035,66.0923803 L23.6862201,68.6605548 L20.5985941,73.2574698 C18.52061,75.9194589 16.7713466,78.0302872 15.5738642,79.4844134 C14.9815388,80.2679055 14.3300196,81.004941 13.6250204,81.6890563 C14.1018327,80.8313567 14.6559051,80.0188458 15.2803636,79.2616037 L20.046813,72.847031 L23.0287788,68.1563014 C23.5570799,67.3236969 24.120601,66.4676387 24.6841221,65.5881269 L25.5646238,64.2395421 C25.8463843,63.782196 26.0811848,63.2896694 26.3629454,62.7971428 L29.6971119,56.6757406 L30.5658736,55.116073 C30.8593742,54.5766391 31.0824346,53.9433906 31.3524551,53.4274104 L32.9138782,49.9093631 C33.4421792,48.7366807 33.9704803,47.5639983 34.4753012,46.3913159 C34.7218417,45.8167016 35.0153423,45.2186335 35.2266627,44.6909264 L35.8488839,42.9670833 C36.6706856,40.6920794 37.4807471,38.4991633 38.1968885,36.4117887 C38.3729889,35.8840816 38.5843093,35.3798282 38.7486696,34.8638479 C38.9130299,34.3478676 39.0304302,33.8201606 39.1830505,33.3159071 C39.464811,32.3074002 39.7348316,31.322347 40.0048521,30.3724743 C40.5448931,28.4727288 41.0497141,26.6902515 41.5193151,25.0719498 C42.2002364,21.8118927 42.7637575,19.2085378 43.1629183,17.2736118 C43.3490504,16.3209535 43.6080912,15.3839661 43.9377598,14.4709009 L43.9377598,14.4709009 Z" id="Path" fill="#263238"></path>
                    <path d="M111.548552,182.082397 L99.9024494,137.907451 L70.8106724,138.681421 L79.8622302,200.329335 C81.0362325,213.744822 88.9255279,222.516486 102.168274,224.650768 C110.15149,225.928992 118.803886,218.33001 125.213939,213.416471 C129.393387,210.203321 130.133009,210.83657 134.453337,206.91981 L134.453337,206.91981 L153.237374,193.387055 L153.695235,195.615152 L153.577835,195.615152 L156.759381,233.281711 L195.571897,263.771453 L241.862808,226.726416 L240.806206,210.695848 C240.923606,210.695848 241.029266,210.461311 240.806206,210.461311 L239.632203,192.308188 L263.34705,219.479239 C269.030294,227.756785 278.834344,232.211078 288.815373,231.050311 C298.796402,229.889544 307.313719,223.304525 310.941103,213.944178 L323.150727,151.79201 L296.336514,146.03414 L283.78643,190.7837 L253.861111,156.388925 C236.579797,133.896877 216.410438,135.796622 216.410438,135.796622 L179.218045,135.13992 L179.135865,135.13992 C178.032303,135.13992 157.252462,135.831803 143.164434,150.865591 L111.548552,182.082397 Z" id="Path" fill="#EA5E54"></path>
                    <path d="M255.305134,158.839832 C255.305134,158.839832 254.905973,158.652203 254.131132,158.405939 C252.969236,158.049856 251.749195,157.922414 250.538685,158.030681 C248.626868,158.236099 246.7645,158.767606 245.032614,159.602075 C242.97811,160.516768 240.853166,161.94744 238.376021,163.389839 C235.728218,165.12464 232.653617,166.098319 229.488823,166.204277 C227.728721,166.103729 225.998217,165.70727 224.370173,165.031595 C222.70309,164.374893 221.047747,163.565742 219.310223,162.873859 C215.690349,161.405122 211.7185,161.029994 207.887181,161.794991 C203.895573,162.557235 200.232686,164.797058 196.487619,166.966521 C194.632507,168.069933 192.697908,169.034185 190.699787,169.851319 C188.741239,170.617757 186.687517,171.11483 184.594975,171.328899 C180.607773,171.77488 176.572202,171.218597 172.854952,169.710598 C169.574956,168.25469 166.481019,166.412225 163.639034,164.222444 C160.927089,162.264064 158.426464,160.399499 155.972799,158.980554 C153.770174,157.694346 151.399579,156.719548 148.928786,156.084028 C147.066022,155.613191 145.1379,155.454677 143.223134,155.614955 C141.595565,155.796062 140.008984,156.243768 138.527125,156.940086 L138.797146,156.775911 C138.984986,156.670369 139.266747,156.517921 139.654167,156.330291 C140.777825,155.850423 141.963421,155.530672 143.176174,155.380419 C145.120614,155.177827 147.085344,155.304697 148.987486,155.755677 C151.500989,156.363274 153.915918,157.322632 156.16064,158.605295 C158.649525,160.012514 161.17363,161.877079 163.897315,163.812005 C166.714891,165.962228 169.78157,167.765519 173.031053,169.182891 C178.615953,171.422231 184.844501,171.45577 190.453247,169.276705 C192.425348,168.469546 194.332789,167.512978 196.158898,166.41536 C199.880485,164.257624 203.613813,161.970894 207.746301,161.196923 C211.690256,160.432858 215.771937,160.840567 219.486324,162.369606 C223.008331,163.788551 226.142917,165.617936 229.465343,165.723477 C232.78777,165.829019 235.675815,164.386619 238.12948,163.038035 C240.583145,161.68945 242.755049,160.21187 244.856513,159.320632 C246.631857,158.49296 248.539529,157.984819 250.491725,157.819598 C251.726064,157.725354 252.966395,157.893209 254.131132,158.312125 C254.545669,158.431172 254.941012,158.608877 255.305134,158.839832 Z" id="Path" fill="#FAFAFA"></path>
                    <path d="M276.871556,180.839354 C276.735614,181.412749 276.522345,181.965047 276.237595,182.481109 C275.433998,183.972449 274.27722,185.244682 272.868208,186.186785 C270.653802,187.706498 268.079466,188.620249 265.401554,188.837048 C261.872952,189.065256 258.329954,188.907967 254.835533,188.367975 C251.008286,187.980989 246.617517,187.511917 242.308928,188.930862 C240.10787,189.761313 238.017967,190.860233 236.086716,192.202646 C234.018158,193.651085 231.830626,194.922114 229.547523,196.002137 C224.514053,198.184881 218.947171,198.833553 213.545872,197.866702 C210.700519,197.365214 207.956327,196.402658 205.421776,195.017084 C202.838971,193.633319 200.432266,191.921202 197.943382,190.326354 C195.552006,188.664802 192.934831,187.353737 190.171486,186.433049 C187.463906,185.657142 184.620055,185.477101 181.83607,185.905342 C176.318259,186.714492 171.270049,188.930862 166.31576,190.279447 C163.886234,191.01067 161.373034,191.428409 158.837365,191.52249 C156.433823,191.616232 154.036535,191.217134 151.793351,190.349808 C147.461283,188.567331 144.267996,185.518356 141.438651,182.891548 C138.984189,180.401616 136.277265,178.173272 133.361515,176.242439 C131.127367,174.837882 128.593672,173.978198 125.965301,173.732898 C124.306451,173.581874 122.634358,173.78166 121.057971,174.319239 C119.989629,174.717951 119.484808,175.058029 119.461328,175.022849 C119.94311,174.688214 120.4634,174.412613 121.011011,174.201971 C122.597271,173.600721 124.297791,173.360352 125.988781,173.498362 C128.664483,173.703547 131.252489,174.543804 133.537615,175.949268 C136.503742,177.861417 139.258486,180.08239 141.755631,182.574924 C144.608457,185.190005 147.778263,188.168619 152.004672,189.880735 C154.186514,190.73304 156.519414,191.13206 158.860845,191.053417 C161.350898,190.946949 163.816931,190.521297 166.198359,189.78692 C168.663764,189.095038 171.164389,188.227253 173.735454,187.441556 C176.348195,186.490148 179.039029,185.768167 181.77737,185.28382 C184.646255,184.833082 187.579057,185.013175 190.371067,185.811527 C193.188968,186.755693 195.860398,188.089907 198.307322,189.775194 C200.807947,191.393495 203.202912,193.105612 205.727017,194.465923 C208.207712,195.81969 210.891948,196.762275 213.675012,197.256907 C218.962311,198.210639 224.413755,197.586569 229.347943,195.462703 C234.043952,193.422236 237.683359,189.880735 242.168048,188.426609 C244.309334,187.754882 246.545425,187.434102 248.789421,187.476736 C250.838801,187.513348 252.884632,187.66211 254.917713,187.922355 C258.370922,188.477941 261.873749,188.662714 265.366334,188.473516 C267.99739,188.284747 270.535931,187.424713 272.739068,185.975703 C274.133305,185.063505 275.295091,183.838777 276.131935,182.399021 C276.683716,181.425695 276.836336,180.827627 276.871556,180.839354 Z" id="Path" fill="#FAFAFA"></path>
                    <path d="M310.800223,210.695848 C310.30765,210.194505 309.760264,209.750009 309.168359,209.370717 C307.488521,208.453895 305.53853,208.159025 303.662289,208.538112 C300.905765,209.252616 298.358662,210.611152 296.230854,212.501779 C294.951192,213.498559 293.624569,214.577426 292.121846,215.550753 C289.050875,217.763921 285.158647,218.510595 281.485385,217.59122 C279.815623,217.224307 278.172272,216.746352 276.566316,216.160548 C275.028373,215.644567 273.58435,215.11686 272.199027,214.753329 C270.918405,214.416984 269.609918,214.197186 268.289599,214.096627 C266.384528,213.894438 264.459898,214.202033 262.713088,214.987865 C261.539086,215.585933 260.952085,216.160548 260.905125,216.090187 C261.015347,215.940163 261.14571,215.806001 261.292546,215.691475 C261.455576,215.535168 261.632394,215.393873 261.820847,215.269309 C262.062396,215.080239 262.321917,214.915275 262.595688,214.776782 C264.360896,213.86649 266.343445,213.460686 268.324819,213.6041 C269.674963,213.678876 271.0152,213.879097 272.328167,214.202168 C273.74871,214.553973 275.216213,215.069953 276.742416,215.574206 C279.783082,216.55926 283.281609,217.767123 286.921016,217.086967 C288.669344,216.714952 290.328258,216.005926 291.804865,214.999592 C293.272368,214.049719 294.587251,212.982578 295.890393,211.997525 C298.094659,210.078957 300.734196,208.726458 303.580109,208.057312 C305.549556,207.697954 307.582597,208.069078 309.2975,209.101 C309.733998,209.403739 310.12872,209.762532 310.471502,210.168141 C310.603367,210.329171 310.713854,210.506541 310.800223,210.695848 L310.800223,210.695848 Z" id="Path" fill="#FAFAFA"></path>
                    <path d="M316.693714,176.992955 C316.40012,177.265699 316.057559,177.480553 315.684072,177.626204 C314.686398,178.075099 313.617391,178.345027 312.526006,178.423628 C310.912583,178.530684 309.292333,178.384274 307.724337,177.989735 C305.831919,177.490738 303.973235,176.871873 302.159566,176.136897 C300.374393,175.422349 298.527392,174.872797 296.641755,174.495142 C295.088566,174.219668 293.498935,174.219668 291.945746,174.495142 C290.528958,174.78865 289.186822,175.367195 288.001098,176.195531 C288.234817,175.868363 288.529854,175.589588 288.86986,175.374654 C289.768274,174.748737 290.781682,174.306368 291.851826,174.072976 C293.438899,173.734385 295.075294,173.694615 296.676975,173.955708 C298.612897,174.31478 300.508401,174.864722 302.335666,175.597463 C304.130476,176.314508 305.960327,176.940734 307.818257,177.473755 C309.330184,177.874487 310.891909,178.056155 312.455566,178.013189 C313.917158,177.923402 315.351633,177.578086 316.693714,176.992955 L316.693714,176.992955 Z" id="Path" fill="#FAFAFA"></path>
                    <path d="M238.845622,221.32035 C237.853013,220.791134 236.829831,220.321235 235.781476,219.913131 C232.862891,218.935057 229.763692,218.614673 226.706438,218.974985 C222.194637,219.578425 217.823749,220.967598 213.792413,223.079374 C209.096403,225.27229 204.200814,228.203996 198.459943,230.115468 C195.672217,231.047582 192.758533,231.549785 189.819286,231.604775 C187.07953,231.559282 184.363134,231.092556 181.76563,230.22101 C179.437835,229.435013 177.153181,228.526876 174.921196,227.500387 C172.819732,226.573967 170.870889,225.671002 169.051185,224.967393 C166.227522,223.744478 163.235407,222.953803 160.175728,222.622028 L158.731705,222.53994 L157.663363,222.53994 C157.37051,222.567485 157.075714,222.567485 156.782861,222.53994 C157.072209,222.474342 157.366916,222.435092 157.663363,222.422672 L158.719965,222.328857 C159.142606,222.328857 159.635686,222.328857 160.187468,222.328857 C163.287736,222.562659 166.331123,223.287025 169.203805,224.474866 C171.046989,225.166749 173.007573,226.04626 175.073817,226.949226 C177.299708,227.950702 179.576462,228.835329 181.89477,229.599488 C184.438273,230.437194 187.094438,230.884004 189.772326,230.924619 C192.64877,230.864425 195.49918,230.366165 198.225142,229.447039 C203.872093,227.617655 208.791163,224.75631 213.487172,222.53994 C217.591533,220.418391 222.046147,219.055699 226.635998,218.517639 C229.749742,218.189697 232.897151,218.591213 235.828436,219.690322 C236.907671,220.08532 237.923947,220.634362 238.845622,221.32035 L238.845622,221.32035 Z" id="Path" fill="#FAFAFA"></path>
                    <path d="M78.5121275,191.346588 C78.6782102,191.226755 78.8653989,191.139233 79.0639086,191.088598 C79.6523781,190.933106 80.274024,190.957617 80.8483921,191.158959 C81.7671174,191.456421 82.5817146,192.009725 83.1963967,192.753807 C83.929099,193.750601 84.5510657,194.824057 85.0513203,195.95523 C85.6815034,197.263262 86.5630815,198.434722 87.6458654,199.402916 C88.9240265,200.464321 90.400536,201.261537 91.9896739,201.748281 C95.7042926,202.830928 99.6227365,203.019798 103.424456,202.299442 C107.26763,201.553779 111.159866,201.087393 115.070559,200.90395 C118.322102,200.831922 121.523023,201.716895 124.274737,203.44867 C126.1498,204.595045 127.616129,206.301787 128.465925,208.327029 C128.777962,209.070428 128.945307,209.866415 128.959006,210.672394 C128.759014,209.921675 128.519976,209.181881 128.242865,208.456024 C127.343396,206.528817 125.877293,204.92119 124.039937,203.847382 C121.339254,202.217678 118.224257,201.40315 115.070559,201.502018 C111.191019,201.714805 107.330984,202.196767 103.518377,202.944417 C99.6118659,203.682199 95.5849053,203.46901 91.7783535,202.322895 C90.1222477,201.782439 88.5927481,200.912841 87.2819247,199.766448 C86.1616522,198.745332 85.2592209,197.508876 84.6286795,196.131132 C84.1626459,195.013893 83.5802681,193.948711 82.8911561,192.953163 C82.3438169,192.238534 81.6079986,191.690336 80.766212,191.370042 C80.0396569,191.104902 79.2440543,191.096624 78.5121275,191.346588 L78.5121275,191.346588 Z" id="Path" fill="#FAFAFA"></path>
                    <path d="M103.976237,155.521141 C102.760711,154.555673 101.369265,153.834846 99.8789694,153.398585 C98.2586495,152.980507 96.5742912,152.869138 94.9129397,153.070234 C92.8863705,153.360416 90.9104956,153.932776 89.0429282,154.770624 C87.0236442,155.638409 85.1569806,156.635189 83.4311972,157.47952 C81.9079607,158.255942 80.3398577,158.941212 78.735188,159.531714 C77.6432319,159.914741 76.5196965,160.201195 75.3775414,160.387772 C74.961611,160.479888 74.5339737,160.507574 74.1096189,160.46986 C75.6247458,160.104494 77.1180893,159.654254 78.5825677,159.121275 C80.1557112,158.484011 81.6956171,157.767761 83.1963967,156.975267 C84.8987,156.107482 86.7771037,155.098975 88.8316078,154.207736 C90.766772,153.343962 92.8206054,152.774753 94.9246797,152.519074 C96.6567459,152.328726 98.4094471,152.488246 100.07855,152.988147 C101.20104,153.327475 102.248809,153.876637 103.166176,154.606448 C103.487516,154.861843 103.761666,155.171403 103.976237,155.521141 Z" id="Path" fill="#FAFAFA"></path>
                    <g id="Group" opacity="0.3" transform="translate(188.116982, 192.044620)" fill="#000000">
                        <path d="M0.868761702,66.4966697 C15.9312112,57.7719126 33.3768854,47.5343953 42.0762424,32.48888 C47.6410133,22.8494306 50.4116588,11.3102358 51.4682608,0.240113873 L53.7340853,34.6583425 L7.44317458,71.7033796 L0.868761702,66.4966697 Z" id="Path"></path>
                    </g>
                    <g id="Group" opacity="0.2" transform="translate(110.632830, 144.239936)" fill="#000000">
                        <path d="M39.282117,0.445619314 C35.9478276,13.4670454 28.7344304,25.1705258 18.5961964,34.0077897 C16.1830857,36.2797796 13.3525673,38.0637889 10.2607801,39.2614069 C7.13233965,40.4516915 3.64042136,40.224865 0.692661357,38.6398852 L0.915721794,37.8424612 L24.3957678,14.6350764 L39.282117,0.445619314 Z" id="Path"></path>
                    </g>
                    <path d="M114.530518,200.528691 C114.436598,200.528691 114.812279,199.46155 115.129259,197.749434 C115.526139,195.512998 115.545979,193.226027 115.187959,190.983056 C114.813439,188.741543 114.059099,186.580209 112.957355,184.591937 C112.100333,183.06745 111.407672,182.246573 111.489852,182.152758 C112.234442,182.773066 112.859123,183.524224 113.333036,184.369128 C114.573021,186.35553 115.406948,188.567534 115.786701,190.877515 C116.176256,193.191701 116.096409,195.560477 115.5519,197.843248 C115.377249,198.792847 115.031157,199.702801 114.530518,200.528691 L114.530518,200.528691 Z" id="Path" fill="#263238"></path>
                    <path d="M107.803485,194.665279 C110.397748,191.261269 111.583025,186.991515 111.114171,182.739099 C111.40872,183.30919 111.56932,183.938838 111.583772,184.580211 C111.90255,187.692234 111.039394,190.810332 109.165328,193.316694 C108.437446,194.231387 107.862185,194.665279 107.803485,194.665279 Z" id="Path" fill="#263238"></path>
                    <path d="M151.488111,170.390753 C151.652471,170.390753 152.662113,179.772213 153.636535,191.2645 C154.610957,202.756788 155.350578,212.185154 155.174478,212.196892 C154.998377,212.208608 154.000475,202.815422 153.026054,191.323134 C152.051632,179.830847 151.31201,170.40248 151.488111,170.390753 Z" id="Path" fill="#263238"></path>
                    <path d="M214.156353,134.459765 C214.269225,134.658935 214.356028,134.871758 214.414634,135.093013 C214.629888,135.704878 214.79864,136.332087 214.919455,136.969305 C215.371485,139.340074 215.335535,141.777953 214.813795,144.134394 C214.046241,147.657522 212.26752,150.880886 209.695145,153.410312 C202.930926,159.634061 192.588014,159.860184 185.557657,153.938019 C182.880204,151.521925 180.96323,148.380807 180.039846,144.896638 C179.417158,142.565264 179.269445,140.132735 179.605466,137.743275 C179.704408,137.10043 179.849577,136.465539 180.039846,135.84353 C180.087848,135.620328 180.162747,135.403758 180.262907,135.198554 C180.333347,135.198554 180.039846,136.113247 179.840266,137.778456 C179.5986,140.141296 179.805721,142.52847 180.450747,144.81455 C181.403456,148.188041 183.301623,151.219252 185.921598,153.551034 C192.758647,159.218135 202.727857,158.99818 209.307724,153.035054 C213.572298,148.882946 215.573765,142.933312 214.684654,137.051393 C214.426374,135.36273 214.085913,134.483218 214.156353,134.459765 Z" id="Path" fill="#263238"></path>
                    <path d="M282.365887,205.102153 C281.992086,202.669201 281.925037,200.199043 282.166307,197.749434 C282.208398,195.284833 282.555404,192.834885 283.199429,190.455349 C283.375529,190.455349 282.999848,193.750587 282.776788,197.784614 C282.553727,201.818642 282.541987,205.102153 282.365887,205.102153 Z" id="Path" fill="#263238"></path>
                    <path d="M287.073636,207.236435 C286.641093,206.500926 286.305672,205.712589 286.075734,204.89107 C285.409336,202.912985 284.86437,200.896134 284.443871,198.851755 C284.020389,196.807478 283.718533,194.739935 283.539889,192.659992 C283.422378,191.800103 283.422378,190.928253 283.539889,190.068364 C283.71599,190.068364 284.06819,193.985123 285.066092,198.734487 C286.063994,203.483851 287.249737,207.1778 287.073636,207.236435 Z" id="Path" fill="#263238"></path>
                    <path d="M239.608723,207.91659 C239.432623,207.91659 239.045202,201.314388 238.739961,193.152519 C238.434721,184.990649 238.329061,178.388447 238.493421,178.376705 C238.657781,178.364994 239.045202,184.978923 239.350443,193.129065 C239.655683,201.279208 239.773084,207.904864 239.608723,207.91659 Z" id="Path" fill="#263238"></path>
                    <path d="M197.509001,156.388925 L197.509001,156.388925 C188.70873,156.217035 181.560862,149.236436 181.190369,140.452172 C180.920348,134.025872 180.697288,128.12728 180.697288,128.12728 C180.697288,128.12728 167.231481,126.696607 166.42142,113.363208 C165.611358,100.029809 166.42142,69.2586228 166.42142,69.2586228 L166.42142,69.2586228 C181.570204,61.8638166 199.539878,63.2414384 213.381512,72.8587578 L215.436016,74.2894303 L214.449854,139.959645 C214.397413,144.386436 212.579909,148.609593 209.400018,151.693459 C206.220127,154.777326 201.94039,156.467287 197.509001,156.388925 Z" id="Path" fill="#FFBE9D"></path>
                    <path d="M180.685548,127.93965 C186.859038,127.751738 192.837342,125.735359 197.861201,122.146599 C197.861201,122.146599 194.210054,131.950224 180.814688,131.399063 L180.685548,127.93965 Z" id="Path" fill="#EB996E"></path>
                    <path d="M214.473334,88.1857168 C214.696394,88.0801754 223.524892,85.0312012 223.677512,94.1781239 C223.830132,103.325047 214.614214,101.57775 214.590734,101.31976 C214.567254,101.06177 214.473334,88.1857168 214.473334,88.1857168 Z" id="Path" fill="#FFBE9D"></path>
                    <path d="M217.32616,97.8134394 C217.32616,97.8134394 217.49052,97.9189808 217.76054,98.036249 C218.137674,98.1851751 218.557409,98.1851751 218.934543,98.036249 C219.897225,97.6727175 220.683806,96.1247767 220.695546,94.5182018 C220.708285,93.7371461 220.543719,92.9633557 220.214205,92.2549248 C220.031258,91.7001408 219.595611,91.2649843 219.040203,91.0822424 C218.661167,90.9920445 218.271544,91.1841737 218.112741,91.5395885 C217.995341,91.7975786 218.112741,91.973481 218.007081,91.9969346 C217.901421,92.0203883 217.8075,91.8444859 217.877941,91.4575007 C217.921918,91.2325617 218.042155,91.0296318 218.218401,90.8828864 C218.466523,90.6853131 218.784145,90.596479 219.098903,90.6366231 C219.866255,90.7781387 220.505751,91.3060167 220.789466,92.0321151 C221.194843,92.8143069 221.400515,93.6844083 221.388207,94.5651091 C221.388207,96.4062205 220.437266,98.1417905 219.122383,98.5522293 C218.628411,98.7023264 218.092936,98.6203699 217.66662,98.3294196 C217.34964,98.0245222 217.302679,97.8251662 217.32616,97.8134394 Z" id="Path" fill="#EB996E"></path>
                    <path d="M172.854952,89.440487 C172.841658,90.4762974 173.661566,91.3317992 174.698136,91.3636862 C175.186806,91.4023341 175.670418,91.2424128 176.039467,90.9201335 C176.408517,90.5978543 176.631786,90.1404784 176.65872,89.6515698 C176.672367,88.618072 175.861077,87.7609412 174.827276,87.7166439 C174.335492,87.6780047 173.848897,87.8391658 173.477649,88.1636431 C173.1064,88.4881205 172.881893,88.9484736 172.854952,89.440487 Z" id="Path" fill="#263238"></path>
                    <path d="M170.506948,87.5290147 C170.741748,87.7870048 172.185771,86.708137 174.240275,86.7198638 C176.294779,86.7315907 177.762282,87.7518243 178.032303,87.4938342 C178.302323,87.2358441 177.903162,86.9426735 177.245721,86.4618737 C176.357435,85.8439348 175.299247,85.5161834 174.216795,85.5237278 C173.146109,85.5218169 172.102283,85.8584212 171.234829,86.4853273 C170.612608,86.9661271 170.401288,87.4234733 170.506948,87.5290147 Z" id="Path" fill="#263238"></path>
                    <path d="M192.578191,89.6750235 C192.564896,90.7108339 193.384805,91.5663357 194.421375,91.5982226 C194.911979,91.6402031 195.398673,91.4817946 195.770337,91.159164 C196.142001,90.8365334 196.366904,90.3772253 196.393699,89.8861063 C196.40715,88.848231 195.588944,87.9893006 194.550515,87.9511804 C194.05873,87.9125412 193.572136,88.0737023 193.200887,88.3981796 C192.829639,88.722657 192.605132,89.18301 192.578191,89.6750235 Z" id="Path" fill="#263238"></path>
                    <path d="M190.723267,87.9511804 C190.958068,88.1974437 192.413831,87.1303027 194.468335,87.1303027 C196.522839,87.1303027 197.990342,88.1622632 198.248622,87.9159999 C198.506903,87.6697366 198.119482,87.3531123 197.462041,86.8840394 C196.576201,86.2611157 195.516373,85.9328564 194.433115,85.9458934 C193.362805,85.9463772 192.319699,86.2827494 191.451149,86.907493 C190.828928,87.3531123 190.605867,87.7987316 190.723267,87.9511804 Z" id="Path" fill="#263238"></path>
                    <path d="M183.268353,103.196052 C182.18259,102.855349 181.058704,102.65052 179.922446,102.586257 C179.394145,102.586257 178.901064,102.433808 178.818884,102.070277 C178.771647,101.531687 178.890447,100.99155 179.159345,100.522336 C179.664166,99.2558387 180.180727,97.9189808 180.720768,96.5234887 C182.869192,90.8359791 184.430615,86.1687031 184.242775,86.0866153 C184.054934,86.0045276 182.07087,90.5310816 179.922446,96.2185913 C179.405885,97.6258102 178.901064,98.9626681 178.431463,100.240892 C178.10075,100.871353 178.005051,101.598677 178.161443,102.293086 C178.313739,102.668311 178.629417,102.953398 179.018464,103.067057 C179.310185,103.141275 179.609695,103.18064 179.910706,103.184325 C181.024975,103.329259 182.153097,103.3332 183.268353,103.196052 L183.268353,103.196052 Z" id="Path" fill="#263238"></path>
                    <path d="M189.290985,104.56809 C188.962264,104.56809 188.950524,106.772733 187.0369,108.355854 C185.123276,109.938975 182.751792,109.692712 182.740052,110.009336 C182.740052,110.150058 183.268353,110.443229 184.277995,110.466683 C185.58606,110.484161 186.858308,110.039791 187.870442,109.211912 C188.839191,108.416836 189.461935,107.277822 189.607965,106.033943 C189.713625,105.107524 189.467085,104.556363 189.290985,104.56809 Z" id="Path" fill="#263238"></path>
                    <path d="M190.194966,79.8713986 C190.394547,80.4225593 192.449051,80.1645692 194.890976,80.4577398 C197.3329,80.7509104 199.246524,81.3958857 199.586985,80.9033591 C199.739605,80.6570958 199.399144,80.1293887 198.612563,79.5899548 C196.482786,78.2523065 193.856945,77.9627948 191.486369,78.8042576 C190.547167,79.1677891 190.112786,79.6016816 190.194966,79.8713986 Z" id="Path" fill="#263238"></path>
                    <path d="M171.270049,81.5835149 C171.63399,82.0525879 173.054533,81.5835149 174.792056,81.5835149 C176.52958,81.5835149 177.938382,81.9001391 178.314063,81.4076125 C178.454943,81.1730761 178.231883,80.7040031 177.597922,80.2349301 C176.755775,79.6961415 175.76774,79.4299584 174.768576,79.4726866 C173.76941,79.4875667 172.800195,79.8157446 171.997931,80.4108325 C171.305269,80.9150859 171.117429,81.3607052 171.270049,81.5835149 Z" id="Path" fill="#263238"></path>
                    <path d="M159.623946,60.4400511 C159.437471,58.7538844 160.128659,57.0898181 161.45539,56.0307653 C162.846913,55.0253376 164.761532,55.1690203 165.987039,56.3708432 C165.736829,55.2411503 165.977013,54.0584532 166.64815,53.1154485 C167.319287,52.1724439 168.358661,51.5572525 169.509046,51.4221234 C171.69269,51.2814016 173.559354,52.9348837 175.660818,53.5094981 C177.76433,53.9378419 179.949998,53.6788169 181.89477,52.7707082 C183.878834,51.9732842 185.733758,50.8709627 187.764782,50.1438996 C196.577704,46.9244741 206.341883,51.3981799 209.648184,60.1703342 C212.705899,59.4212697 215.909297,60.6340205 217.70184,63.2193084 C219.40821,65.804324 220.09036,68.9311623 219.615464,71.9909728 C219.324812,74.0388218 218.80905,76.0484271 218.077521,77.9833799 C218.077521,78.1592823 218.077521,78.3234578 218.077521,78.4993602 C217.936641,85.840352 217.103099,94.4712945 213.968513,94.5182018 C208.497662,94.6002896 209.800805,84.3041381 209.800805,84.3041381 C203.085512,81.7242368 205.586137,71.6743486 203.930793,70.1498614 C202.27545,68.6253743 198.741703,65.0838735 184.688896,72.2606898 C179.229785,75.0399471 171.974451,74.9578593 168.006323,74.0548939 C167.891529,74.0382631 167.777838,74.0147672 167.665862,73.9845329 L167.583682,73.9845329 L167.466282,73.9845329 C166.193072,73.6659544 164.977166,73.1516543 163.862095,72.4600458 C162.543638,71.7031367 161.502673,70.5441567 160.891869,69.1530814 C160.294734,67.7334908 160.594134,66.0955436 161.65497,64.978332 C160.544663,63.6987795 159.838018,62.1197964 159.623946,60.4400511 L159.623946,60.4400511 Z" id="Path" fill="#263238"></path>
                </g>
            </g>
        </g>
    </g>
</svg>