<svg xmlns="http://www.w3.org/2000/svg" width="453" height="150" viewBox="0 0 453 150">
    <g fill="none" fill-rule="evenodd">
        <g fill="#000">
            <g>
                <path d="M0 10.46l52.307.004v16.962l-30.404-.003v7.845l30.404.004v15.69l-30.404-.003v7.846l30.404.003v17.034L0 75.84V10.46zm173.915 0l52.307.004v16.962l-30.402-.003v7.845l30.402.004v15.69l-30.402-.003v7.846l30.402.003v17.034l-52.307-.002V10.46zm-85.853 0c7.197 0 13.554 1.321 19.056 3.963 4.556 2.194 6.014 3.424 7.16 4.562l.178.179.177.178.175.178.178.18c2.022 2.021 4.558 7.118 4.784 7.549l.013.023-28.096 48.453c-.887.06-1.788.096-2.704.11l-.921.008H56.229V10.46h31.833zM142.442 0c6.276 0 11.899 1.072 16.868 3.204 3.007 1.294 5.714 2.929 8.094 4.956l-9.611 16.62c-4.001-4.695-8.761-7.035-14.253-7.035-4.747 0-8.526 1.451-11.338 4.367-2.412 2.503-5.825 9.194-6.721 10.992l-.095.192-.113.228-.014.03s4.119 9.271 6.891 12.24c2.785 2.981 6.486 4.459 11.115 4.459 2.746 0 5.375-.523 7.872-1.583V32.233h18.739v27.5c-3.78 2.668-8.173 4.708-13.155 6.133-5.009 1.425-9.912 2.131-14.737 2.131-6.813 0-12.946-1.438-18.386-4.315-5.413-2.877-9.676-6.903-12.75-12.082-.156-.262-.313-.537-.457-.811L139.656.092C140.571.026 141.5 0 142.441 0zm-55.3 27.46h-9.139v31.383h9.14c4.676 0 8.418-1.543 11.215-4.25 2.797-2.705 7.305-11.483 7.305-11.483s-4.508-8.693-7.305-11.4c-2.797-2.706-6.54-4.066-11.215-4.25z" transform="translate(-80 -250) translate(80 250)"/>
                <path fill-rule="nonzero" d="M115.305 84.27c6.765 0 12.841 1.406 18.229 4.22 5.387 2.814 9.608 6.72 12.66 11.718 3.054 4.999 4.58 10.641 4.58 16.927s-1.526 11.928-4.58 16.926c-3.052 4.999-7.273 8.905-12.66 11.719-5.388 2.813-11.464 4.22-18.229 4.22-6.764 0-12.84-1.407-18.228-4.22-5.388-2.814-9.608-6.72-12.661-11.719-3.053-4.998-4.58-10.64-4.58-16.926 0-6.286 1.527-11.928 4.58-16.927 3.053-4.998 7.273-8.904 12.66-11.718 5.388-2.814 11.465-4.22 18.23-4.22zm324.99 42.024c3.412 0 6.241 1.063 8.486 3.188 2.245 2.125 3.367 4.894 3.367 8.306 0 3.412-1.122 6.21-3.367 8.396-2.245 2.185-5.074 3.277-8.486 3.277-3.412 0-6.24-1.092-8.486-3.277-2.244-2.185-3.367-4.984-3.367-8.396 0-3.412 1.123-6.181 3.367-8.306 2.245-2.125 5.074-3.188 8.486-3.188zM17.42 85.706L37.894 119.2l19.934-33.494h17.42l.18 62.857H56.122l-.18-28.645-13.648 22.988h-9.339l-13.649-22v27.657H0V85.706h17.42zm171.346 0l.61.003c8.078.071 14.206 1.567 18.382 4.487 4.28 2.993 6.42 6.974 6.42 11.943 0 2.933-.733 5.567-2.2 7.902s-3.637 4.22-6.51 5.657c3.711 1.377 6.585 3.382 8.62 6.016 2.035 2.634 3.053 5.807 3.053 9.519 0 5.507-2.275 9.772-6.824 12.796-4.439 2.949-10.815 4.46-19.128 4.532l-.627.002h-35.38V85.706h33.584zm53.975 0v62.857h-21.192V85.706h21.192zm25.6 0v46.425h28.375v16.432h-49.568V85.706h21.192zm53.974 0v62.857h-21.192V85.706h21.192zm74.014 0l12.84 21.73 12.931-21.73h20.474l-23.706 40.05v22.807h-21.192v-23.077l-13.914-23.347h-17.44v46.424h-21.191V102.14h-18.408V85.706h69.606zM188.766 123.87h-12.751v9.878h12.75c4.67 0 7.005-1.646 7.005-4.939 0-3.292-2.335-4.939-7.004-4.939zm-73.46-22.448c-2.635 0-5.014.643-7.14 1.93-2.125 1.287-3.816 3.113-5.073 5.478-1.257 2.364-1.886 5.133-1.886 8.306 0 3.173.629 5.941 1.886 8.306 1.257 2.365 2.948 4.19 5.074 5.477 2.125 1.288 4.504 1.931 7.138 1.931 2.634 0 5.014-.643 7.139-1.93 2.125-1.288 3.816-3.113 5.073-5.478 1.258-2.365 1.886-5.133 1.886-8.306 0-3.173-.628-5.942-1.886-8.306-1.257-2.365-2.948-4.19-5.073-5.478-2.125-1.287-4.505-1.93-7.139-1.93zm70.586-.898h-9.877v9.338h9.877c4.61 0 6.915-1.556 6.915-4.669 0-3.113-2.305-4.67-6.915-4.67z" transform="translate(-80 -250) translate(80 250)"/>
            </g>
        </g>
    </g>
</svg>
