<svg xmlns="http://www.w3.org/2000/svg" width="616" height="150" viewBox="0 0 616 150">
    <g fill="none" fill-rule="evenodd">
        <g fill="#FFF">
            <g>
                <path d="M0 10.46l52.307.004v16.962l-30.404-.003v7.845l30.404.004v15.69l-30.404-.003v7.846l30.404.003v17.034L0 75.84V10.46zm173.915 0l52.307.004v16.962l-30.402-.003v7.845l30.402.004v15.69l-30.402-.003v7.846l30.402.003v17.034l-52.307-.002V10.46zm-85.853 0c7.197 0 13.554 1.321 19.056 3.963 4.556 2.194 6.014 3.424 7.16 4.562l.178.179.177.178.175.178.178.18c2.022 2.021 4.558 7.118 4.784 7.549l.013.023-28.096 48.453c-.887.06-1.788.096-2.704.11l-.921.008H56.229V10.46h31.833zM142.442 0c6.276 0 11.899 1.072 16.868 3.204 3.007 1.294 5.714 2.929 8.094 4.956l-9.611 16.62c-4.001-4.695-8.761-7.035-14.253-7.035-4.747 0-8.526 1.451-11.338 4.367-2.412 2.503-5.825 9.194-6.721 10.992l-.095.192-.113.228-.014.03s4.119 9.271 6.891 12.24c2.785 2.981 6.486 4.459 11.115 4.459 2.746 0 5.375-.523 7.872-1.583V32.233h18.739v27.5c-3.78 2.668-8.173 4.708-13.155 6.133-5.009 1.425-9.912 2.131-14.737 2.131-6.813 0-12.946-1.438-18.386-4.315-5.413-2.877-9.676-6.903-12.75-12.082-.156-.262-.313-.537-.457-.811L139.656.092C140.571.026 141.5 0 142.441 0zm-55.3 27.46h-9.139v31.383h9.14c4.676 0 8.418-1.543 11.215-4.25 2.797-2.705 7.305-11.483 7.305-11.483s-4.508-8.693-7.305-11.4c-2.797-2.706-6.54-4.066-11.215-4.25z" transform="translate(-80 -260) translate(80 260)"/>
                <path fill-rule="nonzero" d="M603.332 125.698c3.505 0 6.411 1.092 8.718 3.275 2.306 2.184 3.46 5.028 3.46 8.534 0 3.505-1.154 6.38-3.46 8.625-2.307 2.245-5.213 3.368-8.718 3.368-3.506 0-6.412-1.123-8.718-3.368-2.306-2.244-3.46-5.12-3.46-8.625 0-3.506 1.154-6.35 3.46-8.534 2.306-2.183 5.212-3.275 8.718-3.275zM31.089 84l.685.004c5.68.073 10.648 1.056 14.906 2.948 4.428 1.968 7.842 4.797 10.24 8.487 2.399 3.69 3.598 7.996 3.598 12.916s-1.2 9.225-3.598 12.915c-2.398 3.69-5.812 6.52-10.24 8.488-4.258 1.892-9.226 2.874-14.906 2.947l-.685.005h-9.317v15.867H0V84h31.09zm68.562 0l28.23 64.577h-22.51l-4.336-11.255h-24.54l-4.335 11.255H50.019L78.249 84H99.65zm72.48 0v16.882h-18.913v47.695h-21.772v-47.695h-18.911V84h59.595zm26.777 0v22.879h20.112V84h21.771v64.577H219.02v-23.801h-20.112v23.801h-21.771V84h21.771zm99.215 0v16.421h-30.72v11.07h30.72v16.421h-30.72v20.665H245.63V84h52.492zm26.384 0v64.577h-21.771V84h21.771zm22.737 0l24.54 29.336V84h21.218v64.577h-17.897l-24.54-29.336v29.336h-21.218V84h17.897zm82.425 0l.741.005c6.892.087 12.994 1.392 18.31 3.916 5.504 2.614 9.778 6.35 12.822 11.209 3.045 4.858 4.567 10.578 4.567 17.159 0 6.58-1.522 12.3-4.567 17.159-3.044 4.858-7.318 8.595-12.823 11.208-5.315 2.524-11.417 3.83-18.309 3.917l-.741.004h-31.827V84h31.827zm94.073 0v16.421h-32.288v7.565h32.288v15.683h-32.288v8.487h32.288v16.421h-53.691V84h53.691zm35.493 0l.685.004c5.68.073 10.648 1.056 14.906 2.948 4.428 1.968 7.841 4.797 10.24 8.487 2.398 3.69 3.598 7.996 3.598 12.916 0 4.612-1.046 8.64-3.137 12.085-2.008 3.306-4.865 5.96-8.573 7.964l-.468.247 13.561 19.926H566.8l-10.979-16.236h-5.904v16.236h-21.772V84h31.09zm-130.489 16.975h-9.133v30.628h9.133c4.674 0 8.41-1.338 11.21-4.013 2.797-2.676 4.197-6.443 4.197-11.301 0-4.86-1.4-8.626-4.198-11.301-2.798-2.676-6.535-4.013-11.209-4.013zm-339.98 4.428l-6.274 16.236h12.546l-6.273-16.236zm-59.06-4.613h-7.934v15.13h7.933c2.953 0 5.167-.662 6.643-1.984s2.214-3.183 2.214-5.581c0-2.399-.738-4.26-2.214-5.581-1.476-1.323-3.69-1.984-6.643-1.984zm528.145 0h-7.934v15.13h7.934c2.952 0 5.166-.662 6.642-1.984s2.214-3.183 2.214-5.581c0-2.399-.738-4.26-2.214-5.581-1.476-1.323-3.69-1.984-6.642-1.984z" transform="translate(-80 -260) translate(80 260)"/>
            </g>
        </g>
    </g>
</svg>
