<svg xmlns="http://www.w3.org/2000/svg" xmlns:xlink="http://www.w3.org/1999/xlink" width="620" height="420" viewBox="0 0 620 420">
    <defs>
        <linearGradient id="6mbsfqa4bc" x1="71.713%" x2="0%" y1="32.423%" y2="79.735%">
            <stop offset="0%" stop-color="#F9250B"/>
            <stop offset="100%" stop-color="#AB0000"/>
        </linearGradient>
        <linearGradient id="mmx0w19sbd" x1="100%" x2="0%" y1="50%" y2="50%">
            <stop offset="0%" stop-color="#FFD9BE"/>
            <stop offset="100%" stop-color="#FFB18A"/>
        </linearGradient>
        <path id="gvehzrqx3a" d="M0 0H620V420H0z"/>
    </defs>
    <g fill="none" fill-rule="evenodd">
        <g>
            <g transform="translate(-79 -236) translate(79 236)">
                <mask id="1w2cwqxhcb" fill="#fff">
                    <use xlink:href="#gvehzrqx3a"/>
                </mask>
                <use fill="#EDEDED" xlink:href="#gvehzrqx3a"/>
                <g mask="url(#1w2cwqxhcb)">
                    <g>
                        <g>
                            <path fill="#ED2012" d="M146.876 0L0 254.405 183.019 254.405 329.895 0z" opacity=".3" transform="translate(245) translate(0 .449)"/>
                            <path fill="url(#6mbsfqa4bc)" d="M190.869 77.834L43.993 332.238 227.012 332.238 373.888 77.834z" transform="translate(245) translate(0 .449)"/>
                        </g>
                        <g fill-rule="nonzero">
                            <g transform="translate(245) translate(20.762 11.534) matrix(-1 0 0 1 365.373 0)">
                                <path fill="#E0E0E0" d="M18.234 217.49c-2.986.24-5.982.321-8.977.242-2.992.079-5.985-.002-8.968-.242 2.983-.246 5.976-.327 8.968-.242 2.995-.085 5.992-.004 8.977.242zM355.568 315.457c-.245-2.886-.326-5.784-.242-8.679-.084-2.898-.003-5.799.242-8.688.24 2.89.321 5.79.243 8.688.078 2.895-.003 5.793-.243 8.68z"/>
                                <path fill="#E0E0E0" d="M364.546 306.769c-2.986.251-5.983.336-8.978.252-2.994.084-5.992 0-8.977-.252 2.986-.24 5.983-.321 8.977-.242 2.995-.079 5.992.002 8.978.242zM302.888 17.482c-.245-2.89-.326-5.79-.242-8.689-.084-2.895-.003-5.793.242-8.679.24 2.887.321 5.784.243 8.68.078 2.898-.002 5.798-.243 8.688z"/>
                                <path fill="#E0E0E0" d="M311.866 8.793c-2.986.246-5.983.327-8.978.243-2.994.084-5.991.003-8.977-.243 2.986-.24 5.983-.32 8.977-.242 2.995-.079 5.992.002 8.978.242z"/>
                                <circle cx="19.25" cy="144.637" r="5.304" fill="#FFF"/>
                                <path fill="#FFF" d="M280.338 270.328c.005 2.927-2.362 5.305-5.289 5.314-2.927.008-5.308-2.356-5.32-5.283-.012-2.927 2.35-5.31 5.277-5.326 1.41-.007 2.765.547 3.765 1.54 1 .994 1.565 2.345 1.567 3.755zM122.69 6.118c0 2.93-2.375 5.304-5.305 5.304-2.929 0-5.304-2.375-5.304-5.304 0-2.93 2.375-5.305 5.304-5.305 2.93 0 5.305 2.375 5.305 5.305z"/>
                                <circle cx="145.175" cy="320.006" r="2.657" fill="#E0E0E0"/>
                                <path fill="#E0E0E0" d="M83.816 306.769c.004 1.075-.641 2.047-1.633 2.461-.993.414-2.137.19-2.899-.57-.762-.759-.99-1.902-.58-2.896.41-.994 1.38-1.643 2.455-1.643.704-.002 1.38.276 1.878.773.499.496.78 1.171.78 1.875z"/>
                                <path fill="#FFF" d="M149.22 11.469c0 1.467-1.189 2.657-2.656 2.657s-2.657-1.19-2.657-2.657c0-1.468 1.19-2.657 2.657-2.657 1.465.005 2.652 1.192 2.657 2.657z"/>
                                <path fill="#E0E0E0" d="M266.084 154.975c0 1.467-1.19 2.657-2.657 2.657s-2.656-1.19-2.656-2.657 1.19-2.657 2.656-2.657c1.468 0 2.657 1.19 2.657 2.657z"/>
                            </g>
                            <g>
                                <path fill="#FFF" d="M100.41 1.65C65.852 4.157 28.116 8.735.447 19.362l8.745 59.13s53.621-19.194 97.259-17.86L100.41 1.65z" transform="translate(245) translate(20.762 11.534) matrix(-1 0 0 1 308.508 33.404)"/>
                                <g fill="#FFF" opacity=".8">
                                    <path d="M100.41.28C65.852 2.787 28.116 7.365.447 17.992l8.745 59.13s53.621-19.194 97.259-17.86L100.41.28z" transform="translate(245) translate(20.762 11.534) matrix(-1 0 0 1 308.508 33.404) translate(0 1.37)"/>
                                </g>
                                <path fill="#EA0028" d="M97.883 52.829l-.335.056-.98.14-3.728.466c-1.64.195-3.645.438-5.966.773-2.321.336-4.969.672-7.877 1.156-11.663 1.8-27.715 4.773-45.148 9.323-6.06 1.566-11.904 3.178-17.246 4.856l-.27.075v-.27c-1.865-13.555-3.673-25.245-5.062-33.56-.709-4.12-1.278-7.458-1.67-9.705-.195-1.11-.344-1.976-.456-2.591 0-.28-.074-.504-.102-.672-.013-.077-.013-.155 0-.233.03.072.053.147.065.224 0 .168.084.392.149.662.121.615.298 1.473.531 2.582.448 2.247 1.072 5.538 1.8 9.677 1.472 8.278 3.337 19.968 5.239 33.56l-.308-.187c5.36-1.696 11.187-3.318 17.274-4.885 14.9-3.84 29.992-6.895 45.213-9.154 2.918-.457 5.593-.764 7.896-1.072 2.302-.308 4.335-.531 5.975-.7l3.785-.381.988-.084c.076-.026.154-.045.233-.056z" transform="translate(245) translate(20.762 11.534) matrix(-1 0 0 1 308.508 33.404)"/>
                                <path fill="#EA0028" d="M99.095 38.454s-.13-.41-.4-1.184c-.446-1.096-1.045-2.122-1.781-3.048-1.164-1.472-2.585-2.72-4.195-3.683-.448-.298-.979-.522-1.492-.792-.548-.24-1.112-.442-1.687-.606-1.243-.395-2.555-.522-3.85-.373-1.419.155-2.77.686-3.915 1.538-1.236.942-2.296 2.094-3.133 3.403-1.864 2.694-2.992 5.975-4.39 9.378-.683 1.799-1.801 3.4-3.254 4.661-.777.649-1.703 1.094-2.694 1.296-1.026.173-2.08.05-3.04-.354-3.933-1.557-5.686-6.097-9.666-7.458-1.955-.62-4.074-.446-5.901.485-.892.442-1.687 1.057-2.34 1.808-.619.767-1.141 1.606-1.557 2.498-.886 1.753-1.557 3.73-3.058 5.081-.737.687-1.681 1.11-2.684 1.203-.97.058-1.936-.149-2.797-.597-1.607-.891-2.94-2.203-3.86-3.794-.797-1.5-1.48-3.058-2.041-4.661-.523-1.47-1.201-2.879-2.023-4.205-.767-1.204-1.83-2.192-3.086-2.87-2.201-1.166-4.82-1.242-7.085-.206-1.734.714-3.276 1.825-4.502 3.244-.766.904-1.34 1.954-1.687 3.086-.243.774-.27 1.212-.308 1.202.022-.417.094-.83.214-1.23.31-1.165.866-2.249 1.632-3.179 1.226-1.467 2.781-2.624 4.54-3.375 2.341-1.099 5.063-1.04 7.355.159 1.317.694 2.434 1.715 3.244 2.964.844 1.345 1.541 2.776 2.079 4.27.566 1.574 1.248 3.104 2.041 4.577.889 1.525 2.178 2.776 3.73 3.617.788.412 1.674.602 2.563.55.903-.092 1.752-.479 2.414-1.1 1.38-1.258 2.051-3.16 2.937-4.94.431-.934.976-1.81 1.622-2.61.694-.8 1.54-1.452 2.489-1.921 1.942-.992 4.197-1.176 6.274-.513 2.116.7 3.636 2.33 5.043 3.804 1.27 1.56 2.86 2.832 4.661 3.728.882.375 1.853.488 2.797.327.915-.189 1.77-.599 2.489-1.194 1.393-1.214 2.468-2.75 3.132-4.474 1.39-3.366 2.61-6.694 4.475-9.425.861-1.35 1.96-2.53 3.244-3.486 1.202-.876 2.614-1.42 4.093-1.576 1.338-.14 2.691.003 3.97.42.59.174 1.166.39 1.725.643 2.24 1.09 4.197 2.685 5.715 4.66.73.956 1.31 2.015 1.725 3.142.098.306.178.618.242.933-.004.059-.01.118-.019.177zM7.504 30.688c0 .13-.428.327-1.006.439-.578.111-1.072.093-1.091 0-.019-.094.42-.327.997-.439.578-.111 1.054-.13 1.1 0zM9.033 41.456c.056.13-.28.4-.755.624-.475.224-.932.298-.932.177 0-.12.289-.391.764-.615.476-.224.867-.28.923-.186zM10.944 53.285c0 .131-.307.364-.783.532-.475.168-.932.196-.932.074 0-.12.308-.363.783-.53.476-.169.886-.197.932-.076zM13.238 64.882c0 .13-.364.373-.933.532-.568.158-.988.205-1.025.074-.037-.13.354-.363.876-.531.522-.168 1.035-.196 1.082-.075zM78.41 9.163c.363-.131.742-.22 1.127-.26.746-.122 1.865-.29 3.216-.485 2.797-.392 6.722-.933 11.43-1.483h.223v.224c.364 3.971.793 8.54 1.24 13.387v.438h-.233l-15.447 1.864h-.214v-.205c-.43-4.055-.793-7.457-1.054-9.872-.112-1.137-.196-2.041-.27-2.731-.037-.31-.056-.621-.056-.933.076.326.132.656.168.989.102.69.223 1.612.382 2.796.308 2.405.727 5.743 1.24 9.751l-.233-.186 15.447-1.967-.215.26v-.195c-.429-4.847-.83-9.425-1.184-13.396l.243.196-15.81 1.808z" transform="translate(245) translate(20.762 11.534) matrix(-1 0 0 1 308.508 33.404)"/>
                                <path fill="#EA0028" d="M92.765 11.513c0 .149-2.656.14-5.9.494-3.245.354-5.846.932-5.883.755 3.798-1.232 7.812-1.658 11.783-1.25zM92.933 14.98c0 .14-2.48.234-5.51.532-3.029.298-5.49.671-5.518.531 1.773-.573 3.612-.915 5.472-1.016 1.842-.258 3.71-.274 5.556-.047zM89.232 18c-1.01.38-2.073.598-3.15.644-1.052.213-2.13.27-3.198.168 1.008-.374 2.068-.59 3.142-.643 1.054-.214 2.135-.27 3.206-.168z" transform="translate(245) translate(20.762 11.534) matrix(-1 0 0 1 308.508 33.404)"/>
                                <path fill="#FFF" d="M268.881 19.082C235.041 8.772 206.487-.038 168.201.205l-5.854 60.25c39.815 3.523 53.136 6.133 89.884 19.436l16.65-60.809z" transform="translate(245) translate(20.762 11.534) matrix(-1 0 0 1 308.508 33.404)"/>
                                <g fill="#FFF" opacity=".8">
                                    <path d="M106.674 19.082C72.834 8.772 44.281-.038 5.994.205L.14 60.455c39.815 3.523 53.137 6.133 89.885 19.436l16.65-60.809z" transform="translate(245) translate(20.762 11.534) matrix(-1 0 0 1 308.508 33.404) translate(162.207)"/>
                                </g>
                                <path fill="#ED2012" d="M192.27 29.402l1.492-12.78c-3.716-.373-7.436.658-10.431 2.89-4.024 2.947-6.405 7.633-6.414 12.621-.016.622 0 1.245.047 1.865l14.915-1.678.392-2.918zM207.7 27.314c-1.45-5.047-5.522-8.912-10.637-10.096l-.448-.093-.289-.066-.876-.13h-.075l-1.473 12.725-.354 3.001 14.095 5.146c.356-1.062.6-2.159.727-3.272.28-2.425.051-4.883-.67-7.215z" transform="translate(245) translate(20.762 11.534) matrix(-1 0 0 1 308.508 33.404)"/>
                                <g fill="#000" opacity=".3">
                                    <path d="M14.235 10.534C12.785 5.487 8.714 1.622 3.598.438L3.151.345 2.86.279 1.986.15h-.074L.438 12.874l-.354 3.001 14.095 5.146c.355-1.062.599-2.159.727-3.272.28-2.425.05-4.883-.671-7.215z" transform="translate(245) translate(20.762 11.534) matrix(-1 0 0 1 308.508 33.404) translate(193.465 16.78)"/>
                                </g>
                                <path fill="#ED2012" d="M192.485 34.091l-14.915 1.678c.624 7.234 5.9 13.228 12.986 14.105 7.085.876 13.731-3.73 16.062-10.628L192.523 34.1" transform="translate(245) translate(20.762 11.534) matrix(-1 0 0 1 308.508 33.404)"/>
                                <path fill="#EA0028" d="M255.802 30.53c-.453-.138-.893-.316-1.315-.531-.83-.383-2.041-.933-3.551-1.539-3.917-1.638-7.926-3.045-12.007-4.213-4.088-1.173-8.24-2.107-12.436-2.797-1.604-.26-2.918-.447-3.822-.569-.473-.034-.942-.116-1.399-.242.477-.019.953 0 1.427.056.932.065 2.228.205 3.85.42 8.466 1.15 16.725 3.505 24.527 6.991 1.491.671 2.684 1.25 3.495 1.678.431.213.843.463 1.23.746zM254.776 36.794c-.451-.144-.891-.325-1.314-.54-.83-.373-2.042-.932-3.552-1.53-7.837-3.298-16.044-5.64-24.443-6.972-1.603-.261-2.917-.448-3.822-.569-.471-.046-.939-.127-1.398-.242.476-.03.954-.012 1.426.056.932.056 2.228.196 3.85.41 4.227.579 8.408 1.457 12.51 2.629 4.103 1.176 8.118 2.636 12.017 4.372 1.492.671 2.685 1.25 3.496 1.678.433.193.846.43 1.23.708zM253.751 43.106c-.453-.138-.893-.316-1.314-.532-.83-.373-2.042-.932-3.552-1.538-3.918-1.643-7.927-3.06-12.007-4.242-4.089-1.168-8.24-2.101-12.436-2.796-1.604-.252-2.909-.448-3.822-.569-.473-.035-.941-.116-1.399-.242.477-.019.954 0 1.427.056.932.065 2.228.205 3.85.42 4.227.578 8.408 1.457 12.51 2.628 4.105 1.167 8.121 2.628 12.017 4.372 1.491.671 2.684 1.25 3.495 1.678.435.214.847.47 1.231.765zM251.7 49.398c-.438-.145-.865-.322-1.277-.531-.802-.382-1.976-.932-3.43-1.53-7.589-3.293-15.554-5.638-23.716-6.981-1.566-.261-2.797-.448-3.73-.57-.46-.034-.916-.116-1.36-.241.463-.025.928-.006 1.389.055.885.056 2.162.196 3.729.42 4.113.578 8.18 1.457 12.165 2.629 3.988 1.186 7.885 2.656 11.662 4.4 1.445.671 2.601 1.25 3.375 1.678.418.186.817.41 1.193.671zM247.244 54.413c-.395-.118-.778-.271-1.147-.456l-3.085-1.37c-6.753-3.063-13.922-5.108-21.274-6.07l-3.346-.466c-.412-.037-.82-.11-1.221-.214.411-.049.828-.049 1.24 0 .801 0 1.948.15 3.365.308 7.423.785 14.655 2.848 21.376 6.096 1.295.616 2.32 1.138 3.03 1.52.376.18.732.398 1.062.652zM232.207 55.122c-.813-.102-1.617-.267-2.405-.494-1.473-.345-3.514-.792-5.789-1.175-2.275-.382-4.353-.68-5.854-.932-.819-.07-1.63-.21-2.424-.42.82-.064 1.646-.039 2.461.075 1.52.13 3.608.354 5.901.755 1.953.332 3.886.774 5.79 1.324.804.2 1.582.49 2.32.867zM174.027 7.308l.783-.046 2.33-.075c2.052 0 5.035 0 8.838.196 10.524.7 20.937 2.576 31.043 5.593l.168.056v.177c-2.33 13.359-5.108 29.235-8.073 46.22-.121.69-.242 1.38-.363 2.05v.262l-.261-.065c-6.829-1.789-13.746-3.217-20.724-4.28-6.684-1.025-13.05-1.752-18.998-2.125h-.233v-.224c1.63-14.253 3.001-26.186 3.961-34.585.485-4.158.877-7.458 1.138-9.695.13-1.1.242-1.949.307-2.545 0-.27.066-.485.084-.653.019-.167 0-.214 0-.205.009.078.009.156 0 .233 0 .168 0 .392-.065.671-.056.606-.15 1.473-.261 2.592-.233 2.275-.587 5.593-1.025 9.751-.933 8.39-2.2 20.276-3.73 34.492l-.204-.233c5.957.355 12.352 1.072 19.045 2.088 6.996 1.06 13.932 2.485 20.78 4.27l-.3.196c.122-.671.243-1.361.364-2.051 2.993-16.985 5.79-32.852 8.139-46.201l.14.233c-10.072-3.027-20.444-4.943-30.932-5.715-3.784-.251-6.786-.316-8.8-.307h-3.132l-.019-.075z" transform="translate(245) translate(20.762 11.534) matrix(-1 0 0 1 308.508 33.404)"/>
                            </g>
                            <g>
                                <path fill="#EA0028" d="M113.768 155.159L146.769 162.468 151.812 155.159 151.001 145.753 145.986 141.166 128.703 141.166 112.557 155.709" transform="translate(245) translate(20.762 11.534) matrix(-1 0 0 1 285.202 8.672)"/>
                                <g fill="#000" opacity=".3">
                                    <path d="M1.407 14.394L34.408 21.702 39.451 14.394 38.64 4.987 33.625 0.401 16.342 0.401 0.195 14.944" transform="translate(245) translate(20.762 11.534) matrix(-1 0 0 1 285.202 8.672) translate(112.361 140.766)"/>
                                </g>
                                <path fill="#FFBE9D" d="M164.071 87.2l41.661-5.593 6.526-1.865s15.018-3.3 16.416-3.803c1.622-.578 2.293.065 2.461.671.27.932-.643 2.023-2.023 2.564-.466.186-8.082 2.796-8.082 2.796.874.187 1.734.436 2.573.746 1.818.615 3.561 2.965 4.437 5.705.877 2.741.886 3.58-.168 3.972-.409.123-.851.062-1.211-.168-.59-.357-1.033-.912-1.25-1.566-1.463-4.372-4.195-4.717-4.195-4.717l-.857.242s2.796 1.967 2.796 4.353c-.007.35-.083.696-.223 1.017.421 1.206.173 2.545-.653 3.52-.826.976-2.106 1.441-3.365 1.225-.597-.112-1.25-.467-1.333-1.063-.017-.323.05-.644.196-.932.059-.162.109-.327.149-.494l-2.499.344s-5.658.467-8.091.933l-39.005 11.746c-2.59.787-5.387.501-7.765-.792-2.378-1.293-4.138-3.486-4.885-6.088-.796-2.82-.329-5.846 1.282-8.293 1.61-2.448 4.204-4.075 7.108-4.46z" transform="translate(245) translate(20.762 11.534) matrix(-1 0 0 1 285.202 8.672)"/>
                                <path fill="#FFBE9D" d="M206.711 82.65c.181.883.906 1.55 1.8 1.66.857.177 1.752.065 2.619.177 2.591.355 4.614 2.713 7.215 2.937.364 0 .83 0 .932-.392.103-.391-.177-.624-.428-.848l-6.526-5.752" transform="translate(245) translate(20.762 11.534) matrix(-1 0 0 1 285.202 8.672)"/>
                                <path fill="#EB996E" d="M212.351 80.432c.273.156.53.34.764.55.467.382 1.147.932 1.967 1.64l2.881 2.471.82.718c.252.252.68.466.756 1.063.004.3-.172.572-.448.69-.221.091-.46.13-.7.112-.424-.033-.844-.117-1.248-.252-1.437-.604-2.83-1.308-4.167-2.107-.586-.3-1.215-.508-1.865-.615-.606-.093-1.202-.075-1.743-.112-.905.026-1.775-.35-2.377-1.026-.383-.53-.308-.932-.29-.932.102.284.25.548.439.783.598.573 1.411.864 2.237.802.597-.012 1.195.007 1.79.056.692.1 1.365.304 1.995.606 1.33.77 2.706 1.458 4.12 2.06.368.114.746.189 1.128.224.364 0 .672-.103.634-.29-.037-.186-.298-.484-.578-.726l-.82-.727-2.797-2.555-1.864-1.752c-.438-.41-.662-.653-.634-.68zM220.33 86.128c.54-.13 1.102-.13 1.642 0 .563.15 1.063.476 1.426.932.444.59.79 1.248 1.025 1.949.242.719.554 1.412.932 2.07.33.55.8 1.003 1.362 1.314.4.205.876.205 1.277 0 .27-.14.373-.28.363-.29-.01-.009-.149.075-.41.178-.375.125-.785.084-1.128-.112-.502-.317-.918-.752-1.212-1.268-.374-.65-.686-1.333-.932-2.042-.251-.728-.623-1.408-1.1-2.013-.404-.506-.965-.864-1.594-1.016-.42-.104-.858-.104-1.277 0-.243.186-.383.28-.373.298zM229.69 78.96c-.522.12-1.03.292-1.52.512l-3.616 1.333-3.617 1.277c-.516.138-1.015.329-1.492.569.533-.062 1.059-.18 1.566-.354.933-.27 2.256-.68 3.673-1.194 1.417-.512 2.694-1.016 3.599-1.417.495-.188.967-.432 1.407-.727zM219.23 88.45s.113.148.327.381c.319.295.492.714.476 1.147-.044.278-.232.513-.495.615-.323.133-.661.226-1.006.28-.437.053-.839.265-1.128.597-.275.402-.344.91-.187 1.37.16.45.496.814.932 1.007.388.189.824.254 1.25.186.674-.144 1.324-.386 1.93-.718.417-.21.795-.491 1.118-.83.121-.122.21-.272.261-.437 0 0-.121.14-.354.345-.34.292-.72.534-1.128.717-.59.294-1.218.508-1.865.634-.777.136-1.546-.276-1.864-.997-.129-.364-.08-.767.13-1.09.241-.273.572-.449.933-.495.366-.068.723-.18 1.062-.336.326-.153.551-.462.597-.82.005-.494-.219-.962-.606-1.268-.214-.177-.373-.307-.382-.289z" transform="translate(245) translate(20.762 11.534) matrix(-1 0 0 1 285.202 8.672)"/>
                                <path fill="#EB996E" d="M218.336 93.642s-.177 0-.41.196c-.328.29-.5.718-.466 1.155.08.656.503 1.22 1.109 1.483.724.29 1.532.29 2.256 0 .73-.255 1.36-.735 1.8-1.37.352-.514.56-1.113.605-1.735.034-.415-.013-.833-.14-1.23-.03-.15-.094-.29-.186-.41.101.53.136 1.073.102 1.612-.173 1.289-1.056 2.37-2.284 2.797-.653.255-1.378.255-2.032 0-.526-.208-.907-.673-1.007-1.23-.047-.38.072-.76.327-1.045.186-.14.345-.195.326-.223zM211.41 90.22s0-.298-.27-.727c-.358-.569-.892-1.004-1.52-1.24v.28c.322-.151.634-.326.932-.522 1.102-.64 2.006-1.572 2.61-2.694-.845.903-1.782 1.716-2.797 2.424-.317.196-.624.373-.932.522l-.317.168.336.112c.58.205 1.088.574 1.463 1.062.345.364.448.625.494.616zM224.377 85.764c-.056-.055-.494.43-.55 1.203-.056.774.317 1.305.391 1.259.075-.047-.121-.57-.065-1.24.056-.672.308-1.166.224-1.222z" transform="translate(245) translate(20.762 11.534) matrix(-1 0 0 1 285.202 8.672)"/>
                                <path fill="#FFBE9D" d="M29.999 100.26s-6.078-9.853-7.16-10.692c-1.08-.84-10.71-4.363-11.531-4.102-.82.261-12.492 2.247-11.187 3.636 1.305 1.389 9.48-.121 9.48-.121l1.1.55s-7.037 1.118-8.52 1.976c-1.482.858-.932 2.452.401 2.321 1.333-.13 7.393-1.314 7.756-1.063.364.252-6.646 1.65-7.401 2.089-1.017.606-1.12 2.405.167 2.32.755-.055 7.365-1.761 7.365-1.761-1.952.721-3.863 1.55-5.724 2.48-.792.755-.168 1.864.932 1.64.783-.167 4.484-1.939 5.528-2.162 0 0 .933.26 1.865 2.237.41.932 2.293 6.665 5.733 6.59 3.048-.064 6.04 2.443 6.04 2.443l5.156-8.38z" transform="translate(245) translate(20.762 11.534) matrix(-1 0 0 1 285.202 8.672)"/>
                                <path fill="#EB996E" d="M.177 89.13c.66.342 1.384.542 2.126.587.796.114 1.602.148 2.405.103.932-.103 1.864-.233 2.89-.383l2.181-.317h-.13c1.629.67 3.313 1.197 5.034 1.576-1.56-.822-3.184-1.515-4.857-2.07h-.131l-2.163.29-2.862.419c-.775.06-1.554.06-2.33 0-1.324-.093-2.144-.29-2.163-.205z" transform="translate(245) translate(20.762 11.534) matrix(-1 0 0 1 285.202 8.672)"/>
                                <path fill="#FFBE9D" d="M25.44 99.095c-.812.578-1.9.578-2.712 0-.83-.503-1.473-1.268-2.266-1.864-2.368-1.678-5.789-1.277-8.082-3.067-.317-.243-.634-.653-.457-1.016.177-.364.615-.373.998-.364l9.61.224" transform="translate(245) translate(20.762 11.534) matrix(-1 0 0 1 285.202 8.672)"/>
                                <path fill="#EB996E" d="M22.532 93.045c-.339-.084-.686-.128-1.035-.13-.671 0-1.64-.103-2.797-.15l-4.204-.167h-1.221c-.49-.093-.997.014-1.408.298-.244.246-.308.62-.158.932.108.245.274.46.484.625.373.289.776.536 1.203.736 1.627.592 3.294 1.068 4.987 1.427.699.21 1.362.525 1.967.932.56.382 1.026.848 1.501 1.23.72.693 1.71 1.034 2.704.933.718-.131.932-.523.932-.523-.291.157-.606.264-.932.317-.917 0-1.794-.377-2.424-1.044-.438-.382-.932-.867-1.492-1.305-.636-.441-1.337-.781-2.078-1.007-1.66-.38-3.294-.859-4.895-1.435-.388-.182-.757-.404-1.1-.662-.307-.252-.456-.597-.289-.727.168-.13.606-.159 1.016-.15h8.223c.343.002.684-.042 1.016-.13z" transform="translate(245) translate(20.762 11.534) matrix(-1 0 0 1 285.202 8.672)"/>
                                <path fill="#ED2012" d="M77.374 318.615l-2.209 24.443-7.336 18.84c-.251.65-.223 1.373.08 2 .301.627.85 1.101 1.514 1.31.777.245 1.624.099 2.274-.392 4.13-3.142 19.26-14.794 19.325-16.594.075-2.078 4.065-25.673 4.065-25.673l-17.713-3.934z" transform="translate(245) translate(20.762 11.534) matrix(-1 0 0 1 285.202 8.672)"/>
                                <g fill="#FFF" opacity=".6">
                                    <path d="M.438 18.868L22.224.223l-.112 1.035c-.104.894-.52 1.723-1.174 2.34-1.753 1.64-6.703 6.078-18.15 14.916-.67.514-1.552.658-2.35.382v-.028z" transform="translate(245) translate(20.762 11.534) matrix(-1 0 0 1 285.202 8.672) translate(68.984 346.349)"/>
                                </g>
                                <g fill="#FFF" opacity=".6">
                                    <path d="M.839.186c-.67.39-.943 1.219-.634 1.93.359.667 1.17.947 1.864.643.714-.408 1.004-1.29.671-2.042C2.29.035 1.378-.166.68.261" transform="translate(245) translate(20.762 11.534) matrix(-1 0 0 1 285.202 8.672) translate(86.259 337.959)"/>
                                </g>
                                <path fill="#000" d="M99.878 332.962l18.3-144.914-5.854-33.69-34.493 1.864-4.316 174.064c-.041 1.298.868 2.433 2.144 2.676l20.099 3.104c.96.146 1.938-.1 2.713-.685.776-.584 1.283-1.456 1.407-2.42z" transform="translate(245) translate(20.762 11.534) matrix(-1 0 0 1 285.202 8.672)"/>
                                <path fill="#000" d="M117.646 192.905l33.29 32.945-47.888 11.643 3.403 24.163 64.826-8.819c5.54-.758 10.526-3.753 13.797-8.287 5.023-6.961 5.15-16.323.317-23.417l-50.508-74.13-22.56 7.354 5.323 38.548z" transform="translate(245) translate(20.762 11.534) matrix(-1 0 0 1 285.202 8.672)"/>
                                <path fill="#455A64" d="M115.81 184.524c.542 1.331.93 2.72 1.156 4.14.394 1.381.622 2.805.68 4.24-.535-1.332-.923-2.72-1.155-4.138-.383-1.385-.612-2.807-.681-4.242zM100.186 330.23c-.13 0 3.673-30.763 8.493-68.695 4.82-37.932 8.837-68.649 8.967-68.63.131.018-3.663 30.763-8.483 68.695-4.82 37.932-8.837 68.64-8.977 68.63zM112.249 169.19c.334.719.59 1.472.764 2.246.41 1.398.933 3.365 1.399 5.546.466 2.182.83 4.177 1.044 5.594.164.775.242 1.566.233 2.358-.265-.747-.455-1.518-.569-2.302-.345-1.594-.746-3.487-1.184-5.594-.438-2.106-.932-3.97-1.249-5.593-.223-.735-.37-1.49-.438-2.256zM114.384 166.346s.466-.457 1.351-.15c.523.192.906.646 1.007 1.194.132.689-.166 1.39-.755 1.771-.603.323-1.342.246-1.864-.196-.43-.369-.6-.96-.43-1.5.094-.347.318-.645.625-.83.215-.121.355-.121.364-.093-.32.252-.55.602-.653.997-.092.404.057.825.383 1.081.395.31.936.358 1.38.122.413-.285.63-.78.559-1.278-.069-.408-.334-.756-.709-.932-.396-.17-.83-.234-1.258-.186zM160.743 231.49c-.102.102-1.976-1.623-4.661-3.17-2.685-1.548-5.109-2.35-5.062-2.49 1.89.332 3.697 1.036 5.314 2.07 1.69.898 3.187 2.117 4.41 3.59z" transform="translate(245) translate(20.762 11.534) matrix(-1 0 0 1 285.202 8.672)"/>
                                <path fill="#9F0A00" d="M88.794 55.57l-19.11 9.229 8.24 57.5-3.234 25.803c-.421 3.325.84 6.642 3.365 8.847l30.866-.606 21.59-11.848 9.928-1.678-4.064-19.642 1.864-27.865 22.588 12.054c1.74.932 3.767 1.175 5.677.68l41.382-10.748-2.154-15.96-37.494 4.242-28.554-25.226-21.254-4.782-3.767-6.255H92.915l-1.557 1.137c-.727.546-1.275 1.296-1.576 2.153l-.988 2.965z" transform="translate(245) translate(20.762 11.534) matrix(-1 0 0 1 285.202 8.672)"/>
                                <path fill="#9F0A00" d="M69.684 64.799c-3.973 2.732-6.983 6.646-8.605 11.186-2.181 6.787-7.113 34.222-7.113 34.222L32.255 96.765l-12.51 13.153 28.898 25.525c4.437 3.914 10.786 4.792 16.119 2.228 4.448-2.146 7.525-6.378 8.194-11.27l3.552-26.02L69.684 64.8z" transform="translate(245) translate(20.762 11.534) matrix(-1 0 0 1 285.202 8.672)"/>
                                <path fill="#FFBE9D" d="M134.883 147.002L133.541 145.026 119.25 147.664 116.621 153.751z" transform="translate(245) translate(20.762 11.534) matrix(-1 0 0 1 285.202 8.672)"/>
                                <path fill="#9F0A00" d="M78.055 156.949c12.771 5.137 26.41 3.244 38.566-3.198 3.673-1.948 7.076-4.362 10.767-6.283 3.692-1.92 7.775-3.328 11.923-3.039 4.149.29 8.325 2.573 9.984 6.386 1.66 3.813 0 8.996-3.906 10.422l1.38 1.23c5.733-2.665 8.455-10.384 5.659-16.061-2.144-4.345-6.656-6.945-9.956-10.497-4.857-5.22-5.36-15.326-5.398-23.194M107.206 66.691c1.575-.68 3.906.317 5.034 1.604.745.857 1.165 2.032 2.144 2.591.979.56 4.092.998 4.996.308 0 0 .55-2.657.849-3.729 1.037-4.19 1.745-8.453 2.116-12.753-3.002-1.463-2.172-3.384-7.588-3.01.781 2.472.85 5.115.195 7.625" transform="translate(245) translate(20.762 11.534) matrix(-1 0 0 1 285.202 8.672)"/>
                                <g fill="#000" opacity=".3">
                                    <path d="M1.09 12.827c-.932.382-.81 1.8-.065 2.414.827.538 1.823.75 2.797.597 11.11-.624 21.307-6.35 27.622-15.512-8.39 6.908-19.484 9.527-30.12 11.932" transform="translate(245) translate(20.762 11.534) matrix(-1 0 0 1 285.202 8.672) translate(98.816 132.87)"/>
                                </g>
                                <g fill="#000" opacity=".3">
                                    <path d="M3.234.224c.94 10.204.216 20.493-2.144 30.465-.616 2.088-.963 4.247-1.034 6.423.155 2.351 1.275 4.534 3.095 6.031 1.547-3.57 1.575-7.01 2.228-10.85.587-3.46 1.575-11.542 1.575-11.663.14-7.066-1.529-13.126-4.25-19.493" transform="translate(245) translate(20.762 11.534) matrix(-1 0 0 1 285.202 8.672) translate(68.547 87.629)"/>
                                </g>
                                <g fill="#000" opacity=".401">
                                    <path d="M.783.382c1.397 7.529 5.082 14.443 10.553 19.8 2.06 2.005 4.66 3.86 7.504 3.73-1.653-3.41-2.16-7.262-1.445-10.982 2.42 1.636 4.993 3.034 7.682 4.176 2.71 1.13 5.687 1.454 8.576.933l1.771-15.41c.128-.58.072-1.186-.158-1.734-.132-.262-.373-.453-.659-.521-.286-.069-.587-.007-.823.167-.153.198-.252.433-.29.68-1.043 4.521-1.63 8.577-2.684 13.107-.755.746-3.076.438-4.605-.13-1.333-.494-1.865-1.594-2.722-2.704-.858-1.109-.727-.932-2.033-1.473-2.405-1.016-7.02-.205-8.026 1.949-1.007 2.153-.242 4.996.429 7.122C7.133 14.71 2.285 7.984.252.224" transform="translate(245) translate(20.762 11.534) matrix(-1 0 0 1 285.202 8.672) translate(88.561 56.866)"/>
                                </g>
                                <g fill="#000" opacity=".3">
                                    <path d="M2.21.317C2.022.689 8.016 20.9 8.016 20.9L.252 16.472 2.209.317z" transform="translate(245) translate(20.762 11.534) matrix(-1 0 0 1 285.202 8.672) translate(137.969 78.801)"/>
                                </g>
                                <path fill="url(#mmx0w19sbd)" d="M91.926 20.509v32.17c.008 1.844.668 3.624 1.865 5.026 1.816 2.159 4.008 3.972 6.47 5.35l6.525 3.664 5.37-4.8c1.576-1.41 2.514-3.398 2.6-5.51.094-2.35.085-4.661.085-4.661s9.098-.653 9.956-9.62c.4-4.233.531-12.884.55-20.855.077-9.166-6.952-16.83-16.09-17.544h-.252c-4.51-.109-8.872 1.615-12.09 4.776-3.218 3.162-5.018 7.493-4.989 12.004z" transform="translate(245) translate(20.762 11.534) matrix(-1 0 0 1 285.202 8.672)"/>
                                <path fill="#EB996E" d="M114.766 51.673c-4.146-.356-8.102-1.893-11.401-4.428 0 0 2.349 6.805 11.382 6.74l.019-2.312z" transform="translate(245) translate(20.762 11.534) matrix(-1 0 0 1 285.202 8.672)"/>
                                <path fill="#263238" d="M122.615 26.97c-.05.695-.645 1.225-1.342 1.192-.331-.002-.648-.138-.878-.376-.23-.239-.353-.56-.343-.891.05-.696.645-1.226 1.342-1.194.332 0 .65.135.88.374.23.24.354.562.341.894zM122.979 24.825c-.168.15-1.082-.652-2.461-.764-1.38-.112-2.452.503-2.583.317-.13-.187.112-.364.588-.653.63-.362 1.355-.522 2.079-.457.72.055 1.402.34 1.948.811.4.364.503.672.429.746zM109.601 26.317c-.05.696-.645 1.225-1.342 1.193-.332-.003-.65-.138-.88-.376-.232-.239-.358-.56-.35-.892.054-.694.647-1.22 1.342-1.193.333 0 .652.134.883.373.232.24.358.562.347.895zM109.396 23.958c-.177.15-1.09-.643-2.47-.755-1.38-.112-2.442.494-2.582.308-.14-.187.12-.364.587-.653.63-.37 1.359-.54 2.088-.485.719.06 1.4.343 1.949.811.391.392.512.7.428.774zM113.554 34.604c.746-.172 1.51-.247 2.275-.224.354 0 .699 0 .773-.28.061-.36.01-.732-.149-1.062-.26-.932-.531-1.809-.82-2.797-1.128-3.943-1.865-7.168-1.753-7.215.112-.047 1.203 3.114 2.33 7.057.271.932.532 1.864.775 2.796.19.443.216.939.074 1.399-.13.239-.358.41-.624.466-.202.026-.405.026-.606 0-.761.044-1.525-.003-2.275-.14zM109.415 35.22c.224 0 .103 1.51 1.296 2.675 1.193 1.165 2.796 1.137 2.796 1.342 0 .205-.372.27-1.053.233-.879-.06-1.708-.43-2.34-1.044-.608-.589-.962-1.391-.988-2.237-.01-.625.186-.988.289-.97zM110.198 18.58c-.168.363-1.529.074-3.16.13-1.632.056-2.983.391-3.17 0-.084-.168.168-.504.727-.82 1.503-.788 3.286-.836 4.83-.131.577.326.848.643.773.82zM122.802 20.789c-.27.289-1.194-.112-2.33-.224-1.138-.112-2.126 0-2.322-.308-.093-.168.093-.475.54-.736 1.217-.62 2.686-.451 3.73.429.4.354.503.69.382.839z" transform="translate(245) translate(20.762 11.534) matrix(-1 0 0 1 285.202 8.672)"/>
                                <path fill="#000" d="M102.489 11.438h-.056c-1.537 1.023-2.614 2.605-3.002 4.41v.186c-.569 2.527-.718 5.137-1.305 7.663-.588 2.526-.476 4.456-3.011 5.025-1.357.3-2.758-.268-3.524-1.427-.184-.37-.264-.781-.233-1.193 0-6.227-1.212-8.641-.671-15.102.141-1.757 1.12-3.339 2.628-4.25 1.436-.858 3.17-1.735 4.662-.933 1.491.802 3.17 3.813 4.232 5.109" transform="translate(245) translate(20.762 11.534) matrix(-1 0 0 1 285.202 8.672)"/>
                                <path fill="#FFBE9D" d="M94.611 24.788c-.14-.075-6.013-2.33-6.33 3.822-.316 6.153 5.939 5.202 5.957 5.025.019-.178.373-8.847.373-8.847z" transform="translate(245) translate(20.762 11.534) matrix(-1 0 0 1 285.202 8.672)"/>
                                <path fill="#EB996E" d="M92.476 31.201s-.111.075-.298.15c-.256.106-.545.106-.802 0-.788-.555-1.213-1.494-1.109-2.452.01-.53.14-1.05.382-1.52.137-.384.454-.677.849-.783.256-.051.514.085.615.327.074.177 0 .298.056.307.056.01.14-.093.102-.345-.023-.156-.103-.298-.223-.4-.159-.14-.368-.207-.578-.187-.53.079-.978.434-1.175.932-.285.521-.442 1.103-.457 1.697-.118 1.117.444 2.196 1.427 2.74.33.111.691.07.988-.111.205-.205.242-.336.223-.355z" transform="translate(245) translate(20.762 11.534) matrix(-1 0 0 1 285.202 8.672)"/>
                                <path fill="#000" d="M97.622 6.75C96.308 4.166 100.745.987 103.85.28c3.104-.709 6.982 1.109 9.918 2.358 1.865.783 3.673 1.865 5.678 1.865 1.349-.025 2.687-.248 3.971-.662 1.289-.42 2.649-.575 4-.457 1.392.143 2.587 1.054 3.094 2.358.207.648.12 1.354-.24 1.932-.358.577-.952.969-1.624 1.07 1.23-.55 2.676-.221 3.547.807.872 1.028.96 2.508.216 3.632-.744 1.123-2.141 1.62-3.428 1.22.933-.597 2.182.606 1.977 1.687-.33 1.07-1.197 1.888-2.284 2.154-2.657.932-5.594.307-8.185-.802-2.592-1.11-4.922-2.704-7.458-3.878-2.536-1.175-6.805-3.263-9.518-2.545-2.004.522-3.542 2.75-4.596 2.135-.997-.64-1.63-1.717-1.706-2.9-.054-1.176.085-2.354.41-3.486" transform="translate(245) translate(20.762 11.534) matrix(-1 0 0 1 285.202 8.672)"/>
                                <path fill="#455A64" d="M129.42 8.642c-.046 0-.354.42-1.072 1.081-1.024.925-2.26 1.584-3.598 1.92-1.965.53-4.06.27-5.836-.727-2.004-1.1-3.635-3.123-5.546-5.062-1.761-1.94-4.075-3.293-6.629-3.878-2.15-.449-4.387.123-6.059 1.548-1.076.993-1.696 2.385-1.715 3.85-.001.388.055.775.168 1.147.034.132.091.258.167.372-.075-.5-.11-1.004-.102-1.51.106-1.366.741-2.637 1.771-3.542 1.588-1.269 3.664-1.752 5.65-1.315 2.427.582 4.623 1.882 6.301 3.73 1.865 1.864 3.552 3.961 5.705 5.117 3.263 1.719 7.265 1.106 9.863-1.51.27-.288.513-.6.727-.932.159-.159.224-.28.205-.29zM93.073 24.396s.28-.149.55-.615c.365-.674.536-1.435.494-2.2 0-1.995-1.547-4.26-1.547-7.01-.048-1.276.297-2.535.988-3.608.598-.852 1.465-1.479 2.46-1.78.67-.217 1.383-.256 2.07-.112.495.12.746.26.774.214.028-.047-.205-.242-.699-.438-.726-.254-1.513-.283-2.256-.084-1.12.278-2.109.937-2.797 1.864-.793 1.158-1.192 2.541-1.137 3.944.048 1.362.341 2.704.867 3.962.42.976.709 2.005.858 3.057.084.977-.134 1.957-.625 2.806z" transform="translate(245) translate(20.762 11.534) matrix(-1 0 0 1 285.202 8.672)"/>
                            </g>
                            <g fill="#EA0028" transform="translate(245) translate(20.762 11.534) matrix(-1 0 0 1 300.737 100.03)">
                                <path d="M6.212 121.534c-.005 1.641-1.339 2.968-2.98 2.964-1.641-.003-2.97-1.335-2.968-2.977.002-1.64 1.333-2.97 2.974-2.97.79 0 1.548.314 2.106.874.558.56.87 1.319.868 2.109z"/>
                                <circle cx="272.38" cy="123.547" r="2.974"/>
                                <path d="M153.97 233.214c.003 1.208-.722 2.3-1.838 2.764-1.115.464-2.4.21-3.255-.645s-1.11-2.14-.645-3.255c.464-1.116 1.555-1.841 2.764-1.838 1.642 0 2.973 1.332 2.973 2.974zM63.59 156.735c0 .603-.363 1.147-.92 1.378-.558.23-1.2.103-1.626-.324-.426-.426-.554-1.068-.323-1.625.23-.558.774-.921 1.378-.921.824 0 1.491.668 1.491 1.492zM248.646 192.793c0 .604-.365 1.149-.923 1.379-.559.23-1.2.1-1.627-.328-.426-.428-.55-1.071-.317-1.628.234-.557.78-.918 1.385-.915.82.006 1.482.672 1.482 1.492z"/>
                                <circle cx="53.494" cy="1.091" r="1"/>
                            </g>
                            <g transform="translate(245) translate(20.762 11.534) matrix(-1 0 0 1 332.251 86.541)">
                                <path fill="#FFF" d="M219.184 129.085c-36.142 9.564-70.98 8.837-108.949 0l-4.456-69.432c39.237 7.634 78.624 6.665 113.386-1.641l.019 71.073z"/>
                                <g fill="#FFF" opacity=".8">
                                    <path d="M113.405 71.287c-36.142 9.564-70.98 8.837-108.949 0L0 1.855C39.237 9.49 78.624 8.52 113.386.215l.019 71.072z" transform="translate(105.779 57.798)"/>
                                </g>
                                <path fill="#EA0028" d="M213.581 118.504c-.072.048-.15.085-.233.112l-.68.289c-.606.242-1.483.634-2.648 1.053-3.277 1.218-6.616 2.264-10.003 3.132-11.206 2.814-22.735 4.131-34.287 3.916-11.538-.232-23.035-1.46-34.362-3.673-4.353-.83-7.849-1.594-10.254-2.154-1.203-.27-2.135-.503-2.797-.662l-.717-.186c-.159-.047-.243-.075-.234-.084h.252l.727.14 2.797.569c2.414.503 5.929 1.22 10.254 1.994 11.32 2.112 22.794 3.294 34.306 3.534 11.514.219 23.008-1.034 34.203-3.73 4.28-1.08 7.691-2.162 10.022-2.992 1.174-.382 2.06-.745 2.675-.932l.7-.242c.086-.048.181-.076.28-.084z"/>
                                <path fill="#ED2012" d="M160.472 121.328c-4.578 1.242-9.424 1.08-13.908-.466V96.158c4.59-.932 9.32-.932 13.908 0v25.17z"/>
                                <path fill="#EA0028" d="M182.939 119.865c-.006-.065-.006-.13 0-.196v-.531c0-.504 0-1.194-.065-2.07 0-1.818-.084-4.419-.15-7.672-.093-6.526-.232-15.727-.39-26.363l.186.223c-4.757-.928-9.647-.928-14.403 0l.195-.233v.485c.15 14.599.29 27.79.383 37.205l-.14-.168c1.996.434 4.027.684 6.069.746 1.534.027 3.068-.101 4.577-.382.948-.182 1.882-.428 2.796-.737l.7-.242c.083-.037.17-.062.26-.074l-.223.102-.709.308c-.91.345-1.845.622-2.796.83-1.518.315-3.065.468-4.615.456-2.061-.024-4.116-.25-6.134-.671h-.13v-.186c-.14-9.416-.327-22.598-.532-37.196v-.7h.205c4.814-.951 9.767-.951 14.58 0l.187.047v.187c.084 10.683.149 19.903.205 26.484v10.18c0 .14-.047.168-.056.168z"/>
                                <path fill="#ED2012" d="M204.324 116.966c-3.729 2.013-8.623 2.284-13.918 1.976V78.129c4.574-1.1 9.344-1.1 13.918 0v38.837z"/>
                                <path fill="#EA0028" d="M138.407 119.315s0-.382-.047-1.054c-.046-.67 0-1.668-.056-2.852 0-2.48-.065-5.92-.102-10.012l.13.196c-4.247-1.72-8.82-2.482-13.396-2.229l.224-.242v13.918l-.121-.186c1.73.7 3.53 1.213 5.37 1.529 1.65.298 3.094.466 4.297.587l2.796.233c.332.018.662.056.989.112-.33.022-.66.022-.989 0-.652 0-1.594 0-2.796-.121-1.203-.122-2.666-.224-4.326-.494-1.877-.284-3.716-.782-5.481-1.483l-.121-.056v-.14-14.141h.242c4.648-.26 9.294.533 13.592 2.321l.14.047v.149c0 4.148-.084 7.635-.112 10.152 0 1.165 0 2.097-.056 2.796-.03.328-.09.652-.177.97zM144.932 83.21c-.9.144-1.811.2-2.722.168-1.687 0-4.018 0-6.581-.159-2.564-.158-4.876-.391-6.526-.615-.909-.072-1.808-.235-2.685-.485.907-.022 1.814.028 2.713.15 1.678.13 3.99.316 6.526.465 2.535.15 4.875.243 6.525.299.92-.011 1.84.048 2.75.177zM142.853 86.249c-.793.08-1.593.08-2.386 0-1.473-.075-3.505-.205-5.752-.373s-4.279-.354-5.742-.513c-.796-.038-1.587-.157-2.359-.354.794-.08 1.593-.08 2.387 0 1.482.075 3.505.205 5.751.373 2.247.168 4.27.354 5.734.513.799.04 1.592.158 2.367.354z"/>
                                <path fill="#EA0028" d="M147.943 90.23v-.867c0-.55.047-1.399.094-2.406.093-2.106.233-5.07.41-8.716l.177.196c-8.608.078-17.212-.401-25.757-1.436l.27-.223v.764l-.047.783c0 .522-.056 1.044-.093 1.557-.056 1.035-.112 2.05-.177 3.048-.121 2.004-.233 3.943-.345 5.799l-.196-.243c7.458.932 13.881 1.305 18.44 1.482l5.341.159 1.399.047h.512c-.155.013-.31.013-.466 0-.317 0-.82 0-1.445.046h-5.35c-4.569-.093-11.02-.429-18.487-1.314h-.214v-.224c.102-1.864.214-3.794.326-5.798.056-.998.112-2.014.177-3.049l.084-1.557v-1.547l.27-.224c8.56 1.03 17.174 1.556 25.795 1.576h.187v.186c-.252 3.673-.457 6.675-.606 8.8-.075.988-.14 1.78-.187 2.359-.01.27-.048.539-.112.801zM151.122 95.46c-.713-.742-1.318-1.58-1.799-2.49-.615-.827-1.081-1.754-1.38-2.74.713.741 1.319 1.579 1.8 2.489.614.827 1.081 1.754 1.38 2.74z"/>
                                <path fill="#FFF" d="M.102 5.099l11.811 71.483s18.039 33.765 65.955 41.372L70.14 54.152S25.822 40.43.102 5.1z"/>
                                <g fill="#FFF" opacity=".8">
                                    <path d="M.102 0l11.811 71.483s18.039 33.765 65.955 41.372L70.14 49.054S25.822 35.33.102 0z" transform="translate(0 5.099)"/>
                                </g>
                                <path fill="#EA0028" d="M71.688 112.845l-.299-.074-.932-.252-3.375-1.035c-1.463-.466-3.281-.932-5.304-1.771l-3.253-1.24c-1.166-.438-2.387-.932-3.627-1.491-2.489-1.138-5.257-2.312-8.073-3.897-2.815-1.585-5.817-3.29-8.875-5.24-6.593-4.329-12.581-9.517-17.805-15.428-2.448-2.753-4.6-5.756-6.423-8.958L8.315 38.5c-.652-4.362-1.184-7.858-1.547-10.31l-.392-2.797-.093-.717c-.01-.084-.01-.169 0-.252.03.078.048.16.056.242l.14.718.475 2.797c.4 2.442.932 5.938 1.687 10.254 1.399 8.782 3.356 21.012 5.594 34.93V73.3c1.811 3.162 3.942 6.13 6.357 8.856 5.205 5.88 11.16 11.048 17.713 15.373 3.039 1.957 5.938 3.794 8.81 5.258 2.87 1.463 5.546 2.796 8.026 3.933 1.23.606 2.451 1.082 3.598 1.52l3.225 1.268c2.005.848 3.813 1.352 5.258 1.864l3.347 1.119.867.298c.085.01.17.03.252.056z"/>
                                <path fill="#EA0028" d="M67.474 92.094s0 .056-.159.15l-.512.41-1.986 1.547-7.514 5.77-.111.093-.094-.13c-2.535-3.496-5.658-7.821-9.2-12.734l.279.046-7.057 5.034-.233.168-.103-.28c-2.796-7.457-5.845-15.847-9.098-24.675L30.38 63.94h.438l-5.743 11.41-.251.494-.177-.522C19.642 60.911 15.4 48.662 12.64 40.71h.251c-.755 3.188-1.351 5.696-1.762 7.458-.205.839-.372 1.491-.484 1.957l-.13.504c-.014.059-.036.115-.066.167v-.177c0-.13.056-.298.093-.503l.42-1.976c.382-1.762.932-4.28 1.64-7.458l.103-.448.158.439c2.797 7.933 7.113 20.154 12.194 34.538h-.429l5.733-11.41.252-.503.196.522 1.305 3.551c3.235 8.838 6.31 17.219 9.052 24.695l-.336-.103 7.085-4.996.158-.112.122.158 9.107 12.753h-.214l7.616-5.658 2.032-1.492.532-.373.205-.15zM65.824 57.816c-.343-.034-.681-.11-1.007-.224-.634-.177-1.557-.456-2.675-.83-2.913-.973-5.773-2.1-8.568-3.374-2.813-1.268-5.56-2.677-8.231-4.223-1.016-.597-1.864-1.1-2.387-1.464-.3-.167-.578-.37-.83-.605.328.11.641.261.933.447l2.461 1.324c2.079 1.11 4.978 2.6 8.26 4.083 3.281 1.482 6.31 2.666 8.52 3.496 1.035.373 1.865.699 2.62.932.32.105.624.252.904.438zM67.726 60.78c-.785-.042-1.561-.18-2.312-.41-1.84-.444-3.653-.985-5.435-1.622-1.78-.638-3.526-1.37-5.23-2.19-.723-.302-1.408-.686-2.041-1.147.754.212 1.487.493 2.19.839 1.333.55 3.18 1.296 5.249 2.042 2.07.745 3.97 1.333 5.36 1.752.76.177 1.503.423 2.219.737z"/>
                                <path fill="#EA0028" d="M48.848 87.218c0 .597-.363 1.072-.81 1.072-.448 0-.803-.475-.803-1.072 0-.596.364-1.072.802-1.072.438 0 .811.485.811 1.072z"/>
                                <ellipse cx="30.511" cy="64.621" fill="#EA0028" rx="1" ry="1.072"/>
                                <path fill="#EA0028" d="M13.61 41.045c0 .588-.363 1.072-.802 1.072-.438 0-.801-.484-.801-1.072 0-.587.354-1.072.801-1.072.448 0 .802.485.802 1.072z"/>
                                <path fill="#ED2012" d="M311.8 14.03c-1.547-5.025-5.314-12.194-14.263-13.685l-10.553 97.678s19.866-3.962 20.397-14.85c.047-.933 4.018-49.492 5.016-61.527.3-2.553.098-5.141-.597-7.616z"/>
                                <path fill="#FFF" d="M312.732 17.814l-5.92 72.62s-17.31 31.053-64.929 32.237l5.883-73.114s41.549-1.688 64.966-31.743z"/>
                                <g fill="#FFF" opacity=".8">
                                    <path d="M70.849.102l-5.92 72.62S47.618 103.775 0 104.96l5.882-73.115S47.432 30.157 70.85.102z" transform="translate(241.883 17.712)"/>
                                </g>
                                <path fill="#ED2012" d="M311.287 36.328c-4.765 6.92-7.4 15.083-7.579 23.483-.046 2.415.094 4.904-.83 7.132-.922 2.228-3.309 4.092-5.593 3.458-2.284-.634-3.514-3.542-5.64-4.885-1.995-1.117-4.44-1.064-6.385.14-1.899 1.218-3.367 3.002-4.195 5.1-1.725 3.98-1.865 8.473-3.114 12.622-1.249 4.148-4.4 8.334-8.744 8.52-1.585.065-3.151-.41-4.736-.363-3.346.102-6.255 2.591-7.812 5.593-1.557 3.002-2.032 6.367-2.48 9.686 0 0 25.376 2.423 53.855-31.211l3.253-39.275z"/>
                                <path fill="#EA0028" d="M270.95 80.376c0 .932-.447 1.631-.997 1.631s-.988-.727-.988-1.631.438-1.632.988-1.632.997.737.997 1.632zM282.901 50.19c0 .933-.447 1.632-.997 1.632s-.988-.737-.988-1.631c0-.895.438-1.632.988-1.632s.997.727.997 1.632z"/>
                                <path fill="#EA0028" d="M310.719 39.834c-.04.141-.093.279-.159.41l-.54 1.184c-.504 1.053-1.203 2.545-2.089 4.428l-7.57 15.764-.102.214-.205-.13-17.945-11.355.354-.112c-.233.578-.494 1.203-.746 1.865L270.13 80.45l-.084.196-.177-.102c-4.475-2.517-8.13-4.54-10.665-5.92-1.277-.69-2.265-1.221-2.946-1.566l-.773-.373-.27-.121c1.421.478 2.79 1.103 4.082 1.864 2.573 1.324 6.246 3.3 10.749 5.78l-.261.093 11.485-28.423c.252-.625.513-1.25.746-1.865l.112-.27.242.159 17.917 11.41-.307.084c3.178-6.46 5.845-11.858 7.728-15.68l2.228-4.354.596-1.146c.052-.133.114-.26.187-.382z"/>
                            </g>
                        </g>
                    </g>
                </g>
            </g>
        </g>
    </g>
</svg>
