<svg xmlns="http://www.w3.org/2000/svg" width="409" height="150" viewBox="0 0 409 150">
    <g fill="none" fill-rule="evenodd">
        <g fill="#000">
            <g>
                <path d="M0 10.482l52.256.004v16.997L21.88 27.48v7.86l30.375.005v15.723l-30.375-.003v7.862l30.375.003V76L0 75.997V10.482zm173.744 0l52.256.004v16.997l-30.373-.003v7.86l30.373.005v15.723l-30.373-.003v7.862L226 58.93V76l-52.256-.003V10.482zm-85.769 0c7.19 0 13.54 1.324 19.038 3.97 4.552 2.2 6.007 3.432 7.152 4.572l.179.18.264.267c.087.09.175.179.265.269 1.927 1.933 4.321 6.67 4.734 7.477l.046.09.012.021-28.069 48.554c-.885.06-1.786.096-2.7.11l-.92.008H56.172V10.482h31.802zM142.301 0c6.27 0 11.888 1.074 16.852 3.21 3.005 1.298 5.709 2.936 8.087 4.967l-9.602 16.654c-3.998-4.704-8.753-7.05-14.24-7.05-4.741 0-8.517 1.455-11.326 4.377-2.795 2.91-6.936 11.466-6.936 11.466s1.532 3.459 3.355 6.831l.307.56c1.08 1.956 2.236 3.815 3.222 4.874 2.783 2.987 6.48 4.468 11.104 4.468 2.744 0 5.37-.524 7.865-1.586v-16.47h18.72v27.556c-3.776 2.673-8.165 4.717-13.142 6.146-5.004 1.428-9.903 2.135-14.723 2.135-6.806 0-12.933-1.441-18.367-4.324-5.409-2.883-9.667-6.917-12.737-12.107-.157-.263-.314-.538-.458-.813L139.52.092C140.433.026 141.36 0 142.3 0zM87.057 27.517h-9.13v31.448h9.13c4.671 0 8.41-1.546 11.204-4.258 2.795-2.711 7.298-11.508 7.298-11.508s-4.503-8.711-7.298-11.423c-2.794-2.712-6.533-4.074-11.204-4.26z" transform="translate(-80 -260) translate(80 260)"/>
                <path fill-rule="nonzero" d="M153.727 84c6.108 0 11.558 1.082 16.35 3.246 2.445 1.105 4.673 2.46 6.682 4.066l-9.245 16.068c-3.663-4.106-7.9-6.159-12.71-6.159-4.431 0-7.995 1.428-10.69 4.283-2.695 2.855-4.042 6.687-4.042 11.496s1.347 8.64 4.042 11.496c2.695 2.855 6.259 4.283 10.69 4.283 5.142 0 9.628-2.346 13.459-7.037l.236-.295 9.378 16.3c-2.146 1.896-4.563 3.48-7.252 4.753l-.549.254c-4.79 2.164-10.24 3.246-16.35 3.246-6.647 0-12.636-1.398-17.966-4.193-5.33-2.795-9.508-6.702-12.532-11.72-3.024-5.02-4.537-10.715-4.537-17.087s1.513-12.067 4.537-17.086c3.024-5.02 7.202-8.926 12.532-11.721S147.079 84 153.727 84zm243.47 42.308c6.519 0 11.803 5.303 11.803 11.846 0 6.542-5.284 11.846-11.803 11.846-6.518 0-11.803-5.304-11.803-11.846 0-6.543 5.285-11.846 11.803-11.846zM266.081 85.443v34.082l.003.474c.055 4.385.877 7.593 2.467 9.624 1.647 2.104 4.028 3.156 7.142 3.156 3.115 0 5.495-1.052 7.142-3.156 1.647-2.104 2.47-5.47 2.47-10.098V85.443h20.842v34.713l-.003.563c-.106 9.166-2.8 16.312-8.082 21.437-5.39 5.23-12.906 7.844-22.548 7.844-9.643 0-17.159-2.615-22.549-7.844-5.39-5.23-8.085-12.563-8.085-22V85.443h21.201zm-235.807 0l.667.004c5.53.071 10.369 1.031 14.515 2.88 4.312 1.924 7.636 4.69 9.972 8.296 2.335 3.607 3.503 7.814 3.503 12.623 0 4.508-1.018 8.445-3.054 11.811-1.952 3.226-4.728 5.817-8.33 7.773l-.474.252 13.206 19.475H37.64L26.95 132.69H21.2v15.868H0V85.443h30.274zm85.004 0v16.049H83.836v7.393h31.442v15.328H83.836v8.295h31.442v16.05H62.994V85.442h52.284zm97.421 0l.667.004c5.53.071 10.369 1.031 14.515 2.88 4.312 1.924 7.636 4.69 9.971 8.296 2.336 3.607 3.504 7.814 3.504 12.623 0 4.508-1.018 8.445-3.054 11.811-1.952 3.226-4.728 5.817-8.33 7.773l-.474.252 13.206 19.475h-22.639l-10.69-15.868h-5.75v15.868h-21.2V85.443h30.274zm118.733 0v63.114H310.23V85.443h21.2zm61.266 0v16.5h-18.415v46.614h-21.201v-46.614h-18.416v-16.5h58.032zm-363.771 16.41H21.2v14.786h7.726c2.874 0 5.03-.646 6.468-1.938 1.437-1.293 2.156-3.11 2.156-5.455 0-2.344-.72-4.163-2.156-5.455-1.438-1.292-3.594-1.939-6.468-1.939zm182.424 0h-7.725v14.786h7.725c2.875 0 5.031-.646 6.469-1.938 1.437-1.293 2.156-3.11 2.156-5.455 0-2.344-.72-4.163-2.156-5.455-1.438-1.292-3.594-1.939-6.469-1.939z" transform="translate(-80 -260) translate(80 260)"/>
            </g>
        </g>
    </g>
</svg>
