<svg xmlns="http://www.w3.org/2000/svg" xmlns:xlink="http://www.w3.org/1999/xlink" width="620" height="420" viewBox="0 0 620 420">
    <defs>
        <linearGradient id="1u77pxl84c" x1="77.092%" x2="30.554%" y1="44.874%" y2="44.874%">
            <stop offset="0%" stop-color="#F9250B"/>
            <stop offset="100%" stop-color="#AB0000"/>
        </linearGradient>
        <linearGradient id="uysmytkk2d" x1="71.713%" x2="0%" y1="28.142%" y2="86.976%">
            <stop offset="0%" stop-color="#F9250B"/>
            <stop offset="100%" stop-color="#AB0000"/>
        </linearGradient>
        <path id="5ucb2bs4pa" d="M0 0H620V420H0z"/>
    </defs>
    <g fill="none" fill-rule="evenodd">
        <g>
            <g transform="translate(-79 -696) translate(79 696)">
                <mask id="vm7k0vhbbb" fill="#fff">
                    <use xlink:href="#5ucb2bs4pa"/>
                </mask>
                <use fill="#FFEBDF" xlink:href="#5ucb2bs4pa"/>
                <g mask="url(#vm7k0vhbbb)">
                    <g>
                        <g>
                            <path fill="url(#1u77pxl84c)" d="M153.607 0L0 266.063 77.697 266.063 231.304 0z" opacity=".3" transform="translate(156)"/>
                            <path fill="#ED2012" d="M231.249 0L77.641 266.063 155.338 266.063 308.946 0z" opacity=".5" transform="translate(156)"/>
                            <path fill="url(#uysmytkk2d)" d="M307.856 0L154.249 266.063 310.035 266.063 463.643 0z" transform="translate(156)"/>
                        </g>
                        <g>
                            <g fill-rule="nonzero">
                                <g transform="translate(156) translate(71.143 33.714) translate(.156)">
                                    <path fill="#202020" d="M311.34.019H9.914C4.719.019.507 4.23.507 9.425v212.908c0 5.195 4.212 9.407 9.407 9.407h115.689v34.527h73.58V231.74H311.34c5.195 0 9.407-4.212 9.407-9.407V9.425c0-5.195-4.212-9.406-9.407-9.406z"/>
                                    <path fill="#455A64" d="M164.648 209.348c4.114 5.862-2.317 12.28-8.18 8.18-.194-.14-.364-.311-.5-.508-4.113-5.855 2.318-12.266 8.18-8.173.196.135.366.305.5.5z"/>
                                    <rect width="306.013" height="181.514" x="7.309" y="12.785" fill="#E0E0E0" rx="3.27"/>
                                    <path fill="#FFF" d="M7.309 26.079H313.322V194.292H7.309z"/>
                                    <path fill="#455A64" d="M32.402 19.792c.002.99-.593 1.886-1.508 2.267-.915.38-1.97.171-2.67-.53-.702-.7-.91-1.755-.53-2.67s1.276-1.51 2.267-1.508c1.348 0 2.44 1.093 2.44 2.44zM17.593 19.792c.002.99-.592 1.885-1.507 2.266-.914.38-1.968.173-2.67-.526-.7-.7-.911-1.753-.533-2.668.379-.916 1.271-1.513 2.262-1.513.649-.002 1.271.255 1.73.712.46.458.718 1.08.718 1.729zM24.682 19.792c.003.99-.592 1.885-1.506 2.266-.915.38-1.969.173-2.67-.526-.702-.7-.912-1.753-.534-2.668.379-.916 1.272-1.513 2.262-1.513.649-.002 1.271.255 1.73.712.46.458.718 1.08.718 1.729z"/>
                                </g>
                                <g>
                                    <path fill="#F5F5F5" d="M0.398 0.432H80.984V135.071H0.398z" transform="translate(156) translate(71.143 33.714) translate(222.978 35.787)"/>
                                    <path fill="#EA0028" d="M21.775 79.715L22.639 81.464 24.572 81.752 23.173 83.109 23.503 85.036 21.775 84.124 20.047 85.036 20.383 83.109 18.984 81.752 20.911 81.464zM31.373 79.715L32.237 81.464 34.171 81.752 32.772 83.109 33.101 85.036 31.373 84.124 29.646 85.036 29.975 83.109 28.576 81.752 30.509 81.464zM40.965 79.715L41.829 81.464 43.762 81.752 42.364 83.109 42.693 85.036 40.965 84.124 39.244 85.036 39.573 83.109 38.175 81.752 40.101 81.464zM50.563 79.715L51.427 81.464 53.361 81.752 51.962 83.109 52.291 85.036 50.563 84.124 48.836 85.036 49.165 83.109 47.766 81.752 49.7 81.464zM60.155 79.715L61.019 81.464 62.952 81.752 61.554 83.109 61.883 85.036 60.155 84.124 58.434 85.036 58.763 83.109 57.365 81.752 59.298 81.464zM37.4 95.498c0 .103-6.116.178-13.664.178-7.549 0-13.664-.075-13.664-.178s6.115-.178 13.664-.178c7.548 0 13.664.082 13.664.178z" transform="translate(156) translate(71.143 33.714) translate(222.978 35.787)"/>
                                    <path fill="#263238" d="M71.742 101.47c0 .096-13.644.178-30.475.178-16.832 0-30.476-.082-30.476-.178 0-.096 13.644-.179 30.476-.179 16.831 0 30.475.041 30.475.179zM71.742 106.53c0 .095-13.644.178-30.475.178-16.832 0-30.476-.083-30.476-.179 0-.096 13.644-.178 30.476-.178 16.831 0 30.475.082 30.475.178zM71.742 111.63c0 .096-13.644.179-30.475.179-16.832 0-30.476-.083-30.476-.179 0-.096 13.644-.178 30.476-.178 16.831 0 30.475.075 30.475.178zM71.742 116.724c0 .103-13.644.179-30.475.179-16.832 0-30.476-.076-30.476-.179s13.644-.178 30.476-.178c16.831 0 30.475.082 30.475.178zM71.742 121.825c0 .096-13.644.178-30.475.178-16.832 0-30.476-.082-30.476-.178 0-.096 13.644-.178 30.476-.178 16.831 0 30.475.075 30.475.178z" transform="translate(156) translate(71.143 33.714) translate(222.978 35.787)"/>
                                    <path fill="#E0E0E0" d="M5.697 7.267H75.11500000000001V73.908H5.697z" transform="translate(156) translate(71.143 33.714) translate(222.978 35.787)"/>
                                    <path fill="#FFBE9D" d="M64.803 62.294L69.315 73.915 58.386 73.915 55.925 67.587z" transform="translate(156) translate(71.143 33.714) translate(222.978 35.787)"/>
                                    <path fill="#EA0028" d="M23.194 73.915h29.598c.459-4.374.747-8.508.747-8.508l1.522 4.113 12.43-6.218s-4.518-12.046-8.303-16.125c-4.799-5.163-13.376-4.649-13.376-4.649l-11.162.185c-2.856.338-5.636 1.15-8.227 2.4l-.274.082v.055c-2.413 2.057-9.667 11.779-9.667 11.779l2.674 2.598 5.485 5.108c-.014.033-.014.07 0 .103.04.555-1.447 9.077-1.447 9.077z" transform="translate(156) translate(71.143 33.714) translate(222.978 35.787)"/>
                                    <path fill="#263238" d="M46.128 42.13s.034.069.061.2c.04.194.066.39.076.589.035.735-.067 1.47-.302 2.166-.354 1.045-.981 1.975-1.817 2.695-2.16 1.777-5.25 1.865-7.507.212-.872-.675-1.548-1.57-1.961-2.591-.273-.683-.415-1.411-.418-2.146-.005-.2.009-.4.04-.597 0-.13.035-.198.049-.198.009.975.2 1.94.562 2.845.426.957 1.09 1.79 1.927 2.42 2.146 1.528 5.045 1.447 7.102-.199.802-.674 1.416-1.543 1.783-2.523.315-.923.453-1.898.405-2.873zM56.7 44.777c0 .034-.302 0-.789.206-.688.26-1.288.712-1.728 1.302-.63.893-1.015 1.936-1.117 3.024-.165 1.227-.199 2.612-.254 4.052-.075 2.893.034 5.485.172 7.404.061.885.123 1.632.164 2.235.046.274.058.553.034.83-.082-.264-.14-.535-.171-.81-.075-.527-.185-1.288-.281-2.234-.249-2.47-.34-4.952-.274-7.432.023-1.376.12-2.749.288-4.114.121-1.139.553-2.222 1.247-3.133.479-.61 1.135-1.056 1.879-1.275.198-.06.403-.092.61-.096.144.02.22.027.22.04zM30.167 43.53c-.043.284-.112.564-.206.836-.185.603-.411 1.37-.686 2.255-.569 1.9-1.33 4.532-2.098 7.466-.767 2.935-1.37 5.602-1.796 7.542-.206.912-.377 1.68-.514 2.297-.045.286-.12.567-.226.836.004-.29.034-.579.089-.864.082-.548.22-1.37.397-2.317.37-1.96.947-4.648 1.708-7.583.76-2.934 1.57-5.567 2.2-7.452.316-.946.583-1.7.782-2.222.09-.276.206-.542.35-.795z" transform="translate(156) translate(71.143 33.714) translate(222.978 35.787)"/>
                                    <path fill="#000" d="M52.613 54.163l4.114 14.576-1.639.823-1.522-4.114s-1.508-8.68-.953-11.285z" opacity=".2" transform="translate(156) translate(71.143 33.714) translate(222.978 35.787)"/>
                                    <g fill="#000" opacity=".2">
                                        <path d="M.615 1.035c-2.379 1.207 3.463 4.333 6.13 4.306L4.935.158S1.41.63.615 1.035z" transform="translate(156) translate(71.143 33.714) translate(222.978 35.787) translate(30.031 42.508)"/>
                                    </g>
                                    <path fill="#FFBE9D" d="M40.69 48.843c-1.67.114-3.31-.488-4.513-1.654-1.202-1.166-1.851-2.789-1.787-4.462.069-1.9.13-3.428.13-3.428s-4.71-.411-5.08-5.067c-.37-4.655-.288-15.412-.288-15.412 5.24-2.681 11.52-2.316 16.413.953l.727.48L46.202 43c-.028 3.088-2.43 5.634-5.511 5.842z" transform="translate(156) translate(71.143 33.714) translate(222.978 35.787)"/>
                                    <path fill="#263238" d="M31.682 27.02c.2-.194.264-.491.159-.75-.105-.26-.356-.429-.636-.429s-.53.17-.635.429c-.105.259-.042.556.159.75.266.257.687.257.953 0zM29.618 25.635c.076.075.507-.302 1.152-.35.644-.048 1.131.254 1.193.165.062-.09-.048-.179-.26-.323-.29-.176-.629-.258-.967-.233-.337.028-.657.162-.912.384-.185.172-.247.323-.206.357zM37.537 25.998c-.229.16-.338.442-.276.713.061.272.28.48.556.526.275.045.55-.08.696-.317.146-.237.134-.54-.03-.764-.22-.301-.64-.371-.946-.158zM36.406 25.655c.082.076.514-.308 1.158-.356.645-.048 1.125.254 1.193.164.069-.089-.048-.178-.267-.315-.285-.183-.623-.265-.96-.233-.337.022-.658.154-.912.377-.192.178-.247.33-.212.363zM34.363 31.305c-.342-.107-.699-.156-1.056-.144-.172 0-.302-.041-.323-.13-.015-.168.016-.336.09-.487l.418-1.371c.406-1.137.697-2.31.87-3.504-.524 1.086-.933 2.223-1.22 3.394-.137.466-.267.912-.39 1.371-.09.217-.107.458-.049.686.057.128.172.222.309.253.095.017.193.017.288 0 .355.04.715.016 1.063-.068z" transform="translate(156) translate(71.143 33.714) translate(222.978 35.787)"/>
                                    <path fill="#EB996E" d="M34.513 39.21c2.155-.105 4.23-.85 5.958-2.14 0 0-1.213 3.429-5.89 3.346l-.068-1.206z" transform="translate(156) translate(71.143 33.714) translate(222.978 35.787)"/>
                                    <path fill="#FFBE9D" d="M46.086 25.19c.09-.035 3.812-.44 3.223 3.16-.508 3.106-3.853 2.16-3.847 2.057.007-.103.624-5.218.624-5.218z" transform="translate(156) translate(71.143 33.714) translate(222.978 35.787)"/>
                                    <path fill="#EB996E" d="M46.765 29.035s.048.042.137.09c.125.065.27.08.405.04.413-.238.673-.674.685-1.151.032-.264.001-.532-.089-.782-.046-.2-.187-.366-.377-.445-.127-.04-.264.014-.329.13-.048.082 0 .144-.048.144s-.062-.055 0-.178c.025-.075.073-.14.137-.186.09-.057.198-.076.302-.054.256.068.457.266.528.52.108.277.15.576.123.871-.012.564-.36 1.067-.884 1.276-.172.037-.351-.006-.487-.117-.103-.082-.117-.15-.103-.158z" transform="translate(156) translate(71.143 33.714) translate(222.978 35.787)"/>
                                    <path fill="#263238" d="M45.305 28.425c-.72.432-1.7-.11-2.057-.864-.29-.79-.414-1.633-.363-2.475-.042-1.146-.24-2.28-.59-3.373-.091-.812-.595-1.52-1.333-1.872-.738-.351-1.606-.297-2.294.144-.753.377-1.579.582-2.42.604-1.104-.096-2.016-.967-3.12-1.118-1.103-.15-1.995.35-2.989.63-.988.329-2.058.305-3.03-.068-.98-.396-1.618-1.35-1.611-2.406.039-.514.292-.987.698-1.304.406-.317.926-.448 1.434-.362-.359-.244-.593-.632-.641-1.063-.05-.43.092-.861.387-1.179.654-.61 1.596-.8 2.434-.487.815.315 1.553.798 2.167 1.42.172-.784.857-1.35 1.659-1.372.793.004 1.563.266 2.194.747.685.44 1.24.974 1.933 1.372 1.371.76 3.003.843 4.546 1.124 1.542.281 3.195.905 3.942 2.29.686 1.214.22 2.674.164 4.059-.054 1.385-.061 1.762-.13 3.112-.013-.048.076 1.831-.98 2.441z" transform="translate(156) translate(71.143 33.714) translate(222.978 35.787)"/>
                                    <path fill="#FFF" d="M33.78 33.19c0 .041.171.117.487.11.842-.027 1.58-.573 1.85-1.371.097-.302.07-.494 0-.5-.068-.008-.253.685-.932 1.22-.437.253-.911.436-1.405.541z" transform="translate(156) translate(71.143 33.714) translate(222.978 35.787)"/>
                                    <path fill="#455A64" d="M28.425 16.914c-.22.154-.33.422-.28.685.029.293.166.564.383.762.307.244.706.339 1.09.26.455-.087.888-.262 1.275-.514.423-.292.885-.523 1.372-.686.555-.117 1.135-.03 1.631.247.528.26 1.022.638 1.57.974.516.369 1.135.568 1.77.569.587-.077 1.136-.336 1.57-.74.386-.342.836-.605 1.322-.776.433-.104.886-.078 1.303.076.618.222 1.126.674 1.42 1.261.09.221.156.451.198.686 0-.237-.051-.47-.15-.686-.282-.616-.798-1.095-1.434-1.33-.437-.17-.915-.203-1.37-.096-.508.165-.975.433-1.372.789-.424.372-.949.61-1.508.685-.609-.005-1.2-.199-1.694-.555-.535-.329-1.035-.686-1.584-.974-.522-.287-1.13-.377-1.714-.253-.486.165-.947.395-1.37.685-.375.25-.794.424-1.235.515-.36.083-.737 0-1.028-.227-.204-.176-.34-.419-.384-.685-.043-.247.04-.498.22-.672z" transform="translate(156) translate(71.143 33.714) translate(222.978 35.787)"/>
                                    <path fill="#455A64" d="M30.489 14.46c-.034-.051-.082-.091-.137-.117-.163-.079-.352-.079-.514 0-.272.113-.432.395-.391.685.053.383.319.702.685.823.432.126.892.104 1.31-.062.459-.184.934-.326 1.42-.425.54-.039 1.068.168 1.439.563.396.445.858.827 1.371 1.13.582.206 1.221.169 1.776-.102.495-.23 1.018-.396 1.556-.494 1.573-.213 3.117.56 3.887 1.948.22.39.288.63.302.623-.056-.224-.142-.441-.254-.644-.294-.568-.725-1.053-1.254-1.412-.793-.536-1.753-.763-2.701-.638-.547.097-1.08.263-1.584.494-.521.258-1.124.296-1.673.102-.51-.298-.971-.67-1.371-1.103-.395-.422-.96-.639-1.536-.59-.494.1-.976.248-1.44.446-.385.155-.81.184-1.213.082-.337-.104-.585-.392-.638-.74-.047-.265.095-.527.343-.631.152-.072.328-.072.48 0 .096 0 .13.068.137.061z" transform="translate(156) translate(71.143 33.714) translate(222.978 35.787)"/>
                                    <path fill="#263238" d="M44.256 18.107c.089.034.343-.528.946-.898s1.207-.364 1.213-.46c.007-.096-.143-.11-.41-.116-.708.017-1.35.42-1.674 1.049-.11.247-.116.411-.075.425z" transform="translate(156) translate(71.143 33.714) translate(222.978 35.787)"/>
                                    <path fill="#263238" d="M44.804 14.658c-.096 0 .041.727-.075 1.584-.117.857-.405 1.501-.322 1.55.733-.878.888-2.101.397-3.134z" transform="translate(156) translate(71.143 33.714) translate(222.978 35.787)"/>
                                    <path fill="#455A64" d="M45.894 27.157c.257-.393.33-.88.2-1.33-.14-.48-.397-.919-.748-1.275-.18-.213-.303-.468-.357-.74-.023-.302.014-.606.11-.892.19-.585.225-1.208.103-1.81-.11-.499-.406-.936-.83-1.22-.284-.187-.62-.28-.96-.268-.123.005-.244.036-.356.09 0 0 .13 0 .357-.035.324.005.64.108.905.295.395.274.668.692.76 1.165.113.583.075 1.184-.11 1.749-.1.304-.138.626-.109.946.06.294.194.568.39.795.345.34.601.76.748 1.22.072.319.072.649 0 .967-.023.117-.057.232-.103.343z" transform="translate(156) translate(71.143 33.714) translate(222.978 35.787)"/>
                                    <path fill="#263238" d="M42.508 60.333c.008.149.008.297 0 .446 0 .322 0 .686.034 1.18 0 1.014.062 2.44.075 4.16l-.04-.109 2.11 1.968h-.178l3.634-1.474-.103.137c.015-.115.035-.23.062-.343.398-2.16.768-4.196 1.097-5.965l.158.185c-2.023 0-3.723-.048-4.937-.075l-1.419-.041c-.166-.01-.331-.033-.493-.069.154-.023.31-.035.466-.034l1.371-.041c1.2 0 2.941-.069 5.032-.082h.185v.185c-.315 1.775-.685 3.812-1.055 5.971l-.062.343v.096l-.09.041-3.64 1.447-.103.041-.075-.075-2.057-1.996-.048-.048v-.061c0-1.783.048-3.25.076-4.251 0-.46 0-.836.04-1.152-.03-.126-.043-.255-.04-.384z" transform="translate(156) translate(71.143 33.714) translate(222.978 35.787)"/>
                                    <path fill="#263238" d="M48.96 62.123c-1.063.235-2.151.325-3.237.267-1.087.061-2.178-.022-3.243-.247 1.076-.13 2.16-.167 3.243-.11 1.08-.06 2.162-.031 3.236.09z" transform="translate(156) translate(71.143 33.714) translate(222.978 35.787)"/>
                                    <path fill="#FFBE9D" d="M18.01 58.544c.145.144-10.969 15.371-10.969 15.371h10.894l6.685-9.16-6.61-6.211z" transform="translate(156) translate(71.143 33.714) translate(222.978 35.787)"/>
                                </g>
                                <g>
                                    <path fill="#F5F5F5" d="M0.37 0.075H115.236V191.98299999999998H0.37z" transform="translate(156) translate(71.143 33.714) translate(103.682 11.105)"/>
                                    <path fill="#EA0028" d="M30.845 113.084L32.073 115.572 34.829 115.977 32.834 117.917 33.307 120.66 30.845 119.364 28.377 120.66 28.85 117.917 26.862 115.977 29.611 115.572zM44.516 113.084L45.75 115.572 48.5 115.977 46.511 117.917 46.978 120.66 44.516 119.364 42.055 120.66 42.528 117.917 40.533 115.977 43.289 115.572zM58.194 113.084L59.428 115.572 62.178 115.977 60.189 117.917 60.656 120.66 58.194 119.364 55.733 120.66 56.206 117.917 54.211 115.977 56.967 115.572zM71.872 113.084L73.106 115.572 75.855 115.977 73.867 117.917 74.333 120.66 71.872 119.364 69.411 120.66 69.884 117.917 67.889 115.977 70.638 115.572zM85.55 113.084L86.777 115.572 89.533 115.977 87.538 117.917 88.011 120.66 85.55 119.364 83.089 120.66 83.555 117.917 81.566 115.977 84.316 115.572zM53.114 135.578c0 .096-8.721.179-19.478.179-10.757 0-19.478-.083-19.478-.179 0-.096 8.72-.178 19.478-.178 10.757 0 19.478.076 19.478.178z" transform="translate(156) translate(71.143 33.714) translate(103.682 11.105)"/>
                                    <path fill="#263238" d="M102.06 144.032c0 .103-19.451.178-43.434.178-23.982 0-43.44-.075-43.44-.178s19.444-.178 43.44-.178 43.433.082 43.433.178zM102.06 151.3c0 .095-19.451.178-43.434.178-23.982 0-43.44-.083-43.44-.179 0-.096 19.444-.178 43.44-.178s43.433.082 43.433.178zM102.06 158.567c0 .096-19.451.178-43.434.178-23.982 0-43.44-.082-43.44-.178 0-.096 19.444-.178 43.44-.178s43.433.075 43.433.178zM102.06 165.834c0 .096-19.451.178-43.434.178-23.982 0-43.44-.082-43.44-.178 0-.096 19.444-.178 43.44-.178s43.433.075 43.433.178zM102.06 173.095c0 .103-19.451.178-43.434.178-23.982 0-43.44-.075-43.44-.178s19.444-.178 43.44-.178 43.433.082 43.433.178z" transform="translate(156) translate(71.143 33.714) translate(103.682 11.105)"/>
                                    <path fill="#E0E0E0" d="M7.926 9.818H106.873V104.809H7.926z" transform="translate(156) translate(71.143 33.714) translate(103.682 11.105)"/>
                                    <path fill="#263238" d="M51.729 25.56c1.035-3.477 4.216-6.075 7.74-6.918 3.524-.844 7.899-1.996 11.128-.35 2.015 1.028 3.949 2.523 4.744 4.641.94 2.517-.507 7.206-1.227 9.79-.72 2.586-1.262 5.54.158 7.817 1.419 2.276 4.21 3.071 5.964 5.005 2.424 2.891 2.11 7.185-.706 9.694 3.12-.185 5.752 2.996 5.643 6.116-.11 3.12-2.393 5.862-5.177 7.274-2.783 1.412-5.999 1.707-9.118 1.714-3.873.006-7.736-.396-11.525-1.2-3.12-.685-6.376-1.707-8.406-4.168-1.871-2.263-2.386-5.348-2.392-8.282 0-10.374 5.43-20.658 3.064-30.763" transform="translate(156) translate(71.143 33.714) translate(103.682 11.105)"/>
                                    <path fill="#263238" d="M54.259 23.173c-3.335-2.281-7.697-2.4-11.15-.3-3.453 2.099-5.356 6.025-4.866 10.036.254 2.057 1.11 4.114.59 6.068-.98 3.722-6.226 5.17-6.911 8.954-.274 1.494.253 2.996.651 4.456.398 1.46.686 3.113-.096 4.43-.562.973-1.577 1.583-2.372 2.371-2.55 2.55-2.503 7.028-.363 9.942 2.139 2.913 5.923 4.305 9.53 4.189 3.606-.117 7.061-1.577 10.14-3.463" transform="translate(156) translate(71.143 33.714) translate(103.682 11.105)"/>
                                    <path fill="#B78876" d="M46.683 27.342l.048 2.461.493 36.934c.055 4.292 3.792 7.658 8.379 7.541 4.641-.102 8.405-3.688 8.419-8.021 0-4.546.11-9.331.11-9.331s5.861-.974 7.075-8.618c.603-3.799.411-10.03.09-15.125-.133-2.201-1.16-4.253-2.844-5.678-1.683-1.424-3.877-2.098-6.07-1.863l-15.7 1.7z" transform="translate(156) translate(71.143 33.714) translate(103.682 11.105)"/>
                                    <path fill="#263238" d="M68.355 37.544c.004.53-.416.968-.946.987-.252.02-.502-.062-.692-.228-.19-.167-.304-.404-.316-.656-.008-.53.41-.97.94-.988.252-.02.502.062.693.228.191.167.307.404.32.657zM69.932 36.447c-.124.123-.864-.425-1.92-.425s-1.83.534-1.94.404c-.11-.13.061-.288.404-.535.457-.312.997-.48 1.55-.48.549 0 1.084.173 1.529.494.336.247.445.48.377.542zM58.194 37.544c.004.53-.415.968-.946.987-.251.017-.498-.067-.688-.233-.189-.166-.304-.4-.32-.651-.008-.533.414-.973.946-.988.252-.02.502.062.692.229.19.167.304.403.316.656z" transform="translate(156) translate(71.143 33.714) translate(103.682 11.105)"/>
                                    <path fill="#263238" d="M59.58 36.639c-.124.13-.872-.418-1.92-.418-1.05 0-1.831.534-1.948.404-.116-.13.069-.288.405-.535.458-.314 1-.481 1.556-.48.549 0 1.084.172 1.529.494.322.233.446.48.377.535zM63.405 44.462c.556-.175 1.132-.278 1.714-.309.267 0 .52-.082.569-.267.022-.277-.04-.555-.178-.796l-.803-2.057c-1.103-2.92-1.906-5.32-1.782-5.368.123-.048 1.104 2.29 2.214 5.21.268.72.521 1.406.761 2.058.172.323.221.698.138 1.055-.079.193-.24.339-.44.398-.15.039-.304.06-.459.062-.575.078-1.158.083-1.734.014z" transform="translate(156) translate(71.143 33.714) translate(103.682 11.105)"/>
                                    <path fill="#AA6550" d="M64.132 56.946c-3.6.051-7.144-.898-10.237-2.742 0 0 2.482 5.252 10.134 4.539l.103-1.797zM62.96 47.005c-.415-.505-1.06-.764-1.708-.686-.47.041-.901.275-1.193.645-.292.357-.328.86-.09 1.255.346.38.886.518 1.372.35.506-.175.972-.448 1.371-.803.116-.09.218-.196.302-.315.08-.118.08-.273 0-.391" transform="translate(156) translate(71.143 33.714) translate(103.682 11.105)"/>
                                    <path fill="#263238" d="M60.333 45.195c.172 0 .172 1.131 1.152 1.947.98.816 2.2.686 2.208.844.007.157-.268.226-.782.24-.67.006-1.323-.222-1.844-.645-.497-.409-.819-.993-.898-1.632-.076-.48.055-.76.164-.754zM52.901 23.763c0-.096.124-.144.185-.116.062.027.09.123.048.219-.026.08-.109.128-.192.11-.067-.05-.085-.142-.04-.213z" transform="translate(156) translate(71.143 33.714) translate(103.682 11.105)"/>
                                    <path fill="#263238" d="M46.278 63.5c2.269-.855 4.051-2.658 4.882-4.936.805-2.271.862-4.74.164-7.048-.301-1.062-.726-2.228-.26-3.229.435-.675 1.002-1.256 1.666-1.707 1.309-1.264 2.084-2.981 2.166-4.8.07-1.81-.26-3.616-.966-5.285-.364-.926-.802-1.94-.466-2.873.307-.636.764-1.188 1.33-1.611 1.087-1.02 1.985-2.225 2.653-3.558.466-.94.816-2.057.363-3.024-.555-1.152-1.995-1.508-3.263-1.604-3.03-.233-6.376.439-8.303 2.783-1.72 2.098-1.92 5.026-2.057 7.748-.384 8.556-.768 17.202.686 25.641" transform="translate(156) translate(71.143 33.714) translate(103.682 11.105)"/>
                                    <path fill="#263238" d="M74.196 26.492c-.422.255-.86.484-1.31.685-.395.287-.765.608-1.103.96-.199.192-.411.405-.603.624l-.138.165-.219.22-.528.5c-.51.474-1.057.905-1.638 1.289-.86.598-1.822 1.035-2.839 1.288-1.955.437-4 .195-5.8-.685-1.24-.597-2.329-1.47-3.181-2.55-1.303-1.735-1.502-3.14-.905-3.902.596-.76 2.111-.685 3.798-.24.821.214 1.655.38 2.496.494.66.095 1.333.076 1.988-.055.32-.072.631-.183.925-.329.432-.192.967-.473 1.584-.768.309-.144.63-.288.98-.425.172-.068.357-.13.535-.192.179-.062.405-.137.604-.185.746-.194 1.521-.256 2.29-.185 1.234.047 2.382.646 3.126 1.632.397.49.371 1.2-.062 1.659z" transform="translate(156) translate(71.143 33.714) translate(103.682 11.105)"/>
                                    <path fill="#455A64" d="M35.57 68.766c-.04-.034-.076-.07-.11-.11-.104-.112-.2-.231-.288-.356-.347-.475-.61-1.006-.775-1.57-.256-.891-.303-1.83-.137-2.742.243-1.23.895-2.342 1.85-3.154 1.022-.933 2.36-1.632 3.587-2.606.638-.493 1.186-1.094 1.618-1.775.447-.715.629-1.564.514-2.4-.233-1.728-1.66-3.243-1.783-5.313-.102-2.131 1.05-4.126 2.948-5.101.924-.397 1.8-.896 2.612-1.488.717-.634 1.103-1.561 1.05-2.516-.047-.933-.28-1.847-.686-2.688-.398-.83-.878-1.618-1.29-2.42-.423-.783-.715-1.63-.863-2.51-.111-.846-.005-1.707.309-2.502.582-1.4 1.598-2.575 2.9-3.352 1.068-.628 2.249-1.04 3.476-1.214.907-.134 1.825-.194 2.742-.178.761 0 1.371.055 1.742.089l.452.048h.15c-.2.014-.402.014-.602 0h-1.742c-.919.004-1.836.082-2.742.233-1.19.19-2.334.606-3.367 1.227-1.237.763-2.198 1.902-2.742 3.25-.288.746-.382 1.553-.274 2.345.149.843.436 1.656.85 2.406.404.789.891 1.57 1.303 2.427.44.88.695 1.842.747 2.825.064 1.057-.363 2.085-1.159 2.784-.83.616-1.73 1.134-2.68 1.542-1.777.923-2.85 2.8-2.743 4.8.09 1.906 1.495 3.428 1.755 5.279.125.91-.077 1.836-.569 2.612-.454.71-1.03 1.334-1.7 1.844-1.275.994-2.606 1.666-3.6 2.557-.93.766-1.573 1.825-1.823 3.003-.184.892-.158 1.815.075 2.695.214.728.55 1.414.994 2.03zM78.214 67.292c.332-.171.58-.471.685-.83.108-.412.077-.848-.089-1.24-.255-.505-.647-.928-1.13-1.22-.529-.364-1.18-.652-1.831-1.098-.742-.446-1.245-1.2-1.372-2.057-.02-.947.288-1.872.871-2.619.549-.788 1.262-1.46 1.81-2.255.562-.745.808-1.68.686-2.605-.16-.86-.519-1.67-1.05-2.366-.987-1.371-2.214-2.372-2.989-3.428-.678-.801-1.13-1.77-1.31-2.804-.038-.28-.038-.564 0-.843 0-.192.056-.295.07-.288-.008.371.013.742.061 1.11.225.991.696 1.909 1.371 2.667.782 1.022 2.016 1.989 3.058 3.428.568.736.954 1.596 1.125 2.51.075.496.047 1.003-.083 1.488-.147.493-.379.957-.685 1.37-.576.844-1.296 1.516-1.824 2.256-.538.682-.828 1.525-.823 2.393.11.772.56 1.454 1.227 1.858.61.432 1.262.74 1.797 1.125.517.333.927.81 1.179 1.37.175.44.187.926.034 1.372-.084.282-.267.525-.514.686-.088.03-.182.036-.274.02zM74.731 23.365v.24c-.001.23-.027.46-.075.686-.17.839-.582 1.609-1.187 2.215-.91.92-2.187 1.382-3.476 1.254-.76-.056-1.492-.309-2.125-.733-.637-.481-1.21-1.044-1.7-1.673-.478-.6-1.033-1.133-1.653-1.584-.584-.408-1.226-.724-1.906-.94-1.157-.36-2.39-.405-3.572-.13-.799.191-1.561.513-2.255.953-.494.316-.74.528-.754.508.19-.246.422-.458.685-.624.682-.5 1.452-.865 2.27-1.077 1.224-.326 2.515-.307 3.73.055.714.218 1.392.544 2.008.967.649.464 1.23 1.016 1.728 1.639.47.606 1.017 1.15 1.625 1.618.584.387 1.256.623 1.954.685 1.202.13 2.4-.276 3.277-1.11.586-.563 1.01-1.274 1.227-2.057.144-.562.144-.892.199-.892z" transform="translate(156) translate(71.143 33.714) translate(103.682 11.105)"/>
                                    <path fill="#263238" d="M59.846 32.505c-.102.288-1.158.15-2.392.301s-2.235.487-2.4.233c-.075-.123.096-.397.5-.685 1.092-.69 2.44-.84 3.655-.405.439.199.685.425.637.556zM69.555 33.389c-.185.24-.912 0-1.783 0-.87 0-1.618.165-1.79-.09-.068-.123.049-.363.37-.589.432-.28.94-.416 1.454-.39.511.011 1.006.179 1.42.48.308.226.41.472.329.589z" transform="translate(156) translate(71.143 33.714) translate(103.682 11.105)"/>
                                    <path fill="#EA0028" d="M39.697 105.117c.37.638-2.338-8.488-2.338-8.488l-2.27 8.337-16.831.124s9.509-31.086 14.027-35.426c5.896-5.663 16.948-5.971 16.948-5.971l6.616 5.642 10.449-5.368.384.041c6.957.856 13.024 5.139 16.16 11.409l11.333 29.364h-14.96l-3.195-8.666 1.07 8.666" transform="translate(156) translate(71.143 33.714) translate(103.682 11.105)"/>
                                    <path fill="#FAFAFA" d="M43.879 64.365l15.165 34.5 7.665-34.857s-2.125-.123-5.162-.24c-1.68-.062-3.64 6.582-5.67 6.548-1.303 0-2.626-6.74-3.936-6.733-1.652 0-3.263 0-4.73.11-1.275.068-2.393.582-3.332.672z" transform="translate(156) translate(71.143 33.714) translate(103.682 11.105)"/>
                                    <path fill="#FAFAFA" d="M46.73 64.687v-3.168s9.037.124 9.195 7.357c0 0 1.282-7.13 8.577-7.357l.466 2.427-2.057 8.317-5.265 3.503H50.55l-2.935-3.86-.884-7.22z" transform="translate(156) translate(71.143 33.714) translate(103.682 11.105)"/>
                                    <path fill="#263238" d="M58.914 99.783c.013-.131.043-.26.09-.384.114-.364.261-.717.438-1.056.292-.53.652-1.021 1.07-1.46.48-.521 1.055-1.07 1.638-1.721 1.451-1.458 2.717-3.088 3.771-4.854.573-1.057.904-2.228.967-3.428.092-1.285-.28-2.56-1.05-3.593l-.24-.308h.398c.153.017.307.017.46 0 .632-.13 1.194-.486 1.583-1.001.389-.505.637-1.103.72-1.735.094-1.232 0-2.471-.28-3.675-.392-2.358-.748-4.483-1.043-6.287-.295-1.803-.507-3.188-.685-4.237-.062-.473-.117-.85-.165-1.158-.024-.134-.035-.27-.034-.405.05.128.087.262.11.398.054.295.137.685.226 1.138.198 1.049.466 2.475.788 4.223l1.118 6.267c.3 1.24.403 2.52.301 3.791-.086.693-.359 1.349-.788 1.9-.44.587-1.083.99-1.803 1.13-.18.02-.362.02-.542 0l.15-.287c.824 1.097 1.221 2.457 1.118 3.825-.068 1.253-.42 2.475-1.028 3.572-1.079 1.783-2.38 3.421-3.874 4.875-.603.644-1.193 1.186-1.68 1.686-.419.412-.787.872-1.096 1.372-.473.884-.59 1.426-.638 1.412zM58.914 99.488c-.107-.092-.201-.198-.281-.315l-.775-.926c-.685-.802-1.666-1.94-2.92-3.325-1.255-1.385-2.743-3.037-4.272-5.012-.825-1.015-1.536-2.119-2.118-3.29-.637-1.308-.728-2.815-.254-4.19.075-.185.165-.363.267-.534l.09.26c-1.318-.476-2.49-1.287-3.401-2.352-.84-.972-1.5-2.086-1.947-3.29-.72-2.035-1.008-4.197-.843-6.35.09-1.434.262-2.862.514-4.277.089-.467.157-.844.22-1.145.013-.136.046-.27.095-.398.015.137.015.275 0 .411-.041.302-.089.686-.15 1.152-.124 1.008-.337 2.462-.398 4.272-.131 2.112.172 4.228.89 6.218.445 1.164 1.09 2.24 1.907 3.181.87 1.011 1.984 1.783 3.236 2.242l.199.069-.11.192c-.088.155-.168.316-.24.48-.436 1.286-.347 2.693.247 3.914.562 1.153 1.252 2.238 2.057 3.236 1.48 1.968 2.968 3.627 4.196 5.04 1.227 1.412 2.2 2.578 2.838 3.428.322.418.562.74.72.973.09.103.168.216.233.336z" transform="translate(156) translate(71.143 33.714) translate(103.682 11.105)"/>
                                    <path fill="#263238" d="M58.75 105.042c-.155-1.024-.19-2.061-.103-3.092-.027-1.033.06-2.065.26-3.079.181 2.056.128 4.126-.157 6.17zM36.92 98.686c.073-.401.172-.797.295-1.186.198-.761.486-1.865.76-3.243.714-3.587.99-7.248.823-10.901-.06-2.007-.33-4.001-.809-5.951-.387-1.589-1.114-3.074-2.132-4.354-.687-.859-1.535-1.576-2.495-2.111-.686-.37-1.118-.487-1.104-.521.105.011.208.034.308.068.295.085.582.195.857.33 1.012.493 1.91 1.193 2.633 2.056 1.066 1.294 1.835 2.806 2.256 4.429.499 1.972.781 3.993.843 6.026.173 3.682-.14 7.37-.933 10.97-.308 1.371-.63 2.475-.87 3.23-.124.37-.233.685-.302.856-.068.172-.116.343-.13.302zM76.15 93.098c-.045-.38-.06-.762-.048-1.145 0-.74 0-1.803-.068-3.12-.118-3.425-.418-6.841-.899-10.235-.667-4.504-1.631-8.959-2.886-13.335l-.048-.178.137.11c.247.171.476.366.686.582-.263-.14-.514-.302-.747-.487l.095-.062c1.444 4.337 2.488 8.796 3.12 13.322.49 3.407.758 6.842.802 10.284 0 1.323 0 2.393-.048 3.126 0 .382-.031.762-.096 1.138zM54.245 64.776c0 .034-.171 0-.404.185-.305.26-.54.593-.686.967-.653 1.245-1.06 2.605-1.2 4.004l-.048.445-.274-.363-.494-.686c-1.145-1.487-2.27-2.742-3.099-3.674-.478-.465-.92-.964-1.323-1.495.55.385 1.056.828 1.508 1.323 1.146 1.136 2.213 2.347 3.195 3.627l.5.686-.321.082c.16-1.44.628-2.829 1.37-4.073.192-.398.492-.736.865-.973.226-.13.418-.069.411-.055zM64.851 64.097c-.353.596-.759 1.158-1.213 1.68-.782 1.015-1.886 2.4-3.12 3.915l-.65.795-.303.37v-.48c.007-.787-.05-1.573-.171-2.351-.102-.614-.32-1.203-.644-1.735-.316-.473-.716-.885-1.18-1.213.159.027.31.09.44.185.377.228.702.534.952.898.372.545.63 1.161.754 1.81.147.791.22 1.595.22 2.4l-.316-.103.652-.802c1.234-1.516 2.365-2.873 3.201-3.847.415-.546.876-1.055 1.378-1.522zM58.612 98.042c-.083-.377-.138-.76-.164-1.145-.09-.803-.199-1.852-.336-3.127-.267-2.646-.603-6.3-.96-10.339-.356-4.038-.686-7.692-.864-10.345-.089-1.276-.157-2.332-.22-3.134-.032-.385-.032-.773 0-1.158.085.377.142.76.172 1.145.082.802.192 1.85.33 3.126.267 2.646.61 6.3.966 10.339.357 4.038.686 7.692.857 10.339.09 1.282.165 2.338.22 3.14.032.385.032.773 0 1.159zM58.633 75.094c0-.034.254-.205.624.041.215.149.348.39.356.652-.031.332-.257.613-.574.716-.318.103-.666.007-.886-.243-.148-.215-.184-.488-.096-.734.158-.418.487-.445.48-.404-.007.04-.185.157-.233.466-.033.164.007.334.11.466.132.138.334.184.514.117.187-.05.327-.206.356-.398.003-.166-.064-.325-.185-.439-.226-.226-.46-.185-.466-.24zM59.95 83.644c0-.041.301-.151.61.178.185.193.262.465.205.727-.1.333-.406.562-.754.562-.346.032-.67-.17-.795-.494-.083-.256-.031-.537.137-.747.28-.35.617-.267.59-.226-.028.041-.234.082-.378.37-.085.148-.1.327-.04.487.088.176.277.277.472.254.198.005.378-.112.453-.295.04-.165.01-.339-.082-.48-.179-.302-.419-.336-.419-.336z" transform="translate(156) translate(71.143 33.714) translate(103.682 11.105)"/>
                                    <g fill="#000" opacity=".3">
                                        <path d="M1.851.33C.57 4.887-.644 10.05 1.741 14.143c.686 1.234 1.728 2.283 2.4 3.545 1.159 2.16 1.234 4.723 1.954 7.061 1.447 4.738 6.616 9.345 11.518 10.065-2.53-3.078-6.444-7.09-8.776-10.579-.74-.91-1.287-1.962-1.604-3.092-.288-1.268-.5-2.612.343-3.606-3.277-.508-5.142-3.894-5.732-7.158C1.3 7.1 1.437 3.74 2.25.514" transform="translate(156) translate(71.143 33.714) translate(103.682 11.105) translate(41.136 64.447)"/>
                                    </g>
                                    <g fill="#000" opacity=".3">
                                        <path d="M.87 1.954C.056 6.849.604 13.266 3.614 17.216 4.717 11.84 4.168 4.813.871.405" transform="translate(156) translate(71.143 33.714) translate(103.682 11.105) translate(75.417 87.072)"/>
                                    </g>
                                </g>
                                <g>
                                    <path fill="#F5F5F5" d="M0.046 0.206H80.632V134.845H0.046z" transform="translate(156) translate(71.143 33.714) translate(19.217 39.9)"/>
                                    <path fill="#EA0028" d="M21.423 79.489L22.287 81.237 24.221 81.518 22.822 82.876 23.151 84.803 21.423 83.898 19.696 84.803 20.032 82.876 18.633 81.518 20.56 81.237zM31.022 79.489L31.886 81.237 33.819 81.518 32.421 82.876 32.75 84.803 31.022 83.898 29.294 84.803 29.623 82.876 28.225 81.518 30.158 81.237zM40.614 79.489L41.477 81.237 43.411 81.518 42.012 82.876 42.341 84.803 40.614 83.898 38.893 84.803 39.222 82.876 37.823 81.518 39.75 81.237zM50.212 79.489L51.076 81.237 53.009 81.518 51.611 82.876 51.94 84.803 50.212 83.898 48.484 84.803 48.813 82.876 47.415 81.518 49.348 81.237zM59.804 79.489L60.668 81.237 62.601 81.518 61.202 82.876 61.531 84.803 59.804 83.898 58.076 84.803 58.412 82.876 57.013 81.518 58.947 81.237zM37.048 95.3c0 .095-6.115.177-13.664.177-7.548 0-13.65-.11-13.65-.178 0-.068 6.122-.178 13.664-.178s13.65.048 13.65.178z" transform="translate(156) translate(71.143 33.714) translate(19.217 39.9)"/>
                                    <path fill="#263238" d="M71.39 101.202c0 .096-13.643.178-30.475.178-16.831 0-30.475-.082-30.475-.178 0-.096 13.644-.178 30.475-.178 16.832 0 30.475.082 30.475.178zM71.39 106.303c0 .096-13.643.178-30.475.178-16.831 0-30.475-.082-30.475-.178 0-.096 13.644-.185 30.475-.185 16.832 0 30.475.082 30.475.185zM71.39 111.397c0 .096-13.643.178-30.475.178-16.831 0-30.475-.082-30.475-.178 0-.096 13.644-.178 30.475-.178 16.832 0 30.475.082 30.475.178zM71.39 116.498c0 .096-13.643.178-30.475.178-16.831 0-30.475-.082-30.475-.178 0-.096 13.644-.178 30.475-.178 16.832 0 30.475.075 30.475.178zM71.39 121.592c0 .103-13.643.178-30.475.178-16.831 0-30.495-.075-30.495-.178s13.643-.178 30.475-.178c16.831 0 30.495.082 30.495.178z" transform="translate(156) translate(71.143 33.714) translate(19.217 39.9)"/>
                                    <path fill="#E0E0E0" d="M5.223 7.041H74.641V73.682H5.223z" transform="translate(156) translate(71.143 33.714) translate(19.217 39.9)"/>
                                    <path fill="#263238" d="M44.192 40.067c0 1.734.158 2.742.172 4.49-.052.436.085.873.377 1.2.308.21.709.23 1.035.048.317-.183.593-.43.81-.726 1.923-2.37 3.082-5.268 3.324-8.31.053-.258.002-.527-.144-.747-.274-.316-.781-.2-1.158 0-1.877.842-3.428 2.275-4.416 4.08" transform="translate(156) translate(71.143 33.714) translate(19.217 39.9)"/>
                                    <path fill="#FFBE9D" d="M32.537 19.334l.034 1.728.35 25.916c.067 1.485.726 2.881 1.83 3.877 1.105.996 2.561 1.508 4.046 1.422 3.256-.068 5.896-2.584 5.91-5.628 0-3.188.075-6.548.075-6.548s4.114-.686 4.964-6.04c.418-2.667.288-7.041.062-10.613-.097-1.541-.818-2.976-1.997-3.973-1.179-.996-2.714-1.468-4.25-1.306l-11.024 1.165z" transform="translate(156) translate(71.143 33.714) translate(19.217 39.9)"/>
                                    <path fill="#263238" d="M47.744 26.492c0 .378-.307.685-.686.685-.353.002-.65-.265-.685-.617 0-.378.307-.685.685-.685.354-.002.65.265.686.617zM48.861 25.717c-.089.096-.61-.295-1.37-.288-.762.007-1.283.37-1.372.281-.09-.089.041-.205.281-.377.32-.22.701-.338 1.09-.336.384-.003.759.117 1.07.343.253.178.343.343.301.377zM40.586 26.492c0 .378-.307.685-.685.685-.354.002-.65-.265-.686-.617 0-.378.307-.685.686-.685.353-.002.65.265.685.617z" transform="translate(156) translate(71.143 33.714) translate(19.217 39.9)"/>
                                    <path fill="#263238" d="M41.587 25.861c-.089.09-.61-.302-1.371-.295-.761.007-1.282.37-1.371.281-.09-.089.04-.205.28-.377.321-.22.702-.338 1.09-.336.386 0 .76.122 1.07.35.261.171.343.336.302.377zM44.268 31.346c.392-.122.797-.196 1.207-.22.185 0 .363-.054.397-.185.014-.193-.029-.386-.123-.555-.179-.46-.364-.94-.562-1.44-.517-1.22-.937-2.478-1.255-3.764.617 1.174 1.138 2.396 1.556 3.655l.535 1.446c.116.229.15.49.096.74-.05.138-.166.24-.309.275-.104.03-.213.047-.322.048-.405.052-.815.052-1.22 0z" transform="translate(156) translate(71.143 33.714) translate(19.217 39.9)"/>
                                    <path fill="#EB996E" d="M44.782 40.101c-2.524.039-5.009-.623-7.178-1.913 0 0 1.741 3.682 7.103 3.181l.075-1.268zM43.96 33.128c-.293-.355-.743-.54-1.2-.493-.329.031-.63.195-.837.452-.207.25-.231.602-.062.878.243.275.63.373.974.247.349-.124.67-.315.946-.562.081-.063.153-.137.213-.22.055-.083.055-.191 0-.274" transform="translate(156) translate(71.143 33.714) translate(19.217 39.9)"/>
                                    <path fill="#263238" d="M42.094 31.86c.117 0 .124.795.81 1.371.685.576 1.542.48 1.549.597.007.116-.192.15-.555.164-.47.007-.927-.153-1.29-.452-.352-.284-.579-.695-.63-1.145-.02-.343.062-.542.116-.535zM40.586 18.888c.568.167 1.056.535 1.371 1.036.307.493.651.963 1.029 1.405.954.943 2.407 1.164 3.6.549.431.418 1 .864 1.576.685.332-.133.57-.429.63-.781.054-.35.002-.709-.15-1.029-.562-1.31-2.009-2.009-3.428-2.283-1.707-.329-3.472-.192-5.108.398M27.642 73.901c.254.446-1.646-5.958-1.646-5.958l-1.59 5.849-11.806.089s6.67-21.81 9.838-24.853c4.114-3.977 11.889-4.19 11.889-4.19l11.977.193h.267c4.886.604 9.144 3.616 11.34 8.021l7.947 20.603H55.36l-2.235-6.082.747 6.082" transform="translate(156) translate(71.143 33.714) translate(19.217 39.9)"/>
                                    <path fill="#EA0028" d="M51.714 44.324c-.364-.863-1.68-.83-2.256-1.563-.576-.733-.076-1.947.398-2.859 2.269-4.374 2.056-9.598 1.624-14.493-.178-2.105-.39-4.251-1.302-6.17-1.817-3.8-6.212-6.802-11.656-6.555-4.45.171-7.836 4.182-10.242 7.932-2.407 3.75-3.689 9.599-2.9 14.007.397 2.194 2.742 3.887 2.33 6.075-.274 1.37-1.714 3.03-1.432 4.408.383 1.879 3.112 2.53 4.71 3.6 1.59 1.17 3.078 2.473 4.45 3.894 1.38 1.42 3.047 2.531 4.888 3.263 1.871.63 4.113.514 5.622-.74 2.488-2.057 2.248-6.123 4.51-8.413.659-.678 1.633-1.46 1.256-2.386zm-3.51-23.708c.911 1.371.986 3.147 1.199 4.8.443 2.76.475 5.572.096 8.343-.39 2.786-1.666 5.373-3.64 7.377-2.02 2.003-4.901 2.876-7.693 2.331-3.051-.685-4.031-3.428-4.895-6.41-.864-2.982 1.062-5.76 1.92-8.769.685-2.324.911-5.601 2.413-7.494 1.501-1.892 3.99-2.022 4.724-1.988 0-.007 4.045-.946 5.875 1.81z" transform="translate(156) translate(71.143 33.714) translate(19.217 39.9)"/>
                                    <g fill="#000" opacity=".3">
                                        <path d="M.363 2.59c1.81.98 3.23 2.537 4.704 3.976 1.474 1.44 3.112 2.839 5.107 3.353 1.995.514 4.423-.096 5.417-1.9C9.71 8.875 4.023 5.553 1.879.013" transform="translate(156) translate(71.143 33.714) translate(19.217 39.9) translate(26.188 40.315)"/>
                                    </g>
                                    <g fill="#000" opacity=".3">
                                        <path d="M3.913.487c-.382 1.441-1.356 2.654-2.68 3.339-.311.126-.602.297-.864.507-.266.219-.372.577-.268.905.2.334.606.483.974.357.352-.138.666-.357.918-.638.988-.953 2.016-1.988 2.297-3.332" transform="translate(156) translate(71.143 33.714) translate(19.217 39.9) translate(45.25 41.136)"/>
                                    </g>
                                </g>
                                <g fill="#455A64" stroke="#FFF" stroke-width="3">
                                    <path d="M82.916-1.213c14.502 1.07 28.707 6.161 40.875 15.142 12.167 8.982 21.217 21.056 26.514 34.599 5.297 13.542 6.84 28.553 3.995 43.407-.537 2.788-1.223 5.546-2.055 8.26-3.214 10.5-8.6 20.198-15.802 28.468l-.557.634 65.637 82.106-12.28 9.789-64.965-81.266c-19.842 14.931-45.6 19.602-69.452 12.556l-.722-.217-.9-.282c-14.96-4.78-27.788-13.793-37.248-25.528C6.504 114.731.413 100.291-1.087 84.641-2.603 68.826.718 53.333 7.926 39.93 15.134 26.527 26.23 15.214 40.26 7.76 53.615.664 68.414-2.284 82.916-1.213zm12.6 18.265c-15.935-4.925-33.175-3.271-47.88 4.592-13.246 7.036-23.081 18.258-28.527 31.31-5.446 13.053-6.503 27.937-2.187 42.297 4.316 14.36 13.403 26.195 25.143 34.082 11.74 7.887 26.132 11.827 41.057 10.395 14.926-1.432 28.306-8.035 38.332-18.01 10.026-9.976 16.698-23.323 18.205-38.242 1.507-14.918-2.36-29.33-10.188-41.109-7.828-11.78-19.617-20.926-33.954-25.315z" transform="translate(156) translate(71.143 33.714) translate(82.979 4.25)"/>
                                </g>
                            </g>
                            <path fill="#202020" d="M114.999 258.364H207.774V266.267H114.999z" transform="translate(156) translate(71.143 33.714)"/>
                        </g>
                    </g>
                </g>
            </g>
        </g>
    </g>
</svg>
